<svg width="177" height="188" viewBox="0 0 177 188" fill="none" xmlns="http://www.w3.org/2000/svg">
<g opacity="0.08">
<path d="M49.7434 94.1396H12.0791C16.8826 107.281 22.9386 121.575 29.8802 133.091C40.6035 150.879 54.2388 164.885 61.4125 171.652C66.6732 176.615 71.7905 180.845 76.2085 183.886C78.9886 185.799 81.1969 187.034 82.9724 187.83V127.369C65.8262 124.882 52.2297 111.286 49.7434 94.1396Z" fill="#979696"/>
<path d="M94.3027 127.369V187.705C96.0295 186.907 98.1547 185.7 100.791 183.884C105.21 180.844 110.325 176.613 115.587 171.651C122.761 164.885 136.396 150.878 147.12 133.091C154.063 121.575 160.117 107.281 164.919 94.1396H127.532C125.045 111.286 111.449 124.882 94.3027 127.369Z" fill="#979696"/>
<path d="M82.8378 49.5985V0H49.2605C46.5679 0 44.2478 1.89446 43.709 4.53123C43.6617 4.76768 38.4698 28.3954 2.75304 49.8034C0.607802 51.0889 -0.439742 53.6296 0.173594 56.0543C0.41291 56.9958 3.28183 68.2121 8.13263 82.8089H49.7435C52.2226 65.7072 65.7547 52.1364 82.8378 49.5985Z" fill="#979696"/>
<path d="M127.533 82.8089H168.868C173.719 68.2135 176.588 56.9958 176.826 56.0543C177.441 53.6296 176.393 51.0889 174.248 49.8034C155.743 38.7132 145.586 26.9653 140.325 19.0621C134.81 10.7807 133.374 4.88233 133.288 4.50974C132.772 1.84861 130.455 0 127.74 0H94.1689V49.5613C111.38 51.996 125.039 65.6169 127.533 82.8089Z" fill="#979696"/>
<path d="M88.6392 60.4995C73.2141 60.4995 60.665 73.05 60.665 88.4736C60.665 103.899 73.2141 116.448 88.6392 116.448C104.063 116.448 116.612 103.899 116.612 88.4736C116.612 73.05 104.063 60.4995 88.6392 60.4995ZM104.127 86.0547L87.2219 102.96C86.1572 104.025 84.7155 104.62 83.2166 104.62C83.1263 104.62 83.0346 104.618 82.9415 104.612C81.3465 104.535 79.8576 103.788 78.8416 102.555L71.6119 93.7673C69.6243 91.3512 69.9711 87.7815 72.3872 85.7939C74.8033 83.8048 78.373 84.1516 80.3606 86.5677L83.625 90.5343L96.1167 78.0441C98.3293 75.8315 101.916 75.8315 104.127 78.0441C106.341 80.2552 106.341 83.8421 104.127 86.0547Z" fill="#979696"/>
</g>
</svg>
