<svg width="170" height="51" viewBox="0 0 170 51" fill="none" xmlns="http://www.w3.org/2000/svg">
<path d="M10.0598 27.5883H7.54549V7.51386C3.28406 8.06705 2.6185 11.3756 2.52606 12.0245V27.5883H0.0117188V11.7692C0.242816 9.26918 2.3874 4.54578 8.79342 4.54578H10.0506L10.0598 27.5883Z" fill="#5A9D32"/>
<path d="M8.80428 18.7052H1.27051V21.5988H8.80428V18.7052Z" fill="#5A9D32"/>
<path d="M54.4392 27.5355H51.9249V7.42914C47.6634 7.97169 46.9979 11.2802 46.9054 11.9398V27.5355H44.3818V11.6845C44.6129 9.18446 46.7575 4.46106 53.1635 4.46106H54.4207L54.4392 27.5355Z" fill="#5A9D32"/>
<path d="M53.1822 18.6091H45.6484V21.5027H53.1822V18.6091Z" fill="#5A9D32"/>
<path d="M73.7203 27.6951H73.6371C70.0505 27.6951 68.8672 23.9079 68.7471 21.9079V10.0994C68.8672 8.09935 70.0505 4.3334 73.6371 4.31212C74.9767 4.29421 76.2733 4.85616 77.2699 5.88659C77.7264 6.43153 78.0789 7.08015 78.3049 7.79093C78.531 8.50171 78.6255 9.25898 78.5826 10.0142V12.1419H76.059V10.0142C76.0949 9.64977 76.0641 9.28067 75.9686 8.93072C75.8731 8.58077 75.7149 8.25771 75.5044 7.98233C74.9995 7.50276 74.3657 7.23958 73.711 7.23765C71.6589 7.23765 71.3446 9.81212 71.3076 10.2908V21.7802C71.3076 22.2376 71.6497 24.8334 73.711 24.8334C74.3867 24.8493 75.0441 24.5807 75.5598 24.0781C75.7673 23.8093 75.9231 23.4932 76.0171 23.1504C76.1111 22.8076 76.1411 22.4458 76.1052 22.0887V17.6525H78.5826V22.0249C78.6249 22.7728 78.5309 23.5226 78.3064 24.2261C78.0819 24.9296 77.732 25.5714 77.2792 26.11C76.3067 27.1315 75.037 27.697 73.7203 27.6951Z" fill="#5A9D32"/>
<path d="M22.1967 27.5883H19.7286V7.51386C15.4579 8.06705 14.7923 11.3756 14.6999 12.0245V27.5883H12.1855V11.7692C12.4166 9.26918 14.5612 4.54578 20.9765 4.54578H22.1967V27.5883Z" fill="#5A9D32"/>
<path d="M42.2673 27.5356H39.7622V11.9718C39.679 11.3441 39.0227 8.01432 34.7335 7.46112V27.5356H32.21V4.49304H33.4671C39.8824 4.49304 42.0177 9.21644 42.2581 11.7164V27.5356H42.2673Z" fill="#5A9D32"/>
<path d="M34.428 27.5356H31.9137V11.9718C31.8305 11.3441 31.1741 8.01432 26.885 7.46112V27.5356H24.3799V4.49304H25.6278C32.0431 4.49304 34.1877 9.21644 34.4188 11.7164V27.5356H34.428Z" fill="#5A9D32"/>
<path d="M137.845 27.4397H135.331V4.50354H145.379V12.7269C145.167 15.0461 143.29 19.312 137.855 19.8865L137.845 27.4397ZM137.845 7.39715V16.9716C142.107 16.4184 142.782 13.1099 142.865 12.4503V7.39715H137.845Z" fill="#5A9D32"/>
<path d="M157.566 27.5359H155.051V7.41889C150.79 7.97208 150.115 11.2806 150.032 11.9402V27.5359H147.518V11.6742C147.749 9.18484 149.884 4.45081 156.299 4.45081H157.556L157.566 27.5359Z" fill="#5A9D32"/>
<path d="M156.307 18.6091H148.773V21.5027H156.307V18.6091Z" fill="#5A9D32"/>
<path d="M63.6279 1.05719H59.5791V3.9508H63.6279V1.05719Z" fill="#5A9D32"/>
<path d="M57.8324 27.5354H56.5752V4.50354H59.0895V24.578C63.351 24.0354 64.0165 20.7163 64.109 20.0674V4.50354H66.6233V20.3227C66.383 22.8227 64.2384 27.5354 57.8324 27.5354Z" fill="#5A9D32"/>
<path d="M66.6237 5.50366H64.1094V27.5143H66.6237V5.50366Z" fill="#5A9D32"/>
<path d="M94.1439 27.5359H92.8867V4.45081H95.4011V24.5253C99.6625 23.9827 100.328 20.6742 100.42 20.0146V4.45081H102.935V20.2699C102.694 22.7699 100.55 27.5359 94.1439 27.5359Z" fill="#5A9D32"/>
<path d="M102.935 5.45013H100.421V27.4608H102.935V5.45013Z" fill="#5A9D32"/>
<path d="M112.36 0.991821H108.312V3.88544H112.36V0.991821Z" fill="#5A9D32"/>
<path d="M106.316 27.5356H105.059V4.49304H107.573V24.5675C111.834 24.0143 112.5 20.7058 112.592 20.0569V4.49304H115.107V20.3122C114.876 22.8122 112.731 27.5356 106.316 27.5356Z" fill="#5A9D32"/>
<path d="M115.117 5.49323H112.603V27.5038H115.117V5.49323Z" fill="#5A9D32"/>
<path d="M125.665 4.30127H123.15V27.4927H125.665V4.30127Z" fill="#5A9D32"/>
<path d="M123.761 19.9502V17.0672C129.15 17.0672 129.936 13.1842 130.037 12.4715V4.30127H132.552V12.7268C132.311 15.2268 130.167 19.9502 123.761 19.9502Z" fill="#5A9D32"/>
<path d="M133.206 27.4505H130.691V22.4292C130.531 21.6147 130.204 20.8559 129.738 20.2158C129.272 19.5756 128.68 19.0726 128.011 18.7484L129.065 16.1207C130.141 16.658 131.084 17.4975 131.806 18.5625C132.528 19.6274 133.006 20.8838 133.197 22.2165V27.5356L133.206 27.4505Z" fill="#5A9D32"/>
<path d="M166.994 0.939636H162.945V3.83325H166.994V0.939636Z" fill="#5A9D32"/>
<path d="M160.948 27.5344H159.69V4.43866H162.205V24.5131C166.466 23.9599 167.141 20.6514 167.233 20.0025V4.43866H169.739V20.2578C169.498 22.7578 167.326 27.5344 160.948 27.5344Z" fill="#5A9D32"/>
<path d="M169.75 5.4397H167.235V27.4503H169.75V5.4397Z" fill="#5A9D32"/>
<path d="M83.2165 4.47156H80.7021V27.663H83.2165V4.47156Z" fill="#5A9D32"/>
<path d="M81.3027 20.0886V17.2269C86.7012 17.2269 87.4869 13.3545 87.5886 12.6311V4.47156H90.1029V12.8864C89.8626 15.3864 87.718 20.0886 81.3027 20.0886Z" fill="#5A9D32"/>
<path d="M90.7503 27.6102H88.2452V22.5995C88.0861 21.7843 87.7597 21.0247 87.2933 20.3844C86.827 19.744 86.2341 19.2414 85.5645 18.9187L86.6183 16.291C87.6907 16.821 88.6306 17.6517 89.3524 18.7072C90.0742 19.7627 90.5548 21.0094 90.7503 22.3336V27.6527V27.6102Z" fill="#5A9D32"/>
<path d="M39.7608 45.163C39.7608 47.1843 38.633 48.4183 36.359 48.4183H33.29V37.2056H36.2111C38.1893 37.2056 39.2616 38.3758 39.2616 40.3119C39.248 40.7406 39.1432 41.1588 38.9562 41.5298C38.7692 41.9008 38.5058 42.2132 38.1893 42.4396C38.6663 42.6466 39.0746 43.021 39.3566 43.5097C39.6386 43.9984 39.78 44.5768 39.7608 45.163ZM35.0279 41.8013H36.1187C37.0431 41.8013 37.5053 41.2907 37.5053 40.3545C37.5053 39.4183 36.9876 38.929 36.0632 38.929H35.0186L35.0279 41.8013ZM37.9859 45.0992C37.9859 44.0353 37.4868 43.546 36.433 43.546H35.0186V46.6843H36.4237C37.4775 46.6843 37.9767 46.1205 37.9767 45.0992H37.9859Z" fill="#006248"/>
<path d="M40.998 44.5568V41.0143C40.998 38.4186 42.2552 36.9292 44.2889 36.9292C46.3225 36.9292 47.5982 38.4186 47.6721 41.0143H45.8234C45.8234 39.5888 45.2502 38.8866 44.2704 38.8866C43.2905 38.8866 42.7729 39.5675 42.7729 41.0143V44.5568C42.7729 45.9824 43.3275 46.6845 44.2704 46.6845C45.2133 46.6845 45.8234 45.9824 45.8788 44.5568H47.7091C47.6537 47.1739 46.3595 48.6632 44.2889 48.6632C42.2182 48.6632 40.998 47.1632 40.998 44.5568Z" fill="#006248"/>
<path d="M55.9361 44.9079C55.938 45.4297 55.8451 45.9461 55.6634 46.4242C55.4817 46.9022 55.2152 47.3313 54.881 47.6838C54.5468 48.0364 54.1522 48.3047 53.7227 48.4715C53.2931 48.6384 52.838 48.7 52.3865 48.6526C50.3528 48.6526 49.0771 47.1207 49.0771 44.3973V41.0994C49.0771 38.4398 50.3528 36.9292 52.405 36.9292C54.4571 36.9292 55.8067 38.4398 55.8067 41.0994V43.5888H50.852V44.4398C50.852 45.9717 51.4251 46.6739 52.405 46.6739C53.3848 46.6739 53.9579 46.1207 54.1243 44.9079H55.9361ZM50.852 41.0781V42.0356H54.0134V41.0781C54.0134 39.5462 53.4218 38.8654 52.405 38.8654C51.3881 38.8654 50.852 39.5462 50.852 41.0781Z" fill="#006248"/>
<path d="M67.9645 37.2056V48.4183H66.1712V43.6311H63.4535V48.4183H61.6602V37.2056H63.4535V41.7162H66.1712V37.2056H67.9645Z" fill="#006248"/>
<path d="M76.3574 40.9716V48.4184H74.8877L74.749 47.3546C74.528 47.7788 74.2107 48.1258 73.8312 48.3582C73.4517 48.5906 73.0244 48.6997 72.5952 48.6737C72.1939 48.702 71.792 48.6315 71.4162 48.4669C71.0405 48.3023 70.6995 48.0474 70.4161 47.7192C70.1327 47.391 69.9133 46.9971 69.7726 46.5637C69.6319 46.1302 69.5731 45.6673 69.6001 45.2056C69.6001 42.9078 70.9867 41.7375 73.1313 41.7375H74.5549V40.9503C74.5549 39.6312 74.1297 38.8865 73.1498 38.8865C72.9669 38.8676 72.7825 38.8916 72.6078 38.957C72.4331 39.0224 72.2718 39.1279 72.1335 39.2671C71.9953 39.4064 71.883 39.5764 71.8035 39.7669C71.7239 39.9575 71.6788 40.1646 71.6708 40.3758H69.8867C69.8861 39.8908 69.9736 39.4109 70.1437 38.9671C70.3138 38.5233 70.5626 38.1253 70.8743 37.7987C71.1859 37.4721 71.5534 37.2242 71.9533 37.0707C72.3531 36.9173 72.7764 36.8618 73.196 36.9078C75.2851 36.929 76.3574 38.3971 76.3574 40.9716ZM74.5641 43.546H73.1406C72.0498 43.546 71.4212 44.1205 71.4212 45.2269C71.4112 45.4581 71.4456 45.6891 71.522 45.9033C71.5983 46.1175 71.7148 46.3096 71.8631 46.4661C72.0114 46.6225 72.1879 46.7394 72.3799 46.8084C72.572 46.8774 72.7749 46.8968 72.9742 46.8652C73.1839 46.8837 73.3947 46.8505 73.5923 46.7678C73.79 46.6851 73.9701 46.5549 74.1206 46.3857C74.2711 46.2166 74.3885 46.0124 74.465 45.7869C74.5415 45.5614 74.5753 45.3197 74.5641 45.078V43.546Z" fill="#006248"/>
<path d="M78.2715 44.5568V41.0143C78.2715 38.4186 79.5287 36.9292 81.5623 36.9292C83.596 36.9292 84.8716 38.4186 84.9456 41.0143H83.0968C83.0968 39.5888 82.5237 38.8866 81.5438 38.8866C80.564 38.8866 80.0463 39.5675 80.0463 41.0143V44.5568C80.0463 45.9824 80.6009 46.6845 81.5438 46.6845C82.4867 46.6845 83.0968 45.9824 83.1523 44.5568H84.9456C84.8901 47.1739 83.596 48.6632 81.5253 48.6632C79.4547 48.6632 78.2715 47.1632 78.2715 44.5568Z" fill="#006248"/>
<path d="M91.915 39.1417H89.6779V48.4183H87.9031V39.1417H85.6846V37.2056H91.915V39.1417Z" fill="#006248"/>
<path d="M92.627 44.4182V41.2268C92.627 38.4821 93.9396 36.9714 96.0472 36.9714C98.1548 36.9714 99.4859 38.4821 99.4859 41.2268V44.4182C99.4859 47.1629 98.1733 48.6736 96.0472 48.6736C93.9211 48.6736 92.627 47.1629 92.627 44.4182ZM97.6741 44.4182V41.2268C97.6741 39.6523 97.064 38.9714 96.0472 38.9714C95.0304 38.9714 94.4388 39.6523 94.4388 41.2268V44.4182C94.4388 45.9927 95.0489 46.6736 96.0472 46.6736C97.0455 46.6736 97.6741 45.9927 97.6741 44.4182Z" fill="#006248"/>
<path d="M107.084 37.2057V48.4185H105.393V44.6313H104.339L102.582 48.4185H100.549L102.619 44.3334C102.051 44.035 101.577 43.5413 101.263 42.9203C100.948 42.2993 100.809 41.5814 100.863 40.8653C100.839 40.3683 100.908 39.8711 101.065 39.4074C101.223 38.9437 101.464 38.5242 101.775 38.1773C102.085 37.8304 102.456 37.5642 102.863 37.3966C103.271 37.2289 103.704 37.1639 104.135 37.2057H107.084ZM105.393 39.0781H104.209C103.994 39.0526 103.775 39.0832 103.571 39.1675C103.367 39.2518 103.182 39.3878 103.029 39.5654C102.877 39.743 102.761 39.9577 102.69 40.1937C102.619 40.4297 102.595 40.681 102.619 40.9291C102.619 42.1845 103.137 42.8653 104.172 42.8653H105.393V39.0781Z" fill="#006248"/>
<path d="M120.774 46.546V50.9396H119.073V48.4183H109.09V37.2056H110.939V46.5034H113.564V37.2056H115.339V46.5034H117.946V37.2056H119.72V46.546H120.774Z" fill="#006248"/>
<path d="M128.789 44.9079C128.791 45.4297 128.698 45.9461 128.516 46.4242C128.334 46.9022 128.068 47.3313 127.734 47.6838C127.399 48.0364 127.005 48.3047 126.575 48.4715C126.146 48.6384 125.691 48.7 125.239 48.6526C123.205 48.6526 121.93 47.1207 121.93 44.3973V41.0994C121.93 38.4398 123.205 36.9292 125.257 36.9292C127.31 36.9292 128.659 38.4398 128.659 41.0994V43.5888H123.723V44.4398C123.723 45.9717 124.296 46.6739 125.276 46.6739C126.256 46.6739 126.829 46.1207 126.995 44.9079H128.789ZM123.723 41.0781V42.0356H126.884V41.0781C126.884 39.5462 126.293 38.8654 125.276 38.8654C124.259 38.8654 123.723 39.5462 123.723 41.0781Z" fill="#006248"/>
<path d="M137.181 44.9079C137.183 45.4297 137.09 45.9461 136.909 46.4242C136.727 46.9022 136.46 47.3313 136.126 47.6838C135.792 48.0364 135.397 48.3047 134.968 48.4715C134.538 48.6384 134.083 48.7 133.632 48.6526C131.598 48.6526 130.322 47.1207 130.322 44.3973V41.0994C130.322 38.4398 131.598 36.9292 133.65 36.9292C135.702 36.9292 137.052 38.4398 137.052 41.0994V43.5888H132.116V44.4398C132.116 45.9717 132.689 46.6739 133.669 46.6739C134.648 46.6739 135.222 46.1207 135.388 44.9079H137.181ZM132.116 41.0781V42.0356H135.277V41.0781C135.277 39.5462 134.685 38.8654 133.669 38.8654C132.652 38.8654 132.116 39.5462 132.116 41.0781Z" fill="#006248"/>
<path d="M139.039 47.3549C139.041 47.1012 139.108 46.8538 139.231 46.6437C139.355 46.4337 139.53 46.2704 139.734 46.1743C139.938 46.0782 140.162 46.0536 140.378 46.1036C140.594 46.1536 140.792 46.276 140.948 46.4553C141.104 46.6347 141.211 46.8631 141.254 47.1118C141.297 47.3605 141.276 47.6184 141.193 47.8532C141.109 48.088 140.967 48.2891 140.785 48.4314C140.602 48.5736 140.387 48.6506 140.167 48.6527C140.016 48.6654 139.864 48.6405 139.722 48.5798C139.581 48.5191 139.452 48.4239 139.345 48.3007C139.238 48.1776 139.155 48.0294 139.102 47.8662C139.05 47.7029 139.028 47.5286 139.039 47.3549ZM139.261 33.5251H141.054V44.8655H139.261V33.5251Z" fill="#006248"/>
</svg>
