<svg width="32" height="19" viewBox="0 0 32 19" fill="none" xmlns="http://www.w3.org/2000/svg">
<path fill-rule="evenodd" clip-rule="evenodd" d="M21.6558 0.601615C21.7758 0.481335 21.9183 0.385906 22.0752 0.320794C22.2321 0.255683 22.4004 0.222168 22.5702 0.222168C22.7401 0.222168 22.9083 0.255683 23.0653 0.320794C23.2222 0.385906 23.3647 0.481335 23.4847 0.601615L31.2341 8.35104C31.3544 8.47101 31.4498 8.61354 31.5149 8.77045C31.58 8.92737 31.6135 9.09558 31.6135 9.26547C31.6135 9.43536 31.58 9.60357 31.5149 9.76049C31.4498 9.9174 31.3544 10.0599 31.2341 10.1799L23.4847 17.9293C23.2422 18.1718 22.9132 18.3081 22.5702 18.3081C22.2273 18.3081 21.8983 18.1718 21.6558 17.9293C21.4133 17.6868 21.277 17.3579 21.277 17.0149C21.277 16.6719 21.4133 16.343 21.6558 16.1005L28.4934 9.26547L21.6558 2.43048C21.5355 2.3105 21.4401 2.16798 21.375 2.01106C21.3099 1.85415 21.2764 1.68593 21.2764 1.51605C21.2764 1.34616 21.3099 1.17794 21.375 1.02103C21.4401 0.864117 21.5355 0.72159 21.6558 0.601615Z" fill="#006248"/>
<path fill-rule="evenodd" clip-rule="evenodd" d="M0.613281 9.26548C0.613281 8.92293 0.749357 8.59442 0.991574 8.3522C1.23379 8.10998 1.56231 7.97391 1.90485 7.97391H29.0278C29.3704 7.97391 29.6989 8.10998 29.9411 8.3522C30.1833 8.59442 30.3194 8.92293 30.3194 9.26548C30.3194 9.60802 30.1833 9.93654 29.9411 10.1788C29.6989 10.421 29.3704 10.557 29.0278 10.557H1.90485C1.56231 10.557 1.23379 10.421 0.991574 10.1788C0.749357 9.93654 0.613281 9.60802 0.613281 9.26548Z" fill="#006248"/>
</svg>
