<svg width="417" height="241" viewBox="0 0 417 241" fill="none" xmlns="http://www.w3.org/2000/svg">
<path d="M231.797 10.9817C231.797 10.9817 245.96 -0.968587 252.841 -3.18947C271.193 -9.28435 285.158 3.63038 296.314 13.8677L308.345 24.916C307.649 25.6547 306.993 26.4532 306.322 27.197L294.257 16.1108C283.677 6.40036 270.513 -5.71871 253.748 -0.330903C247.329 1.73066 233.509 13.2484 233.509 13.2484C233.509 13.2484 231.713 14.2702 230.051 15.3502L228.228 14.1591L231.797 10.9817Z" fill="#AECE95"/>
<path d="M232.517 4.31685C238.699 -0.606468 245.117 -5.69901 252.451 -8.07628C272.027 -14.3353 286.762 -0.828015 298.618 10.0912L311.443 21.8664C310.697 22.5481 309.957 23.2518 309.247 23.9824L296.576 12.3422C285.321 2.00186 271.297 -10.8734 253.41 -5.14979C246.567 -2.96259 240.404 1.94388 234.434 6.69289C232.379 8.32473 230.259 10.021 228.182 11.5293L225.808 9.99247C225.808 9.99247 230.416 5.99627 232.517 4.31685Z" fill="#AECE95"/>
<path d="M228.887 0.990455C235.833 -4.54884 243.023 -10.2713 251.318 -12.9183C273.278 -19.9806 289.87 -4.71549 303.182 7.51684L315.306 18.6463C314.487 19.2769 313.683 19.9156 312.909 20.5813L301.114 9.71601C288.378 -1.98934 272.513 -16.5566 252.221 -10.0706C244.468 -7.59257 237.501 -2.04739 230.768 3.3176C228.335 5.25047 223.778 9.17425 223.778 9.17425L221.637 7.5866C221.637 7.5866 226.484 2.90354 228.887 0.990455Z" fill="#AECE95"/>
<path d="M325.931 11.4191C325.479 11.881 325.01 12.3708 324.57 12.8766C316.396 8.68881 307.162 4.62103 297.848 5.26204C296.984 4.3188 296.164 3.36381 295.334 2.41175C306.386 0.799536 317.201 5.67717 326.646 10.5342L325.931 11.4191Z" fill="#AECE95"/>
<path d="M327.994 9.02353L327.575 9.52346C317.434 4.26532 305.666 -1.32012 293.947 0.788012C293.131 -0.109252 292.296 -0.989671 291.45 -1.82037C305.015 -5.24567 318.407 1.31407 329.743 7.21523C329.15 7.809 328.556 8.40276 327.994 9.02353Z" fill="#AECE95"/>
<path d="M331.226 5.81975C318.771 -0.662655 304.116 -7.63603 289.675 -3.40014C288.695 -4.2193 287.64 -4.94332 286.522 -5.56241C303.202 -11.8435 319.873 -3.53082 333.75 3.69811C332.882 4.3654 332.04 5.08455 331.226 5.81975Z" fill="#AECE95"/>
<path d="M315.822 18.2628C313.231 17.0847 310.571 16.0638 307.857 15.2058C307.016 13.6911 305.936 12.3226 304.657 11.1535C309.518 12.3397 314.238 14.0438 318.735 16.2365C317.746 16.8893 316.774 17.561 315.822 18.2628Z" fill="#AECE95"/>
<path d="M320.899 14.8819L320.174 15.3348C314.403 12.472 308.264 10.4178 301.931 9.22987C301.777 9.09486 301.621 8.94888 301.456 8.81681C300.333 7.82573 299.299 6.77529 298.271 5.7C307.129 6.29729 315.745 9.76718 323.671 13.6453C322.758 14.0545 321.837 14.4777 320.899 14.8819Z" fill="#AECE95"/>
<path d="M253.259 4.60718C252.3 4.92814 251.361 5.30172 250.443 5.72621C250.07 5.64248 249.691 5.59094 249.309 5.57216C248.809 5.45806 248.297 5.40215 247.783 5.40553C247.382 5.02106 246.96 4.65971 246.518 4.32323C248.379 3.26749 250.338 2.39237 252.366 1.70983C267.888 -3.40345 280.067 5.38499 290.078 14.461C289.781 14.4078 289.482 14.3743 289.181 14.3607C287.975 14.0878 286.719 14.1216 285.528 14.459C276.614 6.88658 266.007 0.414013 253.259 4.60718Z" fill="#AECE95"/>
<path d="M252.905 6.71076C252.625 6.54304 252.336 6.38556 252.038 6.23833C264.759 2.42829 275.233 7.83208 284.104 14.9343C283.647 15.0906 283.21 15.2985 282.801 15.5539L282.658 15.5922L282.467 15.7138C281.936 16.056 281.557 16.3102 281.255 16.5439C273.756 10.7892 265.149 6.51794 255.188 8.56572C254.559 7.801 253.783 7.17025 252.905 6.71076Z" fill="#AECE95"/>
<path d="M224.625 -1.27279C224.625 -1.27279 238.448 -13.7899 246.818 -16.4684C268.975 -23.5836 285.706 -8.19179 299.155 4.15637L315.145 18.7956C314.325 19.4226 313.524 20.0722 312.74 20.7445L297.146 6.39857C284.221 -5.39696 268.217 -20.091 247.714 -13.5601C239.887 -11.0506 226.871 0.310286 226.871 0.310286L219.431 6.59301L217.724 4.60705L224.625 -1.27279Z" fill="#AECE95"/>
<path d="M182.983 0.267037C183.293 0.108021 183.633 0.0168019 183.981 -0.000543625C184.178 -0.053472 184.474 -0.132856 184.704 -0.194605C185.158 -0.248309 185.618 -0.224518 186.063 -0.124242C186.299 -0.0753228 186.532 -0.0121894 186.76 0.0648075C194.876 -6.81037 213.099 4.75148 217.264 7.53505C217.755 6.73381 218.274 5.94861 218.801 5.1963L218.783 5.13053C217.671 4.31266 191.164 -14.5322 182.983 0.267037Z" fill="#AECE95"/>
<path d="M223.383 1.37311C222.594 1.99619 221.868 2.69459 221.214 3.45842C211.915 -2.38975 187.599 -15.7255 180.715 0.10082C180.715 0.10082 178.922 1.08676 178.44 -0.229217C184.862 -21.5592 215.231 -4.00739 223.383 1.37311Z" fill="#AECE95"/>
<path d="M228.398 -0.980162L229.139 -3.88055C228.293 -4.53503 208.431 -19.7681 203.59 -7.94451L205.463 -5.90916C208.692 -13.9173 223.11 -5.06027 228.398 -0.980162Z" fill="#AECE95"/>
<path d="M247.841 51.6453C247.049 51.5919 246.278 51.3653 245.583 50.9814C230.223 66.852 208.87 66.6998 197.675 65.2349L195.435 68.5034C200.335 69.2732 205.299 69.5643 210.256 69.3724C216.647 69.1606 222.967 67.9502 228.985 65.7852C236.568 63.0464 243.385 58.5308 248.865 52.6166L247.841 51.6453Z" fill="#AECE95"/>
<path d="M241.418 47.7649C228.481 59.601 212.018 61.1586 200.85 60.4974L198.601 63.9093C201.791 64.1907 204.997 64.2696 208.197 64.1455C214.58 63.9236 220.891 62.7117 226.902 60.5532C233.306 58.2496 239.179 54.6765 244.168 50.0481C243.203 49.2961 242.306 48.5375 241.418 47.7649Z" fill="#AECE95"/>
<path d="M237.533 44.3669C228.247 51.7455 217.528 54.431 208.319 54.9841C207.072 56.2115 205.845 57.4689 204.612 58.7043L206.752 58.6597C213.135 58.4381 219.445 57.2261 225.457 55.0673C230.818 53.1255 235.814 50.2961 240.238 46.6975C239.349 45.925 238.458 45.1415 237.533 44.3669Z" fill="#AECE95"/>
<path d="M232.635 41.2181C227.685 44.5245 222.178 46.9086 216.38 48.2552C216.21 48.3818 216.034 48.4997 215.852 48.6084C214.658 49.5512 213.447 50.4282 212.271 51.4368C211.673 51.9261 211.081 52.4374 210.503 52.9567C214.891 52.4148 219.204 51.3807 223.361 49.874C227.848 48.2343 232.087 45.9826 235.958 43.1828C234.917 42.4221 233.803 41.7641 232.635 41.2181Z" fill="#AECE95"/>
<path d="M171.861 51.019C173.726 52.2308 175.913 52.8508 178.137 52.7976C180.361 52.7444 182.518 52.0205 184.324 50.7208C185.938 49.548 216.103 24.1306 231.839 10.8532L233.659 12.9971C231.801 14.5761 188.084 51.4633 186 52.9856C184.94 53.7341 183.785 54.3363 182.564 54.776C180.839 55.4358 178.995 55.7301 177.149 55.6402C175.304 55.5504 173.498 55.0785 171.846 54.2543C172.006 53.1821 172.012 52.0925 171.861 51.019Z" fill="#AECE95"/>
<path d="M231.012 5.53122C229.141 7.10219 184.975 43.9804 183.364 45.5166C182.139 46.6911 177.513 48.7772 172.477 46.4735C172.189 47.3732 171.887 48.2648 171.56 49.1514C174.852 50.5956 178.577 50.7125 181.956 49.4777C183.183 49.0602 184.318 48.4088 185.298 47.5595C186.545 46.3791 216.967 20.9519 232.824 7.68902L231.012 5.53122Z" fill="#AECE95"/>
<path d="M229.929 0.513625C229.929 0.513625 184.174 38.922 182.32 40.3825C181.072 41.2773 179.648 41.8974 178.143 42.2017C176.638 42.5059 175.085 42.4876 173.588 42.1477C173.389 43.0707 173.164 43.9886 172.915 44.9014C175.523 45.5031 178.25 45.3234 180.758 44.3847C181.976 43.9597 183.116 43.3365 184.131 42.5403L231.727 2.66339L229.929 0.513625Z" fill="#AECE95"/>
<path d="M226.592 -2.949L179.122 36.8704C177.574 37.6425 175.921 38.1846 174.216 38.4794C174.435 39.4601 174.292 40.4869 173.815 41.3715C175.351 41.1909 176.86 40.8296 178.311 40.2953C179.111 40.0127 179.887 39.6671 180.632 39.2618L180.753 39.2294L228.403 -0.791258L226.592 -2.949Z" fill="#AECE95"/>
<path d="M167.08 67.2742C180.322 75.3327 190.99 68.7713 191.835 68.2393L242.333 25.4563L244.152 27.6004L193.49 70.5568C192.218 71.3417 190.867 71.9913 189.46 72.4951C184.631 74.2597 175.923 75.807 166.009 69.9466C166.376 69.0373 166.764 68.1579 167.08 67.2742Z" fill="#AECE95"/>
<path d="M168.156 63.8267L168.287 63.3922C177.9 69.4036 187.284 65.5954 189.19 64.2385C191.095 62.8817 222.202 36.5887 238.467 22.8285L240.287 24.9725C238.372 26.602 193.144 64.8704 190.822 66.5151C189.83 67.1641 188.762 67.6873 187.642 68.0727C184.345 69.2771 180.822 69.732 177.328 69.4044C173.835 69.0769 170.459 67.975 167.446 66.1791C167.706 65.4395 167.946 64.6232 168.156 63.8267Z" fill="#AECE95"/>
<path d="M168.688 62.0414C168.779 61.8527 168.954 61.4532 169.069 61.2695C169.416 60.7185 169.726 60.1653 170.025 59.615C180.766 64.9601 187.752 59.7034 187.828 59.636C189.172 58.5117 233.526 21.2773 235.452 19.6916L237.206 21.8532C236.747 22.2465 190.953 60.5958 189.653 61.7551C188.579 62.6135 187.366 63.2806 186.066 63.727C182.245 65.1276 176.046 65.8144 168.62 62.0949L168.688 62.0414Z" fill="#AECE95"/>
<path d="M171.625 55.5802C173.762 56.9541 176.254 57.6743 178.796 57.6524C181.337 57.6306 183.817 56.8676 185.932 55.4571C187.686 53.9294 231.663 17.0899 233.535 15.5189L235.347 17.6767C234.885 18.059 189.517 56.0704 187.782 57.5812C186.751 58.4188 185.579 59.0671 184.322 59.4959C182.096 60.3008 179.721 60.6089 177.364 60.3985C175.006 60.1881 172.724 59.4643 170.678 58.278C171.075 57.4097 171.393 56.5066 171.625 55.5802Z" fill="#AECE95"/>
<path d="M189.231 31.4742C184.178 32.9503 179.236 34.7819 174.441 36.9552C174.336 38.068 174.173 39.1746 173.953 40.2706C177.193 38.6642 180.537 37.277 183.962 36.1184C184.296 35.6254 184.714 35.1951 185.197 34.8472C186.917 33.6026 188.637 32.3581 190.357 31.1135L189.231 31.4742Z" fill="#AECE95"/>
<path d="M158.286 7.61981C155.519 9.05471 152.744 10.2805 149.982 11.4675L145.836 13.2371L143.722 14.1212C143.352 14.2789 143.01 14.4059 142.657 14.5358C142.304 14.6658 142.02 14.789 141.708 14.943C139.123 16.1972 136.673 17.7124 134.396 19.4649C132.046 21.2699 129.814 23.2079 127.446 25.2528C129.937 19.3357 134.503 14.5305 140.287 11.7402C141.027 11.3889 141.86 11.1186 142.522 10.8705C143.185 10.6225 143.957 10.345 144.672 10.118C146.129 9.63333 147.615 9.2115 149.104 8.84743C152.109 8.0956 155.189 7.68381 158.286 7.61981Z" fill="#AECE95"/>
<path d="M207.612 13.8566C207.439 13.7384 190.683 1.46468 158.715 9.34228L157.871 5.92626C191.609 -2.367 209.022 10.5177 209.788 11.0525L207.612 13.8566Z" fill="#AECE95"/>
<path d="M149.046 17.2354C147.775 18.1518 146.388 18.8996 145.151 19.6778C143.919 20.4642 142.742 21.3332 141.627 22.2789C139.392 24.1299 137.319 26.1675 135.429 28.3696C133.518 30.5802 131.746 32.9071 130.124 35.337C128.435 37.8105 126.956 40.3684 125.251 42.999C125.589 39.8905 126.414 36.8543 127.697 34.0021C128.993 31.1212 130.705 28.4457 132.778 26.0613C134.849 23.6379 137.315 21.5825 140.072 19.9821C141.467 19.1754 142.955 18.5399 144.502 18.0894C145.999 17.7157 147.516 17.4305 149.046 17.2354Z" fill="#AECE95"/>
<path d="M208.805 14.9325C201.137 10.878 181.022 3.58004 148.892 15.4253L148.421 15.5517L149.642 18.8433L150.081 18.7257C178.735 8.2118 197.508 13.6135 205.6 17.3194C206.711 16.5834 207.781 15.7866 208.805 14.9325Z" fill="#AECE95"/>
<path d="M128.576 57.1278C128.829 56.2298 129.084 55.3391 129.341 54.4557C130.248 51.4756 131.233 48.5685 132.348 45.7087C133.47 42.8561 134.758 40.0713 136.204 37.3684C137.694 34.608 139.331 31.9299 141.109 29.3459C138.299 31.0369 135.839 33.2516 133.864 35.8697C131.867 38.4862 130.245 41.3684 129.045 44.433C127.844 47.4752 127.025 50.654 126.606 53.8969C126.472 54.9782 126.385 56.0587 126.304 57.1611C127.06 57.1017 127.819 57.0905 128.576 57.1278Z" fill="#AECE95"/>
<path d="M204.632 17.9542C194.163 14.2849 175.619 11.6286 149.319 22.111C145.832 23.4374 142.654 25.4654 139.982 28.0695L142.376 30.6478C144.687 28.3844 147.431 26.6097 150.443 25.4297L150.541 25.4032C173.079 16.4113 189.725 17.5549 200.066 20.3534C201.567 19.5045 203.096 18.7184 204.632 17.9542Z" fill="#AECE95"/>
<path d="M133.875 57.9505C134.644 55.16 135.464 52.4264 136.384 49.7598C137.364 46.9505 138.513 44.2027 139.823 41.5313C141.171 38.7888 142.681 36.1287 144.344 33.5649C141.634 35.2648 139.292 37.4904 137.457 40.1101C135.603 42.7166 134.127 45.5721 133.074 48.5916C132.075 51.4277 131.399 54.3673 131.059 57.3546C132.026 57.5417 132.96 57.7377 133.875 57.9505Z" fill="#AECE95"/>
<path d="M198.069 21.8496C187.652 19.2945 172.223 18.7881 152.096 26.8633C148.792 28.109 145.805 30.0698 143.347 32.6055L145.788 35.1363C147.885 32.9597 150.434 31.2693 153.255 30.1844L153.354 30.1579C170.392 23.3221 183.926 22.9849 193.662 24.6648C195.072 23.6521 196.552 22.7264 198.069 21.8496Z" fill="#AECE95"/>
<path d="M163.206 0.13863C161.118 1.13195 158.969 1.99086 156.771 2.71011C154.618 3.45171 152.445 4.11654 150.315 4.72279C148.185 5.32904 145.928 5.89889 143.711 6.39919C141.448 6.91561 139.152 7.27568 136.84 7.47688C138.671 6.00344 140.675 4.75955 142.808 3.77298C144.905 2.79012 147.078 1.97952 149.306 1.34917C151.542 0.716958 153.827 0.277381 156.137 0.035274C158.488 -0.245632 160.865 -0.21087 163.206 0.13863Z" fill="#AECE95"/>
<path d="M212.513 10.9573C213.33 10.0852 214.197 9.26062 215.108 8.48757C211.798 6.00312 194.099 -6.2398 162.934 -1.59693L163.451 1.87127C191.682 -2.31401 208.62 8.18274 212.513 10.9573Z" fill="#AECE95"/>
<path d="M156.849 30.9179C151.018 32.7162 140.986 40.6461 136.566 58.6095C137.144 58.7483 137.736 58.8952 138.321 59.0201C138.939 58.9132 139.56 58.8172 140.171 58.771C144.292 42.8969 152.966 35.9538 157.978 34.4338L158.088 34.4044C170.24 29.8303 180.657 28.6944 189.228 29.275C190.503 28.0216 191.872 26.8688 193.325 25.8268C183.683 24.6285 171.484 25.4314 156.849 30.9179Z" fill="#AECE95"/>
<path d="M160.314 36.4388C155.305 38.0166 146.848 44.5374 142.388 58.7046C143.528 58.7203 144.666 58.8075 145.796 58.9658C149.888 46.7184 157.136 41.1213 161.432 39.7814L161.52 39.7579C167.969 37.2215 174.732 35.5705 181.623 34.8499C182.427 33.4595 184.821 34.0629 186.145 31.8047C183.114 30.1852 169.356 32.9806 160.314 36.4388Z" fill="#AECE95"/>
<path d="M164.119 1.6564C159.092 2.63971 150.988 4.37761 149.319 5.03662L148.001 1.78231C150.531 0.73965 162.133 -1.54798 163.439 -1.8043L164.119 1.6564Z" fill="#AECE95"/>
<path d="M159.236 9.32935C159.116 9.3617 146.506 11.7904 139.445 16.198L137.567 13.1762C145.2 8.40354 158.035 5.938 158.57 5.82975L159.236 9.32935Z" fill="#AECE95"/>
<path d="M134.581 29.6813L131.692 27.6713C136.283 21.5887 142.742 17.1783 150.078 15.1171L150.988 18.5153C144.461 20.3775 138.708 24.2931 134.581 29.6813Z" fill="#AECE95"/>
<path d="M131.883 47.2207L128.526 46.2294C128.631 45.8725 131.222 37.2838 140.246 27.6988L142.808 30.1131C134.361 39.1322 131.909 47.1432 131.883 47.2207Z" fill="#AECE95"/>
<path d="M136.134 50.5445L132.772 49.5312C134.955 42.9746 138.607 37.0016 143.448 32.0674L145.915 34.5659C141.511 39.1027 138.17 44.5605 136.134 50.5445Z" fill="#AECE95"/>
<path d="M131.891 76.3658L129.62 78.0675C129.166 78.3421 128.734 78.6504 128.327 78.9898C120.308 80.5639 110.693 78.4542 99.6012 72.675L100.91 70.1859C114.679 77.362 125.875 78.6133 134.214 73.8869L134.682 74.7131C134.052 75.0188 133.458 75.3947 132.913 75.8336C132.56 75.9861 132.219 76.164 131.891 76.3658Z" fill="#AECE95"/>
<path d="M70.6382 49.5478C73.2632 51.2755 75.7354 53.0912 78.2267 54.8901L85.5666 60.3578L92.9065 65.8254C95.3437 67.6858 97.8451 69.4349 100.282 71.4246C97.3049 70.4727 94.4334 69.2196 91.7116 67.6846C88.9815 66.1778 86.36 64.4824 83.866 62.6109C81.3742 60.7509 78.999 58.7398 76.7538 56.5888C74.5058 54.4322 72.4588 52.0755 70.6382 49.5478Z" fill="#AECE95"/>
<path d="M110.901 68.4255C124.021 73.309 134.467 72.8114 141.988 66.9176L143.13 68.3739C142.198 69.2819 141.314 70.1533 140.473 71.0955C140.362 71.2075 140.279 71.3356 140.179 71.4446C139.144 72.0103 138.068 72.4989 136.961 72.9065C129.597 75.6093 120.537 74.9599 109.925 71.0605L110.901 68.4255Z" fill="#AECE95"/>
<path d="M79.0868 51.1591C81.8316 52.6316 84.4046 54.2089 87.0076 55.7664L94.7179 60.4653C97.291 62.0426 99.8851 63.5673 102.482 65.1028C105.079 66.6384 107.728 68.1016 110.357 69.7577C107.313 69.1957 104.342 68.2984 101.496 67.0823C98.6482 65.89 95.8949 64.4841 93.2594 62.8768C90.6306 61.281 88.1113 59.5116 85.7183 57.5804C83.3055 55.6591 81.0846 53.5086 79.0868 51.1591Z" fill="#AECE95"/>
<path d="M90.763 71.7187C103.659 80.5966 114.038 83.1004 121.66 79.3418L122.617 81.247L122.032 81.5212C121.851 81.62 121.676 81.7296 121.508 81.8495L120.538 82.6149C112.458 85.3215 102.094 82.3907 89.6713 73.8323L90.763 71.7187Z" fill="#AECE95"/>
<path d="M67.0748 52.3107C69.1629 53.8769 71.1121 55.5391 73.0832 57.1955C75.0544 58.8518 76.9437 60.5536 78.8579 62.2604C80.772 63.9673 82.6503 65.672 84.5484 67.4066C86.4465 69.1413 88.3446 70.8759 90.1741 72.7934C87.8319 71.7463 85.5954 70.4776 83.4953 69.0046C81.3649 67.5321 79.3325 65.9229 77.4108 64.1871C75.4522 62.4471 73.6011 60.5898 71.8676 58.6255C70.0925 56.6613 68.4891 54.5487 67.0748 52.3107Z" fill="#AECE95"/>
<path d="M90.6333 74.5842C88.116 73.0391 79.1901 65.7295 78.7804 65.4283L80.1353 63.4205C80.2275 63.5015 89.3041 70.935 91.6766 72.3781L90.6333 74.5842Z" fill="#AECE95"/>
<path d="M100.352 73.0373C96.3697 71.3327 84.3284 62.967 83.8214 62.6096L85.4387 60.3082C85.5557 60.3943 97.6951 68.8629 101.444 70.4421L100.352 73.0373Z" fill="#AECE95"/>
<path d="M110.834 71.3916C108.132 70.6946 98.2216 65.6809 97.0943 65.1138L98.375 62.609C101.352 64.1601 109.495 68.1443 111.538 68.6654L110.834 71.3916Z" fill="#AECE95"/>
<path d="M147.723 62.6561C147.416 63.2716 147.146 63.9051 146.915 64.5533C146.114 65.2064 145.389 65.9485 144.756 66.7653L145.444 65.8642C145.004 66.4169 144.552 66.9257 144.037 67.4164C143.553 67.6284 143.077 67.8265 142.576 68.0195C135.831 70.4859 127.639 70.4494 118.076 67.8782L118.816 65.1535C131.218 68.4912 141.058 67.3102 148.129 61.6662C148.06 61.8491 148.047 61.8879 148.129 61.6662L148.183 61.6515L148.008 62.051L147.723 62.6561Z" fill="#AECE95"/>
<path d="M89.2619 52.7194C91.8236 53.7712 94.2545 54.905 96.6913 56.0608L103.875 59.5385L111.152 62.9678C113.55 64.1572 115.991 65.1945 118.444 66.5454C115.699 66.3509 112.985 65.8451 110.354 65.0377C107.726 64.2436 105.166 63.2408 102.699 62.0388C100.232 60.8531 97.8549 59.4879 95.5878 57.9543C93.3003 56.4372 91.1799 54.6825 89.2619 52.7194Z" fill="#AECE95"/>
<path d="M118.66 68.0031C114.407 67.0876 102.611 62.0977 102.114 61.8667L103.195 59.2276C103.314 59.2779 115.243 64.3261 119.237 65.1937L118.66 68.0031Z" fill="#AECE95"/>
<path d="M128.701 61.4127C136.719 62.471 143.492 61.6892 149.021 59.1141C148.904 59.5566 148.79 60.0101 148.652 60.4585C148.513 60.907 147.558 62.9608 148.478 61.081C148.315 61.395 148.18 61.7249 148.053 62.041L147.724 62.6579L147.679 62.7522C142.203 64.6904 135.739 65.1778 128.331 64.2027L128.701 61.4127Z" fill="#AECE95"/>
<path d="M98.3317 52.4382C100.95 53.2165 103.478 54.1009 105.968 54.9723L113.459 57.6631C115.941 58.5484 118.436 59.3949 120.931 60.2414C123.426 61.0879 125.964 61.8758 128.542 62.8998C125.819 63.0781 123.084 62.9196 120.4 62.428C117.71 61.9363 115.069 61.2095 112.507 60.256C109.948 59.36 107.463 58.2667 105.073 56.9862C102.667 55.7207 100.406 54.1957 98.3317 52.4382Z" fill="#AECE95"/>
<path d="M128.861 64.3061C125.642 64.1354 114.557 60.8812 113.306 60.5116L114.101 57.8195C117.419 58.7978 126.56 61.3751 129.013 61.4928L128.861 64.3061Z" fill="#AECE95"/>
<path d="M149.158 58.6569L149.116 58.809C144.598 59.8889 139.941 60.2656 135.309 59.9257L135.475 57.1199C140.401 57.4904 145.354 56.9589 150.09 55.5517C149.759 56.5568 149.432 57.5729 149.158 58.6569Z" fill="#AECE95"/>
<path d="M107.374 50.9555C109.861 51.4636 112.16 52.1043 114.489 52.7252L121.438 54.6215C123.751 55.2702 126.055 55.886 128.373 56.5098C130.691 57.1337 133.041 57.7019 135.425 58.4843C132.965 58.8712 130.466 58.937 127.99 58.6802C125.523 58.4522 123.081 58.0019 120.695 57.3348C118.309 56.6834 115.982 55.8337 113.738 54.7944C111.467 53.7806 109.33 52.4913 107.374 50.9555Z" fill="#AECE95"/>
<path d="M135.92 60.019C132.079 59.768 122.29 57.7991 121.856 57.6689L122.433 54.9062C122.521 54.8826 132.435 56.9237 136.097 57.2107L135.92 60.019Z" fill="#AECE95"/>
<path d="M427.873 25.6796C428.196 25.5765 428.486 25.3934 428.718 25.1475L427.261 23.611L427.765 21.584C426.501 21.2531 399.989 12.6727 382.467 6.98195C381.29 6.58069 352.627 -3.00944 332.672 11.6355L309.881 29.1677C303.208 33.6493 295.805 36.9343 288.005 38.8751C271.004 43.0803 255.555 39.8188 242.08 29.1769L240.851 28.0964L238.066 31.2637L239.419 32.4523C257.602 46.8497 276.513 46.0926 289.174 42.9333C297.477 40.8741 305.347 37.3515 312.415 32.5308L335.206 14.9986C353.354 1.68413 380.854 10.881 381.132 10.9121L403.852 18.3234L419.485 23.3689L424.629 25.0216C426.451 25.5909 427.259 25.8442 427.873 25.6796Z" fill="#AECE95"/>
<path d="M291.293 28.8771C295.565 27.7823 299.67 26.1167 303.497 23.9251L301.29 20.3344C301.066 20.4649 278.564 33.8876 254.582 20.439L235.75 8.44127L233.47 12.0013L252.461 24.1092C258.297 27.4263 264.733 29.5554 271.398 30.3737C278.062 31.192 284.824 30.6834 291.293 28.8771Z" fill="#AECE95"/>
<path d="M291.656 22.4606C294.432 21.759 297.116 20.7318 299.652 19.4003L297.587 15.7246C296.82 16.1534 278.669 26.0247 256.393 13.6345L241.282 4.25742L239.055 7.83854L254.283 17.3017C269.738 25.9048 283.452 24.66 291.656 22.4606Z" fill="#AECE95"/>
<path d="M421.803 30.7593L422.474 28.8755L423.607 26.9148C423.318 26.7573 423.248 26.7172 383.351 14.4629C382.177 14.0726 353.177 4.58458 332.923 19.2979L309.749 36.9331C302.953 41.4444 295.435 44.7595 287.522 46.7345C270.247 51.0132 254.575 47.7996 240.952 37.174L235.613 32.7297L232.947 35.9473L238.377 40.5085C256.704 54.8319 275.874 54.0758 288.704 50.8008C297.112 48.7104 305.091 45.1675 312.28 40.332L335.452 22.6859C353.926 9.27226 381.794 18.394 382.076 18.4829C392.85 21.7992 420.914 30.4688 421.803 30.7593Z" fill="#AECE95"/>
<path d="M417.846 36.7049C418.125 36.6209 418.379 36.4722 418.589 36.2709C418.799 36.0697 418.958 35.8216 419.053 35.5471L417.111 34.7046L417.615 32.6776C416.713 32.4259 393.733 25.2725 384.949 22.5391C383.739 22.1467 354.427 12.7662 333.904 27.5281L310.833 44.9355C309.96 45.2696 309.111 45.666 308.294 46.1215C282.031 59.508 259.261 59.3727 240.613 45.6994L229.561 37.1698L226.986 40.5042L238.082 49.0688C258.196 63.7828 282.45 64.0608 310.248 49.8634L310.336 49.8399L310.509 50.4867L336.447 30.924C355.17 17.4319 383.447 26.4556 383.707 26.5502L400.107 31.6486L411.362 35.1412L415.058 36.3008C415.937 36.675 416.898 36.8143 417.846 36.7049Z" fill="#AECE95"/>
<path d="M384.983 -6.09505C382.089 -8.0789 378.905 -9.60342 375.545 -10.6146C372.199 -11.6582 368.743 -12.3089 365.246 -12.5534C361.722 -12.7494 358.188 -12.4622 354.742 -11.6996C353.887 -11.4703 353.031 -11.2409 352.187 -11.0145C351.342 -10.7881 350.517 -10.4023 349.696 -10.0882L348.481 -9.57464C348.084 -9.38594 347.697 -9.17621 347.321 -8.94636C346.557 -8.50657 345.807 -8.05875 345.083 -7.55906C348.597 -7.91362 351.848 -8.32702 355.157 -8.39175C358.467 -8.45648 361.717 -8.43484 365.001 -8.19903C368.285 -7.96321 371.565 -7.60894 374.867 -7.26055L384.983 -6.09505Z" fill="#AECE95"/>
<path d="M385.733 -8.06293L437.814 11.166L436.348 15.1262L384.266 -4.10268L385.733 -8.06293Z" fill="#AECE95"/>
<path d="M410.789 42.8238L412.153 38.8274C411.339 38.5522 380.212 28.4966 378.886 28.0649L378.82 28.0826C377.716 27.7793 351.601 20.6806 332.439 36.44L319.727 47.227L322.445 50.3993L335.141 39.6401C352.26 25.5566 376.544 31.8302 377.636 32.0896L410.789 42.8238Z" fill="#AECE95"/>
<path d="M357.185 68.9507C358.808 68.5156 359.782 68.1603 359.963 68.0883L360.084 68.056L408.03 47.3174L407.281 45.4854L406.694 43.2927C406.486 43.3486 406.431 43.3633 358.466 64.1187C357.392 64.5004 335.847 71.8395 315.645 58.5959L302.894 49.9115L300.522 53.391L313.277 62.1331C331.502 74.097 350.242 70.812 357.185 68.9507Z" fill="#AECE95"/>
<path d="M357.047 61.0951C358.67 60.66 359.644 60.3047 359.828 60.2437L359.905 60.2231C359.905 60.2231 371.461 55.3975 382.989 50.509L398.855 43.9055L404.133 41.6678C406.644 40.5952 407.795 40.1102 407.314 38.312L405.274 38.859L404.304 36.992C403.055 37.5971 376.157 48.8741 358.354 56.3615C357.431 56.6911 335.804 64.1225 315.55 50.8566L309.887 46.8283L307.435 50.2707L313.231 54.3574C331.38 66.2135 350.082 62.9623 357.047 61.0951Z" fill="#AECE95"/>
<path d="M356.967 53.5986C358.579 53.1664 359.554 52.8111 359.745 52.7362L378.132 45.2333C382.723 43.3681 387.308 41.4808 390.749 40.0647L394.907 38.3389C396.8 37.5494 398.173 36.9698 397.692 35.1716L395.651 35.7186L394.682 33.8516C393.545 34.3914 372.247 43.0976 358.213 48.8109C358.048 48.855 336.005 56.7974 315.399 43.2727L313.089 46.8064C331.284 58.7447 350.013 55.4629 356.967 53.5986Z" fill="#AECE95"/>
<path d="M355.686 45.8711C356.783 45.5771 357.518 45.3801 357.661 45.3418L357.759 45.3154C375.33 38.7129 386.142 34.8389 386.649 34.6678L386.055 32.9346L385.424 30.5768C385.095 30.6651 373.62 34.7872 356.33 41.2913C355.299 41.5677 337.839 46.8711 327.467 41.8946L325.644 45.7096C335.674 50.5074 350.389 47.2913 355.686 45.8711Z" fill="#AECE95"/>
<path d="M351.634 39.5683C354.146 38.895 355.871 38.268 356.073 38.1902L374.301 31.3646L372.82 27.413L354.559 34.2475C350.716 35.654 339.486 38.7585 333.989 36.142L332.177 39.954C337.77 42.5799 346.402 40.9709 351.634 39.5683Z" fill="#AECE95"/>
<path d="M430.877 20.7529L432.255 16.7645L381.853 -0.614729C380.678 -1.05176 351.84 -11.4746 332.049 3.60748L309.447 21.5817C302.862 26.1425 295.507 29.4759 287.736 31.421C270.785 35.5896 255.294 31.9522 241.667 20.6119L231.167 12.1232L228.519 15.4064L239.014 23.8731C257.346 39.1807 276.283 38.6981 288.9 35.5037C297.221 33.4487 305.087 29.8576 312.091 24.9151L334.65 6.86998C352.537 -6.76158 380.156 3.18916 380.43 3.29186L430.877 20.7529Z" fill="#AECE95"/>
<path d="M356.568 76.8773C358.18 76.4451 359.155 76.0898 359.336 76.0179L359.445 75.9885L396.667 59.8056L394.984 55.9331L357.77 72.0552C356.696 72.437 335.148 79.765 314.95 66.5338L295.329 52.9954L292.949 56.5353L312.604 70.0649C330.842 82.0355 349.582 78.7504 356.568 76.8773Z" fill="#AECE95"/>
<path d="M354.625 84.6435C355.726 84.3583 356.811 84.0163 357.877 83.6188L384.04 72.7625L382.431 68.8587L356.298 79.6952C348.274 82.2187 339.768 82.8057 331.476 81.4079C323.185 80.0101 315.344 76.6674 308.597 71.6539L286.639 54.7016L284.012 58.0612L305.961 75.0273C312.822 80.1913 320.762 83.7383 329.188 85.4035C337.615 87.0686 346.31 86.8088 354.625 84.6435Z" fill="#AECE95"/>
<path d="M353.579 92.4621C354.68 92.1758 355.765 91.8338 356.831 91.4375L356.93 91.411L373.367 84.1376L371.665 80.2824L355.28 87.5301C347.152 90.088 338.539 90.7097 330.13 89.3453C321.721 87.981 313.75 84.6685 306.853 79.6727L276.136 56.3413L273.581 59.705L304.336 83.0495C311.323 88.1853 319.369 91.6955 327.889 93.324C336.408 94.9525 345.185 94.658 353.579 92.4621Z" fill="#AECE95"/>
<path d="M352.812 100.193C354.732 99.6788 355.895 99.2377 356.064 99.1687L356.13 99.1511L361.209 97.0024L360.556 95.3096L359.934 92.9859C359.748 93.0358 359.671 93.0564 354.513 95.2615C346.308 97.8447 337.617 98.4913 329.123 97.1507C320.629 95.81 312.563 92.5186 305.558 87.535C294.022 78.9509 263.785 56.4438 262.713 55.5565L261.423 57.1476L259.306 57.7151C259.506 58.4605 259.506 58.4605 266.843 63.9176L281.619 74.9458L303.105 90.9298C310.189 96.0492 318.32 99.5351 326.915 101.137C335.51 102.739 344.354 102.416 352.812 100.193Z" fill="#AECE95"/>
<path d="M270.111 95.7548C279.153 93.2313 287.832 89.5539 295.934 84.8135L293.782 81.1613C276.787 90.8752 260.774 95.1683 246.193 93.9199C232.791 92.8137 225.338 87.2341 223.974 86.1315C217.604 80.9546 201.983 65.981 201.826 65.835L198.902 68.8747C199.551 69.4996 214.809 84.1243 221.315 89.4172C223.608 91.2225 240.411 103.718 270.111 95.7548Z" fill="#AECE95"/>
<path d="M268.739 88.8641C276.311 86.758 283.639 83.856 290.601 80.2066L288.669 76.4597C270.268 85.928 244.306 93.9343 225.108 78.3331C218.968 73.3531 211.912 66.7975 211.238 66.0382C211.539 66.4529 211.676 66.9644 211.623 67.4742L207.419 67.2267C207.35 68.4199 207.339 68.4229 212.751 73.3162C214.72 75.1381 218.568 78.5357 222.381 81.6256C236.369 92.9136 253.252 93.016 268.739 88.8641Z" fill="#AECE95"/>
<path d="M269.66 82.1211C275.008 80.6573 280.188 78.6347 285.113 76.0866L283.2 72.3228C255.78 86.3006 237.272 78.8559 226.565 70.1657C224.377 68.4026 222.725 67.0598 221.653 66.2191C220.582 65.3785 219.399 64.4736 218.064 65.5013L216.733 66.5867L218.264 69.6303L218.922 69.4538C219.67 70.0522 221.132 71.2111 223.879 73.4354C236.643 83.7947 252.518 86.717 269.66 82.1211ZM219.45 67.2093L220.786 68.731L219.45 67.2093Z" fill="#AECE95"/>
<path d="M273.336 74.0295C275.376 73.4826 277.502 72.8461 279.714 72.12L278.395 68.1148C247.129 78.3536 236.266 69.2116 229.773 63.7503C229.301 63.3481 228.86 62.973 228.427 62.6307L225.777 65.9026C226.195 66.2369 226.62 66.593 227.064 66.9791C233.314 72.2354 244.601 81.7335 273.336 74.0295Z" fill="#AECE95"/>
<path d="M272.481 67.763L273.754 67.4219L272.607 63.3587C251.357 69.3848 242.835 63.9389 237.8 60.6717C237.173 60.2639 236.606 59.8992 236.077 59.5944L233.964 63.2508C234.44 63.5345 234.963 63.8642 235.531 64.2289C240.678 67.5603 250.305 73.7086 272.481 67.763Z" fill="#AECE95"/>
<path d="M266.816 62.7157L266.057 58.5606C250.244 61.4489 241.72 55.6867 241.654 55.7043L239.236 59.1841C239.628 59.4197 249.128 65.9306 266.816 62.7157Z" fill="#AECE95"/>
<path d="M290.281 16.4505C291.71 16.0833 293.106 15.599 294.455 15.0027L292.635 11.1907C292.009 11.4877 277.167 18.2631 258.168 7.57903L246.889 0.570236L244.662 4.15133L256.053 11.2243C271.126 19.7181 283.964 18.1442 290.281 16.4505Z" fill="#AECE95"/>
<path d="M346.058 105.853C342.39 106.511 338.674 106.875 334.948 106.941C331.355 106.956 327.77 106.602 324.25 105.885C320.701 105.138 317.211 104.134 313.808 102.881C310.353 101.61 306.971 100.085 303.339 98.638C308.662 104.444 315.687 108.417 323.409 109.987C327.3 110.78 331.303 110.854 335.221 110.204C339.111 109.575 342.813 108.089 346.058 105.853Z" fill="#AECE95"/>
<path d="M346.903 107.884C351.745 105.922 356.142 103.001 359.827 99.2965L436.454 17.2872C466.401 -16.7684 499.448 -2.65622 499.781 -2.51046L499.991 -2.42594L593.813 27.7651L595.082 23.7235L501.389 -6.3844C494.382 -9.03987 486.89 -10.1754 479.409 -9.71568C467.559 -9.1474 450.002 -4.47558 433.323 14.4605L356.708 96.3842C353.422 99.6261 349.533 102.194 345.26 103.942L346.903 107.884Z" fill="#AECE95"/>
<path d="M358.19 106.592C354.952 108.56 351.557 110.256 348.04 111.664C341.251 114.395 333.943 115.588 326.64 115.156C322.85 114.892 319.078 114.421 315.341 113.743C318.608 116.009 322.291 117.605 326.179 118.441C334.166 120.191 342.521 118.821 349.534 114.612C352.983 112.62 355.942 109.88 358.19 106.592Z" fill="#AECE95"/>
<path d="M359.688 108.133C360.006 107.824 360.168 107.64 360.168 107.64L437.317 25.561C449.943 11.2482 464.493 3.55213 480.56 2.66414C487.525 2.20436 494.508 3.22351 501.05 5.6546L501.257 5.72816L590.574 34.3301L591.849 30.3104L502.602 1.74857C495.573 -0.904324 488.059 -2.03017 480.559 -1.55408C468.584 -0.928587 450.949 3.76383 434.194 22.7204L357.075 104.779L356.733 105.129L359.688 108.133Z" fill="#AECE95"/>
<path d="M382.837 92.1181C380.15 93.8843 377.615 95.8725 375.259 98.0617C372.918 100.205 370.702 102.467 368.579 104.81C366.456 107.154 364.466 109.602 362.578 112.164C360.65 114.735 358.942 117.465 357.474 120.323C360.164 118.561 362.699 116.572 365.051 114.379C367.392 112.232 369.615 109.984 371.721 107.633C373.83 105.282 375.841 102.828 377.722 100.28C379.65 97.7053 381.361 94.9754 382.837 92.1181Z" fill="#AECE95"/>
<path d="M384.41 93.5541L438.602 33.2635C449.476 19.9152 462.529 12.1625 477.309 10.2444C483.692 9.32809 490.193 9.71527 496.421 11.3826L497.702 7.38523C490.961 5.51894 483.908 5.05843 476.981 6.03231C466.018 7.40893 449.896 12.7886 435.352 30.5632L381.258 90.7337L384.41 93.5541Z" fill="#AECE95"/>
<path d="M393.882 90.6497C391.15 92.5689 388.577 94.7044 386.188 97.0357C383.795 99.3377 381.517 101.734 379.355 104.225C377.19 106.72 375.131 109.304 373.209 112.005C371.228 114.712 369.475 117.579 367.969 120.576C370.702 118.659 373.275 116.523 375.663 114.19C378.065 111.893 380.343 109.497 382.496 107.001C384.649 104.505 386.697 101.911 388.641 99.2208C390.619 96.5113 392.372 93.6447 393.882 90.6497Z" fill="#AECE95"/>
<path d="M395.492 92.0492L441.182 39.3495C461.206 14.1615 483.49 15.9528 483.686 15.9824L484.091 11.7855C483.09 11.6897 459.303 9.77269 437.865 36.7028L392.252 89.2993L395.492 92.0492Z" fill="#AECE95"/>
<path d="M402.927 90.7982C400.341 92.5537 397.913 94.5294 395.668 96.7033C391.212 100.946 387.187 105.618 383.65 110.651C381.836 113.194 380.245 115.888 378.894 118.705C381.487 116.956 383.921 114.983 386.167 112.807C388.397 110.692 390.515 108.462 392.512 106.125C394.52 103.798 396.409 101.37 398.171 98.8517C399.985 96.309 401.576 93.6145 402.927 90.7982Z" fill="#AECE95"/>
<path d="M404.538 92.1999L449.796 39.6384C474.216 11.3324 511.29 9.31147 511.618 9.30587L511.43 5.09133C509.84 5.16531 472.297 7.14742 446.6 36.8765L401.334 89.452L404.538 92.1999Z" fill="#AECE95"/>
<path d="M384.578 -3.96567L385.98 -7.94828C385.421 -8.15068 372.145 -12.7797 363.322 -12.6344L363.394 -8.41269C371.468 -8.54526 384.447 -4.013 384.578 -3.96567Z" fill="#AECE95"/>
<path d="M341.349 109.594C343.354 109.066 345.321 108.401 347.235 107.605L345.541 103.735C345.398 103.774 331.558 109.728 321.614 105.251L319.871 109.102C327.154 112.378 335.767 111.091 341.349 109.594Z" fill="#AECE95"/>
<path d="M341.62 118.062C348.444 116.03 354.728 112.499 360.012 107.726L357.111 104.662C357.008 104.76 347.206 113.897 335.704 114.843L336.054 119.049C337.935 118.889 339.798 118.558 341.62 118.062Z" fill="#AECE95"/>
<path d="M382.007 89.5891L385.126 92.4221L370.195 108.835L367.076 106.002L382.007 89.5891Z" fill="#AECE95"/>
<path d="M392.743 88.7908L395.93 91.5576L380.796 108.956L377.61 106.189L392.743 88.7908Z" fill="#AECE95"/>
<path d="M401.553 89.1092L404.767 91.8442L391.228 107.724L388.015 104.989L401.553 89.1092Z" fill="#AECE95"/>
<path d="M425.913 84.0051C423.212 85.8297 420.67 87.8789 418.314 90.1308C415.962 92.3238 413.736 94.6357 411.617 97.0366C409.479 99.4299 407.465 101.93 405.582 104.528C403.65 107.149 401.94 109.926 400.469 112.83C403.168 111.014 405.708 108.973 408.063 106.73C410.414 104.533 412.645 102.227 414.758 99.8128C416.87 97.3982 418.878 94.9019 420.781 92.3239C422.726 89.7025 424.443 86.9194 425.913 84.0051Z" fill="#AECE95"/>
<path d="M427.502 85.415L464.302 43.7237C468.161 39.0824 476.08 34.2808 479.066 32.4817C480.644 31.5297 481.675 30.9009 481.256 29.3335L477.176 30.4273C477.067 30.0293 477.079 29.6079 477.211 29.2169C477.343 28.8258 477.589 28.4828 477.916 28.2316L476.911 28.8654C473.764 30.7664 465.409 35.826 461.131 40.9672L424.369 82.6249L427.502 85.415Z" fill="#AECE95"/>
<path d="M425.178 81.71L428.341 84.5038L412.743 102.129L409.58 99.3353L425.178 81.71Z" fill="#AECE95"/>
<path d="M414.518 87.7634C412.171 89.2213 409.967 90.8978 407.935 92.7705C405.939 94.5984 404.044 96.5341 402.258 98.5688C400.47 100.602 398.801 102.736 397.257 104.961C395.663 107.218 394.296 109.627 393.176 112.152C395.531 110.707 397.736 109.03 399.758 107.145C401.765 105.329 403.661 103.392 405.435 101.347C407.223 99.3139 408.893 97.1796 410.436 94.9549C412.024 92.6937 413.39 90.2855 414.518 87.7634Z" fill="#AECE95"/>
<path d="M416.118 89.1766L456.332 43.2893C478.046 18.5286 510.598 16.6979 510.912 16.6843L510.713 12.4727C509.31 12.5434 475.974 14.4316 453.133 40.4697L412.93 86.4009L416.118 89.1766Z" fill="#AECE95"/>
<path d="M413.132 86.1027L416.323 88.8639L404.298 102.737L401.107 99.9755L413.132 86.1027Z" fill="#AECE95"/>
<path d="M59.5233 89.7152C55.6636 89.9141 51.8383 90.5455 48.119 91.5973C44.4024 92.6289 40.7775 93.9663 37.2812 95.5957C33.782 97.226 30.4334 99.162 27.2743 101.381C24.0863 103.58 21.181 106.163 18.6236 109.071C22.209 107.534 25.5799 105.854 28.9656 104.23C32.3512 102.605 35.6959 101.004 39.0684 99.4179L49.2473 94.7147C52.6578 93.0953 56.0939 91.5278 59.5233 89.7152Z" fill="#AECE95"/>
<path d="M118.669 84.0615C145.343 76.9103 152.36 57.145 152.68 56.1428C157.551 41.3593 157.448 41.1518 156.967 40.188L153.186 42.0477C153.003 41.7049 152.931 41.3135 152.98 40.9278C152.822 41.875 150.682 48.7234 148.711 54.798C148.367 55.7951 139.677 79.8512 103.609 82.1651C88.8332 81.7499 74.0758 83.5129 59.8115 87.3973L58.956 87.6266L60.0476 91.7051L60.8702 91.4846C74.7407 87.7229 89.0859 86.0108 103.45 86.4026L103.72 86.4007C108.768 86.1189 113.776 85.3353 118.669 84.0615Z" fill="#AECE95"/>
<path d="M83.5098 92.7586C80.525 92.2283 77.4926 92.013 74.4625 92.116C71.4605 92.1883 68.4683 92.4913 65.5125 93.0224C62.5214 93.5341 59.584 94.3215 56.7378 95.3746C53.8767 96.4195 51.1596 97.8233 48.6517 99.5523C51.6448 99.3945 54.627 99.0699 57.5841 98.5801C60.4771 98.1454 63.3474 97.6698 66.217 97.1474C69.0865 96.625 71.9692 96.0639 74.8415 95.3762C77.7909 94.7165 80.6881 93.8416 83.5098 92.7586Z" fill="#AECE95"/>
<path d="M121.221 91.0488C132.772 87.9152 142.983 81.0929 150.298 71.6218C154.941 65.792 158.498 59.1753 160.798 52.0881L164.102 39.1361L160.021 38.1156L156.718 50.985C154.532 57.5643 151.202 63.7071 146.881 69.1308C142.399 74.967 136.685 79.7441 130.147 83.1217C123.609 86.4993 116.407 88.3942 109.054 88.6715C98.8574 89.2669 90.4242 89.9065 83.2892 90.6093L83.7079 94.8089C90.7793 94.0879 99.1496 93.4769 109.299 92.8823C113.325 92.6796 117.32 92.0652 121.221 91.0488Z" fill="#AECE95"/>
<path d="M114.602 96.7483C112.047 96.2859 109.459 96.0325 106.864 95.9906C104.318 95.9366 101.792 95.9869 99.2869 96.1416C96.7813 96.2962 94.278 96.5325 91.777 96.8504C89.2114 97.16 86.6683 97.6337 84.1632 98.2688C86.6037 99.2629 89.1739 99.9034 91.7959 100.171C94.3609 100.454 96.9457 100.516 99.5215 100.356C102.091 100.202 104.646 99.8472 107.161 99.2954C109.736 98.7554 112.235 97.8999 114.602 96.7483Z" fill="#AECE95"/>
<path d="M123.134 97.3492C136.602 93.7384 148.274 85.0876 157.257 71.9654C162.18 64.8033 165.967 56.9246 168.484 48.6083L168.461 48.5206L171.043 36.5154L166.917 35.6362L164.353 47.5778C161.92 55.4473 158.312 62.9055 153.654 69.7009C143.473 84.4953 130.266 92.8998 114.374 94.6581L114.84 98.8565C117.639 98.5652 120.412 98.0613 123.134 97.3492Z" fill="#AECE95"/>
<path d="M136.295 96.6642C133.233 97.2147 130.368 97.8885 127.5 98.4577C124.631 99.027 121.814 99.5706 118.966 100.04C116.117 100.51 113.254 100.925 110.342 101.33C107.429 101.735 104.502 102.131 101.453 102.772C104.345 103.835 107.378 104.467 110.454 104.649C113.525 104.864 116.61 104.715 119.646 104.207C122.697 103.714 125.674 102.841 128.507 101.608C131.361 100.407 133.993 98.7355 136.295 96.6642Z" fill="#AECE95"/>
<path d="M137.249 98.5576C166.594 83.8298 173.867 50.1393 174.169 48.7193L177.402 34.4492L173.314 33.4896L170.026 47.8212C169.95 48.1941 162.838 80.9955 135.348 94.7914L137.249 98.5576Z" fill="#AECE95"/>
<path d="M35.453 101.106C44.2494 96.0685 60.5903 91.5937 60.7548 91.5496L59.6631 87.4708C58.9611 87.659 42.6312 92.1308 33.3685 97.4461L35.453 101.106Z" fill="#AECE95"/>
<path d="M84.4624 94.7826L84.1453 90.5671C83.5456 90.6104 69.2975 91.7042 63.7428 93.3932L64.966 97.4363C70.1098 95.881 84.3198 94.8208 84.4624 94.7826Z" fill="#AECE95"/>
<path d="M115.733 98.7356L115.042 94.5735C114.932 94.6029 103.66 96.4501 97.8365 96.1668L97.6358 100.38C103.898 100.675 115.25 98.8182 115.733 98.7356Z" fill="#AECE95"/>
<path d="M125.268 103.205C129.666 102.001 133.918 100.317 137.948 98.1838L135.902 94.4903C135.803 94.5167 126.1 99.856 116.745 100.39L116.979 104.604C119.783 104.42 122.56 103.951 125.268 103.205Z" fill="#AECE95"/>
</svg>
