<svg width="377" height="149" viewBox="0 0 377 149" fill="none" xmlns="http://www.w3.org/2000/svg">
<path d="M232.014 175.798C232.014 175.798 248.788 183.676 256.009 184.04C275.313 185.177 285.459 169.088 293.585 156.312L302.347 142.527C301.484 141.993 300.644 141.392 299.803 140.847L291.019 154.678C283.312 166.796 273.733 181.909 256.145 181.044C249.411 180.714 233.081 173.166 233.081 173.166C233.081 173.166 231.082 172.643 229.197 172.03L227.744 173.653L232.014 175.798Z" fill="#AECE95"/>
<path d="M234.434 182.05C241.68 185.205 249.197 188.463 256.896 188.861C277.426 189.84 288.162 172.98 296.788 159.364L306.129 144.67C305.232 144.205 304.334 143.717 303.46 143.195L294.233 157.718C286.038 170.619 275.824 186.685 257.065 185.786C249.889 185.445 242.667 182.3 235.671 179.258C233.264 178.214 230.777 177.124 228.381 176.205L226.485 178.304C226.485 178.304 231.97 180.971 234.434 182.05Z" fill="#AECE95"/>
<path d="M231.789 186.202C239.931 189.755 248.358 193.422 257.056 193.831C280.095 194.969 292.171 175.93 301.863 160.669L310.693 146.781C309.739 146.384 308.797 145.975 307.877 145.532L299.297 159.08C290.024 173.683 278.47 191.86 257.191 190.847C249.061 190.46 240.896 186.907 233.003 183.468C230.153 182.23 224.736 179.62 224.736 179.62L223.079 181.707C223.079 181.707 228.973 184.976 231.789 186.202Z" fill="#AECE95"/>
<path d="M311.291 147.018C309.093 148.827 306.788 150.501 304.389 152.032C303.969 153.713 303.279 155.315 302.346 156.775C306.735 154.371 310.853 151.503 314.629 148.221C313.505 147.847 312.392 147.449 311.291 147.018Z" fill="#AECE95"/>
<path d="M317.069 148.97L316.252 148.72C311.418 152.979 306.021 156.552 300.211 159.338C300.097 159.509 299.984 159.69 299.859 159.86C299.03 161.108 298.304 162.39 297.589 163.695C305.991 160.826 313.415 155.244 320.067 149.447C319.079 149.288 318.08 149.117 317.069 148.97Z" fill="#AECE95"/>
<path d="M228.257 189.491C228.257 189.491 244.849 198.004 253.626 198.426C276.87 199.564 289.048 180.366 298.843 164.958L310.499 146.679C309.545 146.285 308.602 145.865 307.671 145.419L296.321 163.312C286.89 178.051 275.234 196.386 253.739 195.384C245.53 194.986 230.017 187.381 230.017 187.381L221.204 183.238L220.07 185.598L228.257 189.491Z" fill="#AECE95"/>
<path d="M236.987 132.368C236.236 132.624 235.55 133.043 234.978 133.593C216.034 122.239 195.448 127.913 185.013 132.225L182.003 129.648C186.537 127.636 191.256 126.07 196.094 124.972C202.323 123.523 208.74 123.056 215.114 123.59C223.147 124.273 230.901 126.87 237.725 131.164L236.987 132.368Z" fill="#AECE95"/>
<path d="M231.787 137.778C216.228 129.694 199.922 132.45 189.305 135.98L186.25 133.266C189.259 132.168 192.335 131.263 195.459 130.554C201.682 129.116 208.09 128.654 214.456 129.183C221.238 129.75 227.835 131.682 233.853 134.861C233.115 135.837 232.445 136.802 231.787 137.778Z" fill="#AECE95"/>
<path d="M228.914 142.066C218.034 137.342 206.985 137.523 197.947 139.372C196.425 138.509 194.915 137.612 193.404 136.738L195.482 136.227C201.705 134.789 208.114 134.327 214.479 134.856C220.16 135.344 225.719 136.784 230.923 139.115C230.265 140.091 229.606 141.078 228.914 142.066Z" fill="#AECE95"/>
<path d="M224.997 146.375C219.36 144.463 213.423 143.585 207.475 143.785C207.277 143.707 207.077 143.639 206.873 143.581C205.476 142.979 204.079 142.445 202.682 141.775C201.978 141.457 201.274 141.117 200.581 140.765C204.96 140.153 209.393 140.035 213.799 140.415C218.557 140.837 223.235 141.915 227.698 143.617C226.889 144.622 225.984 145.545 224.997 146.375Z" fill="#AECE95"/>
<path d="M163.757 152.638C165.245 150.985 167.197 149.82 169.359 149.296C171.521 148.771 173.791 148.912 175.872 149.7C177.735 150.416 213.451 167.159 232.087 175.912L233.29 173.37C231.087 172.325 179.312 148.01 176.905 147.079C175.688 146.63 174.416 146.348 173.123 146.239C171.286 146.048 169.428 146.241 167.669 146.805C165.91 147.37 164.288 148.293 162.905 149.517C163.338 150.511 163.625 151.562 163.757 152.638Z" fill="#AECE95"/>
<path d="M154.932 138.174C165.637 126.963 177.64 130.539 178.594 130.834L238.444 159.09L239.647 156.548L179.593 128.168C178.161 127.739 176.688 127.461 175.198 127.339C170.077 126.884 161.265 127.643 153.206 135.87C153.796 136.653 154.398 137.402 154.932 138.174Z" fill="#AECE95"/>
<path d="M156.864 141.225L157.103 141.611C164.833 133.316 174.883 134.566 177.075 135.384C179.267 136.201 216.119 153.547 235.391 162.629L236.594 160.087C234.323 159.008 180.731 133.75 178.062 132.762C176.936 132.392 175.769 132.163 174.587 132.081C171.091 131.771 167.57 132.243 164.281 133.464C160.991 134.684 158.015 136.622 155.569 139.137C156.012 139.784 156.455 140.51 156.864 141.225Z" fill="#AECE95"/>
<path d="M157.84 142.812C157.977 142.971 158.249 143.312 158.408 143.459C158.885 143.902 159.328 144.356 159.76 144.81C168.751 136.867 176.859 140.137 176.95 140.182C178.54 140.92 231.019 165.406 233.29 166.439L234.425 163.897C233.88 163.636 179.72 138.446 178.165 137.663C176.906 137.111 175.561 136.781 174.19 136.686C170.136 136.322 163.971 137.264 157.761 142.778L157.84 142.812Z" fill="#AECE95"/>
<path d="M162.348 148.293C164.057 146.413 166.278 145.072 168.739 144.436C171.199 143.799 173.793 143.894 176.2 144.709C178.29 145.731 230.303 169.933 232.518 170.966L233.709 168.413C233.164 168.163 179.504 143.189 177.437 142.179C176.224 141.636 174.925 141.314 173.599 141.225C171.241 141.023 168.867 141.341 166.645 142.154C164.422 142.967 162.405 144.257 160.735 145.933C161.344 146.668 161.884 147.458 162.348 148.293Z" fill="#AECE95"/>
<path d="M118.589 138.5L115.955 137.444C115.445 137.296 114.948 137.11 114.467 136.888C106.314 137.443 97.5722 141.969 88.3544 150.422L90.2626 152.488C101.705 141.992 112.196 137.886 121.474 140.293L121.712 139.374C121.024 139.242 120.354 139.032 119.713 138.749C119.333 138.693 118.957 138.61 118.589 138.5Z" fill="#AECE95"/>
<path d="M100.369 151.602C111.779 143.489 121.998 141.266 130.788 145.012L131.514 143.31C130.379 142.675 129.3 142.062 128.243 141.369C128.107 141.29 127.994 141.187 127.869 141.108C126.722 140.83 125.557 140.636 124.382 140.529C116.57 139.824 107.986 142.796 98.7449 149.309L100.369 151.602Z" fill="#AECE95"/>
<path d="M80.065 153.633C90.2239 141.72 99.6013 136.615 107.936 138.273L108.367 136.185L107.731 136.072C107.531 136.023 107.334 135.963 107.141 135.89L106.005 135.402C97.5002 134.879 88.2478 140.392 78.4634 151.874L80.065 153.633Z" fill="#AECE95"/>
<path d="M99.5371 148.754C97.1077 150.127 88.8326 157.535 87.8905 158.374L89.7759 160.462C92.2505 158.193 99.084 152.238 100.923 151.205L99.5371 148.754Z" fill="#AECE95"/>
<path d="M137.431 147.644C136.975 147.129 136.55 146.587 136.159 146.021C135.216 145.598 134.325 145.068 133.501 144.443L134.399 145.136C133.831 144.716 133.263 144.341 132.638 144C132.116 143.921 131.605 143.853 131.071 143.796C123.917 143.159 116.015 145.315 107.443 150.273L108.863 152.714C119.978 146.28 129.788 144.874 138.079 148.496C137.965 148.337 137.942 148.303 138.079 148.496L138.136 148.496L137.863 148.155L137.431 147.644Z" fill="#AECE95"/>
<path d="M119.378 153.769C126.849 150.672 133.593 149.674 139.601 150.73C139.373 150.333 139.146 149.924 138.896 149.527C138.646 149.13 137.192 147.393 138.567 148.971C138.328 148.71 138.113 148.426 137.908 148.153L137.431 147.643L137.363 147.563C131.572 147.108 125.202 148.311 118.298 151.17L119.378 153.769Z" fill="#AECE95"/>
<path d="M417.605 110.853C417.943 110.869 418.271 110.971 418.559 111.148L417.549 113.01L418.56 114.837C417.424 115.484 394.036 130.634 378.585 140.666C377.551 141.358 352.347 158.04 329.282 149.059L302.73 138.022C295.124 135.421 287.124 134.164 279.087 134.308C261.577 134.646 247.498 141.795 237.237 155.562L236.329 156.924L232.82 154.585L233.818 153.087C247.655 134.474 266.118 130.311 279.165 130.085C287.719 129.925 296.232 131.291 304.307 134.118L330.859 145.154C351.835 153.318 376.017 137.317 376.278 137.215L396.306 124.176L410.1 115.256L414.641 112.328C416.254 111.307 416.969 110.853 417.605 110.853Z" fill="#AECE95"/>
<path d="M284.85 143.114C289.26 143.066 293.656 143.612 297.92 144.739L296.718 148.778C296.468 148.71 271.258 141.569 251.574 160.766L236.489 177.229L233.365 174.381L248.576 157.77C253.354 153.055 259.02 149.333 265.246 146.818C271.471 144.302 278.134 143.044 284.85 143.114Z" fill="#AECE95"/>
<path d="M410.426 107.517L411.562 109.163L413.164 110.764C412.926 110.991 412.869 111.048 377.503 133.21C376.47 133.891 350.913 150.562 327.542 141.592L300.592 130.556C292.86 127.957 284.741 126.701 276.586 126.841C258.792 127.179 244.486 134.339 234.077 148.129L230.071 153.804L226.663 151.386L230.727 145.575C244.723 126.996 263.435 122.764 276.676 122.607C285.338 122.45 293.962 123.807 302.158 126.617L329.108 137.665C350.424 145.84 374.981 129.816 375.231 129.657C384.779 123.666 409.643 108.028 410.426 107.517Z" fill="#AECE95"/>
<path d="M405.066 102.798C405.356 102.808 405.64 102.885 405.895 103.026C406.15 103.166 406.368 103.364 406.531 103.604L404.873 104.921L405.884 106.748C405.078 107.225 384.733 120.082 376.956 124.996C375.889 125.688 350.003 142.336 326.359 133.388L299.569 122.545C298.638 122.449 297.716 122.286 296.809 122.057C267.976 115.924 246.017 121.948 231.544 139.982L223.076 151.081L219.725 148.527L228.227 137.382C243.847 117.964 267.203 111.418 297.728 117.937L297.819 117.937L297.818 117.267L327.936 129.45C349.514 137.637 374.491 121.602 374.718 121.443L389.239 112.274L399.207 105.987L402.477 103.91C403.229 103.322 404.121 102.938 405.066 102.798Z" fill="#AECE95"/>
<path d="M396.665 98.7147L399.017 102.222C398.302 102.698 370.838 120.468 369.669 121.228L369.601 121.228C368.613 121.806 345.225 135.422 322.637 125.16L307.566 118.03L309.371 114.262L324.418 121.369C344.599 130.542 366.432 118.197 367.42 117.664L396.665 98.7147Z" fill="#AECE95"/>
<path d="M338.125 87.3517C339.806 87.352 340.839 87.4429 341.032 87.4656L341.157 87.4657L392.837 95.0882L392.588 97.0516L392.588 99.3215C392.372 99.3215 392.316 99.3215 340.613 91.6876C339.477 91.5966 316.767 90.0841 300.681 108.105L290.612 119.794L287.421 117.047L297.478 105.301C311.986 89.0279 330.937 87.3508 338.125 87.3517Z" fill="#AECE95"/>
<path d="M340.025 94.9754C341.706 94.9756 342.739 95.0665 342.932 95.0779L343.012 95.0779C343.012 95.0779 355.424 96.7481 367.824 98.4863L384.858 100.759L390.536 101.554C393.238 101.94 394.476 102.111 394.477 103.972L392.365 103.972L391.911 106.026C390.548 105.765 361.648 101.834 342.513 99.2094C341.537 99.1298 318.723 97.5491 302.592 115.605L298.165 120.962L294.906 118.271L299.446 112.824C313.908 96.6745 332.815 94.9744 340.025 94.9754Z" fill="#AECE95"/>
<path d="M341.889 102.237C343.558 102.237 344.592 102.328 344.796 102.351L364.498 104.839C369.415 105.453 374.332 106.089 378.023 106.566L382.486 107.157C384.519 107.43 385.995 107.634 385.995 109.496L383.883 109.496L383.43 111.55C382.192 111.323 359.367 108.425 344.332 106.539C344.161 106.539 320.814 104.573 304.41 122.97L301.264 120.154C315.749 103.914 334.69 102.236 341.889 102.237Z" fill="#AECE95"/>
<path d="M342.652 110.033C343.787 110.033 344.548 110.033 344.696 110.033L344.798 110.033C363.478 111.863 374.925 112.807 375.459 112.841L375.334 114.668L375.335 117.109C374.994 117.109 362.844 116.097 344.459 114.29C343.391 114.29 325.154 113.686 316.424 121.177L313.675 117.964C322.121 110.734 337.167 110.032 342.652 110.033Z" fill="#AECE95"/>
<path d="M340.369 117.169C342.969 117.17 344.797 117.329 345.013 117.352L364.386 119.227L363.978 123.427L344.571 121.552C340.495 121.188 328.844 121.096 324.212 125.046L321.474 121.833C326.197 117.849 334.952 117.169 340.369 117.169Z" fill="#AECE95"/>
<path d="M421.781 114.834L424.144 118.33L379.958 148.162C378.936 148.888 353.778 166.42 330.758 156.974L304.274 145.462C296.733 142.761 288.766 141.445 280.757 141.577C263.304 141.938 249.282 149.461 239.055 163.942L231.109 174.859L227.702 172.373L235.648 161.478C249.394 141.948 267.811 137.512 280.824 137.333C289.394 137.164 297.921 138.597 305.965 141.558L332.426 153.15C353.232 161.687 377.334 144.927 377.572 144.757L421.781 114.834Z" fill="#AECE95"/>
<path d="M335.478 79.8548C337.147 79.855 338.181 79.946 338.374 79.9687L338.487 79.9687L378.629 85.9664L378.006 90.1426L337.887 84.2016C336.751 84.1107 314.041 82.6095 297.956 100.617L282.507 118.773L279.292 115.969L294.775 97.8139C309.294 81.5307 328.245 79.8538 335.478 79.8548Z" fill="#AECE95"/>
<path d="M331.591 72.8563C332.729 72.8468 333.866 72.8962 334.998 73.0043L363.079 76.7191L362.536 80.9064L334.488 77.2029C326.085 76.8421 317.716 78.4767 310.069 81.9729C302.422 85.4691 295.713 90.7272 290.494 97.3162L273.672 119.374L270.265 116.809L287.075 94.7397C292.365 87.9761 299.117 82.4949 306.825 78.7056C314.533 74.9163 323 72.9168 331.591 72.8563Z" fill="#AECE95"/>
<path d="M328.557 65.5747C329.695 65.5664 330.832 65.6158 331.964 65.7227L332.066 65.7227L349.826 68.494L349.18 72.6584L331.477 69.8984C322.964 69.5314 314.483 71.1601 306.714 74.6543C298.945 78.1486 292.103 83.4113 286.734 90.0218L263.102 120.508L259.763 117.921L283.429 87.4115C288.848 80.6425 295.712 75.1692 303.52 71.3913C311.327 67.6133 319.881 65.6261 328.557 65.5747Z" fill="#AECE95"/>
<path d="M325.816 58.3054C327.803 58.3057 329.041 58.4307 329.222 58.4534L329.291 58.4534L334.752 59.2144L334.56 61.0185L334.561 63.424C334.367 63.424 334.288 63.424 328.735 62.6289C320.142 62.2574 311.579 63.8821 303.722 67.3756C295.864 70.869 288.924 76.1359 283.448 82.7626C274.527 94.04 251.146 123.606 250.34 124.741L248.682 123.538L246.49 123.537C246.49 122.766 246.49 122.766 252.165 115.595L263.584 101.119L280.2 80.1184C285.718 73.34 292.67 67.8683 300.557 64.0967C308.444 60.325 317.071 58.3472 325.816 58.3054Z" fill="#AECE95"/>
<path d="M247.082 83.9973C256.468 84.0947 265.803 85.4004 274.857 87.8822L273.722 91.9672C254.792 86.9828 238.214 86.9804 224.454 91.96C211.794 96.4973 206.04 103.816 205.007 105.234C200.194 111.883 188.981 130.389 188.867 130.571L185.256 128.392C185.721 127.62 196.673 109.545 201.588 102.748C203.336 100.411 216.333 83.9928 247.082 83.9973Z" fill="#AECE95"/>
<path d="M247.539 91.0085C255.398 91.0831 263.227 91.9895 270.896 93.7127L270.001 97.8319C249.776 93.4487 222.626 92.4348 208.12 112.473C203.478 118.873 198.359 127.031 197.905 127.939C198.089 127.46 198.089 126.931 197.905 126.452L193.908 127.779C193.533 126.645 193.522 126.645 197.483 120.517C198.913 118.248 201.751 113.97 204.634 109.999C215.224 95.475 231.505 91.0062 247.539 91.0085Z" fill="#AECE95"/>
<path d="M250.175 97.2832C255.72 97.3128 261.246 97.926 266.663 99.1126L265.79 103.243C235.686 96.8385 219.736 108.82 211.643 119.985C209.986 122.254 208.737 123.979 207.92 125.068C207.103 126.158 206.195 127.338 204.639 126.691L203.072 125.987L203.763 122.651L204.445 122.651C205.012 121.879 206.124 120.381 208.202 117.522C217.849 104.212 232.427 97.2806 250.175 97.2832ZM205.535 124.682L206.432 122.867L205.535 124.682Z" fill="#AECE95"/>
<path d="M255.82 104.148C257.932 104.148 260.15 104.212 262.474 104.341L262.237 108.552C229.386 106.754 221.259 118.396 216.402 125.352C216.05 125.862 215.721 126.339 215.391 126.781L211.984 124.307C212.302 123.876 212.62 123.422 212.949 122.934C217.625 116.239 226.07 104.143 255.82 104.148Z" fill="#AECE95"/>
<path d="M256.615 110.422L257.933 110.422L257.877 114.644C235.791 114.323 228.969 121.789 224.951 126.248C224.451 126.804 223.997 127.303 223.566 127.734L220.579 124.749C220.965 124.352 221.385 123.898 221.839 123.399C225.948 118.849 233.656 110.419 256.615 110.422Z" fill="#AECE95"/>
<path d="M252.45 116.763L252.792 120.973C236.771 122.276 230.028 130.048 229.96 130.048L226.723 127.313C227.041 126.984 234.533 118.236 252.45 116.763Z" fill="#AECE95"/>
<path d="M317.828 54.5862C314.114 54.9002 310.431 55.5106 306.814 56.4117C303.34 57.3263 299.969 58.5959 296.755 60.2004C293.52 61.8402 290.408 63.7133 287.445 65.8049C284.437 67.9265 281.565 70.275 278.432 72.6122C282.07 65.6261 287.828 59.9706 294.88 56.4553C298.433 54.6824 302.281 53.5752 306.234 53.1888C310.154 52.789 314.115 53.2663 317.828 54.5862Z" fill="#AECE95"/>
<path d="M318.117 52.4058C323.302 53.0483 328.305 54.7322 332.823 57.3562L428.065 116.738C465.806 141.883 494.074 119.698 494.358 119.471L494.54 119.335L577.35 65.8902L579.622 69.4656L496.914 122.797C490.833 127.176 483.89 130.212 476.545 131.704C464.952 134.222 446.784 134.253 425.772 120.279L330.565 60.9764C326.551 58.6955 322.13 57.222 317.55 56.6391L318.117 52.4058Z" fill="#AECE95"/>
<path d="M329.354 50.7325C325.717 49.6697 321.999 48.91 318.237 48.461C310.973 47.5799 303.605 48.3193 296.662 50.6261C293.07 51.862 289.549 53.2938 286.114 54.9151C288.683 51.8813 291.828 49.3859 295.367 47.5726C302.629 43.8151 311.054 42.9756 318.917 45.2262C322.765 46.2574 326.331 48.1392 329.354 50.7325Z" fill="#AECE95"/>
<path d="M330.403 48.8569C330.79 49.0726 330.994 49.2088 330.994 49.2088L426.758 108.523C442.658 119.08 458.704 122.748 474.453 119.448C481.3 118.089 487.782 115.297 493.471 111.256L493.653 111.131L572.523 60.3869L574.795 63.9397L495.981 114.627C489.879 119.009 482.912 122.041 475.544 123.522C463.815 126.018 445.567 126.049 424.477 112.075L328.747 52.7723L328.326 52.5226L330.403 48.8569Z" fill="#AECE95"/>
<path d="M356.907 58.3345C353.854 57.324 350.891 56.0596 348.05 54.5546C345.233 53.0904 342.508 51.4788 339.85 49.765C337.193 48.0512 334.637 46.2012 332.15 44.2151C329.622 42.2304 327.267 40.0361 325.108 37.6555C328.163 38.6611 331.126 39.9256 333.966 41.4353C336.782 42.9033 339.512 44.4999 342.154 46.225C344.8 47.9502 347.378 49.8001 349.854 51.7749C352.383 53.7625 354.742 55.9566 356.907 58.3345Z" fill="#AECE95"/>
<path d="M358.055 56.5403L426.004 100.751C439.963 110.83 454.578 114.94 469.35 112.967C475.752 112.2 481.932 110.144 487.516 106.922L489.788 110.451C483.76 113.998 477.067 116.269 470.123 117.121C459.177 118.629 442.213 117.605 423.564 104.2L355.739 60.0806L358.055 56.5403Z" fill="#AECE95"/>
<path d="M367.956 56.8941C364.821 55.7474 361.783 54.3505 358.871 52.7171C355.964 51.113 353.144 49.3878 350.411 47.5416C347.674 45.6917 345.016 43.7283 342.461 41.6173C339.846 39.5151 337.411 37.1996 335.18 34.6946C338.317 35.8392 341.355 37.2361 344.265 38.8716C347.18 40.4682 350 42.1934 352.726 44.0471C355.451 45.9008 358.101 47.8756 360.676 49.9714C363.287 52.0767 365.722 54.392 367.956 56.8941Z" fill="#AECE95"/>
<path d="M369.149 55.1258L426.922 94.2042C452.782 113.351 473.843 105.854 474.025 105.774L475.502 109.723C474.56 110.075 452.08 118.083 424.402 97.6195L366.731 58.6205L369.149 55.1258Z" fill="#AECE95"/>
<path d="M376.654 54.4098C373.703 53.3832 370.846 52.1034 368.115 50.5846C362.713 47.64 357.615 44.1691 352.896 40.2226C350.486 38.2361 348.251 36.0452 346.218 33.6744C349.175 34.6922 352.036 35.9684 354.769 37.4882C357.471 38.9543 360.094 40.5606 362.628 42.3005C365.17 44.0291 367.622 45.8852 369.976 47.8616C372.387 49.8481 374.621 52.0389 376.654 54.4098Z" fill="#AECE95"/>
<path d="M377.847 52.639L435.167 91.6959C466.081 112.717 502.415 105.074 502.733 104.994L503.642 109.114C502.087 109.454 465.31 117.256 432.794 95.1908L375.463 56.1225L377.847 52.639Z" fill="#AECE95"/>
<path d="M312.31 52.1913C314.383 52.1828 316.455 52.3158 318.51 52.5894L317.875 56.7658C317.728 56.7658 302.818 54.596 294.372 61.4951L291.691 58.2262C297.878 53.1767 306.53 52.1905 312.31 52.1913Z" fill="#AECE95"/>
<path d="M310.379 43.9423C317.497 44.1386 324.481 45.9233 330.82 49.1657L328.811 52.8766C328.687 52.8085 316.853 46.5195 305.498 48.5834L304.747 44.4295C306.606 44.0978 308.491 43.9347 310.379 43.9423Z" fill="#AECE95"/>
<path d="M356.76 60.9921L359.04 57.4484L340.37 45.4589L338.09 49.0026L356.76 60.9921Z" fill="#AECE95"/>
<path d="M367.338 58.9845L369.699 55.4873L350.578 42.5989L348.216 46.0961L367.338 58.9845Z" fill="#AECE95"/>
<path d="M375.764 56.3969L378.16 52.9234L360.973 41.0883L358.577 44.5618L375.764 56.3969Z" fill="#AECE95"/>
<path d="M400.615 55.0221C397.534 53.9587 394.548 52.6374 391.689 51.072C388.85 49.5625 386.102 47.9054 383.433 46.1349C380.749 44.3763 378.156 42.4823 375.665 40.4602C373.121 38.4284 370.75 36.1888 368.578 33.7644C371.654 34.8205 374.637 36.1343 377.492 37.6918C380.331 39.2052 383.083 40.8547 385.748 42.6403C388.414 44.426 390.999 46.3175 393.505 48.315C396.063 50.3437 398.441 52.5876 400.615 55.0221Z" fill="#AECE95"/>
<path d="M388.635 54.3414C385.99 53.5406 383.428 52.4917 380.981 51.2085C378.579 49.9596 376.248 48.5805 373.997 47.0771C371.743 45.5759 369.578 43.9465 367.512 42.197C365.388 40.4295 363.444 38.4566 361.708 36.307C364.357 37.0937 366.921 38.1433 369.362 39.4399C371.771 40.6751 374.103 42.0548 376.346 43.5712C378.599 45.0725 380.765 46.7019 382.831 48.4514C384.95 50.2246 386.893 52.197 388.635 54.3414Z" fill="#AECE95"/>
<path d="M387.727 56.304L390.095 52.8109L374.889 42.5231L372.521 46.0161L387.727 56.304Z" fill="#AECE95"/>
<path d="M45.2331 144.335C41.4535 145.142 37.5951 145.522 33.7303 145.469C29.8734 145.434 26.0258 145.081 22.227 144.412C18.425 143.743 14.6894 142.739 11.0637 141.414C7.41523 140.115 3.94038 138.372 0.717492 136.225C4.5785 136.781 8.26922 137.531 11.9599 138.224C15.6506 138.917 19.2959 139.598 22.9639 140.257L34.0133 142.166C37.7267 142.847 41.4515 143.472 45.2331 144.335Z" fill="#AECE95"/>
<path d="M103.826 134.488C131.442 134.492 143.336 151.768 143.904 152.653C152.436 165.672 152.39 165.899 152.175 166.955L148.041 166.137C147.953 166.515 147.985 166.912 148.132 167.272C147.735 166.398 143.895 160.337 140.419 154.979C139.828 154.105 125.208 133.118 89.7702 140.218C75.6056 144.443 60.8947 146.56 46.1111 146.5L45.2254 146.5L45.2242 142.278L46.0758 142.278C60.4473 142.321 74.7469 140.262 88.52 136.166L88.7812 136.098C93.7302 135.064 98.7701 134.524 103.826 134.488Z" fill="#AECE95"/>
<path d="M67.614 135.187C64.8682 136.472 61.9949 137.465 59.0414 138.15C56.1229 138.857 53.1542 139.339 50.1617 139.591C47.1401 139.871 44.099 139.87 41.0772 139.59C38.0431 139.321 35.0553 138.668 32.1853 137.647C35.1174 137.025 38.0819 136.567 41.065 136.274C43.972 135.946 46.8676 135.662 49.7745 135.424C52.6815 135.186 55.6112 134.982 58.5636 134.903C61.5833 134.776 64.6082 134.872 67.614 135.187Z" fill="#AECE95"/>
<path d="M104.483 127.078C116.451 127.116 128.08 131.063 137.598 138.318C143.591 142.747 148.739 148.218 152.795 154.468L159.339 166.124L155.661 168.166L149.14 156.59C145.326 150.801 140.519 145.729 134.942 141.608C129.102 137.131 122.346 133.995 115.157 132.425C107.967 130.855 100.52 130.889 93.3458 132.524C83.3427 134.588 75.0313 136.153 67.9575 137.321L67.275 133.156C74.2921 132.022 82.5353 130.446 92.493 128.393C96.4343 127.547 100.452 127.106 104.483 127.078Z" fill="#AECE95"/>
<path d="M96.6135 123.286C94.2659 124.394 91.8318 125.309 89.3354 126.021C86.8904 126.732 84.4379 127.337 81.9777 127.836C79.5175 128.335 77.0383 128.755 74.5402 129.095C71.982 129.46 69.4029 129.661 66.8188 129.696C68.9189 128.104 71.2357 126.82 73.6991 125.883C76.1034 124.945 78.584 124.217 81.1135 123.704C83.6359 123.188 86.1947 122.87 88.7668 122.752C91.3942 122.607 94.0297 122.787 96.6135 123.286Z" fill="#AECE95"/>
<path d="M104.699 120.498C118.643 120.5 132.156 125.835 144.229 136.185C150.838 141.829 156.535 148.459 161.119 155.84L161.119 155.931L166.72 166.859L162.962 168.776L157.395 157.905C153.008 150.934 147.593 144.663 141.335 139.305C127.672 127.65 112.739 122.95 96.9343 125.364L96.2972 121.189C99.0763 120.746 101.885 120.515 104.699 120.498Z" fill="#AECE95"/>
<path d="M117.589 117.753C114.489 118.014 111.548 118.104 108.63 118.297C105.711 118.49 102.85 118.694 99.9769 118.977C97.1041 119.261 94.2312 119.601 91.313 119.964C88.3947 120.327 85.4651 120.701 82.3537 120.871C84.8727 119.096 87.6384 117.701 90.5626 116.728C93.4729 115.726 96.4915 115.071 99.5557 114.777C102.63 114.463 105.731 114.536 108.788 114.994C111.855 115.415 114.83 116.348 117.589 117.753Z" fill="#AECE95"/>
<path d="M118.021 115.677C150.178 122.308 165.924 152.968 166.583 154.262L173.399 167.209L169.698 169.194L162.814 156.201C162.643 155.861 147.284 126.018 117.16 119.807L118.021 115.677Z" fill="#AECE95"/>
<path d="M19.034 139.562C28.8345 142.152 45.7767 142.245 45.9471 142.245L45.9482 146.467C45.2215 146.467 28.2906 146.374 17.9678 143.637L19.034 139.562Z" fill="#AECE95"/>
<path d="M68.0095 132.986L68.7942 137.14C68.2038 137.253 54.1581 139.884 48.3555 139.691L48.4905 135.469C53.8616 135.64 67.8619 132.986 68.0095 132.986Z" fill="#AECE95"/>
<path d="M97.1917 121.074L97.6017 125.273C97.4882 125.273 86.122 126.407 80.5699 128.187L79.2857 124.17C85.2579 122.264 96.7035 121.12 97.1917 121.074Z" fill="#AECE95"/>
<path d="M105.245 114.289C109.805 114.314 114.348 114.84 118.793 115.857L117.772 119.955C117.67 119.955 106.916 117.309 97.741 119.214L96.8769 115.083C99.6322 114.535 102.436 114.269 105.245 114.289Z" fill="#AECE95"/>
</svg>
