<svg width="24" height="18" viewBox="0 0 24 18" fill="none" xmlns="http://www.w3.org/2000/svg">
<path fill-rule="evenodd" clip-rule="evenodd" d="M4.22237 7.6134C4.15367 7.54452 4.07206 7.48988 3.98221 7.4526C3.89236 7.41531 3.79604 7.39612 3.69876 7.39612C3.60148 7.39612 3.50516 7.41531 3.41531 7.4526C3.32546 7.48988 3.24385 7.54452 3.17515 7.6134L0.216887 10.5717C0.0780167 10.7105 0 10.8989 0 11.0953C0 11.2917 0.0780167 11.48 0.216887 11.6189C0.355758 11.7578 0.544107 11.8358 0.7405 11.8358C0.936892 11.8358 1.12524 11.7578 1.26411 11.6189L3.69876 9.18276L6.13341 11.6189C6.27228 11.7578 6.46063 11.8358 6.65702 11.8358C6.85342 11.8358 7.04177 11.7578 7.18064 11.6189C7.31951 11.48 7.39752 11.2917 7.39752 11.0953C7.39752 10.8989 7.31951 10.7105 7.18064 10.5717L4.22237 7.6134V7.6134ZM23.4511 6.13427C23.3824 6.06539 23.3008 6.01075 23.2109 5.97347C23.1211 5.93618 23.0247 5.91699 22.9275 5.91699C22.8302 5.91699 22.7339 5.93618 22.644 5.97347C22.5542 6.01075 22.4725 6.06539 22.4038 6.13427L19.9692 8.5704L17.5346 6.13427C17.3957 5.9954 17.2073 5.91738 17.0109 5.91738C16.8145 5.91738 16.6262 5.9954 16.4873 6.13427C16.3485 6.27314 16.2704 6.46149 16.2704 6.65788C16.2704 6.85427 16.3485 7.04262 16.4873 7.18149L19.4456 10.1398C19.5143 10.2086 19.5959 10.2633 19.6857 10.3006C19.7756 10.3378 19.8719 10.357 19.9692 10.357C20.0665 10.357 20.1628 10.3378 20.2527 10.3006C20.3425 10.2633 20.4241 10.2086 20.4928 10.1398L23.4511 7.18149C23.5199 7.11279 23.5746 7.03118 23.6119 6.94133C23.6492 6.85148 23.6684 6.75516 23.6684 6.65788C23.6684 6.5606 23.6492 6.46428 23.6119 6.37443C23.5746 6.28458 23.5199 6.20297 23.4511 6.13427V6.13427Z" fill="#F36E0F"/>
<path fill-rule="evenodd" clip-rule="evenodd" d="M11.8338 1.47989C10.6019 1.47895 9.38933 1.78604 8.3064 2.37323C7.22348 2.96042 6.30456 3.80906 5.63325 4.84196C5.52288 4.99845 5.3561 5.10603 5.16802 5.14205C4.97994 5.17808 4.78521 5.13974 4.62482 5.03512C4.46443 4.93049 4.35087 4.76772 4.30805 4.58107C4.26523 4.39442 4.29648 4.19843 4.39522 4.03435C5.43873 2.43073 6.97254 1.20727 8.76801 0.546346C10.5635 -0.114579 12.5245 -0.177578 14.3586 0.366741C16.1928 0.91106 17.802 2.03355 18.9463 3.56689C20.0906 5.10022 20.7087 6.9623 20.7086 8.87555C20.7086 9.07189 20.6306 9.26019 20.4917 9.39902C20.3529 9.53786 20.1646 9.61585 19.9683 9.61585C19.7719 9.61585 19.5836 9.53786 19.4448 9.39902C19.3059 9.26019 19.2279 9.07189 19.2279 8.87555C19.2279 6.9141 18.4488 5.03298 17.0618 3.64603C15.6749 2.25908 13.7937 1.47989 11.8323 1.47989H11.8338ZM3.69855 8.13598C3.89469 8.13598 4.08281 8.2139 4.2215 8.3526C4.3602 8.49129 4.43812 8.6794 4.43812 8.87555C4.43757 10.4704 4.95256 12.0226 5.90628 13.3008C6.86 14.579 8.20136 15.5147 9.73031 15.9683C11.2593 16.4219 12.8939 16.3691 14.3903 15.8178C15.8868 15.2665 17.165 14.2462 18.0343 12.9091C18.0855 12.824 18.1534 12.75 18.2339 12.6917C18.3143 12.6334 18.4057 12.5919 18.5026 12.5696C18.5994 12.5474 18.6998 12.5449 18.7976 12.5624C18.8955 12.5798 18.9888 12.6168 19.072 12.6711C19.1553 12.7254 19.2267 12.7959 19.2821 12.8784C19.3374 12.9609 19.3756 13.0537 19.3943 13.1513C19.413 13.249 19.4118 13.3493 19.3909 13.4465C19.3699 13.5436 19.3296 13.6355 19.2723 13.7167C18.2288 15.3204 16.695 16.5438 14.8995 17.2048C13.1041 17.8657 11.1431 17.9287 9.3089 17.3844C7.47471 16.84 5.86554 15.7175 4.72125 14.1842C3.57695 12.6509 2.95882 10.7888 2.95898 8.87555C2.95898 8.7783 2.97816 8.68201 3.01542 8.59219C3.05268 8.50236 3.10729 8.42077 3.17612 8.35207C3.24495 8.28338 3.32666 8.22893 3.41656 8.19185C3.50645 8.15477 3.60278 8.13579 3.70003 8.13598H3.69855Z" fill="#F36E0F"/>
</svg>
