<svg width="20" height="16" viewBox="0 0 20 16" fill="none" xmlns="http://www.w3.org/2000/svg">
<path fill-rule="evenodd" clip-rule="evenodd" d="M10.3902 0.330525C10.4951 0.225753 10.6196 0.142628 10.7568 0.0859108C10.8939 0.0291937 11.0409 0 11.1894 0C11.3379 0 11.4849 0.0291937 11.6221 0.0859108C11.7592 0.142628 11.8838 0.225753 11.9886 0.330525L18.7614 7.08083C18.8666 7.18534 18.95 7.30949 19.0069 7.44617C19.0638 7.58286 19.0931 7.72939 19.0931 7.87737C19.0931 8.02535 19.0638 8.17188 19.0069 8.30857C18.95 8.44525 18.8666 8.5694 18.7614 8.67391L11.9886 15.4242C11.7767 15.6355 11.4892 15.7542 11.1894 15.7542C10.8897 15.7542 10.6022 15.6355 10.3902 15.4242C10.1783 15.213 10.0592 14.9264 10.0592 14.6277C10.0592 14.3289 10.1783 14.0424 10.3902 13.8311L16.3661 7.87737L10.3902 1.9236C10.2851 1.81909 10.2017 1.69494 10.1448 1.55826C10.0879 1.42157 10.0586 1.27505 10.0586 1.12706C10.0586 0.979079 10.0879 0.832549 10.1448 0.695867C10.2017 0.559184 10.2851 0.435033 10.3902 0.330525Z" fill="white"/>
<path fill-rule="evenodd" clip-rule="evenodd" d="M0 7.87746C0 7.57909 0.0870341 7.29293 0.241955 7.08195C0.396877 6.87097 0.606995 6.75244 0.826087 6.75244H18.1739C18.393 6.75244 18.6031 6.87097 18.758 7.08195C18.913 7.29293 19 7.57909 19 7.87746C19 8.17584 18.913 8.46199 18.758 8.67297C18.6031 8.88396 18.393 9.00248 18.1739 9.00248H0.826087C0.606995 9.00248 0.396877 8.88396 0.241955 8.67297C0.0870341 8.46199 0 8.17584 0 7.87746Z" fill="white"/>
</svg>
