<svg width="39" height="24" viewBox="0 0 39 24" fill="none" xmlns="http://www.w3.org/2000/svg">
<path fill-rule="evenodd" clip-rule="evenodd" d="M26.7894 1.3792C26.9364 1.23176 27.1111 1.11478 27.3035 1.03496C27.4958 0.955146 27.702 0.914062 27.9103 0.914062C28.1186 0.914063 28.3248 0.955146 28.5171 1.03496C28.7095 1.11478 28.8842 1.23176 29.0312 1.3792L38.5308 10.8787C38.6782 11.0258 38.7952 11.2005 38.875 11.3928C38.9548 11.5852 38.9959 11.7914 38.9959 11.9997C38.9959 12.2079 38.9548 12.4141 38.875 12.6065C38.7952 12.7988 38.6782 12.9735 38.5308 13.1206L29.0312 22.6201C28.7339 22.9174 28.3307 23.0844 27.9103 23.0844C27.4899 23.0844 27.0866 22.9174 26.7894 22.6201C26.4921 22.3228 26.325 21.9196 26.325 21.4992C26.325 21.0787 26.4921 20.6755 26.7894 20.3782L35.1711 11.9997L26.7894 3.62109C26.6419 3.47402 26.5249 3.2993 26.4451 3.10695C26.3653 2.9146 26.3242 2.7084 26.3242 2.50014C26.3242 2.29189 26.3653 2.08568 26.4451 1.89333C26.5249 1.70099 26.6419 1.52627 26.7894 1.3792Z" fill="#F36E0F"/>
<path fill-rule="evenodd" clip-rule="evenodd" d="M0.998047 12.0002C0.998047 11.5803 1.16485 11.1776 1.46177 10.8807C1.75869 10.5838 2.16139 10.417 2.5813 10.417H35.8296C36.2495 10.417 36.6522 10.5838 36.9491 10.8807C37.246 11.1776 37.4128 11.5803 37.4128 12.0002C37.4128 12.4201 37.246 12.8229 36.9491 13.1198C36.6522 13.4167 36.2495 13.5835 35.8296 13.5835H2.5813C2.16139 13.5835 1.75869 13.4167 1.46177 13.1198C1.16485 12.8229 0.998047 12.4201 0.998047 12.0002Z" fill="#F36E0F"/>
</svg>
