<svg width="38" height="24" viewBox="0 0 38 24" fill="none" xmlns="http://www.w3.org/2000/svg">
<path fill-rule="evenodd" clip-rule="evenodd" d="M12.2067 1.3792C12.0597 1.23176 11.885 1.11478 11.6926 1.03496C11.5003 0.955146 11.294 0.914062 11.0858 0.914062C10.8775 0.914063 10.6713 0.955146 10.479 1.03496C10.2866 1.11478 10.1119 1.23176 9.96485 1.3792L0.465342 10.8787C0.317899 11.0258 0.200921 11.2005 0.121104 11.3928C0.0412884 11.5852 0.000203133 11.7914 0.000203133 11.9997C0.000203133 12.2079 0.0412884 12.4141 0.121104 12.6065C0.200921 12.7988 0.317899 12.9735 0.465342 13.1206L9.96485 22.6201C10.2621 22.9174 10.6654 23.0844 11.0858 23.0844C11.5062 23.0844 11.9094 22.9174 12.2067 22.6201C12.504 22.3228 12.671 21.9196 12.671 21.4992C12.671 21.0787 12.504 20.6755 12.2067 20.3782L3.825 11.9997L12.2067 3.62109C12.3542 3.47402 12.4712 3.2993 12.551 3.10695C12.6308 2.9146 12.6719 2.7084 12.6719 2.50014C12.6719 2.29189 12.6308 2.08568 12.551 1.89333C12.4712 1.70099 12.3542 1.52627 12.2067 1.3792Z" fill="#979696"/>
<path fill-rule="evenodd" clip-rule="evenodd" d="M37.998 12.0002C37.998 11.5803 37.8312 11.1776 37.5343 10.8807C37.2374 10.5838 36.8347 10.417 36.4148 10.417H3.16651C2.7466 10.417 2.34389 10.5838 2.04698 10.8807C1.75006 11.1776 1.58326 11.5803 1.58326 12.0002C1.58326 12.4201 1.75006 12.8229 2.04698 13.1198C2.34389 13.4167 2.7466 13.5835 3.16651 13.5835H36.4148C36.8347 13.5835 37.2374 13.4167 37.5343 13.1198C37.8312 12.8229 37.998 12.4201 37.998 12.0002Z" fill="#979696"/>
</svg>
