<svg width="19" height="24" viewBox="0 0 19 24" fill="none" xmlns="http://www.w3.org/2000/svg">
<path d="M17.3461 0H4.86445C3.95252 0 3.21052 0.742001 3.21052 1.65393V3.63912H1.65393C0.742001 3.63912 0 4.38103 0 5.29306V21.7605C0 22.6724 0.742001 23.4144 1.65393 23.4144H14.1355C15.0474 23.4144 15.7894 22.6724 15.7894 21.7605V19.7754H17.3461C18.258 19.7754 19 19.0334 19 18.1214V1.65393C19 0.742001 18.2581 0 17.3461 0ZM14.3717 21.7605C14.3717 21.8885 14.2635 21.9967 14.1355 21.9967H1.65393C1.52587 21.9967 1.41766 21.8885 1.41766 21.7605V5.29306C1.41766 5.1649 1.52587 5.05678 1.65393 5.05678H14.1355C14.2635 5.05678 14.3717 5.1649 14.3717 5.29306V21.7605ZM17.5823 18.1214C17.5823 18.2495 17.4741 18.3577 17.3461 18.3577H15.7894V5.29306C15.7894 4.38103 15.0474 3.63912 14.1355 3.63912H4.62818V1.65393C4.62818 1.52587 4.7363 1.41766 4.86445 1.41766H17.3461C17.4741 1.41766 17.5823 1.52587 17.5823 1.65393V18.1214Z" fill="#F36E0F"/>
<path d="M11.927 7.28857H3.86215C3.47059 7.28857 3.15332 7.60585 3.15332 7.9974C3.15332 8.38896 3.47059 8.70623 3.86215 8.70623H11.927C12.3186 8.70623 12.6358 8.38896 12.6358 7.9974C12.6358 7.60594 12.3186 7.28857 11.927 7.28857Z" fill="#F36E0F"/>
<path d="M11.927 10.481H3.86215C3.47059 10.481 3.15332 10.7982 3.15332 11.1898C3.15332 11.5813 3.47059 11.8986 3.86215 11.8986H11.927C12.3186 11.8986 12.6358 11.5813 12.6358 11.1898C12.6358 10.7982 12.3186 10.481 11.927 10.481Z" fill="#F36E0F"/>
<path d="M11.927 13.6733H3.86215C3.47059 13.6733 3.15332 13.9906 3.15332 14.3822C3.15332 14.7737 3.47059 15.091 3.86215 15.091H11.927C12.3186 15.091 12.6358 14.7737 12.6358 14.3822C12.6358 13.9906 12.3186 13.6733 11.927 13.6733Z" fill="#F36E0F"/>
<path d="M11.927 16.8655H3.86215C3.47059 16.8655 3.15332 17.1828 3.15332 17.5743C3.15332 17.9659 3.47059 18.2831 3.86215 18.2831H11.927C12.3186 18.2831 12.6358 17.9659 12.6358 17.5743C12.6358 17.1828 12.3186 16.8655 11.927 16.8655Z" fill="#F36E0F"/>
</svg>
