<svg width="19" height="19" viewBox="0 0 19 19" fill="none" xmlns="http://www.w3.org/2000/svg">
<path d="M17.3328 13.3543V15.7378C17.3337 15.9591 17.2883 16.1781 17.1995 16.3809C17.1107 16.5836 16.9804 16.7656 16.817 16.9152C16.6537 17.0648 16.4608 17.1787 16.2507 17.2496C16.0407 17.3205 15.8182 17.3468 15.5974 17.3269C13.1476 17.0612 10.7945 16.2258 8.72705 14.8877C6.80354 13.6679 5.17275 12.0403 3.95048 10.1206C2.60506 8.04787 1.76777 5.68798 1.50646 3.23213C1.48657 3.01242 1.51273 2.79098 1.58329 2.58191C1.65384 2.37285 1.76724 2.18073 1.91626 2.0178C2.06529 1.85487 2.24668 1.72469 2.44887 1.63556C2.65107 1.54642 2.86965 1.50028 3.09069 1.50008H5.47898C5.86533 1.49628 6.23988 1.63282 6.53282 1.88425C6.82576 2.13568 7.0171 2.48484 7.07117 2.86665C7.17197 3.62944 7.35892 4.3784 7.62844 5.09925C7.73555 5.38362 7.75873 5.69268 7.69523 5.98981C7.63174 6.28693 7.48423 6.55966 7.27019 6.77568L6.25915 7.78472C7.39244 9.77383 9.04266 11.4208 11.0357 12.5518L12.0468 11.5428C12.2632 11.3292 12.5365 11.182 12.8342 11.1186C13.1319 11.0552 13.4416 11.0784 13.7265 11.1853C14.4488 11.4542 15.1993 11.6408 15.9636 11.7414C16.3503 11.7959 16.7035 11.9903 16.9559 12.2876C17.2084 12.585 17.3425 12.9646 17.3328 13.3543Z" stroke="#F36E0F" stroke-width="2" stroke-linecap="round" stroke-linejoin="round"/>
</svg>
