<svg width="18" height="22" viewBox="0 0 18 22" fill="none" xmlns="http://www.w3.org/2000/svg">
<path d="M16.5 8.66234C16.5 14.6219 9 21 9 21C9 21 1.5 14.6219 1.5 8.66234C1.5 6.63016 2.29018 4.68121 3.6967 3.24425C5.10322 1.80728 7.01088 1 9 1C10.9891 1 12.8968 1.80728 14.3033 3.24425C15.7098 4.68121 16.5 6.63016 16.5 8.66234Z" fill="#F36E0F" stroke="white" stroke-width="2" stroke-linecap="round" stroke-linejoin="round"/>
<path d="M8.99935 11.8334C10.8403 11.8334 12.3327 10.341 12.3327 8.50008C12.3327 6.65913 10.8403 5.16675 8.99935 5.16675C7.1584 5.16675 5.66602 6.65913 5.66602 8.50008C5.66602 10.341 7.1584 11.8334 8.99935 11.8334Z" fill="#F36E0F" stroke="white" stroke-width="2" stroke-linecap="round" stroke-linejoin="round"/>
</svg>
