<svg width="7" height="7" viewBox="0 0 7 7" fill="none" xmlns="http://www.w3.org/2000/svg">
<path fill-rule="evenodd" clip-rule="evenodd" d="M6.87149 0.128508C6.91223 0.16914 6.94455 0.217409 6.9666 0.270551C6.98865 0.323693 7 0.380663 7 0.438199C7 0.495734 6.98865 0.552704 6.9666 0.605846C6.94455 0.658988 6.91223 0.707257 6.87149 0.74789L0.74766 6.87172C0.665525 6.95386 0.554126 7 0.437969 7C0.321813 7 0.210413 6.95386 0.128278 6.87172C0.0461429 6.78959 8.65435e-10 6.67819 0 6.56203C-8.65435e-10 6.44587 0.0461429 6.33448 0.128278 6.25234L6.25211 0.128508C6.29274 0.0877725 6.34101 0.0554535 6.39416 0.0334021C6.4473 0.0113506 6.50427 0 6.5618 0C6.61934 0 6.67631 0.0113506 6.72945 0.0334021C6.78259 0.0554535 6.83086 0.0877725 6.87149 0.128508Z" fill="#F36E0F"/>
<path fill-rule="evenodd" clip-rule="evenodd" d="M0.128508 0.128508C0.0877725 0.16914 0.0554535 0.217409 0.0334021 0.270551C0.0113506 0.323693 0 0.380663 0 0.438199C0 0.495734 0.0113506 0.552704 0.0334021 0.605846C0.0554535 0.658988 0.0877725 0.707257 0.128508 0.74789L6.25234 6.87172C6.33448 6.95386 6.44587 7 6.56203 7C6.67819 7 6.78959 6.95386 6.87172 6.87172C6.95386 6.78959 7 6.67819 7 6.56203C7 6.44587 6.95386 6.33448 6.87172 6.25234L0.74789 0.128508C0.707257 0.0877725 0.658988 0.0554535 0.605846 0.0334021C0.552704 0.0113506 0.495734 0 0.438199 0C0.380663 0 0.323693 0.0113506 0.270551 0.0334021C0.217409 0.0554535 0.16914 0.0877725 0.128508 0.128508Z" fill="#F36E0F"/>
</svg>
