<svg width="32" height="19" viewBox="0 0 32 19" fill="none" xmlns="http://www.w3.org/2000/svg">
<path fill-rule="evenodd" clip-rule="evenodd" d="M21.9 0.601615C22.0199 0.481335 22.1625 0.385906 22.3194 0.320794C22.4763 0.255683 22.6445 0.222168 22.8144 0.222168C22.9843 0.222168 23.1525 0.255683 23.3094 0.320794C23.4663 0.385906 23.6088 0.481335 23.7288 0.601615L31.4782 8.35104C31.5985 8.47101 31.6939 8.61354 31.7591 8.77045C31.8242 8.92737 31.8577 9.09558 31.8577 9.26547C31.8577 9.43536 31.8242 9.60357 31.7591 9.76049C31.6939 9.9174 31.5985 10.0599 31.4782 10.1799L23.7288 17.9293C23.4863 18.1718 23.1574 18.3081 22.8144 18.3081C22.4714 18.3081 22.1425 18.1718 21.9 17.9293C21.6574 17.6868 21.5212 17.3579 21.5212 17.0149C21.5212 16.6719 21.6574 16.343 21.9 16.1005L28.7375 9.26547L21.9 2.43048C21.7797 2.3105 21.6842 2.16798 21.6191 2.01106C21.554 1.85415 21.5205 1.68593 21.5205 1.51605C21.5205 1.34616 21.554 1.17794 21.6191 1.02103C21.6842 0.864117 21.7797 0.72159 21.9 0.601615Z" fill="#663A2A"/>
<path fill-rule="evenodd" clip-rule="evenodd" d="M0.857422 9.26548C0.857422 8.92294 0.993498 8.59442 1.23571 8.3522C1.47793 8.10999 1.80645 7.97391 2.14899 7.97391H29.272C29.6145 7.97391 29.943 8.10999 30.1853 8.3522C30.4275 8.59442 30.5635 8.92294 30.5635 9.26548C30.5635 9.60803 30.4275 9.93654 30.1853 10.1788C29.943 10.421 29.6145 10.5571 29.272 10.5571H2.14899C1.80645 10.5571 1.47793 10.421 1.23571 10.1788C0.993498 9.93654 0.857422 9.60803 0.857422 9.26548Z" fill="#663A2A"/>
</svg>
