<svg width="166" height="51" viewBox="0 0 166 51" fill="none" xmlns="http://www.w3.org/2000/svg">
<path d="M111.604 30.7861V18.3965H115.751V24.1712C115.751 24.6003 115.662 25.0651 115.662 25.0651H115.841L120.364 18.3965H123.886V30.7861H120.185V24.9757C120.185 24.5645 120.274 24.1533 120.274 24.1533H120.096L115.572 30.7861H111.604Z" fill="#663A2A"/>
<path d="M102.969 27.2644C104.488 27.2644 105.49 26.0844 105.49 24.6184C105.49 23.1166 104.488 21.9367 102.969 21.9367C101.503 21.9367 100.448 23.1166 100.448 24.6184C100.448 26.0844 101.503 27.2644 102.969 27.2644ZM102.969 18.075C106.92 18.075 109.87 20.864 109.87 24.6184C109.87 28.337 106.92 31.126 102.969 31.126C99.0534 31.126 96.1035 28.337 96.1035 24.6184C96.1035 20.8819 99.0534 18.075 102.969 18.075Z" fill="#663A2A"/>
<path d="M20.6042 43.7122C23.1071 43.7122 24.8055 41.8886 24.8055 39.4929C24.8055 37.0615 23.1071 35.2022 20.6042 35.2022C18.1549 35.2022 16.4386 37.0436 16.4386 39.4929C16.4386 41.8886 18.137 43.7122 20.6042 43.7122ZM20.6042 32.9317C24.4837 32.9317 27.237 35.7206 27.237 39.4929C27.237 43.2116 24.4837 45.9827 20.6042 45.9827C16.7604 45.9827 13.9893 43.2116 13.9893 39.4929C13.9893 35.7385 16.7604 32.9317 20.6042 32.9317Z" fill="#663A2A"/>
<path d="M76.473 35.0055C78.7078 35.0055 79.8699 36.4536 80.0665 38.3487H72.9153C73.2728 36.3821 74.6316 35.0055 76.473 35.0055ZM82.3371 40.2795C82.3549 40.0292 82.3728 39.7611 82.3728 39.5108C82.3728 35.7385 80.4241 32.9495 76.3479 32.9495C72.8616 32.9495 70.3408 35.7385 70.3408 39.5108C70.3408 39.7789 70.3587 40.0292 70.3766 40.2795C70.6626 43.5155 72.7365 46.0005 77.063 46.0005C79.1548 46.0005 80.9247 45.3569 82.2119 44.32L81.2465 42.55C80.299 43.2652 78.8508 43.9267 77.1345 43.9267C74.4349 43.9267 73.1298 42.4607 72.8795 40.2974H72.8974L82.3371 40.2795Z" fill="#663A2A"/>
<path d="M93.1713 33.2711V38.3485H86.5385V33.2711H84.0713V45.6606H86.5385V40.2614H93.1713V45.6606H95.6385V33.2711H93.1713Z" fill="#663A2A"/>
<path d="M108.636 33.2711H97.3545V35.4701H101.753V45.6606H104.22V35.4701H108.636V33.2711Z" fill="#663A2A"/>
<path d="M124.351 33.2711H121.884V45.6606H124.351V33.2711Z" fill="#663A2A"/>
<path d="M34.3341 39.153V39.0457C34.3341 39.0457 34.5665 38.9742 34.7631 38.7418C34.9777 38.5094 39.483 33.2889 39.483 33.2889H36.7119L32.3675 38.3663H31.3842V33.2711H28.917V45.6606H31.3842V40.2614H32.5105L37.2125 45.6606H40.2875C40.2875 45.6606 35.0134 39.7251 34.7989 39.4748C34.5844 39.2245 34.3341 39.153 34.3341 39.153Z" fill="#663A2A"/>
<path d="M114.267 43.8013C113.498 43.8013 112.801 43.7477 112.801 43.7477V39.2781C112.801 39.2781 113.338 39.1351 114.285 39.1351C116.341 39.1351 117.253 39.9396 117.253 41.4235C117.271 42.8716 116.448 43.8013 114.267 43.8013ZM114.714 37.0612C113.57 37.0612 112.801 37.2043 112.801 37.2043V33.2711H110.334V45.6606C110.334 45.6606 112.354 45.8573 114.464 45.8573C118.343 45.8573 119.613 43.4974 119.613 41.3162C119.613 39.1172 118.469 37.0612 114.714 37.0612Z" fill="#663A2A"/>
<path d="M6.40859 43.7122C3.92353 43.7122 2.60054 41.8886 2.65418 39.4929C2.70781 37.0615 4.12019 35.2022 6.60525 35.2022C7.98187 35.2022 9.82332 36.4537 9.82332 38.7242V42.1389C9.05456 43.1222 7.85672 43.7122 6.40859 43.7122ZM9.93059 33.2713L9.85908 34.8267H9.69817C8.91153 33.6647 7.33826 32.9317 6.10466 32.9317C2.49327 32.9317 0.347896 35.7206 0.258505 39.4929C0.169115 43.2116 2.35025 45.9827 5.96164 45.9827C7.62431 45.9827 8.64336 45.5179 9.66242 44.32H9.82332V45.4285C9.82332 47.8242 8.16065 48.7717 6.28344 48.7717C4.54926 48.7717 3.2084 48.1281 2.38601 47.6275L1.58149 49.6656C2.36813 50.0768 3.83414 50.9528 6.28344 50.9528C9.75181 50.9528 12.2905 48.8969 12.2905 44.9279V33.2713H9.93059Z" fill="#663A2A"/>
<path d="M50.0667 33.2711V42.2459C49.3337 43.1577 48.2252 43.7119 46.8307 43.7119C44.5602 43.7119 43.5233 41.8883 43.5948 39.4927V33.2711H41.1991V39.4927C41.1097 43.2113 42.5936 45.9824 46.205 45.9824C47.8498 45.9824 48.9761 45.4997 49.9058 44.3198H50.0667V45.4282C50.0667 47.8239 48.404 48.7714 46.5268 48.7714C44.7926 48.7714 43.4518 48.1278 42.6294 47.6272L41.8248 49.6653C42.6115 50.0765 44.0775 50.9526 46.5268 50.9526C49.9952 50.9526 52.5339 48.8966 52.5339 44.9276V33.2711H50.0667Z" fill="#663A2A"/>
<path d="M66.3007 33.2711C66.3007 33.2711 62.2245 39.0099 62.0993 39.1708C61.9742 39.3318 61.9384 39.5105 61.9384 39.5105H61.8491C61.8491 39.5105 61.7954 39.3496 61.6703 39.1708C61.5451 38.9921 57.165 33.2711 57.165 33.2711H54.8408V45.6606H57.308V37.7585C57.308 37.2043 57.2007 36.9003 57.2007 36.9003H57.308L61.8491 42.9968H61.9563L66.1577 36.9003H66.2828C66.2828 36.9003 66.1577 37.2221 66.1577 37.7585V45.6606H68.6249V33.2711H66.3007Z" fill="#663A2A"/>
<path d="M91.1337 18.4144C91.1337 18.4144 87.6653 22.9197 87.5223 23.0985C87.3614 23.313 87.3435 23.4203 87.3435 23.4203H87.1647C87.1647 23.4203 87.1289 23.2952 86.968 23.0985C86.7177 22.7946 83.1242 18.4144 83.1242 18.4144H79.8525V30.804H83.8572V25.5836C83.8572 25.0293 83.7679 24.6897 83.7679 24.6897H83.9466L87.1647 28.3904H87.3435L90.3291 24.6897H90.5079C90.5079 24.6897 90.4185 25.0293 90.4185 25.5836V30.7861H94.4054V18.3965H91.1337V18.4144Z" fill="#663A2A"/>
<path d="M141.14 30.2455V17.6772H131.235V30.2455C131.235 34.6614 133.595 38.7555 137.439 40.9724L148.577 47.4085V35.9665L142.391 32.3909C141.605 31.9439 141.14 31.1394 141.14 30.2455Z" fill="#C79B65"/>
<path d="M148.56 42.4564L159.716 36.0203C163.541 33.8034 165.919 29.7093 165.919 25.2934V0.335449H148.577V10.2399H155.997V25.2755C155.997 26.1515 155.532 26.9739 154.763 27.4209L148.577 30.9965V42.4564H148.56Z" fill="#E84B37"/>
<path d="M148.559 0.335449L131.235 17.6773H148.559V0.335449Z" fill="#663A2A"/>
</svg>
