<svg width="410" height="223" viewBox="0 0 410 223" fill="none" xmlns="http://www.w3.org/2000/svg">
<g opacity="0.8">
<rect width="410" height="223" rx="27" fill="white"/>
<path d="M10 24C10 15.7157 16.7157 9 25 9H382C390.284 9 397 15.7157 397 24V37H10V24Z" fill="#EFEFEF"/>
<path d="M10 43H397V195C397 203.284 390.284 210 382 210H25C16.7157 210 10 203.284 10 195V43Z" fill="#EFEFEF"/>
<rect x="308" y="19" width="61" height="8" rx="4" fill="white"/>
<path d="M285.494 116.181L247.529 76.0693C245.195 73.6014 241.3 73.4888 238.826 75.8177C236.355 78.1446 236.24 82.0307 238.575 84.4967L272.553 120.392L238.575 156.292C236.24 158.758 236.355 162.642 238.826 164.971C240.016 166.091 241.536 166.645 243.051 166.645C244.687 166.645 246.32 165.999 247.529 164.723L285.495 124.61C287.733 122.243 287.733 118.546 285.494 116.181Z" fill="white"/>
<path d="M171.6 156.29L137.624 120.392L171.6 84.4948C173.934 82.0288 173.821 78.1424 171.348 75.8157C168.877 73.4888 164.978 73.6014 162.645 76.0674L124.679 116.179C122.44 118.544 122.44 122.243 124.679 124.609L162.647 164.722C163.857 166.001 165.489 166.646 167.124 166.646C168.639 166.646 170.16 166.089 171.348 164.969C173.823 162.642 173.934 158.756 171.6 156.29Z" fill="white"/>
<path d="M215.048 55.3831C211.688 54.8757 208.544 57.1757 208.031 60.5259L189.972 178.405C189.459 181.757 191.767 184.89 195.129 185.402C195.445 185.449 195.757 185.471 196.067 185.471C199.057 185.471 201.679 183.296 202.145 180.259L220.205 62.3803C220.718 59.0278 218.409 55.8948 215.048 55.3831Z" fill="white"/>
<circle cx="88" cy="23" r="4" fill="white" fill-opacity="0.9"/>
<circle cx="42" cy="23" r="4" fill="white" fill-opacity="0.9"/>
<circle cx="65" cy="23" r="4" fill="white" fill-opacity="0.9"/>
</g>
</svg>
