<svg width="166" height="166" viewBox="0 0 166 166" fill="none" xmlns="http://www.w3.org/2000/svg">
<g opacity="0.16">
<path d="M64.2566 69.6127C67.2097 69.6127 69.6114 72.0143 69.6114 74.9675H74.9662C74.9662 69.0611 70.1629 64.2578 64.2566 64.2578C58.3502 64.2578 53.5469 69.0611 53.5469 74.9675V80.3223C53.5469 86.2287 58.3502 91.032 64.2566 91.032C70.1629 91.032 74.9662 86.2287 74.9662 80.3223H69.6114C69.6114 83.2755 67.2097 85.6772 64.2566 85.6772C61.3034 85.6772 58.9017 83.2755 58.9017 80.3223V74.9675C58.9017 72.0143 61.3034 69.6127 64.2566 69.6127Z" fill="#F36E0F"/>
<path d="M93.7113 64.2578H80.3242V91.032H85.6791V80.3223H93.7113C95.1892 80.3223 96.3887 81.5245 96.3887 82.9997V91.032H101.744V82.9997C101.744 80.9355 100.938 79.0693 99.6552 77.6449C100.94 76.2205 101.744 74.3544 101.744 72.2901C101.744 67.8616 98.1398 64.2578 93.7113 64.2578ZM85.6791 74.9675V69.6127H93.7113C95.1892 69.6127 96.3887 70.8148 96.3887 72.2901C96.3887 73.7653 95.1892 74.9675 93.7113 74.9675H85.6791Z" fill="#F36E0F"/>
<path d="M139.225 117.806C140.703 117.806 141.902 119.005 141.902 120.483H147.257C147.257 116.055 143.653 112.451 139.225 112.451V107.096H133.87V112.451H125.838V120.483C125.838 124.912 129.442 128.516 133.87 128.516H139.225C140.703 128.516 141.902 129.715 141.902 131.193V133.87H133.87C132.392 133.87 131.193 132.671 131.193 131.193H125.838C125.838 135.621 129.442 139.225 133.87 139.225V144.58H139.225V139.225H147.257V131.193C147.257 126.765 143.653 123.161 139.225 123.161H133.87C132.392 123.161 131.193 121.961 131.193 120.483V117.806H139.225Z" fill="#F36E0F"/>
<path d="M143.694 97.2995C144.243 96.2152 144.581 95.005 144.581 93.7091V63.7649C147.689 62.6564 149.935 59.7113 149.935 56.2253V44.1046C156.578 39.6574 160.645 32.1285 160.645 24.0962C160.645 17.2501 157.719 10.7065 152.616 6.13611C147.518 1.57111 140.664 -0.613668 133.804 0.149397C123.234 1.32211 114.377 9.77739 112.751 20.2541C111.284 29.6947 115.349 38.8863 123.164 44.1046V53.5478H84.1058C75.8165 40.3053 61.1871 32.1285 45.5161 32.1285C20.418 32.1285 0 52.5465 0 77.6446C0 99.0479 14.8677 117 34.8065 121.835V125.838C34.8065 127.276 35.2161 128.607 35.8801 129.777C33.6337 131.201 32.129 133.696 32.129 136.548V152.612C32.129 159.994 38.1345 165.999 45.5161 165.999C52.8978 165.999 58.9032 159.994 58.9032 152.612V136.548C58.9032 133.696 57.3985 131.201 55.1522 129.777C55.8162 128.607 56.2258 127.276 56.2258 125.838V121.849C67.6611 119.062 77.7496 111.9 84.1058 101.741H119.667C112.079 107.075 107.097 115.878 107.097 125.838C107.097 142.077 120.31 155.29 136.548 155.29C152.787 155.29 166 142.077 166 125.838C166 112.068 156.487 100.507 143.694 97.2995ZM141.903 58.9027H131.194C129.716 58.9027 128.516 57.7005 128.516 56.2253V53.5478H144.581V56.2253C144.581 57.7005 143.381 58.9027 141.903 58.9027ZM133.871 24.0962C133.871 22.621 135.07 21.4188 136.548 21.4188C138.026 21.4188 139.226 22.621 139.226 24.0962C139.226 25.5715 138.026 26.7737 136.548 26.7737C135.07 26.7737 133.871 25.5715 133.871 24.0962ZM118.042 21.0761C119.306 12.9475 126.181 6.38511 134.393 5.47478C135.124 5.39446 135.85 5.3543 136.572 5.3543C141.199 5.3543 145.561 7.01162 149.044 10.1281C153.012 13.6811 155.29 18.7735 155.29 24.0962C155.29 30.7469 151.697 36.9586 145.917 40.3027L144.581 41.0764V48.193H139.226V31.6358C142.334 30.5274 144.581 27.5822 144.581 24.0962C144.581 19.6678 140.977 16.064 136.548 16.064C132.12 16.064 128.516 19.6678 128.516 24.0962C128.516 27.5822 130.762 30.5274 133.871 31.6358V48.193H128.516V41.0737L127.18 40.3C120.422 36.3883 116.837 28.8433 118.042 21.0761ZM53.5484 152.612C53.5484 157.041 49.9446 160.645 45.5161 160.645C41.0877 160.645 37.4839 157.041 37.4839 152.612V136.548C37.4839 135.07 38.6834 133.87 40.1613 133.87H42.8387H48.1936H50.871C52.3489 133.87 53.5484 135.07 53.5484 136.548V152.612ZM50.871 125.838C50.871 127.316 49.6715 128.516 48.1936 128.516H42.8387C41.3608 128.516 40.1613 127.316 40.1613 125.838V122.818C41.9204 123.024 43.7008 123.161 45.5161 123.161C47.318 123.161 49.1039 123.035 50.871 122.826V125.838ZM45.5161 117.806C23.3712 117.806 5.35484 99.7896 5.35484 77.6446C5.35484 55.4997 23.3712 37.4833 45.5161 37.4833C58.1884 37.4833 70.0948 43.5423 77.6291 53.5478H70.5714C64.0251 46.7472 54.9835 42.8382 45.5161 42.8382C26.3244 42.8382 10.7097 58.4529 10.7097 77.6446C10.7097 96.8364 26.3244 112.451 45.5161 112.451C54.9942 112.451 64.0198 108.542 70.5687 101.741H77.6318C70.0948 111.747 58.1884 117.806 45.5161 117.806ZM50.871 101.741H62.3973C57.4896 105.179 51.6126 107.096 45.5161 107.096C29.2776 107.096 16.0645 93.8832 16.0645 77.6446C16.0645 61.4061 29.2776 48.193 45.5161 48.193C51.6073 48.193 57.4922 50.11 62.4026 53.5478H50.871C46.4425 53.5478 42.8387 57.1517 42.8387 61.5801V93.7091C42.8387 98.1376 46.4425 101.741 50.871 101.741ZM50.871 96.3866C49.393 96.3866 48.1936 95.1871 48.1936 93.7091V61.5801C48.1936 60.1048 49.393 58.9027 50.871 58.9027H123.654C124.762 62.0112 127.708 64.2575 131.194 64.2575H126.586L121.231 80.322H119.734L114.379 64.2575H107.097V91.0317H112.452V75.4009L115.876 85.6769H125.089L128.516 75.4009V91.0317H133.871V64.2575H139.226V93.7091C139.226 95.1871 138.026 96.3866 136.548 96.3866H50.871ZM136.548 149.935C123.26 149.935 112.452 139.126 112.452 125.838C112.452 112.55 123.26 101.741 136.548 101.741C149.836 101.741 160.645 112.55 160.645 125.838C160.645 139.126 149.836 149.935 136.548 149.935Z" fill="#F36E0F"/>
</g>
</svg>
