<svg width="19" height="19" fill="none" xmlns="http://www.w3.org/2000/svg"><path d="M17.333 13.354v2.384a1.587 1.587 0 01-1.082 1.512c-.21.07-.433.097-.654.077a15.775 15.775 0 01-6.87-2.44 15.508 15.508 0 01-4.777-4.766 15.703 15.703 0 01-2.444-6.889 1.586 1.586 0 01.943-1.596c.202-.09.42-.136.642-.136h2.388a1.594 1.594 0 011.592 1.367c.101.762.288 1.511.557 2.232a1.586 1.586 0 01-.358 1.677L6.26 7.785a12.725 12.725 0 004.776 4.767l1.01-1.01a1.593 1.593 0 011.68-.357c.723.27 1.473.456 2.238.556a1.593 1.593 0 011.369 1.613z" stroke="#F36E0F" stroke-width="2" stroke-linecap="round" stroke-linejoin="round"/></svg>