<svg width="166" height="166" fill="none" xmlns="http://www.w3.org/2000/svg"><g opacity=".16" fill="#F36E0F"><path d="M64.257 69.613a5.36 5.36 0 015.354 5.355h5.355c0-5.907-4.803-10.71-10.71-10.71-5.906 0-10.71 4.803-10.71 10.71v5.354c0 5.907 4.804 10.71 10.71 10.71 5.907 0 10.71-4.803 10.71-10.71h-5.355a5.36 5.36 0 01-5.354 5.355 5.36 5.36 0 01-5.355-5.355v-5.355a5.36 5.36 0 015.355-5.354zm29.454-5.355H80.324v26.774h5.355v-10.71h8.032A2.68 2.68 0 0196.39 83v8.032h5.355V83c0-2.064-.806-3.93-2.089-5.355 1.285-1.424 2.089-3.29 2.089-5.355 0-4.428-3.604-8.032-8.033-8.032zm-8.032 10.71v-5.355h8.032a2.68 2.68 0 012.678 2.677 2.68 2.68 0 01-2.678 2.677H85.68zm53.546 42.838a2.678 2.678 0 012.677 2.677h5.355c0-4.428-3.604-8.032-8.032-8.032v-5.355h-5.355v5.355h-8.032v8.032c0 4.429 3.604 8.033 8.032 8.033h5.355a2.678 2.678 0 012.677 2.677v2.677h-8.032a2.678 2.678 0 01-2.677-2.677h-5.355c0 4.428 3.604 8.032 8.032 8.032v5.355h5.355v-5.355h8.032v-8.032c0-4.428-3.604-8.032-8.032-8.032h-5.355a2.678 2.678 0 01-2.677-2.678v-2.677h8.032z"/><path d="M143.694 97.3c.549-1.085.887-2.295.887-3.59V63.764c3.108-1.109 5.354-4.054 5.354-7.54v-12.12c6.643-4.448 10.71-11.976 10.71-20.009 0-6.846-2.926-13.39-8.029-17.96-5.098-4.565-11.952-6.75-18.812-5.987-10.57 1.173-19.427 9.628-21.053 20.105-1.467 9.44 2.598 18.632 10.413 23.85v9.444H84.106c-8.29-13.243-22.919-21.42-38.59-21.42C20.418 32.129 0 52.547 0 77.645 0 99.048 14.868 117 34.806 121.835v4.003c0 1.438.41 2.769 1.074 3.939-2.246 1.424-3.751 3.919-3.751 6.771v16.064c0 7.382 6.006 13.387 13.387 13.387 7.382 0 13.387-6.005 13.387-13.387v-16.064c0-2.852-1.505-5.347-3.75-6.771.663-1.17 1.073-2.501 1.073-3.939v-3.989c11.435-2.787 21.524-9.949 27.88-20.108h35.561c-7.588 5.334-12.57 14.137-12.57 24.097 0 16.239 13.213 29.452 29.451 29.452 16.239 0 29.452-13.213 29.452-29.452 0-13.77-9.513-25.331-22.306-28.538zm-1.791-38.397h-10.709a2.68 2.68 0 01-2.678-2.678v-2.677h16.065v2.677a2.68 2.68 0 01-2.678 2.678zm-8.032-34.807a2.68 2.68 0 012.677-2.677 2.68 2.68 0 012.678 2.677 2.68 2.68 0 01-2.678 2.678 2.68 2.68 0 01-2.677-2.678zm-15.829-3.02c1.264-8.129 8.139-14.69 16.351-15.601.731-.08 1.457-.12 2.179-.12 4.627 0 8.989 1.657 12.472 4.773a18.777 18.777 0 016.246 13.968c0 6.65-3.593 12.863-9.373 16.207l-1.336.773v7.117h-5.355V31.636c3.108-1.109 5.355-4.054 5.355-7.54 0-4.428-3.604-8.032-8.033-8.032-4.428 0-8.032 3.604-8.032 8.032 0 3.486 2.246 6.431 5.355 7.54v16.557h-5.355v-7.12l-1.336-.773c-6.758-3.912-10.343-11.457-9.138-19.224zM53.548 152.612c0 4.429-3.603 8.033-8.032 8.033-4.428 0-8.032-3.604-8.032-8.033v-16.064a2.68 2.68 0 012.677-2.678h10.71c1.478 0 2.677 1.2 2.677 2.678v16.064zm-2.677-26.774a2.68 2.68 0 01-2.677 2.678h-5.355a2.679 2.679 0 01-2.678-2.678v-3.02c1.76.206 3.54.343 5.355.343 1.802 0 3.588-.126 5.355-.335v3.012zm-5.355-8.032c-22.145 0-40.161-18.016-40.161-40.161 0-22.145 18.016-40.162 40.161-40.162 12.672 0 24.579 6.06 32.113 16.065h-7.058c-6.546-6.8-15.587-10.71-25.055-10.71-19.192 0-34.806 15.615-34.806 34.807 0 19.191 15.614 34.806 34.806 34.806 9.478 0 18.504-3.909 25.053-10.71h7.063c-7.537 10.006-19.444 16.065-32.116 16.065zm5.355-16.065h11.526c-4.907 3.438-10.784 5.355-16.88 5.355-16.24 0-29.453-13.213-29.453-29.451 0-16.239 13.214-29.452 29.452-29.452 6.091 0 11.976 1.917 16.887 5.355H50.87c-4.428 0-8.032 3.604-8.032 8.032v32.13c0 4.428 3.604 8.031 8.032 8.031zm0-5.354a2.678 2.678 0 01-2.677-2.678V61.58a2.68 2.68 0 012.677-2.677h72.783c1.108 3.108 4.054 5.354 7.54 5.354h-4.608l-5.355 16.065h-1.497l-5.355-16.065h-7.282v26.775h5.355V75.4l3.424 10.276h9.213l3.427-10.276v15.63h5.355V64.258h5.355V93.71a2.68 2.68 0 01-2.678 2.678H50.871zm85.677 53.548c-13.288 0-24.096-10.809-24.096-24.097 0-13.288 10.808-24.097 24.096-24.097s24.097 10.809 24.097 24.097c0 13.288-10.809 24.097-24.097 24.097z"/></g></svg>