<svg width="177" height="188" fill="none" xmlns="http://www.w3.org/2000/svg"><path d="M49.743 94.14H12.08c4.804 13.141 10.86 27.435 17.801 38.951 10.723 17.788 24.359 31.794 31.533 38.561 5.26 4.963 10.377 9.193 14.796 12.234 2.78 1.913 4.988 3.148 6.763 3.944v-60.461c-17.146-2.487-30.742-16.083-33.229-33.23zm44.56 33.229v60.336c1.727-.798 3.852-2.005 6.488-3.821 4.419-3.04 9.534-7.271 14.796-12.233 7.174-6.766 20.809-20.773 31.533-38.56 6.943-11.516 12.997-25.81 17.799-38.951h-37.387c-2.487 17.146-16.083 30.742-33.23 33.229zm-11.465-77.77V0H49.26a5.666 5.666 0 00-5.552 4.531c-.047.237-5.24 23.864-40.956 45.272a5.667 5.667 0 00-2.58 6.251c.24.942 3.109 12.158 7.96 26.755h41.61c2.48-17.102 16.012-30.673 33.095-33.21zm44.695 33.21h41.335c4.851-14.596 7.72-25.813 7.958-26.755a5.664 5.664 0 00-2.578-6.25c-18.505-11.09-28.662-22.839-33.923-30.742-5.515-8.281-6.951-14.18-7.037-14.552-.516-2.661-2.833-4.51-5.548-4.51H94.169v49.561c17.211 2.435 30.87 16.056 33.364 33.248zM88.64 60.5c-15.426 0-27.975 12.55-27.975 27.974 0 15.425 12.55 27.974 27.974 27.974s27.973-12.549 27.973-27.974c0-15.424-12.549-27.975-27.973-27.975zm15.487 25.555L87.222 102.96a5.664 5.664 0 01-8.38-.405l-7.23-8.788a5.665 5.665 0 01.775-7.973 5.663 5.663 0 017.974.774l3.264 3.966 12.492-12.49a5.663 5.663 0 018.01 0 5.66 5.66 0 010 8.01z" opacity=".08" fill="#979696"/></svg>