<svg width="78" height="62" viewBox="0 0 78 62" fill="none" xmlns="http://www.w3.org/2000/svg">
<path d="M26.2969 15.0685L10.7494 30.6182L26.2969 46.1612C28.0335 47.9001 28.0335 50.721 26.2969 52.4577C25.4241 53.3304 24.2908 53.7624 23.1486 53.7624C22.0065 53.7624 20.8732 53.3304 20.0004 52.4577L1.30471 33.7642C0.469786 32.9315 0 31.7982 0 30.6182C0 29.4404 0.469786 28.3049 1.30471 27.47L20.0004 8.77206C21.7393 7.03541 24.558 7.03541 26.2969 8.77206C28.0335 10.5109 28.0335 13.3252 26.2969 15.0685ZM76.6953 27.4677L58.0018 8.76983C56.263 7.03318 53.4442 7.03318 51.7054 8.76983C49.9665 10.5087 49.9665 13.3274 51.7054 15.0663L67.2506 30.616L51.7054 46.1612C49.9665 47.9001 49.9665 50.721 51.7054 52.4577C52.5781 53.3304 53.7136 53.7624 54.8536 53.7624C55.9935 53.7624 57.1313 53.3304 58.0018 52.4577L76.6953 33.7642C77.5302 32.9293 78 31.796 78 30.616C78 29.4404 77.5302 28.3027 76.6953 27.4677ZM46.7826 0.142249C44.3869 -0.474484 41.9712 0.972723 41.3612 3.3506L28.0023 55.6682C27.3967 58.0506 28.8328 60.4774 31.2129 61.0875C31.5847 61.1832 31.9566 61.2277 32.3195 61.2277C34.3099 61.2277 36.1178 59.8852 36.6321 57.8769L49.991 5.55926C50.601 3.1747 49.1627 0.750076 46.7826 0.142249Z" fill="#F36E0F"/>
<path d="M26.2969 15.0685L10.7494 30.6182L26.2969 46.1612C28.0335 47.9001 28.0335 50.721 26.2969 52.4577C25.4241 53.3304 24.2908 53.7624 23.1486 53.7624C22.0065 53.7624 20.8732 53.3304 20.0004 52.4577L1.30471 33.7642C0.469786 32.9315 0 31.7982 0 30.6182C0 29.4404 0.469786 28.3049 1.30471 27.47L20.0004 8.77206C21.7393 7.03541 24.558 7.03541 26.2969 8.77206C28.0335 10.5109 28.0335 13.3252 26.2969 15.0685ZM76.6953 27.4677L58.0018 8.76983C56.263 7.03318 53.4442 7.03318 51.7054 8.76983C49.9665 10.5087 49.9665 13.3274 51.7054 15.0663L67.2506 30.616L51.7054 46.1612C49.9665 47.9001 49.9665 50.721 51.7054 52.4577C52.5781 53.3304 53.7136 53.7624 54.8536 53.7624C55.9935 53.7624 57.1313 53.3304 58.0018 52.4577L76.6953 33.7642C77.5302 32.9293 78 31.796 78 30.616C78 29.4404 77.5302 28.3027 76.6953 27.4677ZM46.7826 0.142249C44.3869 -0.474484 41.9712 0.972723 41.3612 3.3506L28.0023 55.6682C27.3967 58.0506 28.8328 60.4774 31.2129 61.0875C31.5847 61.1832 31.9566 61.2277 32.3195 61.2277C34.3099 61.2277 36.1178 59.8852 36.6321 57.8769L49.991 5.55926C50.601 3.1747 49.1627 0.750076 46.7826 0.142249Z" fill="url(#paint0_linear)"/>
<defs>
<linearGradient id="paint0_linear" x1="0" y1="0" x2="81.7763" y2="5.54599" gradientUnits="userSpaceOnUse">
<stop stop-color="#F36E0F"/>
<stop offset="1" stop-color="white" stop-opacity="0"/>
</linearGradient>
</defs>
</svg>
