<svg width="78" height="62" viewBox="0 0 78 62" fill="none" xmlns="http://www.w3.org/2000/svg">
<path d="M26.2969 15.4558L10.7494 31.0055L26.2969 46.5485C28.0335 48.2874 28.0335 51.1083 26.2969 52.845C25.4241 53.7178 24.2908 54.1497 23.1486 54.1497C22.0065 54.1497 20.8732 53.7178 20.0004 52.845L1.30471 34.1515C0.469786 33.3188 0 32.1856 0 31.0055C0 29.8277 0.469786 28.6922 1.30471 27.8573L20.0004 9.15938C21.7393 7.42274 24.558 7.42274 26.2969 9.15938C28.0335 10.8983 28.0335 13.7125 26.2969 15.4558ZM76.6953 27.8551L58.0018 9.15716C56.263 7.42051 53.4442 7.42051 51.7054 9.15716C49.9665 10.896 49.9665 13.7147 51.7054 15.4536L67.2506 31.0033L51.7054 46.5485C49.9665 48.2874 49.9665 51.1083 51.7054 52.845C52.5781 53.7178 53.7136 54.1497 54.8536 54.1497C55.9935 54.1497 57.1313 53.7178 58.0018 52.845L76.6953 34.1515C77.5302 33.3166 78 32.1833 78 31.0033C78 29.8277 77.5302 28.69 76.6953 27.8551ZM46.7826 0.529578C44.3869 -0.0871544 41.9712 1.36005 41.3612 3.73792L28.0023 56.0556C27.3967 58.4379 28.8328 60.8648 31.2129 61.4748C31.5847 61.5705 31.9566 61.6151 32.3195 61.6151C34.3099 61.6151 36.1178 60.2725 36.6321 58.2642L49.991 5.94659C50.601 3.56203 49.1627 1.13741 46.7826 0.529578Z" fill="#F2F2F2"/>
<path d="M26.2969 15.4558L10.7494 31.0055L26.2969 46.5485C28.0335 48.2874 28.0335 51.1083 26.2969 52.845C25.4241 53.7178 24.2908 54.1497 23.1486 54.1497C22.0065 54.1497 20.8732 53.7178 20.0004 52.845L1.30471 34.1515C0.469786 33.3188 0 32.1856 0 31.0055C0 29.8277 0.469786 28.6922 1.30471 27.8573L20.0004 9.15938C21.7393 7.42274 24.558 7.42274 26.2969 9.15938C28.0335 10.8983 28.0335 13.7125 26.2969 15.4558ZM76.6953 27.8551L58.0018 9.15716C56.263 7.42051 53.4442 7.42051 51.7054 9.15716C49.9665 10.896 49.9665 13.7147 51.7054 15.4536L67.2506 31.0033L51.7054 46.5485C49.9665 48.2874 49.9665 51.1083 51.7054 52.845C52.5781 53.7178 53.7136 54.1497 54.8536 54.1497C55.9935 54.1497 57.1313 53.7178 58.0018 52.845L76.6953 34.1515C77.5302 33.3166 78 32.1833 78 31.0033C78 29.8277 77.5302 28.69 76.6953 27.8551ZM46.7826 0.529578C44.3869 -0.0871544 41.9712 1.36005 41.3612 3.73792L28.0023 56.0556C27.3967 58.4379 28.8328 60.8648 31.2129 61.4748C31.5847 61.5705 31.9566 61.6151 32.3195 61.6151C34.3099 61.6151 36.1178 60.2725 36.6321 58.2642L49.991 5.94659C50.601 3.56203 49.1627 1.13741 46.7826 0.529578Z" fill="url(#paint0_linear)"/>
<defs>
<linearGradient id="paint0_linear" x1="27.69" y1="4.84026" x2="50.1299" y2="70.4473" gradientUnits="userSpaceOnUse">
<stop stop-color="#F5F7FA" stop-opacity="0.76"/>
<stop offset="0.927083" stop-color="#B8C6DB" stop-opacity="0.0554167"/>
</linearGradient>
</defs>
</svg>
