<svg width="173" height="73" viewBox="0 0 173 73" fill="none" xmlns="http://www.w3.org/2000/svg">
<path d="M5.37598 32V27.437L18.5352 11.1846H6.86279V6.94629H25.2002V10.877L11.4771 27.7788H25.73V32H5.37598ZM34.4226 19.3877L30.0646 18.6016C30.5546 16.847 31.3977 15.5482 32.5939 14.7051C33.7902 13.862 35.5676 13.4404 37.926 13.4404C40.0679 13.4404 41.663 13.6968 42.7111 14.2095C43.7593 14.7108 44.4942 15.3545 44.9157 16.1406C45.3487 16.9154 45.5651 18.3452 45.5651 20.4302L45.5139 26.0356C45.5139 27.6307 45.5879 28.8099 45.736 29.5732C45.8955 30.3252 46.1861 31.1341 46.6076 32H41.8566C41.7313 31.681 41.5775 31.2082 41.3952 30.5815C41.3155 30.2967 41.2585 30.1087 41.2243 30.0176C40.404 30.8151 39.5267 31.4132 38.5925 31.812C37.6582 32.2108 36.6613 32.4102 35.6018 32.4102C33.7333 32.4102 32.2578 31.9032 31.1755 30.8892C30.1045 29.8752 29.569 28.5934 29.569 27.0439C29.569 26.0186 29.814 25.1071 30.3039 24.3096C30.7938 23.5007 31.4774 22.8854 32.3547 22.4639C33.2434 22.0309 34.5194 21.6549 36.1828 21.3359C38.4273 20.9144 39.9825 20.5213 40.8483 20.1567V19.6782C40.8483 18.7554 40.6205 18.1003 40.1647 17.7129C39.709 17.3141 38.8488 17.1147 37.5842 17.1147C36.7297 17.1147 36.0632 17.2856 35.5847 17.6274C35.1062 17.9578 34.7188 18.5446 34.4226 19.3877ZM40.8483 23.2842C40.2331 23.4893 39.259 23.7342 37.926 24.019C36.593 24.3039 35.7214 24.583 35.3112 24.8564C34.6846 25.3008 34.3713 25.8647 34.3713 26.5483C34.3713 27.2205 34.6219 27.8016 35.1232 28.2915C35.6245 28.7814 36.2626 29.0264 37.0373 29.0264C37.9032 29.0264 38.7292 28.7415 39.5153 28.1719C40.0964 27.7389 40.4781 27.2091 40.6604 26.5825C40.7857 26.1724 40.8483 25.3919 40.8483 24.2412V23.2842ZM52.0702 32V6.94629H56.8725V20.2422L62.495 13.8506H68.4081L62.2045 20.4814L68.8524 32H63.6742L59.1112 23.8481L56.8725 26.1895V32H52.0702ZM77.2374 19.3877L72.8795 18.6016C73.3694 16.847 74.2125 15.5482 75.4088 14.7051C76.6051 13.862 78.3824 13.4404 80.7408 13.4404C82.8827 13.4404 84.4778 13.6968 85.526 14.2095C86.5742 14.7108 87.309 15.3545 87.7306 16.1406C88.1635 16.9154 88.38 18.3452 88.38 20.4302L88.3287 26.0356C88.3287 27.6307 88.4028 28.8099 88.5509 29.5732C88.7104 30.3252 89.0009 31.1341 89.4225 32H84.6715C84.5462 31.681 84.3924 31.2082 84.2101 30.5815C84.1303 30.2967 84.0733 30.1087 84.0392 30.0176C83.2188 30.8151 82.3416 31.4132 81.4073 31.812C80.4731 32.2108 79.4762 32.4102 78.4166 32.4102C76.5481 32.4102 75.0727 31.9032 73.9903 30.8892C72.9194 29.8752 72.3839 28.5934 72.3839 27.0439C72.3839 26.0186 72.6288 25.1071 73.1188 24.3096C73.6087 23.5007 74.2923 22.8854 75.1695 22.4639C76.0582 22.0309 77.3342 21.6549 78.9977 21.3359C81.2421 20.9144 82.7973 20.5213 83.6632 20.1567V19.6782C83.6632 18.7554 83.4353 18.1003 82.9796 17.7129C82.5239 17.3141 81.6637 17.1147 80.399 17.1147C79.5445 17.1147 78.878 17.2856 78.3995 17.6274C77.921 17.9578 77.5336 18.5446 77.2374 19.3877ZM83.6632 23.2842C83.048 23.4893 82.0738 23.7342 80.7408 24.019C79.4078 24.3039 78.5362 24.583 78.1261 24.8564C77.4994 25.3008 77.1861 25.8647 77.1861 26.5483C77.1861 27.2205 77.4368 27.8016 77.9381 28.2915C78.4394 28.7814 79.0774 29.0264 79.8521 29.0264C80.718 29.0264 81.544 28.7415 82.3302 28.1719C82.9112 27.7389 83.2929 27.2091 83.4752 26.5825C83.6005 26.1724 83.6632 25.3919 83.6632 24.2412V23.2842ZM93.1248 32V28.2573L99.9266 20.4473C101.043 19.1712 101.869 18.2655 102.405 17.73C101.846 17.7642 101.111 17.7869 100.2 17.7983L93.7913 17.8325V13.8506H108.796V17.2515L101.858 25.2495L99.4139 27.8984C100.747 27.8187 101.573 27.7788 101.892 27.7788H109.326V32H93.1248Z" fill="#979696"/>
<path d="M126.198 32V6.94629H136.845C139.523 6.94629 141.465 7.17415 142.673 7.62988C143.892 8.07422 144.866 8.87174 145.595 10.0225C146.325 11.1732 146.689 12.4891 146.689 13.9702C146.689 15.8501 146.137 17.4053 145.031 18.6357C143.926 19.8548 142.274 20.6239 140.075 20.9429C141.169 21.5809 142.069 22.2816 142.776 23.0449C143.493 23.8083 144.456 25.1641 145.664 27.1123L148.723 32H142.673L139.016 26.5483C137.717 24.6001 136.828 23.3753 136.35 22.874C135.871 22.3613 135.364 22.0138 134.829 21.8315C134.293 21.6379 133.445 21.541 132.282 21.541H131.257V32H126.198ZM131.257 17.542H135C137.426 17.542 138.942 17.4395 139.546 17.2344C140.149 17.0293 140.622 16.6761 140.964 16.1748C141.306 15.6735 141.477 15.0469 141.477 14.2949C141.477 13.4518 141.249 12.7739 140.793 12.2612C140.349 11.7371 139.717 11.4067 138.896 11.27C138.486 11.2131 137.256 11.1846 135.205 11.1846H131.257V17.542ZM153.434 32V6.94629H170.609V11.1846H158.492V17.1147H168.951V21.353H158.492V32H153.434Z" fill="#979696"/>
<path d="M1.05734 49.1191C1.05734 47.4557 1.50396 46.1546 2.39719 45.2158C3.29042 44.2725 4.44341 43.8008 5.85617 43.8008C6.7813 43.8008 7.61529 44.0218 8.35812 44.4639C9.10096 44.9059 9.66607 45.5234 10.0534 46.3164C10.4454 47.1048 10.6413 48.0003 10.6413 49.0029C10.6413 50.0192 10.4362 50.9284 10.0261 51.7305C9.61594 52.5326 9.03488 53.141 8.28293 53.5557C7.53098 53.9658 6.71978 54.1709 5.84933 54.1709C4.90598 54.1709 4.06288 53.943 3.32004 53.4873C2.5772 53.0316 2.01437 52.4095 1.63156 51.6211C1.24875 50.8327 1.05734 49.9987 1.05734 49.1191ZM2.42453 49.1396C2.42453 50.3473 2.7481 51.2998 3.39523 51.9971C4.04693 52.6898 4.86268 53.0361 5.8425 53.0361C6.84055 53.0361 7.66086 52.6852 8.30344 51.9834C8.95057 51.2816 9.27414 50.2858 9.27414 48.9961C9.27414 48.1803 9.13514 47.4694 8.85715 46.8633C8.58371 46.2526 8.18039 45.7809 7.64719 45.4482C7.11854 45.111 6.52381 44.9424 5.86301 44.9424C4.9242 44.9424 4.11529 45.266 3.43625 45.9131C2.76177 46.5557 2.42453 47.6312 2.42453 49.1396ZM17.6583 43.7393L18.7452 43.7529C18.6951 44.2406 18.5857 44.5801 18.4171 44.7715C18.253 44.9629 18.0388 45.0859 17.7745 45.1406C17.5147 45.1953 17.002 45.2227 16.2364 45.2227C15.2201 45.2227 14.5274 45.3206 14.1583 45.5166C13.7891 45.7126 13.5225 46.027 13.3585 46.46C13.199 46.8883 13.1101 47.4421 13.0919 48.1211C13.4018 47.6608 13.7641 47.3167 14.1788 47.0889C14.5935 46.8564 15.0606 46.7402 15.5802 46.7402C16.5326 46.7402 17.321 47.0684 17.9454 47.7246C18.5697 48.3763 18.8819 49.2604 18.8819 50.377C18.8819 51.2246 18.7247 51.9196 18.4102 52.4619C18.0958 53.0042 17.7221 53.4235 17.2891 53.7197C16.8608 54.016 16.2751 54.1641 15.5323 54.1641C14.671 54.1641 14.0011 53.9681 13.5225 53.5762C13.044 53.1797 12.6772 52.6738 12.422 52.0586C12.1667 51.4434 12.0391 50.3724 12.0391 48.8457C12.0391 46.9271 12.3627 45.6351 13.0098 44.9697C13.6615 44.3044 14.6619 43.9717 16.0108 43.9717C16.8494 43.9717 17.3256 43.958 17.4395 43.9307C17.5535 43.9033 17.6264 43.8395 17.6583 43.7393ZM17.5968 50.3428C17.5968 49.5863 17.4167 48.9665 17.0567 48.4834C16.7012 48.0003 16.1977 47.7588 15.546 47.7588C14.8669 47.7588 14.3429 48.014 13.9737 48.5244C13.6046 49.0348 13.42 49.7161 13.42 50.5684C13.42 51.4115 13.6228 52.0563 14.0284 52.5029C14.4386 52.9495 14.9421 53.1729 15.5391 53.1729C16.1498 53.1729 16.6443 52.9154 17.0225 52.4004C17.4054 51.8809 17.5968 51.195 17.5968 50.3428ZM20.5463 46.7402H21.7768V52.9883H24.5795V46.7402H25.81V52.9883H28.6196V46.7402H29.8432V52.9883H30.6567V56.0576H29.6381V54H20.5463V46.7402ZM36.9764 51.6621L38.2479 51.8193C38.0473 52.5622 37.6759 53.1387 37.1336 53.5488C36.5913 53.959 35.8986 54.1641 35.0555 54.1641C33.9936 54.1641 33.1505 53.8382 32.5262 53.1865C31.9064 52.5303 31.5965 51.612 31.5965 50.4316C31.5965 49.2103 31.9109 48.2624 32.5398 47.5879C33.1687 46.9134 33.9845 46.5762 34.9871 46.5762C35.9578 46.5762 36.7508 46.9066 37.366 47.5674C37.9812 48.2282 38.2889 49.1579 38.2889 50.3564C38.2889 50.4294 38.2866 50.5387 38.282 50.6846H32.868C32.9135 51.4821 33.1391 52.0928 33.5447 52.5166C33.9503 52.9404 34.4562 53.1523 35.0623 53.1523C35.5135 53.1523 35.8986 53.0339 36.2176 52.7969C36.5366 52.5599 36.7895 52.1816 36.9764 51.6621ZM32.9363 49.6729H36.99C36.9354 49.0622 36.7804 48.6042 36.5252 48.2988C36.1333 47.8249 35.6251 47.5879 35.0008 47.5879C34.4357 47.5879 33.9594 47.777 33.5721 48.1553C33.1893 48.5335 32.9773 49.0394 32.9363 49.6729ZM39.9396 56.7822V46.7402H41.0607V47.6836C41.325 47.3145 41.6235 47.0387 41.9562 46.8564C42.2889 46.6696 42.6922 46.5762 43.1662 46.5762C43.786 46.5762 44.3328 46.7357 44.8068 47.0547C45.2808 47.3737 45.6385 47.8249 45.88 48.4082C46.1216 48.987 46.2423 49.6227 46.2423 50.3154C46.2423 51.0583 46.1079 51.7282 45.839 52.3252C45.5747 52.9176 45.1873 53.3734 44.6769 53.6924C44.1711 54.0068 43.6379 54.1641 43.0773 54.1641C42.6671 54.1641 42.298 54.0775 41.9699 53.9043C41.6463 53.7311 41.3797 53.5124 41.1701 53.248V56.7822H39.9396ZM41.0539 50.4111C41.0539 51.3454 41.243 52.0358 41.6213 52.4824C41.9995 52.929 42.4575 53.1523 42.9953 53.1523C43.5421 53.1523 44.0093 52.9222 44.3966 52.4619C44.7886 51.9971 44.9845 51.2793 44.9845 50.3086C44.9845 49.3835 44.7931 48.6908 44.4103 48.2305C44.0321 47.7702 43.5786 47.54 43.05 47.54C42.5259 47.54 42.061 47.7861 41.6554 48.2783C41.2544 48.766 41.0539 49.4769 41.0539 50.4111ZM47.4146 50.3701C47.4146 49.0257 47.7883 48.0299 48.5357 47.3828C49.16 46.8451 49.9211 46.5762 50.8189 46.5762C51.8169 46.5762 52.6327 46.9043 53.2661 47.5605C53.8996 48.2122 54.2163 49.1146 54.2163 50.2676C54.2163 51.2018 54.0751 51.9378 53.7925 52.4756C53.5145 53.0088 53.1066 53.4235 52.5689 53.7197C52.0357 54.016 51.4523 54.1641 50.8189 54.1641C49.8026 54.1641 48.98 53.8382 48.3511 53.1865C47.7267 52.5348 47.4146 51.596 47.4146 50.3701ZM48.6792 50.3701C48.6792 51.2998 48.882 51.9971 49.2876 52.4619C49.6932 52.9222 50.2036 53.1523 50.8189 53.1523C51.4295 53.1523 51.9377 52.9199 52.3433 52.4551C52.7489 51.9902 52.9517 51.2816 52.9517 50.3291C52.9517 49.4313 52.7466 48.7523 52.3364 48.292C51.9308 47.8271 51.425 47.5947 50.8189 47.5947C50.2036 47.5947 49.6932 47.8249 49.2876 48.2852C48.882 48.7454 48.6792 49.4404 48.6792 50.3701ZM60.5429 51.3408L61.7528 51.498C61.6206 52.332 61.2811 52.986 60.7343 53.46C60.1919 53.9294 59.5243 54.1641 58.7313 54.1641C57.7378 54.1641 56.938 53.8405 56.3319 53.1934C55.7304 52.5417 55.4296 51.6097 55.4296 50.3975C55.4296 49.6136 55.5595 48.9277 55.8192 48.3398C56.079 47.752 56.4732 47.3122 57.0018 47.0205C57.535 46.7243 58.1138 46.5762 58.7382 46.5762C59.5266 46.5762 60.1714 46.7767 60.6727 47.1777C61.174 47.5742 61.4953 48.1393 61.6366 48.873L60.4403 49.0576C60.3264 48.57 60.1236 48.2031 59.8319 47.957C59.5448 47.7109 59.1962 47.5879 58.786 47.5879C58.1662 47.5879 57.6626 47.8112 57.2753 48.2578C56.8879 48.6999 56.6942 49.4017 56.6942 50.3633C56.6942 51.3385 56.8811 52.0472 57.2548 52.4893C57.6285 52.9313 58.1161 53.1523 58.7177 53.1523C59.2007 53.1523 59.604 53.0042 59.9276 52.708C60.2512 52.4118 60.4563 51.9561 60.5429 51.3408ZM67.6828 51.3408L68.8928 51.498C68.7606 52.332 68.4211 52.986 67.8743 53.46C67.3319 53.9294 66.6643 54.1641 65.8713 54.1641C64.8778 54.1641 64.078 53.8405 63.4719 53.1934C62.8703 52.5417 62.5696 51.6097 62.5696 50.3975C62.5696 49.6136 62.6995 48.9277 62.9592 48.3398C63.219 47.752 63.6132 47.3122 64.1418 47.0205C64.675 46.7243 65.2538 46.5762 65.8782 46.5762C66.6666 46.5762 67.3114 46.7767 67.8127 47.1777C68.314 47.5742 68.6353 48.1393 68.7766 48.873L67.5803 49.0576C67.4664 48.57 67.2636 48.2031 66.9719 47.957C66.6848 47.7109 66.3362 47.5879 65.926 47.5879C65.3062 47.5879 64.8026 47.8112 64.4153 48.2578C64.0279 48.6999 63.8342 49.4017 63.8342 50.3633C63.8342 51.3385 64.0211 52.0472 64.3948 52.4893C64.7685 52.9313 65.2561 53.1523 65.8577 53.1523C66.3407 53.1523 66.744 53.0042 67.0676 52.708C67.3912 52.4118 67.5963 51.9561 67.6828 51.3408ZM70.0855 46.7402H71.316V52.2773L74.7271 46.7402H76.0533V54H74.8229V48.4971L71.4117 54H70.0855V46.7402ZM78.0459 46.7402H79.2763V52.2773L82.6875 46.7402H84.0136V54H82.7832V48.4971L79.372 54H78.0459V46.7402ZM82.3183 43.9922H83.1591C83.0908 44.5618 82.8811 44.9993 82.5302 45.3047C82.1839 45.61 81.7213 45.7627 81.1425 45.7627C80.5592 45.7627 80.0921 45.6123 79.7412 45.3115C79.3948 45.0062 79.1875 44.5664 79.1191 43.9922H79.9599C80.0237 44.3021 80.1491 44.5345 80.3359 44.6895C80.5273 44.8398 80.7825 44.915 81.1015 44.915C81.4707 44.915 81.7487 44.8421 81.9355 44.6963C82.1269 44.5459 82.2545 44.3112 82.3183 43.9922ZM90.7435 51.3408L91.9534 51.498C91.8213 52.332 91.4818 52.986 90.9349 53.46C90.3926 53.9294 89.7249 54.1641 88.932 54.1641C87.9385 54.1641 87.1387 53.8405 86.5325 53.1934C85.931 52.5417 85.6302 51.6097 85.6302 50.3975C85.6302 49.6136 85.7601 48.9277 86.0198 48.3398C86.2796 47.752 86.6738 47.3122 87.2025 47.0205C87.7357 46.7243 88.3144 46.5762 88.9388 46.5762C89.7272 46.5762 90.3721 46.7767 90.8734 47.1777C91.3747 47.5742 91.696 48.1393 91.8372 48.873L90.6409 49.0576C90.527 48.57 90.3242 48.2031 90.0325 47.957C89.7454 47.7109 89.3968 47.5879 88.9866 47.5879C88.3668 47.5879 87.8633 47.8112 87.4759 48.2578C87.0885 48.6999 86.8948 49.4017 86.8948 50.3633C86.8948 51.3385 87.0817 52.0472 87.4554 52.4893C87.8291 52.9313 88.3167 53.1523 88.9183 53.1523C89.4014 53.1523 89.8047 53.0042 90.1282 52.708C90.4518 52.4118 90.6569 51.9561 90.7435 51.3408ZM93.1393 46.7402H94.3698V49.8779C94.7617 49.8779 95.0352 49.8027 95.1901 49.6523C95.3496 49.502 95.582 49.0645 95.8874 48.3398C96.1289 47.7656 96.3249 47.3874 96.4753 47.2051C96.6257 47.0228 96.7988 46.8997 96.9948 46.8359C97.1908 46.7721 97.5052 46.7402 97.9382 46.7402H98.1843V47.7588L97.8425 47.752C97.5189 47.752 97.3115 47.7998 97.2204 47.8955C97.1247 47.9958 96.9789 48.2943 96.7829 48.791C96.596 49.265 96.4251 49.5931 96.2702 49.7754C96.1152 49.9577 95.876 50.124 95.5524 50.2744C96.0811 50.4157 96.6006 50.9079 97.111 51.751L98.4577 54H97.1042L95.7917 51.751C95.5228 51.2998 95.2881 51.0036 95.0876 50.8623C94.8871 50.7165 94.6478 50.6436 94.3698 50.6436V54H93.1393V46.7402ZM104.463 53.1045C104.007 53.4919 103.567 53.7653 103.144 53.9248C102.724 54.0843 102.273 54.1641 101.79 54.1641C100.993 54.1641 100.38 53.9704 99.9512 53.583C99.5228 53.1911 99.3086 52.6921 99.3086 52.0859C99.3086 51.7305 99.3884 51.4069 99.5479 51.1152C99.712 50.819 99.9239 50.582 100.184 50.4043C100.448 50.2266 100.744 50.0921 101.072 50.001C101.314 49.9372 101.678 49.8757 102.166 49.8164C103.16 49.6979 103.891 49.5566 104.36 49.3926C104.365 49.224 104.367 49.1169 104.367 49.0713C104.367 48.57 104.251 48.2168 104.019 48.0117C103.704 47.7337 103.237 47.5947 102.617 47.5947C102.038 47.5947 101.61 47.6973 101.332 47.9023C101.059 48.1029 100.856 48.4606 100.724 48.9756L99.5205 48.8115C99.6299 48.2965 99.8099 47.8818 100.061 47.5674C100.311 47.2484 100.674 47.0046 101.147 46.8359C101.621 46.6628 102.171 46.5762 102.795 46.5762C103.415 46.5762 103.918 46.6491 104.306 46.7949C104.693 46.9408 104.978 47.1253 105.16 47.3486C105.342 47.5674 105.47 47.8454 105.543 48.1826C105.584 48.3923 105.605 48.7705 105.605 49.3174V50.958C105.605 52.1019 105.63 52.8265 105.68 53.1318C105.734 53.4326 105.839 53.722 105.994 54H104.709C104.581 53.7448 104.499 53.4463 104.463 53.1045ZM104.36 50.3564C103.914 50.5387 103.244 50.6937 102.351 50.8213C101.845 50.8942 101.487 50.9762 101.277 51.0674C101.068 51.1585 100.906 51.293 100.792 51.4707C100.678 51.6439 100.621 51.8376 100.621 52.0518C100.621 52.3799 100.744 52.6533 100.99 52.8721C101.241 53.0908 101.606 53.2002 102.084 53.2002C102.558 53.2002 102.98 53.0977 103.349 52.8926C103.718 52.6829 103.989 52.3981 104.162 52.0381C104.294 51.7601 104.36 51.3499 104.36 50.8076V50.3564ZM113.373 46.7402V54H112.15V51.1699H111.439C111.006 51.1699 110.682 51.2269 110.468 51.3408C110.259 51.4502 109.951 51.8079 109.545 52.4141L108.472 54H106.948L108.274 52.0449C108.679 51.4479 109.083 51.1107 109.484 51.0332C108.782 50.9375 108.26 50.6846 107.918 50.2744C107.581 49.8643 107.412 49.3926 107.412 48.8594C107.412 48.2305 107.634 47.7201 108.076 47.3281C108.522 46.9362 109.167 46.7402 110.01 46.7402H113.373ZM112.15 47.7588H110.4C109.666 47.7588 109.192 47.8727 108.978 48.1006C108.768 48.3285 108.663 48.5951 108.663 48.9004C108.663 49.3333 108.818 49.6523 109.128 49.8574C109.443 50.0579 109.996 50.1582 110.789 50.1582H112.15V47.7588ZM124.16 51.3408L125.37 51.498C125.238 52.332 124.899 52.986 124.352 53.46C123.809 53.9294 123.142 54.1641 122.349 54.1641C121.355 54.1641 120.555 53.8405 119.949 53.1934C119.348 52.5417 119.047 51.6097 119.047 50.3975C119.047 49.6136 119.177 48.9277 119.437 48.3398C119.696 47.752 120.091 47.3122 120.619 47.0205C121.152 46.7243 121.731 46.5762 122.356 46.5762C123.144 46.5762 123.789 46.7767 124.29 47.1777C124.791 47.5742 125.113 48.1393 125.254 48.873L124.058 49.0576C123.944 48.57 123.741 48.2031 123.449 47.957C123.162 47.7109 122.814 47.5879 122.403 47.5879C121.784 47.5879 121.28 47.8112 120.893 48.2578C120.505 48.6999 120.312 49.4017 120.312 50.3633C120.312 51.3385 120.498 52.0472 120.872 52.4893C121.246 52.9313 121.734 53.1523 122.335 53.1523C122.818 53.1523 123.221 53.0042 123.545 52.708C123.869 52.4118 124.074 51.9561 124.16 51.3408ZM126.563 46.7402H127.793V52.2773L131.205 46.7402H132.531V54H131.3V48.4971L127.889 54H126.563V46.7402ZM139.261 51.3408L140.471 51.498C140.338 52.332 139.999 52.986 139.452 53.46C138.91 53.9294 138.242 54.1641 137.449 54.1641C136.456 54.1641 135.656 53.8405 135.05 53.1934C134.448 52.5417 134.147 51.6097 134.147 50.3975C134.147 49.6136 134.277 48.9277 134.537 48.3398C134.797 47.752 135.191 47.3122 135.72 47.0205C136.253 46.7243 136.832 46.5762 137.456 46.5762C138.244 46.5762 138.889 46.7767 139.39 47.1777C139.892 47.5742 140.213 48.1393 140.354 48.873L139.158 49.0576C139.044 48.57 138.841 48.2031 138.55 47.957C138.263 47.7109 137.914 47.5879 137.504 47.5879C136.884 47.5879 136.38 47.8112 135.993 48.2578C135.606 48.6999 135.412 49.4017 135.412 50.3633C135.412 51.3385 135.599 52.0472 135.973 52.4893C136.346 52.9313 136.834 53.1523 137.435 53.1523C137.918 53.1523 138.322 53.0042 138.645 52.708C138.969 52.4118 139.174 51.9561 139.261 51.3408ZM141 46.7402H146.9V47.7588H144.562V54H143.338V47.7588H141V46.7402ZM153.021 51.6621L154.293 51.8193C154.092 52.5622 153.721 53.1387 153.178 53.5488C152.636 53.959 151.943 54.1641 151.1 54.1641C150.038 54.1641 149.195 53.8382 148.571 53.1865C147.951 52.5303 147.641 51.612 147.641 50.4316C147.641 49.2103 147.956 48.2624 148.585 47.5879C149.213 46.9134 150.029 46.5762 151.032 46.5762C152.003 46.5762 152.795 46.9066 153.411 47.5674C154.026 48.2282 154.334 49.1579 154.334 50.3564C154.334 50.4294 154.331 50.5387 154.327 50.6846H148.913C148.958 51.4821 149.184 52.0928 149.589 52.5166C149.995 52.9404 150.501 53.1523 151.107 53.1523C151.558 53.1523 151.943 53.0339 152.262 52.7969C152.581 52.5599 152.834 52.1816 153.021 51.6621ZM148.981 49.6729H153.035C152.98 49.0622 152.825 48.6042 152.57 48.2988C152.178 47.8249 151.67 47.5879 151.045 47.5879C150.48 47.5879 150.004 47.777 149.617 48.1553C149.234 48.5335 149.022 49.0394 148.981 49.6729ZM156.018 46.7402H157.933L159.84 52.5508L161.959 46.7402H163.729V54H162.499V48.1553L160.352 54H159.252L157.222 47.875V54H156.018V46.7402ZM170.487 53.1045C170.031 53.4919 169.591 53.7653 169.167 53.9248C168.748 54.0843 168.297 54.1641 167.814 54.1641C167.016 54.1641 166.403 53.9704 165.975 53.583C165.546 53.1911 165.332 52.6921 165.332 52.0859C165.332 51.7305 165.412 51.4069 165.572 51.1152C165.736 50.819 165.948 50.582 166.207 50.4043C166.472 50.2266 166.768 50.0921 167.096 50.001C167.338 49.9372 167.702 49.8757 168.19 49.8164C169.183 49.6979 169.915 49.5566 170.384 49.3926C170.389 49.224 170.391 49.1169 170.391 49.0713C170.391 48.57 170.275 48.2168 170.042 48.0117C169.728 47.7337 169.261 47.5947 168.641 47.5947C168.062 47.5947 167.634 47.6973 167.356 47.9023C167.082 48.1029 166.88 48.4606 166.747 48.9756L165.544 48.8115C165.654 48.2965 165.834 47.8818 166.084 47.5674C166.335 47.2484 166.697 47.0046 167.171 46.8359C167.645 46.6628 168.194 46.5762 168.819 46.5762C169.438 46.5762 169.942 46.6491 170.329 46.7949C170.717 46.9408 171.002 47.1253 171.184 47.3486C171.366 47.5674 171.494 47.8454 171.567 48.1826C171.608 48.3923 171.628 48.7705 171.628 49.3174V50.958C171.628 52.1019 171.653 52.8265 171.703 53.1318C171.758 53.4326 171.863 53.722 172.018 54H170.733C170.605 53.7448 170.523 53.4463 170.487 53.1045ZM170.384 50.3564C169.937 50.5387 169.268 50.6937 168.374 50.8213C167.868 50.8942 167.511 50.9762 167.301 51.0674C167.091 51.1585 166.93 51.293 166.816 51.4707C166.702 51.6439 166.645 51.8376 166.645 52.0518C166.645 52.3799 166.768 52.6533 167.014 52.8721C167.265 53.0908 167.629 53.2002 168.108 53.2002C168.582 53.2002 169.003 53.0977 169.372 52.8926C169.741 52.6829 170.013 52.3981 170.186 52.0381C170.318 51.7601 170.384 51.3499 170.384 50.8076V50.3564ZM16.1886 64.2373V65.4199H19.9141C19.864 66.5456 19.5518 67.4342 18.9776 68.0859C18.4034 68.7331 17.6674 69.0566 16.7696 69.0566C15.1746 69.0566 14.1742 68.209 13.7686 66.5137L12.4903 66.8486C13.0691 69.0635 14.4636 70.1709 16.6739 70.1709C18.2553 70.1709 19.4311 69.6628 20.2012 68.6465C20.976 67.6257 21.3383 66.3701 21.2882 64.8799C21.2882 63.9684 21.115 63.1367 20.7686 62.3848C20.4268 61.6328 19.9005 61.0153 19.1895 60.5322C18.4786 60.0492 17.6309 59.8076 16.6466 59.8076C15.6075 59.8076 14.7371 60.0651 14.0352 60.5801C13.338 61.0951 12.8663 61.8105 12.6202 62.7266L13.919 63.0684C14.2973 61.6693 15.2087 60.9697 16.6534 60.9697C17.6287 60.9697 18.392 61.2637 18.9434 61.8516C19.4994 62.4395 19.8048 63.2347 19.8595 64.2373H16.1886ZM23.2465 62.7402H28.9614V70H27.7377V63.7588H24.477V67.375C24.477 68.2181 24.4496 68.7741 24.395 69.043C24.3403 69.3118 24.1899 69.5465 23.9438 69.7471C23.6977 69.9476 23.3422 70.0479 22.8774 70.0479C22.5903 70.0479 22.2599 70.0296 21.8862 69.9932V68.9678H22.4262C22.6814 68.9678 22.8637 68.9427 22.9731 68.8926C23.0825 68.8379 23.1554 68.7536 23.1918 68.6396C23.2283 68.5257 23.2465 68.1543 23.2465 67.5254V62.7402ZM35.9305 67.6621L37.202 67.8193C37.0014 68.5622 36.63 69.1387 36.0877 69.5488C35.5454 69.959 34.8527 70.1641 34.0096 70.1641C32.9477 70.1641 32.1046 69.8382 31.4803 69.1865C30.8605 68.5303 30.5506 67.612 30.5506 66.4316C30.5506 65.2103 30.865 64.2624 31.4939 63.5879C32.1229 62.9134 32.9386 62.5762 33.9412 62.5762C34.9119 62.5762 35.7049 62.9066 36.3201 63.5674C36.9354 64.2282 37.243 65.1579 37.243 66.3564C37.243 66.4294 37.2407 66.5387 37.2361 66.6846H31.8221C31.8676 67.4821 32.0932 68.0928 32.4988 68.5166C32.9044 68.9404 33.4103 69.1523 34.0164 69.1523C34.4676 69.1523 34.8527 69.0339 35.1717 68.7969C35.4907 68.5599 35.7436 68.1816 35.9305 67.6621ZM31.8904 65.6729H35.9441C35.8895 65.0622 35.7345 64.6042 35.4793 64.2988C35.0874 63.8249 34.5792 63.5879 33.9549 63.5879C33.3898 63.5879 32.9135 63.777 32.5262 64.1553C32.1434 64.5335 31.9314 65.0394 31.8904 65.6729ZM38.8869 62.7402H40.1173V65.8779C40.5093 65.8779 40.7827 65.8027 40.9377 65.6523C41.0972 65.502 41.3296 65.0645 41.6349 64.3398C41.8765 63.7656 42.0724 63.3874 42.2228 63.2051C42.3732 63.0228 42.5464 62.8997 42.7423 62.8359C42.9383 62.7721 43.2528 62.7402 43.6857 62.7402H43.9318V63.7588L43.59 63.752C43.2664 63.752 43.0591 63.7998 42.9679 63.8955C42.8722 63.9958 42.7264 64.2943 42.5304 64.791C42.3436 65.265 42.1727 65.5931 42.0177 65.7754C41.8628 65.9577 41.6235 66.124 41.3 66.2744C41.8286 66.4157 42.3481 66.9079 42.8586 67.751L44.2052 70H42.8517L41.5392 67.751C41.2703 67.2998 41.0356 67.0036 40.8351 66.8623C40.6346 66.7165 40.3953 66.6436 40.1173 66.6436V70H38.8869V62.7402ZM44.6597 62.7402H50.5591V63.7588H48.2212V70H46.9976V63.7588H44.6597V62.7402ZM51.8749 72.7822V62.7402H52.996V63.6836C53.2603 63.3145 53.5588 63.0387 53.8915 62.8564C54.2242 62.6696 54.6275 62.5762 55.1014 62.5762C55.7212 62.5762 56.2681 62.7357 56.7421 63.0547C57.216 63.3737 57.5738 63.8249 57.8153 64.4082C58.0568 64.987 58.1776 65.6227 58.1776 66.3154C58.1776 67.0583 58.0432 67.7282 57.7743 68.3252C57.51 68.9176 57.1226 69.3734 56.6122 69.6924C56.1063 70.0068 55.5731 70.1641 55.0126 70.1641C54.6024 70.1641 54.2333 70.0775 53.9052 69.9043C53.5816 69.7311 53.315 69.5124 53.1054 69.248V72.7822H51.8749ZM52.9891 66.4111C52.9891 67.3454 53.1783 68.0358 53.5565 68.4824C53.9348 68.929 54.3928 69.1523 54.9305 69.1523C55.4774 69.1523 55.9445 68.9222 56.3319 68.4619C56.7238 67.9971 56.9198 67.2793 56.9198 66.3086C56.9198 65.3835 56.7284 64.6908 56.3456 64.2305C55.9673 63.7702 55.5139 63.54 54.9852 63.54C54.4611 63.54 53.9963 63.7861 53.5907 64.2783C53.1897 64.766 52.9891 65.4769 52.9891 66.4111ZM59.3498 66.3701C59.3498 65.0257 59.7235 64.0299 60.4709 63.3828C61.0953 62.8451 61.8564 62.5762 62.7541 62.5762C63.7522 62.5762 64.5679 62.9043 65.2014 63.5605C65.8349 64.2122 66.1516 65.1146 66.1516 66.2676C66.1516 67.2018 66.0103 67.9378 65.7278 68.4756C65.4498 69.0088 65.0419 69.4235 64.5041 69.7197C63.9709 70.016 63.3876 70.1641 62.7541 70.1641C61.7379 70.1641 60.9153 69.8382 60.2864 69.1865C59.662 68.5348 59.3498 67.596 59.3498 66.3701ZM60.6145 66.3701C60.6145 67.2998 60.8173 67.9971 61.2229 68.4619C61.6285 68.9222 62.1389 69.1523 62.7541 69.1523C63.3648 69.1523 63.873 68.9199 64.2786 68.4551C64.6842 67.9902 64.887 67.2816 64.887 66.3291C64.887 65.4313 64.6819 64.7523 64.2717 64.292C63.8661 63.8271 63.3603 63.5947 62.7541 63.5947C62.1389 63.5947 61.6285 63.8249 61.2229 64.2852C60.8173 64.7454 60.6145 65.4404 60.6145 66.3701ZM67.7477 62.7402H68.9781V65.7617H72.3893V62.7402H73.6197V70H72.3893V66.7803H68.9781V70H67.7477V62.7402ZM75.6259 62.7402H76.8564V65.7617H80.2675V62.7402H81.498V70H80.2675V66.7803H76.8564V70H75.6259V62.7402ZM83.0394 66.3701C83.0394 65.0257 83.4131 64.0299 84.1605 63.3828C84.7848 62.8451 85.5459 62.5762 86.4437 62.5762C87.4417 62.5762 88.2575 62.9043 88.8909 63.5605C89.5244 64.2122 89.8411 65.1146 89.8411 66.2676C89.8411 67.2018 89.6999 67.9378 89.4173 68.4756C89.1393 69.0088 88.7314 69.4235 88.1937 69.7197C87.6605 70.016 87.0771 70.1641 86.4437 70.1641C85.4274 70.1641 84.6048 69.8382 83.9759 69.1865C83.3515 68.5348 83.0394 67.596 83.0394 66.3701ZM84.304 66.3701C84.304 67.2998 84.5068 67.9971 84.9124 68.4619C85.318 68.9222 85.8284 69.1523 86.4437 69.1523C87.0543 69.1523 87.5625 68.9199 87.9681 68.4551C88.3737 67.9902 88.5765 67.2816 88.5765 66.3291C88.5765 65.4313 88.3714 64.7523 87.9613 64.292C87.5557 63.8271 87.0498 63.5947 86.4437 63.5947C85.8284 63.5947 85.318 63.8249 84.9124 64.2852C84.5068 64.7454 84.304 65.4404 84.304 66.3701ZM91.4304 62.7402H92.6608V68.2773L96.072 62.7402H97.3981V70H96.1677V64.4971L92.7565 70H91.4304V62.7402ZM95.7028 59.9922H96.5436C96.4753 60.5618 96.2656 60.9993 95.9147 61.3047C95.5684 61.61 95.1058 61.7627 94.527 61.7627C93.9437 61.7627 93.4766 61.6123 93.1257 61.3115C92.7793 61.0062 92.572 60.5664 92.5036 59.9922H93.3444C93.4082 60.3021 93.5335 60.5345 93.7204 60.6895C93.9118 60.8398 94.167 60.915 94.486 60.915C94.8552 60.915 95.1332 60.8421 95.32 60.6963C95.5114 60.5459 95.639 60.3112 95.7028 59.9922ZM102.764 62.7402H108.663V63.7588H106.326V70H105.102V63.7588H102.764V62.7402ZM109.357 66.3701C109.357 65.0257 109.731 64.0299 110.478 63.3828C111.103 62.8451 111.864 62.5762 112.761 62.5762C113.76 62.5762 114.575 62.9043 115.209 63.5605C115.842 64.2122 116.159 65.1146 116.159 66.2676C116.159 67.2018 116.018 67.9378 115.735 68.4756C115.457 69.0088 115.049 69.4235 114.511 69.7197C113.978 70.016 113.395 70.1641 112.761 70.1641C111.745 70.1641 110.923 69.8382 110.294 69.1865C109.669 68.5348 109.357 67.596 109.357 66.3701ZM110.622 66.3701C110.622 67.2998 110.825 67.9971 111.23 68.4619C111.636 68.9222 112.146 69.1523 112.761 69.1523C113.372 69.1523 113.88 68.9199 114.286 68.4551C114.691 67.9902 114.894 67.2816 114.894 66.3291C114.894 65.4313 114.689 64.7523 114.279 64.292C113.873 63.8271 113.368 63.5947 112.761 63.5947C112.146 63.5947 111.636 63.8249 111.23 64.2852C110.825 64.7454 110.622 65.4404 110.622 66.3701ZM117.748 72.7822V62.7402H118.869V63.6836C119.134 63.3145 119.432 63.0387 119.765 62.8564C120.097 62.6696 120.501 62.5762 120.975 62.5762C121.595 62.5762 122.141 62.7357 122.615 63.0547C123.089 63.3737 123.447 63.8249 123.689 64.4082C123.93 64.987 124.051 65.6227 124.051 66.3154C124.051 67.0583 123.916 67.7282 123.648 68.3252C123.383 68.9176 122.996 69.3734 122.485 69.6924C121.98 70.0068 121.446 70.1641 120.886 70.1641C120.476 70.1641 120.107 70.0775 119.778 69.9043C119.455 69.7311 119.188 69.5124 118.979 69.248V72.7822H117.748ZM118.862 66.4111C118.862 67.3454 119.052 68.0358 119.43 68.4824C119.808 68.929 120.266 69.1523 120.804 69.1523C121.351 69.1523 121.818 68.9222 122.205 68.4619C122.597 67.9971 122.793 67.2793 122.793 66.3086C122.793 65.3835 122.602 64.6908 122.219 64.2305C121.841 63.7702 121.387 63.54 120.859 63.54C120.334 63.54 119.87 63.7861 119.464 64.2783C119.063 64.766 118.862 65.4769 118.862 66.4111ZM125.688 62.7402H129.865V63.7588H126.918V70H125.688V62.7402ZM130.162 66.3701C130.162 65.0257 130.536 64.0299 131.283 63.3828C131.907 62.8451 132.668 62.5762 133.566 62.5762C134.564 62.5762 135.38 62.9043 136.014 63.5605C136.647 64.2122 136.964 65.1146 136.964 66.2676C136.964 67.2018 136.822 67.9378 136.54 68.4756C136.262 69.0088 135.854 69.4235 135.316 69.7197C134.783 70.016 134.2 70.1641 133.566 70.1641C132.55 70.1641 131.727 69.8382 131.098 69.1865C130.474 68.5348 130.162 67.596 130.162 66.3701ZM131.427 66.3701C131.427 67.2998 131.629 67.9971 132.035 68.4619C132.441 68.9222 132.951 69.1523 133.566 69.1523C134.177 69.1523 134.685 68.9199 135.091 68.4551C135.496 67.9902 135.699 67.2816 135.699 66.3291C135.699 65.4313 135.494 64.7523 135.084 64.292C134.678 63.8271 134.172 63.5947 133.566 63.5947C132.951 63.5947 132.441 63.8249 132.035 64.2852C131.629 64.7454 131.427 65.4404 131.427 66.3701ZM138.56 62.7402H141.397C142.094 62.7402 142.611 62.7995 142.948 62.918C143.29 63.0319 143.582 63.2438 143.823 63.5537C144.07 63.8636 144.193 64.235 144.193 64.668C144.193 65.0143 144.12 65.3174 143.974 65.5771C143.833 65.8324 143.618 66.0465 143.331 66.2197C143.673 66.3337 143.956 66.5479 144.179 66.8623C144.407 67.1722 144.521 67.5413 144.521 67.9697C144.475 68.6579 144.229 69.1683 143.782 69.501C143.336 69.8337 142.686 70 141.834 70H138.56V62.7402ZM139.79 65.7959H141.103C141.627 65.7959 141.987 65.7686 142.183 65.7139C142.379 65.6592 142.554 65.5498 142.709 65.3857C142.864 65.2171 142.942 65.0166 142.942 64.7842C142.942 64.4014 142.805 64.1348 142.531 63.9844C142.263 63.834 141.8 63.7588 141.144 63.7588H139.79V65.7959ZM139.79 68.9883H141.41C142.108 68.9883 142.586 68.9085 142.846 68.749C143.106 68.585 143.242 68.3047 143.256 67.9082C143.256 67.6758 143.181 67.4616 143.03 67.2656C142.88 67.0651 142.684 66.9398 142.443 66.8896C142.201 66.835 141.814 66.8076 141.28 66.8076H139.79V68.9883ZM146.404 62.7402H152.119V70H150.895V63.7588H147.634V67.375C147.634 68.2181 147.607 68.7741 147.552 69.043C147.498 69.3118 147.347 69.5465 147.101 69.7471C146.855 69.9476 146.5 70.0479 146.035 70.0479C145.748 70.0479 145.417 70.0296 145.044 69.9932V68.9678H145.584C145.839 68.9678 146.021 68.9427 146.13 68.8926C146.24 68.8379 146.313 68.7536 146.349 68.6396C146.386 68.5257 146.404 68.1543 146.404 67.5254V62.7402ZM154.118 62.7402H155.349V68.2773L158.76 62.7402H160.086V70H158.855V64.4971L155.444 70H154.118V62.7402Z" fill="#979696"/>
</svg>
