<svg width="216" height="59" viewBox="0 0 216 59" fill="none" xmlns="http://www.w3.org/2000/svg">
<path fill-rule="evenodd" clip-rule="evenodd" d="M44.8367 25.9029C46.0834 23.9848 44.6671 22.7437 43.987 21.7282C44.2699 20.8825 45.0071 18.7387 42.1735 16.8766C42.6269 14.9585 40.3029 12.9275 38.1493 11.9689C38.0931 10.5581 33.8423 6.89162 26.532 6.89162C19.2209 6.89162 15.0843 9.88205 15.0843 9.88205C16.3873 9.31791 21.3744 7.90709 25.9653 7.90709C32.9926 8.01992 35.4862 10.8966 35.4862 10.8966C35.4862 10.8966 30.782 9.4867 23.9251 9.82519C17.8045 10.0508 11.1172 13.5486 11.1172 13.5486C11.1172 13.5486 10.38 14.1687 10.5505 14.62C11.5706 14.2255 16.0472 12.0249 23.1879 11.1223C30.3286 10.2196 35.7691 12.5891 35.7691 12.5891C35.7691 12.5891 35.0328 13.7174 34.3528 14.0558C30.4419 13.0972 25.0586 13.0404 19.3342 13.887C13.6108 14.7328 8.05694 18.9075 8.05694 18.9075C8.05694 18.9075 7.31975 19.6973 7.88647 20.0358C9.41707 19.1332 13.7804 16.1996 20.8648 15.0713C27.9484 13.943 31.7459 14.7897 32.5955 15.3538C31.7459 15.8611 24.7747 16.8206 19.2209 18.0617C13.667 19.3029 9.92666 21.3897 8.2265 22.9134C6.52634 24.4361 6.35677 26.9753 7.54643 28.7237C7.43309 29.2878 6.29965 31.2628 9.30372 32.7855C9.2466 33.8579 7.77312 35.8888 12.4202 38.0325C12.8174 40.6276 17.294 43.8997 24.4347 44.8023C31.6325 45.7609 35.3157 42.6017 35.3157 42.6017C35.3157 42.6017 31.1791 44.1253 25.1719 43.674C19.618 43.674 14.9709 39.2737 14.9709 39.2737C14.9709 39.2737 17.8045 41.3046 26.3616 42.0944C34.9757 42.4329 39.5095 39.6122 39.5095 39.6122L39.8495 39.048C38.2065 39.6122 32.6526 40.8533 26.5882 40.7964C20.5248 40.7404 14.5738 37.1859 14.5738 37.1859L14.6871 36.4529C14.6871 36.4529 14.5176 35.9447 15.0843 36.1144C15.651 36.2832 20.4677 39.1608 29.0818 38.9911C37.696 38.8223 42.1164 36.0576 42.1164 36.0576C42.1164 36.0576 42.6831 35.2678 42.4002 35.2678C38.8294 36.6217 33.5022 37.8069 28.1751 37.8069C22.8479 37.8069 16.8978 35.099 16.8978 35.099L19.1647 34.1963C19.1647 34.1963 23.0746 35.8319 31.2354 35.6063C39.3961 35.3806 44.3271 31.3756 44.3271 31.3756C44.3271 31.3756 44.4966 31.2628 44.4404 30.9243C40.6429 32.7855 35.2595 34.1395 31.2354 34.422C27.2121 34.7036 22.8479 33.4065 22.8479 33.4065C22.8479 33.4065 27.0416 32.8424 33.8423 31.4316C41.0963 30.3601 44.8367 25.9029 44.8367 25.9029ZM41.4363 18.4562C42.7112 18.8515 42.1735 20.2903 42.1735 20.2903C42.1735 20.2903 40.4162 19.3588 40.6429 19.3588C40.8696 19.0772 41.4363 18.4562 41.4363 18.4562ZM37.0159 14.7328C37.3559 14.6769 37.9227 13.5486 37.9227 13.5486C39.0561 14.2815 39.4533 14.8456 39.5666 15.4667C39.1694 15.241 36.6759 14.7897 37.0159 14.7328ZM35.5996 15.8611C35.5996 15.8611 38.5465 16.7078 39.1132 17.1022C38.8865 17.892 37.7531 18.4562 37.7531 18.4562C37.7531 18.4562 35.1462 17.3848 33.6156 17.2151C34.9195 16.6509 35.5996 15.8611 35.5996 15.8611ZM9.28468 26.7117L8.75604 26.6368C8.75604 26.6368 8.26458 25.6962 8.98273 24.9443C9.69997 24.1924 11.7402 22.1245 18.8056 20.4691C25.871 18.8136 31.0467 18.1367 34.9385 19.3029C35.2405 19.4906 34.7871 19.5664 34.7871 19.5664C34.7871 19.5664 25.0776 21.5585 22.0545 22.0857C19.0323 22.6128 11.3249 24.3044 9.28468 26.7117ZM10.2386 31.6013C9.58663 31.4036 9.41707 29.9088 9.41707 29.9088C9.89855 30.3881 10.8053 30.8115 10.8053 30.8115C10.8053 30.8115 10.4934 31.0091 10.2386 31.6013ZM16.312 25.772C19.2961 24.7945 29.9133 23.1011 32.2935 22.537C34.5604 22.0487 38.6027 20.6189 38.6027 20.6189C38.6027 20.6189 40.9077 21.5594 40.8324 21.7102C40.7563 21.8609 38.8675 22.8385 36.1092 23.7032C33.3517 24.5679 21.2611 26.8245 18.617 27.3137C15.972 27.803 12.5717 29.5703 12.5717 29.5703L10.9468 28.3671C11.8916 27.089 16.312 25.772 16.312 25.772ZM12.3069 36.1424L11.3149 34.7885L11.2868 34.3371C11.372 34.8164 12.8736 35.127 12.8736 35.127L12.3069 36.1424ZM14.1775 33.9707C14.1775 33.9707 12.4774 33.2368 12.2788 32.7016C12.6188 32.2782 13.0722 31.9398 13.0722 31.9398C14.1204 32.6727 15.0553 32.8983 15.9058 33.096C15.4243 33.2937 14.1775 33.9707 14.1775 33.9707ZM18.4275 32.1654L15.5939 30.8115C16.0472 30.6607 18.957 29.5712 21.904 29.0441C28.3646 28.0656 33.7788 27.0574 36.7892 26.1105C40.3791 24.9822 42.4945 23.2519 42.4945 23.2519C42.4945 23.2519 42.5326 23.4775 42.5698 25.1321C39.3209 28.7426 26.853 30.473 24.3975 30.9243C21.9411 31.3756 18.4275 32.1654 18.4275 32.1654Z" fill="#979696"/>
<path fill-rule="evenodd" clip-rule="evenodd" d="M26.0546 0.000141144C11.6645 0.00194931 0 11.6134 0 25.9383C0 40.2622 11.6645 51.8737 26.0546 51.8755C40.4448 51.8737 52.1093 40.2622 52.1093 25.9383C52.1093 11.6134 40.4448 0.00194931 26.0546 0.000141144ZM26.0546 50.7914C12.2656 50.7661 1.11349 39.6637 1.08629 25.9383C1.11349 12.2119 12.2656 1.10857 26.0546 1.08421C39.8436 1.10857 50.9976 12.2119 51.0221 25.9383C50.9976 39.6637 39.8436 50.7661 26.0546 50.7914Z" fill="#979696"/>
<path d="M72.5852 18.7314C70.9394 18.8858 69.7416 18.2485 67.5581 16.5227L65.7845 20.1612C67.5318 22.1606 69.9347 23.3954 72.5852 23.3954C78.3784 23.3827 82.3355 19.4463 82.2639 12.1928C82.2639 6.0088 77.9278 0.987442 72.5852 0.987442C69.9057 0.987442 67.4802 2.25113 65.7256 4.29018L68.1856 8.09118C69.2211 6.60634 70.807 5.65316 72.5852 5.65316C73.8782 5.65316 75.0715 6.15683 76.0236 7.00351C76.8904 7.77616 77.109 8.83044 77.1561 10.0499H70V14.4033H77.293C77.3302 15.2238 77.1117 15.9667 76.613 16.5985C75.5811 17.9091 74.2373 18.7314 72.5852 18.7314ZM86.9617 23.4242H92.346V6.3166H97.2362V0.987442H82.0716V6.3166H86.9617V23.4242ZM85.588 33.3478C85.3459 33.3478 85.141 33.4561 84.975 33.6701C84.8055 33.8885 84.723 34.1927 84.7266 34.5826H86.444C86.434 34.1728 86.3461 33.865 86.1801 33.6583C86.0142 33.4516 85.8174 33.3478 85.588 33.3478ZM158.709 19.051V13.9294H160.314C161.447 13.9294 162.071 14.573 162.071 16.4397C162.071 18.3072 161.22 18.9706 160.484 19.0302C159.806 19.0862 158.709 19.051 158.709 19.051ZM167.152 16.2456C167.152 9.81431 161.372 9.25016 159.842 9.25016H158.709V6.09094H165.849V0.987442H153.664V23.4242H160.465C161.542 23.4242 167.152 22.6769 167.152 16.2456ZM98.8747 33.383C98.5954 33.383 98.3633 33.513 98.1774 33.7721C97.9915 34.032 97.8981 34.4229 97.8981 34.9446C97.8981 35.5394 97.9951 35.9781 98.1901 36.2588C98.3841 36.5395 98.619 36.6803 98.8946 36.6803C99.1567 36.6803 99.377 36.5504 99.5565 36.2913C99.7361 36.0313 99.8258 35.6071 99.8258 35.0195C99.8258 34.4608 99.7334 34.0483 99.5493 33.782C99.3652 33.5157 99.1403 33.383 98.8747 33.383ZM105.266 6.3166H108.724V23.4242H114.107V0.987442H99.9392V23.4242H105.266V6.3166ZM129.239 6.42943H134.453V0.987442H123.741V23.4242H129.239V6.42943ZM141.99 6.3166H145.447V23.4242H150.831V0.987442H136.663V23.4242H141.99V6.3166ZM122.704 33.9733C122.704 34.4256 122.97 34.6521 123.501 34.6521H124.338V33.2891H123.421C122.944 33.2891 122.704 33.5166 122.704 33.9733ZM103.869 33.4173C103.581 33.4173 103.332 33.5545 103.125 33.8289C102.918 34.1033 102.814 34.505 102.814 35.0339C102.814 35.5665 102.918 35.9691 103.127 36.2417C103.337 36.5143 103.589 36.6506 103.884 36.6506C104.173 36.6506 104.42 36.5134 104.626 36.239C104.832 35.9646 104.935 35.5593 104.935 35.024C104.935 34.5023 104.83 34.1033 104.622 33.8289C104.412 33.5545 104.162 33.4173 103.869 33.4173ZM118.127 35.654C118.072 35.7122 118.029 35.7807 118.001 35.8556C117.972 35.9304 117.96 36.0101 117.963 36.09C117.957 36.2762 118.022 36.4577 118.145 36.5982C118.201 36.6641 118.27 36.7168 118.349 36.7524C118.428 36.788 118.514 36.8056 118.6 36.804C118.763 36.804 118.924 36.7489 119.083 36.6379C119.231 36.5419 119.346 36.4047 119.414 36.2435C119.476 36.0918 119.507 35.8156 119.507 35.4158V35.1377C119.284 35.2213 119.056 35.2909 118.824 35.3462C118.47 35.4392 118.237 35.5412 118.127 35.654ZM125.444 50.3074C125.165 50.3074 124.933 50.4374 124.747 50.6965C124.561 50.9564 124.468 51.3473 124.468 51.869C124.468 52.4638 124.565 52.9025 124.76 53.1832C124.954 53.4639 125.189 53.6048 125.464 53.6048C125.726 53.6048 125.947 53.4748 126.126 53.2157C126.306 52.9558 126.396 52.5315 126.396 51.9439C126.396 51.3852 126.303 50.9727 126.119 50.7064C125.935 50.4401 125.71 50.3074 125.444 50.3074ZM110.513 52.5785C110.458 52.6366 110.415 52.7051 110.387 52.78C110.358 52.8548 110.346 52.9345 110.349 53.0144C110.343 53.2006 110.408 53.3821 110.531 53.5226C110.587 53.5885 110.656 53.6412 110.735 53.6768C110.814 53.7124 110.9 53.73 110.986 53.7284C111.149 53.7284 111.31 53.6734 111.469 53.5623C111.617 53.4663 111.732 53.3291 111.8 53.1679C111.862 53.0162 111.893 52.74 111.893 52.3402V52.0621C111.67 52.1457 111.442 52.2153 111.21 52.2707C110.856 52.3636 110.623 52.4656 110.513 52.5785ZM141.754 50.4464C141.465 50.4464 141.223 50.5881 141.027 50.8725C140.831 51.1568 140.733 51.5332 140.733 52.0026C140.733 52.4756 140.828 52.8538 141.02 53.1381C141.21 53.4224 141.452 53.565 141.744 53.565C142.042 53.565 142.295 53.4188 142.499 53.1264C142.703 52.8339 142.805 52.4593 142.805 52.0026C142.805 51.5467 142.703 51.1731 142.499 50.8824C142.295 50.5918 142.046 50.4464 141.754 50.4464ZM130.439 50.3417C130.15 50.3417 129.902 50.4789 129.694 50.7533C129.488 51.0277 129.383 51.4294 129.383 51.9583C129.383 52.4909 129.488 52.8935 129.697 53.1661C129.906 53.4387 130.159 53.575 130.454 53.575C130.743 53.575 130.99 53.4378 131.196 53.1634C131.402 52.889 131.505 52.4837 131.505 51.9484C131.505 51.4267 131.4 51.0277 131.191 50.7533C130.982 50.4789 130.732 50.3417 130.439 50.3417ZM79.7113 50.3074C79.4321 50.3074 79.1999 50.4374 79.0141 50.6965C78.8282 50.9564 78.7348 51.3473 78.7348 51.869C78.7348 52.4638 78.8318 52.9025 79.0267 53.1832C79.2208 53.4639 79.4556 53.6048 79.7313 53.6048C79.9933 53.6048 80.2137 53.4748 80.3932 53.2157C80.5728 52.9558 80.6625 52.5315 80.6625 51.9439C80.6625 51.3852 80.57 50.9727 80.386 50.7064C80.2019 50.4401 79.977 50.3074 79.7113 50.3074ZM98.5056 52.5785C98.4505 52.6366 98.4076 52.7051 98.3794 52.78C98.3512 52.8548 98.3384 52.9345 98.3415 53.0144C98.3358 53.2006 98.4009 53.3821 98.5237 53.5226C98.5794 53.5885 98.6492 53.6412 98.7279 53.6768C98.8067 53.7124 98.8925 53.73 98.9789 53.7284C99.1422 53.7284 99.3027 53.6734 99.4622 53.5623C99.6093 53.4663 99.7245 53.3291 99.7932 53.1679C99.8549 53.0162 99.8857 52.74 99.8857 52.3402V52.0621C99.6627 52.1457 99.4346 52.2153 99.2029 52.2707C98.8484 52.3636 98.6153 52.4656 98.5056 52.5785ZM159.841 52.5785C159.786 52.6366 159.743 52.7051 159.715 52.78C159.687 52.8548 159.674 52.9345 159.677 53.0144C159.671 53.2006 159.736 53.3821 159.859 53.5226C159.915 53.5885 159.985 53.6412 160.063 53.6768C160.142 53.7124 160.228 53.73 160.314 53.7284C160.478 53.7284 160.638 53.6734 160.798 53.5623C160.945 53.4663 161.06 53.3291 161.129 53.1679C161.19 53.0162 161.221 52.74 161.221 52.3402V52.0621C160.998 52.1457 160.77 52.2153 160.538 52.2707C160.184 52.3636 159.951 52.4656 159.841 52.5785Z" fill="#979696"/>
<path d="M161.459 54.5915L161.31 54.0166C161.137 54.2294 160.922 54.4063 160.68 54.5374C160.46 54.652 160.215 54.7115 159.966 54.7107C159.544 54.7107 159.199 54.569 158.929 54.2864C158.661 54.0039 158.526 53.6275 158.526 53.1581C158.526 52.8612 158.581 52.6012 158.691 52.3801C158.801 52.1589 158.955 51.982 159.154 51.8493C159.353 51.7175 159.672 51.6002 160.11 51.4973C160.641 51.3754 161.011 51.2608 161.221 51.1552C161.221 50.8645 161.2 50.6732 161.158 50.5829C161.109 50.4847 161.029 50.4061 160.929 50.36C160.818 50.3013 160.661 50.2724 160.458 50.2724C160.252 50.2724 160.091 50.3194 159.973 50.4114C159.855 50.5044 159.76 50.6777 159.687 50.9322L158.646 50.7039C158.772 50.1722 158.98 49.7895 159.271 49.5566C159.561 49.3237 159.978 49.2064 160.523 49.2064C161.008 49.2064 161.378 49.275 161.634 49.4104C161.89 49.5458 162.072 49.7299 162.182 49.9628C162.292 50.1957 162.346 50.6199 162.346 51.2346L162.336 52.8612C162.336 53.317 162.354 53.6573 162.39 53.8803C162.433 54.1239 162.502 54.3623 162.595 54.5915H161.459ZM157.003 54.5915L156.42 53.0697C156.304 52.7619 156.205 52.5642 156.121 52.4767C156.039 52.3891 155.914 52.3458 155.748 52.3458V54.5915H154.598V49.331H155.748V51.4729C155.882 51.4661 156.009 51.4117 156.107 51.3195C156.189 51.2328 156.293 50.9792 156.415 50.5577C156.538 50.1361 156.673 49.8202 156.821 49.6081C156.969 49.3969 157.23 49.2913 157.606 49.2913C157.712 49.2913 157.861 49.3039 158.053 49.331V50.2336H157.929C157.746 50.2327 157.607 50.2598 157.511 50.3121C157.414 50.3654 157.324 50.5405 157.242 50.8384C157.182 51.0711 157.102 51.2982 157.003 51.5172C156.92 51.6787 156.788 51.8092 156.624 51.889C156.77 51.9423 156.917 52.0461 157.065 52.2014C157.213 52.3575 157.39 52.6689 157.596 53.1383L158.228 54.5915H157.003ZM153.492 54.5915H152.342V52.3801H150.698V54.5915H149.548V49.331H150.698V51.25H152.342V49.331H153.492V54.5915ZM147.575 54.5915L147.426 54.0166C147.252 54.2294 147.038 54.4063 146.796 54.5374C146.576 54.652 146.33 54.7115 146.082 54.7107C145.66 54.7107 145.314 54.569 145.045 54.2864C144.777 54.0039 144.642 53.6275 144.642 53.1581C144.642 52.8612 144.697 52.6012 144.807 52.3801C144.916 52.1589 145.071 51.982 145.27 51.8493C145.469 51.7175 145.788 51.6002 146.226 51.4973C146.757 51.3754 147.127 51.2608 147.337 51.1552C147.337 50.8645 147.316 50.6732 147.274 50.5829C147.225 50.4847 147.144 50.4061 147.045 50.36C146.934 50.3013 146.777 50.2724 146.574 50.2724C146.368 50.2724 146.207 50.3194 146.089 50.4114C145.971 50.5044 145.876 50.6777 145.802 50.9322L144.761 50.7039C144.887 50.1722 145.096 49.7895 145.387 49.5566C145.677 49.3237 146.094 49.2064 146.639 49.2064C147.123 49.2064 147.494 49.275 147.75 49.4104C148.006 49.5458 148.188 49.7299 148.298 49.9628C148.407 50.1957 148.462 50.6199 148.462 51.2346L148.452 52.8612C148.452 53.317 148.47 53.6573 148.506 53.8803C148.549 54.1239 148.618 54.3623 148.711 54.5915H147.575ZM143.347 53.9344C142.919 54.4489 142.381 54.7053 141.734 54.7053C141.232 54.7053 140.8 54.5473 140.436 54.2296C140.071 53.909 139.82 53.4792 139.722 53.0047C139.609 52.5055 139.552 51.8069 139.552 50.9079C139.552 49.6379 139.742 48.728 140.122 48.1783C140.502 47.6277 141.182 47.3524 142.162 47.3524H142.705C142.881 47.3524 142.989 47.2883 143.029 47.1592H143.816C143.806 47.5456 143.731 47.8335 143.593 48.0222C143.456 48.2099 143.309 48.3218 143.153 48.3561C142.997 48.3913 142.676 48.4148 142.189 48.4283C141.703 48.4419 141.391 48.4717 141.253 48.5177C141.115 48.5637 140.967 48.6612 140.81 48.8102C140.652 48.9591 140.536 49.164 140.462 49.4248C140.386 49.6857 140.345 50.045 140.335 50.5008C140.703 49.7272 141.24 49.3409 141.948 49.3409C142.503 49.3409 142.981 49.6054 143.385 50.1343C143.787 50.6633 143.99 51.2924 143.99 52.0235C143.99 52.7836 143.776 53.4208 143.347 53.9344ZM138.626 54.5915H137.635V51.1308L136.584 54.5915H135.603L134.607 51.1308V54.5915H133.616V49.331H135.045L136.115 52.9948L137.206 49.331H138.626V54.5915ZM132.373 53.3964C132.166 53.8333 131.894 54.161 131.556 54.3812C131.228 54.5982 130.842 54.7129 130.448 54.7107C129.804 54.7107 129.27 54.4661 128.845 53.9768C128.42 53.4876 128.208 52.7899 128.208 51.8845C128.208 51.3691 128.31 50.8988 128.516 50.4764C128.723 50.0531 128.991 49.7354 129.323 49.5241C129.655 49.3129 130.028 49.2064 130.444 49.2064C131.141 49.2064 131.689 49.479 132.087 50.0224C132.486 50.5658 132.684 51.2021 132.684 51.9288C132.684 52.4712 132.581 52.9605 132.373 53.3964ZM127.027 53.9895C126.669 54.4697 126.242 54.7107 125.748 54.7107C125.518 54.7107 125.305 54.6556 125.107 54.5446C124.91 54.4336 124.701 54.2332 124.483 53.9416V56.5945H123.332V49.3256H124.403V50.0991C124.549 49.822 124.741 49.6036 124.981 49.4447C125.22 49.2858 125.477 49.2064 125.752 49.2064C126.247 49.2064 126.673 49.4411 127.03 49.9105C127.387 50.3798 127.565 51.046 127.565 51.9089C127.565 52.8151 127.386 53.5084 127.027 53.9895ZM122.132 54.5915H120.976V50.4268H119.428V54.5915H118.278V49.331H122.132V54.5915ZM116.89 54.2891C116.56 54.5735 116.112 54.7152 115.548 54.7152C114.536 54.7152 113.903 54.2214 113.651 53.2331L114.702 53.0101C114.874 53.5219 115.153 53.7783 115.538 53.7783C115.737 53.7783 115.908 53.7133 116.051 53.5824C116.12 53.5205 116.175 53.4443 116.212 53.3593C116.249 53.2742 116.267 53.1822 116.265 53.0895C116.265 52.891 116.197 52.7312 116.061 52.6102C115.915 52.4866 115.729 52.4222 115.538 52.4297H115.324V51.5271C115.861 51.5271 116.131 51.296 116.131 50.833C116.136 50.6606 116.079 50.4919 115.971 50.3573C115.919 50.2937 115.853 50.2431 115.777 50.2096C115.702 50.1761 115.62 50.1605 115.538 50.1641C115.186 50.1641 114.942 50.3898 114.806 50.8429L113.825 50.5901C114.054 49.6713 114.628 49.2118 115.548 49.2118C116.053 49.2118 116.454 49.3517 116.753 49.6334C117.052 49.9141 117.201 50.2814 117.201 50.7337C117.201 51.2301 116.944 51.6246 116.429 51.9188C117.066 52.1508 117.386 52.5805 117.386 53.2078C117.386 53.6447 117.221 54.0048 116.89 54.2891ZM112.131 54.5915L111.982 54.0166C111.808 54.2294 111.594 54.4063 111.352 54.5374C111.132 54.652 110.886 54.7115 110.638 54.7107C110.216 54.7107 109.87 54.569 109.601 54.2864C109.333 54.0039 109.198 53.6275 109.198 53.1581C109.198 52.8612 109.253 52.6012 109.363 52.3801C109.472 52.1589 109.626 51.982 109.826 51.8493C110.025 51.7175 110.344 51.6002 110.782 51.4973C111.313 51.3754 111.683 51.2608 111.892 51.1552C111.892 50.8645 111.872 50.6732 111.83 50.5829C111.781 50.4847 111.7 50.4061 111.6 50.36C111.49 50.3013 111.333 50.2724 111.13 50.2724C110.924 50.2724 110.763 50.3194 110.645 50.4114C110.527 50.5044 110.432 50.6777 110.358 50.9322L109.317 50.7039C109.443 50.1722 109.652 49.7895 109.943 49.5566C110.233 49.3237 110.65 49.2064 111.195 49.2064C111.679 49.2064 112.05 49.275 112.306 49.4104C112.562 49.5458 112.744 49.7299 112.854 49.9628C112.963 50.1957 113.018 50.6199 113.018 51.2346L113.008 52.8612C113.008 53.317 113.026 53.6573 113.062 53.8803C113.105 54.1239 113.174 54.3623 113.267 54.5915H112.131ZM108.715 48.6116H105.707V54.5915H104.502V47.3822H108.715V48.6116ZM100.124 54.5915L99.975 54.0166C99.801 54.2294 99.587 54.4063 99.3448 54.5374C99.1243 54.652 98.8791 54.7115 98.6303 54.7107C98.2086 54.7107 97.8632 54.569 97.5939 54.2864C97.3255 54.0039 97.1904 53.6275 97.1904 53.1581C97.1904 52.8612 97.2457 52.6012 97.3554 52.3801C97.4651 52.1589 97.6192 51.982 97.8187 51.8493C98.0173 51.7175 98.3365 51.6002 98.7745 51.4973C99.3058 51.3754 99.6758 51.2608 99.8852 51.1552C99.8852 50.8645 99.8644 50.6732 99.8227 50.5829C99.774 50.4847 99.693 50.4061 99.5933 50.36C99.4826 50.3013 99.3258 50.2724 99.1226 50.2724C98.9168 50.2724 98.7554 50.3194 98.6375 50.4114C98.5197 50.5044 98.4244 50.6777 98.351 50.9322L97.31 50.7039C97.4361 50.1722 97.6446 49.7895 97.9357 49.5566C98.2259 49.3237 98.643 49.2064 99.1879 49.2064C99.6721 49.2064 100.043 49.275 100.299 49.4104C100.554 49.5458 100.737 49.7299 100.846 49.9628C100.956 50.1957 101.011 50.6199 101.011 51.2346L101.001 52.8612C101.001 53.317 101.019 53.6573 101.055 53.8803C101.098 54.1239 101.167 54.3623 101.26 54.5915H100.124ZM96.26 54.5915H95.1039V50.4268H93.5552V54.5915H92.4054V49.331H96.26V54.5915ZM91.2103 54.5915H90.0542V50.4268H88.5055V54.5915H87.3557V49.331H91.2103V54.5915ZM85.1242 54.3929L84.8304 55.3795C84.7007 55.7505 84.572 56.0213 84.4441 56.1928C84.3176 56.3639 84.1499 56.5005 83.9563 56.59C83.7262 56.6889 83.4769 56.7361 83.2264 56.7281C83.0062 56.7293 82.787 56.701 82.5744 56.6441L82.4747 55.5537C82.6542 55.5962 82.8147 55.6178 82.958 55.6178C83.1765 55.6178 83.3569 55.5456 83.4984 55.3994C83.6389 55.2541 83.7541 54.9896 83.8439 54.606L82.1954 49.3256H83.4204L84.4514 53.0643L85.4679 49.3256H86.653L85.1242 54.3929ZM81.2941 53.9895C80.9359 54.4697 80.5088 54.7107 80.0146 54.7107C79.7852 54.7107 79.5721 54.6556 79.3745 54.5446C79.1768 54.4336 78.9682 54.2332 78.7497 53.9416V56.5945H77.599V49.3256H78.6699V50.0991C78.8159 49.822 79.0081 49.6036 79.2475 49.4447C79.4869 49.2858 79.7435 49.2064 80.0192 49.2064C80.5143 49.2064 80.9395 49.4411 81.2968 49.9105C81.654 50.3798 81.8318 51.046 81.8318 51.9089C81.8318 52.8151 81.6531 53.5084 81.2941 53.9895ZM76.8473 48.6116H73.8396V54.5915H72.6346V47.3822H76.8473V48.6116ZM65.9346 59H169.905V44.4107H65.9346V59Z" fill="#979696"/>
<path d="M145.956 52.5785C145.901 52.6366 145.858 52.7051 145.83 52.78C145.802 52.8548 145.789 52.9345 145.792 53.0144C145.787 53.2006 145.852 53.3821 145.974 53.5226C146.03 53.5885 146.1 53.6412 146.179 53.6768C146.257 53.7124 146.343 53.73 146.43 53.7284C146.593 53.7284 146.753 53.6734 146.913 53.5623C147.06 53.4663 147.175 53.3291 147.244 53.1679C147.306 53.0162 147.336 52.74 147.336 52.3402V52.0621C147.113 52.1457 146.885 52.2153 146.654 52.2707C146.299 52.3636 146.066 52.4656 145.956 52.5785ZM154.81 33.9084C154.81 33.4949 154.503 33.2891 153.889 33.2891H153.042V34.5781H153.889C154.503 34.5781 154.81 34.3543 154.81 33.9084ZM148.734 33.4173C148.445 33.4173 148.197 33.5545 147.989 33.8289C147.783 34.1033 147.678 34.505 147.678 35.0339C147.678 35.5665 147.783 35.9691 147.992 36.2417C148.201 36.5143 148.454 36.6506 148.749 36.6506C149.038 36.6506 149.285 36.5134 149.491 36.239C149.697 35.9646 149.8 35.5593 149.8 35.024C149.8 34.5023 149.695 34.1033 149.486 33.8289C149.277 33.5545 149.027 33.4173 148.734 33.4173ZM140.254 33.383C139.975 33.383 139.742 33.513 139.557 33.7721C139.371 34.032 139.277 34.4229 139.277 34.9446C139.277 35.5394 139.374 35.9781 139.569 36.2588C139.763 36.5395 139.998 36.6803 140.274 36.6803C140.536 36.6803 140.756 36.5504 140.936 36.2913C141.115 36.0314 141.205 35.6071 141.205 35.0195C141.205 34.4608 141.112 34.0483 140.928 33.782C140.744 33.5157 140.519 33.383 140.254 33.383ZM153.739 35.4311H153.042V36.7841H154.043C154.614 36.7841 154.9 36.5612 154.9 36.1153C154.9 35.8932 154.828 35.7245 154.686 35.6071C154.542 35.4898 154.227 35.4311 153.739 35.4311ZM135.029 33.4173C134.741 33.4173 134.492 33.5545 134.285 33.8289C134.078 34.1033 133.974 34.505 133.974 35.0339C133.974 35.5665 134.078 35.9691 134.287 36.2417C134.497 36.5143 134.749 36.6506 135.045 36.6506C135.333 36.6506 135.58 36.5134 135.786 36.239C135.992 35.9646 136.095 35.5593 136.095 35.024C136.095 34.5023 135.99 34.1033 135.782 33.8289C135.572 33.5545 135.322 33.4173 135.029 33.4173ZM162.609 33.9733C162.609 34.4256 162.875 34.6521 163.406 34.6521H164.243V33.2891H163.326C162.848 33.2891 162.609 33.5166 162.609 33.9733ZM197.021 36.5116H198.973V33.5663H197.594C197.554 34.9518 197.363 35.933 197.021 36.5116ZM181.199 33.4173C180.911 33.4173 180.662 33.5545 180.455 33.8289C180.248 34.1033 180.144 34.505 180.144 35.0339C180.144 35.5665 180.248 35.9691 180.457 36.2417C180.667 36.5143 180.919 36.6506 181.215 36.6506C181.503 36.6506 181.75 36.5134 181.956 36.239C182.162 35.9646 182.265 35.5593 182.265 35.024C182.265 34.5023 182.16 34.1033 181.952 33.8289C181.742 33.5545 181.492 33.4173 181.199 33.4173ZM206.562 35.654C206.507 35.7122 206.464 35.7807 206.436 35.8556C206.408 35.9304 206.395 36.0101 206.398 36.09C206.392 36.2762 206.457 36.4577 206.58 36.5982C206.636 36.6641 206.705 36.7168 206.784 36.7524C206.863 36.788 206.949 36.8056 207.035 36.804C207.198 36.804 207.359 36.7489 207.519 36.6379C207.666 36.5419 207.781 36.4047 207.85 36.2435C207.911 36.0918 207.942 35.8156 207.942 35.4158V35.1377C207.719 35.2213 207.491 35.2909 207.259 35.3463C206.905 35.4392 206.672 35.5412 206.562 35.654ZM192.414 35.654C192.359 35.7122 192.316 35.7807 192.288 35.8556C192.259 35.9304 192.247 36.0101 192.25 36.09C192.244 36.2762 192.309 36.4577 192.432 36.5982C192.488 36.6641 192.557 36.7168 192.636 36.7524C192.715 36.788 192.801 36.8056 192.887 36.804C193.05 36.804 193.211 36.7489 193.37 36.6379C193.518 36.5419 193.633 36.4047 193.701 36.2435C193.763 36.0918 193.794 35.8156 193.794 35.4158V35.1377C193.571 35.2213 193.343 35.2909 193.111 35.3463C192.757 35.4392 192.524 35.5412 192.414 35.654ZM158.032 35.654C157.976 35.7122 157.934 35.7807 157.905 35.8556C157.877 35.9304 157.864 36.0101 157.867 36.09C157.862 36.2762 157.927 36.4577 158.05 36.5982C158.105 36.6641 158.175 36.7168 158.254 36.7524C158.333 36.788 158.418 36.8056 158.505 36.804C158.668 36.804 158.829 36.7489 158.988 36.6379C159.135 36.5419 159.251 36.4047 159.319 36.2435C159.381 36.0918 159.412 35.8156 159.412 35.4158V35.1377C159.189 35.2213 158.961 35.2909 158.729 35.3463C158.374 35.4392 158.141 35.5412 158.032 35.654Z" fill="#979696"/>
<path d="M208.181 37.6669L208.032 37.092C207.858 37.3048 207.644 37.4817 207.402 37.6128C207.181 37.7274 206.936 37.7869 206.687 37.7861C206.265 37.7861 205.92 37.6444 205.651 37.3619C205.382 37.0793 205.247 36.7029 205.247 36.2336C205.247 35.9366 205.303 35.6766 205.412 35.4555C205.522 35.2343 205.676 35.0574 205.876 34.9247C206.075 34.793 206.393 34.6756 206.831 34.5727C207.363 34.4509 207.733 34.3362 207.942 34.2306C207.942 33.94 207.921 33.7486 207.88 33.6583C207.831 33.5602 207.75 33.4815 207.65 33.4354C207.539 33.3767 207.383 33.3478 207.179 33.3478C206.974 33.3478 206.812 33.3948 206.694 33.4868C206.576 33.5798 206.481 33.7531 206.408 34.0077L205.367 33.7793C205.494 33.2476 205.702 32.8649 205.993 32.632C206.283 32.3992 206.7 32.2818 207.245 32.2818C207.729 32.2818 208.1 32.3504 208.356 32.4858C208.611 32.6212 208.794 32.8054 208.903 33.0382C209.013 33.2711 209.067 33.6953 209.067 34.31L209.058 35.9366C209.058 36.3924 209.076 36.7327 209.113 36.9557C209.155 37.1993 209.224 37.4377 209.317 37.6669H208.181ZM203.724 37.6669L203.142 36.1451C203.026 35.8373 202.926 35.6396 202.842 35.5521C202.761 35.4645 202.635 35.4212 202.469 35.4212V37.6669H201.319V32.4064H202.469V34.5483C202.603 34.5415 202.731 34.4871 202.828 34.3949C202.911 34.3082 203.014 34.0546 203.136 33.6331C203.26 33.2115 203.395 32.8956 203.542 32.6835C203.69 32.4723 203.951 32.3667 204.327 32.3667C204.433 32.3667 204.583 32.3793 204.775 32.4064V33.309H204.651C204.467 33.3081 204.329 33.3352 204.233 33.3875C204.136 33.4408 204.046 33.6159 203.963 33.9138C203.903 34.1465 203.823 34.3737 203.724 34.5926C203.642 34.7541 203.509 34.8846 203.346 34.9645C203.492 35.0177 203.639 35.1215 203.786 35.2768C203.934 35.4329 204.111 35.7443 204.317 36.2137L204.949 37.6669H203.724ZM200.582 39.0606H199.655V37.6669H196.369V39.0606H195.442V36.5116H195.9C196.352 35.8806 196.59 34.5113 196.613 32.4064H200.124V36.5116H200.582V39.0606ZM194.032 37.6669L193.884 37.092C193.71 37.3048 193.496 37.4817 193.254 37.6128C193.033 37.7274 192.788 37.7869 192.539 37.7861C192.117 37.7861 191.772 37.6444 191.503 37.3619C191.234 37.0793 191.099 36.7029 191.099 36.2336C191.099 35.9366 191.154 35.6766 191.264 35.4555C191.374 35.2343 191.528 35.0574 191.728 34.9247C191.927 34.793 192.245 34.6756 192.683 34.5727C193.215 34.4509 193.585 34.3362 193.794 34.2306C193.794 33.94 193.773 33.7486 193.731 33.6583C193.683 33.5602 193.602 33.4815 193.502 33.4354C193.391 33.3767 193.235 33.3478 193.031 33.3478C192.826 33.3478 192.664 33.3948 192.546 33.4868C192.428 33.5798 192.333 33.7531 192.26 34.0077L191.219 33.7793C191.346 33.2476 191.554 32.8649 191.844 32.632C192.135 32.3992 192.552 32.2818 193.097 32.2818C193.581 32.2818 193.952 32.3504 194.207 32.4858C194.463 32.6212 194.645 32.8054 194.755 33.0382C194.865 33.2711 194.919 33.6953 194.919 34.31L194.91 35.9366C194.91 36.3924 194.928 36.7327 194.965 36.9557C195.007 37.1993 195.076 37.4377 195.169 37.6669H194.032ZM190.607 39.0606H189.682V37.6669H184.318V32.4064H185.467V36.5414H186.652V32.4064H187.804V36.5414H188.998V32.4064H190.15V36.5414H190.607V39.0606ZM183.135 36.4719C182.927 36.9087 182.655 37.2364 182.317 37.4566C181.989 37.6736 181.603 37.7883 181.209 37.7861C180.565 37.7861 180.031 37.5415 179.606 37.0522C179.181 36.563 178.969 35.8653 178.969 34.9599C178.969 34.4445 179.071 33.9743 179.277 33.5518C179.484 33.1285 179.752 32.8108 180.084 32.5995C180.416 32.3883 180.789 32.2818 181.205 32.2818C181.903 32.2818 182.45 32.5544 182.848 33.0978C183.247 33.6412 183.446 34.2775 183.446 35.0042C183.446 35.5467 183.342 36.0359 183.134 36.4719H183.135ZM178.082 37.6669H176.932V33.5022H175.383V35.9014C175.389 36.2198 175.362 36.538 175.303 36.851C175.264 37.0672 175.171 37.2701 175.032 37.4413C174.904 37.5884 174.778 37.6778 174.653 37.7094C174.484 37.7452 174.311 37.761 174.138 37.7563C174.005 37.7563 173.767 37.7265 173.422 37.6669V36.6406C173.514 36.647 173.671 36.6506 173.894 36.6506C174.03 36.6506 174.119 36.6036 174.163 36.5089C174.206 36.415 174.228 36.2029 174.227 35.8716V32.4064H178.082V37.6669ZM172.689 37.6669H171.533V33.5022H169.984V37.6669H168.835V32.4064H172.689V37.6669ZM165.393 37.6669H164.243V35.4753H164.048C163.836 35.4753 163.664 35.5295 163.531 35.6387C163.398 35.7479 163.265 35.933 163.132 36.1947L162.385 37.6669H161.05L161.867 36.1451C162.099 35.7118 162.313 35.4573 162.509 35.3815C162.351 35.37 162.197 35.3229 162.059 35.2438C161.922 35.1647 161.804 35.0556 161.715 34.9247C161.524 34.6539 161.429 34.3118 161.428 33.8984C161.429 33.3894 161.557 33.0139 161.815 32.7701C162.072 32.5273 162.479 32.4064 163.037 32.4064H165.393V37.6669ZM159.65 37.6669L159.502 37.092C159.328 37.3048 159.113 37.4817 158.871 37.6128C158.651 37.7274 158.406 37.7869 158.157 37.7861C157.735 37.7861 157.39 37.6444 157.12 37.3619C156.852 37.0793 156.717 36.7029 156.717 36.2336C156.717 35.9366 156.772 35.6766 156.882 35.4555C156.992 35.2343 157.146 35.0574 157.345 34.9247C157.545 34.793 157.863 34.6756 158.301 34.5727C158.832 34.4509 159.202 34.3362 159.412 34.2306C159.412 33.94 159.391 33.7486 159.349 33.6583C159.3 33.5602 159.22 33.4815 159.12 33.4354C159.009 33.3767 158.852 33.3478 158.649 33.3478C158.443 33.3478 158.282 33.3948 158.164 33.4868C158.046 33.5798 157.951 33.7531 157.878 34.0077L156.837 33.7793C156.964 33.2476 157.172 32.8649 157.462 32.632C157.752 32.3992 158.169 32.2818 158.714 32.2818C159.199 32.2818 159.57 32.3504 159.825 32.4858C160.081 32.6212 160.263 32.8054 160.373 33.0382C160.483 33.2711 160.537 33.6953 160.537 34.31L160.528 35.9366C160.528 36.3924 160.546 36.7327 160.582 36.9557C160.625 37.1993 160.693 37.4377 160.786 37.6669H159.65ZM155.709 37.2851C155.458 37.5397 155.128 37.6669 154.716 37.6669H151.891V32.4064H154.481C155.447 32.4064 155.932 32.864 155.932 33.7793C155.932 34.394 155.688 34.793 155.203 34.9744C155.791 35.1766 156.085 35.6125 156.085 36.2832C156.085 36.6966 155.96 37.0306 155.709 37.2851ZM150.669 36.4719C150.461 36.9087 150.189 37.2364 149.853 37.4566C149.524 37.6738 149.138 37.7885 148.744 37.7861C148.1 37.7861 147.566 37.5415 147.141 37.0522C146.715 36.563 146.503 35.8653 146.503 34.9599C146.503 34.4445 146.606 33.9743 146.812 33.5518C147.018 33.1285 147.287 32.8108 147.619 32.5995C147.95 32.3883 148.324 32.2818 148.739 32.2818C149.437 32.2818 149.984 32.5544 150.382 33.0978C150.781 33.6412 150.981 34.2775 150.981 35.0042C150.981 35.5467 150.876 36.0359 150.669 36.4719ZM146.17 33.5022H144.397V37.6669H143.247V32.4064H146.17V33.5022ZM141.837 37.0649C141.479 37.5451 141.052 37.7861 140.559 37.7861C140.328 37.7861 140.115 37.731 139.917 37.62C139.72 37.509 139.511 37.3086 139.293 37.017V39.6699H138.142V32.401H139.213V33.1745C139.359 32.8974 139.551 32.679 139.791 32.5201C140.03 32.3613 140.287 32.2818 140.562 32.2818C141.057 32.2818 141.483 32.5165 141.841 32.9859C142.197 33.4552 142.376 34.1214 142.376 34.9843C142.376 35.8906 142.196 36.5838 141.837 37.0649ZM136.964 36.4719C136.757 36.9087 136.484 37.2364 136.148 37.4566C135.82 37.6738 135.433 37.7885 135.039 37.7861C134.395 37.7861 133.861 37.5415 133.436 37.0522C133.011 36.563 132.799 35.8653 132.799 34.9599C132.799 34.4445 132.901 33.9743 133.107 33.5518C133.314 33.1285 133.582 32.8108 133.914 32.5995C134.246 32.3883 134.619 32.2818 135.035 32.2818C135.733 32.2818 136.28 32.5544 136.678 33.0978C137.077 33.6412 137.276 34.2775 137.276 35.0042C137.276 35.5467 137.172 36.0359 136.964 36.4719ZM132.385 33.5022H130.996V37.6669H129.845V33.5022H128.456V32.4064H132.386L132.385 33.5022ZM125.487 37.6669H124.338V35.4753H124.143C123.93 35.4753 123.758 35.5295 123.626 35.6387C123.493 35.7479 123.359 35.933 123.227 36.1947L122.48 37.6669H121.145L121.962 36.1451C122.194 35.7118 122.408 35.4573 122.604 35.3815C122.445 35.37 122.292 35.3229 122.154 35.2438C122.017 35.1647 121.899 35.0556 121.81 34.9247C121.619 34.6539 121.524 34.3118 121.523 33.8984C121.524 33.3894 121.652 33.0139 121.909 32.7701C122.167 32.5273 122.574 32.4064 123.132 32.4064H125.487V37.6669ZM119.745 37.6669L119.596 37.092C119.422 37.3048 119.208 37.4817 118.966 37.6128C118.746 37.7274 118.5 37.7869 118.252 37.7861C117.83 37.7861 117.484 37.6444 117.215 37.3619C116.947 37.0793 116.812 36.7029 116.812 36.2336C116.812 35.9366 116.867 35.6766 116.977 35.4555C117.086 35.2343 117.24 35.0574 117.44 34.9247C117.639 34.793 117.958 34.6756 118.396 34.5727C118.927 34.4509 119.297 34.3362 119.506 34.2306C119.506 33.94 119.486 33.7486 119.444 33.6583C119.395 33.5602 119.314 33.4815 119.214 33.4354C119.104 33.3767 118.947 33.3478 118.744 33.3478C118.538 33.3478 118.377 33.3948 118.259 33.4868C118.141 33.5798 118.046 33.7531 117.972 34.0077L116.931 33.7793C117.058 33.2476 117.267 32.8649 117.557 32.632C117.847 32.3992 118.264 32.2818 118.809 32.2818C119.293 32.2818 119.664 32.3504 119.92 32.4858C120.176 32.6212 120.358 32.8054 120.468 33.0382C120.577 33.2711 120.632 33.6953 120.632 34.31L120.623 35.9366C120.623 36.3924 120.641 36.7327 120.677 36.9557C120.72 37.1993 120.788 37.4377 120.881 37.6669H119.745ZM115.96 37.6669H114.81V35.4555H113.166V37.6669H112.017V32.4064H113.166V34.3254H114.81V32.4064H115.96V37.6669ZM110.91 37.6669H109.761V35.4555H108.117V37.6669H106.967V32.4064H108.117V34.3254H109.761V32.4064H110.91V37.6669ZM105.804 36.4719C105.596 36.9087 105.324 37.2364 104.988 37.4566C104.659 37.6738 104.273 37.7885 103.879 37.7861C103.235 37.7861 102.701 37.5415 102.275 37.0522C101.85 36.563 101.638 35.8653 101.638 34.9599C101.638 34.4445 101.74 33.9743 101.946 33.5518C102.153 33.1285 102.421 32.8108 102.753 32.5995C103.085 32.3883 103.459 32.2818 103.874 32.2818C104.572 32.2818 105.119 32.5544 105.517 33.0978C105.916 33.6412 106.116 34.2775 106.116 35.0042C106.116 35.5467 106.011 36.0359 105.804 36.4719ZM100.457 37.0649C100.099 37.5451 99.6721 37.7861 99.1789 37.7861C98.9485 37.7861 98.7355 37.731 98.5378 37.62C98.3401 37.509 98.1316 37.3086 97.913 37.017V39.6699H96.7624V32.401H97.8332V33.1745C97.9792 32.8974 98.1715 32.679 98.4108 32.5201C98.6502 32.3613 98.9068 32.2818 99.1825 32.2818C99.6776 32.2818 100.103 32.5165 100.461 32.9859C100.817 33.4552 100.996 34.1214 100.996 34.9843C100.996 35.8906 100.816 36.5838 100.457 37.0649ZM96.1158 33.5022H94.7267V37.6669H93.576V33.5022H92.1869V32.4064H96.1158V33.5022ZM90.8721 37.6669L90.29 36.1451C90.1739 35.8373 90.0742 35.6396 89.9907 35.5521C89.9091 35.4645 89.7831 35.4212 89.6171 35.4212V37.6669H88.4674V32.4064H89.6171V34.5483C89.7514 34.5415 89.8788 34.4871 89.9762 34.3949C90.0587 34.3082 90.1621 34.0546 90.2845 33.6331C90.4078 33.2115 90.5429 32.8956 90.6907 32.6835C90.8385 32.4723 91.0997 32.3667 91.4751 32.3667C91.5812 32.3667 91.7308 32.3793 91.923 32.4064V33.309H91.7988C91.6156 33.3081 91.4769 33.3352 91.3817 33.3875C91.2838 33.4408 91.194 33.6159 91.1115 33.9138C91.0517 34.1465 90.9716 34.3737 90.8721 34.5926C90.7899 34.7541 90.6572 34.8846 90.494 34.9645C90.64 35.0177 90.7869 35.1215 90.9347 35.2768C91.0825 35.4329 91.2593 35.7443 91.4651 36.2137L92.0971 37.6669H90.8721ZM87.5806 35.4356H84.7071C84.7134 35.8526 84.8077 36.1749 84.9882 36.4024C85.1695 36.6307 85.3871 36.7445 85.6428 36.7445C86.0119 36.7445 86.2576 36.4935 86.38 35.9908L87.5207 36.2245C87.3675 36.7526 87.1308 37.1452 86.808 37.4016C86.4861 37.6579 86.0944 37.7861 85.6329 37.7861C84.9927 37.7861 84.4976 37.5731 84.1494 37.1461C83.7378 36.6506 83.5328 35.9564 83.5328 35.0637C83.5328 34.1846 83.7396 33.4805 84.154 32.9516C84.5058 32.5057 84.961 32.2818 85.5186 32.2818C86.1398 32.2818 86.6258 32.5102 86.9785 32.966C87.3829 33.4886 87.586 34.2586 87.586 35.2768L87.5806 35.4356ZM82.7095 37.6669H81.5597V33.5022H80.011V35.9014C80.0168 36.2198 79.9901 36.538 79.9312 36.851C79.8917 37.0672 79.7985 37.2701 79.6601 37.4413C79.5313 37.5884 79.4062 37.6778 79.2811 37.7094C79.1119 37.7452 78.939 37.761 78.766 37.7563C78.6327 37.7563 78.3943 37.7265 78.0497 37.6669V36.6406C78.1413 36.647 78.2991 36.6506 78.5221 36.6506C78.6581 36.6506 78.747 36.6036 78.7905 36.5089C78.834 36.415 78.8558 36.2029 78.8549 35.8716V32.4064H82.7095V37.6669ZM76.8519 36.7769C76.3577 37.453 75.7012 37.7906 74.8806 37.7906C73.5168 37.7906 72.6772 37.0125 72.3607 35.4555L73.5712 34.9942C73.6311 35.4934 73.7816 35.8761 74.0219 36.1424C74.2622 36.4087 74.5623 36.5414 74.9205 36.5414C75.7139 36.5414 76.1791 35.9113 76.3151 34.6521H74.4381V33.4228H76.3151C76.2552 32.8144 76.0956 32.3459 75.8372 32.0164C75.5779 31.6879 75.2515 31.5236 74.8561 31.5236C74.2123 31.5236 73.7834 31.9271 73.5712 32.7331L72.3807 32.4064C72.5176 31.7186 72.7987 31.1914 73.2249 30.8241C73.6519 30.4576 74.1824 30.2744 74.8162 30.2744C75.6595 30.2744 76.3323 30.6156 76.8356 31.2979C77.3388 31.9803 77.59 32.9055 77.59 34.0717C77.59 35.1991 77.3433 36.1009 76.851 36.7769H76.8519ZM65.9346 41.3984H215.999V26.8091H65.9346V41.3984Z" fill="#979696"/>
</svg>
