<svg width="201" height="50" viewBox="0 0 201 50" fill="none" xmlns="http://www.w3.org/2000/svg">
<path d="M194.644 5.81289H199.425C198.556 6.30181 197.415 7.171 196.002 8.52911L191.222 13.4183L193.829 17.1667C196.546 21.078 198.936 24.0115 201 26.0759H194.21C193.341 24.1202 192.254 22.0559 190.896 20.0459L187.8 15.4283L190.461 12.0602C192.852 8.90938 194.264 6.84506 194.644 5.81289ZM187.419 8.09451V23.7942L187.637 24.9894C187.8 25.2067 188.071 25.3697 188.56 25.4783V26.0759H181.932V25.4783L182.856 24.9894C183.019 24.7721 183.073 24.3918 183.073 23.7942V8.09451L182.856 6.9537C182.693 6.7364 182.421 6.57343 181.932 6.5191V5.86721H188.56V6.5191C188.071 6.57343 187.8 6.7364 187.637 6.9537L187.419 8.09451ZM177.587 8.09451V23.7942L177.804 24.9894L178.727 25.4783V26.0759H172.045V25.4783C172.534 25.3153 172.86 25.1523 173.078 24.9894L173.241 23.7942V15.6456H165.472V23.7942L165.69 24.9894C165.852 25.2067 166.124 25.3697 166.613 25.4783V26.0759H159.877V25.4783C160.42 25.3153 160.746 25.1523 160.909 24.9894L161.126 23.7942V8.09451L160.909 6.9537C160.746 6.7364 160.42 6.57343 159.877 6.5191V5.86721H166.613V6.5191C166.124 6.57343 165.852 6.7364 165.69 6.9537L165.472 8.09451V14.2875H173.241V8.09451L173.078 6.9537C172.86 6.7364 172.534 6.57343 172.045 6.5191V5.86721H178.727V6.5191C178.238 6.57343 177.967 6.7364 177.804 6.9537L177.587 8.09451ZM175.196 39.5483H178.401L177.043 46.2845H176.12L176.717 43.1337H175.142L172.915 46.2845H171.882L174.11 43.1337C173.186 42.8621 172.752 42.2645 172.752 41.3953C172.752 40.9064 172.969 40.5261 173.349 40.1459C173.838 39.7656 174.436 39.5483 175.196 39.5483ZM174.979 42.4275H176.935L177.369 40.3088H175.196C174.707 40.3088 174.327 40.4175 174.055 40.6891C173.838 40.9064 173.73 41.1237 173.73 41.4497C173.73 42.1016 174.164 42.4275 174.979 42.4275ZM167.102 41.2867L166.45 44.6548C166.939 45.3067 167.537 45.6326 168.188 45.6326C168.84 45.6326 169.384 45.3067 169.872 44.6548C170.361 43.9486 170.579 43.1337 170.579 42.1559C170.579 41.504 170.416 41.015 170.144 40.6891C169.872 40.3632 169.492 40.2002 168.949 40.2002C168.243 40.1459 167.591 40.5261 167.102 41.2867ZM167.374 39.5483L167.211 40.3632L168.08 39.6569L169.221 39.3853C169.927 39.3853 170.524 39.6026 170.905 40.0915C171.339 40.5805 171.502 41.2867 171.502 42.2102C171.502 43.4597 171.176 44.4375 170.524 45.2524C169.927 46.0129 169.166 46.4475 168.243 46.4475L167.102 46.2302L166.287 45.6326L165.635 49.0551H164.712L166.559 39.6026L167.374 39.5483ZM183.508 39.5483L184.268 45.4697H184.92L184.486 47.5883H183.78L183.942 46.2845H179.379L178.999 47.5883H178.347L178.727 45.4697H179.325L182.15 39.5483H183.508ZM182.639 40.4175L180.303 45.4697H183.345L182.91 40.4175H182.639ZM185.844 43.4596C185.844 42.3188 186.17 41.341 186.876 40.5261C187.474 39.7656 188.234 39.331 189.103 39.331C189.864 39.331 190.461 39.6026 190.842 40.1459C191.276 40.6348 191.494 41.3953 191.494 42.3188C191.494 43.4053 191.168 44.3832 190.516 45.198C189.864 45.9586 189.103 46.3932 188.288 46.3932C187.528 46.3932 186.93 46.1215 186.496 45.6326C186.061 45.1437 185.844 44.3832 185.844 43.4596ZM201 33.138H52.7492V31.128H201V33.138ZM195.242 39.5483L196.002 45.361L198.827 39.5483H200.294L198.936 46.2845H198.067L199.208 40.3632L196.22 46.2845H195.351L194.481 40.3632L193.286 46.2845H192.417L193.775 39.5483H195.242ZM190.19 40.6891C189.864 40.3088 189.484 40.1459 188.995 40.1459C188.397 40.1459 187.908 40.4718 187.474 41.1237C186.985 41.8299 186.767 42.6448 186.767 43.6226C186.767 44.2202 186.93 44.7091 187.202 45.0894C187.474 45.4153 187.854 45.5783 188.288 45.5783C188.886 45.5783 189.429 45.2524 189.918 44.6005C190.353 43.8942 190.57 43.0794 190.57 42.1559C190.624 41.5583 190.461 41.0694 190.19 40.6891ZM145.372 6.5191V5.86721H151.185C151.239 6.79073 151.511 7.76856 151.891 8.85505L156.183 20.9694C156.889 23.088 157.595 24.8264 158.301 26.1302H153.195L150.968 18.8507H144.449L143.091 23.6856L142.656 26.1302H138.962L145.59 10.9194C146.241 9.28965 146.567 8.20316 146.567 7.65992C146.567 6.9537 146.133 6.57343 145.372 6.5191ZM147.762 9.23532L144.992 17.384H150.533L147.762 9.23532ZM137.441 10.2132H136.3L136.028 9.34398C135.757 8.36614 135.322 7.71424 134.779 7.3883L131.954 7.00803H129.238C128.64 7.00803 128.206 7.11667 127.988 7.33397C127.825 7.49694 127.717 7.82289 127.717 8.25749V13.0924H128.858C132.117 13.0924 134.399 13.4183 135.648 14.0702C137.441 14.9394 138.364 16.6778 138.364 19.2853C138.364 21.8386 137.658 23.6313 136.191 24.7178C134.942 25.5869 132.986 26.0759 130.324 26.0759H122.23V25.4783L123.208 24.9894L123.371 23.7942V8.09451L123.208 6.9537C123.045 6.7364 122.773 6.57343 122.23 6.5191V5.86721H137.441V10.2132ZM127.825 14.3961V23.0337C127.825 23.7399 127.934 24.1745 128.206 24.3918C128.477 24.6634 128.966 24.8264 129.618 24.8264H130.216C131.52 24.8264 132.443 24.3918 133.095 23.4683C133.638 22.6534 133.91 21.3497 133.91 19.5026C133.91 17.7099 133.638 16.4605 133.041 15.6999C132.443 14.8307 131.302 14.3418 129.618 14.3418H127.825V14.3961ZM129.075 37.321C129.51 37.7556 129.672 38.2988 129.672 39.0051C129.672 39.6026 129.51 40.1459 129.129 40.5261C128.803 40.9064 128.26 41.178 127.5 41.3953C128.532 41.8299 129.075 42.5361 129.075 43.514C129.075 44.3832 128.749 45.0894 128.151 45.5783C127.554 46.0672 126.685 46.2845 125.544 46.2845H122.339L124.131 36.7234H127.174C127.988 36.7234 128.64 36.9407 129.075 37.321ZM124.946 37.5926L124.294 40.9064H126.196C127.011 40.9064 127.662 40.7434 128.097 40.4175C128.532 40.0372 128.749 39.6026 128.749 39.0594C128.749 38.5705 128.586 38.1902 128.314 37.9729C127.988 37.7556 127.554 37.5926 126.956 37.5926H124.946ZM131.248 43.4596C131.248 44.1659 131.411 44.6548 131.737 44.9807C132.063 45.361 132.497 45.524 133.095 45.524L134.29 45.1437L134.942 44.2202L135.648 44.5461L134.616 45.8499C134.181 46.1759 133.638 46.3388 132.986 46.3388C132.226 46.3388 131.574 46.0672 131.085 45.524C130.596 44.9807 130.379 44.2202 130.379 43.2967C130.379 42.2102 130.705 41.2867 131.302 40.4718C131.9 39.7113 132.66 39.2767 133.584 39.2767C134.236 39.2767 134.725 39.4397 135.105 39.7656C135.485 40.0915 135.811 40.5261 136.028 41.178L135.159 41.341C134.942 40.4718 134.399 39.9829 133.584 39.9829C132.986 39.9829 132.443 40.3088 131.954 40.9064C131.465 41.7213 131.248 42.5361 131.248 43.4596ZM125.87 41.7213H124.131L123.48 45.4153H125.707C126.467 45.4153 127.065 45.2524 127.445 44.9264C127.88 44.6005 128.043 44.1115 128.043 43.5683C128.043 43.1337 127.88 42.6991 127.5 42.3188C127.065 41.9386 126.522 41.7213 125.87 41.7213ZM142.493 42.9164H137.712L137.658 43.4596C137.658 44.1659 137.821 44.6548 138.147 45.035C138.473 45.4153 138.908 45.5783 139.451 45.5783C139.94 45.5783 140.32 45.4153 140.7 45.1437L141.57 44.0029L142.33 44.4375L141.026 45.7956C140.537 46.1759 139.994 46.3388 139.288 46.3388C138.527 46.3388 137.875 46.0672 137.441 45.5783C137.006 45.035 136.789 44.3288 136.789 43.4053C136.789 42.2102 137.115 41.2323 137.712 40.4718C138.364 39.7113 139.179 39.2767 140.103 39.2767C140.863 39.2767 141.461 39.494 141.895 39.9829C142.33 40.4175 142.547 41.0694 142.547 41.9386L142.493 42.9164ZM141.352 40.6348C141.026 40.3088 140.646 40.1459 140.157 40.1459C139.56 40.1459 139.071 40.3088 138.745 40.6891C138.419 41.015 138.147 41.4496 137.93 42.1015H141.678L141.732 41.667C141.678 41.341 141.57 40.9607 141.352 40.6348ZM143.525 46.2845L144.883 39.5483H148.686L148.523 40.3088H145.59L144.394 46.2845H143.525ZM151.185 40.4175L148.849 45.4697H151.891L151.457 40.4175H151.185ZM152.054 39.5483L152.815 45.4697H153.467L153.032 47.5883H152.38L152.489 46.2845H147.925L147.545 47.5883H146.893L147.274 45.4697H147.871L150.696 39.5483H152.054ZM154.499 44.4918C154.499 43.7856 154.825 43.2423 155.422 42.8621C156.074 42.4275 156.998 42.2645 158.138 42.2645H159.062L159.116 41.504C159.116 41.0694 159.008 40.7434 158.736 40.5261C158.464 40.3088 158.084 40.1459 157.595 40.1459C157.161 40.1459 156.672 40.4175 156.128 40.9064L155.585 40.3632C156.346 39.7113 157.052 39.3853 157.812 39.3853C158.519 39.3853 159.062 39.5483 159.442 39.9286C159.877 40.3088 160.04 40.7978 160.04 41.341L159.931 42.3732L159.497 44.6005C159.388 45.0894 159.334 45.6326 159.334 46.2302H158.464L158.41 45.4697L157.487 46.0672L156.4 46.3388C155.857 46.3388 155.422 46.1759 155.042 45.7956C154.662 45.4697 154.499 45.035 154.499 44.4918ZM158.247 42.9707C156.346 42.9707 155.422 43.4597 155.422 44.3832C155.422 44.7091 155.531 45.0351 155.748 45.2524C155.965 45.4697 156.291 45.6326 156.617 45.6326C157.106 45.6326 157.758 45.361 158.573 44.7634L158.953 42.9707H158.247ZM120.546 11.6256C120.546 13.9615 119.84 15.6456 118.373 16.6778C117.124 17.5469 115.222 18.0359 112.615 18.0359H110.55V23.7942L110.768 24.9894C110.876 25.2067 111.202 25.3697 111.745 25.4783V26.0759H105.064V25.4783L105.987 24.9894L106.204 23.7942V8.09451L105.987 6.9537C105.824 6.7364 105.552 6.57343 105.064 6.5191V5.86721H113.484C115.765 5.86721 117.45 6.19316 118.482 6.89938C119.84 7.76857 120.546 9.34397 120.546 11.6256ZM110.876 7.27965C110.659 7.44262 110.55 7.71424 110.55 8.20316V16.7321H112.615C113.864 16.7321 114.788 16.2432 115.277 15.3197C115.711 14.4505 115.928 13.1467 115.928 11.4083C115.928 8.5291 114.733 7.06235 112.289 7.06235H111.8L110.876 7.27965ZM102.021 10.2132H100.935L100.663 9.34398C100.337 8.36614 99.9027 7.71424 99.3595 7.3883L96.589 7.00803H94.3617L93.5468 7.22532L93.3295 7.98587V14.2332H95.9914C97.8384 14.2332 99.0336 14.0159 99.6311 13.6356V16.1888C99.0336 15.7542 97.8384 15.5913 95.9914 15.5913H93.3295V23.1967C93.3295 23.7942 93.5468 24.2288 93.9271 24.5005L96.4803 24.8264H97.0236L99.7941 24.3918C100.283 24.0659 100.663 23.3596 100.935 22.1645L101.152 21.404H102.456V26.1302H87.8428V25.5326C88.3317 25.3696 88.6576 25.2067 88.8206 25.0437L89.0379 23.8486V8.14883L88.8206 7.00803C88.6576 6.79073 88.386 6.62776 87.8428 6.57343V5.92154H101.967L102.021 10.2132ZM84.5833 10.2132H83.4968L83.2252 9.34398C82.8992 8.36614 82.4646 7.71424 81.9214 7.3883L79.2052 7.00803H76.3803C75.7828 7.00803 75.4025 7.11667 75.1309 7.33397C75.0222 7.49694 74.9679 7.82289 74.9679 8.25749V13.0924H76.1087C79.3682 13.0924 81.6498 13.4183 82.8992 14.0702C84.6919 14.9394 85.5611 16.6778 85.5611 19.2853C85.5611 21.8386 84.8549 23.6313 83.3882 24.7178C82.1387 25.5869 80.183 26.0759 77.5211 26.0759H69.3725V25.4783C69.9157 25.3153 70.2417 25.1523 70.4046 24.9894L70.6219 23.7942V8.09451L70.4046 6.9537C70.2417 6.7364 69.9157 6.57343 69.3725 6.5191V5.86721H84.4746V10.2132H84.5833ZM64.1573 7.44262C63.5598 7.00803 62.5819 6.79073 61.2782 6.79073C59.2138 6.79073 57.8014 7.55127 56.9322 9.01803C56.226 10.3218 55.8457 12.4405 55.8457 15.374C55.8457 18.3075 56.226 20.4805 57.0409 21.8929C58.0187 23.6313 59.6484 24.5005 61.9844 24.5005C63.6684 24.5005 65.4068 24.0659 67.0365 23.251L67.6341 24.5548C65.6784 25.7499 63.3968 26.3475 60.7892 26.3475C54.379 26.3475 51.1738 22.9251 51.1738 16.1345C51.1738 9.01803 54.4876 5.43262 61.1695 5.43262C63.7228 5.43262 65.6784 5.75857 67.0365 6.35614V10.5391H65.7327L65.3525 9.28965C65.1352 8.52911 64.7549 7.87722 64.1573 7.44262ZM75.0222 14.3961V23.0337C75.0222 23.7399 75.1309 24.1745 75.3482 24.3918C75.6198 24.6634 76.1087 24.8264 76.8149 24.8264H77.3582C79.8027 24.8264 81.0522 23.088 81.0522 19.5569C81.0522 17.7642 80.7806 16.5148 80.183 15.7542C79.5311 14.8851 78.3903 14.3961 76.7063 14.3961H75.0222Z" fill="#979696"/>
<path d="M33.5721 2.60757L35.3648 4.2373L12.7115 17.2751L1.73799 10.9192L2.77015 8.85487L12.7115 14.5589L33.5721 2.60757ZM29.0088 0L31.3991 1.24946L12.7115 12.0057L4.01962 7.06216L5.48637 5.26947L12.7115 9.39811L29.0088 0ZM36.9402 5.92136L38.2983 7.71406L12.7115 22.4359L0.379883 15.3738L0.923126 13.1465L12.7115 19.8827L36.9402 5.92136Z" fill="#979696"/>
<path d="M40.6346 12.5491C41.3951 14.6678 41.7754 16.8951 41.7754 19.231C41.7754 21.567 41.3951 23.7942 40.6346 25.9672L40.1457 27.3253C39.1135 29.8242 37.5924 32.0515 35.6911 34.0072C33.7354 35.9086 31.5081 37.3753 29.0092 38.4075C26.4016 39.5483 23.6854 40.0916 20.8605 40.0916C18.0357 40.0916 15.3195 39.5483 12.7119 38.4075C10.2673 37.3753 8.09432 35.9086 6.08432 34.0072C4.12865 32.0515 2.66189 29.8242 1.62973 27.3253C0.543243 24.7178 0 22.0015 0 19.1767V17.8186L12.7119 25.0437L39.4938 9.66992L40.6346 12.5491Z" fill="#979696"/>
</svg>
