<svg width="242" height="40" viewBox="0 0 242 40" fill="none" xmlns="http://www.w3.org/2000/svg">
<path d="M62.7937 13.2751C61.4118 12.1609 59.6706 11.5793 57.8906 11.6376H50.8701V30.4626H55.2942V24.1001H59.0754C59.478 24.1018 59.8795 24.0599 60.2728 23.9751H60.4997C61.8496 23.5593 63.001 22.6707 63.739 21.4751C64.4518 20.4467 64.822 19.2228 64.7977 17.9751C64.8549 17.0911 64.7035 16.2061 64.3557 15.3902C64.0078 14.5744 63.473 13.8502 62.7937 13.2751ZM60.2728 17.8751C60.2973 18.1729 60.2521 18.4722 60.1405 18.7498C60.029 19.0274 59.8543 19.2756 59.63 19.4751C59.0315 19.895 58.3076 20.102 57.5755 20.0626H55.2816V15.6626H57.626C58.3572 15.6128 59.082 15.8258 59.6678 16.2626C59.8969 16.4621 60.0764 16.7115 60.1923 16.9912C60.3082 17.2709 60.3573 17.5734 60.3358 17.8751H60.2728ZM221.077 13.2751C219.69 12.161 217.945 11.5797 216.161 11.6376H209.141V30.4626H213.565V24.1001H217.346C217.77 24.1065 218.192 24.0646 218.606 23.9751H218.846C220.191 23.5556 221.337 22.6675 222.073 21.4751C222.785 20.4467 223.156 19.2228 223.131 17.9751C223.18 17.0872 223.02 16.2003 222.664 15.3845C222.307 14.5687 221.764 13.8464 221.077 13.2751ZM218.556 17.8751C218.581 18.1741 218.535 18.4747 218.421 18.7526C218.307 19.0306 218.129 19.278 217.901 19.4751C217.308 19.8968 216.587 20.1041 215.859 20.0626H213.514V15.6626H215.859C216.586 15.6113 217.308 15.8246 217.888 16.2626C218.119 16.4603 218.3 16.7093 218.417 16.9895C218.533 17.2697 218.58 17.5731 218.556 17.8751ZM87.271 13.7501C85.4284 11.9583 82.9507 10.9546 80.3702 10.9546C77.7896 10.9546 75.312 11.9583 73.4694 13.7501C71.7021 15.6426 70.7203 18.1269 70.7203 20.7063C70.7203 23.2857 71.7021 25.7701 73.4694 27.6626C75.3288 29.4466 77.8146 30.4439 80.4017 30.4439C82.9888 30.4439 85.4746 29.4466 87.334 27.6626C89.0958 25.7674 90.074 23.2841 90.074 20.7063C90.074 18.1286 89.0958 15.6453 87.334 13.7501H87.271ZM84.0695 24.7626C83.5848 25.2441 83.0092 25.6261 82.3755 25.8867C81.7418 26.1474 81.0625 26.2815 80.3765 26.2815C79.6904 26.2815 79.0112 26.1474 78.3775 25.8867C77.7438 25.6261 77.1681 25.2441 76.6835 24.7626C75.7487 23.6284 75.238 22.2086 75.238 20.7438C75.238 19.279 75.7487 17.8592 76.6835 16.7251C77.1607 16.2406 77.7299 15.8545 78.3582 15.589C78.9865 15.3235 79.6615 15.1838 80.3445 15.178C81.0274 15.1722 81.7048 15.3003 82.3376 15.5551C82.9704 15.8099 83.5461 16.1863 84.0317 16.6626V16.7251C84.9732 17.8562 85.4882 19.2771 85.4882 20.7438C85.4882 22.2105 84.9732 23.6315 84.0317 24.7626H84.0695ZM200.33 13.7501C198.488 11.962 196.013 10.9607 193.436 10.9607C190.858 10.9607 188.383 11.962 186.541 13.7501C184.774 15.6426 183.792 18.1269 183.792 20.7063C183.792 23.2857 184.774 25.7701 186.541 27.6626C188.399 29.4495 190.886 30.4488 193.474 30.4488C196.062 30.4488 198.548 29.4495 200.406 27.6626C202.173 25.7701 203.155 23.2857 203.155 20.7063C203.155 18.1269 202.173 15.6426 200.406 13.7501H200.33ZM197.129 24.7126C196.645 25.1937 196.071 25.5754 195.438 25.8359C194.805 26.0964 194.127 26.2305 193.442 26.2305C192.757 26.2305 192.079 26.0964 191.446 25.8359C190.814 25.5754 190.239 25.1937 189.755 24.7126C188.821 23.5784 188.31 22.1586 188.31 20.6938C188.31 19.229 188.821 17.8092 189.755 16.6751C190.233 16.1906 190.802 15.8045 191.43 15.539C192.058 15.2735 192.734 15.1338 193.416 15.128C194.099 15.1222 194.777 15.2503 195.41 15.5051C196.042 15.7599 196.618 16.1363 197.104 16.6126L197.167 16.6751C198.12 17.8009 198.642 19.2238 198.642 20.6938C198.642 22.1638 198.12 23.5868 197.167 24.7126H197.129ZM240.638 11.6376H228.98V30.4626H233.429V15.7001H239.29L239.504 15.3751L241.256 12.7626L242 11.6376H240.638ZM179.118 11.6376H163.526V15.7001H169.463V30.4626H173.937V15.7001H179.874V11.6376H179.118ZM109.656 25.5501L109.24 25.3501L108.874 25.6376C108.002 26.2881 106.927 26.6153 105.837 26.5626C105.092 26.5964 104.348 26.4748 103.653 26.2057C102.958 25.9365 102.328 25.5258 101.804 25.0001C101.278 24.4466 100.87 23.794 100.604 23.0811C100.337 22.3682 100.218 21.6095 100.253 20.8501C100.218 20.1019 100.337 19.3543 100.603 18.6535C100.87 17.9527 101.278 17.3134 101.804 16.7751C102.325 16.2564 102.949 15.8507 103.637 15.5839C104.325 15.3171 105.061 15.1949 105.799 15.2251C106.452 15.2335 107.097 15.3783 107.69 15.6501C108.34 15.9426 108.92 16.3686 109.391 16.9001L109.832 17.4251L110.374 17.0126L112.404 15.5001L113.021 15.0376L112.53 14.4626C111.722 13.4517 110.693 12.6369 109.52 12.0802C108.347 11.5235 107.062 11.2396 105.761 11.2501C104.444 11.2407 103.136 11.4738 101.904 11.9376C100.721 12.3791 99.6438 13.0602 98.7407 13.9376C97.8161 14.8109 97.0937 15.8728 96.6233 17.0501C96.1398 18.2417 95.8958 19.5156 95.9048 20.8001C95.9006 22.0818 96.1357 23.3532 96.598 24.5501C97.056 25.7134 97.7414 26.7754 98.6147 27.6751C99.5076 28.562 100.582 29.2483 101.766 29.6876C103.043 30.1429 104.392 30.3673 105.749 30.3501C106.858 30.4022 107.966 30.237 109.011 29.8638C110.056 29.4906 111.016 28.9167 111.836 28.1751C111.993 28.0299 112.14 27.8755 112.278 27.7126L112.895 27.0001L112.038 26.5876L109.656 25.5501ZM135.293 17.0626C134.81 15.8981 134.091 14.8445 133.18 13.9672C132.27 13.0899 131.187 12.4075 129.999 11.9626C128.79 11.511 127.51 11.2782 126.218 11.2751C124.916 11.2651 123.63 11.5505 122.457 12.1095C121.284 12.6685 120.255 13.4862 119.449 14.5001L118.958 15.0876L119.575 15.5376L121.592 17.0501L122.147 17.4626L122.588 16.9501C123.056 16.4201 123.631 15.9941 124.277 15.7001C124.869 15.4278 125.514 15.287 126.167 15.2876C126.907 15.2509 127.646 15.3688 128.336 15.6337C129.027 15.8986 129.653 16.3045 130.176 16.8251L130.579 17.2751C130.602 17.3347 130.641 17.3867 130.692 17.4251C131.162 18.0805 131.476 18.8325 131.612 19.6251H124.214L124.983 20.7501L126.331 22.7376L126.546 23.0501H131.335C131.079 23.8056 130.647 24.4908 130.075 25.0501C129.551 25.5777 128.922 25.9897 128.227 26.259C127.531 26.5283 126.787 26.6488 126.041 26.6126C124.954 26.6688 123.883 26.3411 123.016 25.6876L122.651 25.4001L122.235 25.6001L119.828 26.7626L118.97 27.1751L119.588 27.8876C119.739 28.0626 119.891 28.2001 120.029 28.3501C120.85 29.0917 121.81 29.6656 122.855 30.0388C123.899 30.412 125.008 30.5772 126.117 30.5251C127.474 30.5442 128.823 30.3197 130.1 29.8626C131.281 29.4267 132.353 28.7398 133.238 27.8501C134.12 26.9542 134.81 25.8914 135.268 24.7251C135.73 23.5282 135.965 22.2568 135.961 20.9751C135.999 19.6401 135.772 18.3108 135.293 17.0626ZM159.19 29.4751L151.981 12.1126L151.804 11.6626H147.683L147.506 12.1126L140.347 29.4751L139.931 30.4751H144.973L145.149 30.0126L149.8 18.6001L154.413 30.0001L154.602 30.4626H159.644L159.19 29.4751Z" fill="#979696"/>
<path d="M18.1626 21.9876H0C0.123442 23.2936 0.381063 24.5836 0.768854 25.8376H11.5328L4.5249 32.7876C5.34399 33.7872 6.26476 34.7003 7.2726 35.5126L14.2805 28.5626V39.2376C15.545 39.6222 16.8458 39.8777 18.1626 40.0001V21.9876ZM40.2199 21.9876H22.0573V40.0001C23.3741 39.8777 24.6749 39.6222 25.9394 39.2376V25.8376H35.2917C34.5279 27.7941 33.3894 29.5854 31.939 31.1126V36.2501C35.5001 33.6802 38.1197 30.0291 39.4006 25.8501V25.7751C39.4763 25.5376 39.5393 25.2876 39.6023 25.0376C39.6066 24.9711 39.6066 24.9042 39.6023 24.8376C39.6779 24.5626 39.7283 24.3001 39.7914 24.0376V23.8126C39.7914 23.5876 39.8796 23.3626 39.9174 23.1251C39.912 23.0586 39.912 22.9917 39.9174 22.9251C39.9174 22.7126 39.9804 22.5001 40.0056 22.2876C40.0678 22.1815 40.1396 22.0811 40.2199 21.9876ZM20.1667 0.000151485C15.1123 -0.0193473 10.2348 1.84417 6.49995 5.22169C2.76515 8.59922 0.445384 13.2445 0 18.2376H13.7385L15.9065 14.4001H4.8274C5.16551 13.4767 5.58738 12.5855 6.08781 11.7376H17.4316L19.5995 7.88765H9.33969C12.3131 5.28382 16.1432 3.84684 20.1099 3.84684C24.0767 3.84684 27.9068 5.28382 30.8802 7.88765H20.6456L22.8135 11.7376H34.1573C34.6574 12.5857 35.0792 13.4768 35.4177 14.4001H24.326L26.4688 18.2376H40.2073C39.7638 13.266 37.4619 8.63842 33.7538 5.26394C30.0457 1.88945 25.1993 0.0119288 20.1667 0.000151485Z" fill="#979696"/>
</svg>
