<svg width="140" height="50" viewBox="0 0 140 50" fill="none" xmlns="http://www.w3.org/2000/svg">
<path d="M13.7012 0.30127L20.8314 7.35965V13.0382V28.1102H41.7943L48.9058 35.404H13.7012V0.30127Z" fill="white"/>
<path d="M6.77441 7.78363H13.6916H41.779V27.8424H35.1267V14.0459H13.6916V35.2901H41.779V38.7087V42.15H6.77441V7.78363Z" fill="#005596"/>
<path d="M6.77441 7.78363H13.6916H41.779V28.1044H37.8114L33.8792 27.8424V21.1756V15.1931H13.6916V35.2901H41.779V38.7086V42.15L36.7126 35.2901H13.6916V15.1931L6.77441 7.78363Z" fill="#0083CB"/>
<path d="M0.603516 14.3232H7.80306L36.087 14.3232V18.0258V20.9057V28.1002H29.2876V20.9057H7.80306V42.0929H36.087V49.0868H0.603516V14.3232Z" fill="#822B2C"/>
<path d="M0.603516 14.3232H7.80306L36.087 14.3232V18.0258V20.9057V28.1002H29.2876V20.9057H7.80306V42.0929H36.087V49.0868L29.2876 42.0929H7.80306V20.9057L0.603516 14.3232Z" fill="#C93E32"/>
<path d="M48.9053 35.4047L41.775 28.3464V22.6678V7.59576H20.8122L13.7007 0.30204H48.9053V35.4047Z" fill="#D1D2D4"/>
<path d="M53.3011 14.3232H54.7279V19.2269H55.1707L58.9592 14.3232H60.6649L56.4828 19.3909C57.3356 19.5003 57.9861 19.79 58.4344 20.2602C58.8827 20.7303 59.2654 21.3918 59.5825 22.2446C59.659 22.4633 59.7793 22.8077 59.9433 23.2778C60.1182 23.7371 60.2658 24.1307 60.3861 24.4587C60.5173 24.7758 60.654 25.0819 60.7961 25.3771H59.2708C59.1068 25.0819 58.7679 24.2127 58.254 22.7694C57.9697 21.9494 57.6035 21.3371 57.1552 20.9326C56.7069 20.5171 56.0509 20.3094 55.1871 20.3094H54.7279V25.3771H53.3011V14.3232Z" fill="#465A65"/>
<path d="M65.3881 25.5575H65.3717C64.2783 25.5575 63.3708 25.1858 62.6492 24.4423C61.9276 23.6879 61.5668 22.6984 61.5668 21.4738C61.5668 20.1836 61.9385 19.1613 62.682 18.4069C63.4364 17.6415 64.3767 17.2589 65.5029 17.2589C66.64 17.2589 67.5584 17.6361 68.2582 18.3905C68.9689 19.1449 69.3242 20.1235 69.3242 21.3262C69.3242 22.7038 68.9306 23.7535 68.1434 24.4751C67.3562 25.1967 66.4377 25.5575 65.3881 25.5575ZM65.4209 24.4751H65.4373C66.1261 24.4751 66.7001 24.1853 67.1593 23.6059C67.6186 23.0154 67.8482 22.2719 67.8482 21.3754C67.8482 20.5991 67.6459 19.8993 67.2414 19.2761C66.8477 18.6529 66.2573 18.3413 65.4701 18.3413C64.6829 18.3413 64.0815 18.6474 63.666 19.2597C63.2506 19.872 63.0428 20.5936 63.0428 21.4246C63.0428 22.2993 63.267 23.0264 63.7152 23.6059C64.1635 24.1853 64.7321 24.4751 65.4209 24.4751Z" fill="#465A65"/>
<path d="M71.0926 17.4393H77.6692V25.3771H76.226V18.5709H72.5359V25.3771H71.0926V17.4393Z" fill="#465A65"/>
<path d="M80.0148 28.6244V20.0305C80.0148 18.97 79.9929 18.1062 79.9492 17.4393H81.2448L81.3268 18.8005H81.3596C81.961 17.7727 82.8958 17.2589 84.1641 17.2589C85.1372 17.2589 85.9408 17.6361 86.575 18.3905C87.22 19.134 87.5426 20.1016 87.5426 21.2934C87.5426 22.6492 87.1872 23.6988 86.4766 24.4423C85.7768 25.1858 84.9294 25.5575 83.9345 25.5575C82.8083 25.5575 81.9938 25.142 81.4908 24.3111H81.458V28.6244H80.0148ZM81.458 20.7686V22.1462C81.458 22.3758 81.4799 22.5726 81.5236 22.7366C81.6439 23.2396 81.9008 23.6496 82.2944 23.9667C82.699 24.2728 83.1582 24.4259 83.6721 24.4259C84.4265 24.4259 85.0169 24.1471 85.4433 23.5895C85.8697 23.0318 86.0829 22.2883 86.0829 21.359C86.0829 20.528 85.8752 19.8283 85.4597 19.2597C85.0442 18.6912 84.4702 18.4069 83.7377 18.4069C83.2347 18.4069 82.7755 18.5709 82.36 18.8989C81.9555 19.2269 81.6821 19.6588 81.54 20.1946C81.4853 20.5007 81.458 20.692 81.458 20.7686Z" fill="#465A65"/>
<path d="M92.5994 25.5575H92.583C91.4897 25.5575 90.5822 25.1858 89.8606 24.4423C89.1389 23.6879 88.7781 22.6984 88.7781 21.4738C88.7781 20.1836 89.1499 19.1613 89.8934 18.4069C90.6478 17.6415 91.5881 17.2589 92.7142 17.2589C93.8513 17.2589 94.7698 17.6361 95.4695 18.3905C96.1802 19.1449 96.5356 20.1235 96.5356 21.3262C96.5356 22.7038 96.1419 23.7535 95.3547 24.4751C94.5675 25.1967 93.6491 25.5575 92.5994 25.5575ZM92.6322 24.4751H92.6486C93.3375 24.4751 93.9115 24.1853 94.3707 23.6059C94.8299 23.0154 95.0595 22.2719 95.0595 21.3754C95.0595 20.5991 94.8572 19.8993 94.4527 19.2761C94.0591 18.6529 93.4687 18.3413 92.6814 18.3413C91.8942 18.3413 91.2929 18.6474 90.8774 19.2597C90.4619 19.872 90.2542 20.5936 90.2542 21.4246C90.2542 22.2993 90.4783 23.0264 90.9266 23.6059C91.3749 24.1853 91.9434 24.4751 92.6322 24.4751Z" fill="#465A65"/>
<path d="M98.3532 28.6244V20.0305C98.3532 18.97 98.3313 18.1062 98.2876 17.4393H99.5832L99.6652 18.8005H99.698C100.299 17.7727 101.234 17.2589 102.503 17.2589C103.476 17.2589 104.279 17.6361 104.913 18.3905C105.558 19.134 105.881 20.1016 105.881 21.2934C105.881 22.6492 105.526 23.6988 104.815 24.4423C104.115 25.1858 103.268 25.5575 102.273 25.5575C101.147 25.5575 100.332 25.142 99.8292 24.3111H99.7964V28.6244H98.3532ZM99.7964 20.7686V22.1462C99.7964 22.3758 99.8183 22.5726 99.862 22.7366C99.9823 23.2396 100.239 23.6496 100.633 23.9667C101.037 24.2728 101.497 24.4259 102.01 24.4259C102.765 24.4259 103.355 24.1471 103.782 23.5895C104.208 23.0318 104.421 22.2883 104.421 21.359C104.421 20.528 104.214 19.8283 103.798 19.2597C103.383 18.6912 102.809 18.4069 102.076 18.4069C101.573 18.4069 101.114 18.5709 100.698 18.8989C100.294 19.2269 100.021 19.6588 99.8784 20.1946C99.8238 20.5007 99.7964 20.692 99.7964 20.7686Z" fill="#465A65"/>
<path d="M113.283 20.5062V23.4747C113.283 24.24 113.321 24.8742 113.398 25.3771H112.102L111.971 24.3767H111.922C111.692 24.7156 111.364 24.9999 110.938 25.2295C110.511 25.4482 110.03 25.5575 109.495 25.5575C108.729 25.5575 108.133 25.3334 107.707 24.8851C107.281 24.4368 107.067 23.9011 107.067 23.2778C107.067 22.3157 107.477 21.5831 108.297 21.0802C109.128 20.5663 110.309 20.3148 111.84 20.3258V20.1618C111.84 19.954 111.818 19.7627 111.774 19.5877C111.741 19.4019 111.665 19.2051 111.545 18.9973C111.435 18.7896 111.249 18.6256 110.987 18.5053C110.736 18.385 110.419 18.3249 110.036 18.3249C109.227 18.3249 108.532 18.5217 107.953 18.9153L107.625 17.9477C108.358 17.4885 109.232 17.2589 110.249 17.2589C112.272 17.2589 113.283 18.3413 113.283 20.5062ZM111.873 22.7038V21.3262C109.631 21.2825 108.511 21.8783 108.511 23.1138C108.511 23.5621 108.636 23.9065 108.888 24.1471C109.15 24.3767 109.473 24.4915 109.855 24.4915C110.347 24.4915 110.763 24.3657 111.102 24.1143C111.441 23.8519 111.676 23.5348 111.807 23.163C111.851 23.0318 111.873 22.8788 111.873 22.7038Z" fill="#465A65"/>
<path d="M115.553 17.4393H116.997V24.2455H120.654V17.4393H122.097V24.2947L122.901 24.3111L122.819 27.8864H121.704L121.638 25.3771H115.553V17.4393Z" fill="#465A65"/>
<path d="M124.57 17.4393H125.948V20.785C125.948 21.769 125.915 22.835 125.85 23.9831H125.899C126.588 22.6492 127.02 21.8346 127.194 21.5394L129.671 17.4393H131.36V25.3771H129.983V21.9986C129.983 21.113 130.015 20.0305 130.081 18.7513H130.048C129.545 19.7463 129.102 20.5718 128.72 21.2278C128.435 21.6979 127.993 22.436 127.391 23.4418C126.801 24.4368 126.418 25.0819 126.243 25.3771H124.57V17.4393Z" fill="#465A65"/>
<path d="M139.554 17.5049V25.3771H138.127V22.0478H137.061C136.504 22.0478 136.066 22.1954 135.749 22.4906C135.607 22.6 135.476 22.753 135.356 22.9498C135.235 23.1466 135.142 23.327 135.077 23.491C135.011 23.6441 134.929 23.8573 134.831 24.1307C134.732 24.404 134.661 24.6008 134.618 24.7211C134.541 24.9179 134.432 25.1366 134.29 25.3771H132.748C132.934 25.1038 133.098 24.8031 133.24 24.4751C133.295 24.3657 133.393 24.1143 133.535 23.7207C133.677 23.3161 133.819 22.9881 133.962 22.7366C134.104 22.4742 134.279 22.2555 134.486 22.0806C134.749 21.851 135.049 21.6979 135.388 21.6214V21.5886C134.82 21.523 134.328 21.3207 133.912 20.9818C133.497 20.6428 133.289 20.1836 133.289 19.6041C133.289 18.8497 133.639 18.2757 134.339 17.8821C134.962 17.5213 135.853 17.3409 137.012 17.3409C137.788 17.3409 138.636 17.3955 139.554 17.5049ZM138.127 21.0638V18.3905C137.723 18.3358 137.324 18.3085 136.93 18.3085C136.569 18.3085 136.236 18.3468 135.93 18.4233C135.634 18.4889 135.367 18.631 135.126 18.8497C134.896 19.0684 134.782 19.3472 134.782 19.6861C134.782 20.1454 135.006 20.4952 135.454 20.7358C135.902 20.9654 136.383 21.0802 136.897 21.0802C137.127 21.0802 137.367 21.0802 137.619 21.0802C137.87 21.0692 138.04 21.0638 138.127 21.0638Z" fill="#465A65"/>
<path d="M62.879 45.0577L62.6165 40.2031C62.4963 37.9617 62.4361 36.3709 62.4361 35.4306H62.4033C61.8785 37.1253 61.4138 38.5248 61.0093 39.6291L59.0576 44.9921H57.9752L56.1712 39.7275C55.6245 38.0984 55.2035 36.6661 54.9083 35.4306H54.8755C54.8427 36.8738 54.7716 38.503 54.6623 40.3179L54.3671 45.0577H53.0059L53.7767 34.0038H55.5971L57.4832 39.3503C57.9096 40.6296 58.2813 41.876 58.5984 43.0896H58.6312C58.9046 42.04 59.2982 40.7936 59.8121 39.3503L61.7801 34.0038H63.6006L64.2894 45.0577H62.879Z" fill="#465A65"/>
<path d="M73.9117 43.5488L74.1905 44.6969C73.5127 45.0467 72.5396 45.2217 71.2713 45.2217C69.664 45.2217 68.352 44.7297 67.3351 43.7456C66.3292 42.7616 65.8263 41.3894 65.8263 39.6291C65.8263 37.9016 66.3566 36.5076 67.4171 35.447C68.4886 34.3755 69.8827 33.8398 71.5993 33.8398C72.6817 33.8398 73.5564 33.9983 74.2233 34.3154L73.8625 35.4962C73.2502 35.1901 72.5122 35.037 71.6485 35.037C70.3364 35.037 69.2868 35.4415 68.4996 36.2506C67.7233 37.0488 67.3351 38.1585 67.3351 39.5799C67.3351 40.9466 67.7069 42.0291 68.4504 42.8272C69.2048 43.6144 70.2435 44.0081 71.5665 44.0081C72.4958 44.0081 73.2776 43.855 73.9117 43.5488Z" fill="#465A65"/>
<path d="M75.9795 34.0038H83.9993V45.0577H82.5561V35.201H77.4227V45.0577H75.9795V34.0038Z" fill="#465A65"/>
</svg>
