<svg width="264" height="45" viewBox="0 0 264 45" fill="none" xmlns="http://www.w3.org/2000/svg">
<path d="M17.215 36.2655H20.1267L12.0092 5.38343H9.00918L0.891602 36.2655H3.80334L5.61215 29.0303H15.4062L17.215 36.2655ZM6.22979 26.5597L9.40623 13.7657C9.89152 11.8687 10.3327 9.6628 10.465 8.91281H10.5533C10.6856 9.6628 11.1268 11.8687 11.6121 13.7657L14.7885 26.5597H6.22979Z" fill="#333333"/>
<path d="M35.1269 36.2655H38.2593L29.0829 22.4568L37.1122 13.1039H33.8034L25.0241 23.4274V4.32461H22.4212V36.2655H25.0241V27.0009L27.3182 24.4862L35.1269 36.2655Z" fill="#333333"/>
<path d="M48.7064 12.6187C45.8388 12.6187 43.8535 13.9863 42.6624 16.0598V16.0157L42.2212 13.1039H40.0595V36.2655H42.6624V22.2362C42.6624 17.8245 44.8241 15.1775 48.1329 15.1775C49.28 15.1775 50.2064 15.3539 51.0447 15.6628V12.8392C50.3388 12.6628 49.5888 12.6187 48.7064 12.6187Z" fill="#333333"/>
<path d="M60.3641 36.7949C64.9964 36.7949 68.0846 33.8391 68.0846 28.4126V20.9568C68.0846 15.5304 64.9964 12.5745 60.3641 12.5745C55.7318 12.5745 52.6436 15.5304 52.6436 20.9568V28.4126C52.6436 33.8391 55.7318 36.7949 60.3641 36.7949ZM60.3641 34.2361C57.2318 34.2361 55.2906 32.4273 55.2906 28.4126V20.9568C55.2906 16.9422 57.2318 15.1333 60.3641 15.1333C63.4964 15.1333 65.4376 16.9422 65.4376 20.9568V28.4126C65.4376 32.4273 63.4964 34.2361 60.3641 34.2361Z" fill="#333333"/>
<path d="M80.1751 12.5745C78.1016 12.5745 76.0722 13.4128 74.7928 15.1775V4.32461H72.234V36.2655H74.3517L74.7046 34.1038C75.9399 35.8243 77.9252 36.7949 80.1751 36.7949C84.3663 36.7949 87.3663 33.7949 87.3663 27.9273V21.2656C87.3663 15.5304 84.631 12.5745 80.1751 12.5745ZM84.7192 27.9273C84.7192 32.4714 82.8222 34.3685 79.6016 34.3685C76.9546 34.3685 74.7928 32.3391 74.7928 28.0156V21.2656C74.7928 17.5598 76.6899 15.001 79.6016 15.001C82.9986 15.001 84.7192 16.8539 84.7192 21.2656V27.9273Z" fill="#333333"/>
<path d="M98.3035 12.5745C94.0242 12.5745 91.1566 15.1775 90.9801 19.148H93.583C93.7595 16.5892 95.5683 15.0892 98.2153 15.0892C101.215 15.0892 102.804 16.898 102.804 20.2951V22.7656H98.2153C93.1418 22.7656 90.2742 25.2362 90.2742 29.692C90.2742 34.192 93.3624 36.7949 97.5977 36.7949C100.112 36.7949 101.877 35.6479 102.936 34.1038L103.156 36.2655H105.406V20.2509C105.406 15.5304 102.715 12.5745 98.3035 12.5745ZM97.9947 34.2361C94.9948 34.2361 92.9212 32.7803 92.9212 29.7362C92.9212 26.7803 94.73 25.1921 98.1271 25.1921H102.804V29.7362C102.804 32.3832 100.951 34.2361 97.9947 34.2361Z" fill="#333333"/>
<path d="M118.124 34.0155C115.389 34.0155 114.153 32.4273 114.153 29.3832V15.5304H118.918V13.1039H114.153V7.76576H111.55V13.1039H108.021V15.5304H111.55V29.3832C111.55 33.8391 113.889 36.4861 118.124 36.4861H119.447V34.0155H118.124Z" fill="#333333"/>
<path d="M137.994 41.5596V39.0449C135.744 38.8243 134.244 37.0596 134.244 34.3685V7.23635C134.244 4.5452 135.744 2.78051 137.994 2.60404V0.0893555C134.2 0.309942 131.597 3.22168 131.597 7.23635V34.3685C131.597 38.4273 134.2 41.339 137.994 41.5596Z" fill="#333333"/>
<path d="M154.808 36.2655H157.984L150.396 24.045C154.631 23.2509 157.19 19.8098 157.19 14.4275C157.19 8.69222 154.058 5.38343 148.367 5.38343H141.308V36.2655H144.043V24.2215H147.44L154.808 36.2655ZM144.043 7.94223H148.367C152.337 7.94223 154.411 10.1922 154.411 14.6039C154.411 19.148 152.337 21.6627 148.323 21.6627H144.043V7.94223Z" fill="#333333"/>
<path d="M172.968 29.1626C172.615 32.5597 170.938 34.1479 167.586 34.1479C164.541 34.1479 162.689 32.3391 162.689 28.4568V25.9421H175.262V20.8245C175.262 15.5304 172.174 12.5745 167.541 12.5745C163.041 12.5745 160.042 15.5304 160.042 20.8245V28.4568C160.042 33.7508 162.997 36.7067 167.497 36.7067C172.35 36.7067 175.218 34.0155 175.571 29.1626H172.968ZM167.586 15.1333C170.762 15.1333 172.659 16.9422 172.659 20.8245V23.5156H162.689V20.8245C162.689 16.9422 164.541 15.1333 167.586 15.1333Z" fill="#333333"/>
<path d="M191.815 13.1039L191.462 15.4422C190.226 13.5892 188.418 12.5745 186.168 12.5745C181.8 12.5745 178.8 15.5745 178.8 21.3539V27.3097C178.8 32.6038 181.8 35.5596 186.256 35.5596C188.418 35.5596 190.182 34.8096 191.373 33.3538V37.8537C191.373 40.6772 189.565 42.3537 186.609 42.3537C183.741 42.3537 181.976 40.8537 181.756 38.0743H179.241C179.462 42.1772 182.329 44.7801 186.609 44.7801C191.065 44.7801 193.976 42.0008 193.976 37.8537V13.1039H191.815ZM186.697 33.0891C183.432 33.0891 181.447 31.2361 181.447 27.3097V21.3539C181.447 16.898 183.432 15.0451 186.697 15.0451C189.256 15.0451 191.373 16.898 191.373 20.9127V27.3097C191.373 31.2361 189.609 33.0891 186.697 33.0891Z" fill="#333333"/>
<path d="M210.648 13.1039V27.1332C210.648 31.6332 208.53 34.3243 205.31 34.3243C202.266 34.3243 201.03 32.2067 201.03 27.5303V13.1039H198.427V27.9273C198.427 34.2802 200.898 36.7949 204.648 36.7949C207.471 36.7949 209.457 35.4714 210.648 33.3979L211.089 36.2655H213.251V13.1039H210.648Z" fill="#333333"/>
<path d="M218.1 36.2655H220.703V4.36873H218.1V36.2655Z" fill="#333333"/>
<path d="M232.361 12.5745C228.082 12.5745 225.214 15.1775 225.038 19.148H227.641C227.817 16.5892 229.626 15.0892 232.273 15.0892C235.273 15.0892 236.861 16.898 236.861 20.2951V22.7656H232.273C227.2 22.7656 224.332 25.2362 224.332 29.692C224.332 34.192 227.42 36.7949 231.656 36.7949C234.17 36.7949 235.935 35.6479 236.994 34.1038L237.214 36.2655H239.464V20.2509C239.464 15.5304 236.773 12.5745 232.361 12.5745ZM232.053 34.2361C229.053 34.2361 226.979 32.7803 226.979 29.7362C226.979 26.7803 228.788 25.1921 232.185 25.1921H236.861V29.7362C236.861 32.3832 235.008 34.2361 232.053 34.2361Z" fill="#333333"/>
<path d="M252.844 12.6187C249.976 12.6187 247.991 13.9863 246.799 16.0598V16.0157L246.358 13.1039H244.197V36.2655H246.799V22.2362C246.799 17.8245 248.961 15.1775 252.27 15.1775C253.417 15.1775 254.344 15.3539 255.182 15.6628V12.8392C254.476 12.6628 253.726 12.6187 252.844 12.6187Z" fill="#333333"/>
<path d="M257.125 41.5596C260.919 41.339 263.522 38.4273 263.522 34.3685V7.23635C263.522 3.22168 260.919 0.309942 257.125 0.0893555V2.60404C259.375 2.78051 260.875 4.5452 260.875 7.23635V34.3685C260.875 37.0596 259.375 38.8243 257.125 39.0449V41.5596Z" fill="#333333"/>
</svg>
