<svg width="175" height="55" viewBox="0 0 175 55" fill="none" xmlns="http://www.w3.org/2000/svg">
<path d="M68.8069 9.01273H61.8401V22.0871H62.9982V10.096H67.6489V22.0871H68.8069V9.01273Z" fill="black"/>
<path d="M74.755 12.0572C73.8025 12.0572 72.962 12.4681 72.439 13.1965L72.2896 12.2813H71.3931V25.4491H72.4764V21.2093C73.018 21.9564 73.8772 22.3112 74.755 22.3112C76.6415 22.3112 77.7995 21.0598 77.7995 18.6317V15.8114C77.7995 13.3273 76.5294 12.0572 74.755 12.0572ZM76.6788 18.6317C76.6788 20.4995 75.9504 21.284 74.5122 21.284C73.2795 21.284 72.4764 20.2007 72.4764 18.6317V15.7741C72.4764 13.9436 73.3916 13.0845 74.5122 13.0845C75.8757 13.0845 76.6788 13.8876 76.6788 15.8114V18.6317Z" fill="black"/>
<path d="M82.8969 12.0572C81.0852 12.0572 79.8711 13.1592 79.7964 14.8402H80.8984C80.9731 13.7569 81.7389 13.1218 82.8596 13.1218C84.1296 13.1218 84.802 13.8876 84.802 15.3258V16.3717H82.8596C80.7116 16.3717 79.4976 17.4177 79.4976 19.3041C79.4976 21.2093 80.805 22.3112 82.5981 22.3112C83.6627 22.3112 84.4098 21.8256 84.8581 21.1719L84.9515 22.0871H85.904V15.3071C85.904 13.3086 84.7647 12.0572 82.8969 12.0572ZM82.7662 21.2279C81.4961 21.2279 80.6182 20.6116 80.6182 19.3228C80.6182 18.0714 81.384 17.399 82.8222 17.399H84.802V19.3228C84.802 20.4435 84.0176 21.2279 82.7662 21.2279Z" fill="black"/>
<path d="M92.8197 16.8947C93.5482 16.3904 93.9404 15.606 93.9404 14.9149C93.9404 13.3086 92.8571 12.3 90.952 12.3H88.3744V22.0871H91.2321C93.324 22.0871 94.426 21.0412 94.426 19.2668C94.426 18.2955 93.8283 17.2869 92.8197 16.8947ZM89.4577 13.346H90.9333C92.2034 13.346 92.8384 13.925 92.8384 14.9149C92.8384 15.8861 92.2034 16.4838 90.9333 16.4838H89.4577V13.346ZM91.2135 21.0412H89.4577V17.5298H91.2135C92.633 17.5298 93.324 18.1648 93.324 19.2668C93.324 20.4061 92.633 21.0412 91.2135 21.0412Z" fill="black"/>
<path d="M96.2723 22.0871H97.4117L100.456 15.9422C100.774 15.2884 101.11 14.5974 101.241 14.1678L101.278 14.1864C101.241 14.9709 101.203 15.7741 101.203 16.8013V22.0871H102.305V12.2813H101.166L98.028 18.6691C97.8413 19.0613 97.5424 19.7337 97.3743 20.126L97.337 20.0886C97.393 19.3602 97.3743 18.6131 97.3743 17.8846V12.2813H96.2723V22.0871Z" fill="black"/>
<path d="M109.722 12.2813H103.764V13.3086H106.192V22.0871H107.294V13.3086H109.722V12.2813Z" fill="black"/>
<path d="M115.985 19.08C115.835 20.5182 115.125 21.1906 113.706 21.1906C112.417 21.1906 111.633 20.4248 111.633 18.7812V17.7165H116.956V15.5499C116.956 13.3086 115.648 12.0572 113.687 12.0572C111.782 12.0572 110.512 13.3086 110.512 15.5499V18.7812C110.512 21.0225 111.763 22.2739 113.669 22.2739C115.723 22.2739 116.937 21.1346 117.087 19.08H115.985ZM113.706 13.1405C115.051 13.1405 115.854 13.9063 115.854 15.5499V16.6893H111.633V15.5499C111.633 13.9063 112.417 13.1405 113.706 13.1405Z" fill="black"/>
<path d="M118.024 22.1618C119.78 22.1618 120.434 20.6676 120.602 17.7165C120.658 16.6519 120.751 14.7841 120.788 13.3273H123.646V22.0871H124.748V12.2813H119.705C119.668 14.1117 119.63 15.7367 119.518 17.5484C119.388 19.5096 119.182 21.0972 118.024 21.0972V22.1618Z" fill="black"/>
<path d="M130.102 15.7367H128.309V12.2813H127.207V22.0871H130.102C131.877 22.0871 133.315 20.761 133.315 18.8932C133.315 17.0441 131.877 15.7367 130.102 15.7367ZM130.102 21.0225H128.309V16.8013H130.102C131.279 16.8013 132.194 17.6231 132.194 18.8932C132.194 20.182 131.279 21.0225 130.102 21.0225Z" fill="black"/>
<path d="M137.708 22.2739C139.651 22.2739 140.902 21.0225 140.958 18.7812H139.838C139.782 20.4248 139.016 21.1906 137.708 21.1906C136.457 21.1906 135.691 20.4248 135.691 18.7812V15.5499C135.691 13.9063 136.457 13.1405 137.708 13.1405C139.016 13.1405 139.763 13.9063 139.819 15.5499H140.94C140.884 13.3086 139.651 12.0572 137.708 12.0572C135.822 12.0572 134.571 13.3086 134.571 15.5499V18.7812C134.571 21.0225 135.822 22.2739 137.708 22.2739Z" fill="black"/>
<path d="M147.825 12.2813H141.867V13.3086H144.295V22.0871H145.397V13.3086H147.825V12.2813Z" fill="black"/>
<path d="M153.723 16.8947C154.451 16.3904 154.844 15.606 154.844 14.9149C154.844 13.3086 153.76 12.3 151.855 12.3H149.278V22.0871H152.135C154.227 22.0871 155.329 21.0412 155.329 19.2668C155.329 18.2955 154.731 17.2869 153.723 16.8947ZM150.361 13.346H151.836C153.107 13.346 153.742 13.925 153.742 14.9149C153.742 15.8861 153.107 16.4838 151.836 16.4838H150.361V13.346ZM152.117 21.0412H150.361V17.5298H152.117C153.536 17.5298 154.227 18.1648 154.227 19.2668C154.227 20.4061 153.536 21.0412 152.117 21.0412Z" fill="black"/>
<path d="M160.201 22.3112C162.162 22.3112 163.47 21.0598 163.47 18.7625V15.606C163.47 13.3086 162.162 12.0572 160.201 12.0572C158.24 12.0572 156.933 13.3086 156.933 15.606V18.7625C156.933 21.0598 158.24 22.3112 160.201 22.3112ZM160.201 21.2279C158.875 21.2279 158.053 20.4622 158.053 18.7625V15.606C158.053 13.9063 158.875 13.1405 160.201 13.1405C161.527 13.1405 162.349 13.9063 162.349 15.606V18.7625C162.349 20.4622 161.527 21.2279 160.201 21.2279Z" fill="black"/>
<path d="M67.5182 43.0995H68.7509L65.3142 30.0251H64.0441L60.6074 43.0995H61.8401L62.6059 40.0364H66.7524L67.5182 43.0995ZM62.8674 38.9904L64.2122 33.5739C64.4177 32.7708 64.6044 31.8369 64.6605 31.5194H64.6978C64.7539 31.8369 64.9406 32.7708 65.1461 33.5739L66.4909 38.9904H62.8674Z" fill="black"/>
<path d="M69.2323 43.1742C70.988 43.1742 71.6417 41.68 71.8098 38.7289C71.8658 37.6643 71.9592 35.7965 71.9966 34.3397H74.8543V43.0995H75.9563V33.2937H70.9133C70.8759 35.1241 70.8386 36.7491 70.7265 38.5608C70.5958 40.522 70.3903 42.1096 69.2323 42.1096V43.1742Z" fill="black"/>
<path d="M83.365 33.2937H77.4068V34.321H79.8349V43.0995H80.9369V34.321H83.365V33.2937Z" fill="black"/>
<path d="M87.694 33.0696C85.8823 33.0696 84.6682 34.1716 84.5935 35.8526H85.6955C85.7702 34.7693 86.536 34.1342 87.6567 34.1342C88.9267 34.1342 89.5991 34.9 89.5991 36.3382V37.3841H87.6567C85.5087 37.3841 84.2947 38.4301 84.2947 40.3165C84.2947 42.2217 85.6021 43.3237 87.3952 43.3237C88.4598 43.3237 89.2069 42.838 89.6552 42.1843L89.7486 43.0995H90.7011V36.3195C90.7011 34.321 89.5618 33.0696 87.694 33.0696ZM87.5633 42.2403C86.2932 42.2403 85.4153 41.624 85.4153 40.3352C85.4153 39.0838 86.1811 38.4114 87.6193 38.4114H89.5991V40.3352C89.5991 41.4559 88.8147 42.2403 87.5633 42.2403Z" fill="black"/>
<path d="M96.1973 31.7622C97.4861 31.7622 98.2519 30.9777 98.3079 29.5955H97.3367C97.2806 30.4174 96.9444 30.8283 96.1973 30.8283C95.4502 30.8283 95.114 30.4174 95.058 29.5955H94.0868C94.1428 30.9777 94.9086 31.7622 96.1973 31.7622ZM93.1715 43.0995H94.3109L97.3553 36.9546C97.6729 36.3008 98.0091 35.6098 98.1398 35.1802L98.1772 35.1989C98.1398 35.9833 98.1025 36.7865 98.1025 37.8137V43.0995H99.2044V33.2937H98.0651L94.9272 39.6815C94.7405 40.0737 94.4416 40.7461 94.2735 41.1384L94.2362 41.101C94.2922 40.3726 94.2735 39.6255 94.2735 38.897V33.2937H93.1715V43.0995Z" fill="black"/>
<path d="M104.566 43.2863C106.509 43.2863 107.76 42.0349 107.816 39.7936H106.696C106.64 41.4372 105.874 42.203 104.566 42.203C103.315 42.203 102.549 41.4372 102.549 39.7936V36.5623C102.549 34.9187 103.315 34.1529 104.566 34.1529C105.874 34.1529 106.621 34.9187 106.677 36.5623H107.798C107.742 34.321 106.509 33.0696 104.566 33.0696C102.68 33.0696 101.429 34.321 101.429 36.5623V39.7936C101.429 42.0349 102.68 43.2863 104.566 43.2863Z" fill="black"/>
<path d="M115.019 43.0995H116.383L112.33 37.5522L115.897 33.2937H114.478L112.292 35.9646C111.807 36.5623 111.321 37.16 110.835 37.739V33.2937H109.733V43.0995H110.835V39.3453L111.601 38.4114L115.019 43.0995Z" fill="black"/>
<path d="M120.274 43.3237C122.235 43.3237 123.543 42.0723 123.543 39.7749V36.6184C123.543 34.321 122.235 33.0696 120.274 33.0696C118.313 33.0696 117.005 34.321 117.005 36.6184V39.7749C117.005 42.0723 118.313 43.3237 120.274 43.3237ZM120.274 42.2403C118.948 42.2403 118.126 41.4746 118.126 39.7749V36.6184C118.126 34.9187 118.948 34.1529 120.274 34.1529C121.6 34.1529 122.422 34.9187 122.422 36.6184V39.7749C122.422 41.4746 121.6 42.2403 120.274 42.2403Z" fill="black"/>
<path d="M130.641 33.2937H125.766V43.0995H126.868V34.3584H130.641V33.2937Z" fill="black"/>
<path d="M134.757 43.3237C136.718 43.3237 138.025 42.0723 138.025 39.7749V36.6184C138.025 34.321 136.718 33.0696 134.757 33.0696C132.795 33.0696 131.488 34.321 131.488 36.6184V39.7749C131.488 42.0723 132.795 43.3237 134.757 43.3237ZM134.757 42.2403C133.43 42.2403 132.609 41.4746 132.609 39.7749V36.6184C132.609 34.9187 133.43 34.1529 134.757 34.1529C136.083 34.1529 136.904 34.9187 136.904 36.6184V39.7749C136.904 41.4746 136.083 42.2403 134.757 42.2403Z" fill="black"/>
<path d="M149.803 43.0995H151.166L147.113 37.5522L150.681 33.2937H149.261L147.076 35.9646C146.59 36.5623 146.105 37.16 145.619 37.739V33.2937H144.517V43.0995H145.619V39.3453L146.385 38.4114L149.803 43.0995Z" fill="black"/>
<path d="M155.759 33.0696C154.806 33.0696 153.966 33.4805 153.443 34.2089L153.293 33.2937H152.397V46.4615H153.48V42.2217C154.022 42.9688 154.881 43.3237 155.759 43.3237C157.645 43.3237 158.803 42.0723 158.803 39.6441V36.8238C158.803 34.3397 157.533 33.0696 155.759 33.0696ZM157.682 39.6441C157.682 41.5119 156.954 42.2964 155.516 42.2964C154.283 42.2964 153.48 41.2131 153.48 39.6441V36.7865C153.48 34.956 154.395 34.0969 155.516 34.0969C156.879 34.0969 157.682 34.9 157.682 36.8238V39.6441Z" fill="black"/>
<path d="M163.9 33.0696C162.089 33.0696 160.875 34.1716 160.8 35.8526H161.902C161.977 34.7693 162.742 34.1342 163.863 34.1342C165.133 34.1342 165.806 34.9 165.806 36.3382V37.3841H163.863C161.715 37.3841 160.501 38.4301 160.501 40.3165C160.501 42.2217 161.809 43.3237 163.602 43.3237C164.666 43.3237 165.413 42.838 165.862 42.1843L165.955 43.0995H166.908V36.3195C166.908 34.321 165.768 33.0696 163.9 33.0696ZM163.77 42.2403C162.5 42.2403 161.622 41.624 161.622 40.3352C161.622 39.0838 162.388 38.4114 163.826 38.4114H165.806V40.3352C165.806 41.4559 165.021 42.2403 163.77 42.2403Z" fill="black"/>
<path d="M171.806 33.2937C169.938 33.2937 168.706 34.5451 168.706 36.4129C168.706 38.0192 169.509 39.1959 170.741 39.4574L168.369 43.0995H169.677L171.918 39.5134H173.412V43.0995H174.514V33.2937H171.806ZM173.412 38.4861H171.694C170.461 38.4861 169.826 37.739 169.826 36.4129C169.826 35.1241 170.555 34.3584 171.806 34.3584H173.412V38.4861Z" fill="black"/>
<path d="M31.2131 44.1277C29.0912 44.0318 27.7672 46.0982 23.8121 44.5898C23.235 44.3631 22.4881 44.0928 21.6988 44.1277L21.529 43.8836L21.0198 44.2411L21.215 44.5288L20.6633 43.8487L20.6293 43.3866L20.3153 43.4128L20.2304 43.3169L20.1201 43.4128C19.9588 43.2558 19.7891 43.1512 19.6194 43.0814L19.5599 42.4711L18.9404 42.5321L18.9658 42.8199C18.6773 43.1338 18.8725 42.9768 18.533 43.0814L18.1426 41.5905L17.5399 41.7561L17.8964 43.0989L17.6842 42.9245L16.9289 40.7709L16.3432 40.9889L16.7421 42.1136L16.6657 42.0439L15.7152 39.9513L15.155 40.2129L15.2993 40.5355L14.5354 39.1579L14.1195 39.4107C14.0941 39.3933 14.0686 39.3846 14.0347 39.3846L13.3981 38.4342L12.8889 38.7917L13.2199 39.28C13.0247 39.28 12.821 39.2887 12.5918 39.3061L12.9822 38.2162L12.9737 38.0157L12.6427 37.2833L13.3896 35.1907L12.8125 34.9728L12.2778 36.4812L12.0656 35.9929L12.804 33.8916L12.2269 33.6736L11.6922 35.182L11.4885 34.7373L11.8789 32.4791L11.2763 32.3745L11.0386 33.7434L10.9283 33.4905L11.1235 31.2061L10.5039 31.1451L10.4021 32.3396L10.3596 32.2524V29.9332H9.74855V30.2732L9.61275 28.7125L9.07805 28.7648L8.87435 27.5529L8.76401 27.5442C8.84889 27.4047 8.94225 27.2477 9.02712 27.0908C9.29023 26.6199 9.55334 26.1055 9.7825 25.5998L11.1575 24.9721L10.9028 24.3966L10.139 24.7541L10.4106 24.0827L11.4715 23.3067L11.1235 22.7836L10.7755 23.0277L10.9453 22.5918L11.8195 21.8507L11.4206 21.3624L11.5648 20.9962L12.159 20.4033L11.7176 19.9499L11.4715 20.194L12.4645 18.9908L12.0656 18.6333L12.7361 17.6394L12.2438 17.2732L12.2693 17.2209H12.2608L12.7531 15.8345L12.1759 15.6166L11.6158 17.186L11.4969 16.1135L11.8449 15.137L12.7191 15.294L12.8295 14.6749L12.0571 14.5354L12.2099 14.1082H13.9158V13.4804H12.5579L12.7785 13.3235L15.0022 13.1229L14.9513 12.4864L13.7885 12.5911L13.8734 12.5388L16.0971 12.1377L15.9868 11.5099L15.6473 11.5709L17.1326 11.1611L16.9968 10.638L17.141 10.5857L18.3462 11.1611L18.6009 10.5857L17.9643 10.2805L18.1171 10.2195L17.9813 9.83586L19.7891 10.3328L19.9504 9.72251L18.6433 9.36503L18.8979 9.26912L21.0962 9.6702L21.2065 9.05115L20.0522 8.83317L20.1456 8.80702L22.3947 9.00755L22.4456 8.37107L22.1316 8.33619C22.4541 8.33619 23.3198 8.33619 23.6424 8.33619V7.80433L24.8306 7.6997L24.7797 7.07193L26.1801 6.54879L25.9679 5.94718L24.3808 6.54879L25.1531 5.70305L26.4517 5.2235L27.7502 5.70305L28.5226 6.54879L26.9439 5.94718L26.7318 6.54879L28.0897 7.04578H28.0813L28.1322 7.07193L28.0813 7.6997L29.2695 7.80433V8.33619C29.592 8.33619 30.4577 8.33619 30.7802 8.33619L30.4577 8.37107L30.5171 9.00755L32.7663 8.80702L32.8512 8.83317L31.7054 9.05115L31.8157 9.6702L34.0139 9.26912L34.2601 9.36503L32.9615 9.72251L33.1058 10.3328L34.9306 9.83586L34.7948 10.2195L34.9475 10.2805L34.311 10.5857L34.5656 11.1611L35.7623 10.5857L35.9066 10.638L35.7708 11.1611L37.2646 11.5709L36.9166 11.5099L36.8148 12.1377L39.0384 12.5388L39.1148 12.5911L37.9521 12.4864L37.9011 13.1229L40.1333 13.3235L40.3455 13.4804H38.996V14.1082H40.702L40.8547 14.5354L40.0824 14.6749L40.1927 15.294L41.0669 15.137L41.4149 16.1135L41.2961 17.186L40.7359 15.6166L40.1588 15.8345L40.6595 17.2732L40.1673 17.6394L40.8462 18.6333L40.4389 18.9908L41.4319 20.194L41.1942 19.9499L40.7529 20.4033L41.3385 20.9962L41.4913 21.3624L41.0924 21.8507L41.9581 22.5918L42.1363 23.0277L41.7883 22.7836L41.4404 23.3067L42.5013 24.0827L42.7729 24.7541L42.009 24.3966L41.7459 24.9721L43.1293 25.5998C43.3585 26.1055 43.6216 26.6199 43.8847 27.0908C43.9696 27.2477 44.0545 27.4047 44.1478 27.5442L44.0375 27.5529L43.8253 28.7648L43.2991 28.7125L43.1633 30.2732V29.9332H42.5522V32.2524L42.5098 32.3396L42.4079 31.1451L41.7883 31.2061L41.9836 33.4905L41.8732 33.7434L41.6356 32.3745L41.033 32.4791L41.4234 34.7373L41.2197 35.182L40.6765 33.6736L40.1078 33.8916L40.8462 35.9929L40.6256 36.4812L40.0994 34.9728L39.5137 35.1907L40.2691 37.2833L39.9381 38.0157L39.9296 38.2162L40.3115 39.3061C40.0909 39.2887 39.8872 39.28 39.692 39.28L40.023 38.7917L39.5137 38.4342L38.8687 39.3846C38.8432 39.3846 38.8178 39.3933 38.7838 39.4107L38.3764 39.1579L37.6041 40.5355L37.7568 40.2129L37.1882 39.9513L36.2376 42.0439L36.1612 42.1136L36.5686 40.9889L35.983 40.7709L35.2191 42.9245L35.0154 43.0989L35.3719 41.7561L34.7693 41.5905L34.3789 43.0814C34.0394 42.9768 34.2431 43.1425 33.9375 42.8199L33.963 42.5321L33.3434 42.4711L33.2925 43.0814C33.1143 43.1512 32.953 43.2558 32.7833 43.4128L32.6729 43.3169L32.5965 43.4128L32.2825 43.3866L32.2485 43.8487L31.6884 44.5288L31.8921 44.2411L31.3744 43.8836L31.2131 44.1277ZM29.957 0.201354H29.8297L29.4817 0.619866L28.616 0.201354H28.0303L27.8776 0.541395L29.3459 1.24764L28.285 1.27379L26.7403 0.532676L26.6384 0.305982L26.4517 0.393172L26.2734 0.305982L26.1716 0.532676L24.6184 1.27379L23.5575 1.24764L25.0343 0.541395L24.8815 0.201354H24.2959L23.4217 0.619866L23.0822 0.201354C22.9124 0.201354 22.9803 0.175197 22.8361 0.305982L22.1231 0.925032L21.7497 0.541395L20.6633 1.65743L20.884 1.38714L20.4087 0.986065L18.9573 2.7473L18.864 2.7909L19.543 1.81437L19.0337 1.44817L18.2104 2.66011L18.1001 2.72115L17.9983 2.6078L17.9643 2.63396L18.185 2.25032L17.6503 1.92772L16.9628 3.16582C16.6912 3.25301 16.479 3.36635 16.3178 3.49714C16.3772 3.3402 16.3347 3.40123 16.513 3.26173L16.4366 3.16582L16.6403 2.6078L16.0631 2.39854L15.8425 3.00887L14.9683 3.76743L14.476 3.40123L13.7885 4.40392L13.3387 4.12491L12.6427 5.34557C12.5324 5.50251 12.159 5.84255 11.9977 5.9559C11.8619 6.05181 11.7091 6.139 11.5564 6.22619C10.8434 6.6447 10.5633 7.07193 10.5124 7.60379L10.2748 7.80433C10.3766 7.5602 10.47 7.30735 10.5633 7.05449C10.9622 5.94718 11.3442 4.77011 11.7516 3.43611L12.0062 2.20673L11.2932 3.21813C10.5633 4.37776 9.93527 5.44148 9.36662 6.48776C9.17989 6.81908 9.00166 7.1504 8.83191 7.49044L8.3057 7.43813L8.19536 8.7547C8.07654 8.99883 7.9662 9.23425 7.85587 9.46966C7.75402 9.69635 7.66066 9.92305 7.5673 10.1497L7.52486 10.1846L7.4315 10.359L7.42301 10.4811C7.32965 10.7078 7.2278 10.9345 7.13444 11.1699C7.05805 11.2745 6.97318 11.3704 6.89679 11.4663C6.31965 12.1726 6.17537 12.7218 6.30268 13.2799C6.31965 13.463 6.03108 14.2128 5.97167 14.4046L5.75949 13.6635L6.14991 11.414L5.53882 11.3007L5.15688 13.5676L4.4779 14.4918L4.77495 12.7742L4.16386 12.6608L3.90924 14.1779L3.29815 14.2302L3.4 15.4509L2.88227 15.5468L3.15387 17.1075L3.06051 16.7588L2.46639 16.9244L3.00958 19.0083C2.99261 19.0431 2.98412 19.0867 2.97563 19.1216L2.63614 18.1364L2.059 18.3543L2.81437 20.5166L2.78042 20.7782L2.20328 19.5227L1.64312 19.793L2.5937 21.8768L2.50883 22.3476L1.60917 21.0398L1.10841 21.406L2.35605 23.237L2.22026 24.0217L2.26269 24.2222L2.55126 24.6407L2.07597 24.7628L2.40698 26.0271L1.26967 23.237L1.01505 22.7138C0.998077 23.0452 0.972615 23.5683 0.998077 23.8909L1.54976 28.233L1.28665 28.3899L1.64312 29.0351L1.71102 29.567L1.44791 29.7588L1.80438 30.2907L1.88925 30.9707L1.63463 31.1887L2.27118 31.9647L3.1963 34.2752C3.20479 34.3101 3.20479 34.345 3.20479 34.3799C3.2642 35.1297 3.45092 35.6441 3.74798 36.0016L2.55126 35.2866L2.23723 35.8447L4.12143 36.9607L4.25722 37.4664L2.90773 36.673L2.60219 37.2223L4.48638 38.3383L4.71554 39.2102L5.99713 39.9775C6.13293 40.1693 6.23478 40.3698 6.31965 40.5704C6.37058 40.6837 6.41301 40.7971 6.45545 40.9104L3.20479 39.1317L3.76496 39.9949C5.34361 41.4859 6.71007 42.6891 8.07654 43.7441L7.94923 44.0318L9.34964 44.6945L9.01863 44.5724L8.81494 45.174L10.9283 45.9587L12.4815 47.5543H12.49L13.0332 48.1297C12.473 48.0949 11.429 48.0251 10.8264 48.0338L10.2323 48.06C10.5633 48.2344 10.9113 48.4175 11.2593 48.5483C13.0586 49.1412 14.6033 49.5945 16.0886 49.9346V50.0654L13.1774 51.4778L19.543 54.5208L22.0552 50.8937C22.1231 50.8937 22.1995 50.8937 22.2674 50.8937C22.1656 50.9983 21.9619 51.4866 22.5984 51.3122C24.0243 50.9373 25.0767 50.4664 26.5111 50.4752C27.5126 50.4839 28.1916 50.6931 29.0743 50.9634C29.1761 50.9896 30.3559 51.3558 30.5256 51.3558C30.8057 51.3645 30.8142 51.1291 30.6444 50.8937C30.7123 50.8937 30.7802 50.8937 30.8566 50.8937L33.3604 54.5208L39.7344 51.4778L36.8232 50.0654V49.9346C38.3 49.5945 39.8532 49.1412 41.6441 48.5483C42.026 48.4088 42.323 48.2431 42.6795 48.06L41.5677 48.0426C40.9736 48.0687 40.4134 48.0949 39.8787 48.1297L41.9751 45.9587L44.0969 45.174L43.8932 44.5724L43.5622 44.6945L44.9626 44.0318L44.8353 43.7441C46.2018 42.6891 47.5597 41.4859 49.1469 39.9949L49.7071 39.1317L46.4649 40.9104C46.4988 40.7971 46.5413 40.6837 46.5922 40.5704C46.6771 40.3698 46.7789 40.1693 46.9147 39.9775L48.1963 39.2102L48.4255 38.3383L50.3097 37.2223L50.0041 36.673L48.6546 37.4664L48.7904 36.9607L50.6661 35.8447L50.3606 35.2866L49.1554 36.0016C49.4609 35.6441 49.6476 35.1297 49.7071 34.3799C49.7071 34.345 49.7071 34.3101 49.7071 34.2752L50.6407 31.9647L51.2772 31.1887L51.0226 30.9707L51.1075 30.2907L51.4639 29.7588L51.2008 29.567C51.2942 28.8433 51.2263 29.1049 51.6252 28.3899L51.3621 28.233L51.9138 23.8909L51.8968 22.7138L51.4215 23.7601L50.5049 26.0271L50.8359 24.7628L50.3606 24.6407L50.6492 24.2222L50.6916 24.0217L50.5558 23.237L51.8034 21.406L51.3027 21.0398L50.403 22.3476L50.3181 21.8768L51.2687 19.793L50.7086 19.5227L50.1314 20.7782L50.089 20.5166L50.8528 18.3543L50.2672 18.1364L49.9277 19.1216C49.9192 19.0867 49.9108 19.0431 49.9023 19.0083L50.437 16.9244L49.8513 16.7588L49.758 17.1075L50.0296 15.5468L49.5034 15.4509L49.6137 14.2302L49.0026 14.1779L48.7395 12.6608L48.1284 12.7742L48.4255 14.4918L47.755 13.5676L47.373 11.3007L46.7619 11.414L47.1524 13.6635L46.9402 14.4046C46.8808 14.2302 46.6007 13.4542 46.6007 13.2799C46.728 12.7218 46.5922 12.1726 46.015 11.4663C45.9302 11.3704 45.8538 11.2745 45.7689 11.1699C45.6756 10.9345 45.5822 10.7078 45.4803 10.4811C45.4719 10.4375 45.5058 10.359 45.3785 10.1846C45.2851 10.0713 45.1324 9.64404 45.056 9.46966C44.9456 9.23425 44.8268 8.99883 44.7165 8.7547L44.6061 7.43813L44.0799 7.49044C43.9102 7.1504 43.7319 6.81908 43.5452 6.48776C42.9681 5.44148 42.34 4.37776 41.6101 3.21813L40.9057 2.20673L41.1518 3.43611C41.5592 4.77011 41.9411 5.94718 42.3485 7.05449C42.4419 7.30735 42.5352 7.5602 42.6286 7.80433L42.3994 7.60379C42.3485 7.07193 42.0684 6.6447 41.3555 6.22619C41.033 6.04309 40.7699 5.89487 40.5068 5.61586L40.2691 5.34557L39.5731 4.12491L39.1233 4.40392L38.4358 3.40123L37.9436 3.76743L37.0609 3.00887L36.8487 2.39854L36.2716 2.6078L36.4668 3.16582L36.3989 3.26173C36.5771 3.40995 36.5347 3.34892 36.5856 3.49714C36.4243 3.36635 36.2206 3.25301 35.949 3.16582L35.2616 1.92772L34.7184 2.25032L34.9475 2.63396L34.9051 2.6078L34.8117 2.72115L34.7014 2.66011L33.8781 1.44817L33.3689 1.81437L34.0394 2.7909L33.9545 2.7473L32.5032 0.986065L32.0279 1.38714L32.2485 1.65743L31.1622 0.541395L30.7887 0.925032L29.957 0.201354ZM26.4517 1.09941L28.0388 1.84925L28.7263 2.75602L27.1986 2.02363L26.9439 2.59036L28.2934 3.25301L28.1916 3.87206L29.2865 4.05516L29.0997 4.33416L29.0488 4.31673L29.0573 4.32545L27.6908 3.81974L27.4787 4.41264L29.0149 4.98809L27.9624 5.11016L27.2155 4.83115L27.0458 4.32545L26.4517 4.54342L25.8661 4.32545L25.6963 4.83115L24.9409 5.11016L23.897 4.98809L25.4247 4.41264L25.2125 3.81974L23.8545 4.32545V4.31673L23.8121 4.33416L23.6169 4.05516L24.7203 3.87206L24.6184 3.25301L25.9679 2.59036L25.7133 2.02363L24.1771 2.75602L24.873 1.84925L26.4517 1.09941Z" fill="#5B4431"/>
<path d="M21.8781 44.3826C22.7862 44.4 23.6265 44.8359 24.2036 45.0103C25.8417 45.5335 27.0554 45.5335 28.7104 45.0103C29.2875 44.8359 30.1193 44.4 31.0274 44.3826L30.8153 44.7052C29.5761 45.7253 29.279 46.571 29.0329 47.9748C28.948 48.7769 28.948 49.9714 30.4079 51.0264L30.4673 51.0788L30.3824 51.07C26.0454 49.9278 26.8601 49.9278 22.5316 51.07L22.4382 51.0788L22.5061 51.0264C23.966 49.9714 23.966 48.7769 23.8811 47.9748C23.635 46.571 23.3294 45.7253 22.0987 44.7052L21.8781 44.3826ZM40.2702 47.2424C40.6097 46.8588 40.9661 46.5362 41.2887 46.1874C40.2702 45.6904 39.0225 45.394 37.9531 44.9842L37.0365 45.1586L36.8328 45.3329L38.1823 45.2109L38.2332 45.8386L36.0095 46.0392L35.6446 46.3531L37.1978 46.4926L37.1468 47.1203L35.4748 46.9721C37.6561 48.0358 38.8019 48.8728 40.2702 47.2424ZM34.3205 43.345C34.1763 43.3101 34.032 43.284 33.9047 43.2752L33.8283 44.1297L34.1932 43.8158L34.3205 43.345ZM33.2681 43.3973C33.2087 43.4235 32.8862 43.6153 32.8862 43.7112L32.7674 45.0452L33.1578 44.7052L33.2681 43.3973ZM32.1902 44.4523C32.0714 44.5744 31.9356 44.6877 31.7998 44.7924C31.9101 44.8534 32.029 44.9144 32.1478 44.9755L32.1902 44.4523ZM46.101 41.1652C46.2623 40.6944 46.4235 40.2323 46.7291 39.7876C45.3456 39.6656 43.9452 39.9184 42.5618 39.7964C41.2377 39.6743 40.2362 39.5174 39.5063 39.5522L38.9631 40.3544L38.8528 41.6971L40.1514 41.8105L41.8234 41.017L42.0865 41.5838L41.0086 42.1069L41.1529 42.5167C41.2972 42.5341 41.4414 42.5516 41.5772 42.569C44.0301 42.787 45.3711 43.2665 46.101 41.1652ZM49.445 34.3557C49.479 33.8674 49.5214 33.3705 49.7166 32.8647C48.3502 33.1002 47.0431 33.7279 45.6766 33.9808C45.6342 33.9808 45.5918 33.9895 45.5578 33.9982L44.5478 34.7219L44.4375 34.966L45.6002 34.2772L45.9143 34.8178L43.9876 35.9687L43.784 36.4134L45.2523 35.8728L45.456 36.4657L43.8094 37.0847C44.3526 37.0499 44.8958 37.015 45.4305 36.9191C47.8494 36.4744 49.2753 36.5878 49.445 34.3557ZM50.1749 26.5435C50.0561 26.0814 49.9288 25.6018 49.9288 25.0438C48.7321 25.7675 47.7136 26.805 46.5084 27.52C45.6936 27.9995 44.9976 28.3745 44.4545 28.7145L44.3187 29.5428L44.7685 30.8071L45.9991 30.3362L47.1874 28.8889L47.6627 29.29L46.8903 30.2403L47.111 30.4496C49.2159 29.1505 50.786 28.8104 50.1749 26.5435ZM49.2922 18.2517C49.0461 17.8332 48.8085 17.4147 48.6812 16.8741C48.1889 17.3711 47.7645 17.9378 47.3486 18.5045L46.8055 20.5709L46.8224 20.6669L47.2298 19.5334L47.7985 19.7514L47.0431 21.9224L47.0855 22.184L47.6627 20.9197L48.2144 21.19L47.6033 22.5502C49.2413 20.8848 50.3617 20.1263 49.2922 18.2517ZM44.0471 22.1665C44.0131 22.2188 43.9792 22.2624 43.9367 22.306L44.3017 22.6897C44.2423 22.3409 44.3017 22.4804 44.0471 22.1665ZM43.5972 22.8553C43.5718 22.9076 43.5463 22.9512 43.5293 23.0036L44.3526 24.1021L44.5733 24.2591L44.4884 23.7708L43.5972 22.8553ZM45.8209 11.6427C45.5578 11.3288 45.2947 11.0149 45.1165 10.5964C44.6497 11.2678 44.3102 12.0438 43.9282 12.7762L44.3187 12.6977L44.7091 14.9646L44.9382 15.2698L44.5733 13.8922L45.1759 13.7265L45.2777 14.145L45.6936 14.0666L45.753 14.4153C45.8803 14.2235 45.9907 14.0491 46.084 13.8747L45.9652 13.1772L46.3641 13.0988C46.4235 12.6454 46.2792 12.192 45.8209 11.6427ZM43.7585 13.0726C43.6397 13.2906 43.5124 13.5086 43.3681 13.7091C42.1119 15.5488 41.2802 16.3945 41.9507 17.31C42.1968 17.6414 42.4769 17.9378 42.6636 18.365C42.7315 18.2691 42.7994 18.1732 42.8588 18.0773L42.6721 17.7373L43.1219 17.4583L42.6212 16.3509L43.1729 16.0894L42.9098 14.5723L43.5208 14.4589L43.8009 16.1155L44.098 15.0693L43.7585 13.0726ZM44.0555 16.6736C44.064 16.6648 44.0725 16.6561 44.0725 16.6561L43.8434 16.3248C43.8858 16.5951 43.8264 16.4992 44.0555 16.6736ZM41.2293 6.46359C40.9152 6.28049 40.6097 6.09739 40.3381 5.80095C40.0665 6.82107 40.0665 7.91967 39.7949 8.93979C39.2941 10.8667 38.8528 11.8171 39.6846 12.3664C39.9816 12.5669 40.3041 12.7326 40.5757 13.029C40.8473 12.0089 41.382 11.0498 41.6366 10.0384C42.1119 8.22483 42.6297 7.27446 41.2293 6.46359ZM35.67 3.35962C35.373 3.27243 35.0759 3.19396 34.7704 3.01086C34.7704 3.9438 35.008 4.87673 35.008 5.80095C35.008 7.55347 34.8383 8.47768 35.67 8.75669C35.9671 8.8526 36.2811 8.91363 36.5867 9.10545C36.5867 8.1638 36.8243 7.23958 36.8243 6.30665C36.8243 4.65004 37.0535 3.72582 35.67 3.35962ZM12.6523 47.225C12.3468 46.8588 12.0073 46.5274 11.5914 46.1874C12.6099 45.6904 13.883 45.394 14.9439 44.9842L15.8775 45.1586L16.0812 45.3329L14.7317 45.2109L14.6808 45.8386L16.9045 46.0392L17.2694 46.3531L15.7078 46.4926L15.7672 47.1203L17.4392 46.9721C15.2579 48.0358 14.0442 48.9164 12.6523 47.225ZM18.5935 43.345C18.7377 43.3101 18.8735 43.284 19.0093 43.2752L19.0772 44.1297L18.7123 43.8158L18.5935 43.345ZM19.6459 43.3973C19.7732 43.4583 19.9005 43.5543 20.0278 43.685L20.1382 45.0452L19.7562 44.7052L19.6459 43.3973ZM20.7153 44.4523C20.8426 44.5744 20.9699 44.6877 21.1142 44.7924C21.0039 44.8534 20.885 44.9144 20.7662 44.9755L20.7153 44.4523ZM6.813 41.1652C6.65174 40.6944 6.49048 40.2323 6.17645 39.7876C7.55989 39.6656 8.96879 39.9184 10.3522 39.7964C11.6763 39.6743 12.6693 39.5174 13.4077 39.5522L13.9509 40.3544L14.0612 41.6971L12.7542 41.8105L11.0906 41.017L10.8275 41.5838L11.9054 42.1069L11.7526 42.5167C11.6168 42.5341 11.4726 42.5516 11.3283 42.569C8.88391 42.787 7.54291 43.2665 6.813 41.1652ZM3.46898 34.3557C3.42654 33.8674 3.39259 33.3705 3.19738 32.8647C4.56385 33.1002 5.86241 33.7279 7.22888 33.9808C7.27132 33.9808 7.31375 33.9895 7.35619 33.9982L8.36619 34.7219L8.47652 34.966L7.30527 34.2772L6.99972 34.8178L8.92635 35.9687L9.13005 36.4134L7.66173 35.8728L7.45804 36.4657L9.0961 37.0847C8.56139 37.0499 8.00972 37.015 7.4835 36.9191C5.0646 36.4744 3.63872 36.5878 3.46898 34.3557ZM2.73906 26.5435C2.85789 26.0814 2.9852 25.6018 2.97671 25.0438C4.18192 25.7675 5.2004 26.805 6.4056 27.52C7.22039 27.9995 7.90787 28.3745 8.45106 28.7145L8.59534 29.5428L8.14551 30.8071L6.91485 30.3362L5.72662 28.8889L5.25132 29.29L6.02367 30.2403L5.803 30.4496C5.75208 30.4234 5.70115 30.3885 5.65023 30.3624C3.52839 29.0981 2.15344 28.7058 2.73906 26.5435ZM3.62175 18.2517C3.86788 17.8332 4.09704 17.4147 4.23284 16.8741C4.72511 17.3711 5.14948 17.9378 5.56536 18.5045L6.10006 20.5709L6.08309 20.6669L5.68418 19.5334L5.10704 19.7514L5.8709 21.9224L5.82846 22.184L5.25132 20.9197L4.69965 21.19L5.31073 22.5502C3.66419 20.8848 2.55234 20.1263 3.62175 18.2517ZM8.86694 22.1665C8.8924 22.2188 8.93484 22.2624 8.96879 22.306L8.61232 22.6897C8.66324 22.3409 8.60383 22.4804 8.86694 22.1665ZM9.31677 22.8553C9.34223 22.9076 9.35921 22.9512 9.37618 23.0036L8.55291 24.1021L8.34072 24.2591L8.4256 23.7708L9.31677 22.8553ZM7.09308 11.6427C7.35619 11.3288 7.6193 11.0149 7.79753 10.5964C8.26434 11.2678 8.60383 12.0438 8.98576 12.7762L8.59534 12.6977L8.20493 14.9646L7.97577 15.2698L8.33224 13.8922L7.73812 13.7265L7.63627 14.145L7.22039 14.0666L7.16098 14.4153C7.03367 14.2235 6.92333 14.0491 6.82997 13.8747L6.9488 13.1772L6.54989 13.0988C6.49048 12.6454 6.63476 12.192 7.09308 11.6427ZM9.14702 13.0726C9.27433 13.2906 9.40164 13.5086 9.54593 13.7091C10.7936 15.5488 11.6338 16.3945 10.9548 17.31C10.7172 17.6414 10.4371 17.9378 10.2504 18.365C10.1825 18.2691 10.1146 18.1732 10.0552 18.0773L10.2419 17.7373L9.79206 17.4583L10.2928 16.3509L9.74114 16.0894L10.0042 14.5723L9.39316 14.4589L9.10459 16.1155L8.81602 15.0693L9.14702 13.0726ZM8.84997 16.6736C8.84997 16.6648 8.84148 16.6561 8.83299 16.6561L9.07064 16.3248C9.01971 16.5951 9.07912 16.4992 8.84997 16.6736ZM11.6847 6.46359C11.9903 6.28049 12.3043 6.09739 12.5759 5.80095C12.8475 6.82107 12.8475 7.91967 13.1106 8.93979C13.6199 10.8667 14.0612 11.8171 13.2294 12.3664C12.9324 12.5669 12.6099 12.7326 12.3383 13.029C12.0667 12.0089 11.532 11.0498 11.2774 10.0384C10.8021 8.22483 10.2758 7.27446 11.6847 6.46359ZM17.2355 3.35962C17.5325 3.27243 17.8381 3.19396 18.1436 3.01086C18.1436 3.9438 17.8975 4.87673 17.8975 5.80095C17.8975 7.55347 18.0672 8.47768 17.2355 8.75669C16.9384 8.8526 16.6329 8.91363 16.3273 9.10545C16.3273 8.1638 16.0897 7.23958 16.0897 6.30665C16.0897 4.65004 15.8605 3.72582 17.2355 3.35962Z" fill="#007CC3"/>
<path d="M25.01 5.47742L24.2547 6.30572L23.041 6.1575L23.8812 5.25072L24.9761 5.37279L26.8942 4.66655L26.9282 4.76246L25.01 5.47742ZM24.713 1.64105L24.0255 2.53039L22.8118 2.50424L23.5672 1.51027L24.6621 1.54515L26.02 0.899939L26.1473 0.960972L24.713 1.64105ZM23.024 1.10048V1.1092L24.6451 0.315765L24.696 0.411674L22.9731 1.23998L22.5232 2.50424L21.5896 2.94891L22.0904 1.54515L23.024 1.10048ZM21.7933 1.68465L21.2926 3.08841L20.3675 3.5418L20.8682 2.13804L21.4284 1.85903L22.9985 0.507584L23.0664 0.594774L21.7933 1.68465ZM20.5627 2.27754L20.0619 3.6813L19.1368 4.12597L19.6375 2.72221L20.2911 2.40833L21.7509 0.917377L21.8188 0.987129L20.5627 2.27754ZM19.3405 2.86172L18.8397 4.26548L18.2626 4.54448L18.4069 3.3151L19.1198 2.96634L20.4354 1.34461L20.5202 1.41436L19.3405 2.86172ZM18.4069 2.84428L19.0943 1.81543L19.1792 1.87647L18.4069 3.02738V2.84428ZM17.3205 3.06225L17.7449 2.29498L17.8382 2.34729L17.4478 3.01866C17.4054 3.0361 17.3544 3.04482 17.3205 3.06225ZM15.6824 4.2306C15.8352 3.80337 15.7503 3.908 15.9795 3.73362L15.8097 4.20444L15.6824 4.2306ZM16.1747 2.84428L16.2086 2.73093L16.3105 2.77453L16.2511 2.94019L16.1747 2.84428ZM24 3.25407L25.6296 2.47808L25.5872 2.38217L23.8558 3.20176L22.6336 2.73965L21.7 3.19304L23.0664 3.70746L24 3.25407ZM22.7694 3.84696L21.4029 3.33254L20.4693 3.78593L21.8443 4.29163L22.4044 4.01262L24.4244 3.65515L24.4074 3.55052L22.7694 3.84696ZM21.5387 4.43114L20.1722 3.92543L19.2471 4.3701L20.6136 4.88453L21.2671 4.56192L23.3211 4.37882L23.3126 4.2742L21.5387 4.43114ZM20.308 5.02403L18.9501 4.50961L18.2286 4.85837C18.2201 4.9194 18.2117 4.97172 18.2032 5.03275L19.3829 5.45998L20.0959 5.12866H22.1583V5.02403H20.308ZM19.0859 5.6082L18.1862 5.27688L18.1607 6.05287L18.8991 5.69539L20.9446 5.87849L20.9531 5.77386L19.0859 5.6082ZM18.1607 6.36676L19.1707 6.54986L19.2896 6.46267L18.1607 6.25341C18.1607 6.28829 18.1607 6.32316 18.1607 6.36676ZM19.5696 6.61961L19.7224 6.64577L19.7394 6.54114L19.4848 6.49754L19.5696 6.61961ZM23.3805 4.78862H23.372L25.061 4.15213L25.0949 4.25676L23.3126 4.92812L22.7609 6.14006L21.7933 6.50626L22.2941 5.39023H22.4044V5.15482L23.3805 4.78862ZM22.0479 5.39023L21.4878 6.61961L20.5202 6.97709L20.9022 6.14878L21.1737 6.17494L21.2247 5.59077L21.7424 5.39023H22.0479ZM22.4044 4.91068C22.7524 4.66655 22.6251 4.71015 22.9052 4.68399L22.4044 5.04147V4.91068ZM20.656 6.12262L20.2062 7.09044L19.2471 7.45663C19.3914 7.14275 19.3235 7.2125 19.5442 7.04684C19.7818 6.87246 19.6969 6.89862 19.9261 6.94221L20.0364 6.32316L19.7733 6.27957C19.9176 5.99184 19.8412 6.05287 20.656 6.12262ZM20.9361 5.50358C21.0974 5.36407 21.021 5.39023 21.2247 5.39023C21.0634 5.53845 21.1059 5.53845 20.9361 5.50358ZM19.5527 6.21853L19.5442 6.23597L19.4169 6.20982L19.5951 6.02672L19.7309 6.03543L19.5527 6.21853ZM18.9925 7.44791C18.9161 7.61358 18.984 7.55254 18.6954 7.66589L18.9925 7.44791ZM18.339 7.14275H18.3305L18.5342 6.69808L18.8737 6.75039L18.339 7.14275ZM20.1638 5.43382L20.2062 5.39023H20.359L20.2996 5.45126L20.1638 5.43382ZM18.2796 6.69808L18.1692 6.92477C18.1692 6.83758 18.1692 6.75039 18.1692 6.67192L18.1947 6.63705L18.3135 6.6632L18.2796 6.69808ZM18.8228 6.02672L18.7633 6.09647L18.7039 6.08775L18.8228 6.02672ZM24.1613 7.02068L25.8503 6.39291L25.8248 6.28829L24.0255 6.95093L22.8458 6.39291L21.8782 6.75039L23.2022 7.37816L24.1613 7.02068ZM22.8882 7.50023L21.5727 6.86374L20.6051 7.22994L21.9291 7.85771L22.5148 7.63973L24.5602 7.45663L24.5517 7.35201L22.8882 7.50023ZM21.6151 7.97977L20.2996 7.34329L19.332 7.70948L20.656 8.32853L21.335 8.07568H23.3974V7.97977H21.6151ZM20.342 8.4506L19.0264 7.82283L18.0843 8.16287C18.0843 8.17159 18.0843 8.18031 18.0843 8.18903L18.5342 8.40701L18.7718 8.22391L19.0689 8.66858L19.3829 8.80808L20.1128 8.53779L22.1668 8.72089L22.1753 8.61626L20.342 8.4506ZM19.0689 8.93015L18.9585 8.87783L18.687 9.06965L18.8737 8.9999L20.8937 9.3661L20.9106 9.26147L19.0689 8.93015ZM18.3135 8.56395L17.9995 8.41572C17.9146 8.61626 17.7788 8.7732 17.5666 8.89527L17.5072 9.00862L17.626 9.06093L18.3135 8.56395ZM17.9995 9.56663L19.6206 10.0113L19.646 9.90667L18.1098 9.49688L17.9995 9.56663ZM17.4817 10.456L18.2201 10.8135L18.2711 10.7175L17.6175 10.4037L17.4817 10.456ZM15.8182 5.49486L14.8592 5.73899L15.3344 4.58808L15.8522 4.45729C15.8097 4.76246 15.8097 5.11122 15.8182 5.49486ZM14.7064 4.33523L16.0898 3.14944L16.1492 3.22791L14.6979 4.48345L14.5791 5.81746L13.7897 6.50626L13.9171 5.01531L14.7064 4.33523ZM13.6709 5.23329L13.5436 6.71552L13.0768 7.11659C13.0174 6.73296 12.9665 6.33188 12.8731 5.93953C12.8731 5.86977 13.289 5.57333 13.3654 5.48614L14.5366 3.76849L14.6215 3.82953L13.6709 5.23329ZM12.7967 5.61692L13.4333 4.49217L13.5181 4.54448L12.8307 5.75643L12.7967 5.61692ZM10.7513 9.12196L10.6749 9.19172L10.7003 8.93015C10.7173 8.99118 10.7343 9.06093 10.7513 9.12196ZM10.5306 8.15415L10.4287 9.40969L9.63942 10.0811L9.71581 9.22659C9.84312 8.93015 9.96194 8.62498 10.0808 8.31981L10.5136 7.95362C10.5136 8.02337 10.5221 8.09312 10.5306 8.15415ZM9.42724 9.88924L9.3848 10.299L9.35934 10.3252H9.33388V10.3513L9.13867 10.517L9.42724 9.88924ZM8.5106 8.11056L8.54455 7.72692L8.6464 7.73564C8.62943 7.91874 8.63791 7.87515 8.5106 8.11056ZM15.8352 6.12262L14.7488 6.02672L13.951 6.7068L15.4023 6.82886L15.8352 6.47139V6.12262ZM15.1562 7.04684L13.7049 6.91605L13.1108 7.43048C13.1192 7.49151 13.1277 7.56126 13.1362 7.62229L14.3669 7.73564C14.5112 7.59614 14.5281 7.60486 14.6215 7.47407L14.647 7.49151L14.8507 7.30841L15.8522 6.82886C15.8522 6.79399 15.8522 6.75039 15.8437 6.71552L15.1562 7.04684ZM14.1123 7.95362L13.1702 7.86643C13.1956 8.04081 13.2211 8.20647 13.255 8.37213L13.3823 8.14543L13.6794 8.31981L13.8831 8.13672L14.265 8.00593L14.3669 7.85771L14.1123 7.95362ZM14.978 7.73564C15.1986 7.65717 15.1223 7.70948 15.2835 7.50895L14.8846 7.66589L14.978 7.73564ZM13.7388 8.76448L13.8322 8.6337H13.8152L13.7388 8.76448ZM10.8107 9.61895L10.59 9.60151L9.80917 10.2903L10.5476 10.3513L10.8107 9.61895ZM10.4712 10.5868L9.92799 10.5344L9.80068 11.2756L10.2081 11.3104L10.4712 10.5868ZM9.26598 10.7524L8.86707 11.0925C8.8501 11.1273 8.84161 11.1535 8.82464 11.1884L9.1811 11.2145L9.26598 10.7524ZM11.0738 10.735L11.2181 10.7263C11.2011 10.6914 11.1926 10.6565 11.1841 10.6216H11.1162L11.0738 10.735ZM8.97741 12.1911L9.01136 12.1998L9.13867 11.4499L8.7143 11.4151C8.68884 11.4587 8.67186 11.4935 8.6464 11.5371L8.97741 12.1911ZM9.7243 11.7377L9.85161 11.6243L10.0893 11.6505L10.1317 11.5458L9.75825 11.511L9.7243 11.7377ZM16.0728 9.20915L16.0049 9.21787L16.0728 9.07837V9.20915ZM18.1607 7.59614L19.3405 6.74167L19.3999 6.82886L18.1522 7.73564C18.1607 7.68333 18.1607 7.63973 18.1607 7.59614ZM15.9795 7.93618L15.954 7.95362L15.7249 9.27891L14.8846 9.88052L15.1307 8.40701L15.9625 7.81411C15.971 7.84899 15.9795 7.89258 15.9795 7.93618ZM14.8676 8.59882L14.613 10.0723L13.8322 10.6391C13.8152 10.5868 13.8067 10.5432 13.7982 10.4996L14.0189 9.20915L14.5366 8.83424L15.8522 7.22122C15.8691 7.23866 15.9201 7.27353 15.9031 7.32585L14.8676 8.59882ZM13.7473 9.40097L13.6624 9.95899L13.5436 9.52304L14.6894 7.84899L14.7743 7.91002L13.7473 9.40097ZM11.7613 12.13L11.5491 12.2782L11.6255 11.7987C11.6764 11.9033 11.7188 12.0167 11.7613 12.13ZM13.3314 8.76448L13.4757 8.51163L13.5691 8.56395L13.3739 8.90399L13.3314 8.76448ZM11.4642 11.3889L11.286 12.4701L10.4372 13.0804L10.6919 11.6069L11.3539 11.1186C11.3963 11.2058 11.4303 11.3017 11.4642 11.3889ZM10.4203 11.7987L10.1656 13.2722L9.75825 13.5687L9.46119 13.0978L9.58001 12.4003L10.276 11.9033L10.9804 9.92411L11.0229 10.1072L10.4203 11.7987ZM9.19808 12.627L9.54606 10.6304L9.64791 10.6478L9.28295 12.7752C9.25749 12.7229 9.23203 12.6706 9.19808 12.627ZM17.3035 9.74973L18.7718 8.68601L18.7124 8.59882L17.1592 9.72358L16.1238 9.53176L16.0728 9.55791V9.52304L15.8691 9.49688L15.0204 10.0985L16.4548 10.3601L17.3035 9.74973ZM16.1832 10.5519L14.7658 10.2903L13.9171 10.8919L15.3429 11.1535L15.8691 10.7873L17.7873 10.0636L17.7533 9.95899L16.1832 10.5519ZM15.0798 11.3453L13.9255 11.1361C13.968 11.4238 13.968 11.6766 13.9001 11.8946L14.2396 11.9556L14.8422 11.5284L16.8197 10.9704L16.7943 10.8745L15.0798 11.3453ZM13.968 12.1475L13.8152 12.1213C13.7558 12.2346 13.6794 12.3393 13.5691 12.4352L13.7728 12.2957L15.8012 11.9208L15.7843 11.8161L13.968 12.1475ZM11.8546 12.3742L11.6934 12.4875L11.914 12.5311C11.8971 12.4788 11.8801 12.4265 11.8546 12.3742ZM12.8561 12.9496L12.8307 12.9409C12.7373 13.0019 12.6439 13.0804 12.5591 13.1589L12.6864 13.0717L14.7318 12.8799L14.7234 12.7752L12.8561 12.9496ZM11.9989 12.7927L11.4218 12.688L10.5815 13.2984L12.0159 13.5599L12.1771 13.4379L11.9989 12.7927ZM11.7443 13.743L10.3184 13.4902L9.91102 13.7779C10.0214 13.9436 10.1147 14.0918 10.2166 14.2226L10.9125 14.3534L11.6 13.8477H11.6424L11.6764 13.7343L11.9734 13.8477H13.6624V13.743H11.7443ZM10.5051 14.6411L11.3114 14.7806L11.3454 14.676L10.4118 14.5016C10.4457 14.5539 10.4712 14.5975 10.5051 14.6411ZM11.931 14.8852L12.5166 14.9986L12.5336 14.8939L11.965 14.7893L11.931 14.8852ZM5.39574 13.6646L4.73373 14.5801L5.09019 15.7833L5.81162 14.7806L5.49759 13.682L5.84557 11.6243L5.74372 11.6069L5.39574 13.6646ZM6.38027 14.9986L6.65187 13.3856L6.55002 13.3681L6.27843 14.9724L6.38027 14.9986ZM6.16809 15.3299L5.15809 16.071L4.97137 17.1086L5.25994 16.8993V16.4459H5.87103L6.16809 15.3299ZM5.25994 17.187L5.0223 17.3614C5.09868 17.4661 5.18356 17.5707 5.25994 17.6753V17.187ZM6.03229 17.8758L6.08322 17.7887L6.06624 17.7625L6.03229 17.8758ZM4.10566 22.122L4.03776 22.5318L4.05474 22.5754L4.19902 22.4708L4.10566 22.122ZM4.23297 22.7411L4.13961 22.8108L4.18205 22.9329L4.19902 22.8718L4.1481 22.8021L4.23297 22.7411ZM3.83406 23.7699L3.80012 23.9617L3.8765 23.9094L3.83406 23.7699ZM3.7407 24.3018C3.72373 24.3889 3.71524 24.3541 3.78314 24.4674L3.85104 24.2233L3.7407 24.3018ZM4.06322 14.798L4.37726 12.9758L4.4791 12.9932L4.1481 14.9201L4.90347 16.0187L4.72524 17.0214C4.6828 16.9604 4.63188 16.908 4.58095 16.8557L3.88499 15.8356L4.06322 14.798ZM3.83406 16.1669L4.05474 16.507C3.96986 16.8644 3.92743 17.0737 3.78314 17.405L3.64734 17.2045L3.75768 16.568L3.57944 14.4754L3.68129 14.4667L3.83406 16.1669ZM3.59642 17.5445L3.66432 17.6404C3.62188 17.7276 3.57944 17.8061 3.53701 17.8758L3.54549 17.841L3.18054 15.7658L3.28239 15.7397L3.59642 17.5445ZM3.16356 18.5821L2.79012 17.1173L2.87499 17.0911L3.23146 18.4339C3.206 18.4775 3.18903 18.5298 3.16356 18.5821ZM3.95289 21.5553L3.86801 22.0261L3.72373 21.625L3.26541 21.7994L2.94289 21.3199L3.08718 20.4916L2.39121 18.5123L2.48457 18.4775L2.92592 19.733C2.97684 20.3869 3.36726 20.9275 3.95289 21.5553ZM2.88348 21.6599L3.28239 22.2354L3.65583 23.2816L3.54549 23.9181C3.22297 23.4473 3.23995 23.4909 3.0023 23.0811L2.97684 23.0985L2.71373 22.6975L2.84953 21.843L1.98382 19.9161L2.07718 19.8725L2.88348 21.6599ZM2.90045 24.7028L2.47609 24.0663L2.56096 23.5519L3.35029 24.9644L2.90045 24.7028ZM2.6034 23.3165L2.62886 23.177L1.46609 21.4681L1.55096 21.407L2.78163 23.2119L2.6034 23.3165ZM11.5066 3.3587C10.5306 6.58473 9.74976 8.68601 8.50212 11.2494C8.40027 11.075 8.30691 10.9006 8.19657 10.735L9.25749 8.21519L8.07775 10.5432L7.83161 10.177C8.73127 8.05824 10.0129 5.77386 11.5066 3.3587ZM8.4427 15.0683L7.78069 15.9838L8.13716 17.1783L8.86707 16.1756L8.54455 15.0858L8.89253 13.0281L8.79917 13.0106L8.4427 15.0683ZM7.55153 16.3762L7.50061 16.1059C7.46666 16.2977 7.44968 16.228 7.55153 16.3762ZM7.50061 16.0797L7.51758 15.9751L7.50061 16.0797ZM7.56002 15.853L8.01834 14.0744L7.91649 14.0482L7.7043 14.8852L7.53456 15.8879L7.56002 15.853ZM5.3533 24.5633L5.27692 24.8423L5.37877 24.7813C5.41271 24.6069 5.4212 24.6592 5.3533 24.5633ZM5.31935 25.0865L5.20053 25.1649L4.94591 26.1502L4.97137 26.1589L5.47213 25.8625C5.24297 25.5137 5.25145 25.5747 5.31935 25.0865ZM5.80313 26.8041L5.83708 26.7867L5.91347 26.4989L5.60792 26.063L5.16658 26.3246C5.37028 26.4902 5.58246 26.6472 5.80313 26.8041ZM6.01532 16.9342L6.35481 15.6351L6.38027 15.9489L6.12565 16.908L6.01532 16.9342ZM6.35481 15.6351L6.43969 15.2863L6.54153 15.3125L6.45666 15.6263L6.35481 15.6351ZM5.79465 18.2508L5.70977 18.0938L5.96439 17.1173L6.20204 18.5036L6.11717 18.1636L5.79465 18.2508ZM5.51456 18.0066V16.7075H5.6249V18.1461C5.59095 18.1025 5.54851 18.0502 5.51456 18.0066ZM5.47213 23.0811L5.37877 23.4211L4.8186 22.4185L5.47213 23.0811ZM4.57247 22.462L4.58944 22.4882L4.48759 22.558L4.32633 21.9389C4.53003 22.1394 4.46213 22.0348 4.57247 22.462ZM5.16658 24.2843L5.03078 24.7813L4.30087 23.4735L4.38574 23.1508L5.16658 24.2843ZM4.216 23.8048L4.94591 25.0952L4.71675 25.9758C4.71675 25.9671 4.71675 25.9671 4.71675 25.9671L4.50457 25.8014L3.96138 24.8249L4.17356 23.9792L3.46911 21.9912L3.57096 21.9563L4.216 23.8048ZM3.83406 25.2957L2.81558 23.4909L2.90045 23.4299L4.02927 25.4439C3.96986 25.3916 3.90196 25.3393 3.83406 25.2957ZM9.39329 16.6029H9.3848L9.69883 14.7893L9.59698 14.7719L9.26598 16.6901L8.19657 17.4661L8.01834 18.5036L9.20657 17.6492L9.39329 16.6029ZM9.15564 17.9718L7.95892 18.8349L7.78069 19.8812L8.97741 19.0268L9.08774 18.3816L9.95345 16.4721L9.86009 16.4372L9.15564 17.9718ZM8.918 19.3494L7.72977 20.2125L7.55153 21.2501L8.74825 20.3956L8.86707 19.6545L9.90253 17.8323L9.80917 17.7799L8.918 19.3494ZM8.68884 20.7182L7.50061 21.5814L7.31388 22.619L8.5106 21.7645L8.6464 20.9624L9.82614 19.236L9.74127 19.1837L8.68884 20.7182ZM8.45119 22.0958L7.26296 22.9503L7.08473 23.9966L8.27296 23.1421L8.41724 22.3051L9.73278 20.6834L9.6564 20.6223L8.45119 22.0958ZM8.21354 23.4647L7.02531 24.3279L6.84708 25.3655L8.03531 24.511L8.1796 23.6478L9.63942 22.1482L9.56304 22.0784L8.21354 23.4647ZM6.78767 25.6968L6.60943 26.7344L7.79766 25.8799L7.95044 24.9818L9.61396 23.7873L9.55455 23.7001L6.78767 25.6968ZM7.11019 16.1931L7.11867 16.2018L7.43271 14.3708L7.53456 14.3882L7.20355 16.3239L7.94195 17.4225L7.76371 18.46L6.93195 17.2394L7.11019 16.1931ZM6.87254 17.5707L7.7043 18.7913L7.53456 19.8289L6.69431 18.6082L6.80464 17.963L6.62641 15.8792L6.72826 15.8618L6.87254 17.5707ZM6.64338 18.9396L7.47514 20.1602L7.29691 21.2065L6.45666 19.9771L6.58397 19.236L6.23599 17.1609L6.33784 17.1435L6.64338 18.9396ZM6.41422 20.3172L7.24599 21.5378L7.05926 22.5754L6.2275 21.3547L6.37179 20.5613L5.83708 18.5123L5.93044 18.4862L6.41422 20.3172ZM6.17658 21.6861L7.00834 22.9067L6.82162 23.9443L5.99834 22.7236L6.13414 21.8953L5.42969 19.9161L5.53154 19.8725L6.17658 21.6861ZM5.93893 23.0637L6.77069 24.2843L6.59246 25.3219L5.7607 24.0925L5.90498 23.238L5.03927 21.3199L5.13263 21.2763L5.93893 23.0637ZM6.53305 25.6532L6.3633 26.6908L5.52305 25.4701L5.67582 24.5808L4.51305 22.8718L4.59793 22.8108L6.53305 25.6532ZM11.286 15.9228L11.931 14.118L11.8376 14.0744L11.235 15.7833C11.2605 15.8269 11.2775 15.8792 11.286 15.9228ZM11.8122 17.7363L12.4318 15.9925L12.3299 15.9577L11.6764 17.7887L10.5476 18.338C10.4712 18.4164 10.1826 19.236 10.1402 19.3494L11.4557 18.7216L11.8122 17.7363ZM11.3454 19.0442L10.0383 19.672L9.77522 20.3869L9.95345 20.5351L10.9974 20.0294L11.2181 19.4191L12.3893 17.7015L12.3045 17.6404L11.3454 19.0442ZM10.8871 20.352L10.0044 20.7706L9.36783 21.5466L9.21505 21.9738C9.44421 21.8604 9.35085 21.9215 9.56304 21.7035L9.63093 21.7732L10.4966 21.3547C10.607 21.2675 10.7173 20.7444 10.7852 20.6311L12.1008 19.0268L12.0244 18.957L10.8871 20.352ZM10.1911 21.7732L9.80917 21.9563L9.94497 22.0958L10.1911 21.7732ZM9.5206 22.6539C9.5206 22.6539 9.5206 22.6539 9.5206 22.6626L9.57152 22.5928L9.5206 22.6539ZM11.1502 22.0697L11.4557 21.8168L11.3878 21.7297C11.1841 21.904 11.252 21.8168 11.1502 22.0697ZM10.5051 23.674L11.1247 23.238L11.0653 23.1508L10.5815 23.4909L10.5051 23.674ZM9.86009 25.3044L10.8192 24.8423L10.7767 24.7551L9.91951 25.1562L9.86009 25.3044ZM9.91102 18.3292C9.92799 18.338 9.93648 18.3554 9.94497 18.3728H9.95345L10.1232 18.6344L9.9874 19.0355L9.70732 18.8262L9.67337 18.7565L9.91102 18.3292ZM9.52909 19.0093L9.53757 19.018L9.47816 19.0965L9.52909 19.0093ZM9.66488 19.9248L9.49514 20.4044L9.41026 20.5177L9.35085 20.3869L9.66488 19.9248ZM9.19808 20.6136L9.24052 20.7095L8.86707 21.1716L8.88405 21.0757L9.19808 20.6136ZM9.01136 23.7699L11.5491 20.3869C10.3948 23.2729 9.95345 25.6183 8.03531 28.1643L7.50909 27.8504L8.5785 25.7753L7.24599 27.7022C7.1017 27.615 6.93195 27.5191 6.74523 27.4232L6.80464 27.0918L7.91649 26.4205L8.18808 25.1388L9.97892 23.8571L9.62245 23.3427L9.01136 23.7699ZM1.5934 26.5425L1.25391 23.8571L2.42516 26.7518C2.34878 27.0918 2.32331 27.3883 2.34029 27.6499L2.01777 26.4292L1.5934 26.5425ZM8.60396 38.9584L8.75674 39.5426L8.06926 39.5164L7.61094 39.2374L7.38178 38.3655L5.61641 37.3192L5.67582 37.2233L8.60396 38.9584ZM8.8501 38.8887L9.01136 39.5513C9.11321 39.56 9.21505 39.56 9.30842 39.56L9.84312 38.6184L9.78371 38.4091L9.23203 38.1999L8.8501 38.8887ZM9.64791 37.6767L9.68186 37.6244L9.63093 37.5023L9.54606 37.6418L9.64791 37.6767ZM5.75221 30.7189L6.70279 31.7042L6.46515 31.5124L6.3633 31.6519L5.4891 31.1287L5.30238 30.4574L5.75221 30.7189ZM5.57397 31.4601L6.21053 31.8263L6.07473 31.9919L6.98288 32.7854L7.04229 33.0033L6.88103 32.89L6.77918 33.0382L5.84557 32.4802L5.65036 31.7478L4.47062 30.0214L4.56398 29.9691L5.57397 31.4601ZM5.93044 32.8028L6.65187 33.23L6.52456 33.4044L6.8301 33.6224C6.58397 33.5613 6.33784 33.4916 6.0917 33.4131L5.98986 33.0469L4.66583 31.4252L4.7507 31.3554L5.93044 32.8028ZM5.12414 33.108L4.8865 32.8638L4.96288 32.7941L5.33633 33.1777L5.12414 33.108ZM8.30691 37.8511L8.5106 38.6096L7.24599 37.8598L7.05078 37.11C7.73825 37.232 7.46666 37.1274 8.12018 37.5111L8.0438 37.7552L8.30691 37.8511ZM7.33086 33.0818L7.35632 33.1516L7.3733 33.108L7.33086 33.0818ZM7.56002 33.2649L7.51758 33.3347L7.8401 33.5701C7.7722 33.4218 7.74674 33.4306 7.56002 33.2649ZM8.60396 37.9644L8.75674 38.5399L8.99438 38.1127L8.60396 37.9644ZM9.30842 37.5546L9.41875 37.3541C9.16413 37.3454 8.918 37.328 8.68035 37.3105L9.30842 37.5546ZM5.94742 37.8162L6.08322 38.3394L6.26994 38.008L5.94742 37.8162ZM6.57548 37.4587L6.75372 37.1361L6.53305 37.0228C6.3633 36.9966 6.19355 36.9705 6.03229 36.9443L5.94742 37.0925L6.57548 37.4587ZM5.70129 36.8833L5.74372 36.9705L5.78616 36.9007C5.7607 36.892 5.72675 36.892 5.70129 36.8833ZM5.20902 32.4976L5.14961 32.611L5.67582 33.1516L5.70129 33.0992L5.20902 32.4976ZM4.55549 31.6955L4.41121 31.9309L4.62339 32.7592L4.96288 32.4192L4.97986 32.4366L5.05625 32.2971L4.55549 31.6955ZM4.2839 30.2045L4.05474 30.5882L4.32633 31.617L4.39423 31.4949L4.30936 31.3903C4.63188 31.12 4.547 31.2246 4.74221 30.8759L4.2839 30.2045ZM3.8086 29.5942L3.97835 30.2743L4.13112 29.9866L4.11415 29.9604L4.216 29.847C4.07171 29.7599 3.93591 29.6727 3.8086 29.5942ZM5.63339 37.6244L5.83708 38.4091L4.57247 37.6593L4.34331 36.7874L2.59491 35.7498L2.64583 35.6539L5.3533 37.2669L5.26843 37.4151L5.63339 37.6244ZM5.4212 36.831L5.47213 37.0577L4.8186 36.6653C5.00532 36.7263 5.20902 36.7787 5.4212 36.831ZM3.09566 32.5674L2.00079 31.2246L2.07718 31.1549L3.25692 32.6023L3.09566 32.5674ZM2.90045 31.2595L4.16507 32.0006L4.39423 32.8813C4.25843 32.8464 4.12264 32.8028 3.99532 32.7679L3.17205 32.2796L2.97684 31.556L1.80558 29.8296L1.89046 29.7686L2.90045 31.2595ZM2.56096 29.9168L3.81709 30.6579L4.0802 31.678L2.81558 30.9369L2.66281 30.3004L1.63584 28.4869L1.72071 28.4346L2.56096 29.9168ZM2.20449 28.5654V28.5741L1.73769 26.778L1.83953 26.7518L2.3318 28.6438L3.1381 29.1234C3.24844 29.2106 3.35877 29.2977 3.4776 29.3762L3.73222 30.3266L2.47609 29.5855L2.20449 28.5654ZM2.63735 25.8886L2.39121 24.9557L2.49306 24.9208L2.67978 25.6532L2.63735 25.8886ZM6.17658 38.6968L6.38876 39.5077C6.43969 39.499 6.50758 39.499 6.567 39.4903L7.11867 38.5137L6.48212 38.1388L6.17658 38.6968ZM6.87254 37.45L6.79615 37.5895L6.93195 37.668L6.87254 37.45ZM5.93044 38.7666L6.12565 39.5251L5.79465 39.5513L4.93742 39.0369L4.70826 38.165L2.95138 37.1274L3.0023 37.0315L5.93044 38.7666ZM11.5745 38.6794L11.8886 39.3682L11.4133 39.4205L10.6494 39.1328L10.2675 38.3132L8.3748 37.5982L8.40875 37.4936L11.5745 38.6794ZM11.8122 38.5748L12.1602 39.342C12.2196 39.3333 12.2705 39.3333 12.3214 39.3246L12.7373 38.1301L12.3724 37.3018L13.0598 35.3487L12.9665 35.3139L11.8122 38.5748ZM6.76221 30.562L8.12867 31.0764L8.56153 32.0355L7.19506 31.5298L6.93195 30.9369L5.61641 29.3239L5.6928 29.2542L6.76221 30.562ZM7.33935 31.8263L8.70581 32.3407L9.13018 33.2998L7.76371 32.7941L7.46666 32.1053L6.00683 30.6143L6.08322 30.5358L7.33935 31.8263ZM7.908 33.0905L9.27447 33.6049L9.70732 34.5553L8.34086 34.0496L8.00985 33.3172L6.4312 31.957L6.4991 31.8786L7.908 33.0905ZM8.48514 34.3548L9.85161 34.8605L10.276 35.8283L8.90951 35.3139L8.57001 34.5466L6.88952 33.3347L6.94893 33.2475L8.48514 34.3548ZM9.05379 35.619L10.4203 36.1247L10.8531 37.0925L9.48665 36.5781L9.13018 35.7847L7.34783 34.721L7.39876 34.6338L9.05379 35.619ZM10.9974 37.389L11.4218 38.3481L10.0638 37.8337L9.69035 37.0228L7.78069 36.2991L7.81464 36.2032L10.9974 37.389ZM8.86707 29.5593L8.36632 30.9631L8.79917 31.9222L9.29144 30.5184L9.01984 29.9342L8.67186 27.8591L8.57001 27.8766L8.86707 29.5593ZM9.42724 30.8236L8.92648 32.2273L9.36783 33.1864L9.86858 31.7827L9.56304 31.1026L9.37631 28.9926L9.27447 29.0013L9.42724 30.8236ZM10.0044 32.0878L9.50362 33.4916L9.94497 34.4507L10.4372 33.0469L10.1062 32.3145V30.2045H10.0044V32.0878ZM10.573 33.3521L10.0723 34.7558L10.5136 35.7149L11.0144 34.3112L10.6664 33.5439L10.8446 31.4513L10.7428 31.4426L10.573 33.3521ZM11.1502 34.6163L10.6494 36.0114L11.0908 36.9792L11.583 35.5754L11.2266 34.7733L11.583 32.6982L11.4812 32.6807L11.1502 34.6163ZM11.2266 37.2756L11.6594 38.2435L12.1602 36.831L11.7867 36.0114L12.4827 34.0583L12.3808 34.0147L11.2266 37.2756ZM3.93591 39.7954C4.89499 40.3011 5.76918 40.7894 6.57548 41.2689C6.78767 41.8706 7.04229 42.2891 7.35632 42.5594L7.24599 42.7425C6.21053 41.888 5.14112 40.9289 3.93591 39.7954ZM8.54455 43.0215C8.79069 43.0476 9.05379 43.0389 9.35085 43.0215C9.49514 43.1261 9.63942 43.222 9.78371 43.3266H9.05379L8.54455 43.0215ZM22.4384 45.8551L22.8118 47.2938L23.6011 47.7646C23.4738 47.224 23.3295 46.727 23.1174 46.2562L22.6506 45.9772L21.4708 44.2421L21.3859 44.3032L22.4384 45.8551ZM21.2586 45.1576L21.6406 46.605L22.5317 47.1281L22.1583 45.6808L21.5217 45.3146L21.2756 45.0094L21.1737 45.053L21.2586 45.1576ZM21.2416 45.9859L21.0125 45.1402C20.9446 45.1751 20.8682 45.2187 20.7833 45.2623L20.8173 45.6197L21.2416 45.9859ZM21.6321 47.8169L22.6845 47.5292L23.5757 48.0611L22.1753 48.436L21.649 48.0698L21.6321 47.8169ZM21.5472 46.8578L22.4044 47.3548L21.6066 47.5815L21.5472 46.8578ZM13.4757 44.9135H14.3839C14.1462 44.992 13.9086 45.0704 13.6709 45.1489L11.9904 44.1549L12.0413 44.059L13.4757 44.9135ZM13.0513 45.3494L12.7797 45.2274L12.8222 45.1315L13.1956 45.3058C13.1447 45.3233 13.0938 45.332 13.0513 45.3494ZM16.3529 47.8692H16.8112L16.8282 48.0436L17.8807 47.9477L18.5342 48.6104H17.5836C17.3799 48.5755 17.1932 48.5493 16.9895 48.5232L16.4972 48.0175L16.1407 47.9216C16.2935 47.8431 16.2511 47.8431 16.3529 47.8692ZM19.5187 50.5808H18.9925L18.9076 50.4937C19.1113 50.5285 19.3065 50.5547 19.5187 50.5808ZM17.5327 47.2153L17.643 47.3287L17.7533 47.3199V47.1107L17.5327 47.2153ZM17.991 46.9973V47.2938L18.3305 47.2676L17.9995 46.9799C17.9995 46.9973 17.991 46.9973 17.991 46.9973ZM18.2201 47.9216L18.7124 48.4273V47.878L18.2201 47.9216ZM18.9416 47.8518V48.6627L19.1792 48.9068C19.349 48.9417 19.5102 48.9766 19.6715 49.0114V48.3837L19.5951 48.3662L18.9925 47.8518H18.9416ZM20.6306 49.2381V48.8981L20.1298 48.3837L19.9006 48.4098V49.0637C20.1383 49.1161 20.3844 49.1771 20.6306 49.2381ZM20.4184 47.3461L21.1992 48.0262L19.7564 48.157L19.0774 47.5728L17.0659 47.7559L17.0574 47.6513L20.4184 47.3461ZM20.5796 47.1456L21.369 47.8256L21.2416 46.3347L20.5711 45.7505L20.3929 43.6754L20.2911 43.6841L20.5796 47.1456ZM12.7118 42.0798L14.1632 41.949L14.944 42.6378L13.5012 42.7686L13.0174 42.3501L11.1671 41.452L11.2096 41.3649L12.7118 42.0798ZM13.7473 42.9779L15.1986 42.8471L15.988 43.5272L14.5451 43.658L13.9765 43.1784L12.0498 42.4547L12.0838 42.3588L13.7473 42.9779ZM14.7997 43.8759L16.2341 43.7451L17.0319 44.4165L15.5806 44.5473L14.9695 44.0329L12.9919 43.4836L13.0174 43.3877L14.7997 43.8759ZM15.8352 44.7653L17.278 44.6345L18.0674 45.3233L16.616 45.4541L15.988 44.9048L13.968 44.5386L13.985 44.4339L15.8352 44.7653ZM16.8707 45.6633L18.3135 45.5413L19.1028 46.2126L17.6515 46.3434L17.0065 45.7767L14.9525 45.6023L14.961 45.4977L16.8707 45.6633ZM19.3575 46.4306L20.1383 47.102L18.687 47.2415L18.0165 46.6573L16.0049 46.8404L15.9965 46.7358L19.3575 46.4306ZM14.1971 40.2575L14.3244 41.7485L15.1138 42.4286L14.9865 40.9376L14.5027 40.5191L13.3314 38.8015L13.2466 38.8625L14.1971 40.2575ZM15.2411 41.1556L15.3684 42.6466L16.1492 43.3266L16.0304 41.8357L15.4702 41.3561L14.4433 39.5251L14.3499 39.5775L15.2411 41.1556ZM16.2765 42.0537L16.4039 43.5446L17.1932 44.216L17.0659 42.7337L16.4633 42.2106L15.5976 40.2924L15.5042 40.336L16.2765 42.0537ZM17.3205 42.943L17.4393 44.4339L18.2286 45.114L18.1013 43.6318L17.4733 43.0825L16.7688 41.112L16.6754 41.1469L17.3205 42.943ZM18.3559 43.8498L18.4833 45.332L19.2726 46.0121L19.1453 44.5211L18.4917 43.9631L17.957 41.9142L17.8552 41.949L18.3559 43.8498ZM19.5187 46.2301L20.308 46.9101L20.1807 45.4192L19.5017 44.835L19.332 42.7599L19.2217 42.7686L19.5187 46.2301ZM22.5742 50.6419C18.5512 50.3367 15.6909 49.7264 11.3284 48.3052C16.0474 48.5057 18.9755 48.9504 23.0579 50.1711L22.8712 50.3716L18.7888 49.5433L16.3444 49.1248L18.9925 49.6654L22.7524 50.4937C22.693 50.5634 22.6506 50.5808 22.5742 50.6419ZM19.4593 54.1905L18.8991 53.9202L19.7394 52.7083L18.7803 53.8679L18.2117 53.5976L19.3405 52.2287L18.0674 53.5279L17.4563 53.2401L18.9331 51.7318L17.2865 53.153L16.6585 52.8478L18.5342 51.2348L16.4293 52.7432L15.7843 52.438L18.1353 50.7465L15.5042 52.3072L14.8252 51.9759L17.6854 50.2844L18.4748 50.4239L18.8822 50.8511C20.1977 50.8511 20.8852 50.7639 21.7764 50.8424L19.4593 54.1905ZM17.677 50.2757L14.4942 51.8189L13.7813 51.4789L16.4123 50.2059H17.3035C17.4223 50.2321 17.5496 50.2582 17.677 50.2757ZM20.6475 48.5406L21.4114 48.3052L22.4129 48.8806L22.8118 48.6714L23.5332 49.1248L23.0834 48.6278L23.4823 48.3575L23.355 48.6016L23.6605 48.9591L23.5842 49.2643L23.007 49.0201L22.7864 49.1858L23.3974 49.7351L21.2332 48.5057L23.3041 49.8659L23.1853 50.0403L21.649 49.4299L20.9785 48.9417L20.6475 48.5406ZM8.97741 43.5969H10.4372L11.1671 44.338H9.71581L9.26598 43.8847L7.50061 42.8297L7.55153 42.7425L8.97741 43.5969ZM9.94497 44.5735H11.3963L12.1262 45.3233H10.6664L10.1487 44.7914L8.28993 43.9021L8.33237 43.8062L9.94497 44.5735ZM10.904 45.5587H12.3554L12.3808 45.5849L11.3539 46.0295L11.0738 45.7331L9.13867 45.0181L9.17262 44.9135L10.904 45.5587ZM10.624 42.8994V43.4051L11.3454 44.1549V42.8209C11.3369 42.8209 11.3369 42.8209 11.3369 42.8297L10.9804 42.8558V42.8645L10.624 42.8994ZM11.5745 42.8907V44.3904L12.3129 45.1402V44.6432L11.634 44.2421L11.948 43.7015L12.3129 43.9108V43.6405L11.7867 43.1087L11.6424 42.7948C11.6085 42.7948 11.5745 42.8122 11.5406 42.8122L11.5745 42.8907ZM12.5336 43.8847V44.0503L12.924 44.277L12.7034 44.059L12.2705 42.8122L12.1432 42.7686L12.5336 43.8847ZM12.5336 44.7827V45.1402L12.6609 44.8612L12.5336 44.7827ZM12.5676 45.4192C12.6524 45.4889 12.6439 45.4977 12.6949 45.4715L12.5676 45.4192ZM13.5436 44.6432L13.3399 43.8585L13.2211 43.8236L13.4248 44.5735L13.5436 44.6432ZM16.1407 48.3662V48.1918C15.6315 48.0436 15.8946 48.0523 15.4108 48.2354V48.2442L16.1407 48.3662Z" fill="#FBDD73"/>
<path d="M27.9041 5.47778L28.6595 6.30609L29.8647 6.15787L29.0329 5.25109L27.938 5.37316L26.9875 5.0244L26.8347 5.08543L27.9041 5.47778ZM26.0708 4.68435L26.0199 4.66692L26.0029 4.71051L26.0708 4.68435ZM28.2012 1.64142L28.8801 2.53076L30.1023 2.5046L29.3469 1.51064L28.2436 1.54551L26.3933 0.664892L26.3509 0.760801L28.2012 1.64142ZM29.8901 1.10084V1.10956L28.2606 0.316132L28.2181 0.412041L29.9411 1.24035L30.3909 2.5046L31.316 2.94927L30.8153 1.54551L29.8901 1.10084ZM31.1208 1.68502L31.6216 3.08878L32.5467 3.54216L32.0459 2.1384L31.4773 1.8594L29.9071 0.50795L29.8477 0.59514L31.1208 1.68502ZM32.343 2.27791L32.8437 3.68167L33.7773 4.12634L33.2766 2.72258L32.6231 2.40869L31.1632 0.917743L31.0869 0.987495L32.343 2.27791ZM33.5736 2.86208L34.0744 4.26584L34.6431 4.54485L34.5073 3.31547L33.7943 2.96671L32.4703 1.34497L32.3939 1.41473L33.5736 2.86208ZM34.5073 2.84464L33.8113 1.8158L33.7264 1.87683L34.5073 3.02774V2.84464ZM35.5936 3.06262L35.1693 2.29535L35.0759 2.34766L35.4578 3.01902C35.5088 3.03646 35.5427 3.04518 35.5936 3.06262ZM37.2232 4.23097C37.0789 3.80374 37.1553 3.90836 36.9346 3.73398L37.1044 4.20481L37.2232 4.23097ZM36.7394 2.84464L36.7055 2.7313L36.6036 2.77489L36.663 2.94055L36.7394 2.84464ZM28.9141 3.25444L27.276 2.47845L27.327 2.38254L29.0499 3.20212L30.2806 2.74002L31.2057 3.1934L29.8392 3.70783L28.9141 3.25444ZM30.1448 3.84733L31.5112 3.33291L32.4363 3.7863L31.0699 4.292L30.5012 4.01299L28.4812 3.65551L28.4982 3.55088L30.1448 3.84733ZM31.3669 4.4315L32.7334 3.9258L33.667 4.37047L32.3005 4.88489L31.647 4.56229L29.5931 4.37919L29.6016 4.27456L31.3669 4.4315ZM32.5976 5.0244L33.9641 4.50997L34.6855 4.85874C34.694 4.91977 34.7025 4.97208 34.7025 5.03311L33.5312 5.46035L32.8183 5.12902H30.7558V5.0244H32.5976ZM33.8283 5.60857L34.7279 5.27725L34.7534 6.05324L34.015 5.69576L31.9695 5.87886L31.9611 5.77423L33.8283 5.60857ZM34.7449 6.36712L33.7349 6.55022L33.6161 6.46303L34.7449 6.25378C34.7449 6.28865 34.7449 6.32353 34.7449 6.36712ZM33.3445 6.61997L33.1832 6.64613L33.1663 6.5415L33.4294 6.49791L33.3445 6.61997ZM29.5337 4.78898L27.8447 4.1525L27.8107 4.25712L29.6016 4.92849L30.1532 6.14043L31.1208 6.50663L30.6201 5.39059H30.5097V5.15518L29.5337 4.78898ZM30.8662 5.39059L31.4263 6.61997L32.3939 6.97745L32.012 6.14915L31.7404 6.17531L31.6895 5.59113L31.1632 5.39059H30.8662ZM30.5097 4.91105C30.1617 4.66692 30.289 4.71051 30.0005 4.68435L30.5097 5.04183V4.91105ZM32.2581 6.12299L32.6995 7.0908L33.667 7.457C33.4973 7.08208 33.5991 7.22159 33.1747 6.9077L32.988 6.94258L32.8777 6.32353L33.1323 6.27993C33.005 5.99221 33.0644 6.05324 32.2581 6.12299ZM31.978 5.50394C31.7998 5.36444 31.8847 5.39059 31.681 5.39059C31.8422 5.5301 31.7998 5.54754 31.978 5.50394ZM33.3615 6.2189V6.23634L33.4973 6.21018L33.319 6.02708L33.1832 6.0358L33.3615 6.2189ZM33.9216 7.44828L33.9726 7.57035L34.2187 7.66626L33.9216 7.44828ZM34.5752 7.14312L34.3715 6.69845L34.0405 6.75076L34.5752 7.14312ZM32.7504 5.43419C32.6825 5.38188 32.7249 5.39059 32.5552 5.39059L32.6146 5.45163L32.7504 5.43419ZM34.6346 6.69845L34.7364 6.92514C34.7364 6.7682 34.7704 6.69845 34.7194 6.63741L34.6006 6.66357L34.6346 6.69845ZM34.0914 6.02708L34.1508 6.09683L34.2102 6.08812L34.0914 6.02708ZM28.7443 7.02105H28.7528L27.0554 6.39328L27.0893 6.28865L28.8801 6.9513L30.0684 6.39328L31.0274 6.75076L29.7119 7.37853L28.7443 7.02105ZM30.0174 7.50059L31.3415 6.86411L32.3005 7.23031L30.985 7.85807L30.3994 7.6401L28.3539 7.457L28.3624 7.35237L30.0174 7.50059ZM31.2906 7.98014L32.6146 7.34365L33.5736 7.70985L32.2581 8.3289L31.5791 8.07605H29.5167V7.98014H31.2906ZM32.5721 8.45097L33.8877 7.8232L34.8213 8.16324C34.8298 8.17196 34.8298 8.18068 34.8298 8.1894L34.3715 8.40737L34.1338 8.22427L33.8368 8.66894L33.5312 8.80845L32.7928 8.53816L30.7474 8.72126L30.7304 8.61663L32.5721 8.45097ZM33.8452 8.93051L33.9556 8.8782L34.2272 9.07002L34.0405 9.00026L32.012 9.36646L31.995 9.26183L33.8452 8.93051ZM34.5921 8.56431L34.9062 8.41609C34.9995 8.61663 35.1353 8.77357 35.3475 8.89564L35.4069 9.00898L35.2881 9.0613L34.5921 8.56431ZM34.9147 9.567L33.2936 10.0117L33.2681 9.90704L34.8043 9.49725L34.9147 9.567ZM35.4324 10.4563L34.6855 10.8138L34.6431 10.7179L35.2966 10.404L35.4324 10.4563ZM37.0874 5.49522L38.055 5.73935L37.5797 4.58845L37.0535 4.45766C37.0959 4.76283 37.0959 5.11159 37.0874 5.49522ZM38.1993 4.33559L36.8243 3.14981L36.7564 3.22828L38.2162 4.48382L38.3266 5.81783L39.1244 6.50663L38.9971 5.01568L38.1993 4.33559ZM39.2432 5.23365L39.3705 6.71588L39.8373 7.11696C39.8882 6.73332 39.9477 6.33225 40.0325 5.93989V5.90502L39.5487 5.4865L38.369 3.76886L38.2841 3.82989L39.2432 5.23365ZM40.1174 5.61729L39.4808 4.49254L39.3875 4.54485L40.075 5.75679L40.1174 5.61729ZM42.1629 9.12233L42.2308 9.19208L42.2138 8.93051C42.1968 8.99154 42.1798 9.0613 42.1629 9.12233ZM42.3835 8.15452L42.4854 9.41006L43.2747 10.0814L43.1983 9.22696C43.071 8.93051 42.9437 8.62535 42.8334 8.32018L42.4005 7.95398C42.4005 8.02374 42.392 8.09349 42.3835 8.15452ZM43.4869 9.8896L43.5208 10.2994C43.6142 10.3517 43.6906 10.4389 43.7754 10.5174L43.4869 9.8896ZM44.4035 8.11093L44.3696 7.72729L44.2677 7.73601C44.2847 7.91911 44.2762 7.87551 44.4035 8.11093ZM37.0789 6.12299L38.1653 6.02708L38.9546 6.70716L37.5033 6.82923L37.0789 6.47175V6.12299ZM37.7579 7.04721L39.2008 6.91642L39.7949 7.43084C39.7949 7.49188 39.7864 7.56163 39.7779 7.62266L38.5472 7.73601C38.3945 7.5965 38.3775 7.60522 38.2841 7.47444L38.2672 7.49188L38.055 7.30878L37.0535 6.82923C37.062 6.79435 37.062 6.75076 37.062 6.71588L37.7579 7.04721ZM38.7934 7.95398L39.744 7.86679C39.7185 8.04117 39.693 8.20683 39.6591 8.3725L39.5318 8.1458L39.2347 8.32018L39.031 8.13708L38.6491 8.0063L38.5388 7.85807L38.7934 7.95398ZM37.9361 7.73601C37.707 7.65754 37.7834 7.71857 37.6306 7.50931L38.0295 7.66626L37.9361 7.73601ZM39.1668 8.76485L39.0819 8.63407H39.0989L39.1668 8.76485ZM42.1034 9.61931L42.3156 9.60188L43.1049 10.2907L42.3581 10.3517L42.1034 9.61931ZM42.4429 10.5871L42.9776 10.5348L43.1049 11.2759L42.6976 11.3108L42.4429 10.5871ZM43.6481 10.7528L44.047 11.0928C44.0555 11.1277 44.0725 11.1539 44.0895 11.1887L43.733 11.2149L43.6481 10.7528ZM41.8318 10.7353L41.696 10.7266C41.7045 10.6918 41.7215 10.6569 41.73 10.622H41.7979L41.8318 10.7353ZM43.9367 12.1914L43.8943 12.2001L43.767 11.4503L44.1998 11.4154C44.2168 11.459 44.2423 11.4939 44.2592 11.5375L43.9367 12.1914ZM43.1898 11.738L43.054 11.6247L42.8164 11.6508L42.7824 11.5462L43.1474 11.5113L43.1898 11.738ZM36.8328 9.20952L36.9092 9.21824L36.8328 9.07874V9.20952ZM34.7449 7.5965L33.5736 6.74204L33.5142 6.82923L34.7534 7.73601C34.7534 7.68369 34.7534 7.6401 34.7449 7.5965ZM36.9262 7.93654L36.9601 7.95398L37.1893 9.27927L38.0295 9.88088L37.7834 8.40737L36.9431 7.81448C36.9431 7.84935 36.9346 7.89295 36.9262 7.93654ZM38.0465 8.59919L38.3011 10.0727L39.0819 10.6394C39.0904 10.5871 39.0989 10.5435 39.1159 10.4999L38.8952 9.20952L38.369 8.8346L37.0535 7.22159L37.011 7.25646C37.011 7.28262 37.011 7.30878 37.0025 7.32621L38.0465 8.59919ZM39.1583 9.40134L39.2517 9.95936L39.3705 9.5234L38.2247 7.84935L38.1398 7.91039L39.1583 9.40134ZM41.1529 12.1304L41.365 12.2786L41.2802 11.7991C41.2377 11.9037 41.1953 12.017 41.1529 12.1304ZM39.5742 8.76485L39.4384 8.512L39.345 8.56431L39.5403 8.90436L39.5742 8.76485ZM41.4499 11.3893L41.6281 12.4704L42.4769 13.0808L42.2223 11.6072L41.5518 11.119C41.5178 11.2062 41.4839 11.3021 41.4499 11.3893ZM42.4939 11.7991L42.74 13.2726L43.1474 13.569L43.4529 13.0982L43.3256 12.4007L42.6381 11.9037L41.9337 9.92448L41.8828 10.1076L42.4939 11.7991ZM43.7076 12.6274L43.3681 10.6307L43.2662 10.6482L43.6312 12.7756C43.6566 12.7233 43.6821 12.671 43.7076 12.6274ZM35.6106 9.7501L34.1423 8.68638L34.2017 8.59919L35.7549 9.72394L36.7904 9.53212L36.8328 9.55828V9.5234L37.0365 9.49725L37.8852 10.0989L36.4509 10.3604L35.6106 9.7501ZM36.7225 10.5522L38.1483 10.2907L38.9971 10.8923L37.5627 11.1539L37.045 10.7877L35.1268 10.064L35.1608 9.95936L36.7225 10.5522ZM37.8343 11.3457L38.9801 11.1364C38.9461 11.4241 38.9461 11.677 39.0056 11.895L38.6745 11.956L38.0719 11.5288L36.0944 10.9708L36.1199 10.8749L37.8343 11.3457ZM38.9461 12.1478L39.0989 12.1217C39.1583 12.235 39.2347 12.3396 39.345 12.4356L39.1414 12.296L37.1129 11.9211L37.1299 11.8165L38.9461 12.1478ZM41.051 12.3745L41.2123 12.4879L41.0001 12.5315C41.0171 12.4791 41.034 12.4268 41.051 12.3745ZM40.0495 12.95L40.0835 12.9413C40.1768 13.0023 40.2617 13.0808 40.3466 13.1592L40.2192 13.072L38.1738 12.8802L38.1823 12.7756L40.0495 12.95ZM40.9152 12.793L41.4839 12.6884L42.3241 13.2987L40.8897 13.5603L40.737 13.4382L40.9152 12.793ZM41.1698 13.7434L42.5957 13.4906L43.0031 13.7783C42.8843 13.9439 42.7909 14.0922 42.6976 14.2229L42.0016 14.3537L41.3056 13.848H41.2717L41.2292 13.7347L40.9407 13.848H39.2517V13.7434H41.1698ZM42.4005 14.6415L42.392 14.6327L41.6027 14.781L41.5602 14.6763L42.5023 14.502C42.4684 14.5543 42.4344 14.5979 42.4005 14.6415ZM40.9831 14.8856L40.389 14.9989L40.3805 14.8943L40.9407 14.7897L40.9831 14.8856ZM47.5184 13.6649L48.1719 14.5804L47.8239 15.7837L47.1025 14.781L47.4165 13.6824L47.0601 11.6247L47.1619 11.6072L47.5184 13.6649ZM46.5338 14.9989L46.2622 13.3859L46.3641 13.3685L46.6357 14.9728L46.5338 14.9989ZM46.746 15.3303L47.756 16.0714L47.9343 17.1089L47.6542 16.8997V16.4463H47.0346L46.746 15.3303ZM47.6542 17.1874L47.8918 17.3618C47.8069 17.4664 47.7306 17.571 47.6542 17.6757V17.1874ZM46.8818 17.8762L46.8309 17.789L46.8479 17.7629L46.8818 17.8762ZM48.8 22.1224L48.8763 22.5322L48.8594 22.5758L48.7151 22.4711L48.8 22.1224ZM48.6811 22.7414L48.7745 22.8112L48.7321 22.9332L48.7151 22.8722L48.7575 22.8025L48.6811 22.7501V22.7414ZM49.08 23.7703L49.114 23.9621L49.0291 23.9098L49.08 23.7703ZM49.1734 24.3021C49.1904 24.3893 49.1904 24.3544 49.131 24.4678L49.0631 24.2237L49.1734 24.3021ZM48.8509 14.7984L48.5369 12.9761L48.435 12.9936L48.766 14.9205L48.0106 16.0191L48.1889 17.0218C48.2313 16.9607 48.2822 16.9084 48.3332 16.8561L49.0206 15.836L48.8509 14.7984ZM49.08 16.1673L48.8594 16.5073C48.9442 16.9084 48.9612 17.0218 49.131 17.4054L49.2583 17.2049L49.1479 16.5684L49.3262 14.4758L49.2243 14.4671L49.08 16.1673ZM49.3177 17.5449L49.2498 17.6408C49.2922 17.728 49.3347 17.8065 49.3771 17.8762L49.3686 17.8413L49.7251 15.7662L49.6232 15.7401L49.3177 17.5449ZM49.7505 18.5825L50.124 17.1177L50.0306 17.0915L49.6826 18.4342C49.6996 18.4778 49.7251 18.5301 49.7505 18.5825ZM48.9612 21.5556L49.0461 22.0265L49.1904 21.6254L49.6487 21.7998L49.9712 21.3202L49.8269 20.4919L50.5229 18.5127L50.4295 18.4778L49.9882 19.7334C49.9373 20.3873 49.5469 20.9279 48.9612 21.5556ZM50.0221 21.6603L49.6317 22.2357L49.2583 23.282L49.3686 23.9185C49.6911 23.4477 49.6826 23.4913 49.9118 23.0815L49.9373 23.0989L50.2004 22.6978L50.0561 21.8434L50.9218 19.9165L50.8284 19.8729L50.0221 21.6603ZM50.0137 24.7032L50.438 24.0667L50.3447 23.5523L49.5553 24.9648L50.0137 24.7032ZM50.3107 23.3169L50.2852 23.1774L51.448 21.4684L51.3631 21.4074L50.1325 23.2122L50.3107 23.3169ZM41.399 3.35907C42.3071 6.32353 43.2323 8.93051 44.412 11.2498C44.5054 11.0754 44.6072 10.901 44.7175 10.7353L43.6481 8.21555L44.8364 10.5435L45.0825 10.1773C44.1828 8.06733 42.9013 5.76551 41.399 3.35907ZM44.4629 15.0687L45.1249 15.9842L44.777 17.1787L44.047 16.176L44.3611 15.0861L44.0131 13.0284L44.1065 13.011L44.4629 15.0687ZM45.3626 16.3765L45.4135 16.1063C45.4475 16.2981 45.4644 16.2283 45.3626 16.3765ZM45.405 16.0801L45.388 15.9755L45.405 16.0801ZM45.3456 15.8534L44.8958 14.0747L44.9891 14.0486L45.2098 14.8856L45.3711 15.8883L45.3456 15.8534ZM47.5608 24.5637L47.6372 24.8427L47.5353 24.7817C47.5014 24.6073 47.4929 24.6596 47.5608 24.5637ZM47.5863 25.0868L47.7136 25.1653L47.9682 26.1506C47.9597 26.1506 47.9512 26.1593 47.9427 26.1593L47.4335 25.8628L47.6032 25.6187L47.6457 25.4182L47.5863 25.0868ZM47.111 26.8045L47.077 26.787L47.0006 26.4993L47.3062 26.0634L47.7475 26.3249L47.111 26.8045ZM46.8988 16.9346L46.5593 15.6354L46.5338 15.9493L46.7885 16.9084L46.8988 16.9346ZM46.5593 15.6354L46.4659 15.2867L46.3726 15.3128L46.449 15.6267L46.5593 15.6354ZM47.1195 18.2511L47.2043 18.0942L46.9497 17.1177L46.7036 18.504L46.7969 18.1639L47.1195 18.2511ZM47.3911 18.007V16.7079H47.2892V18.1465C47.3232 18.1029 47.3571 18.0506 47.3911 18.007ZM47.442 23.0815L47.5353 23.4215L48.0955 22.4188L47.442 23.0815ZM48.3416 22.4624L48.3247 22.4886L48.418 22.5583L48.5878 21.9393C48.3841 22.1398 48.4605 22.0177 48.3416 22.4624ZM47.7475 24.2847L47.8748 24.7817L48.6048 23.4738L48.5199 23.1512L47.7475 24.2847ZM48.6896 23.8051L47.9597 25.0956L48.1889 25.9762H48.1974C48.1974 25.9675 48.1974 25.9675 48.1974 25.9675C48.2058 25.9675 48.2058 25.9675 48.2058 25.9675C48.2058 25.9675 48.2058 25.9675 48.2058 25.9587C48.2737 25.9064 48.3416 25.8541 48.4095 25.8018L48.9527 24.8253L48.7406 23.9795L49.4365 21.9916L49.3432 21.9567L48.6896 23.8051ZM49.08 25.2961L50.09 23.4913L50.0052 23.4302L48.8763 25.4443C48.9442 25.392 49.0121 25.3397 49.08 25.2961ZM43.5208 16.6032L43.2068 14.7897L43.3086 14.7722L43.6397 16.6904L44.7091 17.4664L44.8873 18.504L43.6991 17.6495L43.5208 16.6032ZM43.7585 17.9721L44.9467 18.8353L45.1249 19.8816L43.9367 19.0271L43.8264 18.3819L42.9607 16.4725L43.054 16.4376L43.7585 17.9721ZM43.9961 19.3497L45.1843 20.2129L45.3541 21.2505L44.1659 20.396L44.0386 19.6549L43.0116 17.8326L43.1049 17.7803L43.9961 19.3497ZM44.2253 20.7186L45.4135 21.5818L45.5917 22.6194L44.4035 21.7649L44.2677 20.9627L43.088 19.2364L43.1728 19.1841L44.2253 20.7186ZM44.4629 22.0962L45.6512 22.9507L45.8294 23.997L44.6412 23.1425L44.4969 22.3055L43.1813 20.6837L43.2577 20.6227L44.4629 22.0962ZM44.7006 23.4651L45.8888 24.3283L46.067 25.3658L44.8788 24.5114L44.726 23.6482L43.2747 22.1485L43.3426 22.0788L44.7006 23.4651ZM46.1264 25.6972L46.3047 26.7347L45.1165 25.8803L44.9637 24.9822L43.3002 23.7877L43.3596 23.7005L46.1264 25.6972ZM45.7954 16.1934V16.2022L45.4814 14.3712L45.3796 14.3886L45.7106 16.3242L44.9637 17.4228L45.1504 18.4604L45.9737 17.2397L45.7954 16.1934ZM46.0331 17.571L45.2013 18.7917L45.3711 19.8293L46.2113 18.6086L46.101 17.9634L46.2877 15.8796L46.1774 15.8621L46.0331 17.571ZM46.2707 18.9399L45.4305 20.1606L45.6087 21.2069L46.449 19.9775L46.3217 19.2364L46.6781 17.1613L46.5763 17.1438L46.2707 18.9399ZM46.4999 20.3175L45.6681 21.5382L45.8464 22.5758L46.6781 21.3551L46.5423 20.5617L47.077 18.5127L46.9752 18.4865L46.4999 20.3175ZM46.7375 21.6864L45.9058 22.9071L46.084 23.9446L46.9158 22.724L46.7715 21.8957L47.4759 19.9165L47.3826 19.8729L46.7375 21.6864ZM46.9752 23.064L46.1434 24.2847L46.3217 25.3222L47.1534 24.0929L47.0091 23.2384L47.8748 21.3202L47.7815 21.2766L46.9752 23.064ZM46.3811 25.6536L46.5508 26.6911L47.3911 25.4705L47.2383 24.5811L48.4011 22.8722L48.3162 22.8112L46.3811 25.6536ZM41.6112 15.9232L40.9831 14.1183L41.0765 14.0747L41.6791 15.7837C41.6536 15.8272 41.6366 15.8796 41.6112 15.9232ZM41.1019 17.7367L40.4824 15.9929L40.5757 15.958L41.2377 17.789L42.3665 18.3383C42.426 18.3994 42.7315 19.2538 42.7739 19.3497L41.4499 18.722L41.1019 17.7367ZM41.5687 19.0446L42.8758 19.6723L43.1304 20.3873L42.9607 20.5355L41.9082 20.0298L41.696 19.4195L40.5248 17.7018L40.6097 17.6408L41.5687 19.0446ZM42.0271 20.3524L42.9097 20.7709L43.5463 21.5469L43.6991 21.9741C43.4699 21.8608 43.5548 21.9218 43.3426 21.7039L43.2832 21.7736L42.4175 21.3551C42.3071 21.2679 42.1968 20.7448 42.1289 20.6314L40.8049 19.0271L40.8897 18.9574L42.0271 20.3524ZM42.723 21.7736L43.1049 21.9567L42.9607 22.0962L42.723 21.7736ZM43.3935 22.6542C43.3935 22.6542 43.3935 22.6542 43.3935 22.663L43.3426 22.5932L43.3935 22.6542ZM41.7555 22.0701L41.4584 21.8172L41.5263 21.73C41.713 21.9044 41.6536 21.8172 41.7555 22.0701ZM42.4005 23.6744L41.7894 23.2384L41.8488 23.1512L42.3326 23.4913L42.4005 23.6744ZM43.054 25.3048L42.095 24.8427L42.1374 24.7555L42.9946 25.1566L43.054 25.3048ZM42.9946 18.3296L42.7909 18.6348L42.9267 19.0358L43.2068 18.8266L43.2407 18.7568L42.9946 18.3296ZM43.385 19.0097L43.3765 19.0184L43.436 19.0969L43.385 19.0097ZM43.2407 19.9252C43.3341 20.1955 43.3426 20.3263 43.5039 20.5181L43.5633 20.3873L43.2407 19.9252ZM43.716 20.614L43.6651 20.7099L44.0386 21.172L44.0301 21.0761L43.716 20.614ZM43.9028 23.7703L41.3566 20.3873C42.5193 23.2733 42.9607 25.6187 44.8703 28.1646L45.405 27.8508L44.3356 25.7756L45.6596 27.7025C45.8124 27.6153 45.9737 27.5194 46.1689 27.4235L46.118 27.1532L44.9807 26.447L44.726 25.1391L42.9352 23.8575L43.2917 23.343L43.9028 23.7703ZM51.3122 26.5429L51.6602 23.8575L50.4889 26.7522C50.5653 27.0922 50.5908 27.3887 50.5653 27.6502L50.8879 26.4296L51.3122 26.5429ZM44.3102 38.9588L44.1574 39.5429L44.8449 39.5168L45.3032 39.2378L45.5323 38.3659L47.2892 37.3196L47.2383 37.2237L44.3102 38.9588ZM44.064 38.889L43.8943 39.5517C43.8009 39.5604 43.6991 39.5604 43.5972 39.5604L43.071 38.6187L43.1219 38.4095L43.6736 38.2002L44.064 38.889ZM43.2662 37.6771L43.2323 37.6248L43.2832 37.5027L43.3596 37.6422L43.2662 37.6771ZM47.1619 30.7193L46.2028 31.7046L46.449 31.5127L46.5508 31.6522L47.425 31.1291L47.6117 30.4577L47.1619 30.7193ZM47.3401 31.4604L46.7036 31.8266L46.8394 31.9923L45.9228 32.7857L45.8718 33.0037L46.0246 32.8903L46.1264 33.0386L47.0685 32.4806L47.2553 31.7482L48.435 30.0218L48.3501 29.9695L47.3401 31.4604ZM46.9837 32.8032L46.2622 33.2304L46.3811 33.4048L46.0755 33.6227C46.3301 33.5617 46.5678 33.492 46.8224 33.4135L46.9158 33.0473L48.2398 31.4256L48.1634 31.3558L46.9837 32.8032ZM47.7815 33.1083L48.0276 32.8642L47.9512 32.7944L47.5778 33.1781L47.7815 33.1083ZM44.5987 37.8515L44.4035 38.61L45.6596 37.8602L45.8633 37.1103C45.1759 37.2324 45.4475 37.1365 44.7854 37.5114L44.8703 37.7556L44.5987 37.8515ZM45.5833 33.0822L45.5578 33.1519L45.5323 33.1083L45.5833 33.0822ZM45.3541 33.2653L45.3965 33.335L45.074 33.5704C45.1419 33.4222 45.1674 33.4309 45.3541 33.2653ZM44.3017 37.9648L44.1574 38.5403L43.9197 38.113L44.3017 37.9648ZM43.6057 37.555L43.4954 37.3545C43.7415 37.3458 43.9961 37.3283 44.2338 37.3109L43.6057 37.555ZM46.9667 37.8166L46.8309 38.3397L46.6357 38.0084L46.9667 37.8166ZM46.3386 37.4591L46.1519 37.1365L46.3811 37.0232C46.5508 36.997 46.7206 36.9708 46.8818 36.9447L46.9667 37.0929L46.3386 37.4591ZM47.2128 36.8837L47.1959 36.9534L47.1619 36.9708L47.128 36.9011C47.1534 36.8924 47.1789 36.8924 47.2128 36.8837ZM47.6966 32.498L47.7645 32.6113L47.2383 33.1519L47.2043 33.0996L47.6966 32.498ZM48.3586 31.6958L48.5029 31.9313L48.2822 32.7596L47.9512 32.4195L47.9343 32.437L47.8579 32.2975L48.3586 31.6958ZM48.6302 30.2049L48.8509 30.5885L48.5878 31.6174L48.5199 31.4953L48.6048 31.3907C48.2737 31.1117 48.3671 31.2337 48.1719 30.8763L48.6302 30.2049ZM49.1055 29.5946L48.9273 30.2746L48.783 29.9869L48.8 29.9608L48.6981 29.8474C48.8424 29.7602 48.9782 29.673 49.1055 29.5946ZM47.2807 37.6248L47.077 38.4095L48.3332 37.6596L48.5623 36.7877L50.3192 35.7502L50.2683 35.6543L47.5608 37.2673L47.6457 37.4155L47.2807 37.6248ZM47.4929 36.8313L47.4335 37.0493L47.442 37.058L48.0955 36.6657C47.9003 36.7267 47.7051 36.779 47.4929 36.8313ZM49.8184 32.5677L50.9133 31.225L50.8369 31.1553L49.6572 32.6026L49.8184 32.5677ZM50.0052 31.2599L48.749 32.001L48.5199 32.8816C48.6557 32.8468 48.783 32.8032 48.9103 32.7683L49.7421 32.28L49.9288 31.5563L51.1085 29.83L51.0236 29.7689L50.0052 31.2599ZM50.3531 29.9172L49.097 30.6583L48.8339 31.6784L50.09 30.9373L50.2513 30.3008L51.2783 28.4872L51.1934 28.4349L50.3531 29.9172ZM50.7096 28.5657L50.7011 28.5744L51.1764 26.7783L51.0746 26.7522L50.5738 28.6442L49.776 29.1237C49.6657 29.2109 49.5553 29.2981 49.428 29.3766L49.1819 30.327L50.438 29.5858L50.7096 28.5657ZM50.2768 25.889L50.5144 24.956L50.421 24.9212L50.2258 25.6536L50.2768 25.889ZM46.729 38.6972L46.5254 39.5081C46.4659 39.4994 46.4065 39.4994 46.3471 39.4906L45.7954 38.5141L46.4235 38.1392L46.729 38.6972ZM46.0416 37.4504L46.118 37.5899L45.9822 37.6684L46.0416 37.4504ZM46.9837 38.767L46.7885 39.5255L47.111 39.5517L47.9767 39.0372L48.2058 38.1653L49.9627 37.1278L49.9118 37.0319L46.9837 38.767ZM41.3311 38.6798L41.0255 39.3686L41.5008 39.4209L42.2647 39.1332L42.6381 38.3136L44.5393 37.5986L44.5054 37.494L41.3311 38.6798ZM41.1019 38.5751L40.7455 39.3424C40.6945 39.3337 40.6436 39.3337 40.5927 39.325L40.1683 38.1305L40.5333 37.3022L39.8458 35.3491L39.9477 35.3142L41.1019 38.5751ZM46.1519 30.5624L44.7854 31.0768L44.3441 32.0359L45.7106 31.5302L45.9822 30.9373L47.2977 29.3243L47.2213 29.2545L46.1519 30.5624ZM45.5748 31.8266L44.2083 32.341L43.7754 33.3001L45.1419 32.7944L45.4475 32.1056L46.8988 30.6147L46.8309 30.5362L45.5748 31.8266ZM45.0061 33.0909L43.6397 33.6053L43.1983 34.5557L44.5648 34.05L44.9043 33.3176L46.4744 31.9574L46.415 31.8789L45.0061 33.0909ZM44.429 34.3551L43.0625 34.8608L42.6297 35.8287L43.9961 35.3142L44.3441 34.547L46.0246 33.335L45.9652 33.2478L44.429 34.3551ZM43.8603 35.6194L42.4939 36.1251L42.0525 37.0929L43.4275 36.5785L43.7839 35.7851L45.5578 34.7213L45.5069 34.6341L43.8603 35.6194ZM41.9167 37.3894L41.4839 38.3484L42.8503 37.834L43.2238 37.0232L45.1334 36.2995L45.0995 36.2036L41.9167 37.3894ZM44.047 29.5597L44.5478 30.9634L44.1149 31.9225L43.6227 30.5188L43.8858 29.9346L44.2338 27.8595L44.3356 27.8769L44.047 29.5597ZM43.4784 30.8239L43.9791 32.2277L43.5463 33.1868L43.0455 31.783L43.3511 31.103L43.5293 28.993L43.6397 29.0017L43.4784 30.8239ZM42.9013 32.0882L43.402 33.492L42.9692 34.451L42.4769 33.0473L42.8079 32.3149V30.2049H42.9013V32.0882ZM42.3326 33.3525L42.8334 34.7562L42.4005 35.7153L41.8997 34.3115L42.2477 33.5443L42.0695 31.4517L42.1713 31.443L42.3326 33.3525ZM41.7555 34.6167L42.2562 36.0118L41.8234 36.9796L41.3311 35.5758L41.6791 34.7737L41.3311 32.6985L41.4329 32.6811L41.7555 34.6167ZM41.6791 37.276L41.2547 38.2438L40.754 36.8313L41.1274 36.0118L40.4314 34.0587L40.5248 34.0151L41.6791 37.276ZM48.9697 39.7958C48.0106 40.3015 47.1449 40.7898 46.3386 41.2693C46.1264 41.8709 45.8718 42.2894 45.5578 42.5597L45.6596 42.7428C46.7036 41.8884 47.773 40.9293 48.9697 39.7958ZM44.3696 43.0218C44.1149 43.048 43.8518 43.0393 43.5633 43.0218C43.419 43.1265 43.2747 43.2224 43.1304 43.327H43.8603L44.3696 43.0218ZM30.4758 45.8555L30.0938 47.2941L29.313 47.765C29.4403 47.2244 29.5846 46.7274 29.7968 46.2566L30.2636 45.9776L31.4433 44.2425L31.5282 44.3035L30.4758 45.8555ZM31.647 45.158L31.2736 46.6053L30.3824 47.1285L30.7558 45.6811L31.3839 45.3149L31.6385 45.0098L31.7319 45.0534L31.647 45.158ZM31.6725 45.9863L31.8932 45.1406C31.9695 45.1754 32.0459 45.219 32.1223 45.2626L32.0968 45.6201L31.6725 45.9863ZM31.2821 47.8173L30.2296 47.5296L29.3385 48.0614L30.7389 48.4363L31.0869 48.2445L31.0614 48.2358L31.2651 48.0701L31.2821 47.8173ZM31.3669 46.8582L30.5097 47.3552L31.3075 47.5819L31.3669 46.8582ZM39.4299 44.9139H38.5303C38.7679 44.9923 39.0056 45.0708 39.2432 45.1493L40.9237 44.1553L40.8728 44.0594L39.4299 44.9139ZM39.8628 45.3498L40.1259 45.2277L40.0835 45.1318L39.7185 45.3062C39.7694 45.3237 39.8119 45.3324 39.8628 45.3498ZM36.5612 47.8696H36.1029L36.0859 48.044L35.025 47.9481L34.3715 48.6107H35.3305C35.5257 48.5758 35.721 48.5497 35.9162 48.5235L36.4169 48.0178L36.7734 47.9219C36.6206 47.8347 36.6546 47.8434 36.5612 47.8696ZM33.3954 50.5812H33.9216L34.0065 50.494C33.8028 50.5289 33.5991 50.5551 33.3954 50.5812ZM35.373 47.2157L35.2626 47.329L35.1608 47.3203V47.111L35.373 47.2157ZM34.9231 46.9977V47.2941L34.5836 47.268L34.9147 46.9803C34.9147 46.9977 34.9231 46.9977 34.9231 46.9977ZM34.694 47.9219L34.2017 48.4276V47.8783L34.694 47.9219ZM33.9641 47.8522V48.663L33.7349 48.9072C33.5652 48.942 33.4039 48.9769 33.2342 49.0118V48.384L33.319 48.3666L33.9131 47.8522H33.9641ZM32.2836 49.2385V48.8984L32.7843 48.384L33.0135 48.4102V49.0641C32.7674 49.1164 32.5212 49.1775 32.2836 49.2385ZM32.4958 47.3465L31.7064 48.0265L33.1493 48.1573L33.8283 47.5732L35.8483 47.7563L35.8567 47.6516L32.4958 47.3465ZM32.326 47.1459L31.5452 47.826L31.6725 46.3351L32.343 45.7509L32.5212 43.6758L32.6231 43.6845L32.326 47.1459ZM40.2023 42.0802L38.7509 41.9494L37.9531 42.6382L39.4045 42.769L39.8967 42.3505L41.7385 41.4524L41.696 41.3652L40.2023 42.0802ZM39.1668 42.9782L37.7155 42.8475L36.9177 43.5275L38.369 43.6583L38.9292 43.1788L40.8558 42.4551L40.8218 42.3592L39.1668 42.9782ZM38.1144 43.8763L36.68 43.7455L35.8822 44.4169L37.3335 44.5477L37.9361 44.0332L39.9222 43.4839L39.8967 43.388L38.1144 43.8763ZM37.0789 44.7656L35.6276 44.6348L34.8468 45.3237L36.2981 45.4544L36.9262 44.9051L38.9461 44.5389L38.9292 44.4343L37.0789 44.7656ZM36.0435 45.6637L34.5921 45.5416L33.8113 46.213L35.2626 46.3438L35.9077 45.777L37.9531 45.6027V45.498L36.0435 45.6637ZM33.5567 46.431L32.7758 47.1023L34.2187 47.2418L34.8977 46.6577L36.9092 46.8408L36.9177 46.7361L33.5567 46.431ZM38.7085 40.2579L38.5812 41.7489L37.8004 42.4289L37.9277 40.938L38.403 40.5195L39.5742 38.8018L39.6591 38.8629L38.7085 40.2579ZM37.673 41.156L37.5457 42.6469L36.7564 43.327L36.8837 41.836L37.4439 41.3565L38.4709 39.5255L38.5557 39.5778L37.673 41.156ZM36.6376 42.054L36.5103 43.545L35.7125 44.2163L35.8483 42.7341L36.4509 42.211L37.3166 40.2928L37.4099 40.3364L36.6376 42.054ZM35.5936 42.9434L35.4748 44.4343L34.677 45.1144L34.8043 43.6322L35.4409 43.0829L36.1368 41.1124L36.2387 41.1472L35.5936 42.9434ZM34.5582 43.8501L34.4309 45.3324L33.6415 46.0125L33.7689 44.5215L34.4139 43.9635L34.9571 41.9145L35.0504 41.9494L34.5582 43.8501ZM33.3869 46.2304L32.6061 46.9105L32.7334 45.4196L33.4039 44.8354L33.5821 42.7603L33.684 42.769L33.3869 46.2304ZM30.3315 50.6423C34.3545 50.3371 37.2232 49.7268 41.5772 48.3056C36.8667 48.5061 33.9386 48.9508 29.8562 50.1714L30.0344 50.372L34.1253 49.5437L36.5697 49.1251L33.9216 49.6657L30.1532 50.494C30.2211 50.5638 30.2551 50.5812 30.3315 50.6423ZM33.4548 54.1909L34.015 53.9206L33.1663 52.7087L34.1253 53.8683L34.7025 53.598L33.5736 52.2291L34.8468 53.5282L35.4494 53.2405L33.981 51.7321L35.6276 53.1533L36.2557 52.8482L34.3715 51.2351L36.4848 52.7435L37.1299 52.4384L34.7789 50.7469L37.4014 52.3076L38.0804 51.9763L35.2287 50.2848L34.4309 50.4243L34.0235 50.8515C32.7164 50.8515 32.0205 50.7643 31.1378 50.8428L33.4548 54.1909ZM35.2372 50.2761L38.4114 51.8193L39.1329 51.4793L36.5018 50.2063H35.6021C35.4833 50.2325 35.3645 50.2586 35.2372 50.2761ZM32.2581 48.602L31.5027 48.3056L30.6201 48.8287L30.1108 48.663L29.4064 49.038L29.9071 48.5497L29.4233 48.3579L29.6016 48.5584L29.2706 48.9944L29.3639 49.2211L29.9665 48.9769L30.1617 49.1426L29.5931 49.6832L31.4858 48.6543L29.6695 49.8314L29.7883 50.0058L31.4348 49.3606L32.0459 48.8897L32.2581 48.602ZM43.9282 43.5973H42.4769L41.7385 44.3384H43.1983L43.6481 43.885L45.4135 42.83L45.3626 42.7428L43.9282 43.5973ZM42.9607 44.5738H41.5178L40.7879 45.3237H42.2392L42.757 44.7918L44.6157 43.9025L44.5733 43.8065L42.9607 44.5738ZM42.0101 45.5591H40.5503L40.5333 45.5852L41.5518 46.0299L41.8403 45.7334L43.7754 45.0185L43.7415 44.9139L42.0101 45.5591ZM42.2902 42.8998V43.4055L41.5687 44.1553V42.8213C41.5687 42.8213 41.5772 42.8213 41.5772 42.83L42.2902 42.8998ZM41.3311 42.891V44.3907L40.6012 45.1406V44.6436L41.2802 44.2425L40.9661 43.7019L40.6012 43.9112V43.6409L41.1189 43.109L41.2632 42.7951C41.2971 42.7951 41.3396 42.8126 41.3735 42.8126L41.3311 42.891ZM40.3805 43.885V44.0507L39.9901 44.2774L40.2023 44.0594L40.6436 42.8126L40.7709 42.769L40.3805 43.885ZM40.3805 44.7831V45.1406L40.2532 44.8615L40.3805 44.7831ZM40.3466 45.4196C40.2617 45.4893 40.2702 45.498 40.2192 45.4719L40.3466 45.4196ZM39.362 44.6436L39.5742 43.8589L39.6845 43.824L39.4893 44.5738L39.362 44.6436ZM36.7649 48.3666V48.1922C37.2826 48.044 37.0195 48.0527 37.5033 48.2358V48.2445L36.7649 48.3666Z" fill="#FBDD73"/>
<path d="M13.3057 10.4569H39.4892V36.797C39.4892 42.2289 33.8536 41.4181 31.1546 41.4181C29.0837 41.4181 28.201 41.4617 26.4017 43.0834C24.6023 41.4617 23.7112 41.4181 21.6403 41.4181C18.9413 41.4181 13.3057 42.2289 13.3057 36.797V10.4569Z" fill="#1F1A17"/>
<path d="M38.7343 38.3833C38.5815 38.8106 38.4542 39.0896 38.1571 39.4558C37.198 40.6241 35.2969 40.8683 33.9304 40.8944C32.4706 40.9206 30.1281 40.7288 28.821 41.0339C27.9129 41.2432 27.1066 41.7576 26.4021 42.3679C24.6537 40.9119 23.6267 40.8334 21.3691 40.8595C19.3406 40.877 15.8014 41.2432 14.4689 39.2204C13.9766 38.4705 13.8578 37.6771 13.8408 36.7878V26.5865H38.9634C38.9634 27.1882 38.9804 36.6919 38.9464 37.2412C38.9125 37.712 38.8531 37.9474 38.7343 38.3833Z" fill="#DE411A"/>
<path d="M18.4238 24.2853C16.8366 24.2068 15.3938 24.1719 13.8066 24.3202V21.7655C14.4092 21.7655 15.0882 21.8788 15.7842 22.123C17.1252 22.6112 18.1182 23.4657 18.4238 24.2853ZM19.2131 22.8292V22.8379C20.0024 23.2216 20.5711 23.5878 20.8257 24.4771C20.1212 24.4161 19.4338 24.355 18.7293 24.3114C18.7293 24.1894 18.5086 23.797 18.4322 23.6662C18.0843 23.1344 17.4307 22.62 16.8875 22.3148C16.8875 22.3061 16.8791 22.3061 16.8791 22.3061C17.7023 22.3409 18.4917 22.4979 19.2131 22.8292ZM17.4477 22.0532C17.1507 22.0096 16.8366 22.0096 16.5396 22.0096C16.1407 22.0096 16.4886 22.0881 15.886 21.8527C15.4108 21.6783 14.7997 21.5475 14.2989 21.4952C14.1292 21.4778 13.9679 21.4778 13.8066 21.469V20.6146C14.0528 20.6233 14.3074 20.6407 14.5705 20.6756C15.8521 20.8674 16.9215 21.408 17.4477 22.0532ZM17.7787 21.1726C17.7787 21.1813 17.7872 21.19 17.7872 21.1987C18.1607 21.3644 18.3898 21.4778 18.6784 21.8004C18.8821 22.0096 19.0094 22.1927 19.1112 22.463C18.8227 22.3671 18.5086 22.2363 18.2031 22.1753C18.0843 22.1578 17.9654 22.1317 17.8466 22.1055C17.5496 21.5998 16.8536 21.1116 16.3274 20.8849C16.2849 20.8674 16.234 20.85 16.1916 20.8238C16.7857 20.8674 17.3289 20.9895 17.7787 21.1726ZM15.5041 20.5361L15.3259 20.5448C14.9524 20.414 14.214 20.3356 13.8066 20.3356V19.4288C14.4432 19.5944 15.1646 19.9432 15.5041 20.5361ZM16.2595 19.9519C16.7772 20.1525 17.1507 20.3094 17.5411 20.7366C17.558 20.7541 17.5665 20.7715 17.5835 20.789C17.0149 20.6146 16.4207 20.5274 15.8266 20.5274C15.589 20.0827 15.5041 20.0217 15.1137 19.6991C15.5296 19.7427 15.92 19.8299 16.2595 19.9519ZM15.4532 19.2195C15.606 19.3242 15.7842 19.4113 15.9115 19.5421C15.4956 19.4462 15.241 19.4201 14.8166 19.3852C14.3074 19.3503 14.7148 19.4288 14.2819 19.2631L13.8066 19.1236V18.8969C14.4177 18.8708 14.91 18.9754 15.4532 19.2195Z" fill="white"/>
<path d="M13.79 26.0466V24.5643C16.2259 24.3028 18.6194 24.4772 21.0467 24.73C20.7582 23.5181 20.4526 23.1867 19.4087 22.62C19.2814 21.8789 18.5515 21.1901 18.0337 20.9896C17.881 20.6321 17.7706 20.5187 17.4566 20.2572C17.151 19.9869 16.9219 19.891 16.5654 19.7689C16.0222 18.958 14.9189 18.5918 13.79 18.7052V11.0063H38.9126V26.0466H13.79Z" fill="#007CC3"/>
<path d="M28.3378 13.2819C28.5245 13.0552 28.7537 13.0901 28.915 13.2732C29.0932 13.4825 29.1271 13.9533 29.4751 14.2585C29.908 14.6595 30.3918 14.6072 30.7228 14.5462C30.8416 14.5375 31.1641 14.4241 31.3508 14.2497C31.4951 14.119 31.5715 13.84 31.3508 13.7615C31.2745 13.7266 31.1811 13.7005 31.215 13.622C31.2999 13.404 31.7837 13.7615 31.4018 14.2497C31.3593 14.3021 31.3169 14.4764 31.4527 14.5898C31.7582 14.8426 32.8107 13.8748 32.3863 13.622C32.4966 13.3343 32.7003 13.3081 32.938 13.2819C32.8531 13.3081 32.7088 13.3604 32.6494 13.4912C32.4118 13.9969 32.9634 14.2759 33.286 14.0841C33.8376 14.3544 34.7967 13.8574 35.1108 13.3953C35.3314 13.0552 35.2126 12.6019 34.924 12.506C34.3808 12.3229 34.4997 11.8695 34.627 11.7648C34.7713 11.6428 34.9495 11.6166 35.0768 11.6079C34.9919 11.6341 34.8561 11.6428 34.7288 11.8084C34.61 11.9828 34.6694 12.3141 34.8816 12.4449C35.1277 12.6019 36.0529 12.3054 36.2566 11.9567C36.4518 11.6166 36.5281 11.1719 36.1547 11.2504C35.951 11.294 35.9171 11.0324 36.1802 11.0499C36.6555 11.0848 36.4263 11.6776 36.2905 11.9218C36.4942 11.6776 36.6215 11.3638 36.596 11.0063H32.4966C32.2929 11.076 32.1911 11.1632 32.1911 11.1632C32.938 10.8842 33.0908 11.6776 32.9804 11.7648C32.7088 11.9567 33.0738 10.9976 32.1487 11.2068C31.9959 11.2417 31.7667 11.5207 31.7243 11.5992C31.6819 11.6776 31.4357 12.2269 31.7922 12.4449C32.1317 12.6716 32.5561 12.2357 32.5561 12.2357C32.5561 12.2357 32.5051 12.4711 32.1996 12.5844C31.894 12.6978 31.5036 12.3403 31.3254 12.131C31.1471 11.9131 31.4782 12.1398 31.0029 11.6602C30.5361 11.1719 29.8231 11.233 29.8231 11.233C30.1796 11.3115 30.4342 11.5992 30.4172 11.9218C30.3493 11.7387 30.2814 11.5817 30.1711 11.4945C29.8231 11.2243 29.3308 11.1284 28.8386 11.2068C28.1171 11.3289 27.7861 12.0962 27.3108 12.2008C27.1156 12.2444 26.8356 12.2705 26.9119 12.0874C26.9883 11.9043 27.1241 12.1572 27.3278 12.1136C27.4636 12.0874 27.6503 12.0003 27.7777 11.852C27.3193 11.7125 26.7677 11.5817 26.4621 11.573C25.5455 11.5469 24.9174 11.8869 24.6543 12.6716H27.54L28.3378 13.2819Z" fill="white"/>
<path d="M23.9669 12.6714V13.4125H24.3403V15.0866C23.3388 15.6882 22.7362 16.8216 22.6853 18.0161H22.0063V18.888H21.3867V24.817H31.6564V18.888H31.0284V18.0161H30.3154C30.256 16.5252 29.3648 15.2697 28.1511 14.8424V14.0141H28.3464V13.2817L27.5401 12.6714H23.9669Z" fill="#1F1A17"/>
<path d="M24.1789 12.8806H27.3362V13.2032H24.1789V12.8806ZM26.8779 14.8598C26.793 14.825 26.7081 14.7901 26.6232 14.7639V13.4648H26.9712V14.9034L26.8779 14.8598ZM26.3092 14.6855C25.9103 14.5983 25.5453 14.6244 25.1464 14.7029V13.4648H26.3686V14.6942L26.3092 14.6855ZM24.8663 14.7901L24.5523 14.9209V13.4648H24.8833V14.7814L24.8663 14.7901ZM22.8633 18.1033C22.9058 17.6935 22.8973 17.4843 23.0416 17.0657C23.3471 16.159 23.9412 15.4353 24.8154 15.0691L25.3332 14.9383V15.2522C24.6457 15.3743 24.0261 15.8625 23.6611 16.4554C23.2368 17.1616 23.1858 17.7022 23.1519 18.548H22.4984V19.4112H21.8788V24.6164H21.5732V19.0973H22.1928V18.2341H22.8548L22.8633 18.1033ZM26.4111 14.9819C26.8694 15.1301 27.1495 15.2609 27.5314 15.5922C27.8115 15.8364 28.117 16.2549 28.2783 16.5949C28.5668 17.1791 28.6093 17.5976 28.6517 18.2341H29.3222V19.0973H29.9418V24.6164H29.6278V19.4112H29.0167V18.548H28.3631C28.3037 17.6674 28.3122 17.3099 27.9048 16.5426C27.7351 16.2374 27.3701 15.8364 27.0646 15.6358C26.7166 15.4091 26.6063 15.3481 26.1819 15.2522V14.9383C26.2583 14.947 26.3347 14.9645 26.4111 14.9819ZM25.5878 14.9034H25.9188V24.6164H25.5878V14.9034ZM28.1255 18.8183H28.7536V19.6814H29.3816V24.6164H28.4056V19.9779C28.3377 19.1757 27.3192 18.7224 26.6996 19.446C26.5553 19.6204 26.479 19.8558 26.479 20.0825V24.6164H26.1819V15.5225C26.8694 15.662 27.4635 16.22 27.769 16.8478C28.0916 17.5104 28.0831 18.0771 28.1255 18.8183ZM25.3332 15.5225V24.6164H25.0361L25.0276 19.9779C24.9767 19.603 24.773 19.3152 24.442 19.167C23.9752 18.949 23.3811 19.1932 23.1774 19.6902L23.101 20.0825V24.6164H22.1419V19.6814H22.753V18.8183H23.3895C23.4574 18.0335 23.415 17.4145 23.8309 16.6734C24.1364 16.1415 24.7221 15.6358 25.3332 15.5225Z" fill="white"/>
<path d="M31.6562 24.4856C34.0751 24.4769 36.494 22.5674 38.9129 22.5151V23.3957C36.494 23.4306 34.0751 24.8082 31.6562 24.8169V24.4856ZM38.9129 18.7921V19.6727C36.494 19.7774 34.0751 23.387 31.6562 23.4045V23.0819C34.0751 23.0557 36.494 18.9142 38.9129 18.7921ZM38.9129 20.0651V20.9544C36.494 21.0329 34.0751 23.8666 31.6562 23.884V23.544C34.0751 23.5265 36.494 20.1697 38.9129 20.0651ZM38.9129 21.3293V22.21C36.494 22.271 34.0751 24.3461 31.6562 24.3548V24.0148C34.0751 24.0061 36.494 21.4078 38.9129 21.3293Z" fill="white"/>
<path d="M30.4766 38.985V37.6423H29.925C29.3224 36.8837 28.4142 37.1366 27.888 36.814C27.3363 36.4826 27.2345 35.9246 28.0323 35.8113C28.185 35.7851 28.3378 35.7677 28.4906 35.7502C28.4482 35.5061 28.3463 35.2358 28.1511 35.0701C29.4921 35.0004 30.3918 34.8086 31.6734 34.2854C32.1486 34.0762 32.5985 33.8495 33.0483 33.5792C33.3454 33.3874 33.6339 33.1781 33.931 32.9689C34.0074 32.8991 34.2875 32.6724 34.5166 32.498C34.8646 32.2452 34.8901 32.2103 34.7373 31.9139C34.5675 31.5913 34.3384 31.4953 34.0159 31.4256V31.0856H34.9919C34.7712 30.5711 34.6015 30.1962 34.0583 29.987V29.5597C29.2629 29.5597 23.534 29.5597 18.7386 29.5597V29.987C18.1784 30.2137 18.0257 30.5886 17.8135 31.0856H18.7895V31.4256C18.484 31.4953 18.2039 31.6 18.0596 31.9139C17.9323 32.1929 17.9238 32.2365 18.2803 32.498C18.9338 32.9776 19.0866 33.1607 19.7656 33.5792C20.6822 34.1547 21.9468 34.6604 22.9993 34.8783C23.5679 35.0004 24.1281 35.044 24.6543 35.0701C24.4421 35.2358 24.3657 35.5235 24.3063 35.7502C24.5609 35.7764 24.9853 35.8025 25.189 35.9421C25.5709 36.2036 25.2399 36.8401 24.4251 36.9796C23.8735 37.0668 23.2369 37.1453 22.8804 37.6423H22.3203V38.985H30.4766Z" fill="#1F1A17"/>
<path d="M25.0275 36.989C25.5113 36.7187 25.7659 36.1083 25.3076 35.777C26.0375 35.777 26.7674 35.777 27.4888 35.777C27.4379 35.8206 27.387 35.8555 27.3445 35.9078C27.0729 36.3176 27.4209 36.7884 27.7774 36.989C26.8608 36.989 25.9356 36.989 25.0275 36.989ZM33.8034 31.0775V31.4349H18.993V31.0775H33.8034ZM33.8543 30.1794C34.2363 30.2056 34.5164 30.5194 34.6691 30.8682H18.1357C18.2631 30.5456 18.5771 30.1881 18.9505 30.1794H33.8543ZM33.8543 29.7783V29.9701H18.942V29.7783H33.8543ZM27.7519 34.8877C29.0165 34.879 29.7634 34.722 30.6207 34.4866C31.5628 34.164 32.4115 33.7542 33.2433 33.1962C33.7185 32.8649 34.1599 32.5074 34.6012 32.1325C34.4994 31.9058 34.44 31.7575 34.1175 31.6704C33.761 31.5657 33.7016 31.5744 33.3281 31.7052C32.4964 32.0191 31.9702 33.17 30.8244 33.885C29.9841 34.4256 29.0844 34.661 27.7519 34.8877ZM27.4973 34.7482C27.4973 34.7569 27.5737 34.7482 27.6076 34.7394C28.363 34.6523 28.5752 34.6959 29.39 34.4343C30.8923 33.9024 31.1639 33.5798 31.6731 33.0567C31.9702 32.7341 32.2333 32.4289 32.5218 32.0714C32.9717 31.5396 31.7919 31.4349 31.4609 31.8273C31.079 32.2807 31.045 32.394 30.6801 32.8213C30.2727 33.2659 29.8144 33.946 29.059 34.2773C28.6601 34.4517 28.0914 34.5825 27.5992 34.7133C27.5652 34.722 27.4803 34.7394 27.4973 34.7482ZM27.1748 34.6871C27.1833 34.6871 27.2342 34.6784 27.2681 34.6697C27.8708 34.5563 28.1508 34.5389 28.7365 34.3035C29.8398 33.8501 29.9586 33.4926 30.4085 33.0131C30.6546 32.7166 30.8923 32.394 31.1214 32.054C31.4694 31.5396 30.417 31.4785 30.1878 31.836C29.7295 32.5597 29.6616 32.891 29.0929 33.5188C28.3715 34.3035 27.0899 34.6435 27.1748 34.6871ZM26.8098 34.6174C26.8268 34.6261 26.8777 34.6087 26.9032 34.6087C27.37 34.5215 27.6246 34.4256 28.015 34.2163C28.7534 33.8152 29.1523 33.4054 29.4239 32.9695C29.6022 32.6556 29.7634 32.4115 29.9586 32.0453C30.2387 31.5396 29.1693 31.4437 28.9571 31.8883C28.6771 32.5074 28.6346 32.7777 28.2018 33.3793C27.4294 34.4517 26.6995 34.5389 26.8098 34.6174ZM26.5382 34.6174C26.6316 34.6697 27.1324 34.2861 27.2342 34.2163C27.7944 33.8152 28.0914 33.4054 28.363 32.9695C28.5243 32.7079 28.6346 32.4115 28.7789 32.0453C28.9826 31.5396 27.8792 31.3826 27.6671 32.0191C27.4718 32.6207 27.4718 32.8213 27.2172 33.3793C27.005 33.885 26.9287 34.103 26.5892 34.5389C26.5722 34.5563 26.5128 34.5912 26.5382 34.6174ZM26.4364 34.6087C26.4618 34.6087 26.4788 34.5825 26.4873 34.5651C26.9541 33.8414 27.1833 33.2747 27.5143 32.1063C27.6925 31.4785 26.5637 31.3565 26.5297 32.0801L26.4194 34.5389C26.4194 34.5563 26.4194 34.6087 26.4364 34.6087ZM24.5692 35.5678H28.2357C28.2102 35.4806 28.1593 35.3934 28.0999 35.3323C27.6076 34.8005 27.0475 34.6871 26.3855 34.6871C25.7744 34.6871 25.1293 34.8266 24.6965 35.3323C24.6456 35.3934 24.6031 35.4806 24.5692 35.5678ZM28.711 37.2418C29.1439 37.329 29.3306 37.3813 29.6446 37.6429H23.1603C23.4064 37.39 23.7629 37.3116 24.0939 37.2418C24.1872 37.2244 24.2806 37.2157 24.374 37.2069C25.7234 37.2069 27.0729 37.2069 28.4309 37.2069C28.5243 37.2157 28.6176 37.2244 28.711 37.2418ZM30.2727 37.8521V38.0788H22.5322V37.8521H30.2727ZM30.2727 38.2881V38.7764C27.5822 38.7764 25.2227 38.7764 22.5322 38.7764V38.2881H30.2727ZM25.0445 34.8877C23.7798 34.879 23.0414 34.722 22.1927 34.4866C21.2421 34.164 20.3934 33.7542 19.5531 33.1962L18.1952 32.1237C18.3055 31.897 18.3819 31.7488 18.6789 31.6704C19.0439 31.5657 19.1033 31.5744 19.4767 31.7052C20.283 32.0191 20.8772 33.1962 21.972 33.885C22.8208 34.4256 23.7119 34.661 25.0445 34.8877ZM25.3076 34.7482C25.2991 34.7569 25.2227 34.7482 25.1887 34.7394C24.4419 34.6523 24.2297 34.6959 23.4064 34.4343C21.9041 33.9024 21.6325 33.5798 21.1318 33.0567C20.8347 32.7341 20.5631 32.4289 20.2746 32.0714C19.8332 31.5396 21.0045 31.4349 21.344 31.8273C21.7174 32.2807 21.7514 32.394 22.1333 32.8213C22.5237 33.2659 22.9905 33.946 23.7459 34.2773C24.1363 34.4517 24.7135 34.5825 25.1972 34.7133C25.2312 34.722 25.3161 34.7394 25.3076 34.7482ZM25.6301 34.6871C25.6216 34.6871 25.5622 34.6784 25.5367 34.6697C24.9341 34.5563 24.6456 34.5389 24.0599 34.3035C22.9651 33.8501 22.8462 33.4926 22.3964 33.0131C22.1503 32.7166 21.9041 32.394 21.6835 32.054C21.327 31.5396 22.3879 31.4785 22.6171 31.836C23.0669 32.5597 23.1348 32.891 23.7119 33.5188C24.4334 34.3035 25.698 34.6348 25.6301 34.6871ZM25.995 34.6174C25.9696 34.6261 25.9187 34.6087 25.9017 34.6087C25.4349 34.5215 25.1718 34.4256 24.7814 34.2163C24.0514 33.8152 23.6525 33.4054 23.3809 32.9695C23.1942 32.6556 23.033 32.4115 22.8377 32.0453C22.5661 31.5396 23.6356 31.4437 23.8393 31.8883C24.1278 32.5074 24.1618 32.7777 24.6031 33.3793C25.367 34.443 26.0969 34.5476 25.995 34.6174ZM26.2582 34.6174C26.2072 34.6784 25.6471 34.2773 25.5622 34.2163C25.0105 33.8152 24.7135 33.4054 24.4334 32.9695C24.2806 32.7079 24.1703 32.4115 24.026 32.0453C23.8223 31.5396 24.9171 31.3826 25.1293 32.0191C25.333 32.6207 25.3245 32.8213 25.5792 33.3793C25.7998 33.885 25.8762 34.103 26.2157 34.5389C26.2242 34.5563 26.2836 34.5912 26.2582 34.6174ZM26.3685 34.6087C26.343 34.6087 26.3176 34.5825 26.3176 34.5651C25.8508 33.8414 25.6216 33.2747 25.2906 32.1063C25.1124 31.4785 26.2412 31.3565 26.2751 32.0801L26.3855 34.5389C26.3855 34.5563 26.3855 34.6087 26.3685 34.6087Z" fill="#007436"/>
</svg>
