<svg width="57" height="51" viewBox="0 0 57 51" fill="none" xmlns="http://www.w3.org/2000/svg">
<path fill-rule="evenodd" clip-rule="evenodd" d="M21.6635 26.5679L24.9168 12.8138H21.0937V11.2683C22.9227 11.2314 24.8068 11.1487 26.746 11.0107C28.6848 10.882 30.6608 10.7069 32.6736 10.4955L28.5839 28.2699C28.5011 28.647 28.4277 28.9968 28.3817 29.3277C28.3357 29.6499 28.3176 29.8708 28.3176 29.9995C28.3176 30.3029 28.3817 30.5239 28.5196 30.6617C28.6573 30.7998 28.878 30.8641 29.1813 30.8641C29.8799 30.8641 30.6427 30.3398 31.4605 29.3002C32.2784 28.2514 33.1606 26.6966 34.1165 24.6267L35.2652 25.1144C34.1165 27.9756 32.8297 30.027 31.4053 31.269C29.9808 32.5111 28.2256 33.1275 26.1209 33.1275C24.5679 33.1275 23.3639 32.7962 22.5183 32.1246C21.6816 31.462 21.2591 30.5055 21.2591 29.2727C21.2591 28.9596 21.2959 28.5643 21.3694 28.0858C21.4428 27.5983 21.5348 27.0923 21.6635 26.5679ZM25.915 5.22075C25.915 4.15371 26.2826 3.25203 27.0179 2.48842C27.7531 1.73415 28.6538 1.35684 29.7106 1.35684C30.7676 1.35684 31.6773 1.74313 32.4401 2.50693C33.2029 3.27055 33.5799 4.17204 33.5799 5.22075C33.5799 6.26048 33.2029 7.16216 32.4401 7.90725C31.6773 8.65235 30.7676 9.02967 29.7106 9.02967C28.6538 9.02967 27.7531 8.6617 27.0179 7.92559C26.2826 7.18067 25.915 6.27882 25.915 5.22075ZM28.1795 0.199219C37.5825 0.199219 45.2049 7.8297 45.2049 17.2423C45.2049 26.6546 37.5825 34.2851 28.1795 34.2851C18.7769 34.2851 11.1543 26.6546 11.1543 17.2423C11.1543 7.8297 18.7769 0.199219 28.1795 0.199219Z" fill="#29A72A"/>
<path fill-rule="evenodd" clip-rule="evenodd" d="M2.22798 39.169C2.22798 39.2111 2.22669 39.2466 2.22348 39.2748C2.22019 39.3025 2.21491 39.3255 2.20911 39.3418C2.20244 39.3584 2.19464 39.3702 2.18477 39.3761C2.17499 39.3827 2.16434 39.3858 2.15325 39.3858H1.7199V40.7403C1.7199 40.7527 1.71618 40.7637 1.70812 40.7736C1.70093 40.7836 1.68777 40.7914 1.67011 40.7979C1.65227 40.804 1.62741 40.8091 1.5958 40.8124C1.56454 40.8157 1.52505 40.817 1.47786 40.817C1.43187 40.817 1.39316 40.8157 1.36224 40.8124C1.33211 40.8091 1.30708 40.8039 1.28863 40.7979C1.26975 40.7914 1.25728 40.7836 1.25009 40.7736C1.24273 40.7637 1.23944 40.7527 1.23944 40.7403V39.3858H0.808174C0.795008 39.3858 0.783925 39.3827 0.774919 39.3754C0.765043 39.3682 0.756993 39.3562 0.750585 39.3399C0.743913 39.3235 0.739411 39.3005 0.736121 39.271C0.732831 39.2414 0.731445 39.2057 0.731445 39.1631C0.731445 39.125 0.733351 39.0927 0.737333 39.0665C0.741401 39.0403 0.745819 39.0185 0.752662 39.0021C0.759071 38.9856 0.766949 38.9739 0.775349 38.9666C0.784618 38.9595 0.795701 38.9563 0.808174 38.9563H2.15325C2.16434 38.9563 2.17499 38.9595 2.18477 38.9666C2.19464 38.9739 2.20244 38.9856 2.20911 39.0021C2.21569 39.0185 2.22019 39.0409 2.22348 39.0684C2.22669 39.0961 2.22798 39.1297 2.22798 39.169ZM3.37943 40.8051L3.17132 41.4122C3.15981 41.4446 3.12889 41.4675 3.07754 41.4819C3.02644 41.4957 2.95154 41.5031 2.85316 41.5031C2.80189 41.5031 2.76049 41.501 2.73044 41.4963C2.69953 41.4919 2.67649 41.4847 2.6609 41.4742C2.64557 41.4635 2.63726 41.451 2.63587 41.4359C2.63457 41.4202 2.63847 41.4017 2.64774 41.3802L2.87611 40.8051C2.85982 40.7973 2.84458 40.7855 2.83133 40.7697C2.81773 40.7532 2.80769 40.7362 2.8012 40.7185L2.21248 39.1389C2.19603 39.0942 2.18763 39.0594 2.18763 39.0355C2.18763 39.0119 2.19534 38.9937 2.21058 38.9799C2.22565 38.9666 2.25171 38.9575 2.28808 38.9522C2.32481 38.947 2.3727 38.9444 2.43297 38.9444C2.48761 38.9444 2.53091 38.9451 2.56296 38.947C2.59517 38.9489 2.62002 38.9541 2.63778 38.9614C2.65553 38.9693 2.66921 38.9812 2.67771 38.9975C2.68697 39.0133 2.69563 39.0362 2.70489 39.066L3.10845 40.2158H3.11443L3.48058 39.0428C3.48846 39.0095 3.49833 38.987 3.51089 38.9759C3.52267 38.9655 3.54301 38.9575 3.57116 38.9522C3.59939 38.947 3.64936 38.9444 3.71968 38.9444C3.77536 38.9444 3.82126 38.947 3.85729 38.9522C3.89418 38.9575 3.92102 38.9666 3.93886 38.9812C3.95584 38.9948 3.96441 39.014 3.96441 39.0377C3.96441 39.0613 3.95991 39.0897 3.94926 39.1217L3.37943 40.8051ZM5.87525 39.8556C5.87525 40.0083 5.85888 40.1462 5.82606 40.2684C5.79394 40.3907 5.74596 40.495 5.68291 40.5812C5.62056 40.6673 5.54253 40.7329 5.44935 40.7796C5.35556 40.8255 5.24844 40.8484 5.12841 40.8484C5.07853 40.8484 5.03237 40.8439 4.99124 40.834C4.94915 40.8243 4.90913 40.8099 4.86965 40.7901C4.83093 40.7697 4.7924 40.7454 4.7536 40.7158C4.7155 40.6863 4.67558 40.6513 4.63487 40.612V41.4202C4.63487 41.4333 4.63089 41.4446 4.62292 41.4551C4.61574 41.4649 4.60248 41.4742 4.58352 41.4806C4.56515 41.4879 4.54013 41.4931 4.51008 41.4972C4.47916 41.501 4.43985 41.5031 4.39257 41.5031C4.3452 41.5031 4.30588 41.501 4.27513 41.4972C4.24483 41.4931 4.21997 41.4879 4.20153 41.4806C4.18239 41.4742 4.16931 41.4649 4.16203 41.4551C4.15432 41.4446 4.15026 41.4333 4.15026 41.4202V39.0212C4.15026 39.0087 4.15363 38.9976 4.16013 38.9877C4.16611 38.9778 4.17719 38.97 4.19355 38.9636C4.2094 38.9575 4.23036 38.9522 4.25729 38.9489C4.28353 38.9456 4.31644 38.9445 4.35567 38.9445C4.39447 38.9445 4.42668 38.9457 4.45284 38.9489C4.47916 38.9522 4.50082 38.9575 4.51649 38.9636C4.53234 38.97 4.54351 38.9778 4.55 38.9877C4.55667 38.9976 4.56005 39.0087 4.56005 39.022V39.2242C4.60984 39.1729 4.65834 39.1277 4.70684 39.0889C4.75481 39.0495 4.80348 39.0172 4.85336 38.9911C4.90402 38.9648 4.95512 38.9451 5.0082 38.9319C5.06138 38.9195 5.11793 38.9129 5.17821 38.9129C5.30377 38.9129 5.41064 38.9378 5.49932 38.987C5.58722 39.0362 5.65927 39.1039 5.71512 39.1901C5.7709 39.2756 5.81168 39.3761 5.83723 39.4904C5.86286 39.604 5.87525 39.7264 5.87525 39.8556ZM5.37115 39.8893C5.37115 39.8164 5.36604 39.746 5.35487 39.679C5.34439 39.6118 5.32525 39.5522 5.29901 39.4996C5.27286 39.4469 5.23848 39.4049 5.19596 39.374C5.15266 39.3424 5.09957 39.3268 5.03574 39.3268C5.0037 39.3268 4.9721 39.3314 4.94066 39.3412C4.90913 39.3513 4.87753 39.3663 4.84479 39.3886C4.81197 39.4101 4.77845 39.4386 4.74434 39.4726C4.70969 39.5075 4.67281 39.55 4.63487 39.6014V40.1673C4.70234 40.2527 4.76729 40.3182 4.82851 40.365C4.88999 40.4115 4.95382 40.4347 5.01999 40.4347C5.08311 40.4347 5.13611 40.4188 5.18011 40.3867C5.2241 40.3544 5.26099 40.3123 5.28844 40.261C5.31685 40.2092 5.33772 40.1507 5.3508 40.0851C5.36474 40.0201 5.37115 39.9543 5.37115 39.8893ZM7.87027 40.746C7.87027 40.7588 7.86689 40.7697 7.85979 40.7784C7.85251 40.7874 7.84022 40.7947 7.82246 40.8006C7.80402 40.8065 7.77968 40.8103 7.74946 40.8131C7.71915 40.8157 7.6813 40.817 7.6348 40.817C7.58864 40.817 7.54924 40.8158 7.51797 40.8131C7.48637 40.8104 7.46074 40.8064 7.44116 40.8006C7.42081 40.7946 7.40678 40.7874 7.39838 40.7784C7.38989 40.7697 7.38591 40.7588 7.38591 40.746V39.9793C7.38591 39.9246 7.38721 39.8688 7.3905 39.8109C7.39362 39.7538 7.39907 39.6967 7.40487 39.6414C7.37396 39.696 7.34131 39.7486 7.3052 39.8004C7.26909 39.853 7.23289 39.9043 7.19556 39.9554L6.61672 40.7441C6.60469 40.7578 6.59429 40.7697 6.5839 40.7796C6.57394 40.7895 6.56069 40.7966 6.54433 40.8027C6.52874 40.8084 6.50847 40.8124 6.48405 40.8143C6.45972 40.8164 6.42828 40.817 6.38957 40.817C6.34341 40.817 6.306 40.8157 6.27725 40.8131C6.24833 40.8103 6.22538 40.8064 6.20841 40.8006C6.19074 40.7946 6.17878 40.7874 6.1716 40.7776C6.16441 40.7678 6.16112 40.7566 6.16112 40.7441V39.0192C6.16112 39.008 6.16441 38.9976 6.1716 38.9877C6.17878 38.9778 6.19117 38.97 6.21031 38.9636C6.22875 38.9575 6.25309 38.9522 6.28323 38.9489C6.31337 38.9456 6.35155 38.9444 6.39754 38.9444C6.48856 38.9444 6.55238 38.9509 6.58971 38.9636C6.6272 38.9765 6.64556 38.9949 6.64556 39.0193V39.7822C6.64556 39.8353 6.64348 39.8899 6.63967 39.9464C6.6356 40.003 6.6311 40.0575 6.62443 40.11C6.65526 40.0588 6.68626 40.0076 6.71831 39.9569C6.75043 39.9062 6.78465 39.8569 6.82084 39.8097L7.40487 39.0193C7.41561 39.0055 7.42644 38.9937 7.43761 38.9839C7.44956 38.9745 7.46385 38.9666 7.48108 38.9607C7.49884 38.9548 7.51962 38.9509 7.54465 38.9482C7.57028 38.9457 7.60258 38.9444 7.64251 38.9444C7.68789 38.9444 7.72452 38.9457 7.75483 38.9482C7.78445 38.9509 7.80713 38.9554 7.82489 38.9619C7.84212 38.9678 7.85398 38.9765 7.86048 38.987C7.86689 38.9969 7.87027 39.0088 7.87027 39.022V40.746ZM9.54633 40.4661C9.54633 40.4996 9.54564 40.5273 9.54373 40.5501C9.54183 40.5725 9.53914 40.5916 9.53577 40.6072C9.53248 40.6226 9.52849 40.635 9.52416 40.6448C9.5194 40.6546 9.50953 40.6666 9.49454 40.6816C9.47887 40.6963 9.45246 40.7147 9.41565 40.7355C9.37833 40.7566 9.33641 40.7755 9.28843 40.7927C9.24123 40.8091 9.18988 40.8228 9.13403 40.8327C9.07826 40.8432 9.02049 40.8484 8.96152 40.8484C8.82963 40.8484 8.7128 40.8283 8.61104 40.7867C8.50868 40.746 8.4233 40.685 8.35367 40.6049C8.28482 40.5245 8.23234 40.4259 8.19762 40.3105C8.16211 40.1947 8.14435 40.0626 8.14435 39.9135C8.14435 39.7415 8.16609 39.5922 8.2087 39.4673C8.25192 39.3418 8.31176 39.2382 8.3884 39.1557C8.46521 39.0736 8.55649 39.0128 8.66162 38.9726C8.76658 38.9326 8.88202 38.9129 9.00803 38.9129C9.05929 38.9129 9.10917 38.9173 9.15914 38.9267C9.20833 38.9351 9.2544 38.9475 9.2977 38.9629C9.34022 38.9784 9.37902 38.9956 9.41253 39.0147C9.44648 39.0343 9.4709 39.0509 9.48467 39.0653C9.49914 39.079 9.50883 39.0908 9.51489 39.1009C9.52009 39.1105 9.52485 39.123 9.52797 39.1383C9.53126 39.154 9.53386 39.1729 9.53577 39.1954C9.53776 39.2182 9.53854 39.2454 9.53854 39.2775C9.53854 39.3524 9.53248 39.4049 9.51939 39.4353C9.50641 39.4653 9.48987 39.4804 9.4696 39.4804C9.44804 39.4804 9.4244 39.4712 9.40007 39.4536C9.37565 39.4357 9.3468 39.4156 9.31329 39.3938C9.28055 39.3721 9.24037 39.3517 9.19456 39.334C9.14849 39.3162 9.09359 39.3072 9.02933 39.3072C8.90307 39.3072 8.80728 39.3555 8.74034 39.4523C8.67401 39.5493 8.64041 39.6915 8.64041 39.8787C8.64041 39.9707 8.64915 40.0523 8.66543 40.1232C8.68249 40.1933 8.70683 40.2527 8.73965 40.2998C8.77256 40.3472 8.81317 40.3834 8.86245 40.407C8.91233 40.4306 8.96931 40.4424 9.03504 40.4424C9.1012 40.4424 9.15914 40.4325 9.20686 40.4123C9.25492 40.3926 9.29683 40.3701 9.33286 40.3459C9.36854 40.3216 9.39885 40.2993 9.42371 40.2794C9.44804 40.2593 9.46813 40.2492 9.48467 40.2492C9.49645 40.2492 9.50572 40.2527 9.51351 40.2593C9.5213 40.2657 9.52719 40.2775 9.53196 40.2945C9.53646 40.3123 9.53966 40.3347 9.54243 40.3616C9.54494 40.3886 9.54633 40.4234 9.54633 40.4661ZM11.0682 39.169C11.0682 39.2111 11.0669 39.2466 11.0637 39.2748C11.0604 39.3025 11.0548 39.3255 11.0493 39.3418C11.0425 39.3584 11.0347 39.3702 11.0249 39.3761C11.0149 39.3827 11.0044 39.3858 10.9934 39.3858H10.56V40.7403C10.56 40.7527 10.5563 40.7637 10.5483 40.7736C10.5411 40.7836 10.5279 40.7914 10.5101 40.7979C10.4923 40.804 10.4676 40.8091 10.436 40.8124C10.4045 40.8157 10.3652 40.817 10.318 40.817C10.272 40.817 10.2332 40.8157 10.2023 40.8124C10.172 40.8091 10.1473 40.8039 10.1288 40.7979C10.1099 40.7914 10.0973 40.7836 10.09 40.7736C10.0829 40.7637 10.0796 40.7527 10.0796 40.7403V39.3858H9.64835C9.63518 39.3858 9.6241 39.3827 9.61483 39.3754C9.60522 39.3682 9.59708 39.3562 9.59067 39.3399C9.584 39.3235 9.5795 39.3005 9.57621 39.271C9.57283 39.2414 9.57153 39.2057 9.57153 39.1631C9.57153 39.125 9.57344 39.0927 9.57751 39.0665C9.58158 39.0403 9.58591 39.0185 9.59258 39.0021C9.59924 38.9856 9.60712 38.9739 9.61553 38.9666C9.62479 38.9595 9.63588 38.9563 9.64835 38.9563H10.9934C11.0044 38.9563 11.0149 38.9595 11.0249 38.9666C11.0347 38.9739 11.0425 38.9856 11.0493 39.0021C11.0558 39.0185 11.0604 39.0409 11.0637 39.0684C11.0669 39.0961 11.0682 39.1297 11.0682 39.169ZM12.4967 40.4661C12.4967 40.4996 12.4959 40.5273 12.494 40.5501C12.4921 40.5725 12.4895 40.5916 12.4862 40.6072C12.4829 40.6226 12.4789 40.635 12.4745 40.6448C12.4697 40.6546 12.4598 40.6666 12.4448 40.6816C12.4292 40.6963 12.4028 40.7147 12.366 40.7355C12.3286 40.7566 12.2868 40.7755 12.2387 40.7927C12.1915 40.8091 12.1404 40.8228 12.0843 40.8327C12.0286 40.8432 11.9708 40.8484 11.912 40.8484C11.78 40.8484 11.6631 40.8283 11.5614 40.7867C11.4587 40.746 11.3737 40.685 11.3041 40.6049C11.2352 40.5245 11.1826 40.4259 11.1479 40.3105C11.1124 40.1947 11.0947 40.0626 11.0947 39.9135C11.0947 39.7415 11.1164 39.5922 11.159 39.4673C11.2022 39.3418 11.2621 39.2382 11.3388 39.1557C11.4155 39.0736 11.5068 39.0128 11.612 38.9726C11.717 38.9326 11.8323 38.9129 11.9583 38.9129C12.0096 38.9129 12.0595 38.9173 12.1094 38.9267C12.1586 38.9351 12.2046 38.9475 12.248 38.9629C12.2904 38.9784 12.3293 38.9956 12.3628 39.0147C12.3969 39.0343 12.4212 39.0509 12.4349 39.0653C12.4495 39.079 12.4592 39.0908 12.4652 39.1009C12.4704 39.1105 12.4752 39.123 12.4783 39.1383C12.4816 39.154 12.4842 39.1729 12.4862 39.1954C12.4881 39.2182 12.4888 39.2454 12.4888 39.2775C12.4888 39.3524 12.4829 39.4049 12.4697 39.4353C12.4567 39.4653 12.4403 39.4804 12.4199 39.4804C12.3983 39.4804 12.3746 39.4712 12.3504 39.4536C12.326 39.4357 12.2971 39.4156 12.2636 39.3938C12.2309 39.3721 12.1908 39.3517 12.1449 39.334C12.099 39.3162 12.0437 39.3072 11.9796 39.3072C11.8534 39.3072 11.7576 39.3555 11.6906 39.4523C11.6243 39.5493 11.5907 39.6915 11.5907 39.8787C11.5907 39.9707 11.5995 40.0523 11.6158 40.1232C11.6328 40.1933 11.6571 40.2527 11.69 40.2998C11.7229 40.3472 11.7636 40.3834 11.8128 40.407C11.8626 40.4306 11.9196 40.4424 11.9853 40.4424C12.0517 40.4424 12.1094 40.4325 12.1573 40.4123C12.2052 40.3926 12.2472 40.3701 12.2832 40.3459C12.3188 40.3216 12.3489 40.2993 12.374 40.2794C12.3983 40.2593 12.4186 40.2492 12.4349 40.2492C12.4468 40.2492 12.456 40.2527 12.4639 40.2593C12.4716 40.2657 12.4776 40.2775 12.4823 40.2945C12.4868 40.3123 12.4901 40.3347 12.4929 40.3616C12.4953 40.3886 12.4967 40.4234 12.4967 40.4661ZM14.3572 40.7592C14.3572 40.7697 14.354 40.7784 14.3468 40.7855C14.3396 40.792 14.3269 40.7979 14.3093 40.8027C14.2915 40.8071 14.2665 40.8103 14.2352 40.8131C14.2043 40.8157 14.1648 40.817 14.1175 40.817C14.0638 40.817 14.0198 40.8158 13.9849 40.8131C13.9503 40.8104 13.9233 40.807 13.9023 40.8027C13.8821 40.7979 13.8675 40.7914 13.8584 40.7822C13.8499 40.7736 13.8425 40.7624 13.8374 40.7493L13.678 40.3394C13.6581 40.2842 13.6373 40.2373 13.6148 40.2006C13.5924 40.1632 13.5675 40.1336 13.5407 40.1108C13.5137 40.0882 13.4829 40.0726 13.4479 40.0626C13.414 40.0528 13.3739 40.0482 13.3292 40.0482H13.2309V40.7493C13.2309 40.7588 13.2264 40.7671 13.2176 40.7755C13.2084 40.7843 13.194 40.7914 13.1751 40.7979C13.156 40.804 13.1312 40.8091 13.1002 40.8124C13.0694 40.8157 13.0321 40.817 12.9888 40.817C12.9441 40.817 12.9061 40.8157 12.8752 40.8124C12.8443 40.8091 12.8193 40.8039 12.8003 40.7979C12.7812 40.7914 12.7674 40.7843 12.7588 40.7755C12.7505 40.7671 12.7464 40.7588 12.7464 40.7493V39.01C12.7464 39.0009 12.7505 38.9923 12.7588 38.9839C12.7674 38.9752 12.7812 38.9688 12.8003 38.9629C12.8193 38.9569 12.8443 38.9522 12.8752 38.9489C12.9061 38.9456 12.9441 38.9445 12.9888 38.9445C13.0321 38.9445 13.0694 38.9457 13.1002 38.9489C13.1312 38.9522 13.156 38.9569 13.1751 38.9629C13.194 38.9688 13.2084 38.9752 13.2176 38.9839C13.2264 38.9923 13.2309 39.0009 13.2309 39.01V39.6776H13.3287C13.3688 39.6776 13.4047 39.6731 13.437 39.6632C13.4686 39.6535 13.498 39.6374 13.5242 39.6151C13.5506 39.5929 13.5749 39.5625 13.5972 39.5259C13.6193 39.4885 13.6411 39.4424 13.6614 39.3871L13.8059 39.0172C13.8097 39.0048 13.8163 38.9937 13.8248 38.9839C13.834 38.9739 13.8479 38.9666 13.8661 38.9607C13.8853 38.9548 13.9108 38.9508 13.9437 38.9482C13.9759 38.9457 14.0192 38.9444 14.0728 38.9444C14.1208 38.9444 14.1596 38.9457 14.1898 38.9482C14.2201 38.9509 14.2437 38.9547 14.2608 38.9595C14.2778 38.9648 14.2902 38.9712 14.2962 38.9778C14.3029 38.9851 14.3062 38.9937 14.3062 39.004C14.3062 39.0166 14.3033 39.0324 14.2981 39.0502C14.2928 39.0684 14.2844 39.0927 14.2712 39.1237L14.1348 39.451C14.1078 39.5161 14.0796 39.5718 14.0492 39.617C14.0192 39.6632 13.9884 39.7005 13.9569 39.7302C13.9253 39.7597 13.8939 39.7834 13.8616 39.8013C13.8295 39.8196 13.7992 39.8333 13.7698 39.8439V39.8477C13.8092 39.8643 13.8465 39.8821 13.8806 39.9017C13.9156 39.9207 13.9482 39.9458 13.9797 39.9767C14.0113 40.0076 14.0416 40.0456 14.0704 40.0916C14.0985 40.1369 14.1275 40.192 14.1556 40.2558L14.3224 40.6416C14.3303 40.6579 14.3361 40.6726 14.3409 40.685C14.3454 40.6975 14.3487 40.7078 14.3514 40.7177C14.354 40.7276 14.356 40.7355 14.3566 40.7422C14.3572 40.748 14.3572 40.754 14.3572 40.7592V40.7592ZM16.3009 40.746C16.3009 40.7588 16.2977 40.7697 16.2906 40.7784C16.2834 40.7874 16.2709 40.7947 16.2533 40.8006C16.2348 40.8065 16.2105 40.8103 16.1802 40.8131C16.15 40.8157 16.112 40.817 16.0654 40.817C16.0194 40.817 15.9801 40.8158 15.9485 40.8131C15.917 40.8104 15.8915 40.8064 15.8718 40.8006C15.8515 40.7946 15.8376 40.7874 15.8292 40.7784C15.8206 40.7697 15.8166 40.7588 15.8166 40.746V39.9793C15.8166 39.9246 15.818 39.8688 15.8213 39.8109C15.8245 39.7538 15.8297 39.6967 15.8357 39.6414C15.8049 39.696 15.7721 39.7486 15.7359 39.8004C15.6997 39.853 15.6638 39.9043 15.6263 39.9554L15.0474 40.7441C15.0356 40.7578 15.025 40.7697 15.0145 40.7796C15.0047 40.7895 14.9917 40.7966 14.9751 40.8027C14.9593 40.8084 14.9389 40.8124 14.9149 40.8143C14.8904 40.8164 14.859 40.817 14.8202 40.817C14.7743 40.817 14.7368 40.8157 14.7081 40.8131C14.6791 40.8103 14.6561 40.8064 14.6392 40.8006C14.6214 40.7946 14.6096 40.7874 14.6025 40.7776C14.5952 40.7678 14.5918 40.7566 14.5918 40.7441V39.0192C14.5918 39.008 14.5952 38.9976 14.6025 38.9877C14.6096 38.9778 14.6221 38.97 14.6411 38.9636C14.6594 38.9575 14.6838 38.9522 14.7141 38.9489C14.744 38.9456 14.7822 38.9444 14.8281 38.9444C14.9193 38.9444 14.9829 38.9509 15.0205 38.9636C15.0578 38.9765 15.0763 38.9949 15.0763 39.0193V39.7822C15.0763 39.8353 15.0744 39.8899 15.0705 39.9464C15.0664 40.003 15.0617 40.0575 15.0552 40.11C15.086 40.0588 15.1169 40.0076 15.1491 39.9569C15.1812 39.9062 15.2154 39.8569 15.2516 39.8097L15.8357 39.0193C15.8462 39.0055 15.8572 38.9937 15.8685 38.9839C15.8804 38.9745 15.8948 38.9666 15.9117 38.9607C15.9296 38.9548 15.9505 38.9509 15.9755 38.9482C16.0012 38.9457 16.0334 38.9444 16.0733 38.9444C16.1184 38.9444 16.1553 38.9457 16.1856 38.9482C16.2151 38.9509 16.238 38.9554 16.2558 38.9619C16.2728 38.9678 16.2846 38.9765 16.2913 38.987C16.2977 38.9969 16.3009 39.0088 16.3009 39.022V40.746ZM18.3906 40.746C18.3906 40.7588 18.3874 40.7697 18.3802 40.7784C18.373 40.7874 18.3606 40.7947 18.3427 40.8006C18.3243 40.8065 18.3001 40.8103 18.2698 40.8131C18.2397 40.8157 18.2017 40.817 18.1549 40.817C18.109 40.817 18.0697 40.8158 18.0381 40.8131C18.0066 40.8104 17.981 40.8064 17.9615 40.8006C17.941 40.7946 17.9273 40.7874 17.9187 40.7784C17.9102 40.7697 17.9062 40.7588 17.9062 40.746V39.9793C17.9062 39.9246 17.9076 39.8688 17.9109 39.8109C17.914 39.7538 17.9194 39.6967 17.9254 39.6414C17.8944 39.696 17.8617 39.7486 17.8255 39.8004C17.7893 39.853 17.7535 39.9043 17.7159 39.9554L17.1369 40.7441C17.1253 40.7578 17.1145 40.7697 17.1042 40.7796C17.0943 40.7895 17.0813 40.7966 17.0647 40.8027C17.049 40.8084 17.0286 40.8124 17.0044 40.8143C16.9801 40.8164 16.9486 40.817 16.9099 40.817C16.8637 40.817 16.8264 40.8157 16.7976 40.8131C16.7688 40.8103 16.7456 40.8064 16.7286 40.8006C16.711 40.7946 16.6993 40.7874 16.692 40.7776C16.6846 40.7678 16.6813 40.7566 16.6813 40.7441V39.0192C16.6813 39.008 16.6846 38.9976 16.692 38.9877C16.6993 38.9778 16.7116 38.97 16.7306 38.9636C16.7491 38.9575 16.7733 38.9522 16.8035 38.9489C16.8337 38.9456 16.8719 38.9444 16.9177 38.9444C17.0089 38.9444 17.0726 38.9509 17.1102 38.9636C17.1475 38.9765 17.1659 38.9949 17.1659 39.0193V39.7822C17.1659 39.8353 17.1638 39.8899 17.16 39.9464C17.156 40.003 17.1512 40.0575 17.1448 40.11C17.1757 40.0588 17.2066 40.0076 17.2385 39.9569C17.2708 39.9062 17.305 39.8569 17.3411 39.8097L17.9254 39.0193C17.9358 39.0055 17.9468 38.9937 17.958 38.9839C17.9698 38.9745 17.9844 38.9666 18.0014 38.9607C18.0191 38.9548 18.04 38.9509 18.065 38.9482C18.0905 38.9457 18.123 38.9444 18.1629 38.9444C18.2081 38.9444 18.2449 38.9457 18.275 38.9482C18.3046 38.9509 18.3277 38.9554 18.3453 38.9619C18.3625 38.9678 18.3743 38.9765 18.381 38.987C18.3874 38.9969 18.3906 39.0088 18.3906 39.022V40.746ZM18.249 38.1993C18.249 38.2748 18.2365 38.3463 18.2122 38.4134C18.1878 38.4806 18.1485 38.539 18.094 38.5902C18.0394 38.6407 17.9674 38.681 17.878 38.7104C17.7887 38.74 17.6798 38.7551 17.5499 38.7551C17.4239 38.7551 17.3168 38.7413 17.2282 38.7144C17.1395 38.6874 17.0673 38.65 17.0116 38.6015C16.9558 38.5534 16.9151 38.495 16.8895 38.4258C16.8637 38.3569 16.8508 38.2813 16.8508 38.1993C16.8508 38.1795 16.8541 38.1639 16.8612 38.1518C16.8685 38.1394 16.8803 38.1294 16.8966 38.1217C16.9137 38.1144 16.9361 38.1086 16.9649 38.1054C16.9938 38.1019 17.0306 38.1006 17.074 38.1006C17.1153 38.1006 17.1489 38.1025 17.1764 38.1067C17.2034 38.1106 17.2236 38.1165 17.2373 38.125C17.2517 38.1329 17.2617 38.1435 17.2676 38.1559C17.2734 38.1677 17.2761 38.1823 17.2761 38.1993C17.2761 38.2335 17.282 38.2656 17.2945 38.2952C17.3069 38.3249 17.3246 38.3504 17.3482 38.3714C17.3726 38.3925 17.4021 38.4095 17.4369 38.4213C17.4717 38.4338 17.5105 38.4398 17.5525 38.4398C17.5939 38.4398 17.6313 38.4338 17.6645 38.4226C17.6982 38.4108 17.727 38.3945 17.7513 38.3721C17.7749 38.3504 17.7927 38.3249 17.8052 38.2945C17.8177 38.2643 17.8234 38.2309 17.8234 38.1953C17.8234 38.1795 17.826 38.1662 17.8314 38.1546C17.8361 38.1428 17.8464 38.1329 17.861 38.125C17.8754 38.1165 17.895 38.1106 17.9201 38.1067C17.9449 38.1026 17.9771 38.1006 18.0152 38.1006C18.0611 38.1006 18.0993 38.1019 18.1294 38.1054C18.1589 38.1086 18.1833 38.1144 18.201 38.1217C18.2187 38.1294 18.2311 38.1394 18.2384 38.1518C18.2457 38.1639 18.249 38.1795 18.249 38.1993ZM21.575 41.3782C21.5737 41.3958 21.5566 41.4103 21.5231 41.4209C21.4903 41.4306 21.4385 41.4359 21.3682 41.4359C21.294 41.4359 21.2403 41.4306 21.2074 41.4209C21.1741 41.4103 21.1575 41.3958 21.1575 41.3782V40.8051H19.7957C19.7497 40.8051 19.7154 40.7921 19.6936 40.7659C19.6722 40.7396 19.661 40.7007 19.661 40.6494V39.0212C19.661 39.0087 19.665 38.9976 19.6729 38.9877C19.68 38.9778 19.6932 38.97 19.7121 38.9636C19.7305 38.9575 19.7556 38.9522 19.7856 38.9489C19.8165 38.9456 19.856 38.9445 19.9033 38.9445C19.9504 38.9445 19.9898 38.9457 20.0207 38.9489C20.0509 38.9522 20.0757 38.9575 20.0941 38.9636C20.1132 38.97 20.1266 38.9778 20.1337 38.9877C20.1415 38.9976 20.1454 39.0087 20.1454 39.0212V40.399H20.7992V39.0212C20.7992 39.0087 20.8032 38.9976 20.811 38.9877C20.8181 38.9778 20.8313 38.97 20.8505 38.9636C20.8687 38.9575 20.8937 38.9522 20.9252 38.9489C20.9566 38.9456 20.9954 38.9445 21.0415 38.9445C21.0885 38.9445 21.1281 38.9457 21.159 38.9489C21.189 38.9522 21.214 38.9575 21.2324 38.9636C21.2513 38.97 21.2647 38.9778 21.2719 38.9877C21.2797 38.9976 21.2836 39.0087 21.2836 39.0212V40.399H21.481C21.5167 40.399 21.5415 40.4056 21.5546 40.4194C21.5685 40.4325 21.575 40.4584 21.575 40.4957V41.3782ZM23.3219 39.8312C23.3219 39.8906 23.3089 39.9339 23.2826 39.9621C23.2562 39.9904 23.2202 40.0049 23.1736 40.0049H22.1285C22.1285 40.0779 22.1373 40.1435 22.155 40.2033C22.172 40.2625 22.1995 40.313 22.237 40.3544C22.275 40.396 22.3238 40.4274 22.3833 40.4491C22.4431 40.4708 22.5138 40.4819 22.5973 40.4819C22.6819 40.4819 22.7562 40.4759 22.8205 40.4634C22.8841 40.451 22.9399 40.4378 22.9866 40.4227C23.0331 40.4075 23.0718 40.3945 23.1027 40.3819C23.1334 40.3694 23.1585 40.3635 23.1774 40.3635C23.1894 40.3635 23.1993 40.3656 23.2066 40.3701C23.2143 40.3747 23.221 40.3826 23.2262 40.3945C23.2307 40.4056 23.2347 40.4221 23.2367 40.443C23.2386 40.4641 23.2393 40.4911 23.2393 40.5228C23.2393 40.5509 23.2386 40.5752 23.2373 40.5949C23.236 40.6146 23.2341 40.6317 23.2314 40.6453C23.2287 40.6599 23.2255 40.6719 23.2202 40.681C23.215 40.6911 23.2085 40.7001 23.1999 40.7093C23.1914 40.7178 23.169 40.7302 23.1317 40.746C23.0943 40.7618 23.0469 40.777 22.9891 40.7921C22.9314 40.8071 22.8657 40.8202 22.7916 40.8314C22.7175 40.8428 22.6381 40.8484 22.5533 40.8484C22.4004 40.8484 22.2672 40.8295 22.1522 40.7907C22.0381 40.7527 21.9422 40.6941 21.8648 40.6161C21.7881 40.5376 21.731 40.4385 21.6929 40.3197C21.6554 40.2 21.6365 40.06 21.6365 39.8997C21.6365 39.7472 21.6561 39.6099 21.696 39.4871C21.7355 39.3649 21.7933 39.261 21.8693 39.1757C21.9449 39.0901 22.0367 39.0253 22.145 38.9803C22.254 38.9351 22.3762 38.9129 22.5119 38.9129C22.6557 38.9129 22.7784 38.9338 22.8803 38.9765C22.9827 39.0185 23.0659 39.0777 23.1317 39.1527C23.1966 39.2275 23.2451 39.3168 23.2761 39.4194C23.307 39.5219 23.3219 39.6336 23.3219 39.7545V39.8312ZM22.8533 39.6934C22.8573 39.5574 22.8298 39.4503 22.7713 39.3728C22.7129 39.2947 22.6228 39.2558 22.5009 39.2558C22.4391 39.2558 22.3852 39.2674 22.3401 39.2907C22.2942 39.3136 22.2562 39.3446 22.2258 39.3839C22.1956 39.4232 22.1726 39.4694 22.1569 39.5226C22.1405 39.5766 22.1313 39.6331 22.1285 39.6934H22.8533ZM28.3164 39.8893C28.3164 39.8163 28.3113 39.7461 28.3001 39.679C28.2895 39.6119 28.2706 39.5522 28.2443 39.4995C28.2181 39.4471 28.1839 39.4049 28.1412 39.3741C28.0978 39.3425 28.0447 39.3268 27.9811 39.3268C27.9489 39.3268 27.9175 39.3314 27.8858 39.3412C27.8543 39.3512 27.8228 39.3662 27.79 39.3886C27.7573 39.4102 27.7239 39.4386 27.6896 39.4726C27.6549 39.5075 27.6181 39.5501 27.5801 39.6014V40.1672C27.6476 40.2527 27.7126 40.3183 27.7737 40.365C27.8353 40.4116 27.899 40.4346 27.9653 40.4346C28.0283 40.4346 28.0815 40.4188 28.1255 40.3866C28.1695 40.3544 28.2062 40.3123 28.2338 40.2611C28.2621 40.2092 28.283 40.1506 28.2961 40.085C28.3099 40.0201 28.3164 39.9543 28.3164 39.8893ZM28.8206 39.8556C28.8206 40.0082 28.8041 40.1462 28.7713 40.2684C28.7392 40.3906 28.6912 40.495 28.6282 40.581C28.5659 40.6672 28.4878 40.7328 28.3946 40.7796C28.3007 40.8255 28.1937 40.8486 28.0737 40.8486C28.0237 40.8486 27.9778 40.8439 27.9365 40.8342C27.8945 40.8242 27.8543 40.8098 27.815 40.7901C27.7762 40.7697 27.7375 40.7453 27.6989 40.7158C27.6606 40.6863 27.6207 40.6514 27.5801 40.612V41.4201C27.5801 41.4333 27.5761 41.4445 27.5682 41.4551C27.561 41.4649 27.5478 41.4741 27.5287 41.4806C27.5104 41.4878 27.4854 41.4931 27.4553 41.4971C27.4245 41.501 27.385 41.5031 27.3378 41.5031C27.2905 41.5031 27.2512 41.501 27.2203 41.4971C27.1901 41.4931 27.1651 41.4878 27.1467 41.4806C27.1277 41.4741 27.1146 41.4649 27.1074 41.4551C27.0996 41.4445 27.0956 41.4333 27.0956 41.4201V39.0212C27.0956 39.0087 27.0989 38.9976 27.1055 38.9878C27.1114 38.9779 27.1224 38.97 27.1389 38.9635C27.1547 38.9575 27.1757 38.9522 27.2025 38.9488C27.2288 38.9457 27.2617 38.9444 27.3011 38.9444C27.3398 38.9444 27.3719 38.9457 27.3981 38.9488C27.4245 38.9522 27.446 38.9575 27.4619 38.9635C27.4776 38.97 27.4887 38.9779 27.4953 38.9878C27.5019 38.9976 27.5053 39.0087 27.5053 39.0218V39.2242C27.5552 39.1729 27.6036 39.1277 27.6521 39.0889C27.7001 39.0494 27.7488 39.0172 27.7987 38.991C27.8492 38.9647 27.9003 38.945 27.9534 38.9319C28.0067 38.9195 28.0632 38.9129 28.1234 38.9129C28.2489 38.9129 28.3559 38.9378 28.4445 38.987C28.5324 39.0363 28.6046 39.104 28.6603 39.1901C28.7161 39.2756 28.7569 39.3761 28.7825 39.4904C28.8081 39.604 28.8206 39.7264 28.8206 39.8556ZM26.936 39.1691C26.936 39.2111 26.9346 39.2466 26.9314 39.2748C26.928 39.3025 26.9227 39.3255 26.917 39.3418C26.9102 39.3584 26.9024 39.3702 26.8927 39.3761C26.8827 39.3826 26.8722 39.3858 26.8611 39.3858H26.4278V40.7402C26.4278 40.7527 26.424 40.7637 26.416 40.7737C26.4088 40.7836 26.3957 40.7914 26.3779 40.7979C26.3602 40.804 26.3352 40.8092 26.3038 40.8124C26.2723 40.8157 26.2329 40.817 26.1857 40.817C26.1397 40.817 26.101 40.8157 26.0701 40.8124C26.0399 40.8092 26.015 40.8039 25.9966 40.7979C25.9776 40.7914 25.9651 40.7836 25.9579 40.7737C25.9507 40.7637 25.9473 40.7527 25.9473 40.7402V39.3858H25.5161C25.503 39.3858 25.4919 39.3827 25.4826 39.3754C25.4729 39.3681 25.4649 39.3563 25.4584 39.3399C25.4518 39.3234 25.4471 39.3005 25.4439 39.2709C25.4406 39.2413 25.4393 39.2058 25.4393 39.1632C25.4393 39.1251 25.4412 39.0927 25.4452 39.0666C25.4492 39.0403 25.4537 39.0187 25.4605 39.0022C25.467 38.9857 25.4748 38.9739 25.4833 38.9666C25.4926 38.9594 25.5036 38.9562 25.5161 38.9562H26.8611C26.8722 38.9562 26.8827 38.9594 26.8927 38.9666C26.9024 38.9739 26.9102 38.9857 26.917 39.0022C26.9235 39.0187 26.928 39.0409 26.9314 39.0685C26.9346 39.0961 26.936 39.1296 26.936 39.1691ZM25.2809 40.7402C25.2809 40.7527 25.2769 40.7637 25.269 40.7737C25.2618 40.7836 25.2487 40.7914 25.231 40.7979C25.2126 40.804 25.1877 40.8092 25.1562 40.8124C25.1246 40.8157 25.0859 40.817 25.0398 40.817C24.992 40.817 24.9525 40.8157 24.9211 40.8124C24.8896 40.8092 24.8647 40.8039 24.8462 40.7979C24.8286 40.7914 24.8154 40.7836 24.8082 40.7737C24.8004 40.7637 24.7963 40.7527 24.7963 40.7402V40.064H24.1034V40.7402C24.1034 40.7527 24.0994 40.7637 24.0915 40.7737C24.0843 40.7836 24.071 40.7914 24.052 40.7979C24.0336 40.804 24.0087 40.8092 23.9786 40.8124C23.9477 40.8157 23.9082 40.817 23.8611 40.817C23.8138 40.817 23.7744 40.8157 23.7436 40.8124C23.7134 40.8092 23.6884 40.8039 23.67 40.7979C23.6509 40.7914 23.6379 40.7836 23.6307 40.7737C23.6229 40.7637 23.6188 40.7527 23.6188 40.7402V39.0212C23.6188 39.0087 23.6229 38.9976 23.6307 38.9878C23.6379 38.9779 23.6509 38.97 23.67 38.9635C23.6884 38.9575 23.7134 38.9522 23.7436 38.9488C23.7744 38.9457 23.8138 38.9444 23.8611 38.9444C23.9082 38.9444 23.9477 38.9457 23.9786 38.9488C24.0087 38.9522 24.0336 38.9575 24.052 38.9635C24.071 38.97 24.0843 38.9779 24.0915 38.9878C24.0994 38.9976 24.1034 39.0087 24.1034 39.0212V39.6659H24.7963V39.0212C24.7963 39.0087 24.8004 38.9976 24.8082 38.9878C24.8154 38.9779 24.8286 38.97 24.8462 38.9635C24.8647 38.9575 24.8896 38.9522 24.9211 38.9488C24.9525 38.9457 24.992 38.9444 25.0398 38.9444C25.0859 38.9444 25.1246 38.9457 25.1562 38.9488C25.1877 38.9522 25.2126 38.9575 25.231 38.9635C25.2487 38.97 25.2618 38.9779 25.269 38.9878C25.2769 38.9976 25.2809 39.0087 25.2809 39.0212V40.7402Z" fill="#29A72A"/>
<path fill-rule="evenodd" clip-rule="evenodd" d="M47.2899 39.906C47.2899 39.8121 47.2815 39.7234 47.2638 39.6398C47.2466 39.5565 47.2179 39.4835 47.1777 39.4203C47.1384 39.3573 47.0838 39.3074 47.0156 39.2712C46.9481 39.2346 46.8627 39.2161 46.761 39.2161C46.6672 39.2161 46.5864 39.2325 46.5187 39.266C46.4511 39.2995 46.3959 39.3467 46.3519 39.4079C46.308 39.4691 46.2758 39.5414 46.255 39.6248C46.2331 39.7082 46.2227 39.7996 46.2227 39.8982C46.2227 39.9935 46.2312 40.0828 46.249 40.1661C46.2661 40.2497 46.2949 40.3225 46.3357 40.385C46.3763 40.4468 46.4308 40.4967 46.4985 40.5328C46.5667 40.5697 46.6519 40.5881 46.7538 40.5881C46.8463 40.5881 46.9264 40.5716 46.9946 40.5381C47.0629 40.5045 47.1187 40.4579 47.1627 40.3974C47.2066 40.3371 47.2388 40.2647 47.2591 40.1813C47.2795 40.0979 47.2899 40.0059 47.2899 39.906ZM47.6208 39.8857C47.6208 40.0268 47.6024 40.157 47.565 40.2759C47.5282 40.3942 47.4726 40.4967 47.399 40.5828C47.3254 40.6689 47.2329 40.7358 47.1227 40.7838C47.0118 40.8318 46.883 40.8562 46.7373 40.8562C46.5949 40.8562 46.4708 40.835 46.3651 40.7923C46.2596 40.7504 46.1715 40.6886 46.1012 40.6077C46.0311 40.527 45.9786 40.4283 45.9437 40.3134C45.9089 40.1977 45.8919 40.0671 45.8919 39.9205C45.8919 39.7792 45.9104 39.6491 45.9463 39.5308C45.9831 39.4119 46.0383 39.3095 46.1118 39.2233C46.1853 39.1372 46.2771 39.0708 46.3875 39.023C46.4978 38.9755 46.6264 38.9519 46.7735 38.9519C46.916 38.9519 47.0399 38.973 47.1456 39.0158C47.2513 39.0576 47.3392 39.1194 47.4094 39.2003C47.4798 39.2811 47.5328 39.3791 47.5683 39.4946C47.6031 39.6104 47.6208 39.7403 47.6208 39.8857ZM45.8312 39.1332C45.8312 39.1588 45.8299 39.1806 45.8267 39.1983C45.8234 39.2161 45.8188 39.2312 45.8128 39.2424C45.8077 39.2542 45.801 39.2627 45.7938 39.2673C45.7866 39.2726 45.7782 39.2752 45.7682 39.2752H45.1184V40.7726C45.1184 40.7832 45.1158 40.7917 45.1106 40.7991C45.1053 40.8056 45.0974 40.8122 45.0856 40.8173C45.0738 40.8219 45.0581 40.8259 45.0369 40.8285C45.0167 40.8312 44.9904 40.8325 44.9583 40.8325C44.9268 40.8325 44.9012 40.8312 44.8807 40.8285C44.8599 40.8259 44.8433 40.822 44.8315 40.8173C44.8191 40.8122 44.8106 40.8056 44.8059 40.7991C44.8015 40.7917 44.7994 40.7832 44.7994 40.7726V39.1051C44.7994 39.0663 44.808 39.038 44.8256 39.019C44.8427 39.0005 44.8664 38.9914 44.8973 38.9914H45.7676C45.7782 38.9914 45.7866 38.994 45.7938 38.9999C45.801 39.0058 45.8069 39.0143 45.8128 39.0268C45.8188 39.0387 45.8234 39.0538 45.8267 39.0708C45.8299 39.0879 45.8312 39.1089 45.8312 39.1332ZM44.1014 39.906C44.1014 39.8121 44.0929 39.7234 44.0751 39.6398C44.0581 39.5565 44.0292 39.4835 43.9891 39.4203C43.9498 39.3573 43.8953 39.3074 43.827 39.2712C43.7595 39.2346 43.6741 39.2161 43.5724 39.2161C43.4785 39.2161 43.3978 39.2325 43.3302 39.266C43.2626 39.2995 43.2074 39.3467 43.1634 39.4079C43.1194 39.4691 43.0873 39.5414 43.0663 39.6248C43.0446 39.7082 43.0342 39.7996 43.0342 39.8982C43.0342 39.9935 43.0427 40.0828 43.0604 40.1661C43.0775 40.2497 43.1063 40.3225 43.1471 40.385C43.1877 40.4468 43.2422 40.4967 43.3098 40.5328C43.3782 40.5697 43.4634 40.5881 43.5652 40.5881C43.6576 40.5881 43.7377 40.5716 43.8061 40.5381C43.8743 40.5045 43.9302 40.4579 43.9741 40.3974C44.0181 40.3371 44.0502 40.2647 44.0705 40.1813C44.091 40.0979 44.1014 40.0059 44.1014 39.906ZM44.4322 39.8857C44.4322 40.0268 44.4138 40.157 44.3764 40.2759C44.3396 40.3942 44.284 40.4967 44.2104 40.5828C44.1369 40.6689 44.0443 40.7358 43.9341 40.7838C43.8231 40.8318 43.6944 40.8562 43.5488 40.8562C43.4063 40.8562 43.2822 40.835 43.1765 40.7923C43.071 40.7504 42.9828 40.6886 42.9127 40.6077C42.8425 40.527 42.7901 40.4283 42.7552 40.3134C42.7204 40.1977 42.7034 40.0671 42.7034 39.9205C42.7034 39.7792 42.7217 39.6491 42.7578 39.5308C42.7945 39.4119 42.8497 39.3095 42.9233 39.2233C42.9968 39.1372 43.0886 39.0708 43.1989 39.023C43.3092 38.9755 43.4378 38.9519 43.5849 38.9519C43.7273 38.9519 43.8513 38.973 43.957 39.0158C44.0627 39.0576 44.1507 39.1194 44.2208 39.2003C44.2912 39.2811 44.3443 39.3791 44.3798 39.4946C44.4144 39.6104 44.4322 39.7403 44.4322 39.8857ZM42.5673 40.7866C42.5673 40.7938 42.5652 40.801 42.5608 40.8063C42.5561 40.8122 42.5476 40.8173 42.5358 40.8207C42.5233 40.8246 42.5075 40.8279 42.4871 40.8298C42.4675 40.8318 42.4419 40.8325 42.4111 40.8325C42.3756 40.8325 42.346 40.8312 42.3237 40.8285C42.3014 40.826 42.283 40.8226 42.2686 40.8181C42.2549 40.8135 42.2443 40.8075 42.2383 40.801C42.2318 40.7938 42.2272 40.7857 42.2247 40.7766L42.0409 40.3278C42.0179 40.27 41.9936 40.2207 41.9674 40.1786C41.9411 40.1373 41.9109 40.1031 41.876 40.0775C41.842 40.0518 41.8033 40.0334 41.7594 40.0217C41.716 40.0106 41.6667 40.0047 41.6103 40.0047H41.4763V40.7845C41.4763 40.791 41.4731 40.797 41.4666 40.8035C41.46 40.8101 41.4507 40.8154 41.4376 40.8188C41.4245 40.8226 41.408 40.826 41.3871 40.8285C41.3668 40.8312 41.3431 40.8325 41.3162 40.8325C41.2886 40.8325 41.2649 40.8312 41.2446 40.8285C41.2236 40.826 41.2072 40.8226 41.194 40.8188C41.1809 40.8154 41.1719 40.8101 41.1659 40.8035C41.16 40.797 41.1573 40.7904 41.1573 40.7845V39.0236C41.1573 39.0177 41.16 39.0111 41.1659 39.0058C41.1718 38.9999 41.1809 38.9946 41.194 38.9914C41.2072 38.9874 41.2236 38.9842 41.2446 38.9821C41.2649 38.9802 41.2886 38.9796 41.3162 38.9796C41.3431 38.9796 41.3668 38.9802 41.3871 38.9821C41.408 38.9842 41.4245 38.9874 41.4376 38.9914C41.4507 38.9946 41.46 38.9999 41.4666 39.0058C41.4731 39.0111 41.4763 39.0177 41.4763 39.0242V39.7522H41.6103C41.6581 39.7522 41.7029 39.7469 41.7428 39.7359C41.7828 39.7246 41.8196 39.7069 41.8524 39.6819C41.886 39.6563 41.9155 39.6242 41.9411 39.5839C41.9674 39.544 41.9916 39.496 42.0133 39.4394L42.1735 39.0393C42.176 39.0289 42.1807 39.0202 42.1866 39.0124C42.1931 39.0045 42.203 38.998 42.2155 38.9933C42.2286 38.988 42.2456 38.9842 42.2667 38.9821C42.2876 38.9802 42.3159 38.9796 42.3507 38.9796C42.3809 38.9796 42.4064 38.9802 42.4261 38.9821C42.4457 38.9842 42.4616 38.9874 42.4728 38.9914C42.4832 38.9946 42.4905 38.9999 42.4944 39.0058C42.4984 39.0111 42.5003 39.0177 42.5003 39.0236C42.5003 39.0355 42.499 39.0479 42.4956 39.0604C42.4925 39.0735 42.4878 39.0879 42.4813 39.1051L42.3159 39.4869C42.2902 39.5512 42.2627 39.6051 42.2325 39.6491C42.2022 39.6925 42.1722 39.7293 42.1414 39.7581C42.1111 39.7871 42.0796 39.8093 42.0475 39.8258C42.016 39.8417 41.9851 39.8542 41.9555 39.8633V39.8673C42.0001 39.8823 42.0415 39.9007 42.0796 39.9224C42.1176 39.9447 42.1524 39.9716 42.1853 40.0032C42.2181 40.0355 42.2483 40.0736 42.2765 40.1183C42.3048 40.1623 42.3309 40.2129 42.356 40.2707L42.5462 40.7095C42.5515 40.7182 42.5548 40.7267 42.5574 40.7345C42.5601 40.7417 42.562 40.7497 42.5633 40.7563C42.5646 40.7635 42.566 40.7694 42.5666 40.7741C42.5673 40.7785 42.5673 40.7825 42.5673 40.7866L42.5673 40.7866ZM40.8394 40.506C40.8394 40.5276 40.8388 40.5466 40.8375 40.5625C40.8362 40.5788 40.8341 40.5919 40.8309 40.6032C40.8275 40.6143 40.8237 40.6236 40.8191 40.6321C40.8145 40.6406 40.8047 40.6531 40.7882 40.6689C40.7725 40.6852 40.7449 40.7051 40.7068 40.7293C40.6682 40.753 40.6248 40.7747 40.5768 40.7931C40.5284 40.8122 40.4765 40.8272 40.42 40.8384C40.3635 40.8502 40.3052 40.8562 40.2447 40.8562C40.12 40.8562 40.0099 40.8357 39.9139 40.7944C39.8175 40.7536 39.7367 40.6938 39.6725 40.6149C39.6073 40.5362 39.5581 40.4389 39.524 40.3246C39.4898 40.2095 39.4729 40.0775 39.4729 39.927C39.4729 39.7569 39.4938 39.6104 39.5353 39.4874C39.5771 39.3651 39.6344 39.2647 39.7065 39.1865C39.7794 39.1083 39.8646 39.0504 39.9625 39.0124C40.061 38.9749 40.1674 38.9559 40.2815 38.9559C40.3367 38.9559 40.3898 38.9611 40.4417 38.9717C40.4942 38.9814 40.5415 38.9952 40.5855 39.0117C40.6288 39.0289 40.6682 39.0479 40.7015 39.0701C40.7358 39.092 40.7608 39.111 40.7757 39.126C40.7916 39.1419 40.802 39.1544 40.8079 39.1628C40.8131 39.1722 40.8184 39.1826 40.8224 39.195C40.8256 39.2068 40.8284 39.2206 40.8296 39.2365C40.8309 39.2515 40.8316 39.2712 40.8316 39.2942C40.8316 39.3441 40.8256 39.3791 40.8145 39.3994C40.8026 39.4191 40.7889 39.429 40.772 39.429C40.7527 39.429 40.7306 39.4184 40.7056 39.3967C40.6807 39.3757 40.6492 39.352 40.6105 39.3265C40.5716 39.3008 40.5251 39.2771 40.4705 39.2562C40.4162 39.2346 40.3518 39.224 40.2776 39.224C40.1247 39.224 40.0071 39.2824 39.9258 39.4001C39.8444 39.5171 39.8038 39.6872 39.8038 39.9099C39.8038 40.0209 39.8142 40.1189 39.8353 40.203C39.8569 40.2865 39.8877 40.3568 39.9291 40.4133C39.9697 40.4691 40.0203 40.5113 40.08 40.5387C40.1397 40.5663 40.208 40.5803 40.2849 40.5803C40.3583 40.5803 40.4227 40.5684 40.4778 40.5453C40.5329 40.5223 40.5802 40.4967 40.6209 40.4685C40.6616 40.4408 40.6957 40.4158 40.7234 40.3936C40.7508 40.3706 40.772 40.3593 40.7876 40.3593C40.7961 40.3593 40.8041 40.3621 40.8107 40.3674C40.8172 40.3724 40.8225 40.3811 40.827 40.3929C40.8316 40.4054 40.8349 40.4205 40.8369 40.4396C40.8388 40.4579 40.8394 40.4803 40.8394 40.506H40.8394ZM38.9395 38.2213C38.9395 38.2942 38.9285 38.3632 38.9067 38.4269C38.8851 38.4914 38.8503 38.5479 38.8031 38.5958C38.7557 38.6438 38.6946 38.6818 38.6198 38.7095C38.5456 38.7371 38.4551 38.7508 38.3488 38.7508C38.2509 38.7508 38.1657 38.7384 38.0922 38.714C38.018 38.6896 37.9562 38.655 37.907 38.609C37.8577 38.5635 37.8203 38.5085 37.7954 38.4427C37.7704 38.377 37.758 38.3034 37.758 38.2213C37.758 38.2082 37.7601 38.197 37.7646 38.1883C37.7691 38.1792 37.7778 38.172 37.7903 38.1667C37.8021 38.1621 37.8184 38.1582 37.8381 38.1555C37.8577 38.153 37.8821 38.1516 37.9103 38.1516C37.9412 38.1516 37.9662 38.153 37.9839 38.1562C38.0023 38.1595 38.016 38.1648 38.0251 38.1707C38.0351 38.1773 38.0416 38.1858 38.0448 38.1964C38.0482 38.2061 38.0495 38.2186 38.0495 38.2324C38.0495 38.2738 38.056 38.3119 38.0685 38.3468C38.0816 38.3809 38.1012 38.4118 38.1277 38.4375C38.1539 38.463 38.1853 38.4827 38.2227 38.4973C38.2601 38.5111 38.3028 38.5183 38.3513 38.5183C38.3993 38.5183 38.4413 38.5111 38.4775 38.4973C38.5141 38.4827 38.5456 38.463 38.5714 38.4375C38.5969 38.4118 38.616 38.3809 38.6291 38.3447C38.6415 38.3087 38.6481 38.2698 38.6481 38.2285C38.6481 38.2161 38.6494 38.2049 38.6527 38.1949C38.6559 38.1852 38.6625 38.1773 38.6724 38.1707C38.6816 38.1648 38.6952 38.1595 38.7124 38.1562C38.7295 38.153 38.7532 38.1516 38.7819 38.1516C38.8128 38.1516 38.8384 38.153 38.858 38.1555C38.8779 38.1582 38.8935 38.1621 38.906 38.1667C38.9179 38.172 38.927 38.1792 38.9316 38.1883C38.9368 38.197 38.9395 38.2082 38.9395 38.2213H38.9395ZM39.1089 40.7747C39.1089 40.7838 39.1063 40.7923 39.101 40.7997C39.0957 40.8075 39.0878 40.8135 39.076 40.8181C39.065 40.8225 39.0485 40.8259 39.0282 40.8285C39.0077 40.8312 38.9822 40.8325 38.9513 40.8325C38.9204 40.8325 38.8949 40.8312 38.8745 40.8285C38.8543 40.8259 38.8371 40.8226 38.8246 40.8181C38.8116 40.8135 38.8031 40.8075 38.7978 40.7997C38.7925 40.7917 38.79 40.7838 38.79 40.7747V39.7772C38.79 39.7266 38.7912 39.676 38.7938 39.6235C38.7965 39.5714 38.7997 39.5209 38.8037 39.4703C38.7741 39.5224 38.7413 39.5723 38.7065 39.6221C38.6712 39.6714 38.6357 39.7206 38.6002 39.7694L37.867 40.7747C37.8577 40.7851 37.8499 40.7938 37.8427 40.8016C37.8355 40.8095 37.8262 40.8154 37.8158 40.82C37.8046 40.8246 37.7909 40.8279 37.7738 40.8298C37.7573 40.8318 37.7364 40.8325 37.7121 40.8325C37.6839 40.8325 37.6603 40.8312 37.6425 40.8285C37.6241 40.826 37.6097 40.8226 37.5991 40.8181C37.588 40.8135 37.5802 40.8075 37.5755 40.7997C37.571 40.7917 37.5689 40.7838 37.5689 40.7747V39.0374C37.5689 39.0283 37.571 39.0202 37.5755 39.0124C37.5802 39.0045 37.5886 38.998 37.601 38.9933C37.6129 38.988 37.6294 38.9842 37.6503 38.9821C37.6708 38.9802 37.6958 38.9796 37.7258 38.9796C37.7875 38.9796 37.8302 38.9842 37.8532 38.994C37.8761 39.0039 37.8879 39.0183 37.8879 39.0374V40.0407C37.8879 40.0906 37.8867 40.1405 37.8842 40.1898C37.8814 40.2398 37.8781 40.2885 37.8742 40.3377C37.9038 40.2885 37.934 40.2411 37.9641 40.1938C37.9936 40.1471 38.0264 40.1012 38.0606 40.0565L38.8037 39.0374C38.8109 39.0268 38.8187 39.0183 38.8274 39.0111C38.8358 39.0039 38.8456 38.998 38.8581 38.994C38.8699 38.9894 38.8845 38.9868 38.9015 38.9849C38.9179 38.9828 38.9395 38.9815 38.9665 38.9815C38.9933 38.9815 39.0164 38.9828 39.0347 38.9849C39.0538 38.9868 39.0682 38.9899 39.0794 38.9953C39.0899 39.0005 39.0978 39.0065 39.1024 39.0143C39.1068 39.0223 39.1089 39.0308 39.1089 39.0414V40.7747ZM36.7738 39.981H36.5027C36.4161 39.981 36.3406 39.9882 36.2763 40.0032C36.2127 40.0177 36.1594 40.04 36.1167 40.069C36.0748 40.0979 36.044 40.1321 36.0235 40.1727C36.0039 40.2135 35.9941 40.2601 35.9941 40.3127C35.9941 40.4027 36.0222 40.4744 36.0793 40.5276C36.1364 40.5809 36.2159 40.6077 36.319 40.6077C36.4016 40.6077 36.4791 40.5868 36.5501 40.544C36.6209 40.502 36.6957 40.437 36.7738 40.3496V39.981ZM37.0889 40.7747C37.0889 40.7897 37.0836 40.8016 37.0738 40.8095C37.0634 40.8173 37.0494 40.8226 37.0312 40.8266C37.0135 40.8305 36.9872 40.8324 36.9524 40.8324C36.9196 40.8324 36.8926 40.8305 36.8729 40.8266C36.8533 40.8226 36.8389 40.8173 36.8295 40.8095C36.8204 40.8016 36.8158 40.7904 36.8158 40.7747V40.6012C36.7403 40.682 36.6564 40.7451 36.5632 40.7897C36.47 40.8338 36.3714 40.8562 36.2677 40.8562C36.1766 40.8562 36.0939 40.8443 36.0203 40.8207C35.9467 40.797 35.8838 40.7622 35.832 40.7176C35.78 40.6728 35.7394 40.6168 35.7104 40.5519C35.6817 40.4863 35.6671 40.412 35.6671 40.3284C35.6671 40.2306 35.6868 40.1458 35.7269 40.0743C35.7663 40.0019 35.8233 39.9422 35.8981 39.8948C35.9724 39.8475 36.0636 39.8114 36.1713 39.7877C36.2788 39.7641 36.4004 39.7522 36.5349 39.7522H36.7738V39.617C36.7738 39.5506 36.7666 39.4914 36.7528 39.4394C36.7384 39.3882 36.7161 39.3454 36.6846 39.3114C36.653 39.2771 36.6124 39.2515 36.5625 39.2346C36.5127 39.2168 36.4509 39.2081 36.378 39.2081C36.3 39.2081 36.2297 39.2174 36.1679 39.2365C36.1056 39.2556 36.0512 39.2758 36.0045 39.2989C35.958 39.3218 35.9186 39.3422 35.8871 39.3613C35.8562 39.3804 35.8326 39.3895 35.8174 39.3895C35.807 39.3895 35.7978 39.3869 35.7905 39.3817C35.7827 39.377 35.7761 39.3692 35.7702 39.3586C35.7644 39.3488 35.7603 39.3357 35.7578 39.3199C35.7551 39.3035 35.7538 39.2864 35.7538 39.2667C35.7538 39.2352 35.7559 39.2096 35.7603 39.1911C35.7649 39.1728 35.7761 39.155 35.7933 39.1385C35.8103 39.1221 35.8405 39.1024 35.8825 39.0794C35.9246 39.057 35.9737 39.0361 36.0288 39.017C36.0833 38.9986 36.1438 38.9827 36.2093 38.9702C36.2743 38.9578 36.3406 38.9519 36.4069 38.9519C36.531 38.9519 36.6366 38.9658 36.7239 38.994C36.8112 39.0223 36.8816 39.0642 36.9353 39.1188C36.9891 39.1734 37.0279 39.2411 37.0522 39.3218C37.0764 39.4026 37.0889 39.4974 37.0889 39.6051L37.0889 40.7747ZM35.5724 39.1353C35.5724 39.1609 35.571 39.1826 35.5685 39.2003C35.5659 39.2187 35.5619 39.2331 35.556 39.2443C35.55 39.2562 35.5435 39.2647 35.5363 39.2705C35.5285 39.2764 35.5186 39.2792 35.5073 39.2792H34.9894V40.7726C34.9894 40.7832 34.9869 40.7917 34.9816 40.7991C34.9763 40.8056 34.9685 40.8122 34.9566 40.8173C34.9448 40.8219 34.9292 40.8259 34.908 40.8285C34.8878 40.8312 34.8615 40.8325 34.8294 40.8325C34.7979 40.8325 34.7723 40.8312 34.7518 40.8285C34.7309 40.8259 34.7144 40.822 34.7027 40.8173C34.6902 40.8122 34.6817 40.8056 34.677 40.7991C34.6725 40.7917 34.6704 40.7832 34.6704 40.7726V39.2792H34.1527C34.1428 39.2792 34.1335 39.2765 34.125 39.2705C34.1165 39.2647 34.11 39.2562 34.1047 39.2443C34.1001 39.2331 34.0955 39.218 34.0923 39.1996C34.0889 39.1813 34.0876 39.1588 34.0876 39.1332C34.0876 39.1103 34.0889 39.0899 34.0923 39.0722C34.0955 39.0538 34.1001 39.0387 34.1059 39.0268C34.1119 39.0143 34.1184 39.0058 34.1263 38.9999C34.1335 38.994 34.1428 38.9914 34.1527 38.9914H35.5073C35.5173 38.9914 35.5264 38.994 35.535 38.9999C35.5435 39.0058 35.55 39.0143 35.5553 39.0268C35.56 39.0387 35.5645 39.0544 35.5678 39.0729C35.571 39.0913 35.5724 39.1122 35.5724 39.1353H35.5724ZM33.8779 40.7726C33.8779 40.7832 33.8752 40.7917 33.87 40.7991C33.8649 40.8056 33.8569 40.8122 33.845 40.8173C33.834 40.8219 33.8175 40.8259 33.7972 40.8285C33.777 40.8312 33.7511 40.8325 33.7203 40.8325C33.6882 40.8325 33.662 40.8312 33.6416 40.8285C33.6213 40.8259 33.6049 40.822 33.5924 40.8173C33.5805 40.8122 33.5721 40.8056 33.5668 40.7991C33.5615 40.7917 33.559 40.7832 33.559 40.7726V39.2595H33.0823C33.062 39.4631 33.037 39.6444 33.0083 39.8034C32.9794 39.9625 32.9471 40.1011 32.911 40.2195C32.8749 40.3371 32.8343 40.437 32.7897 40.5178C32.7449 40.5986 32.6958 40.6637 32.6426 40.7129C32.5887 40.7622 32.531 40.7976 32.4686 40.8194C32.4069 40.8409 32.3401 40.8522 32.2697 40.8522C32.258 40.8522 32.2481 40.8502 32.2396 40.8462C32.2317 40.8422 32.2245 40.8356 32.2192 40.8252C32.2147 40.8153 32.2107 40.801 32.2081 40.7819C32.2054 40.7635 32.2041 40.7398 32.2041 40.7102C32.2041 40.6792 32.2048 40.6543 32.2067 40.6353C32.2088 40.6162 32.212 40.6005 32.2166 40.5893C32.2213 40.5775 32.2272 40.5703 32.2337 40.5663C32.2409 40.5625 32.2494 40.5604 32.26 40.5604C32.3027 40.5604 32.3426 40.5506 32.3813 40.5309C32.4193 40.5104 32.4555 40.4776 32.4889 40.4323C32.5225 40.387 32.554 40.3271 32.5836 40.2535C32.6124 40.1794 32.6394 40.0886 32.6643 39.981C32.6885 39.8732 32.7115 39.7469 32.7332 39.6024C32.7548 39.4585 32.7758 39.2923 32.7948 39.105C32.7975 39.0663 32.8066 39.0379 32.8231 39.019C32.8388 39.0005 32.8618 38.9914 32.8914 38.9914H33.7801C33.8103 38.9914 33.8346 39.0005 33.8516 39.0196C33.8694 39.0379 33.8779 39.0663 33.8779 39.105V40.7726ZM31.1077 38.6602H31.1056L30.6771 39.902H31.5421L31.1077 38.6602ZM32.1788 40.7036C32.1888 40.732 32.1947 40.7543 32.1954 40.772C32.196 40.7891 32.1907 40.8023 32.1808 40.8116C32.1704 40.82 32.1533 40.8259 32.1296 40.8285C32.1059 40.8312 32.0745 40.8325 32.0345 40.8325C31.9951 40.8325 31.9628 40.8318 31.9393 40.8297C31.9157 40.8278 31.8979 40.8247 31.8854 40.8199C31.873 40.8153 31.8645 40.8095 31.8586 40.8016C31.8527 40.7938 31.8474 40.7845 31.8421 40.7726L31.6288 40.1661H30.5944L30.3902 40.7647C30.3862 40.7766 30.3818 40.7866 30.375 40.795C30.3684 40.8035 30.3594 40.8101 30.3469 40.816C30.335 40.822 30.3173 40.8259 30.2951 40.8285C30.2727 40.8312 30.2437 40.8324 30.2078 40.8324C30.1704 40.8324 30.1402 40.8312 30.1164 40.8278C30.0928 40.8247 30.0758 40.8187 30.0666 40.8095C30.0569 40.8003 30.0522 40.7872 30.0528 40.77C30.0535 40.7522 30.0588 40.73 30.0693 40.7017L30.9035 38.3868C30.9087 38.3724 30.9159 38.3605 30.9238 38.352C30.9325 38.3428 30.9443 38.3356 30.9606 38.331C30.9764 38.3257 30.9967 38.3218 31.0223 38.3197C31.0472 38.3178 31.0787 38.3172 31.1175 38.3172C31.1582 38.3172 31.1923 38.3178 31.2193 38.3197C31.2461 38.3218 31.2678 38.3257 31.2843 38.331C31.3013 38.3356 31.3138 38.3435 31.323 38.3527C31.3322 38.3624 31.3394 38.3743 31.3438 38.3881L32.1788 40.7036ZM50.2879 40.7864C50.2879 40.7937 50.286 40.8008 50.2814 40.8064C50.2768 40.8122 50.2682 40.8174 50.2565 40.8207C50.2441 40.8247 50.228 40.8279 50.2077 40.8298C50.1881 40.8319 50.1625 40.8324 50.1318 40.8324C50.0961 40.8324 50.0668 40.8311 50.0444 40.8284C50.0221 40.8259 50.0036 40.8226 49.9893 40.818C49.9755 40.8134 49.9649 40.8075 49.9589 40.8008C49.9524 40.7937 49.9479 40.7858 49.9453 40.7767L49.7615 40.3277C49.7385 40.27 49.7142 40.2207 49.6881 40.1786C49.6618 40.1373 49.6316 40.1031 49.5968 40.0775C49.5626 40.0518 49.5239 40.0335 49.48 40.0214C49.4366 40.0105 49.3873 40.0047 49.3308 40.0047H49.1969V40.7844C49.1969 40.7911 49.1938 40.797 49.1872 40.8035C49.1807 40.81 49.1712 40.8154 49.1582 40.8188C49.1452 40.8226 49.1287 40.8259 49.1077 40.8284C49.0873 40.8311 49.0637 40.8324 49.0369 40.8324C49.0092 40.8324 48.9856 40.8311 48.9652 40.8284C48.9443 40.8259 48.9279 40.8226 48.9147 40.8188C48.9016 40.8154 48.8925 40.81 48.8866 40.8035C48.8806 40.797 48.878 40.7904 48.878 40.7844V39.0237C48.878 39.0176 48.8806 39.0112 48.8866 39.0059C48.8925 39 48.9016 38.9946 48.9147 38.9913C48.9279 38.9875 48.9443 38.9841 48.9652 38.982C48.9856 38.9803 49.0092 38.9796 49.0369 38.9796C49.0637 38.9796 49.0873 38.9803 49.1077 38.982C49.1287 38.9841 49.1452 38.9875 49.1582 38.9913C49.1712 38.9946 49.1807 39 49.1872 39.0059C49.1937 39.0112 49.1969 39.0177 49.1969 39.0241V39.7523H49.3308C49.3788 39.7523 49.4235 39.747 49.4635 39.7359C49.5036 39.7247 49.5403 39.7069 49.5731 39.6819C49.6065 39.6563 49.6363 39.6242 49.6618 39.5841C49.6881 39.5439 49.7122 39.496 49.734 39.4395L49.8942 39.0393C49.8968 39.0289 49.9013 39.0203 49.9072 39.0123C49.9137 39.0045 49.9238 38.9979 49.9361 38.9933C49.9493 38.9879 49.966 38.9841 49.9873 38.982C50.0081 38.9803 50.0365 38.9796 50.0713 38.9796C50.1015 38.9796 50.127 38.9803 50.1468 38.982C50.1663 38.9841 50.1822 38.9875 50.1935 38.9913C50.2037 38.9946 50.211 39 50.215 39.0059C50.219 39.0112 50.2209 39.0177 50.2209 39.0237C50.2209 39.0353 50.2197 39.048 50.2164 39.0604C50.2131 39.0736 50.2085 39.088 50.2021 39.1051L50.0366 39.4868C50.0108 39.5513 49.9833 39.6052 49.9532 39.6491C49.9229 39.6925 49.8929 39.7292 49.8621 39.758C49.8318 39.7872 49.8001 39.8093 49.7682 39.8257C49.7366 39.8417 49.7057 39.8541 49.6762 39.8633V39.8674C49.7209 39.8824 49.7621 39.9007 49.8001 39.9224C49.8382 39.9448 49.8729 39.9717 49.9058 40.0032C49.9388 40.0355 49.9689 40.0736 49.9972 40.1183C50.0254 40.1624 50.0517 40.213 50.0765 40.2706L50.2668 40.7095C50.272 40.7183 50.2754 40.7267 50.2781 40.7346C50.2808 40.7417 50.2826 40.7497 50.2841 40.7564C50.2853 40.7635 50.2867 40.7695 50.2874 40.7741C50.288 40.7786 50.288 40.7826 50.288 40.7864L50.2879 40.7864ZM52.193 39.8777C52.193 40.0295 52.1764 40.1655 52.1437 40.2866C52.1117 40.4067 52.0637 40.5092 52.0001 40.5934C51.937 40.6774 51.858 40.7424 51.7648 40.7879C51.6716 40.8332 51.5648 40.8562 51.4448 40.8562C51.3935 40.8562 51.3462 40.8508 51.3028 40.841C51.2588 40.8305 51.2169 40.8148 51.1749 40.7923C51.1336 40.7707 51.0922 40.7432 51.0516 40.7094C51.0102 40.6768 50.9669 40.6373 50.9208 40.5926V41.4606C50.9208 41.4711 50.9183 41.4797 50.9131 41.4877C50.9076 41.4955 50.8999 41.502 50.888 41.5072C50.8762 41.5117 50.8605 41.5158 50.8395 41.5184C50.8191 41.521 50.7929 41.5224 50.7608 41.5224C50.7293 41.5224 50.7036 41.521 50.6832 41.5184C50.6622 41.5159 50.6459 41.5118 50.634 41.5072C50.6215 41.502 50.613 41.4955 50.6083 41.4877C50.604 41.4797 50.6019 41.4711 50.6019 41.4606V39.0393C50.6019 39.0275 50.604 39.0183 50.6078 39.0112C50.6116 39.0045 50.6196 38.9979 50.6308 38.9933C50.6425 38.9879 50.657 38.9841 50.6754 38.982C50.6931 38.9803 50.7154 38.9796 50.7412 38.9796C50.7679 38.9796 50.7903 38.9803 50.8079 38.982C50.8251 38.9841 50.8395 38.988 50.8512 38.9927C50.8631 38.9979 50.871 39.0045 50.8756 39.0112C50.8801 39.0183 50.882 39.0275 50.882 39.0393V39.2712C50.9346 39.2175 50.9852 39.1706 51.0335 39.1306C51.0823 39.0914 51.1315 39.0584 51.1808 39.032C51.23 39.0059 51.2804 38.9856 51.3324 38.9723C51.3842 38.9583 51.4387 38.9519 51.4964 38.9519C51.6218 38.9519 51.7282 38.9763 51.8168 39.0249C51.9048 39.0741 51.9769 39.1406 52.0327 39.2253C52.0885 39.3101 52.1293 39.4085 52.1549 39.5209C52.1805 39.6333 52.1929 39.7523 52.1929 39.8777H52.193ZM51.8621 39.9145C51.8621 39.8257 51.8557 39.7396 51.8417 39.657C51.8287 39.5742 51.805 39.5005 51.773 39.4362C51.74 39.3718 51.6961 39.3207 51.6407 39.2818C51.5858 39.2431 51.5169 39.2239 51.4348 39.2239C51.3935 39.2239 51.3535 39.2299 51.3133 39.2424C51.2741 39.2549 51.2332 39.2738 51.192 39.3002C51.1512 39.3264 51.1079 39.3613 51.0632 39.4047C51.0188 39.4481 50.9707 39.5012 50.9208 39.5642V40.2536C51.008 40.3609 51.0908 40.4423 51.1688 40.4993C51.2478 40.5558 51.3298 40.5841 51.4156 40.5841C51.4951 40.5841 51.5635 40.5649 51.6205 40.5263C51.6776 40.4875 51.7237 40.4364 51.759 40.3718C51.7944 40.3074 51.8202 40.2358 51.8372 40.1557C51.8535 40.0762 51.8621 39.9955 51.8621 39.9145ZM53.8716 40.7748C53.8716 40.7898 53.8663 40.8016 53.8564 40.8096C53.846 40.8174 53.832 40.8227 53.8138 40.8266C53.7961 40.8305 53.77 40.8324 53.7352 40.8324C53.7023 40.8324 53.6752 40.8304 53.6557 40.8266C53.636 40.8226 53.6216 40.8174 53.6124 40.8096C53.6032 40.8016 53.5984 40.7904 53.5984 40.7748V40.6013C53.5231 40.682 53.4392 40.7451 53.346 40.7898C53.2528 40.8338 53.1542 40.8562 53.0503 40.8562C52.9592 40.8562 52.8764 40.8444 52.8032 40.8207C52.7296 40.797 52.6664 40.7623 52.6147 40.7176C52.5627 40.6728 52.522 40.6168 52.4931 40.5519C52.4644 40.4862 52.4498 40.412 52.4498 40.3284C52.4498 40.2306 52.4695 40.1459 52.5097 40.0743C52.549 40.0019 52.6059 39.9422 52.6808 39.8949C52.7551 39.8475 52.8464 39.8113 52.9539 39.7877C53.0615 39.764 53.1832 39.7523 53.3176 39.7523H53.5563V39.617C53.5563 39.5506 53.5492 39.4913 53.5355 39.4395C53.5212 39.3884 53.4987 39.3455 53.4672 39.3115C53.4357 39.2771 53.3952 39.2515 53.3453 39.2346C53.2953 39.2168 53.2337 39.2082 53.1608 39.2082C53.0828 39.2082 53.0123 39.2175 52.9506 39.2364C52.8882 39.2555 52.8339 39.2759 52.7872 39.2989C52.7407 39.3218 52.7012 39.3423 52.6698 39.3613C52.6389 39.3804 52.6152 39.3895 52.6003 39.3895C52.5896 39.3895 52.5803 39.3869 52.5732 39.3817C52.5655 39.377 52.5589 39.3692 52.5529 39.3586C52.5471 39.3488 52.543 39.3357 52.5404 39.32C52.5378 39.3036 52.5364 39.2863 52.5364 39.2667C52.5364 39.2352 52.5385 39.2095 52.543 39.1911C52.5476 39.1728 52.5589 39.155 52.576 39.1384C52.5928 39.1221 52.6231 39.1024 52.6652 39.0793C52.7072 39.0571 52.7563 39.0361 52.8116 39.017C52.866 38.9985 52.9265 38.9827 52.992 38.9703C53.057 38.9579 53.1232 38.9519 53.1897 38.9519C53.3138 38.9519 53.4192 38.9657 53.5067 38.994C53.5939 39.0224 53.6641 39.0643 53.718 39.1188C53.7718 39.1735 53.8105 39.2412 53.8348 39.3218C53.8593 39.4026 53.8716 39.4974 53.8716 39.6052V40.7748ZM53.5563 39.981H53.2854C53.1988 39.981 53.1232 39.9882 53.0589 40.0032C52.9953 40.0178 52.9421 40.0399 52.8995 40.0691C52.8576 40.098 52.8268 40.132 52.8062 40.1727C52.7866 40.2136 52.7768 40.26 52.7768 40.3127C52.7768 40.4027 52.8049 40.4744 52.862 40.5276C52.9191 40.581 52.9986 40.6077 53.1017 40.6077C53.1845 40.6077 53.2618 40.5869 53.3328 40.544C53.4037 40.502 53.4784 40.4369 53.5563 40.3495V39.981ZM55.6275 40.7726C55.6275 40.7831 55.6257 40.7918 55.6211 40.7997C55.6166 40.8075 55.6087 40.8135 55.5968 40.8181C55.585 40.8227 55.5694 40.8259 55.5484 40.8285C55.528 40.8312 55.5009 40.8325 55.4677 40.8325C55.4361 40.8325 55.4105 40.8312 55.3899 40.8285C55.3691 40.8259 55.3527 40.8226 55.3407 40.8181C55.3284 40.8135 55.3199 40.8075 55.3152 40.7997C55.3108 40.7923 55.3087 40.7831 55.3087 40.7726V40.044H55.1263C55.0467 40.044 54.9852 40.0506 54.9404 40.0632C54.8965 40.0762 54.8564 40.0971 54.8216 40.1275C54.7864 40.1576 54.7548 40.1964 54.7265 40.243C54.6984 40.2897 54.6712 40.3469 54.6457 40.4152L54.5053 40.7535C54.4988 40.77 54.4922 40.7838 54.4842 40.7937C54.4764 40.8042 54.4652 40.8122 54.4508 40.8181C54.4364 40.8241 54.4173 40.8279 54.3951 40.8298C54.3729 40.8319 54.3452 40.8324 54.3117 40.8324C54.288 40.8324 54.2664 40.8318 54.248 40.8304C54.2296 40.8291 54.2139 40.8271 54.2007 40.824C54.1883 40.8207 54.1785 40.8154 54.1726 40.8081C54.166 40.8015 54.1627 40.7923 54.1627 40.7825C54.1627 40.7733 54.166 40.7586 54.1733 40.739C54.1804 40.7194 54.1947 40.6845 54.2166 40.6346L54.3549 40.3094C54.3912 40.2273 54.4352 40.1564 54.4875 40.0971C54.5399 40.0374 54.6005 39.9935 54.6688 39.9651C54.544 39.9422 54.4455 39.8922 54.3714 39.8159C54.298 39.7391 54.2613 39.6378 54.2613 39.5117C54.2613 39.4284 54.2782 39.3526 54.313 39.2851C54.3478 39.2174 54.3984 39.1602 54.4661 39.1136C54.5328 39.0662 54.6154 39.03 54.714 39.0051C54.8119 38.9803 54.9241 38.9675 55.0513 38.9675C55.0816 38.9675 55.1177 38.9683 55.1577 38.9696C55.1984 38.9709 55.2398 38.9729 55.2824 38.9755C55.3257 38.9782 55.3672 38.9808 55.4077 38.9841C55.4479 38.9874 55.4827 38.9899 55.5121 38.9926C55.5509 38.9967 55.5797 39.0104 55.5989 39.0352C55.6179 39.0597 55.6275 39.0898 55.6275 39.1253V40.7726ZM55.3087 39.2239C55.2628 39.2175 55.2155 39.2127 55.167 39.2108C55.1189 39.2088 55.0743 39.2082 55.033 39.2082C54.9463 39.2082 54.8741 39.2154 54.8165 39.2306C54.758 39.245 54.7121 39.2668 54.6767 39.2942C54.642 39.3218 54.6168 39.3548 54.6024 39.3922C54.5873 39.429 54.5801 39.4703 54.5801 39.5156C54.5801 39.5619 54.5887 39.6038 54.6057 39.6405C54.6235 39.6774 54.6492 39.7082 54.6844 39.7332C54.7192 39.758 54.7645 39.778 54.819 39.7909C54.8741 39.8049 54.9504 39.8113 55.0488 39.8113H55.3087V39.2239Z" fill="#29A72A"/>
<path fill-rule="evenodd" clip-rule="evenodd" d="M4.85804 48.4406C4.87966 48.5026 4.89266 48.5517 4.8941 48.5907C4.89555 48.6282 4.88398 48.6571 4.86237 48.6773C4.83929 48.6961 4.8018 48.709 4.7499 48.7148C4.69797 48.7206 4.62878 48.7235 4.54082 48.7235C4.4543 48.7235 4.38365 48.7221 4.33175 48.7177C4.27983 48.7134 4.2409 48.7062 4.21349 48.6961C4.18609 48.686 4.16735 48.673 4.15438 48.6556C4.14141 48.6383 4.12988 48.6181 4.11834 48.5921L3.6497 47.2598L1.37722 47.2598L0.928775 48.5748C0.920136 48.6008 0.910053 48.6224 0.895626 48.6412C0.881198 48.66 0.861041 48.6744 0.833618 48.6874C0.807673 48.7004 0.768746 48.709 0.719709 48.7148C0.670697 48.7206 0.607232 48.7235 0.527931 48.7235C0.44575 48.7235 0.379424 48.7206 0.327496 48.7134C0.275611 48.7062 0.238116 48.6932 0.217917 48.6729C0.196309 48.6527 0.186195 48.6239 0.187635 48.5864C0.189087 48.5474 0.200635 48.4983 0.223689 48.4362L2.05639 43.3511C2.06791 43.3193 2.08377 43.2933 2.10107 43.2746C2.11982 43.2544 2.14577 43.2385 2.18182 43.2284C2.21644 43.2168 2.26112 43.2082 2.31735 43.2038C2.37216 43.1995 2.44138 43.1981 2.52645 43.1981C2.61584 43.1981 2.69084 43.1995 2.74993 43.2038C2.80905 43.2082 2.85664 43.2168 2.89271 43.2284C2.93019 43.2385 2.95757 43.2558 2.97778 43.276C2.99796 43.2976 3.01382 43.3236 3.02391 43.354L4.85804 48.4406ZM2.50482 43.9515H2.50049L1.55891 46.6796L3.45938 46.6796L2.50482 43.9515ZM8.81612 48.5921C8.81614 48.6152 8.81036 48.634 8.79882 48.6499C8.78728 48.6643 8.76997 48.6787 8.74403 48.6903C8.71952 48.7004 8.68347 48.709 8.63878 48.7148C8.59407 48.7206 8.53784 48.7235 8.47008 48.7235C8.39943 48.7235 8.34173 48.7206 8.29703 48.7148C8.25235 48.709 8.2163 48.7004 8.1889 48.6903C8.16293 48.6787 8.1442 48.6643 8.13264 48.6499C8.12112 48.634 8.11535 48.6152 8.11536 48.5921L8.11535 45.2679L7.06852 45.2679C7.02382 45.7154 6.96903 46.1138 6.90557 46.4631C6.84213 46.8124 6.77147 47.1169 6.69217 47.3768C6.61287 47.6351 6.52346 47.8545 6.42541 48.0321C6.32738 48.2096 6.21922 48.3525 6.10242 48.4608C5.98419 48.569 5.8573 48.647 5.72031 48.6946C5.58476 48.7423 5.4377 48.7668 5.28341 48.7668C5.25745 48.7668 5.23582 48.7624 5.21708 48.7538C5.19977 48.7451 5.18392 48.7307 5.17239 48.7076C5.16228 48.686 5.15365 48.6542 5.14787 48.6124C5.1421 48.5719 5.13922 48.52 5.13922 48.455C5.13922 48.3872 5.14066 48.3323 5.14498 48.2905C5.1493 48.2486 5.15652 48.214 5.1666 48.1894C5.17671 48.1634 5.18968 48.1476 5.20411 48.1389C5.21996 48.1302 5.23873 48.1259 5.26178 48.1259C5.35551 48.1259 5.44346 48.1043 5.52854 48.061C5.61216 48.0162 5.69148 47.944 5.76503 47.8445C5.83856 47.7449 5.90778 47.6135 5.97267 47.4518C6.03609 47.2887 6.09521 47.0895 6.15001 46.8528C6.20336 46.6161 6.25382 46.339 6.30141 46.0214C6.34898 45.7053 6.39514 45.3401 6.43694 44.9287C6.44271 44.8436 6.46291 44.7815 6.49896 44.7396C6.53356 44.6992 6.58402 44.679 6.64891 44.679L8.60128 44.679C8.6676 44.679 8.72096 44.6992 8.75844 44.7411C8.79737 44.7815 8.81614 44.8436 8.81612 44.9287V48.5921ZM12.7641 44.9951C12.7641 45.0514 12.7612 45.099 12.7555 45.138C12.7497 45.1784 12.741 45.2102 12.7281 45.2347C12.7151 45.2607 12.7007 45.2795 12.6848 45.2925C12.6675 45.3055 12.6459 45.3112 12.6214 45.3112H11.4837L11.4837 48.5921C11.4837 48.6152 11.4779 48.634 11.4664 48.6499C11.4549 48.6643 11.4375 48.6787 11.4116 48.6903C11.3856 48.7004 11.351 48.709 11.3049 48.7148C11.2602 48.7206 11.2025 48.7235 11.1319 48.7235C11.0627 48.7235 11.0064 48.7206 10.9617 48.7148C10.9156 48.7091 10.8795 48.7004 10.8536 48.6903C10.8262 48.6787 10.8074 48.6643 10.7973 48.6499C10.7872 48.634 10.7829 48.6152 10.7829 48.5921V45.3112L9.64523 45.3112C9.6236 45.3112 9.6034 45.3055 9.58467 45.2925C9.56592 45.2795 9.55151 45.2607 9.53996 45.2347C9.52988 45.2102 9.51979 45.177 9.51258 45.1366C9.50536 45.0962 9.50248 45.0471 9.50249 44.9908C9.50248 44.9403 9.50536 44.8955 9.51259 44.8565C9.51978 44.8161 9.52987 44.7829 9.54284 44.757C9.55584 44.7295 9.57025 44.7108 9.58756 44.6978C9.60341 44.6848 9.6236 44.679 9.64524 44.679L12.6214 44.679C12.643 44.679 12.6632 44.6848 12.6819 44.6978C12.7007 44.7108 12.7151 44.7295 12.7266 44.757C12.7367 44.7829 12.7468 44.8176 12.754 44.858C12.7612 44.8984 12.7641 44.9446 12.7641 44.9951ZM16.3213 48.5965C16.3214 48.6297 16.3098 48.6556 16.2882 48.673C16.2651 48.6903 16.2348 48.7018 16.1945 48.7105C16.1555 48.7192 16.0979 48.7235 16.0214 48.7235C15.9493 48.7235 15.8902 48.7191 15.847 48.7105C15.8037 48.7018 15.772 48.6903 15.7518 48.673C15.7316 48.6557 15.7215 48.6311 15.7215 48.5964L15.7215 48.2154C15.5557 48.3929 15.3711 48.5315 15.1664 48.6297C14.9616 48.7264 14.7453 48.7754 14.5175 48.7754C14.3171 48.7755 14.1354 48.7495 13.9739 48.6975C13.8124 48.6455 13.674 48.569 13.5601 48.4709C13.4462 48.3727 13.3568 48.25 13.2933 48.1071C13.2299 47.9628 13.1981 47.7997 13.1981 47.6164C13.1981 47.4013 13.2414 47.2151 13.3294 47.0578C13.4159 46.899 13.5413 46.7677 13.7057 46.6637C13.8686 46.5598 14.0691 46.4804 14.3055 46.4284C14.542 46.3765 14.8088 46.3505 15.1044 46.3505H15.6292L15.6292 46.0532C15.6292 45.9073 15.6134 45.7775 15.5831 45.6634C15.5514 45.5508 15.5023 45.457 15.4331 45.382C15.3639 45.3069 15.2745 45.2506 15.1649 45.2131C15.0553 45.1741 14.9198 45.1553 14.7598 45.1553C14.5882 45.1553 14.4339 45.1756 14.2983 45.2174C14.1614 45.2593 14.0417 45.304 13.9393 45.3545C13.8369 45.4051 13.7504 45.4498 13.6812 45.4917C13.6134 45.5335 13.5615 45.5537 13.5284 45.5537C13.5053 45.5537 13.4851 45.548 13.4692 45.5364C13.4519 45.5263 13.4375 45.509 13.4245 45.4859C13.4116 45.4642 13.4029 45.4354 13.3971 45.4007C13.3914 45.3646 13.3885 45.3271 13.3885 45.2838C13.3885 45.2145 13.3928 45.1582 13.4029 45.1178C13.413 45.0774 13.4375 45.0384 13.475 45.0024C13.5125 44.9663 13.5788 44.9229 13.6711 44.8724C13.7634 44.8234 13.8715 44.7772 13.9927 44.7353C14.1123 44.6949 14.245 44.6602 14.3892 44.6328C14.5319 44.6054 14.6776 44.5924 14.8232 44.5924C15.0957 44.5924 15.3279 44.6227 15.5196 44.6848C15.7114 44.7468 15.8657 44.8392 15.984 44.959C16.1022 45.0788 16.1872 45.2275 16.2406 45.4051C16.294 45.5826 16.3213 45.7904 16.3214 46.0272L16.3213 48.5965ZM15.6292 46.8528L15.0337 46.8528C14.8434 46.8528 14.6776 46.8687 14.5362 46.9019C14.3964 46.9336 14.2796 46.9827 14.1859 47.0462C14.0936 47.1097 14.0258 47.1848 13.9811 47.2743C13.9379 47.3638 13.9162 47.4663 13.9162 47.5817C13.9162 47.7795 13.9782 47.9368 14.1037 48.0537C14.2291 48.1707 14.4036 48.2298 14.63 48.2298C14.8117 48.2298 14.9818 48.1836 15.1375 48.0898C15.2933 47.9974 15.4576 47.8545 15.6292 47.6626L15.6292 46.8528ZM20.9845 48.5965C20.9845 48.6167 20.9788 48.6354 20.9672 48.6513C20.9557 48.6686 20.9384 48.6816 20.9124 48.6917C20.8879 48.7018 20.8519 48.709 20.8072 48.7148C20.7625 48.7206 20.7062 48.7235 20.6385 48.7235C20.5707 48.7235 20.5145 48.7206 20.4698 48.7148C20.4251 48.709 20.3876 48.7018 20.3602 48.6917C20.3313 48.6816 20.3126 48.6686 20.3011 48.6513C20.2895 48.634 20.2838 48.6167 20.2837 48.5964L20.2837 46.4054C20.2838 46.2942 20.2866 46.1831 20.2924 46.0676C20.2982 45.9536 20.3054 45.8424 20.3141 45.7313C20.2491 45.8453 20.1771 45.955 20.1006 46.0647C20.0228 46.173 19.9449 46.2812 19.867 46.388L18.2564 48.5965C18.2362 48.6196 18.2189 48.6383 18.2031 48.6556C18.1872 48.673 18.167 48.686 18.1439 48.6961C18.1194 48.7062 18.0891 48.7134 18.0516 48.7177C18.0156 48.7221 17.9695 48.7235 17.9161 48.7235C17.8541 48.7235 17.8022 48.7206 17.7633 48.7148C17.7229 48.709 17.6912 48.7018 17.6681 48.6917C17.6436 48.6816 17.6263 48.6686 17.6162 48.6513C17.6061 48.634 17.6018 48.6167 17.6018 48.5964L17.6018 44.78C17.6018 44.7598 17.6061 44.7425 17.6162 44.7252C17.6263 44.7079 17.645 44.6934 17.6724 44.6833C17.6984 44.6718 17.7344 44.6631 17.7806 44.6588C17.8253 44.6545 17.8801 44.653 17.9464 44.653C18.0819 44.653 18.1757 44.6631 18.2261 44.6848C18.2766 44.7064 18.3026 44.7382 18.3026 44.78L18.3026 46.9842C18.3026 47.0939 18.2997 47.2036 18.2939 47.3118C18.2881 47.4215 18.2809 47.5284 18.2723 47.6366C18.3372 47.5283 18.4035 47.4244 18.4698 47.3205C18.5347 47.218 18.6068 47.117 18.6818 47.0188L20.314 44.7801C20.3299 44.757 20.3472 44.7382 20.3659 44.7223C20.3847 44.7064 20.4063 44.6935 20.4337 44.6848C20.4597 44.6747 20.4914 44.6689 20.5289 44.6646C20.5649 44.6602 20.6125 44.6574 20.6716 44.6574C20.7308 44.6574 20.7812 44.6603 20.8216 44.6646C20.8634 44.6689 20.8951 44.6761 20.9196 44.6877C20.9427 44.6992 20.96 44.7122 20.9701 44.7295C20.9802 44.7469 20.9845 44.7656 20.9845 44.7887V48.5965ZM20.6125 42.9873C20.6125 43.1475 20.588 43.2991 20.5404 43.4391C20.4928 43.5806 20.4164 43.7047 20.3126 43.8101C20.2088 43.9155 20.0747 43.9992 19.9103 44.0598C19.7474 44.1204 19.5484 44.1507 19.3148 44.1507C19.0999 44.1507 18.9125 44.1233 18.751 44.0699C18.5881 44.0165 18.4525 43.94 18.3444 43.8389C18.2362 43.7394 18.154 43.6181 18.0993 43.4738C18.0444 43.3294 18.017 43.1677 18.017 42.9873C18.017 42.9584 18.0214 42.9339 18.0315 42.9151C18.0416 42.8949 18.0603 42.8791 18.0877 42.8675C18.1137 42.8574 18.1497 42.8488 18.1929 42.843C18.2362 42.8372 18.2896 42.8343 18.3516 42.8343C18.4194 42.8343 18.4741 42.8372 18.5131 42.8444C18.5534 42.8516 18.5837 42.8632 18.6039 42.8762C18.6255 42.8906 18.64 42.9094 18.6472 42.9325C18.6544 42.9541 18.6573 42.9815 18.6573 43.0119C18.6573 43.1028 18.6717 43.1865 18.6991 43.263C18.7279 43.3381 18.7712 43.4059 18.8289 43.4622C18.8865 43.5185 18.9557 43.5618 19.0379 43.5936C19.1201 43.6239 19.2139 43.6397 19.3206 43.6398C19.4258 43.6398 19.5181 43.6238 19.5974 43.5936C19.6782 43.5618 19.7474 43.5185 19.8036 43.4622C19.8598 43.4059 19.9016 43.3381 19.9305 43.2587C19.9579 43.1793 19.9723 43.0941 19.9723 43.0032C19.9723 42.9758 19.9752 42.9512 19.9824 42.9296C19.9896 42.9079 20.004 42.8906 20.0257 42.8762C20.0458 42.8632 20.0761 42.8516 20.1136 42.8444C20.1511 42.8372 20.203 42.8343 20.2665 42.8343C20.3342 42.8343 20.3905 42.8372 20.4337 42.843C20.477 42.8487 20.5116 42.8574 20.539 42.8675C20.5649 42.8791 20.5851 42.8949 20.5952 42.9152C20.6067 42.9339 20.6125 42.9584 20.6125 42.9873ZM39.6286 50.0255C39.6286 50.0485 39.6243 50.0659 39.6142 50.0803C39.6042 50.0947 39.5883 50.1063 39.5652 50.1149C39.5436 50.1222 39.5119 50.1294 39.4729 50.1352C39.434 50.1409 39.3806 50.1438 39.3129 50.1438C39.2566 50.1438 39.209 50.1409 39.1701 50.1352C39.1312 50.1294 39.098 50.1222 39.0735 50.1149C39.0476 50.1063 39.0302 50.0947 39.0202 50.0803C39.0101 50.0659 39.0057 50.0486 39.0057 50.0255V48.6975L35.2755 48.6975C35.1962 48.6975 35.1342 48.673 35.0866 48.6239C35.0404 48.5748 35.0174 48.4997 35.0174 48.4016L35.0174 43.3294C35.0174 43.3092 35.0231 43.2904 35.0347 43.2746C35.0462 43.2572 35.0649 43.2428 35.0938 43.2313C35.1212 43.2212 35.1601 43.2125 35.2077 43.2067C35.2553 43.2009 35.313 43.1981 35.3807 43.1981C35.4514 43.1981 35.5091 43.2009 35.5567 43.2067C35.6028 43.2125 35.6403 43.2212 35.6677 43.2313C35.6965 43.2428 35.7153 43.2573 35.7268 43.2746C35.7383 43.2919 35.7441 43.3092 35.7441 43.3294L35.7441 48.0739H38.1925L38.1925 43.3294C38.1925 43.3092 38.1982 43.2919 38.2098 43.2746C38.2213 43.2572 38.2415 43.2428 38.2704 43.2313C38.3006 43.2212 38.3381 43.2125 38.3843 43.2067C38.4318 43.201 38.4895 43.1981 38.5602 43.1981C38.628 43.1981 38.6842 43.2009 38.7318 43.2067C38.7779 43.2125 38.8154 43.2211 38.8428 43.2313C38.8716 43.2428 38.8904 43.2573 38.9019 43.2746C38.9135 43.2919 38.9192 43.3092 38.9192 43.3294L38.9192 48.0739L39.4729 48.0739C39.5292 48.0739 39.5695 48.0898 39.5926 48.123C39.6171 48.1548 39.6286 48.2067 39.6286 48.2804V50.0255ZM43.6329 46.5223C43.6329 46.632 43.6055 46.7099 43.5507 46.7576C43.4959 46.8037 43.4324 46.8268 43.3618 46.8268L40.8644 46.8268C40.8644 47.039 40.886 47.2295 40.9278 47.3984C40.9697 47.5688 41.0403 47.7145 41.1398 47.8358C41.2379 47.957 41.3662 48.0494 41.5233 48.1144C41.6819 48.1793 41.8752 48.2125 42.103 48.2125C42.2832 48.2125 42.4447 48.1981 42.5846 48.1678C42.7259 48.1389 42.8485 48.1057 42.9508 48.0696C43.0532 48.0335 43.1383 48.0003 43.2046 47.9715C43.271 47.9411 43.32 47.9267 43.3546 47.9267C43.3748 47.9267 43.3921 47.931 43.4079 47.9411C43.4224 47.9513 43.4353 47.9657 43.4425 47.9859C43.4512 48.0047 43.4584 48.0321 43.4627 48.0667C43.4671 48.1028 43.4685 48.1447 43.4685 48.1952C43.4685 48.2313 43.4671 48.263 43.4641 48.2904C43.4613 48.3164 43.4584 48.341 43.4541 48.3612C43.4497 48.3828 43.4425 48.4016 43.4324 48.4189C43.4223 48.4348 43.4108 48.4507 43.3949 48.4666C43.3791 48.4824 43.3329 48.507 43.258 48.5416C43.1815 48.5777 43.0835 48.6109 42.9624 48.6456C42.8412 48.6787 42.7014 48.709 42.5428 48.735C42.3841 48.7624 42.2154 48.7754 42.0352 48.7754C41.7223 48.7754 41.4498 48.7321 41.2148 48.6441C40.9797 48.5575 40.7822 48.4276 40.6221 48.2558C40.4621 48.0826 40.3409 47.8675 40.2602 47.6077C40.178 47.3494 40.1376 47.0477 40.1376 46.7027C40.1376 46.3765 40.1794 46.082 40.2645 45.8208C40.3481 45.561 40.4707 45.3386 40.6293 45.1568C40.7879 44.9749 40.9812 44.8364 41.2061 44.7382C41.431 44.6415 41.6834 44.5924 41.9617 44.5924C42.2601 44.5924 42.5139 44.64 42.723 44.7367C42.9335 44.832 43.1051 44.9619 43.2407 45.1236C43.3748 45.2853 43.4742 45.4758 43.5377 45.6952C43.6011 45.9131 43.6329 46.147 43.6329 46.3952L43.6329 46.5223ZM42.9321 46.3159C42.9408 45.9492 42.86 45.6605 42.6884 45.4512C42.5168 45.2419 42.2645 45.138 41.9285 45.138C41.7555 45.138 41.6041 45.1698 41.4743 45.2347C41.3446 45.2997 41.2364 45.3863 41.1484 45.4945C41.0605 45.6014 40.9927 45.7269 40.9451 45.8684C40.8976 46.0113 40.8702 46.16 40.8644 46.3158L42.9321 46.3159ZM48.0322 48.5921C48.0322 48.6152 48.0264 48.634 48.0149 48.6499C48.0034 48.6643 47.986 48.6787 47.9601 48.6903C47.9341 48.7004 47.8995 48.7091 47.8534 48.7148C47.8087 48.7206 47.7525 48.7235 47.6847 48.7235C47.6126 48.7235 47.5549 48.7206 47.5102 48.7148C47.4641 48.709 47.4295 48.7004 47.4035 48.6903C47.3776 48.6787 47.3602 48.6643 47.3487 48.6499C47.3372 48.634 47.3314 48.6152 47.3314 48.5921V46.9221H45.4021V48.5921C45.4021 48.6152 45.3964 48.634 45.3848 48.6499C45.3733 48.6643 45.356 48.6787 45.33 48.6903C45.3041 48.7004 45.2695 48.709 45.2233 48.7148C45.1786 48.7206 45.121 48.7235 45.0503 48.7235C44.9811 48.7235 44.9249 48.7206 44.8801 48.7148C44.834 48.7091 44.798 48.7004 44.772 48.6903C44.7446 48.6787 44.7259 48.6643 44.7158 48.6499C44.7057 48.634 44.7014 48.6152 44.7014 48.5921L44.7014 44.7844C44.7014 44.7613 44.7057 44.7425 44.7158 44.7266C44.7258 44.7122 44.7446 44.6978 44.772 44.6848C44.798 44.6718 44.834 44.6631 44.8802 44.6588C44.9249 44.6545 44.9811 44.653 45.0503 44.653C45.121 44.653 45.1786 44.6545 45.2233 44.6588C45.2695 44.6632 45.3041 44.6718 45.33 44.6848C45.356 44.6978 45.3733 44.7122 45.3848 44.7266C45.3964 44.7425 45.4021 44.7613 45.4021 44.7844L45.4021 46.3332L47.3314 46.3332L47.3314 44.7843C47.3314 44.7613 47.3372 44.7425 47.3487 44.7266C47.3602 44.7122 47.3776 44.6978 47.4035 44.6848C47.4295 44.6718 47.4641 44.6631 47.5102 44.6588C47.5549 44.6544 47.6126 44.653 47.6847 44.653C47.7525 44.653 47.8087 44.6545 47.8534 44.6588C47.8995 44.6631 47.9342 44.6718 47.9601 44.6848C47.986 44.6978 48.0034 44.7122 48.0149 44.7266C48.0264 44.7425 48.0322 44.7613 48.0322 44.7844V48.5921ZM51.9831 44.9951C51.9831 45.0514 51.9802 45.099 51.9744 45.138C51.9687 45.1784 51.96 45.2102 51.947 45.2347C51.934 45.2607 51.9196 45.2795 51.9038 45.2925C51.8865 45.3054 51.8648 45.3112 51.8403 45.3112H50.7026L50.7026 48.5921C50.7027 48.6152 50.6969 48.634 50.6853 48.6499C50.6738 48.6643 50.6565 48.6787 50.6306 48.6903C50.6046 48.7004 50.57 48.7091 50.5239 48.7148C50.4791 48.7206 50.4215 48.7235 50.3508 48.7235C50.2816 48.7235 50.2254 48.7206 50.1807 48.7148C50.1345 48.709 50.0985 48.7004 50.0725 48.6903C50.0451 48.6787 50.0264 48.6643 50.0163 48.6499C50.0062 48.634 50.0019 48.6152 50.0019 48.5921L50.0019 45.3112L48.8642 45.3112C48.8426 45.3112 48.8224 45.3055 48.8036 45.2925C48.7849 45.2795 48.7705 45.2607 48.7589 45.2347C48.7488 45.2102 48.7387 45.177 48.7316 45.1366C48.7243 45.0962 48.7214 45.0471 48.7214 44.9908C48.7214 44.9403 48.7243 44.8955 48.7315 44.8566C48.7387 44.8161 48.7488 44.7829 48.7618 44.757C48.7748 44.7295 48.7892 44.7108 48.8065 44.6978C48.8224 44.6848 48.8426 44.679 48.8642 44.679L51.8403 44.679C51.8619 44.679 51.8821 44.6848 51.9009 44.6978C51.9196 44.7108 51.9341 44.7295 51.9456 44.757C51.9557 44.7829 51.9658 44.8176 51.973 44.858C51.9802 44.8984 51.9831 44.9446 51.9831 44.9951ZM56.1719 46.6262C56.1719 46.9596 56.1358 47.2584 56.0637 47.524C55.9931 47.7882 55.8878 48.0133 55.748 48.1981C55.6095 48.3828 55.4365 48.5257 55.2317 48.6253C55.027 48.7249 54.792 48.7754 54.5281 48.7754C54.4156 48.7755 54.3118 48.7639 54.2166 48.7422C54.12 48.7192 54.0277 48.6845 53.9354 48.6354C53.8446 48.5878 53.7538 48.5272 53.6644 48.4536C53.5735 48.3814 53.4784 48.2948 53.3774 48.1966V50.1034C53.3774 50.1265 53.3716 50.1452 53.3601 50.1626C53.3486 50.1799 53.3313 50.1943 53.3053 50.2059C53.2794 50.216 53.2448 50.2247 53.1986 50.2304C53.1539 50.2362 53.0963 50.2391 53.0256 50.2391C52.9564 50.2391 52.9002 50.2362 52.8554 50.2304C52.8093 50.2247 52.7733 50.216 52.7473 50.2059C52.7199 50.1944 52.7012 50.1799 52.6911 50.1626C52.681 50.1453 52.6767 50.1265 52.6767 50.1034L52.6767 44.7844C52.6767 44.7584 52.681 44.7382 52.6896 44.7223C52.6983 44.7079 52.7156 44.6934 52.7401 44.6834C52.766 44.6718 52.7978 44.6631 52.8381 44.6588C52.8771 44.6545 52.9261 44.653 52.9823 44.653C53.0415 44.653 53.0905 44.6545 53.1294 44.6588C53.1669 44.6631 53.1986 44.6718 53.2246 44.6819C53.2505 44.6934 53.2678 44.7079 53.2779 44.7223C53.288 44.7382 53.2923 44.7584 53.2923 44.7844L53.2924 45.2939C53.4077 45.1755 53.5187 45.0731 53.6254 44.985C53.7322 44.8984 53.8403 44.8262 53.9484 44.7685C54.0566 44.7108 54.1676 44.666 54.2815 44.6371C54.3954 44.6068 54.5151 44.5924 54.642 44.5924C54.9174 44.5924 55.151 44.6458 55.3457 44.7526C55.5389 44.8609 55.6975 45.0067 55.82 45.1929C55.9426 45.3791 56.032 45.5956 56.0882 45.8424C56.1445 46.0892 56.1719 46.3505 56.1719 46.6262V46.6262ZM55.4452 46.707C55.4451 46.5122 55.4307 46.3231 55.4004 46.1412C55.3716 45.9593 55.3197 45.7977 55.249 45.6562C55.1769 45.5148 55.0803 45.4022 54.9592 45.317C54.8381 45.2318 54.6867 45.19 54.5065 45.19C54.4156 45.19 54.3277 45.203 54.2397 45.2304C54.1532 45.2578 54.0638 45.2997 53.9729 45.3574C53.8835 45.4151 53.7884 45.4917 53.6903 45.5869C53.5923 45.6822 53.487 45.7991 53.3774 45.9377V47.4518C53.5692 47.6871 53.7509 47.8661 53.9225 47.9917C54.0955 48.1158 54.2757 48.1779 54.4646 48.1779C54.6391 48.1779 54.7891 48.136 54.9145 48.0509C55.04 47.9657 55.1409 47.8531 55.2188 47.7116C55.2966 47.5702 55.3529 47.4128 55.3904 47.2367C55.4264 47.0621 55.4451 46.8845 55.4452 46.707ZM25.8597 43.6802C25.8597 43.7624 25.8568 43.8317 25.8496 43.8909C25.8424 43.9486 25.8323 43.9948 25.8179 44.0295C25.8035 44.0656 25.7862 44.0915 25.7645 44.1074C25.7443 44.1247 25.7198 44.1334 25.6953 44.1334L24.3284 44.1334V48.5459C24.3284 48.5734 24.3197 48.5993 24.301 48.6224C24.2822 48.6441 24.252 48.6629 24.2101 48.6773C24.1683 48.6903 24.1106 48.7018 24.0386 48.7105C23.9665 48.7192 23.877 48.7235 23.7703 48.7235C23.6636 48.7235 23.5743 48.7191 23.5021 48.7105C23.43 48.7018 23.3724 48.6903 23.3306 48.6773C23.2887 48.6628 23.2585 48.6441 23.2397 48.6224C23.221 48.5993 23.2123 48.5734 23.2123 48.5459V44.1334L21.8454 44.1334C21.818 44.1334 21.7935 44.1247 21.7733 44.1074C21.7545 44.0916 21.7372 44.0656 21.7228 44.0295C21.7098 43.9948 21.6983 43.9486 21.6911 43.8909C21.6839 43.8317 21.681 43.7624 21.681 43.6802C21.681 43.5965 21.6839 43.5243 21.6911 43.4651C21.6983 43.4059 21.7098 43.3583 21.7228 43.3236C21.7372 43.2876 21.7545 43.263 21.7733 43.2471C21.7935 43.2313 21.818 43.2241 21.8454 43.224L25.6953 43.224C25.7198 43.224 25.7429 43.2313 25.7645 43.2471C25.7862 43.263 25.8035 43.2876 25.8179 43.3236C25.8323 43.3583 25.8424 43.4059 25.8496 43.4651C25.8568 43.5243 25.8597 43.5965 25.8597 43.6802ZM28.2648 48.6975L27.8077 50.0312C27.7818 50.102 27.714 50.1525 27.6015 50.1842C27.4891 50.2145 27.3247 50.2304 27.1084 50.2304C26.9959 50.2304 26.9051 50.2261 26.8388 50.216C26.771 50.2059 26.7205 50.19 26.6859 50.1669C26.6527 50.1438 26.634 50.1164 26.6311 50.0832C26.6282 50.0486 26.6369 50.0081 26.6571 49.9605L27.1589 48.6975C27.1228 48.6802 27.0897 48.6542 27.0608 48.6196C27.0305 48.5835 27.0089 48.546 26.9945 48.507L25.7011 45.037C25.665 44.9388 25.6463 44.8623 25.6463 44.8104C25.6463 44.7584 25.6636 44.718 25.6967 44.6877C25.7299 44.6588 25.7876 44.6386 25.8669 44.627C25.9476 44.6155 26.0529 44.6097 26.1856 44.6097C26.3053 44.6097 26.4004 44.6112 26.4711 44.6155C26.5417 44.6198 26.5965 44.6314 26.6355 44.6472C26.6744 44.6646 26.7047 44.6905 26.7234 44.7266C26.7436 44.7613 26.7623 44.8118 26.7825 44.8767L27.6693 47.4027L27.6823 47.4027L28.4869 44.8262C28.5042 44.7526 28.5258 44.7035 28.5532 44.679C28.5791 44.6559 28.6239 44.6386 28.6859 44.627C28.7479 44.6155 28.8574 44.6097 29.0118 44.6097C29.1343 44.6097 29.2352 44.6155 29.3145 44.627C29.3953 44.6386 29.4544 44.6588 29.4933 44.6905C29.5308 44.7209 29.5496 44.7627 29.5496 44.8147C29.5496 44.8666 29.5395 44.9287 29.5164 44.9994L28.2648 48.6975ZM33.9734 46.6118C33.9734 46.9466 33.9374 47.2498 33.8653 47.5182C33.7946 47.7867 33.6893 48.0162 33.5509 48.2053C33.4139 48.3944 33.2424 48.5387 33.0376 48.6412C32.8314 48.7422 32.5964 48.7928 32.3325 48.7928C32.2229 48.7928 32.122 48.7827 32.0311 48.761C31.9389 48.7394 31.8509 48.7076 31.7644 48.6643C31.6793 48.6196 31.5942 48.5662 31.5092 48.5012C31.4255 48.4363 31.3376 48.3597 31.2482 48.2731V50.0486C31.2482 50.0774 31.2395 50.1019 31.2222 50.1251C31.2064 50.1467 31.1775 50.1669 31.1357 50.1813C31.0953 50.1972 31.0406 50.2088 30.9742 50.2174C30.9064 50.2261 30.8199 50.2304 30.7161 50.2304C30.6123 50.2304 30.5258 50.2261 30.458 50.2174C30.3917 50.2088 30.3369 50.1972 30.2965 50.1813C30.2547 50.1669 30.2259 50.1467 30.21 50.1251C30.1927 50.102 30.184 50.0774 30.184 50.0486L30.184 44.7786C30.184 44.7512 30.1913 44.7266 30.2057 44.705C30.2186 44.6834 30.2432 44.666 30.2792 44.6516C30.3138 44.6386 30.3599 44.627 30.4191 44.6198C30.4768 44.6126 30.5488 44.6097 30.6354 44.6097C30.7204 44.6097 30.7911 44.6126 30.8487 44.6198C30.9064 44.627 30.954 44.6386 30.9886 44.6516C31.0232 44.666 31.0477 44.6834 31.0622 44.705C31.0766 44.7266 31.0838 44.7512 31.0838 44.78L31.0838 45.2246C31.1934 45.112 31.3001 45.0124 31.4068 44.9273C31.512 44.8407 31.6187 44.7699 31.7283 44.7122C31.8394 44.6545 31.9518 44.6112 32.0686 44.5823C32.1854 44.5549 32.3094 44.5404 32.4421 44.5404C32.7175 44.5404 32.9525 44.5953 33.1472 44.7035C33.3404 44.8118 33.499 44.9605 33.6216 45.1496C33.7441 45.3372 33.8336 45.558 33.8898 45.8092C33.946 46.0589 33.9734 46.3274 33.9734 46.6118ZM32.866 46.6854C32.866 46.5251 32.8545 46.3707 32.83 46.2235C32.8069 46.0762 32.7651 45.9449 32.7074 45.8294C32.6497 45.7139 32.5748 45.6216 32.481 45.5537C32.3858 45.4844 32.2691 45.4498 32.1292 45.4498C32.0585 45.4498 31.9893 45.4599 31.9201 45.4815C31.8509 45.5032 31.7817 45.5364 31.7096 45.5855C31.6375 45.6331 31.564 45.6952 31.489 45.7703C31.4125 45.8468 31.3318 45.9405 31.2482 46.0532V47.2959C31.3967 47.4836 31.5394 47.6279 31.6735 47.7304C31.8091 47.8329 31.949 47.8834 32.0946 47.8834C32.233 47.8834 32.3498 47.8488 32.4464 47.7781C32.543 47.7073 32.6238 47.6149 32.6843 47.5023C32.7463 47.3883 32.7925 47.2599 32.8213 47.1155C32.8516 46.9726 32.866 46.8283 32.866 46.6854Z" fill="#29A72A"/>
</svg>
