<svg width="114" height="33" viewBox="0 0 114 33" fill="none" xmlns="http://www.w3.org/2000/svg">
<path d="M40.648 5.38674H36.172V13.7867H36.916V6.08274H39.904V13.7867H40.648V5.38674ZM44.4696 7.34274C43.8576 7.34274 43.3176 7.60674 42.9816 8.07474L42.8856 7.48674H42.3096V15.9467H43.0056V13.2227C43.3536 13.7027 43.9056 13.9307 44.4696 13.9307C45.6816 13.9307 46.4256 13.1267 46.4256 11.5667V9.75474C46.4256 8.15874 45.6096 7.34274 44.4696 7.34274ZM45.7056 11.5667C45.7056 12.7667 45.2376 13.2707 44.3136 13.2707C43.5216 13.2707 43.0056 12.5747 43.0056 11.5667V9.73074C43.0056 8.55474 43.5936 8.00274 44.3136 8.00274C45.1896 8.00274 45.7056 8.51874 45.7056 9.75474V11.5667ZM49.7005 7.34274C48.5365 7.34274 47.7565 8.05074 47.7085 9.13074H48.4165C48.4645 8.43474 48.9565 8.02674 49.6765 8.02674C50.4925 8.02674 50.9245 8.51874 50.9245 9.44274V10.1147H49.6765C48.2965 10.1147 47.5165 10.7867 47.5165 11.9987C47.5165 13.2227 48.3565 13.9307 49.5085 13.9307C50.1925 13.9307 50.6725 13.6187 50.9605 13.1987L51.0205 13.7867H51.6325V9.43074C51.6325 8.14674 50.9005 7.34274 49.7005 7.34274ZM49.6165 13.2347C48.8005 13.2347 48.2365 12.8387 48.2365 12.0107C48.2365 11.2067 48.7285 10.7747 49.6525 10.7747H50.9245V12.0107C50.9245 12.7307 50.4205 13.2347 49.6165 13.2347ZM56.0757 10.4507C56.5437 10.1267 56.7957 9.62274 56.7957 9.17874C56.7957 8.14674 56.0997 7.49874 54.8757 7.49874H53.2197V13.7867H55.0557C56.3997 13.7867 57.1077 13.1147 57.1077 11.9747C57.1077 11.3507 56.7237 10.7027 56.0757 10.4507ZM53.9157 8.17074H54.8637C55.6797 8.17074 56.0877 8.54274 56.0877 9.17874C56.0877 9.80274 55.6797 10.1867 54.8637 10.1867H53.9157V8.17074ZM55.0437 13.1147H53.9157V10.8587H55.0437C55.9557 10.8587 56.3997 11.2667 56.3997 11.9747C56.3997 12.7067 55.9557 13.1147 55.0437 13.1147ZM58.294 13.7867H59.026L60.982 9.83874C61.186 9.41874 61.402 8.97474 61.486 8.69874L61.51 8.71074C61.486 9.21474 61.462 9.73074 61.462 10.3907V13.7867H62.17V7.48674H61.438L59.422 11.5907C59.302 11.8427 59.11 12.2747 59.002 12.5267L58.978 12.5027C59.014 12.0347 59.002 11.5547 59.002 11.0867V7.48674H58.294V13.7867ZM66.9349 7.48674H63.1069V8.14674H64.6669V13.7867H65.3749V8.14674H66.9349V7.48674ZM70.9586 11.8547C70.8626 12.7787 70.4066 13.2107 69.4946 13.2107C68.6666 13.2107 68.1626 12.7187 68.1626 11.6627V10.9787H71.5826V9.58674C71.5826 8.14674 70.7426 7.34274 69.4826 7.34274C68.2586 7.34274 67.4426 8.14674 67.4426 9.58674V11.6627C67.4426 13.1027 68.2466 13.9067 69.4706 13.9067C70.7906 13.9067 71.5706 13.1747 71.6666 11.8547H70.9586ZM69.4946 8.03874C70.3586 8.03874 70.8746 8.53074 70.8746 9.58674V10.3187H68.1626V9.58674C68.1626 8.53074 68.6666 8.03874 69.4946 8.03874ZM72.269 13.8347C73.397 13.8347 73.817 12.8747 73.925 10.9787C73.961 10.2947 74.021 9.09474 74.045 8.15874H75.881V13.7867H76.589V7.48674H73.349C73.325 8.66274 73.301 9.70674 73.229 10.8707C73.145 12.1307 73.013 13.1507 72.269 13.1507V13.8347ZM80.029 9.70674H78.877V7.48674H78.169V13.7867H80.029C81.169 13.7867 82.093 12.9347 82.093 11.7347C82.093 10.5467 81.169 9.70674 80.029 9.70674ZM80.029 13.1027H78.877V10.3907H80.029C80.785 10.3907 81.373 10.9187 81.373 11.7347C81.373 12.5627 80.785 13.1027 80.029 13.1027ZM84.9157 13.9067C86.1637 13.9067 86.9677 13.1027 87.0037 11.6627H86.2837C86.2477 12.7187 85.7557 13.2107 84.9157 13.2107C84.1117 13.2107 83.6197 12.7187 83.6197 11.6627V9.58674C83.6197 8.53074 84.1117 8.03874 84.9157 8.03874C85.7557 8.03874 86.2357 8.53074 86.2717 9.58674H86.9917C86.9557 8.14674 86.1637 7.34274 84.9157 7.34274C83.7037 7.34274 82.8997 8.14674 82.8997 9.58674V11.6627C82.8997 13.1027 83.7037 13.9067 84.9157 13.9067ZM91.4154 7.48674H87.5874V8.14674H89.1474V13.7867H89.8554V8.14674H91.4154V7.48674ZM95.2046 10.4507C95.6726 10.1267 95.9246 9.62274 95.9246 9.17874C95.9246 8.14674 95.2286 7.49874 94.0046 7.49874H92.3486V13.7867H94.1846C95.5286 13.7867 96.2366 13.1147 96.2366 11.9747C96.2366 11.3507 95.8526 10.7027 95.2046 10.4507ZM93.0446 8.17074H93.9926C94.8086 8.17074 95.2166 8.54274 95.2166 9.17874C95.2166 9.80274 94.8086 10.1867 93.9926 10.1867H93.0446V8.17074ZM94.1726 13.1147H93.0446V10.8587H94.1726C95.0846 10.8587 95.5286 11.2667 95.5286 11.9747C95.5286 12.7067 95.0846 13.1147 94.1726 13.1147ZM99.3669 13.9307C100.627 13.9307 101.467 13.1267 101.467 11.6507V9.62274C101.467 8.14674 100.627 7.34274 99.3669 7.34274C98.1069 7.34274 97.2669 8.14674 97.2669 9.62274V11.6507C97.2669 13.1267 98.1069 13.9307 99.3669 13.9307ZM99.3669 13.2347C98.5149 13.2347 97.9869 12.7427 97.9869 11.6507V9.62274C97.9869 8.53074 98.5149 8.03874 99.3669 8.03874C100.219 8.03874 100.747 8.53074 100.747 9.62274V11.6507C100.747 12.7427 100.219 13.2347 99.3669 13.2347ZM39.82 26.7867H40.612L38.404 18.3867H37.588L35.38 26.7867H36.172L36.664 24.8187H39.328L39.82 26.7867ZM36.832 24.1467L37.696 20.6667C37.828 20.1507 37.948 19.5507 37.984 19.3467H38.008C38.044 19.5507 38.164 20.1507 38.296 20.6667L39.16 24.1467H36.832ZM40.9213 26.8347C42.0493 26.8347 42.4693 25.8747 42.5773 23.9787C42.6133 23.2947 42.6733 22.0947 42.6973 21.1587H44.5333V26.7867H45.2413V20.4867H42.0013C41.9773 21.6627 41.9533 22.7067 41.8813 23.8707C41.7973 25.1307 41.6653 26.1507 40.9213 26.1507V26.8347ZM50.0013 20.4867H46.1733V21.1467H47.7333V26.7867H48.4413V21.1467H50.0013V20.4867ZM52.7826 20.3427C51.6186 20.3427 50.8386 21.0507 50.7906 22.1307H51.4986C51.5466 21.4347 52.0386 21.0267 52.7586 21.0267C53.5746 21.0267 54.0066 21.5187 54.0066 22.4427V23.1147H52.7586C51.3786 23.1147 50.5986 23.7867 50.5986 24.9987C50.5986 26.2227 51.4386 26.9307 52.5906 26.9307C53.2746 26.9307 53.7546 26.6187 54.0426 26.1987L54.1026 26.7867H54.7146V22.4307C54.7146 21.1467 53.9826 20.3427 52.7826 20.3427ZM52.6986 26.2347C51.8826 26.2347 51.3186 25.8387 51.3186 25.0107C51.3186 24.2067 51.8106 23.7747 52.7346 23.7747H54.0066V25.0107C54.0066 25.7307 53.5026 26.2347 52.6986 26.2347ZM58.2458 19.5027C59.0738 19.5027 59.5658 18.9987 59.6018 18.1107H58.9778C58.9418 18.6387 58.7258 18.9027 58.2458 18.9027C57.7658 18.9027 57.5498 18.6387 57.5138 18.1107H56.8898C56.9258 18.9987 57.4178 19.5027 58.2458 19.5027ZM56.3018 26.7867H57.0338L58.9898 22.8387C59.1938 22.4187 59.4098 21.9747 59.4938 21.6987L59.5178 21.7107C59.4938 22.2147 59.4698 22.7307 59.4698 23.3907V26.7867H60.1778V20.4867H59.4458L57.4298 24.5907C57.3098 24.8427 57.1178 25.2747 57.0098 25.5267L56.9858 25.5027C57.0218 25.0347 57.0098 24.5547 57.0098 24.0867V20.4867H56.3018V26.7867ZM63.6227 26.9067C64.8707 26.9067 65.6747 26.1027 65.7107 24.6627H64.9907C64.9547 25.7187 64.4627 26.2107 63.6227 26.2107C62.8187 26.2107 62.3267 25.7187 62.3267 24.6627V22.5867C62.3267 21.5307 62.8187 21.0387 63.6227 21.0387C64.4627 21.0387 64.9427 21.5307 64.9787 22.5867H65.6987C65.6627 21.1467 64.8707 20.3427 63.6227 20.3427C62.4107 20.3427 61.6067 21.1467 61.6067 22.5867V24.6627C61.6067 26.1027 62.4107 26.9067 63.6227 26.9067ZM70.3384 26.7867H71.2144L68.6104 23.2227L70.9024 20.4867H69.9904L68.5864 22.2027C68.2744 22.5867 67.9624 22.9707 67.6504 23.3427V20.4867H66.9424V26.7867H67.6504V24.3747L68.1424 23.7747L70.3384 26.7867ZM73.7145 26.9307C74.9745 26.9307 75.8145 26.1267 75.8145 24.6507V22.6227C75.8145 21.1467 74.9745 20.3427 73.7145 20.3427C72.4545 20.3427 71.6145 21.1467 71.6145 22.6227V24.6507C71.6145 26.1267 72.4545 26.9307 73.7145 26.9307ZM73.7145 26.2347C72.8625 26.2347 72.3345 25.7427 72.3345 24.6507V22.6227C72.3345 21.5307 72.8625 21.0387 73.7145 21.0387C74.5665 21.0387 75.0945 21.5307 75.0945 22.6227V24.6507C75.0945 25.7427 74.5665 26.2347 73.7145 26.2347ZM80.3752 20.4867H77.2432V26.7867H77.9512V21.1707H80.3752V20.4867ZM83.0192 26.9307C84.2792 26.9307 85.1192 26.1267 85.1192 24.6507V22.6227C85.1192 21.1467 84.2792 20.3427 83.0192 20.3427C81.7592 20.3427 80.9192 21.1467 80.9192 22.6227V24.6507C80.9192 26.1267 81.7592 26.9307 83.0192 26.9307ZM83.0192 26.2347C82.1672 26.2347 81.6392 25.7427 81.6392 24.6507V22.6227C81.6392 21.5307 82.1672 21.0387 83.0192 21.0387C83.8712 21.0387 84.3992 21.5307 84.3992 22.6227V24.6507C84.3992 25.7427 83.8712 26.2347 83.0192 26.2347ZM92.686 26.7867H93.562L90.958 23.2227L93.25 20.4867H92.338L90.934 22.2027C90.622 22.5867 90.31 22.9707 89.998 23.3427V20.4867H89.29V26.7867H89.998V24.3747L90.49 23.7747L92.686 26.7867ZM96.5125 20.3427C95.9005 20.3427 95.3605 20.6067 95.0245 21.0747L94.9285 20.4867H94.3525V28.9467H95.0485V26.2227C95.3965 26.7027 95.9485 26.9307 96.5125 26.9307C97.7245 26.9307 98.4685 26.1267 98.4685 24.5667V22.7547C98.4685 21.1587 97.6525 20.3427 96.5125 20.3427ZM97.7485 24.5667C97.7485 25.7667 97.2805 26.2707 96.3565 26.2707C95.5645 26.2707 95.0485 25.5747 95.0485 24.5667V22.7307C95.0485 21.5547 95.6365 21.0027 96.3565 21.0027C97.2325 21.0027 97.7485 21.5187 97.7485 22.7547V24.5667ZM101.744 20.3427C100.58 20.3427 99.7995 21.0507 99.7515 22.1307H100.46C100.508 21.4347 101 21.0267 101.72 21.0267C102.536 21.0267 102.968 21.5187 102.968 22.4427V23.1147H101.72C100.34 23.1147 99.5595 23.7867 99.5595 24.9987C99.5595 26.2227 100.4 26.9307 101.552 26.9307C102.236 26.9307 102.716 26.6187 103.004 26.1987L103.064 26.7867H103.676V22.4307C103.676 21.1467 102.944 20.3427 101.744 20.3427ZM101.66 26.2347C100.844 26.2347 100.28 25.8387 100.28 25.0107C100.28 24.2067 100.772 23.7747 101.696 23.7747H102.968V25.0107C102.968 25.7307 102.464 26.2347 101.66 26.2347ZM106.823 20.4867C105.623 20.4867 104.831 21.2907 104.831 22.4907C104.831 23.5227 105.347 24.2787 106.139 24.4467L104.615 26.7867H105.455L106.895 24.4827H107.855V26.7867H108.563V20.4867H106.823ZM107.855 23.8227H106.751C105.959 23.8227 105.551 23.3427 105.551 22.4907C105.551 21.6627 106.019 21.1707 106.823 21.1707H107.855V23.8227Z" fill="black"/>
<path d="M18.0536 26.0856C16.8037 26.0291 16.0237 27.2464 13.6938 26.3578C13.3538 26.2243 12.9138 26.0651 12.4488 26.0856L12.3489 25.9418L12.0489 26.1524L12.1639 26.3219L11.8389 25.9213L11.8189 25.649L11.6339 25.6644L11.5839 25.6079L11.5189 25.6644C11.4239 25.572 11.3239 25.5104 11.2239 25.4693L11.1889 25.1097L10.8239 25.1457L10.8389 25.3152C10.6689 25.5001 10.7839 25.4076 10.5839 25.4693L10.3539 24.591L9.99896 24.6886L10.2089 25.4795L10.084 25.3768L9.63897 24.1082L9.29399 24.2366L9.52898 24.8991L9.48398 24.8581L8.924 23.6254L8.59402 23.7794L8.67902 23.9695L8.22903 23.158L7.98405 23.3069C7.96905 23.2966 7.95405 23.2915 7.93405 23.2915L7.55906 22.7317L7.25908 22.9422L7.45407 23.2299C7.33908 23.2299 7.21908 23.235 7.08409 23.2453L7.31408 22.6033L7.30908 22.4851L7.11408 22.0537L7.55407 20.821L7.21408 20.6926L6.89909 21.5811L6.7741 21.2935L7.20908 20.0557L6.8691 19.9273L6.55411 20.8158L6.43412 20.5539L6.6641 19.2236L6.30912 19.162L6.16913 19.9684L6.10413 19.8194L6.21913 18.4737L5.85414 18.4378L5.79414 19.1414L5.76915 19.0901V17.7238H5.40916V17.9241L5.32916 17.0048L5.01418 17.0356L4.89418 16.3216L4.82919 16.3165C4.87919 16.2343 4.93418 16.1419 4.98418 16.0494C5.13917 15.7721 5.29417 15.469 5.42916 15.1711L6.23912 14.8013L6.08913 14.4623L5.63915 14.6729L5.79914 14.2774L6.42412 13.8203L6.21913 13.5121L6.01413 13.6559L6.11413 13.3991L6.62911 12.9625L6.39412 12.6749L6.47911 12.4592L6.8291 12.1099L6.56911 11.8428L6.42412 11.9867L7.00909 11.2779L6.7741 11.0673L7.16908 10.4817L6.8791 10.266L6.89409 10.2352H6.88909L7.17908 9.41853L6.8391 9.29013L6.50911 10.2147L6.43912 9.58289L6.64411 9.00764L7.15908 9.10009L7.22408 8.73542L6.7691 8.65324L6.8591 8.40156H7.86405V8.03175H7.06409L7.19408 7.9393L8.50402 7.82117L8.47402 7.44622L7.78905 7.50785L7.83905 7.47704L9.14899 7.24077L9.084 6.87096L8.88401 6.90692L9.75897 6.66551L9.67897 6.35734L9.76397 6.32652L10.4739 6.66551L10.6239 6.32652L10.2489 6.14675L10.3389 6.1108L10.2589 5.8848L11.3239 6.17757L11.4189 5.81803L10.6489 5.60745L10.7989 5.55095L12.0939 5.78722L12.1589 5.42254L11.4789 5.29414L11.5339 5.27873L12.8588 5.39686L12.8888 5.02192L12.7038 5.00137C12.8938 5.00137 13.4038 5.00137 13.5938 5.00137V4.68806L14.2938 4.62643L14.2638 4.25662L15.0887 3.94844L14.9637 3.59404L14.0288 3.94844L14.4838 3.45023L15.2487 3.16774L16.0137 3.45023L16.4687 3.94844L15.5387 3.59404L15.4137 3.94844L16.2137 4.24121H16.2087L16.2387 4.25662L16.2087 4.62643L16.9086 4.68806V5.00137C17.0986 5.00137 17.6086 5.00137 17.7986 5.00137L17.6086 5.02192L17.6436 5.39686L18.9686 5.27873L19.0186 5.29414L18.3436 5.42254L18.4086 5.78722L19.7035 5.55095L19.8485 5.60745L19.0835 5.81803L19.1685 6.17757L20.2435 5.8848L20.1635 6.1108L20.2535 6.14675L19.8785 6.32652L20.0285 6.66551L20.7335 6.32652L20.8185 6.35734L20.7385 6.66551L21.6184 6.90692L21.4134 6.87096L21.3534 7.24077L22.6634 7.47704L22.7084 7.50785L22.0234 7.44622L21.9934 7.82117L23.3084 7.9393L23.4334 8.03175H22.6384V8.40156H23.6433L23.7333 8.65324L23.2784 8.73542L23.3434 9.10009L23.8583 9.00764L24.0633 9.58289L23.9933 10.2147L23.6633 9.29013L23.3234 9.41853L23.6183 10.266L23.3284 10.4817L23.7283 11.0673L23.4883 11.2779L24.0733 11.9867L23.9333 11.8428L23.6733 12.1099L24.0183 12.4592L24.1083 12.6749L23.8733 12.9625L24.3833 13.3991L24.4883 13.6559L24.2833 13.5121L24.0783 13.8203L24.7033 14.2774L24.8633 14.6729L24.4133 14.4623L24.2583 14.8013L25.0733 15.1711C25.2083 15.469 25.3633 15.7721 25.5183 16.0494C25.5683 16.1419 25.6183 16.2343 25.6733 16.3165L25.6083 16.3216L25.4833 17.0356L25.1733 17.0048L25.0933 17.9241V17.7238H24.7333V19.0901L24.7083 19.1414L24.6483 18.4378L24.2833 18.4737L24.3983 19.8194L24.3333 19.9684L24.1933 19.162L23.8383 19.2236L24.0683 20.5539L23.9483 20.8158L23.6283 19.9273L23.2934 20.0557L23.7283 21.2935L23.5983 21.5811L23.2884 20.6926L22.9434 20.821L23.3884 22.0537L23.1934 22.4851L23.1884 22.6033L23.4134 23.2453C23.2834 23.235 23.1634 23.2299 23.0484 23.2299L23.2434 22.9422L22.9434 22.7317L22.5634 23.2915C22.5484 23.2915 22.5334 23.2966 22.5134 23.3069L22.2734 23.158L21.8184 23.9695L21.9084 23.7794L21.5734 23.6254L21.0135 24.8581L20.9685 24.8991L21.2085 24.2366L20.8635 24.1082L20.4135 25.3768L20.2935 25.4795L20.5035 24.6886L20.1485 24.591L19.9185 25.4693C19.7185 25.4076 19.8385 25.5052 19.6585 25.3152L19.6735 25.1457L19.3085 25.1097L19.2785 25.4693C19.1735 25.5104 19.0785 25.572 18.9786 25.6644L18.9136 25.6079L18.8686 25.6644L18.6836 25.649L18.6636 25.9213L18.3336 26.3219L18.4536 26.1524L18.1486 25.9418L18.0536 26.0856ZM17.3136 0.209266H17.2386L17.0336 0.455805L16.5237 0.209266H16.1787L16.0887 0.409579L16.9536 0.825614L16.3287 0.841023L15.4187 0.404443L15.3587 0.2709L15.2487 0.322263L15.1437 0.2709L15.0837 0.404443L14.1688 0.841023L13.5438 0.825614L14.4138 0.409579L14.3238 0.209266H13.9788L13.4638 0.455805L13.2638 0.209266C13.1638 0.209266 13.2038 0.193857 13.1188 0.2709L12.6988 0.635573L12.4788 0.409579L11.8389 1.06702L11.9689 0.907794L11.6889 0.671527L10.8339 1.70905L10.7789 1.73473L11.1789 1.15947L10.8789 0.943747L10.3939 1.65768L10.3289 1.69364L10.2689 1.62687L10.2489 1.64228L10.3789 1.41628L10.064 1.22624L9.65897 1.95559C9.49898 2.00695 9.37398 2.07372 9.27899 2.15076C9.31399 2.05831 9.28899 2.09426 9.39398 2.01208L9.34898 1.95559L9.46898 1.62687L9.12899 1.5036L8.999 1.86313L8.48402 2.30999L8.19404 2.09426L7.78905 2.68493L7.52407 2.52057L7.11408 3.23964C7.04909 3.3321 6.8291 3.53241 6.7341 3.59918C6.65411 3.65568 6.56411 3.70704 6.47411 3.7584C6.05413 4.00494 5.88914 4.25662 5.85914 4.56993L5.71915 4.68806C5.77914 4.54425 5.83414 4.3953 5.88914 4.24635C6.12413 3.59404 6.34912 2.90065 6.58911 2.11481L6.7391 1.3906L6.31912 1.9864C5.88914 2.66952 5.51916 3.29614 5.18417 3.91249C5.07418 4.10767 4.96918 4.30284 4.86919 4.50316L4.5592 4.47234L4.4942 5.24791C4.42421 5.39173 4.35921 5.5304 4.29421 5.66908C4.23421 5.80263 4.17922 5.93617 4.12422 6.06971L4.09922 6.09025L4.04422 6.19298L4.03922 6.26489C3.98423 6.39843 3.92423 6.53197 3.86923 6.67065C3.82423 6.73228 3.77423 6.78878 3.72924 6.84528C3.38925 7.26132 3.30426 7.5849 3.37925 7.91362C3.38925 8.02148 3.21926 8.46319 3.18426 8.57619L3.05927 8.13961L3.28926 6.81446L2.92927 6.74769L2.70428 8.08311L2.3043 8.62755L2.47929 7.61572L2.11931 7.54894L1.96932 8.44265L1.60933 8.47347L1.66933 9.19254L1.36434 9.24904L1.52434 10.1684L1.46934 9.96298L1.11935 10.0606L1.43934 11.2881C1.42934 11.3087 1.42434 11.3343 1.41934 11.3549L1.21935 10.7745L0.879364 10.9029L1.32434 12.1767L1.30435 12.3308L0.964361 11.5912L0.634375 11.7504L1.19435 12.9779L1.14435 13.2553L0.614376 12.4849L0.31939 12.7006L1.05436 13.7792L0.97436 14.2415L0.999359 14.3596L1.16935 14.6061L0.889364 14.678L1.08436 15.4228L0.414385 13.7792L0.264392 13.471C0.254392 13.6662 0.239393 13.9744 0.254392 14.1644L0.579378 16.7223L0.424385 16.8147L0.634375 17.1948L0.674374 17.5081L0.519381 17.6211L0.729371 17.9344L0.779369 18.335L0.629376 18.4634L1.00436 18.9206L1.54933 20.2817C1.55433 20.3022 1.55433 20.3228 1.55433 20.3433C1.58933 20.785 1.69933 21.0881 1.87432 21.2986L1.16935 20.8775L0.98436 21.2062L2.09431 21.8636L2.17431 22.1615L1.37934 21.6941L1.19935 22.0177L2.3093 22.6752L2.44429 23.1888L3.19926 23.6408C3.27926 23.7538 3.33925 23.8719 3.38925 23.99C3.41925 24.0568 3.44425 24.1236 3.46925 24.1903L1.55433 23.1426L1.88432 23.651C2.81428 24.5293 3.61924 25.2381 4.42421 25.8596L4.34921 26.0291L5.17417 26.4195L4.97918 26.3476L4.85919 26.702L6.10413 27.1642L7.01909 28.1042H7.02409L7.34407 28.4431C7.01409 28.4226 6.39912 28.3815 6.04413 28.3867L5.69415 28.4021C5.88914 28.5048 6.09413 28.6126 6.29912 28.6897C7.35907 29.039 8.26903 29.306 9.14399 29.5063V29.5834L7.42907 30.4155L11.1789 32.208L12.6588 30.0713C12.6988 30.0713 12.7438 30.0713 12.7838 30.0713C12.7238 30.133 12.6038 30.4206 12.9788 30.3179C13.8188 30.097 14.4388 29.8197 15.2837 29.8248C15.8737 29.8299 16.2737 29.9532 16.7937 30.1124C16.8536 30.1278 17.5486 30.3436 17.6486 30.3436C17.8136 30.3487 17.8186 30.21 17.7186 30.0713C17.7586 30.0713 17.7986 30.0713 17.8436 30.0713L19.3185 32.208L23.0734 30.4155L21.3584 29.5834V29.5063C22.2284 29.306 23.1434 29.039 24.1983 28.6897C24.4233 28.6075 24.5983 28.5099 24.8083 28.4021L24.1533 28.3918C23.8033 28.4072 23.4734 28.4226 23.1584 28.4431L24.3933 27.1642L25.6433 26.702L25.5233 26.3476L25.3283 26.4195L26.1532 26.0291L26.0782 25.8596C26.8832 25.2381 27.6832 24.5293 28.6181 23.651L28.9481 23.1426L27.0382 24.1903C27.0582 24.1236 27.0832 24.0568 27.1132 23.99C27.1632 23.8719 27.2232 23.7538 27.3032 23.6408L28.0581 23.1888L28.1931 22.6752L29.3031 22.0177L29.1231 21.6941L28.3281 22.1615L28.4081 21.8636L29.5131 21.2062L29.3331 20.8775L28.6231 21.2986C28.8031 21.0881 28.9131 20.785 28.9481 20.3433C28.9481 20.3228 28.9481 20.3022 28.9481 20.2817L29.4981 18.9206L29.8731 18.4634L29.7231 18.335L29.7731 17.9344L29.9831 17.6211L29.8281 17.5081C29.8831 17.0818 29.8431 17.2359 30.0781 16.8147L29.9231 16.7223L30.248 14.1644L30.238 13.471L29.9581 14.0874L29.4181 15.4228L29.6131 14.678L29.3331 14.6061L29.5031 14.3596L29.5281 14.2415L29.4481 13.7792L30.1831 12.7006L29.8881 12.4849L29.3581 13.2553L29.3081 12.9779L29.8681 11.7504L29.5381 11.5912L29.1981 12.3308L29.1731 12.1767L29.6231 10.9029L29.2781 10.7745L29.0781 11.3549C29.0731 11.3343 29.0681 11.3087 29.0631 11.2881L29.3781 10.0606L29.0331 9.96298L28.9781 10.1684L29.1381 9.24904L28.8281 9.19254L28.8931 8.47347L28.5331 8.44265L28.3781 7.54894L28.0181 7.61572L28.1931 8.62755L27.7982 8.08311L27.5732 6.74769L27.2132 6.81446L27.4432 8.13961L27.3182 8.57619C27.2832 8.47347 27.1182 8.01634 27.1182 7.91362C27.1932 7.5849 27.1132 7.26132 26.7732 6.84528C26.7232 6.78878 26.6782 6.73228 26.6282 6.67065C26.5732 6.53197 26.5182 6.39843 26.4582 6.26489C26.4532 6.2392 26.4732 6.19298 26.3982 6.09025C26.3432 6.02348 26.2532 5.77181 26.2082 5.66908C26.1432 5.5304 26.0732 5.39173 26.0082 5.24791L25.9432 4.47234L25.6333 4.50316C25.5333 4.30284 25.4283 4.10767 25.3183 3.91249C24.9783 3.29614 24.6083 2.66952 24.1783 1.9864L23.7633 1.3906L23.9083 2.11481C24.1483 2.90065 24.3733 3.59404 24.6133 4.24635C24.6683 4.3953 24.7233 4.54425 24.7783 4.68806L24.6433 4.56993C24.6133 4.25662 24.4483 4.00494 24.0283 3.7584C23.8383 3.65054 23.6833 3.56323 23.5283 3.39887L23.3884 3.23964L22.9784 2.52057L22.7134 2.68493L22.3084 2.09426L22.0184 2.30999L21.4984 1.86313L21.3734 1.5036L21.0335 1.62687L21.1485 1.95559L21.1085 2.01208C21.2135 2.0994 21.1885 2.06345 21.2185 2.15076C21.1235 2.07372 21.0035 2.00695 20.8435 1.95559L20.4385 1.22624L20.1185 1.41628L20.2535 1.64228L20.2285 1.62687L20.1735 1.69364L20.1085 1.65768L19.6235 0.943747L19.3235 1.15947L19.7185 1.73473L19.6685 1.70905L18.8136 0.671527L18.5336 0.907794L18.6636 1.06702L18.0236 0.409579L17.8036 0.635573L17.3136 0.209266ZM15.2487 0.738298L16.1837 1.18001L16.5887 1.71418L15.6887 1.28274L15.5387 1.61659L16.3337 2.00695L16.2737 2.37162L16.9186 2.47948L16.8087 2.64384L16.7787 2.63357L16.7837 2.6387L15.9787 2.3408L15.8537 2.69007L16.7587 3.02906L16.1387 3.10097L15.6987 2.93661L15.5987 2.6387L15.2487 2.76711L14.9037 2.6387L14.8037 2.93661L14.3588 3.10097L13.7438 3.02906L14.6437 2.69007L14.5188 2.3408L13.7188 2.6387V2.63357L13.6938 2.64384L13.5788 2.47948L14.2288 2.37162L14.1688 2.00695L14.9637 1.61659L14.8137 1.28274L13.9088 1.71418L14.3188 1.18001L15.2487 0.738298Z" fill="#5B4431"/>
<path d="M12.5545 26.2355C13.0895 26.2458 13.5845 26.5026 13.9245 26.6053C14.8894 26.9135 15.6044 26.9135 16.5794 26.6053C16.9193 26.5026 17.4093 26.2458 17.9443 26.2355L17.8193 26.4255C17.0893 27.0265 16.9143 27.5247 16.7693 28.3516C16.7194 28.8242 16.7194 29.5278 17.5793 30.1493L17.6143 30.1801L17.5643 30.175C15.0094 29.5022 15.4894 29.5022 12.9395 30.175L12.8845 30.1801L12.9245 30.1493C13.7845 29.5278 13.7845 28.8242 13.7345 28.3516C13.5895 27.5247 13.4095 27.0265 12.6845 26.4255L12.5545 26.2355ZM23.3891 27.9202C23.589 27.6942 23.799 27.5042 23.989 27.2987C23.3891 27.0059 22.6541 26.8313 22.0241 26.5899L21.4841 26.6926L21.3641 26.7954L22.1591 26.7234L22.1891 27.0933L20.8792 27.2114L20.6642 27.3963L21.5791 27.4785L21.5491 27.8483L20.5642 27.761C21.8491 28.3876 22.5241 28.8807 23.3891 27.9202ZM19.8842 25.6243C19.7992 25.6037 19.7142 25.5883 19.6392 25.5832L19.5942 26.0866L19.8092 25.9017L19.8842 25.6243ZM19.2642 25.6551C19.2292 25.6705 19.0392 25.7835 19.0392 25.84L18.9693 26.6259L19.1992 26.4255L19.2642 25.6551ZM18.6293 26.2766C18.5593 26.3485 18.4793 26.4153 18.3993 26.4769C18.4643 26.5129 18.5343 26.5488 18.6043 26.5848L18.6293 26.2766ZM26.8239 24.3402C26.9189 24.0629 27.0139 23.7907 27.1939 23.5287C26.3789 23.4568 25.554 23.6058 24.739 23.5338C23.959 23.4619 23.3691 23.3695 22.9391 23.39L22.6191 23.8626L22.5541 24.6535L23.3191 24.7203L24.304 24.2529L24.459 24.5868L23.824 24.8949L23.909 25.1364C23.994 25.1466 24.079 25.1569 24.159 25.1672C25.604 25.2956 26.3939 25.5781 26.8239 24.3402ZM28.7938 20.3288C28.8138 20.0412 28.8388 19.7484 28.9538 19.4505C28.1488 19.5892 27.3789 19.959 26.5739 20.108C26.5489 20.108 26.5239 20.1131 26.5039 20.1183L25.9089 20.5446L25.8439 20.6884L26.5289 20.2826L26.7139 20.6011L25.579 21.279L25.459 21.541L26.3239 21.2225L26.4439 21.5718L25.474 21.9365C25.7939 21.9159 26.1139 21.8954 26.4289 21.8389C27.8539 21.5769 28.6938 21.6437 28.7938 20.3288ZM29.2238 15.7268C29.1538 15.4546 29.0788 15.1721 29.0788 14.8433C28.3738 15.2696 27.7739 15.8809 27.0639 16.302C26.5839 16.5845 26.1739 16.8054 25.8539 17.0057L25.7739 17.4936L26.0389 18.2384L26.7639 17.961L27.4639 17.1084L27.7439 17.3447L27.2889 17.9045L27.4189 18.0278C28.6588 17.2625 29.5838 17.0622 29.2238 15.7268ZM28.7038 10.8422C28.5588 10.5957 28.4188 10.3491 28.3438 10.0307C28.0538 10.3235 27.8039 10.6573 27.5589 10.9912L27.2389 12.2085L27.2489 12.2649L27.4889 11.5972L27.8239 11.7256L27.3789 13.0046L27.4039 13.1587L27.7439 12.4139L28.0688 12.5731L27.7089 13.3744C28.6738 12.3934 29.3338 11.9465 28.7038 10.8422ZM25.614 13.1484C25.594 13.1792 25.574 13.2049 25.549 13.2306L25.7639 13.4566C25.7289 13.2511 25.7639 13.3333 25.614 13.1484ZM25.349 13.5541C25.334 13.585 25.319 13.6106 25.309 13.6415L25.7939 14.2886L25.9239 14.3811L25.8739 14.0934L25.349 13.5541ZM26.6589 6.94895C26.5039 6.76404 26.3489 6.57914 26.2439 6.3326C25.9689 6.72809 25.7689 7.18521 25.544 7.61666L25.7739 7.57043L26.0039 8.90585L26.1389 9.08562L25.9239 8.2741L26.2789 8.17651L26.3389 8.42305L26.5839 8.37682L26.6189 8.58227C26.6939 8.46927 26.7589 8.36655 26.8139 8.26382L26.7439 7.85292L26.9789 7.8067C27.0139 7.53961 26.9289 7.27253 26.6589 6.94895ZM25.444 7.79129C25.374 7.91969 25.299 8.0481 25.214 8.16623C24.474 9.24998 23.984 9.74819 24.379 10.2875C24.524 10.4827 24.689 10.6573 24.799 10.909C24.839 10.8525 24.879 10.796 24.914 10.7395L24.804 10.5392L25.069 10.3748L24.774 9.72251L25.099 9.56843L24.944 8.67472L25.304 8.60795L25.469 9.58383L25.644 8.96749L25.444 7.79129ZM25.619 9.91255C25.624 9.90742 25.629 9.90228 25.629 9.90228L25.494 9.7071C25.519 9.86633 25.484 9.80983 25.619 9.91255ZM23.954 3.89802C23.769 3.79016 23.589 3.6823 23.4291 3.50767C23.2691 4.10861 23.2691 4.75577 23.1091 5.35671C22.8141 6.49182 22.5541 7.05167 23.0441 7.37525C23.2191 7.49339 23.4091 7.59098 23.569 7.76561C23.729 7.16467 24.044 6.59968 24.194 6.00388C24.474 4.93554 24.779 4.37569 23.954 3.89802ZM20.6792 2.06952C20.5042 2.01816 20.3292 1.97194 20.1492 1.86407C20.1492 2.41365 20.2892 2.96323 20.2892 3.50767C20.2892 4.54005 20.1892 5.08449 20.6792 5.24885C20.8542 5.30535 21.0392 5.34131 21.2192 5.4543C21.2192 4.89959 21.3591 4.35515 21.3591 3.80557C21.3591 2.82969 21.4941 2.28525 20.6792 2.06952ZM7.11978 27.9099C6.93979 27.6942 6.7398 27.499 6.49481 27.2987C7.09478 27.0059 7.84475 26.8313 8.46972 26.5899L9.0197 26.6926L9.13969 26.7954L8.34473 26.7234L8.31473 27.0933L9.62467 27.2114L9.83966 27.3963L8.9197 27.4785L8.9547 27.8483L9.93966 27.761C8.65471 28.3876 7.93975 28.9063 7.11978 27.9099ZM10.6196 25.6243C10.7046 25.6037 10.7846 25.5883 10.8646 25.5832L10.9046 26.0866L10.6896 25.9017L10.6196 25.6243ZM11.2396 25.6551C11.3146 25.6911 11.3896 25.7476 11.4646 25.8246L11.5296 26.6259L11.3046 26.4255L11.2396 25.6551ZM11.8696 26.2766C11.9446 26.3485 12.0196 26.4153 12.1046 26.4769C12.0396 26.5129 11.9696 26.5488 11.8996 26.5848L11.8696 26.2766ZM3.67994 24.3402C3.58494 24.0629 3.48995 23.7907 3.30495 23.5287C4.11992 23.4568 4.94988 23.6058 5.76484 23.5338C6.54481 23.4619 7.12978 23.3695 7.56476 23.39L7.88475 23.8626L7.94975 24.6535L7.17978 24.7203L6.19982 24.2529L6.04483 24.5868L6.6798 24.8949L6.58981 25.1364C6.50981 25.1466 6.42481 25.1569 6.33982 25.1672C4.89988 25.2956 4.10992 25.5781 3.67994 24.3402ZM1.71003 20.3288C1.68503 20.0412 1.66503 19.7484 1.55003 19.4505C2.355 19.5892 3.11996 19.959 3.92493 20.108C3.94992 20.108 3.97492 20.1131 3.99992 20.1183L4.5949 20.5446L4.65989 20.6884L3.96992 20.2826L3.78993 20.6011L4.92488 21.279L5.04488 21.541L4.17991 21.2225L4.05992 21.5718L5.02488 21.9365C4.70989 21.9159 4.38491 21.8954 4.07492 21.8389C2.64998 21.5769 1.81002 21.6437 1.71003 20.3288ZM1.28004 15.7268C1.35004 15.4546 1.42504 15.1721 1.42004 14.8433C2.13001 15.2696 2.72998 15.8809 3.43995 16.302C3.91993 16.5845 4.32491 16.8054 4.64489 17.0057L4.72989 17.4936L4.4649 18.2384L3.73993 17.961L3.03997 17.1084L2.75998 17.3447L3.21496 17.9045L3.08496 18.0278C3.05497 18.0124 3.02497 17.9918 2.99497 17.9764C1.74502 17.2317 0.93506 17.0006 1.28004 15.7268ZM1.80002 10.8422C1.94502 10.5957 2.08001 10.3491 2.16001 10.0307C2.44999 10.3235 2.69998 10.6573 2.94497 10.9912L3.25996 12.2085L3.24996 12.2649L3.01497 11.5972L2.67498 11.7256L3.12496 13.0046L3.09996 13.1587L2.75998 12.4139L2.43499 12.5731L2.79498 13.3744C1.82502 12.3934 1.17005 11.9465 1.80002 10.8422ZM4.88988 13.1484C4.90488 13.1792 4.92988 13.2049 4.94988 13.2306L4.73989 13.4566C4.76989 13.2511 4.73489 13.3333 4.88988 13.1484ZM5.15487 13.5541C5.16987 13.585 5.17987 13.6106 5.18987 13.6415L4.70489 14.2886L4.5799 14.3811L4.62989 14.0934L5.15487 13.5541ZM3.84493 6.94895C3.99992 6.76404 4.15492 6.57914 4.25991 6.3326C4.5349 6.72809 4.73489 7.18521 4.95988 7.61666L4.72989 7.57043L4.4999 8.90585L4.36491 9.08562L4.5749 8.2741L4.22491 8.17651L4.16492 8.42305L3.91993 8.37682L3.88493 8.58227C3.80993 8.46927 3.74493 8.36655 3.68994 8.26382L3.75993 7.85292L3.52494 7.8067C3.48995 7.53961 3.57494 7.27253 3.84493 6.94895ZM5.05488 7.79129C5.12987 7.91969 5.20487 8.0481 5.28987 8.16623C6.02483 9.24998 6.51981 9.74819 6.11983 10.2875C5.97983 10.4827 5.81484 10.6573 5.70485 10.909C5.66485 10.8525 5.62485 10.796 5.58985 10.7395L5.69985 10.5392L5.43486 10.3748L5.72985 9.72251L5.40486 9.56843L5.55985 8.67472L5.19987 8.60795L5.02988 9.58383L4.85988 8.96749L5.05488 7.79129ZM4.87988 9.91255C4.87988 9.90742 4.87488 9.90228 4.86988 9.90228L5.00988 9.7071C4.97988 9.86633 5.01488 9.80983 4.87988 9.91255ZM6.54981 3.89802C6.7298 3.79016 6.91479 3.6823 7.07478 3.50767C7.23478 4.10861 7.23478 4.75577 7.38977 5.35671C7.68976 6.49182 7.94975 7.05167 7.45977 7.37525C7.28477 7.49339 7.09478 7.59098 6.93479 7.76561C6.7748 7.16467 6.45981 6.59968 6.30982 6.00388C6.02983 4.93554 5.71985 4.37569 6.54981 3.89802ZM9.81966 2.06952C9.99465 2.01816 10.1746 1.97194 10.3546 1.86407C10.3546 2.41365 10.2096 2.96323 10.2096 3.50767C10.2096 4.54005 10.3096 5.08449 9.81966 5.24885C9.64467 5.30535 9.46468 5.34131 9.28469 5.4543C9.28469 4.89959 9.14469 4.35515 9.14469 3.80557C9.14469 2.82969 9.0097 2.28525 9.81966 2.06952Z" fill="#007CC3"/>
<path d="M14.3996 3.31763L13.9547 3.80557L13.2397 3.71825L13.7347 3.18409L14.3796 3.25599L15.5096 2.83996L15.5296 2.89646L14.3996 3.31763ZM14.2247 1.05769L13.8197 1.58158L13.1047 1.56617L13.5497 0.980642L14.1947 1.00119L14.9946 0.621105L15.0696 0.657059L14.2247 1.05769ZM13.2297 0.739239V0.744375L14.1847 0.276978L14.2147 0.333476L13.1997 0.821418L12.9347 1.56617L12.3847 1.82812L12.6797 1.00119L13.2297 0.739239ZM12.5047 1.08337L12.2097 1.9103L11.6648 2.17738L11.9598 1.35045L12.2897 1.18609L13.2147 0.389975L13.2547 0.441337L12.5047 1.08337ZM11.7798 1.43263L11.4848 2.25956L10.9398 2.52151L11.2348 1.69458L11.6198 1.50967L12.4797 0.631378L12.5197 0.672468L11.7798 1.43263ZM11.0598 1.77676L10.7648 2.60369L10.4248 2.76805L10.5098 2.04384L10.9298 1.83839L11.7048 0.883053L11.7548 0.924143L11.0598 1.77676ZM10.5098 1.76649L10.9148 1.16041L10.9648 1.19636L10.5098 1.87435V1.76649ZM9.86985 1.89489L10.1198 1.4429L10.1748 1.47372L9.94485 1.86921C9.91985 1.87948 9.88985 1.88462 9.86985 1.89489ZM8.90489 2.58315C8.99489 2.33147 8.94489 2.39311 9.07989 2.29038L8.97989 2.56774L8.90489 2.58315ZM9.19488 1.76649L9.21488 1.69971L9.27488 1.7254L9.23988 1.82298L9.19488 1.76649ZM13.8047 2.00789L14.7646 1.55076L14.7396 1.49427L13.7197 1.97707L12.9997 1.70485L12.4497 1.97194L13.2547 2.27497L13.8047 2.00789ZM13.0797 2.35715L12.2747 2.05411L11.7248 2.3212L12.5347 2.6191L12.8647 2.45474L14.0547 2.24416L14.0447 2.18252L13.0797 2.35715ZM12.3547 2.70128L11.5498 2.40338L11.0048 2.66533L11.8098 2.96836L12.1947 2.77832L13.4047 2.67046L13.3997 2.60883L12.3547 2.70128ZM11.6298 3.05054L10.8298 2.74751L10.4048 2.95296C10.3998 2.98891 10.3948 3.01973 10.3898 3.05568L11.0848 3.30736L11.5048 3.11218H12.7197V3.05054H11.6298ZM10.9098 3.39467L10.3798 3.1995L10.3648 3.65662L10.7998 3.44603L12.0048 3.5539L12.0098 3.49226L10.9098 3.39467ZM10.3648 3.84152L10.9598 3.94939L11.0298 3.89802L10.3648 3.77475C10.3648 3.7953 10.3648 3.81584 10.3648 3.84152ZM11.1948 3.99048L11.2848 4.00588L11.2948 3.94425L11.1448 3.91857L11.1948 3.99048ZM13.4397 2.91187H13.4347L14.4296 2.53692L14.4496 2.59856L13.3997 2.99405L13.0747 3.70798L12.5047 3.9237L12.7997 3.26627H12.8647V3.12759L13.4397 2.91187ZM12.6547 3.26627L12.3247 3.99048L11.7548 4.20106L11.9798 3.71312L12.1397 3.72853L12.1697 3.3844L12.4747 3.26627H12.6547ZM12.8647 2.98377C13.0697 2.83996 12.9947 2.86564 13.1597 2.85023L12.8647 3.06082V2.98377ZM11.8348 3.69771L11.5698 4.26783L11.0048 4.48355C11.0898 4.29865 11.0498 4.33974 11.1798 4.24215C11.3198 4.13943 11.2698 4.15483 11.4048 4.18052L11.4698 3.81584L11.3148 3.79016C11.3998 3.62067 11.3548 3.65662 11.8348 3.69771ZM11.9998 3.33304C12.0948 3.25086 12.0498 3.26627 12.1697 3.26627C12.0748 3.35358 12.0998 3.35358 11.9998 3.33304ZM11.1848 3.75421L11.1798 3.76448L11.1048 3.74907L11.2098 3.64121L11.2898 3.64635L11.1848 3.75421ZM10.8548 4.47842C10.8098 4.57601 10.8498 4.54005 10.6798 4.60682L10.8548 4.47842ZM10.4698 4.29865H10.4648L10.5848 4.0367L10.7848 4.06752L10.4698 4.29865ZM11.5448 3.29195L11.5698 3.26627H11.6598L11.6248 3.30222L11.5448 3.29195ZM10.4348 4.0367L10.3698 4.17024C10.3698 4.11888 10.3698 4.06752 10.3698 4.02129L10.3848 4.00075L10.4548 4.01616L10.4348 4.0367ZM10.7548 3.64121L10.7198 3.6823L10.6848 3.67716L10.7548 3.64121ZM13.8997 4.22674L14.8946 3.85693L14.8796 3.7953L13.8197 4.18565L13.1247 3.85693L12.5547 4.06752L13.3347 4.43733L13.8997 4.22674ZM13.1497 4.50923L12.3747 4.13429L11.8048 4.35001L12.5847 4.71982L12.9297 4.59141L14.1347 4.48355L14.1297 4.42192L13.1497 4.50923ZM12.3997 4.79173L11.6248 4.41678L11.0548 4.6325L11.8348 4.99718L12.2347 4.84823H13.4497V4.79173H12.3997ZM11.6498 5.06908L10.8748 4.69928L10.3198 4.89959C10.3198 4.90473 10.3198 4.90986 10.3198 4.915L10.5848 5.0434L10.7248 4.93554L10.8998 5.19749L11.0848 5.27967L11.5148 5.12045L12.7247 5.22831L12.7297 5.16667L11.6498 5.06908ZM10.8998 5.35158L10.8348 5.32076L10.6748 5.43376L10.7848 5.39267L11.9748 5.60839L11.9848 5.54675L10.8998 5.35158ZM10.4548 5.13586L10.2698 5.04854C10.2198 5.16667 10.1398 5.25913 10.0148 5.33103L9.97985 5.3978L10.0498 5.42862L10.4548 5.13586ZM10.2698 5.72652L11.2248 5.98847L11.2398 5.92684L10.3348 5.68543L10.2698 5.72652ZM9.96485 6.25042L10.3998 6.461L10.4298 6.40451L10.0448 6.2196L9.96485 6.25042ZM8.98489 3.3279L8.41992 3.47172L8.6999 2.79373L9.00489 2.71669C8.97989 2.89646 8.97989 3.10191 8.98489 3.3279ZM8.32992 2.64478L9.14488 1.94625L9.17988 1.99248L8.32492 2.7321L8.25492 3.51794L7.78994 3.9237L7.86494 3.04541L8.32992 2.64478ZM7.71995 3.17381L7.64495 4.04697L7.36996 4.28324C7.33496 4.05725 7.30497 3.82098 7.24997 3.58985C7.24997 3.54876 7.49496 3.37413 7.53995 3.32276L8.22992 2.31093L8.27992 2.34688L7.71995 3.17381ZM7.20497 3.39981L7.57995 2.73723L7.62995 2.76805L7.22497 3.48199L7.20497 3.39981ZM6.00002 5.46457L5.95503 5.50566L5.97002 5.35158C5.98002 5.38753 5.99002 5.42862 6.00002 5.46457ZM5.87003 4.89445L5.81003 5.63407L5.34505 6.02956L5.39005 5.52621C5.46505 5.35158 5.53504 5.17181 5.60504 4.99204L5.86003 4.77632C5.86003 4.81741 5.86503 4.8585 5.87003 4.89445ZM5.22006 5.91656L5.19506 6.15797L5.18006 6.17338H5.16506V6.18878L5.05007 6.28637L5.22006 5.91656ZM4.68008 4.86877L4.70008 4.64278L4.76008 4.64791C4.75008 4.75577 4.75508 4.73009 4.68008 4.86877ZM8.99489 3.69771L8.35492 3.64121L7.88494 4.04184L8.7399 4.11374L8.99489 3.90316V3.69771ZM8.59491 4.24215L7.73995 4.16511L7.38996 4.46814C7.39496 4.5041 7.39996 4.54519 7.40496 4.58114L8.12993 4.64791C8.21492 4.56573 8.22492 4.57087 8.27992 4.49383L8.29492 4.5041L8.41492 4.39624L9.00489 4.11374C9.00489 4.0932 9.00489 4.06752 8.99989 4.04697L8.59491 4.24215ZM7.97993 4.77632L7.42496 4.72496C7.43996 4.82768 7.45496 4.92527 7.47496 5.02286L7.54995 4.88932L7.72495 4.99204L7.84494 4.88418L8.06993 4.80714L8.12993 4.71982L7.97993 4.77632ZM8.48991 4.64791C8.61991 4.60169 8.57491 4.6325 8.6699 4.51437L8.43491 4.60682L8.48991 4.64791ZM7.75994 5.25399L7.81494 5.17695H7.80494L7.75994 5.25399ZM6.03502 5.75734L5.90503 5.74707L5.44505 6.15283L5.88003 6.18878L6.03502 5.75734ZM5.83503 6.32746L5.51504 6.29664L5.44005 6.73322L5.68004 6.75377L5.83503 6.32746ZM5.12506 6.42505L4.89007 6.62536C4.88007 6.64591 4.87507 6.66132 4.86507 6.68186L5.07506 6.69727L5.12506 6.42505ZM6.19001 6.41478L6.27501 6.40964C6.26501 6.3891 6.26001 6.36855 6.25501 6.34801H6.21501L6.19001 6.41478ZM4.95507 7.27253L4.97507 7.27767L5.05007 6.83595L4.80008 6.8154C4.78508 6.84109 4.77508 6.86163 4.76008 6.88731L4.95507 7.27253ZM5.39505 7.00545L5.47005 6.93867L5.61004 6.95408L5.63504 6.89245L5.41505 6.8719L5.39505 7.00545ZM9.13488 5.51594L9.09488 5.52107L9.13488 5.43889V5.51594ZM10.3648 4.56573L11.0598 4.06238L11.0948 4.11374L10.3598 4.64791C10.3648 4.6171 10.3648 4.59141 10.3648 4.56573ZM9.07989 4.76605L9.06489 4.77632L8.92989 5.55703L8.43491 5.91143L8.57991 5.0434L9.06989 4.69414C9.07489 4.71468 9.07989 4.74037 9.07989 4.76605ZM8.42491 5.1564L8.27492 6.02442L7.81494 6.35828C7.80494 6.32746 7.79994 6.30178 7.79494 6.2761L7.92494 5.51594L8.22992 5.29508L9.00489 4.34488C9.01489 4.35515 9.04489 4.37569 9.03489 4.40651L8.42491 5.1564ZM7.76494 5.62893L7.71495 5.95765L7.64495 5.70084L8.31992 4.71468L8.36992 4.75064L7.76494 5.62893ZM6.595 7.23658L6.47 7.32389L6.515 7.0414C6.545 7.10303 6.57 7.1698 6.595 7.23658ZM7.51996 5.25399L7.60495 5.10504L7.65995 5.13586L7.54495 5.33617L7.51996 5.25399ZM6.42 6.8L6.31501 7.43689L5.81503 7.79643L5.96502 6.9284L6.35501 6.64077C6.38001 6.69213 6.40001 6.74863 6.42 6.8ZM5.80503 7.0414L5.65504 7.90942L5.41505 8.08405L5.24006 7.8067L5.31005 7.3958L5.72004 7.10303L6.13502 5.93711L6.16002 6.04497L5.80503 7.0414ZM5.08506 7.52934L5.29005 6.35314L5.35005 6.36342L5.13506 7.61666C5.12006 7.58584 5.10506 7.55502 5.08506 7.52934ZM9.85985 5.83438L10.7248 5.20776L10.6898 5.1564L9.77485 5.81897L9.16488 5.70598L9.13488 5.72139V5.70084L9.01489 5.68543L8.51491 6.03983L9.35987 6.19392L9.85985 5.83438ZM9.19988 6.30692L8.36492 6.15283L7.86494 6.50723L8.7049 6.66132L9.01489 6.4456L10.1448 6.01929L10.1248 5.95765L9.19988 6.30692ZM8.54991 6.77431L7.86994 6.65104C7.89494 6.82054 7.89494 6.96949 7.85494 7.0979L8.05493 7.13385L8.40991 6.88218L9.57486 6.55346L9.55986 6.49696L8.54991 6.77431ZM7.89494 7.24685L7.80494 7.23144C7.76994 7.29821 7.72495 7.35985 7.65995 7.41634L7.77994 7.33416L8.97489 7.11331L8.96489 7.05167L7.89494 7.24685ZM6.64999 7.38039L6.555 7.44716L6.68499 7.47284C6.67499 7.44202 6.66499 7.41121 6.64999 7.38039ZM7.23997 7.71938L7.22497 7.71425C7.16997 7.7502 7.11497 7.79643 7.06498 7.84265L7.13997 7.79129L8.34492 7.67829L8.33992 7.61666L7.23997 7.71938ZM6.73499 7.62693L6.39501 7.56529L5.90003 7.92483L6.74499 8.07892L6.83999 8.00701L6.73499 7.62693ZM6.585 8.18678L5.74503 8.03783L5.50505 8.20732C5.57004 8.30491 5.62504 8.39223 5.68504 8.46927L6.09502 8.54632L6.5 8.24841H6.525L6.545 8.18164L6.71999 8.24841H7.71495V8.18678H6.585ZM5.85503 8.71581L6.33001 8.79799L6.35001 8.73636L5.80003 8.63363C5.82003 8.66445 5.83503 8.69013 5.85503 8.71581ZM6.69499 8.85963L7.03998 8.9264L7.04998 8.86476L6.71499 8.80313L6.69499 8.85963ZM2.84516 8.14055L2.45518 8.67986L2.66517 9.38866L3.09015 8.79799L2.90516 8.15083L3.11015 6.93867L3.05016 6.9284L2.84516 8.14055ZM3.42514 8.9264L3.58513 7.97619L3.52513 7.96592L3.36514 8.91099L3.42514 8.9264ZM3.30014 9.12157L2.70517 9.55815L2.59518 10.1694L2.76517 10.0461V9.77901H3.12515L3.30014 9.12157ZM2.76517 10.2156L2.62517 10.3183C2.67017 10.38 2.72017 10.4416 2.76517 10.5032V10.2156ZM3.22015 10.6214L3.25015 10.57L3.24015 10.5546L3.22015 10.6214ZM2.0852 13.1227L2.0452 13.3641L2.0552 13.3898L2.1402 13.3281L2.0852 13.1227ZM2.16019 13.4874L2.1052 13.5285L2.1302 13.6004L2.1402 13.5644L2.1102 13.5233L2.16019 13.4874ZM1.92521 14.0934L1.90521 14.2064L1.9502 14.1756L1.92521 14.0934ZM1.87021 14.4068C1.86021 14.4581 1.85521 14.4376 1.89521 14.5043L1.9352 14.3605L1.87021 14.4068ZM2.0602 8.80826L2.24519 7.73479L2.30519 7.74506L2.1102 8.88017L2.55518 9.52734L2.45018 10.118C2.42518 10.082 2.39518 10.0512 2.36519 10.0204L1.9552 9.41948L2.0602 8.80826ZM1.92521 9.61465L2.0552 9.81497C2.0052 10.0256 1.9802 10.1488 1.89521 10.344L1.81521 10.2259L1.88021 9.85092L1.77521 8.61822L1.83521 8.61309L1.92521 9.61465ZM1.78521 10.4262L1.82521 10.4827C1.80021 10.534 1.77521 10.5803 1.75021 10.6214L1.75521 10.6008L1.54022 9.37839L1.60022 9.36298L1.78521 10.4262ZM1.53022 11.0374L1.31023 10.1745L1.36023 10.1591L1.57022 10.9501C1.55522 10.9758 1.54522 11.0066 1.53022 11.0374ZM1.9952 12.7888L1.9452 13.0662L1.86021 12.8299L1.59022 12.9327L1.40023 12.6502L1.48523 12.1622L1.07524 10.9963L1.13024 10.9758L1.39023 11.7154C1.42023 12.1006 1.65022 12.419 1.9952 12.7888ZM1.36523 12.8505L1.60022 13.1895L1.82021 13.8058L1.75521 14.1808C1.56522 13.9034 1.57522 13.9291 1.43523 13.6877L1.42023 13.698L1.26523 13.4617L1.34523 12.9583L0.835254 11.8232L0.890252 11.7976L1.36523 12.8505ZM1.37523 14.643L1.12524 14.2681L1.17524 13.965L1.64022 14.7971L1.37523 14.643ZM1.20024 13.8264L1.21524 13.7442L0.530268 12.7375L0.580266 12.7015L1.30523 13.7647L1.20024 13.8264ZM6.445 2.06952C5.87003 3.96993 5.41005 5.20776 4.67508 6.71782C4.61509 6.61509 4.56009 6.51237 4.49509 6.41478L5.12006 4.93041L4.42509 6.30178L4.2801 6.08606C4.81008 4.83795 5.56504 3.49226 6.445 2.06952ZM4.64008 8.96749L4.2501 9.50679L4.46009 10.2105L4.89007 9.61979L4.70008 8.97776L4.90507 7.76561L4.85007 7.75534L4.64008 8.96749ZM4.11511 9.73792L4.08511 9.5787C4.06511 9.6917 4.05511 9.65061 4.11511 9.73792ZM4.08511 9.56329L4.09511 9.50165L4.08511 9.56329ZM4.12011 9.42975L4.3901 8.38196L4.3301 8.36655L4.2051 8.85963L4.10511 9.45029L4.12011 9.42975ZM2.82017 14.5608L2.77517 14.7252L2.83516 14.6893C2.85516 14.5865 2.86016 14.6173 2.82017 14.5608ZM2.80017 14.869L2.73017 14.9152L2.58018 15.4956L2.59518 15.5008L2.89016 15.3261C2.75517 15.1207 2.76017 15.1566 2.80017 14.869ZM3.08515 15.8809L3.10515 15.8706L3.15015 15.7011L2.97016 15.4443L2.71017 15.5984C2.83016 15.696 2.95516 15.7884 3.08515 15.8809ZM3.21015 10.0666L3.41014 9.30134L3.42514 9.48625L3.27515 10.0512L3.21015 10.0666ZM3.41014 9.30134L3.46014 9.09589L3.52013 9.1113L3.47014 9.29621L3.41014 9.30134ZM3.08015 10.8422L3.03016 10.7498L3.18015 10.1745L3.32014 10.9912L3.27015 10.7908L3.08015 10.8422ZM2.91516 10.6984V9.9331H2.98016V10.7806C2.96016 10.7549 2.93516 10.7241 2.91516 10.6984ZM2.89016 13.6877L2.83516 13.888L2.50518 13.2973L2.89016 13.6877ZM2.36019 13.323L2.37019 13.3384L2.31019 13.3795L2.21519 13.0148C2.33519 13.133 2.29519 13.0713 2.36019 13.323ZM2.71017 14.3965L2.63017 14.6893L2.20019 13.9188L2.25019 13.7288L2.71017 14.3965ZM2.1502 14.114L2.58018 14.8742L2.44518 15.3929C2.44518 15.3878 2.44518 15.3878 2.44518 15.3878L2.32019 15.2902L2.0002 14.7149L2.1252 14.2167L1.71022 13.0457L1.77021 13.0251L2.1502 14.114ZM1.92521 14.9923L1.32523 13.9291L1.37523 13.8931L2.0402 15.0796C2.0052 15.0488 1.9652 15.018 1.92521 14.9923ZM5.20006 9.87146H5.19506L5.38005 8.80313L5.32005 8.79285L5.12506 9.92283L4.49509 10.38L4.3901 10.9912L5.09006 10.4878L5.20006 9.87146ZM5.06007 10.6779L4.3551 11.1863L4.2501 11.8027L4.95507 11.2993L5.02007 10.9193L5.53004 9.79442L5.47505 9.77388L5.06007 10.6779ZM4.92007 11.4894L4.2201 11.9979L4.11511 12.6091L4.82008 12.1057L4.89007 11.6691L5.50005 10.5957L5.44505 10.5649L4.92007 11.4894ZM4.78508 12.2958L4.08511 12.8043L3.97511 13.4155L4.68008 12.9121L4.76008 12.4396L5.45505 11.4226L5.40505 11.3918L4.78508 12.2958ZM4.64508 13.1073L3.94512 13.6106L3.84012 14.227L4.54009 13.7236L4.62508 13.2306L5.40005 12.2752L5.35505 12.2393L4.64508 13.1073ZM4.50509 13.9137L3.80512 14.4222L3.70013 15.0334L4.40009 14.53L4.48509 14.0215L5.34505 13.1381L5.30005 13.097L4.50509 13.9137ZM3.66513 15.2286L3.56013 15.8398L4.2601 15.3364L4.3501 14.8074L5.33005 14.1037L5.29505 14.0524L3.66513 15.2286ZM3.85512 9.63006L3.86012 9.6352L4.04511 8.55659L4.10511 8.56686L3.91012 9.7071L4.3451 10.3543L4.2401 10.9655L3.75012 10.2464L3.85512 9.63006ZM3.71513 10.4416L4.2051 11.1607L4.10511 11.7719L3.61013 11.0528L3.67513 10.6727L3.57013 9.44516L3.63013 9.43488L3.71513 10.4416ZM3.58013 11.248L4.07011 11.967L3.96511 12.5834L3.47014 11.8592L3.54513 11.4226L3.34014 10.2002L3.40014 10.1899L3.58013 11.248ZM3.44514 12.0595L3.93512 12.7786L3.82512 13.3898L3.33514 12.6707L3.42014 12.2033L3.10515 10.9963L3.16015 10.9809L3.44514 12.0595ZM3.30514 12.8659L3.79512 13.585L3.68513 14.1962L3.20015 13.4771L3.28014 12.9892L2.86516 11.8232L2.92516 11.7976L3.30514 12.8659ZM3.16515 13.6774L3.65513 14.3965L3.55013 15.0077L3.06015 14.2835L3.14515 13.7801L2.63517 12.6502L2.69017 12.6245L3.16515 13.6774ZM3.51513 15.2029L3.41514 15.8141L2.92016 15.095L3.01016 14.5711L2.32519 13.5644L2.37519 13.5285L3.51513 15.2029ZM6.31501 9.47084L6.69499 8.40764L6.63999 8.38196L6.28501 9.38866C6.30001 9.41434 6.31001 9.44516 6.31501 9.47084ZM6.625 10.5392L6.98998 9.51193L6.92998 9.49138L6.545 10.57L5.88003 10.8936C5.83503 10.9398 5.66504 11.4226 5.64004 11.4894L6.415 11.1196L6.625 10.5392ZM6.35001 11.3096L5.58004 11.6794L5.42505 12.1006L5.53004 12.1879L6.14502 11.89L6.27501 11.5305L6.96498 10.5186L6.91498 10.4827L6.35001 11.3096ZM6.08002 12.08L5.56004 12.3266L5.18506 12.7837L5.09506 13.0354C5.23006 12.9686 5.17506 13.0046 5.30005 12.8762L5.34005 12.9173L5.85003 12.6707C5.91503 12.6193 5.98002 12.3112 6.02002 12.2444L6.79499 11.2993L6.74999 11.2582L6.08002 12.08ZM5.67004 12.9173L5.44505 13.0251L5.52504 13.1073L5.67004 12.9173ZM5.27506 13.436C5.27506 13.436 5.27506 13.436 5.27506 13.4411L5.30505 13.4001L5.27506 13.436ZM6.23501 13.0919L6.415 12.9429L6.37501 12.8916C6.25501 12.9943 6.29501 12.9429 6.23501 13.0919ZM5.85503 14.037L6.22001 13.7801L6.18501 13.7288L5.90003 13.9291L5.85503 14.037ZM5.47505 14.9974L6.04002 14.7252L6.01502 14.6738L5.51005 14.9101L5.47505 14.9974ZM5.50505 10.8884C5.51504 10.8936 5.52004 10.9038 5.52504 10.9141H5.53004L5.63004 11.0682L5.55004 11.3045L5.38505 11.1812L5.36505 11.1401L5.50505 10.8884ZM5.28006 11.2891L5.28506 11.2942L5.25006 11.3404L5.28006 11.2891ZM5.36005 11.8284L5.26006 12.1109L5.21006 12.1776L5.17506 12.1006L5.36005 11.8284ZM5.08506 12.2341L5.11006 12.2906L4.89007 12.5629L4.90007 12.5064L5.08506 12.2341ZM4.97507 14.0934L6.47 12.1006C5.79003 13.8007 5.53004 15.1823 4.40009 16.6821L4.09011 16.4972L4.72008 15.2748L3.93512 16.4099C3.85012 16.3585 3.75012 16.302 3.64013 16.2455L3.67513 16.0504L4.3301 15.6549L4.49009 14.8998L5.54504 14.1448L5.33505 13.8418L4.97507 14.0934ZM0.605264 15.7268L0.405273 14.1448L1.09524 15.85C1.05024 16.0504 1.03525 16.225 1.04524 16.3791L0.855253 15.66L0.605264 15.7268ZM4.73508 23.0408L4.82508 23.3849L4.42009 23.3695L4.15011 23.2051L4.01511 22.6915L2.97516 22.0752L3.01016 22.0187L4.73508 23.0408ZM4.88007 22.9997L4.97507 23.39C5.03507 23.3952 5.09506 23.3952 5.15006 23.3952L5.46505 22.8405L5.43005 22.7172L5.10506 22.5939L4.88007 22.9997ZM5.35005 22.2857L5.37005 22.2549L5.34005 22.183L5.29005 22.2652L5.35005 22.2857ZM3.05515 18.187L3.61513 18.7674L3.47514 18.6544L3.41514 18.7366L2.90016 18.4284L2.79017 18.0329L3.05515 18.187ZM2.95016 18.6236L3.32514 18.8393L3.24515 18.9369L3.78012 19.4043L3.81512 19.5327L3.72013 19.466L3.66013 19.5533L3.11015 19.2245L2.99516 18.7931L2.30019 17.7761L2.35519 17.7453L2.95016 18.6236ZM3.16015 19.4146L3.58513 19.6663L3.51013 19.769L3.69013 19.8974C3.54513 19.8614 3.40014 19.8204 3.25515 19.7741L3.19515 19.5584L2.41518 18.6031L2.46518 18.562L3.16015 19.4146ZM2.68517 19.5944L2.54518 19.4505L2.59018 19.4095L2.81017 19.6354L2.68517 19.5944ZM4.56009 22.3885L4.68008 22.8353L3.93512 22.3936L3.82012 21.9519C4.2251 22.0238 4.06511 21.9622 4.45009 22.1882L4.40509 22.332L4.56009 22.3885ZM3.98511 19.5789L4.00011 19.62L4.01011 19.5944L3.98511 19.5789ZM4.12011 19.6868L4.09511 19.7279L4.2851 19.8666C4.2451 19.7793 4.2301 19.7844 4.12011 19.6868ZM4.73508 22.4552L4.82508 22.7942L4.96507 22.5426L4.73508 22.4552ZM5.15006 22.2138L5.21506 22.0957C5.06506 22.0906 4.92007 22.0803 4.78008 22.07L5.15006 22.2138ZM3.17015 22.3679L3.25015 22.6761L3.36014 22.4809L3.17015 22.3679ZM3.54013 22.1573L3.64513 21.9673L3.51513 21.9005C3.41514 21.8851 3.31514 21.8697 3.22015 21.8543L3.17015 21.9416L3.54013 22.1573ZM3.02516 21.8183L3.05016 21.8697L3.07515 21.8286C3.06015 21.8235 3.04016 21.8235 3.02516 21.8183ZM2.73517 19.2348L2.70017 19.3016L3.01016 19.62L3.02516 19.5892L2.73517 19.2348ZM2.35019 18.7623L2.26519 18.901L2.39018 19.3889L2.59018 19.1886L2.60018 19.1989L2.64517 19.1167L2.35019 18.7623ZM2.19019 17.884L2.0552 18.11L2.21519 18.7161L2.25519 18.6442L2.20519 18.5825C2.39518 18.4233 2.34519 18.4849 2.46018 18.2795L2.19019 17.884ZM1.91021 17.5245L2.0102 17.9251L2.1002 17.7556L2.0902 17.7402L2.1502 17.6734C2.0652 17.622 1.9852 17.5707 1.91021 17.5245ZM2.98516 22.2549L3.10515 22.7172L2.36019 22.2755L2.22519 21.7618L1.19524 21.1506L1.22524 21.0941L2.82017 22.0443L2.77017 22.1317L2.98516 22.2549ZM2.86016 21.7875L2.89016 21.9211L2.50518 21.6899C2.61517 21.7259 2.73517 21.7567 2.86016 21.7875ZM1.49022 19.2759L0.845254 18.4849L0.890252 18.4438L1.58522 19.2965L1.49022 19.2759ZM1.37523 18.5055L2.1202 18.9421L2.25519 19.4608C2.17519 19.4403 2.0952 19.4146 2.0202 19.394L1.53522 19.1064L1.42023 18.6801L0.730259 17.6631L0.780257 17.6272L1.37523 18.5055ZM1.17524 17.7145L1.91521 18.1511L2.0702 18.752L1.32523 18.3154L1.23524 17.9405L0.630263 16.8722L0.680261 16.8413L1.17524 17.7145ZM0.965248 16.9184V16.9235L0.690261 15.8654L0.750258 15.85L1.04025 16.9646L1.51522 17.2471C1.58022 17.2985 1.64522 17.3498 1.71521 17.396L1.86521 17.9559L1.12524 17.5193L0.965248 16.9184ZM1.22024 15.3416L1.07524 14.792L1.13524 14.7714L1.24524 15.2029L1.22024 15.3416ZM3.30514 22.8867L3.43014 23.3644C3.46014 23.3592 3.50013 23.3592 3.53513 23.3541L3.86012 22.7788L3.48514 22.558L3.30514 22.8867ZM3.71513 22.1522L3.67013 22.2344L3.75012 22.2806L3.71513 22.1522ZM3.16015 22.9278L3.27515 23.3746L3.08015 23.39L2.57518 23.087L2.44018 22.5734L1.40523 21.9622L1.43523 21.9057L3.16015 22.9278ZM6.485 22.8764L6.66999 23.2822L6.39001 23.313L5.94003 23.1435L5.71504 22.6607L4.60009 22.2395L4.62008 22.1779L6.485 22.8764ZM6.625 22.8148L6.82999 23.2668C6.86498 23.2616 6.89498 23.2616 6.92498 23.2565L7.16997 22.5528L6.95498 22.0649L7.35996 20.9144L7.30497 20.8938L6.625 22.8148ZM3.65013 18.0946L4.45509 18.3976L4.71008 18.9626L3.90512 18.6647L3.75012 18.3154L2.97516 17.3652L3.02016 17.3241L3.65013 18.0946ZM3.99011 18.8393L4.79508 19.1424L5.04507 19.7074L4.2401 19.4095L4.06511 19.0037L3.20515 18.1254L3.25015 18.0792L3.99011 18.8393ZM4.3251 19.5841L5.13006 19.8871L5.38505 20.447L4.58009 20.1491L4.3851 19.7176L3.45514 18.9164L3.49514 18.8701L4.3251 19.5841ZM4.66508 20.3288L5.47005 20.6267L5.72004 21.1969L4.91507 20.8938L4.71508 20.4418L3.72512 19.7279L3.76012 19.6765L4.66508 20.3288ZM5.00007 21.0736L5.80503 21.3715L6.06002 21.9416L5.25506 21.6386L5.04507 21.1712L3.99511 20.5446L4.02511 20.4932L5.00007 21.0736ZM6.14502 22.1162L6.39501 22.6812L5.59504 22.3782L5.37505 21.9005L4.2501 21.4742L4.2701 21.4177L6.14502 22.1162ZM4.89007 17.5039L4.59509 18.3308L4.85007 18.8958L5.14006 18.0689L4.98007 17.7248L4.77508 16.5023L4.71508 16.5126L4.89007 17.5039ZM5.22006 18.2487L4.92507 19.0756L5.18506 19.6406L5.48005 18.8136L5.30005 18.413L5.19006 17.1701L5.13006 17.1752L5.22006 18.2487ZM5.56004 18.9934L5.26506 19.8204L5.52504 20.3853L5.81503 19.5584L5.62004 19.127V17.884H5.56004V18.9934ZM5.89503 19.7382L5.60004 20.5651L5.86003 21.1301L6.15502 20.3032L5.95003 19.8512L6.05502 18.6185L5.99502 18.6133L5.89503 19.7382ZM6.23501 20.4829L5.94003 21.3047L6.20001 21.8748L6.49 21.0479L6.28001 20.5754L6.49 19.353L6.43 19.3427L6.23501 20.4829ZM6.28001 22.0495L6.535 22.6196L6.82999 21.7875L6.61 21.3047L7.01998 20.1542L6.95998 20.1285L6.28001 22.0495ZM1.9852 23.5338C2.55018 23.8317 3.06515 24.1194 3.54013 24.4019C3.66513 24.7563 3.81512 25.0028 4.00011 25.162L3.93512 25.2699C3.32514 24.7665 2.69517 24.2016 1.9852 23.5338ZM4.70008 25.4343C4.84507 25.4497 5.00007 25.4445 5.17506 25.4343C5.26006 25.4959 5.34505 25.5524 5.43005 25.614H5.00007L4.70008 25.4343ZM12.8847 27.1035L13.1047 27.951L13.5697 28.2284C13.4947 27.9099 13.4097 27.6172 13.2847 27.3398L13.0097 27.1754L12.3147 26.1533L12.2647 26.1893L12.8847 27.1035ZM12.1897 26.6926L12.4147 27.5452L12.9397 27.8534L12.7197 27.0008L12.3447 26.7851L12.1997 26.6053L12.1397 26.631L12.1897 26.6926ZM12.1797 27.1806L12.0448 26.6824C12.0048 26.7029 11.9598 26.7286 11.9098 26.7543L11.9298 26.9649L12.1797 27.1806ZM12.4097 28.2592L13.0297 28.0897L13.5547 28.403L12.7297 28.6239L12.4197 28.4081L12.4097 28.2592ZM12.3597 27.6942L12.8647 27.987L12.3947 28.1205L12.3597 27.6942ZM7.60495 26.5488H8.13993C7.99993 26.595 7.85994 26.6413 7.71995 26.6875L6.72999 26.102L6.75999 26.0455L7.60495 26.5488ZM7.35496 26.8056L7.19497 26.7337L7.21997 26.6772L7.43996 26.7799C7.40996 26.7902 7.37996 26.7954 7.35496 26.8056ZM9.29988 28.29H9.56986L9.57986 28.3927L10.1998 28.3362L10.5848 28.7266H10.0248C9.90485 28.706 9.79485 28.6906 9.67486 28.6752L9.38487 28.3773L9.17488 28.3208C9.26488 28.2746 9.23988 28.2746 9.29988 28.29ZM11.1648 29.8874H10.8548L10.8048 29.836C10.9248 29.8566 11.0398 29.872 11.1648 29.8874ZM9.99484 27.9048L10.0598 27.9716L10.1248 27.9664V27.8431L9.99484 27.9048ZM10.2648 27.7764V27.951L10.4648 27.9356L10.2698 27.7661C10.2698 27.7764 10.2648 27.7764 10.2648 27.7764ZM10.3998 28.3208L10.6898 28.6187V28.2951L10.3998 28.3208ZM10.8248 28.2797V28.7574L10.9648 28.9012C11.0648 28.9218 11.1598 28.9423 11.2548 28.9628V28.593L11.2098 28.5828L10.8548 28.2797H10.8248ZM11.8198 29.0964V28.8961L11.5248 28.593L11.3898 28.6084V28.9937C11.5298 29.0245 11.6748 29.0604 11.8198 29.0964ZM11.6948 27.9818L12.1547 28.3825L11.3048 28.4595L10.9048 28.1154L9.71986 28.2232L9.71486 28.1616L11.6948 27.9818ZM11.7898 27.8637L12.2547 28.2643L12.1797 27.386L11.7848 27.0419L11.6798 25.8195L11.6198 25.8246L11.7898 27.8637ZM7.15497 24.8795L8.00993 24.8025L8.46991 25.2083L7.61995 25.2853L7.33496 25.0388L6.24501 24.5097L6.27001 24.4584L7.15497 24.8795ZM7.76494 25.4086L8.61991 25.3315L9.08489 25.7322L8.23492 25.8092L7.89994 25.5267L6.76499 25.1004L6.78499 25.0439L7.76494 25.4086ZM8.38492 25.9376L9.22988 25.8606L9.69986 26.2561L8.8449 26.3331L8.48491 26.0301L7.31996 25.7065L7.33496 25.65L8.38492 25.9376ZM8.99489 26.4615L9.84485 26.3845L10.3098 26.7902L9.45487 26.8673L9.08489 26.5437L7.89494 26.328L7.90494 26.2663L8.99489 26.4615ZM9.60486 26.9905L10.4548 26.9186L10.9198 27.3141L10.0648 27.3912L9.68486 27.0573L8.47491 26.9546L8.47991 26.8929L9.60486 26.9905ZM11.0698 27.4425L11.5298 27.838L10.6748 27.9202L10.2798 27.5761L9.09488 27.6839L9.08988 27.6223L11.0698 27.4425ZM8.02993 23.8061L8.10493 24.6844L8.56991 25.085L8.49491 24.2067L8.20992 23.9602L7.51996 22.9483L7.46996 22.9843L8.02993 23.8061ZM8.64491 24.3351L8.7199 25.2134L9.17988 25.614L9.10988 24.7357L8.7799 24.4532L8.17493 23.3746L8.11993 23.4054L8.64491 24.3351ZM9.25488 24.8641L9.32987 25.7424L9.79485 26.1379L9.71986 25.2648L9.36487 24.9566L8.8549 23.8266L8.7999 23.8523L9.25488 24.8641ZM9.86985 25.388L9.93985 26.2663L10.4048 26.667L10.3298 25.7938L9.95985 25.4702L9.54486 24.3094L9.48987 24.33L9.86985 25.388ZM10.4798 25.9222L10.5548 26.7954L11.0198 27.196L10.9448 26.3177L10.5598 25.989L10.2448 24.782L10.1848 24.8025L10.4798 25.9222ZM11.1648 27.3244L11.6298 27.725L11.5548 26.8467L11.1548 26.5026L11.0548 25.2802L10.9898 25.2853L11.1648 27.3244ZM12.9647 29.9233C10.5948 29.7436 8.90989 29.384 6.34001 28.5468C9.11988 28.6649 10.8448 28.9269 13.2497 29.646L13.1397 29.7641L10.7348 29.2762L9.29488 29.0296L10.8548 29.3481L13.0697 29.836C13.0347 29.8771 13.0097 29.8874 12.9647 29.9233ZM11.1298 32.0138L10.7998 31.8545L11.2948 31.1406L10.7298 31.8237L10.3948 31.6645L11.0598 30.8581L10.3098 31.6234L9.94985 31.4539L10.8198 30.5654L9.84985 31.4026L9.47987 31.2228L10.5848 30.2726L9.34487 31.1612L8.96489 30.9814L10.3498 29.985L8.7999 30.9043L8.39992 30.7092L10.0848 29.7127L10.5498 29.7949L10.7898 30.0466C11.5648 30.0466 11.9698 29.9952 12.4947 30.0415L11.1298 32.0138ZM10.0798 29.7076L8.20492 30.6167L7.78494 30.4164L9.33487 29.6665H9.85985C9.92985 29.6819 10.0048 29.6973 10.0798 29.7076ZM11.8298 28.6855L12.2797 28.5468L12.8697 28.8858L13.1047 28.7625L13.5297 29.0296L13.2647 28.7369L13.4997 28.5776L13.4247 28.7214L13.6047 28.932L13.5597 29.1118L13.2197 28.968L13.0897 29.0656L13.4497 29.3892L12.1747 28.6649L13.3947 29.4662L13.3247 29.5689L12.4197 29.2094L12.0248 28.9218L11.8298 28.6855ZM4.95507 25.7732H5.81503L6.24501 26.2098H5.39005L5.12506 25.9427L4.08511 25.3213L4.11511 25.2699L4.95507 25.7732ZM5.52504 26.3485H6.38001L6.80999 26.7902H5.95003L5.64504 26.4769L4.55009 25.953L4.57509 25.8965L5.52504 26.3485ZM6.09002 26.9289H6.94498L6.95998 26.9443L6.35501 27.2063L6.19001 27.0316L5.05007 26.6105L5.07007 26.5488L6.09002 26.9289ZM5.92503 25.3623V25.6602L6.35001 26.102V25.3161C6.34501 25.3161 6.34501 25.3161 6.34501 25.3213L6.13502 25.3367V25.3418L5.92503 25.3623ZM6.485 25.3572V26.2406L6.91998 26.6824V26.3896L6.52 26.1533L6.70499 25.8349L6.91998 25.9582V25.7989L6.61 25.4856L6.525 25.3007C6.505 25.3007 6.485 25.311 6.465 25.311L6.485 25.3572ZM7.04998 25.9427V26.0403L7.27997 26.1739L7.14997 26.0455L6.89498 25.311L6.81999 25.2853L7.04998 25.9427ZM7.04998 26.4718V26.6824L7.12497 26.518L7.04998 26.4718ZM7.06998 26.8467C7.11997 26.8878 7.11497 26.8929 7.14497 26.8775L7.06998 26.8467ZM7.64495 26.3896L7.52495 25.9273L7.45496 25.9068L7.57495 26.3485L7.64495 26.3896ZM9.17488 28.5828V28.48C8.87489 28.3927 9.02989 28.3979 8.7449 28.5057V28.5109L9.17488 28.5828Z" fill="#FBDD73"/>
<path d="M16.1043 3.31763L16.5493 3.80557L17.2593 3.71825L16.7693 3.18409L16.1243 3.25599L15.5643 3.05054L15.4744 3.0865L16.1043 3.31763ZM15.0244 2.85023L14.9944 2.83996L14.9844 2.86564L15.0244 2.85023ZM16.2793 1.05769L16.6793 1.58158L17.3993 1.56617L16.9543 0.980642L16.3043 1.00119L15.2144 0.482427L15.1894 0.538925L16.2793 1.05769ZM17.2743 0.739239V0.744375L16.3143 0.276978L16.2893 0.333476L17.3043 0.821418L17.5693 1.56617L18.1142 1.82812L17.8192 1.00119L17.2743 0.739239ZM17.9992 1.08337L18.2942 1.9103L18.8392 2.17738L18.5442 1.35045L18.2092 1.18609L17.2843 0.389975L17.2493 0.441337L17.9992 1.08337ZM18.7192 1.43263L19.0142 2.25956L19.5642 2.52151L19.2692 1.69458L18.8842 1.50967L18.0242 0.631378L17.9792 0.672468L18.7192 1.43263ZM19.4442 1.77676L19.7392 2.60369L20.0741 2.76805L19.9941 2.04384L19.5742 1.83839L18.7942 0.883053L18.7492 0.924143L19.4442 1.77676ZM19.9941 1.76649L19.5842 1.16041L19.5342 1.19636L19.9941 1.87435V1.76649ZM20.6341 1.89489L20.3841 1.4429L20.3291 1.47372L20.5541 1.86921C20.5841 1.87948 20.6041 1.88462 20.6341 1.89489ZM21.5941 2.58315C21.5091 2.33147 21.5541 2.39311 21.4241 2.29038L21.5241 2.56774L21.5941 2.58315ZM21.3091 1.76649L21.2891 1.69971L21.2291 1.7254L21.2641 1.82298L21.3091 1.76649ZM16.6993 2.00789L15.7343 1.55076L15.7643 1.49427L16.7793 1.97707L17.5043 1.70485L18.0492 1.97194L17.2443 2.27497L16.6993 2.00789ZM17.4243 2.35715L18.2292 2.05411L18.7742 2.3212L17.9692 2.6191L17.6343 2.45474L16.4443 2.24416L16.4543 2.18252L17.4243 2.35715ZM18.1442 2.70128L18.9492 2.40338L19.4992 2.66533L18.6942 2.96836L18.3092 2.77832L17.0993 2.67046L17.1043 2.60883L18.1442 2.70128ZM18.8692 3.05054L19.6742 2.74751L20.0991 2.95296C20.1041 2.98891 20.1091 3.01973 20.1091 3.05568L19.4192 3.30736L18.9992 3.11218H17.7842V3.05054H18.8692ZM19.5942 3.39467L20.1241 3.1995L20.1391 3.65662L19.7042 3.44603L18.4992 3.5539L18.4942 3.49226L19.5942 3.39467ZM20.1341 3.84152L19.5392 3.94939L19.4692 3.89802L20.1341 3.77475C20.1341 3.7953 20.1341 3.81584 20.1341 3.84152ZM19.3092 3.99048L19.2142 4.00588L19.2042 3.94425L19.3592 3.91857L19.3092 3.99048ZM17.0643 2.91187L16.0693 2.53692L16.0493 2.59856L17.1043 2.99405L17.4293 3.70798L17.9992 3.9237L17.7043 3.26627H17.6393V3.12759L17.0643 2.91187ZM17.8492 3.26627L18.1792 3.99048L18.7492 4.20106L18.5242 3.71312L18.3642 3.72853L18.3342 3.3844L18.0242 3.26627H17.8492ZM17.6393 2.98377C17.4343 2.83996 17.5093 2.86564 17.3393 2.85023L17.6393 3.06082V2.98377ZM18.6692 3.69771L18.9292 4.26783L19.4992 4.48355C19.3992 4.2627 19.4592 4.34488 19.2092 4.15997L19.0992 4.18052L19.0342 3.81584L19.1842 3.79016C19.1092 3.62067 19.1442 3.65662 18.6692 3.69771ZM18.5042 3.33304C18.3992 3.25086 18.4492 3.26627 18.3292 3.26627C18.4242 3.34845 18.3992 3.35872 18.5042 3.33304ZM19.3192 3.75421V3.76448L19.3992 3.74907L19.2942 3.64121L19.2142 3.64635L19.3192 3.75421ZM19.6492 4.47842L19.6792 4.55032L19.8242 4.60682L19.6492 4.47842ZM20.0341 4.29865L19.9141 4.0367L19.7192 4.06752L20.0341 4.29865ZM18.9592 3.29195C18.9192 3.26113 18.9442 3.26627 18.8442 3.26627L18.8792 3.30222L18.9592 3.29195ZM20.0691 4.0367L20.1291 4.17024C20.1291 4.07779 20.1491 4.0367 20.1191 4.00075L20.0491 4.01616L20.0691 4.0367ZM19.7492 3.64121L19.7842 3.6823L19.8192 3.67716L19.7492 3.64121ZM16.5993 4.22674H16.6043L15.6043 3.85693L15.6243 3.7953L16.6793 4.18565L17.3793 3.85693L17.9442 4.06752L17.1693 4.43733L16.5993 4.22674ZM17.3493 4.50923L18.1292 4.13429L18.6942 4.35001L17.9192 4.71982L17.5743 4.59141L16.3693 4.48355L16.3743 4.42192L17.3493 4.50923ZM18.0992 4.79173L18.8792 4.41678L19.4442 4.6325L18.6692 4.99718L18.2692 4.84823H17.0543V4.79173H18.0992ZM18.8542 5.06908L19.6292 4.69928L20.1791 4.89959C20.1841 4.90473 20.1841 4.90986 20.1841 4.915L19.9141 5.0434L19.7742 4.93554L19.5992 5.19749L19.4192 5.27967L18.9842 5.12045L17.7792 5.22831L17.7692 5.16667L18.8542 5.06908ZM19.6042 5.35158L19.6692 5.32076L19.8292 5.43376L19.7192 5.39267L18.5242 5.60839L18.5142 5.54675L19.6042 5.35158ZM20.0441 5.13586L20.2291 5.04854C20.2841 5.16667 20.3641 5.25913 20.4891 5.33103L20.5241 5.3978L20.4541 5.42862L20.0441 5.13586ZM20.2341 5.72652L19.2792 5.98847L19.2642 5.92684L20.1691 5.68543L20.2341 5.72652ZM20.5391 6.25042L20.0991 6.461L20.0741 6.40451L20.4591 6.2196L20.5391 6.25042ZM21.5141 3.3279L22.084 3.47172L21.8041 2.79373L21.4941 2.71669C21.5191 2.89646 21.5191 3.10191 21.5141 3.3279ZM22.169 2.64478L21.3591 1.94625L21.3191 1.99248L22.179 2.7321L22.244 3.51794L22.714 3.9237L22.639 3.04541L22.169 2.64478ZM22.784 3.17381L22.859 4.04697L23.134 4.28324C23.164 4.05725 23.199 3.82098 23.249 3.58985V3.5693L22.964 3.32276L22.269 2.31093L22.219 2.34688L22.784 3.17381ZM23.299 3.39981L22.924 2.73723L22.869 2.76805L23.274 3.48199L23.299 3.39981ZM24.5039 5.46457L24.5439 5.50566L24.5339 5.35158C24.5239 5.38753 24.5139 5.42862 24.5039 5.46457ZM24.6339 4.89445L24.6939 5.63407L25.1589 6.02956L25.1139 5.52621C25.0389 5.35158 24.9639 5.17181 24.8989 4.99204L24.6439 4.77632C24.6439 4.81741 24.6389 4.8585 24.6339 4.89445ZM25.2839 5.91656L25.3039 6.15797C25.3589 6.18878 25.4039 6.24015 25.4539 6.28637L25.2839 5.91656ZM25.8239 4.86877L25.8039 4.64278L25.7439 4.64791C25.7539 4.75577 25.7489 4.73009 25.8239 4.86877ZM21.5091 3.69771L22.149 3.64121L22.614 4.04184L21.7591 4.11374L21.5091 3.90316V3.69771ZM21.9091 4.24215L22.759 4.16511L23.109 4.46814C23.109 4.5041 23.104 4.54519 23.099 4.58114L22.374 4.64791C22.284 4.56573 22.274 4.57087 22.219 4.49383L22.209 4.5041L22.084 4.39624L21.4941 4.11374C21.4991 4.0932 21.4991 4.06752 21.4991 4.04697L21.9091 4.24215ZM22.519 4.77632L23.079 4.72496C23.064 4.82768 23.049 4.92527 23.029 5.02286L22.954 4.88932L22.779 4.99204L22.659 4.88418L22.434 4.80714L22.369 4.71982L22.519 4.77632ZM22.0141 4.64791C21.8791 4.60169 21.9241 4.63764 21.8341 4.51437L22.069 4.60682L22.0141 4.64791ZM22.739 5.25399L22.689 5.17695H22.699L22.739 5.25399ZM24.4689 5.75734L24.5939 5.74707L25.0589 6.15283L24.6189 6.18878L24.4689 5.75734ZM24.6689 6.32746L24.9839 6.29664L25.0589 6.73322L24.8189 6.75377L24.6689 6.32746ZM25.3789 6.42505L25.6139 6.62536C25.6189 6.64591 25.6289 6.66132 25.6389 6.68186L25.4289 6.69727L25.3789 6.42505ZM24.3089 6.41478L24.229 6.40964C24.2339 6.3891 24.2439 6.36855 24.2489 6.34801H24.2889L24.3089 6.41478ZM25.5489 7.27253L25.5239 7.27767L25.4489 6.83595L25.7039 6.8154C25.7139 6.84109 25.7289 6.86163 25.7389 6.88731L25.5489 7.27253ZM25.1089 7.00545L25.0289 6.93867L24.8889 6.95408L24.8689 6.89245L25.0839 6.8719L25.1089 7.00545ZM21.3641 5.51594L21.4091 5.52107L21.3641 5.43889V5.51594ZM20.1341 4.56573L19.4442 4.06238L19.4092 4.11374L20.1391 4.64791C20.1391 4.6171 20.1391 4.59141 20.1341 4.56573ZM21.4191 4.76605L21.4391 4.77632L21.5741 5.55703L22.069 5.91143L21.9241 5.0434L21.4291 4.69414C21.4291 4.71468 21.4241 4.74037 21.4191 4.76605ZM22.079 5.1564L22.229 6.02442L22.689 6.35828C22.694 6.32746 22.699 6.30178 22.709 6.2761L22.579 5.51594L22.269 5.29508L21.4941 4.34488L21.4691 4.36542C21.4691 4.38083 21.4691 4.39624 21.4641 4.40651L22.079 5.1564ZM22.734 5.62893L22.789 5.95765L22.859 5.70084L22.184 4.71468L22.134 4.75064L22.734 5.62893ZM23.909 7.23658L24.034 7.32389L23.984 7.0414C23.959 7.10303 23.934 7.1698 23.909 7.23658ZM22.979 5.25399L22.899 5.10504L22.844 5.13586L22.959 5.33617L22.979 5.25399ZM24.084 6.8L24.189 7.43689L24.6889 7.79643L24.5389 6.9284L24.144 6.64077C24.124 6.69213 24.104 6.74863 24.084 6.8ZM24.6989 7.0414L24.8439 7.90942L25.0839 8.08405L25.2639 7.8067L25.1889 7.3958L24.7839 7.10303L24.3689 5.93711L24.3389 6.04497L24.6989 7.0414ZM25.4139 7.52934L25.2139 6.35314L25.1539 6.36342L25.3689 7.61666C25.3839 7.58584 25.3989 7.55502 25.4139 7.52934ZM20.6441 5.83438L19.7792 5.20776L19.8142 5.1564L20.7291 5.81897L21.3391 5.70598L21.3641 5.72139V5.70084L21.4841 5.68543L21.9841 6.03983L21.1391 6.19392L20.6441 5.83438ZM21.2991 6.30692L22.139 6.15283L22.639 6.50723L21.7941 6.66132L21.4891 6.4456L20.3591 6.01929L20.3791 5.95765L21.2991 6.30692ZM21.9541 6.77431L22.629 6.65104C22.609 6.82054 22.609 6.96949 22.644 7.0979L22.449 7.13385L22.094 6.88218L20.9291 6.55346L20.9441 6.49696L21.9541 6.77431ZM22.609 7.24685L22.699 7.23144C22.734 7.29821 22.779 7.35985 22.844 7.41634L22.724 7.33416L21.5291 7.11331L21.5391 7.05167L22.609 7.24685ZM23.849 7.38039L23.944 7.44716L23.819 7.47284C23.829 7.44202 23.839 7.41121 23.849 7.38039ZM23.259 7.71938L23.279 7.71425C23.334 7.7502 23.384 7.79643 23.434 7.84265L23.359 7.79129L22.154 7.67829L22.159 7.61666L23.259 7.71938ZM23.769 7.62693L24.104 7.56529L24.5989 7.92483L23.754 8.07892L23.664 8.00701L23.769 7.62693ZM23.919 8.18678L24.7589 8.03783L24.9989 8.20732C24.9289 8.30491 24.8739 8.39223 24.8189 8.46927L24.4089 8.54632L23.999 8.24841H23.979L23.954 8.18164L23.784 8.24841H22.789V8.18678H23.919ZM24.6439 8.71581L24.6389 8.71068L24.174 8.79799L24.149 8.73636L24.7039 8.63363C24.6839 8.66445 24.6639 8.69013 24.6439 8.71581ZM23.809 8.85963L23.459 8.9264L23.454 8.86476L23.784 8.80313L23.809 8.85963ZM27.6588 8.14055L28.0438 8.67986L27.8388 9.38866L27.4138 8.79799L27.5988 8.15083L27.3888 6.93867L27.4488 6.9284L27.6588 8.14055ZM27.0788 8.9264L26.9188 7.97619L26.9788 7.96592L27.1388 8.91099L27.0788 8.9264ZM27.2038 9.12157L27.7988 9.55815L27.9038 10.1694L27.7388 10.0461V9.77901H27.3738L27.2038 9.12157ZM27.7388 10.2156L27.8788 10.3183C27.8288 10.38 27.7838 10.4416 27.7388 10.5032V10.2156ZM27.2838 10.6214L27.2538 10.57L27.2638 10.5546L27.2838 10.6214ZM28.4138 13.1227L28.4588 13.3641L28.4488 13.3898L28.3638 13.3281L28.4138 13.1227ZM28.3438 13.4874L28.3988 13.5285L28.3738 13.6004L28.3638 13.5644L28.3888 13.5233L28.3438 13.4925V13.4874ZM28.5788 14.0934L28.5987 14.2064L28.5488 14.1756L28.5788 14.0934ZM28.6337 14.4068C28.6437 14.4581 28.6437 14.4376 28.6087 14.5043L28.5688 14.3605L28.6337 14.4068ZM28.4438 8.80826L28.2588 7.73479L28.1988 7.74506L28.3938 8.88017L27.9488 9.52734L28.0538 10.118C28.0788 10.082 28.1088 10.0512 28.1388 10.0204L28.5438 9.41948L28.4438 8.80826ZM28.5788 9.61465L28.4488 9.81497C28.4988 10.0512 28.5088 10.118 28.6087 10.344L28.6837 10.2259L28.6187 9.85092L28.7237 8.61822L28.6637 8.61309L28.5788 9.61465ZM28.7187 10.4262L28.6787 10.4827C28.7037 10.534 28.7287 10.5803 28.7537 10.6214L28.7487 10.6008L28.9587 9.37839L28.8987 9.36298L28.7187 10.4262ZM28.9737 11.0374L29.1937 10.1745L29.1387 10.1591L28.9337 10.9501C28.9437 10.9758 28.9587 11.0066 28.9737 11.0374ZM28.5088 12.7888L28.5588 13.0662L28.6437 12.8299L28.9137 12.9327L29.1037 12.6502L29.0187 12.1622L29.4287 10.9963L29.3737 10.9758L29.1137 11.7154C29.0837 12.1006 28.8537 12.419 28.5088 12.7888ZM29.1337 12.8505L28.9037 13.1895L28.6837 13.8058L28.7487 14.1808C28.9387 13.9034 28.9337 13.9291 29.0687 13.6877L29.0837 13.698L29.2387 13.4617L29.1537 12.9583L29.6637 11.8232L29.6087 11.7976L29.1337 12.8505ZM29.1287 14.643L29.3787 14.2681L29.3237 13.965L28.8587 14.7971L29.1287 14.643ZM29.3037 13.8264L29.2887 13.7442L29.9737 12.7375L29.9237 12.7015L29.1987 13.7647L29.3037 13.8264ZM24.054 2.06952C24.5889 3.81584 25.1339 5.35158 25.8289 6.71782C25.8839 6.61509 25.9439 6.51237 26.0089 6.41478L25.3789 4.93041L26.0789 6.30178L26.2239 6.08606C25.6939 4.84309 24.9389 3.48712 24.054 2.06952ZM25.8589 8.96749L26.2489 9.50679L26.0439 10.2105L25.6139 9.61979L25.7989 8.97776L25.5939 7.76561L25.6489 7.75534L25.8589 8.96749ZM26.3889 9.73792L26.4188 9.5787C26.4388 9.6917 26.4488 9.65061 26.3889 9.73792ZM26.4138 9.56329L26.4039 9.50165L26.4138 9.56329ZM26.3789 9.42975L26.1139 8.38196L26.1689 8.36655L26.2989 8.85963L26.3939 9.45029L26.3789 9.42975ZM27.6838 14.5608L27.7288 14.7252L27.6688 14.6893C27.6488 14.5865 27.6438 14.6173 27.6838 14.5608ZM27.6988 14.869L27.7738 14.9152L27.9238 15.4956C27.9188 15.4956 27.9138 15.5008 27.9088 15.5008L27.6088 15.3261L27.7088 15.1823L27.7338 15.0642L27.6988 14.869ZM27.4188 15.8809L27.3988 15.8706L27.3538 15.7011L27.5338 15.4443L27.7938 15.5984L27.4188 15.8809ZM27.2938 10.0666L27.0938 9.30134L27.0788 9.48625L27.2288 10.0512L27.2938 10.0666ZM27.0938 9.30134L27.0388 9.09589L26.9838 9.1113L27.0288 9.29621L27.0938 9.30134ZM27.4238 10.8422L27.4738 10.7498L27.3238 10.1745L27.1788 10.9912L27.2338 10.7908L27.4238 10.8422ZM27.5838 10.6984V9.9331H27.5238V10.7806C27.5438 10.7549 27.5638 10.7241 27.5838 10.6984ZM27.6138 13.6877L27.6688 13.888L27.9988 13.2973L27.6138 13.6877ZM28.1438 13.323L28.1338 13.3384L28.1888 13.3795L28.2888 13.0148C28.1688 13.133 28.2138 13.0611 28.1438 13.323ZM27.7938 14.3965L27.8688 14.6893L28.2988 13.9188L28.2488 13.7288L27.7938 14.3965ZM28.3488 14.114L27.9188 14.8742L28.0538 15.3929H28.0588C28.0588 15.3878 28.0588 15.3878 28.0588 15.3878C28.0638 15.3878 28.0638 15.3878 28.0638 15.3878C28.0638 15.3878 28.0638 15.3878 28.0638 15.3826C28.1038 15.3518 28.1438 15.321 28.1838 15.2902L28.5038 14.7149L28.3788 14.2167L28.7887 13.0457L28.7337 13.0251L28.3488 14.114ZM28.5788 14.9923L29.1737 13.9291L29.1237 13.8931L28.4588 15.0796C28.4988 15.0488 28.5388 15.018 28.5788 14.9923ZM25.3039 9.87146L25.1189 8.80313L25.1789 8.79285L25.3739 9.92283L26.0039 10.38L26.1089 10.9912L25.4089 10.4878L25.3039 9.87146ZM25.4439 10.6779L26.1439 11.1863L26.2489 11.8027L25.5489 11.2993L25.4839 10.9193L24.9739 9.79442L25.0289 9.77388L25.4439 10.6779ZM25.5839 11.4894L26.2839 11.9979L26.3839 12.6091L25.6839 12.1057L25.6089 11.6691L25.0039 10.5957L25.0589 10.5649L25.5839 11.4894ZM25.7189 12.2958L26.4188 12.8043L26.5238 13.4155L25.8239 12.9121L25.7439 12.4396L25.0489 11.4226L25.0989 11.3918L25.7189 12.2958ZM25.8589 13.1073L26.5588 13.6106L26.6638 14.227L25.9639 13.7236L25.8789 13.2306L25.1039 12.2752L25.1489 12.2393L25.8589 13.1073ZM25.9989 13.9137L26.6988 14.4222L26.8038 15.0334L26.1039 14.53L26.0139 14.0215L25.1589 13.1381L25.1989 13.097L25.9989 13.9137ZM26.8388 15.2286L26.9438 15.8398L26.2439 15.3364L26.1539 14.8074L25.1739 14.1037L25.2089 14.0524L26.8388 15.2286ZM26.6438 9.63006V9.6352L26.4588 8.55659L26.3989 8.56686L26.5938 9.7071L26.1539 10.3543L26.2639 10.9655L26.7488 10.2464L26.6438 9.63006ZM26.7838 10.4416L26.2939 11.1607L26.3939 11.7719L26.8888 11.0528L26.8238 10.6727L26.9338 9.44516L26.8688 9.43488L26.7838 10.4416ZM26.9238 11.248L26.4288 11.967L26.5338 12.5834L27.0288 11.8592L26.9538 11.4226L27.1638 10.2002L27.1038 10.1899L26.9238 11.248ZM27.0588 12.0595L26.5688 12.7786L26.6738 13.3898L27.1638 12.6707L27.0838 12.2033L27.3988 10.9963L27.3388 10.9809L27.0588 12.0595ZM27.1988 12.8659L26.7088 13.585L26.8138 14.1962L27.3038 13.4771L27.2188 12.9892L27.6338 11.8232L27.5788 11.7976L27.1988 12.8659ZM27.3388 13.6774L26.8488 14.3965L26.9538 15.0077L27.4438 14.2835L27.3588 13.7801L27.8688 12.6502L27.8138 12.6245L27.3388 13.6774ZM26.9888 15.2029L27.0888 15.8141L27.5838 15.095L27.4938 14.5711L28.1788 13.5644L28.1288 13.5285L26.9888 15.2029ZM24.179 9.47084L23.809 8.40764L23.864 8.38196L24.219 9.38866C24.204 9.41434 24.194 9.44516 24.179 9.47084ZM23.879 10.5392L23.514 9.51193L23.569 9.49138L23.959 10.57L24.6239 10.8936C24.6589 10.9295 24.8389 11.4329 24.8639 11.4894L24.084 11.1196L23.879 10.5392ZM24.154 11.3096L24.9239 11.6794L25.0739 12.1006L24.9739 12.1879L24.3539 11.89L24.229 11.5305L23.539 10.5186L23.589 10.4827L24.154 11.3096ZM24.4239 12.08L24.9439 12.3266L25.3189 12.7837L25.4089 13.0354C25.2739 12.9686 25.3239 13.0046 25.1989 12.8762L25.1639 12.9173L24.6539 12.6707C24.5889 12.6193 24.5239 12.3112 24.4839 12.2444L23.704 11.2993L23.754 11.2582L24.4239 12.08ZM24.8339 12.9173L25.0589 13.0251L24.9739 13.1073L24.8339 12.9173ZM25.2289 13.436C25.2289 13.436 25.2289 13.436 25.2289 13.4411L25.1989 13.4001L25.2289 13.436ZM24.2639 13.0919L24.089 12.9429L24.129 12.8916C24.2389 12.9943 24.204 12.9429 24.2639 13.0919ZM24.6439 14.037L24.2839 13.7801L24.3189 13.7288L24.6039 13.9291L24.6439 14.037ZM25.0289 14.9974L24.4639 14.7252L24.4889 14.6738L24.9939 14.9101L25.0289 14.9974ZM24.9939 10.8884L24.8739 11.0682L24.9539 11.3045L25.1189 11.1812L25.1389 11.1401L24.9939 10.8884ZM25.2239 11.2891L25.2189 11.2942L25.2539 11.3404L25.2239 11.2891ZM25.1389 11.8284C25.1939 11.9876 25.1989 12.0646 25.2939 12.1776L25.3289 12.1006L25.1389 11.8284ZM25.4189 12.2341L25.3889 12.2906L25.6089 12.5629L25.6039 12.5064L25.4189 12.2341ZM25.5289 14.0934L24.029 12.1006C24.7139 13.8007 24.9739 15.1823 26.0989 16.6821L26.4138 16.4972L25.7839 15.2748L26.5638 16.4099C26.6538 16.3585 26.7488 16.302 26.8638 16.2455L26.8338 16.0863L26.1639 15.6703L26.0139 14.8998L24.9589 14.1448L25.1689 13.8418L25.5289 14.0934ZM29.8937 15.7268L30.0987 14.1448L29.4087 15.85C29.4537 16.0504 29.4687 16.225 29.4537 16.3791L29.6437 15.66L29.8937 15.7268ZM25.7689 23.0408L25.6789 23.3849L26.0839 23.3695L26.3539 23.2051L26.4888 22.6915L27.5238 22.0752L27.4938 22.0187L25.7689 23.0408ZM25.6239 22.9997L25.5239 23.39C25.4689 23.3952 25.4089 23.3952 25.3489 23.3952L25.0389 22.8405L25.0689 22.7172L25.3939 22.5939L25.6239 22.9997ZM25.1539 22.2857L25.1339 22.2549L25.1639 22.183L25.2089 22.2652L25.1539 22.2857ZM27.4488 18.187L26.8838 18.7674L27.0288 18.6544L27.0888 18.7366L27.6038 18.4284L27.7138 18.0329L27.4488 18.187ZM27.5538 18.6236L27.1788 18.8393L27.2588 18.9369L26.7188 19.4043L26.6888 19.5327L26.7788 19.466L26.8388 19.5533L27.3938 19.2245L27.5038 18.7931L28.1988 17.7761L28.1488 17.7453L27.5538 18.6236ZM27.3438 19.4146L26.9188 19.6663L26.9888 19.769L26.8088 19.8974C26.9588 19.8614 27.0988 19.8204 27.2488 19.7741L27.3038 19.5584L28.0838 18.6031L28.0388 18.562L27.3438 19.4146ZM27.8138 19.5944L27.9588 19.4505L27.9138 19.4095L27.6938 19.6354L27.8138 19.5944ZM25.9389 22.3885L25.8239 22.8353L26.5638 22.3936L26.6838 21.9519C26.2789 22.0238 26.4388 21.9673 26.0489 22.1882L26.0989 22.332L25.9389 22.3885ZM26.5188 19.5789L26.5038 19.62L26.4888 19.5944L26.5188 19.5789ZM26.3839 19.6868L26.4088 19.7279L26.2189 19.8666C26.2589 19.7793 26.2739 19.7844 26.3839 19.6868ZM25.7639 22.4552L25.6789 22.7942L25.5389 22.5426L25.7639 22.4552ZM25.3539 22.2138L25.2889 22.0957C25.4339 22.0906 25.5839 22.0803 25.7239 22.07L25.3539 22.2138ZM27.3338 22.3679L27.2538 22.6761L27.1388 22.4809L27.3338 22.3679ZM26.9638 22.1573L26.8538 21.9673L26.9888 21.9005C27.0888 21.8851 27.1888 21.8697 27.2838 21.8543L27.3338 21.9416L26.9638 22.1573ZM27.4788 21.8183L27.4688 21.8594L27.4488 21.8697L27.4288 21.8286C27.4438 21.8235 27.4588 21.8235 27.4788 21.8183ZM27.7638 19.2348L27.8038 19.3016L27.4938 19.62L27.4738 19.5892L27.7638 19.2348ZM28.1538 18.7623L28.2388 18.901L28.1088 19.3889L27.9138 19.1886L27.9038 19.1989L27.8588 19.1167L28.1538 18.7623ZM28.3138 17.884L28.4438 18.11L28.2888 18.7161L28.2488 18.6442L28.2988 18.5825C28.1038 18.4182 28.1588 18.4901 28.0438 18.2795L28.3138 17.884ZM28.5938 17.5245L28.4888 17.9251L28.4038 17.7556L28.4138 17.7402L28.3538 17.6734C28.4388 17.622 28.5188 17.5707 28.5938 17.5245ZM27.5188 22.2549L27.3988 22.7172L28.1388 22.2755L28.2738 21.7618L29.3087 21.1506L29.2787 21.0941L27.6838 22.0443L27.7338 22.1317L27.5188 22.2549ZM27.6438 21.7875L27.6088 21.9159L27.6138 21.9211L27.9988 21.6899C27.8838 21.7259 27.7688 21.7567 27.6438 21.7875ZM29.0137 19.2759L29.6587 18.4849L29.6137 18.4438L28.9187 19.2965L29.0137 19.2759ZM29.1237 18.5055L28.3838 18.9421L28.2488 19.4608C28.3288 19.4403 28.4038 19.4146 28.4788 19.394L28.9687 19.1064L29.0787 18.6801L29.7737 17.6631L29.7237 17.6272L29.1237 18.5055ZM29.3287 17.7145L28.5887 18.1511L28.4338 18.752L29.1737 18.3154L29.2687 17.9405L29.8737 16.8722L29.8237 16.8413L29.3287 17.7145ZM29.5387 16.9184L29.5337 16.9235L29.8137 15.8654L29.7537 15.85L29.4587 16.9646L28.9887 17.2471C28.9237 17.2985 28.8587 17.3498 28.7837 17.396L28.6387 17.9559L29.3787 17.5193L29.5387 16.9184ZM29.2837 15.3416L29.4237 14.792L29.3687 14.7714L29.2537 15.2029L29.2837 15.3416ZM27.1938 22.8867L27.0738 23.3644C27.0388 23.3592 27.0038 23.3592 26.9688 23.3541L26.6438 22.7788L27.0138 22.558L27.1938 22.8867ZM26.7888 22.1522L26.8338 22.2344L26.7538 22.2806L26.7888 22.1522ZM27.3438 22.9278L27.2288 23.3746L27.4188 23.39L27.9288 23.087L28.0638 22.5734L29.0987 21.9622L29.0687 21.9057L27.3438 22.9278ZM24.014 22.8764L23.834 23.2822L24.114 23.313L24.5639 23.1435L24.7839 22.6607L25.9039 22.2395L25.8839 22.1779L24.014 22.8764ZM23.879 22.8148L23.669 23.2668C23.639 23.2616 23.609 23.2616 23.579 23.2565L23.329 22.5528L23.544 22.0649L23.139 20.9144L23.199 20.8938L23.879 22.8148ZM26.8538 18.0946L26.0489 18.3976L25.7889 18.9626L26.5938 18.6647L26.7538 18.3154L27.5288 17.3652L27.4838 17.3241L26.8538 18.0946ZM26.5138 18.8393L25.7089 19.1424L25.4539 19.7074L26.2589 19.4095L26.4388 19.0037L27.2938 18.1254L27.2538 18.0792L26.5138 18.8393ZM26.1789 19.5841L25.3739 19.8871L25.1139 20.447L25.9189 20.1491L26.1189 19.7176L27.0438 18.9164L27.0088 18.8701L26.1789 19.5841ZM25.8389 20.3288L25.0339 20.6267L24.7789 21.1969L25.5839 20.8938L25.7889 20.4418L26.7788 19.7279L26.7438 19.6765L25.8389 20.3288ZM25.5039 21.0736L24.6989 21.3715L24.4389 21.9416L25.2489 21.6386L25.4589 21.1712L26.5038 20.5446L26.4738 20.4932L25.5039 21.0736ZM24.3589 22.1162L24.104 22.6812L24.9089 22.3782L25.1289 21.9005L26.2539 21.4742L26.2339 21.4177L24.3589 22.1162ZM25.6139 17.5039L25.9089 18.3308L25.6539 18.8958L25.3639 18.0689L25.5189 17.7248L25.7239 16.5023L25.7839 16.5126L25.6139 17.5039ZM25.2789 18.2487L25.5739 19.0756L25.3189 19.6406L25.0239 18.8136L25.2039 18.413L25.3089 17.1701L25.3739 17.1752L25.2789 18.2487ZM24.9389 18.9934L25.2339 19.8204L24.9789 20.3853L24.6889 19.5584L24.8839 19.127V17.884H24.9389V18.9934ZM24.6039 19.7382L24.8989 20.5651L24.6439 21.1301L24.3489 20.3032L24.5539 19.8512L24.4489 18.6185L24.5089 18.6133L24.6039 19.7382ZM24.2639 20.4829L24.5589 21.3047L24.3039 21.8748L24.014 21.0479L24.219 20.5754L24.014 19.353L24.074 19.3427L24.2639 20.4829ZM24.219 22.0495L23.969 22.6196L23.674 21.7875L23.894 21.3047L23.484 20.1542L23.539 20.1285L24.219 22.0495ZM28.5138 23.5338C27.9488 23.8317 27.4388 24.1194 26.9638 24.4019C26.8388 24.7563 26.6888 25.0028 26.5038 25.162L26.5638 25.2699C27.1788 24.7665 27.8088 24.2016 28.5138 23.5338ZM25.8039 25.4343C25.6539 25.4497 25.4989 25.4445 25.3289 25.4343C25.2439 25.4959 25.1589 25.5524 25.0739 25.614H25.5039L25.8039 25.4343ZM17.6193 27.1035L17.3943 27.951L16.9343 28.2284C17.0093 27.9099 17.0943 27.6172 17.2193 27.3398L17.4943 27.1754L18.1892 26.1533L18.2392 26.1893L17.6193 27.1035ZM18.3092 26.6926L18.0892 27.5452L17.5643 27.8534L17.7842 27.0008L18.1542 26.7851L18.3042 26.6053L18.3592 26.631L18.3092 26.6926ZM18.3242 27.1806L18.4542 26.6824C18.4992 26.7029 18.5442 26.7286 18.5892 26.7543L18.5742 26.9649L18.3242 27.1806ZM18.0942 28.2592L17.4743 28.0897L16.9493 28.403L17.7742 28.6239L17.9792 28.5109L17.9642 28.5057L18.0842 28.4081L18.0942 28.2592ZM18.1442 27.6942L17.6393 27.987L18.1092 28.1205L18.1442 27.6942ZM22.894 26.5488H22.364C22.504 26.595 22.644 26.6413 22.784 26.6875L23.774 26.102L23.744 26.0455L22.894 26.5488ZM23.149 26.8056L23.304 26.7337L23.279 26.6772L23.064 26.7799C23.094 26.7902 23.119 26.7954 23.149 26.8056ZM21.2041 28.29H20.9341L20.9241 28.3927L20.2991 28.3362L19.9141 28.7266H20.4791C20.5941 28.706 20.7091 28.6906 20.8241 28.6752L21.1191 28.3773L21.3291 28.3208C21.2391 28.2695 21.2591 28.2746 21.2041 28.29ZM19.3392 29.8874H19.6492L19.6992 29.836C19.5792 29.8566 19.4592 29.872 19.3392 29.8874ZM20.5041 27.9048L20.4391 27.9716L20.3791 27.9664V27.8431L20.5041 27.9048ZM20.2391 27.7764V27.951L20.0391 27.9356L20.2341 27.7661C20.2341 27.7764 20.2391 27.7764 20.2391 27.7764ZM20.1041 28.3208L19.8142 28.6187V28.2951L20.1041 28.3208ZM19.6742 28.2797V28.7574L19.5392 28.9012C19.4392 28.9218 19.3442 28.9423 19.2442 28.9628V28.593L19.2942 28.5828L19.6442 28.2797H19.6742ZM18.6842 29.0964V28.8961L18.9792 28.593L19.1142 28.6084V28.9937C18.9692 29.0245 18.8242 29.0604 18.6842 29.0964ZM18.8092 27.9818L18.3442 28.3825L19.1942 28.4595L19.5942 28.1154L20.7841 28.2232L20.7891 28.1616L18.8092 27.9818ZM18.7092 27.8637L18.2492 28.2643L18.3242 27.386L18.7192 27.0419L18.8242 25.8195L18.8842 25.8246L18.7092 27.8637ZM23.349 24.8795L22.494 24.8025L22.0241 25.2083L22.879 25.2853L23.169 25.0388L24.2539 24.5097L24.229 24.4584L23.349 24.8795ZM22.739 25.4086L21.8841 25.3315L21.4141 25.7322L22.269 25.8092L22.599 25.5267L23.734 25.1004L23.714 25.0439L22.739 25.4086ZM22.119 25.9376L21.2741 25.8606L20.8041 26.2561L21.6591 26.3331L22.0141 26.0301L23.184 25.7065L23.169 25.65L22.119 25.9376ZM21.5091 26.4615L20.6541 26.3845L20.1941 26.7902L21.0491 26.8673L21.4191 26.5437L22.609 26.328L22.599 26.2663L21.5091 26.4615ZM20.8991 26.9905L20.0441 26.9186L19.5842 27.3141L20.4391 27.3912L20.8191 27.0573L22.0241 26.9546V26.8929L20.8991 26.9905ZM19.4342 27.4425L18.9742 27.838L19.8242 27.9202L20.2241 27.5761L21.4091 27.6839L21.4141 27.6223L19.4342 27.4425ZM22.469 23.8061L22.394 24.6844L21.9341 25.085L22.0091 24.2067L22.289 23.9602L22.979 22.9483L23.029 22.9843L22.469 23.8061ZM21.8591 24.3351L21.7841 25.2134L21.3191 25.614L21.3941 24.7357L21.7241 24.4532L22.329 23.3746L22.379 23.4054L21.8591 24.3351ZM21.2491 24.8641L21.1741 25.7424L20.7041 26.1379L20.7841 25.2648L21.1391 24.9566L21.6491 23.8266L21.7041 23.8523L21.2491 24.8641ZM20.6341 25.388L20.5641 26.2663L20.0941 26.667L20.1691 25.7938L20.5441 25.4702L20.9541 24.3094L21.0141 24.33L20.6341 25.388ZM20.0241 25.9222L19.9491 26.7954L19.4842 27.196L19.5592 26.3177L19.9391 25.989L20.2591 24.782L20.3141 24.8025L20.0241 25.9222ZM19.3342 27.3244L18.8742 27.725L18.9492 26.8467L19.3442 26.5026L19.4492 25.2802L19.5092 25.2853L19.3342 27.3244ZM17.5343 29.9233C19.9041 29.7436 21.5941 29.384 24.159 28.5468C21.3841 28.6649 19.6592 28.9269 17.2543 29.646L17.3593 29.7641L19.7692 29.2762L21.2091 29.0296L19.6492 29.3481L17.4293 29.836C17.4693 29.8771 17.4893 29.8874 17.5343 29.9233ZM19.3742 32.0138L19.7042 31.8545L19.2042 31.1406L19.7692 31.8237L20.1091 31.6645L19.4442 30.8581L20.1941 31.6234L20.5491 31.4539L19.6842 30.5654L20.6541 31.4026L21.0241 31.2228L19.9141 30.2726L21.1591 31.1612L21.5391 30.9814L20.1541 29.985L21.6991 30.9043L22.099 30.7092L20.4191 29.7127L19.9491 29.7949L19.7092 30.0466C18.9392 30.0466 18.5292 29.9952 18.0092 30.0415L19.3742 32.0138ZM20.4241 29.7076L22.294 30.6167L22.719 30.4164L21.1691 29.6665H20.6391C20.5691 29.6819 20.4991 29.6973 20.4241 29.7076ZM18.6692 28.7214L18.2242 28.5468L17.7043 28.855L17.4043 28.7574L16.9893 28.9783L17.2843 28.6906L16.9993 28.5776L17.1043 28.6958L16.9093 28.9526L16.9643 29.0861L17.3193 28.9423L17.4343 29.0399L17.0993 29.3583L18.2142 28.7523L17.1443 29.4457L17.2143 29.5484L18.1842 29.1683L18.5442 28.8909L18.6692 28.7214ZM25.5439 25.7732H24.6889L24.2539 26.2098H25.1139L25.3789 25.9427L26.4188 25.3213L26.3889 25.2699L25.5439 25.7732ZM24.9739 26.3485H24.124L23.694 26.7902H24.5489L24.8539 26.4769L25.9489 25.953L25.9239 25.8965L24.9739 26.3485ZM24.4139 26.9289H23.554L23.544 26.9443L24.144 27.2063L24.3139 27.0316L25.4539 26.6105L25.4339 26.5488L24.4139 26.9289ZM24.5789 25.3623V25.6602L24.154 26.102V25.3161C24.154 25.3161 24.159 25.3161 24.159 25.3213L24.5789 25.3623ZM24.014 25.3572V26.2406L23.584 26.6824V26.3896L23.984 26.1533L23.799 25.8349L23.584 25.9582V25.7989L23.889 25.4856L23.974 25.3007C23.994 25.3007 24.019 25.311 24.039 25.311L24.014 25.3572ZM23.454 25.9427V26.0403L23.224 26.1739L23.349 26.0455L23.609 25.311L23.684 25.2853L23.454 25.9427ZM23.454 26.4718V26.6824L23.379 26.518L23.454 26.4718ZM23.434 26.8467C23.384 26.8878 23.389 26.8929 23.359 26.8775L23.434 26.8467ZM22.854 26.3896L22.979 25.9273L23.044 25.9068L22.929 26.3485L22.854 26.3896ZM21.3241 28.5828V28.48C21.6291 28.3927 21.4741 28.3979 21.7591 28.5057V28.5109L21.3241 28.5828Z" fill="#FBDD73"/>
<path d="M7.50488 6.25031H22.9292V21.7669C22.9292 24.9667 19.6093 24.4891 18.0194 24.4891C16.7995 24.4891 16.2795 24.5148 15.2195 25.4701C14.1596 24.5148 13.6346 24.4891 12.4147 24.4891C10.8247 24.4891 7.50488 24.9667 7.50488 21.7669V6.25031Z" fill="#1F1A17"/>
<path d="M22.4847 22.7018C22.3947 22.9534 22.3197 23.1178 22.1447 23.3335C21.5797 24.0218 20.4597 24.1656 19.6548 24.181C18.7948 24.1964 17.4149 24.0834 16.6449 24.2632C16.1099 24.3864 15.635 24.6895 15.22 25.049C14.19 24.1913 13.5851 24.145 12.2551 24.1604C11.0602 24.1707 8.97526 24.3864 8.1903 23.1948C7.90031 22.7531 7.83031 22.2857 7.82031 21.7618V15.7524H22.6196C22.6196 16.1068 22.6296 21.7053 22.6096 22.0289C22.5896 22.3063 22.5547 22.4449 22.4847 22.7018Z" fill="#DE411A"/>
<path d="M10.5197 14.3966C9.58472 14.3504 8.73476 14.3298 7.7998 14.4171V12.9122C8.15479 12.9122 8.55477 12.979 8.96475 13.1228C9.75471 13.4104 10.3397 13.9138 10.5197 14.3966ZM10.9847 13.5388V13.544C11.4496 13.77 11.7846 13.9857 11.9346 14.5096C11.5196 14.4736 11.1147 14.4377 10.6997 14.412C10.6997 14.3401 10.5697 14.109 10.5247 14.0319C10.3197 13.7186 9.93471 13.4156 9.61472 13.2358C9.61472 13.2307 9.60972 13.2307 9.60972 13.2307C10.0947 13.2512 10.5597 13.3437 10.9847 13.5388ZM9.94471 13.0817C9.76971 13.056 9.58472 13.056 9.40973 13.056C9.17474 13.056 9.37973 13.1023 9.02475 12.9636C8.74476 12.8609 8.38478 12.7838 8.08979 12.753C7.9898 12.7427 7.8948 12.7427 7.7998 12.7376V12.2342C7.9448 12.2394 8.09479 12.2496 8.24978 12.2702C9.00475 12.3832 9.63472 12.7016 9.94471 13.0817ZM10.1397 12.563C10.1397 12.5681 10.1447 12.5732 10.1447 12.5784C10.3647 12.676 10.4997 12.7427 10.6697 12.9328C10.7897 13.056 10.8647 13.1639 10.9247 13.3231C10.7547 13.2666 10.5697 13.1896 10.3897 13.1536C10.3197 13.1434 10.2497 13.1279 10.1797 13.1125C10.0047 12.8146 9.59472 12.527 9.28474 12.3935C9.25974 12.3832 9.22974 12.3729 9.20474 12.3575C9.55472 12.3832 9.87471 12.4551 10.1397 12.563ZM8.79976 12.188L8.69476 12.1932C8.47477 12.1161 8.03979 12.0699 7.7998 12.0699V11.5357C8.17479 11.6333 8.59977 11.8387 8.79976 12.188ZM9.24474 11.8439C9.54972 11.962 9.76971 12.0545 9.9997 12.3061C10.0097 12.3164 10.0147 12.3267 10.0247 12.337C9.68972 12.2342 9.33973 12.1829 8.98975 12.1829C8.84976 11.9209 8.79976 11.885 8.56977 11.6949C8.81476 11.7206 9.04475 11.772 9.24474 11.8439ZM8.76976 11.4124C8.85976 11.4741 8.96475 11.5254 9.03975 11.6025C8.79476 11.546 8.64477 11.5306 8.39478 11.51C8.09479 11.4895 8.33478 11.5357 8.07979 11.4381L7.7998 11.3559V11.2224C8.15979 11.207 8.44977 11.2686 8.76976 11.4124Z" fill="white"/>
<path d="M7.79004 15.4341V14.5609C9.22498 14.4069 10.6349 14.5096 12.0649 14.6585C11.8949 13.9446 11.7149 13.7494 11.0999 13.4156C11.0249 12.979 10.5949 12.5732 10.2899 12.4551C10.1999 12.2445 10.1349 12.1777 9.94994 12.0236C9.76995 11.8644 9.63496 11.8079 9.42497 11.736C9.10498 11.2583 8.45501 11.0426 7.79004 11.1094V6.5741H22.5894V15.4341H7.79004Z" fill="#007CC3"/>
<path d="M16.3594 7.91465C16.4694 7.78111 16.6044 7.80165 16.6993 7.90951C16.8043 8.03278 16.8243 8.31014 17.0293 8.48991C17.2843 8.72617 17.5693 8.69535 17.7643 8.6594C17.8343 8.65427 18.0243 8.58749 18.1343 8.48477C18.2193 8.40773 18.2643 8.24337 18.1343 8.19714C18.0893 8.1766 18.0343 8.16119 18.0543 8.11496C18.1043 7.98656 18.3893 8.19714 18.1643 8.48477C18.1393 8.51559 18.1143 8.61831 18.1943 8.68508C18.3743 8.83403 18.9942 8.26391 18.7443 8.11496C18.8093 7.94547 18.9293 7.93006 19.0692 7.91465C19.0192 7.93006 18.9343 7.96088 18.8993 8.03792C18.7593 8.33582 19.0842 8.50018 19.2742 8.38718C19.5992 8.5464 20.1642 8.25364 20.3492 7.98142C20.4792 7.78111 20.4092 7.51402 20.2392 7.45753C19.9192 7.34967 19.9892 7.08258 20.0642 7.02095C20.1492 6.94904 20.2542 6.93363 20.3292 6.9285C20.2792 6.9439 20.1992 6.94904 20.1242 7.04663C20.0542 7.14935 20.0892 7.34453 20.2142 7.42157C20.3592 7.51402 20.9042 7.33939 21.0242 7.13394C21.1392 6.93363 21.1842 6.67168 20.9642 6.71791C20.8442 6.74359 20.8242 6.58951 20.9792 6.59978C21.2592 6.62032 21.1242 6.96959 21.0442 7.1134C21.1642 6.96959 21.2392 6.78468 21.2242 6.5741H18.8093C18.6893 6.61519 18.6293 6.66655 18.6293 6.66655C19.0692 6.50219 19.1592 6.96959 19.0942 7.02095C18.9343 7.13394 19.1492 6.56896 18.6043 6.69223C18.5143 6.71277 18.3793 6.87713 18.3543 6.92336C18.3293 6.96959 18.1843 7.29317 18.3943 7.42157C18.5943 7.55511 18.8443 7.2983 18.8443 7.2983C18.8443 7.2983 18.8143 7.43698 18.6343 7.50375C18.4543 7.57052 18.2243 7.35994 18.1193 7.23667C18.0143 7.10826 18.2093 7.24181 17.9293 6.95931C17.6543 6.67168 17.2343 6.70764 17.2343 6.70764C17.4443 6.75386 17.5943 6.92336 17.5843 7.1134C17.5443 7.00554 17.5043 6.91309 17.4393 6.86172C17.2343 6.7025 16.9443 6.646 16.6543 6.69223C16.2294 6.76414 16.0344 7.21612 15.7544 7.27776C15.6394 7.30344 15.4744 7.31885 15.5194 7.21099C15.5644 7.10313 15.6444 7.25208 15.7644 7.2264C15.8444 7.21099 15.9544 7.15963 16.0294 7.07231C15.7594 6.99013 15.4344 6.91309 15.2544 6.90795C14.7144 6.89254 14.3444 7.09285 14.1895 7.55511H15.8894L16.3594 7.91465Z" fill="white"/>
<path d="M13.7846 7.55505V7.99163H14.0046V8.97779C13.4146 9.33219 13.0596 9.9999 13.0296 10.7036H12.6296V11.2172H12.2646V14.7098H18.3144V11.2172H17.9444V10.7036H17.5244C17.4894 9.82527 16.9644 9.08565 16.2495 8.83398V8.34603H16.3645V7.91459L15.8895 7.55505H13.7846Z" fill="#1F1A17"/>
<path d="M13.9099 7.67834H15.7699V7.86839H13.9099V7.67834ZM15.4999 8.84427C15.4499 8.82373 15.3999 8.80318 15.3499 8.78777V8.02247H15.5549V8.86995L15.4999 8.84427ZM15.1649 8.74155C14.9299 8.69018 14.7149 8.70559 14.4799 8.75182V8.02247H15.1999V8.74668L15.1649 8.74155ZM14.3149 8.80318L14.1299 8.88022V8.02247H14.3249V8.79804L14.3149 8.80318ZM13.135 10.7549C13.16 10.5135 13.155 10.3903 13.24 10.1437C13.42 9.60957 13.7699 9.18326 14.2849 8.96754L14.5899 8.8905V9.0754C14.1849 9.14731 13.8199 9.43494 13.6049 9.7842C13.355 10.2002 13.325 10.5187 13.305 11.0169H12.92V11.5254H12.555V14.5917H12.375V11.3405H12.74V10.832H13.13L13.135 10.7549ZM15.2249 8.91618C15.4949 9.00349 15.6599 9.08054 15.8849 9.27571C16.0498 9.41953 16.2298 9.66607 16.3248 9.86638C16.4948 10.2105 16.5198 10.457 16.5448 10.832H16.9398V11.3405H17.3048V14.5917H17.1198V11.5254H16.7598V11.0169H16.3748C16.3398 10.4981 16.3448 10.2876 16.1048 9.83556C16.0048 9.6558 15.7899 9.41953 15.6099 9.30139C15.4049 9.16785 15.3399 9.1319 15.0899 9.0754V8.8905C15.1349 8.89563 15.1799 8.9059 15.2249 8.91618ZM14.7399 8.86995H14.9349V14.5917H14.7399V8.86995ZM16.2348 11.1761H16.6048V11.6846H16.9748V14.5917H16.3998V11.8592C16.3598 11.3867 15.7599 11.1196 15.3949 11.5459C15.3099 11.6487 15.2649 11.7873 15.2649 11.9209V14.5917H15.0899V9.23462C15.4949 9.3168 15.8449 9.64552 16.0248 10.0153C16.2148 10.4057 16.2098 10.7395 16.2348 11.1761ZM14.5899 9.23462V14.5917H14.4149L14.4099 11.8592C14.3799 11.6384 14.2599 11.4689 14.0649 11.3816C13.7899 11.2532 13.44 11.397 13.32 11.6897L13.275 11.9209V14.5917H12.71V11.6846H13.07V11.1761H13.445C13.485 10.7139 13.46 10.3492 13.7049 9.91261C13.8849 9.5993 14.2299 9.30139 14.5899 9.23462Z" fill="white"/>
<path d="M18.3145 14.5147C19.7394 14.5095 21.1643 13.3847 22.5893 13.3539V13.8726C21.1643 13.8932 19.7394 14.7047 18.3145 14.7098V14.5147ZM22.5893 11.1607V11.6795C21.1643 11.7411 19.7394 13.8675 18.3145 13.8778V13.6877C19.7394 13.6723 21.1643 11.2326 22.5893 11.1607ZM22.5893 11.9106V12.4345C21.1643 12.4807 19.7394 14.15 18.3145 14.1603V13.96C19.7394 13.9497 21.1643 11.9722 22.5893 11.9106ZM22.5893 12.6553V13.1741C21.1643 13.2101 19.7394 14.4325 18.3145 14.4376V14.2373C19.7394 14.2322 21.1643 12.7016 22.5893 12.6553Z" fill="white"/>
<path d="M17.6198 23.0562V22.2652H17.2948C16.9399 21.8184 16.4049 21.9673 16.0949 21.7773C15.7699 21.5821 15.7099 21.2534 16.1799 21.1866C16.2699 21.1712 16.3599 21.1609 16.4499 21.1506C16.4249 21.0068 16.3649 20.8476 16.2499 20.75C17.0399 20.7089 17.5698 20.5959 18.3248 20.2878C18.6048 20.1645 18.8698 20.0309 19.1348 19.8717C19.3098 19.7587 19.4797 19.6354 19.6547 19.5122C19.6997 19.4711 19.8647 19.3375 19.9997 19.2348C20.2047 19.0859 20.2197 19.0653 20.1297 18.8907C20.0297 18.7007 19.8947 18.6442 19.7047 18.6031V18.4027H20.2797C20.1497 18.0997 20.0497 17.8789 19.7297 17.7556V17.5039C16.9049 17.5039 13.53 17.5039 10.7051 17.5039V17.7556C10.3751 17.8891 10.2852 18.11 10.1602 18.4027H10.7351V18.6031C10.5551 18.6442 10.3901 18.7058 10.3051 18.8907C10.2302 19.0551 10.2252 19.0807 10.4351 19.2348C10.8201 19.5173 10.9101 19.6252 11.3101 19.8717C11.8501 20.2107 12.595 20.5086 13.215 20.637C13.55 20.7089 13.88 20.7346 14.19 20.75C14.065 20.8476 14.02 21.0171 13.985 21.1506C14.135 21.1661 14.385 21.1815 14.505 21.2636C14.73 21.4177 14.535 21.7927 14.055 21.8749C13.73 21.9262 13.355 21.9724 13.145 22.2652H12.815V23.0562H17.6198Z" fill="#1F1A17"/>
<path d="M14.4094 21.8801C14.6944 21.7208 14.8444 21.3613 14.5744 21.1661C15.0044 21.1661 15.4344 21.1661 15.8594 21.1661C15.8294 21.1918 15.7994 21.2124 15.7744 21.2432C15.6144 21.4846 15.8194 21.7619 16.0294 21.8801C15.4894 21.8801 14.9444 21.8801 14.4094 21.8801ZM19.5792 18.3977V18.6083H10.8546V18.3977H19.5792ZM19.6092 17.8687C19.8342 17.8841 19.9992 18.069 20.0892 18.2744H10.3496C10.4246 18.0844 10.6096 17.8738 10.8296 17.8687H19.6092ZM19.6092 17.6324V17.7454H10.8246V17.6324H19.6092ZM16.0144 20.6422C16.7593 20.6371 17.1993 20.5446 17.7043 20.406C18.2593 20.2159 18.7592 19.9745 19.2492 19.6458C19.5292 19.4506 19.7892 19.24 20.0492 19.0192C19.9892 18.8856 19.9542 18.7983 19.7642 18.747C19.5542 18.6853 19.5192 18.6905 19.2992 18.7675C18.8092 18.9524 18.4992 19.6304 17.8243 20.0516C17.3293 20.37 16.7993 20.5087 16.0144 20.6422ZM15.8644 20.56C15.8644 20.5652 15.9094 20.56 15.9294 20.5549C16.3743 20.5035 16.4993 20.5292 16.9793 20.3751C17.8643 20.0618 18.0243 19.8718 18.3243 19.5636C18.4992 19.3736 18.6542 19.1938 18.8242 18.9832C19.0892 18.6699 18.3943 18.6083 18.1993 18.8394C17.9743 19.1065 17.9543 19.1733 17.7393 19.4249C17.4993 19.6869 17.2293 20.0875 16.7843 20.2827C16.5493 20.3854 16.2143 20.4625 15.9244 20.5395C15.9044 20.5446 15.8544 20.5549 15.8644 20.56ZM15.6744 20.5241C15.6794 20.5241 15.7094 20.519 15.7294 20.5138C16.0844 20.447 16.2493 20.4368 16.5943 20.2981C17.2443 20.031 17.3143 19.8204 17.5793 19.5379C17.7243 19.3633 17.8643 19.1733 17.9993 18.9729C18.2043 18.6699 17.5843 18.634 17.4493 18.8445C17.1793 19.2708 17.1393 19.466 16.8043 19.8358C16.3793 20.2981 15.6244 20.4984 15.6744 20.5241ZM15.4594 20.483C15.4694 20.4881 15.4994 20.4779 15.5144 20.4779C15.7894 20.4265 15.9394 20.37 16.1694 20.2467C16.6043 20.0105 16.8393 19.7691 16.9993 19.5123C17.1043 19.3273 17.1993 19.1835 17.3143 18.9678C17.4793 18.6699 16.8493 18.6134 16.7243 18.8754C16.5593 19.24 16.5343 19.3993 16.2793 19.7537C15.8244 20.3854 15.3944 20.4368 15.4594 20.483ZM15.2994 20.483C15.3544 20.5138 15.6494 20.2878 15.7094 20.2467C16.0394 20.0105 16.2143 19.7691 16.3743 19.5123C16.4693 19.3582 16.5343 19.1835 16.6193 18.9678C16.7393 18.6699 16.0894 18.5775 15.9644 18.9524C15.8494 19.3068 15.8494 19.4249 15.6994 19.7537C15.5744 20.0516 15.5294 20.18 15.3294 20.4368C15.3194 20.447 15.2844 20.4676 15.2994 20.483ZM15.2394 20.4779C15.2544 20.4779 15.2644 20.4625 15.2694 20.4522C15.5444 20.0259 15.6794 19.692 15.8744 19.0038C15.9794 18.634 15.3144 18.562 15.2944 18.9884L15.2294 20.4368C15.2294 20.447 15.2294 20.4779 15.2394 20.4779ZM14.1394 21.0429H16.2993C16.2843 20.9915 16.2543 20.9401 16.2193 20.9042C15.9294 20.5909 15.5994 20.5241 15.2094 20.5241C14.8494 20.5241 14.4694 20.6063 14.2144 20.9042C14.1844 20.9401 14.1594 20.9915 14.1394 21.0429ZM16.5793 22.029C16.8343 22.0804 16.9443 22.1112 17.1293 22.2653H13.3095C13.4545 22.1163 13.6645 22.0701 13.8595 22.029C13.9145 22.0187 13.9694 22.0136 14.0244 22.0085C14.8194 22.0085 15.6144 22.0085 16.4143 22.0085C16.4693 22.0136 16.5243 22.0187 16.5793 22.029ZM17.4993 22.3886V22.5221H12.9395V22.3886H17.4993ZM17.4993 22.6454V22.933C15.9144 22.933 14.5244 22.933 12.9395 22.933V22.6454H17.4993ZM14.4194 20.6422C13.6745 20.6371 13.2395 20.5446 12.7395 20.406C12.1795 20.2159 11.6796 19.9745 11.1846 19.6458L10.3846 19.014C10.4496 18.8805 10.4946 18.7932 10.6696 18.747C10.8846 18.6853 10.9196 18.6905 11.1396 18.7675C11.6146 18.9524 11.9645 19.6458 12.6095 20.0516C13.1095 20.37 13.6345 20.5087 14.4194 20.6422ZM14.5744 20.56C14.5694 20.5652 14.5244 20.56 14.5044 20.5549C14.0644 20.5035 13.9395 20.5292 13.4545 20.3751C12.5695 20.0618 12.4095 19.8718 12.1145 19.5636C11.9395 19.3736 11.7795 19.1938 11.6096 18.9832C11.3496 18.6699 12.0395 18.6083 12.2395 18.8394C12.4595 19.1065 12.4795 19.1733 12.7045 19.4249C12.9345 19.6869 13.2095 20.0875 13.6545 20.2827C13.8845 20.3854 14.2244 20.4625 14.5094 20.5395C14.5294 20.5446 14.5794 20.5549 14.5744 20.56ZM14.7644 20.5241C14.7594 20.5241 14.7244 20.519 14.7094 20.5138C14.3544 20.447 14.1844 20.4368 13.8395 20.2981C13.1945 20.031 13.1245 19.8204 12.8595 19.5379C12.7145 19.3633 12.5695 19.1733 12.4395 18.9729C12.2295 18.6699 12.8545 18.634 12.9895 18.8445C13.2545 19.2708 13.2945 19.466 13.6345 19.8358C14.0594 20.2981 14.8044 20.4933 14.7644 20.5241ZM14.9794 20.483C14.9644 20.4881 14.9344 20.4779 14.9244 20.4779C14.6494 20.4265 14.4944 20.37 14.2644 20.2467C13.8345 20.0105 13.5995 19.7691 13.4395 19.5123C13.3295 19.3273 13.2345 19.1835 13.1195 18.9678C12.9595 18.6699 13.5895 18.6134 13.7095 18.8754C13.8795 19.24 13.8995 19.3993 14.1594 19.7537C14.6094 20.3803 15.0394 20.4419 14.9794 20.483ZM15.1344 20.483C15.1044 20.519 14.7744 20.2827 14.7244 20.2467C14.3994 20.0105 14.2244 19.7691 14.0594 19.5123C13.9694 19.3582 13.9045 19.1835 13.8195 18.9678C13.6995 18.6699 14.3444 18.5775 14.4694 18.9524C14.5894 19.3068 14.5844 19.4249 14.7344 19.7537C14.8644 20.0516 14.9094 20.18 15.1094 20.4368C15.1144 20.447 15.1494 20.4676 15.1344 20.483ZM15.1994 20.4779C15.1844 20.4779 15.1694 20.4625 15.1694 20.4522C14.8944 20.0259 14.7594 19.692 14.5644 19.0038C14.4594 18.634 15.1244 18.562 15.1444 18.9884L15.2094 20.4368C15.2094 20.447 15.2094 20.4779 15.1994 20.4779Z" fill="#007436"/>
</svg>
