<svg width="377" height="149" fill="none" xmlns="http://www.w3.org/2000/svg"><path d="M232.014 175.798s16.774 7.878 23.995 8.242c19.304 1.137 29.45-14.952 37.576-27.728l8.762-13.785c-.863-.534-1.703-1.135-2.544-1.68l-8.784 13.831c-7.707 12.118-17.286 27.231-34.874 26.366-6.734-.33-23.064-7.878-23.064-7.878s-1.999-.523-3.884-1.136l-1.453 1.623 4.27 2.145z" fill="#AECE95"/><path d="M234.434 182.05c7.246 3.155 14.763 6.413 22.462 6.811 20.53.979 31.266-15.881 39.892-29.497l9.341-14.694a50.815 50.815 0 01-2.669-1.475l-9.227 14.523c-8.195 12.901-18.409 28.967-37.168 28.068-7.176-.341-14.398-3.486-21.394-6.528-2.407-1.044-4.894-2.134-7.29-3.053l-1.896 2.099s5.485 2.667 7.949 3.746z" fill="#AECE95"/><path d="M231.789 186.202c8.142 3.553 16.569 7.22 25.267 7.629 23.039 1.138 35.115-17.901 44.807-33.162l8.83-13.888a56.664 56.664 0 01-2.816-1.249l-8.58 13.548c-9.273 14.603-20.827 32.78-42.106 31.767-8.13-.387-16.295-3.94-24.188-7.379-2.85-1.238-8.267-3.848-8.267-3.848l-1.657 2.087s5.894 3.269 8.71 4.495z" fill="#AECE95"/><path d="M311.291 147.018a70.78 70.78 0 01-6.902 5.014 16.02 16.02 0 01-2.043 4.743 69.943 69.943 0 0012.283-8.554 68.334 68.334 0 01-3.338-1.203zm5.778 1.952l-.817-.25a70.14 70.14 0 01-16.041 10.618c-.114.171-.227.352-.352.522-.829 1.248-1.555 2.53-2.27 3.835 8.402-2.869 15.826-8.451 22.478-14.248-.988-.159-1.987-.33-2.998-.477z" fill="#AECE95"/><path d="M228.257 189.491s16.592 8.513 25.369 8.935c23.244 1.138 35.422-18.06 45.217-33.468l11.656-18.279a56.203 56.203 0 01-2.828-1.26l-11.35 17.893c-9.431 14.739-21.087 33.074-42.582 32.072-8.209-.398-23.722-8.003-23.722-8.003l-8.813-4.143-1.134 2.36 8.187 3.893zm8.73-57.123a5.426 5.426 0 00-2.009 1.225c-18.944-11.354-39.53-5.68-49.965-1.368l-3.01-2.577a76.46 76.46 0 0114.091-4.676 61.341 61.341 0 0119.02-1.382 50.488 50.488 0 0122.611 7.574l-.738 1.204z" fill="#AECE95"/><path d="M231.787 137.778c-15.559-8.084-31.865-5.328-42.482-1.798l-3.055-2.714a75.808 75.808 0 019.209-2.712 61.683 61.683 0 0118.997-1.371 50.543 50.543 0 0119.397 5.678 65.245 65.245 0 00-2.066 2.917z" fill="#AECE95"/><path d="M228.914 142.066c-10.88-4.724-21.929-4.543-30.967-2.694-1.522-.863-3.032-1.76-4.543-2.634l2.078-.511a61.685 61.685 0 0118.997-1.371 50.88 50.88 0 0116.444 4.259c-.658.976-1.317 1.963-2.009 2.951z" fill="#AECE95"/><path d="M224.997 146.375a49.387 49.387 0 00-17.522-2.59 6.458 6.458 0 00-.602-.204c-1.397-.602-2.794-1.136-4.191-1.806a51.164 51.164 0 01-2.101-1.01 58.914 58.914 0 0113.218-.35 51.87 51.87 0 0113.899 3.202 19.947 19.947 0 01-2.701 2.758zm-61.24 6.263a11.037 11.037 0 0112.115-2.938c1.863.716 37.579 17.459 56.215 26.212l1.203-2.542c-2.203-1.045-53.978-25.36-56.385-26.291a14.426 14.426 0 00-3.782-.84 13.346 13.346 0 00-10.218 3.278c.433.994.72 2.045.852 3.121z" fill="#AECE95"/><path d="M154.932 138.174c10.705-11.211 22.708-7.635 23.662-7.34l59.85 28.256 1.203-2.542-60.054-28.38a21.4 21.4 0 00-4.395-.829c-5.121-.455-13.933.304-21.992 8.531.59.783 1.192 1.532 1.726 2.304z" fill="#AECE95"/><path d="M156.864 141.225l.239.386c7.73-8.295 17.78-7.045 19.972-6.227 2.192.817 39.044 18.163 58.316 27.245l1.203-2.542c-2.271-1.079-55.863-26.337-58.532-27.325a14.301 14.301 0 00-3.475-.681 23.619 23.619 0 00-19.018 7.056c.443.647.886 1.373 1.295 2.088z" fill="#AECE95"/><path d="M157.84 142.812c.137.159.409.5.568.647.477.443.92.897 1.352 1.351 8.991-7.943 17.099-4.673 17.19-4.628 1.59.738 54.069 25.224 56.34 26.257l1.135-2.542c-.545-.261-54.705-25.451-56.26-26.234a11.958 11.958 0 00-3.975-.977c-4.054-.364-10.219.578-16.429 6.092l.079.034z" fill="#AECE95"/><path d="M162.348 148.293a13.06 13.06 0 0113.852-3.584c2.09 1.022 54.103 25.224 56.318 26.257l1.191-2.553c-.545-.25-54.205-25.224-56.272-26.234a11.231 11.231 0 00-3.838-.954 16.213 16.213 0 00-12.864 4.708 15.497 15.497 0 011.613 2.36zm-43.759-9.793l-2.634-1.056a10.599 10.599 0 01-1.488-.556c-8.153.555-16.895 5.081-26.113 13.534l1.909 2.066c11.442-10.496 21.933-14.602 31.211-12.195l.238-.919a9.276 9.276 0 01-1.999-.625 7.997 7.997 0 01-1.124-.249z" fill="#AECE95"/><path d="M100.369 151.602c11.41-8.113 21.629-10.336 30.419-6.59l.726-1.702c-1.135-.635-2.214-1.248-3.271-1.941-.136-.079-.249-.182-.374-.261a24.068 24.068 0 00-3.487-.579c-7.812-.705-16.396 2.267-25.637 8.78l1.624 2.293zm-20.304 2.031c10.159-11.913 19.536-17.018 27.871-15.36l.431-2.088-.636-.113a5.088 5.088 0 01-.59-.182l-1.136-.488c-8.505-.523-17.757 4.99-27.542 16.472l1.602 1.759z" fill="#AECE95"/><path d="M99.537 148.754c-2.43 1.373-10.704 8.781-11.647 9.62l1.886 2.088c2.475-2.269 9.308-8.224 11.147-9.257l-1.386-2.451zm37.894-1.11a17.17 17.17 0 01-1.272-1.623 13.63 13.63 0 01-2.658-1.578l.898.693a15.066 15.066 0 00-1.761-1.136 35.628 35.628 0 00-1.567-.204c-7.154-.637-15.056 1.519-23.628 6.477l1.42 2.441c11.115-6.434 20.925-7.84 29.216-4.218-.114-.159-.137-.193 0 0h.057l-.273-.341-.432-.511z" fill="#AECE95"/><path d="M119.378 153.769c7.471-3.097 14.215-4.095 20.223-3.039-.228-.397-.455-.806-.705-1.203-.25-.397-1.704-2.134-.329-.556a10.822 10.822 0 01-.659-.818l-.477-.51-.068-.08c-5.791-.455-12.161.748-19.065 3.607l1.08 2.599zm298.227-42.916c.338.016.666.118.954.295l-1.01 1.862 1.011 1.827c-1.136.647-24.524 15.797-39.975 25.829-1.034.692-26.238 17.374-49.303 8.393l-26.552-11.037a69.234 69.234 0 00-23.643-3.714c-17.51.338-31.589 7.487-41.85 21.254l-.908 1.362-3.509-2.339.998-1.498c13.837-18.613 32.3-22.776 45.347-23.002a72.01 72.01 0 0125.142 4.033l26.552 11.036c20.976 8.164 45.158-7.837 45.419-7.939l20.028-13.039 13.794-8.92 4.541-2.928c1.613-1.021 2.328-1.475 2.964-1.475z" fill="#AECE95"/><path d="M284.85 143.114c4.41-.048 8.806.498 13.07 1.625l-1.202 4.039c-.25-.068-25.46-7.209-45.144 11.988l-15.085 16.463-3.124-2.848 15.211-16.611a50.9 50.9 0 0136.274-14.656z" fill="#AECE95"/><path d="M410.426 107.517l1.136 1.646 1.602 1.601c-.238.227-.295.284-35.661 22.446-1.033.681-26.59 17.352-49.961 8.382l-26.95-11.036a71.492 71.492 0 00-24.006-3.715c-17.794.338-32.1 7.498-42.509 21.288l-4.006 5.675-3.408-2.418 4.064-5.811c13.996-18.579 32.708-22.811 45.949-22.968a74.415 74.415 0 0125.482 4.01l26.95 11.048c21.316 8.175 45.873-7.849 46.123-8.008 9.548-5.991 34.412-21.629 35.195-22.14z" fill="#AECE95"/><path d="M405.066 102.798a1.843 1.843 0 011.465.806l-1.658 1.317 1.011 1.827c-.806.477-21.151 13.334-28.928 18.248-1.067.692-26.953 17.34-50.597 8.392l-26.79-10.843a19.401 19.401 0 01-2.76-.488c-28.833-6.133-50.792-.109-65.265 17.925l-8.468 11.099-3.351-2.554 8.502-11.145c15.62-19.418 38.976-25.964 69.501-19.445h.091l-.001-.67 30.118 12.183c21.578 8.187 46.555-7.848 46.782-8.007l14.521-9.169 9.968-6.287 3.27-2.077a5.517 5.517 0 012.589-1.112z" fill="#AECE95"/><path d="M396.665 98.715l2.352 3.507c-.715.476-28.179 18.246-29.348 19.006h-.068c-.988.578-24.376 14.194-46.964 3.932l-15.071-7.13 1.805-3.768 15.047 7.107c20.181 9.173 42.014-3.172 43.002-3.705l29.245-18.95z" fill="#AECE95"/><path d="M338.125 87.352c1.681 0 2.714.09 2.907.114h.125l51.68 7.622-.249 1.964v2.27c-.216 0-.272 0-51.975-7.634-1.136-.091-23.846-1.604-39.932 16.417l-10.069 11.689-3.191-2.747 10.057-11.746c14.508-16.273 33.459-17.95 40.647-17.95z" fill="#AECE95"/><path d="M340.025 94.975c1.681 0 2.714.092 2.907.103h.08s12.412 1.67 24.812 3.408l17.034 2.273 5.678.795c2.702.386 3.94.557 3.941 2.418h-2.112l-.454 2.054c-1.363-.261-30.263-4.192-49.398-6.817-.976-.08-23.79-1.66-39.921 16.396l-4.427 5.357-3.259-2.691 4.54-5.447c14.462-16.15 33.369-17.85 40.579-17.849z" fill="#AECE95"/><path d="M341.889 102.237c1.669 0 2.703.091 2.907.114l19.702 2.488c4.917.614 9.834 1.25 13.525 1.727l4.463.591c2.033.273 3.509.477 3.509 2.339h-2.112l-.453 2.054c-1.238-.227-24.063-3.125-39.098-5.011-.171 0-23.518-1.966-39.922 16.431l-3.146-2.816c14.485-16.24 33.426-17.918 40.625-17.917z" fill="#AECE95"/><path d="M342.652 110.033h2.146c18.68 1.83 30.127 2.774 30.661 2.808l-.125 1.827.001 2.441c-.341 0-12.491-1.012-30.876-2.819-1.068 0-19.305-.604-28.035 6.887l-2.749-3.213c8.446-7.23 23.492-7.932 28.977-7.931z" fill="#AECE95"/><path d="M340.369 117.169c2.6.001 4.428.16 4.644.183l19.373 1.875-.408 4.2-19.407-1.875c-4.076-.364-15.727-.456-20.359 3.494l-2.738-3.213c4.723-3.984 13.478-4.664 18.895-4.664zm81.412-2.335l2.363 3.496-44.186 29.832c-1.022.726-26.18 18.258-49.2 8.812l-26.484-11.512a66.493 66.493 0 00-23.517-3.885c-17.453.361-31.475 7.884-41.702 22.365l-7.946 10.917-3.407-2.486 7.946-10.895c13.746-19.53 32.163-23.966 45.176-24.145a68.852 68.852 0 0125.141 4.225l26.461 11.592c20.806 8.537 44.908-8.223 45.146-8.393l44.209-29.923zm-86.303-34.979c1.669 0 2.703.091 2.896.114h.113l40.142 5.997-.623 4.177-40.119-5.941c-1.136-.091-23.846-1.593-39.931 16.415l-15.449 18.156-3.215-2.804 15.483-18.155c14.519-16.283 33.47-17.96 40.703-17.96z" fill="#AECE95"/><path d="M331.591 72.856c1.138-.01 2.275.04 3.407.148l28.081 3.715-.543 4.187-28.048-3.703a53.237 53.237 0 00-24.419 4.77 53.179 53.179 0 00-19.575 15.343l-16.822 22.058-3.407-2.565 16.81-22.07a56.995 56.995 0 0119.75-16.033 57.05 57.05 0 0124.766-5.85z" fill="#AECE95"/><path d="M328.557 65.575a33.628 33.628 0 013.407.148h.102l17.76 2.771-.646 4.164-17.703-2.76a54.636 54.636 0 00-24.763 4.756 54.582 54.582 0 00-19.98 15.368l-23.632 30.486-3.339-2.587 23.666-30.51a58.214 58.214 0 0120.091-16.02 58.27 58.27 0 0125.037-5.816z" fill="#AECE95"/><path d="M325.816 58.305c1.987 0 3.225.126 3.406.148h.069l5.461.761-.192 1.805.001 2.405c-.194 0-.273 0-5.826-.795a55.653 55.653 0 00-25.013 4.747 55.6 55.6 0 00-20.274 15.387c-8.921 11.277-32.302 40.843-33.108 41.978l-1.658-1.203-2.192-.001c0-.771 0-.771 5.675-7.942l11.419-14.476 16.616-21a59.157 59.157 0 0120.357-16.022 59.206 59.206 0 0125.259-5.792z" fill="#AECE95"/><path d="M247.082 83.997a109.358 109.358 0 0127.775 3.885l-1.135 4.085c-18.93-4.984-35.508-4.987-49.268-.007-12.66 4.537-18.414 11.856-19.447 13.274-4.813 6.649-16.026 25.155-16.14 25.337l-3.611-2.179c.465-.772 11.417-18.847 16.332-25.644 1.748-2.337 14.745-18.755 45.494-18.75z" fill="#AECE95"/><path d="M247.539 91.008a111.36 111.36 0 0123.357 2.705l-.895 4.119c-20.225-4.383-47.375-5.397-61.881 14.641-4.642 6.4-9.761 14.558-10.215 15.466a2.072 2.072 0 000-1.487l-3.997 1.327c-.375-1.134-.386-1.134 3.575-7.262 1.43-2.269 4.268-6.547 7.151-10.518 10.59-14.524 26.871-18.993 42.905-18.99z" fill="#AECE95"/><path d="M250.175 97.283c5.545.03 11.071.643 16.488 1.83l-.873 4.13c-30.104-6.404-46.054 5.577-54.147 16.742-1.657 2.269-2.906 3.994-3.723 5.083-.817 1.09-1.725 2.27-3.281 1.623l-1.567-.704.691-3.336h.682c.567-.772 1.679-2.27 3.757-5.129 9.647-13.31 24.225-20.241 41.973-20.239zm-44.64 27.399l.897-1.815-.897 1.815z" fill="#AECE95"/><path d="M255.82 104.148c2.112 0 4.33.064 6.654.193l-.237 4.211c-32.851-1.798-40.978 9.844-45.835 16.8-.352.51-.681.987-1.011 1.429l-3.407-2.474c.318-.431.636-.885.965-1.373 4.676-6.695 13.121-18.791 42.871-18.786z" fill="#AECE95"/><path d="M256.615 110.422h1.318l-.056 4.222c-22.086-.321-28.908 7.145-32.926 11.604-.5.556-.954 1.055-1.385 1.486l-2.987-2.985a57.03 57.03 0 001.26-1.35c4.109-4.55 11.817-12.98 34.776-12.977z" fill="#AECE95"/><path d="M252.45 116.763l.342 4.21c-16.021 1.303-22.764 9.075-22.832 9.075l-3.237-2.735c.318-.329 7.81-9.077 25.727-10.55zm65.378-62.177a69.931 69.931 0 00-11.014 1.826 52.375 52.375 0 00-10.059 3.788 74.74 74.74 0 00-9.31 5.605c-3.008 2.121-5.88 4.47-9.013 6.807a37.31 37.31 0 0116.448-16.157 32.513 32.513 0 0111.354-3.266c3.92-.4 7.881.077 11.594 1.397z" fill="#AECE95"/><path d="M318.117 52.406a38.779 38.779 0 0114.706 4.95l95.242 59.382c37.741 25.145 66.009 2.96 66.293 2.733l.182-.136 82.81-53.445 2.272 3.576-82.708 53.331a52.864 52.864 0 01-20.369 8.907c-11.593 2.518-29.761 2.549-50.773-11.425l-95.207-59.303a35.386 35.386 0 00-13.015-4.337l.567-4.233zm11.237-1.673a68.63 68.63 0 00-11.117-2.272 49.515 49.515 0 00-21.575 2.165 103.931 103.931 0 00-10.548 4.29 30.125 30.125 0 019.253-7.343 32.053 32.053 0 0123.55-2.347 26.606 26.606 0 0110.437 5.507z" fill="#AECE95"/><path d="M330.403 48.857c.387.216.591.352.591.352l95.764 59.314c15.9 10.557 31.946 14.225 47.695 10.925a49.475 49.475 0 0019.018-8.192l.182-.125 78.87-50.744 2.272 3.553-78.814 50.687a52.911 52.911 0 01-20.437 8.895c-11.729 2.496-29.977 2.527-51.067-11.447l-95.73-59.303-.421-.25 2.077-3.665z" fill="#AECE95"/><path d="M356.907 58.334a57.554 57.554 0 01-8.857-3.78 101.705 101.705 0 01-8.2-4.789 93.817 93.817 0 01-7.7-5.55 57.146 57.146 0 01-7.042-6.56 56.517 56.517 0 018.858 3.78 96.885 96.885 0 018.188 4.79 99.532 99.532 0 017.7 5.55 58.044 58.044 0 017.053 6.56z" fill="#AECE95"/><path d="M358.055 56.54l67.949 44.211c13.959 10.079 28.574 14.189 43.346 12.216a47.702 47.702 0 0018.166-6.045l2.272 3.529a51.03 51.03 0 01-19.665 6.67c-10.946 1.508-27.91.484-46.559-12.921l-67.825-44.12 2.316-3.54zm9.901.354a62.355 62.355 0 01-9.085-4.177 110.326 110.326 0 01-8.46-5.175 103.063 103.063 0 01-7.95-5.925 60.563 60.563 0 01-7.281-6.922 61.724 61.724 0 019.085 4.177 103.195 103.195 0 018.461 5.175 115.527 115.527 0 017.95 5.924 61.565 61.565 0 017.28 6.923z" fill="#AECE95"/><path d="M369.149 55.126l57.773 39.078c25.86 19.147 46.921 11.65 47.103 11.57l1.477 3.949c-.942.352-23.422 8.36-51.1-12.103l-57.671-39 2.418-3.494zm7.505-.716a54.23 54.23 0 01-8.539-3.825 93.416 93.416 0 01-15.219-10.362 54.264 54.264 0 01-6.678-6.549 53.261 53.261 0 018.551 3.814 88.181 88.181 0 017.859 4.813 91.062 91.062 0 017.348 5.56 54.186 54.186 0 016.678 6.549z" fill="#AECE95"/><path d="M377.847 52.639l57.32 39.057c30.914 21.021 67.248 13.378 67.566 13.298l.909 4.12c-1.555.34-38.332 8.142-70.848-13.923l-57.331-39.069 2.384-3.483zm-65.537-.448a45.569 45.569 0 016.2.398l-.635 4.177c-.147 0-15.057-2.17-23.503 4.73l-2.681-3.27c6.187-5.05 14.839-6.035 20.619-6.035zm-1.931-8.249a47.78 47.78 0 0120.441 5.224l-2.009 3.71c-.124-.067-11.958-6.356-23.313-4.293l-.751-4.154a31.345 31.345 0 015.632-.487zm46.381 17.05l2.28-3.544-18.67-11.99-2.28 3.545 18.67 11.99zm10.578-2.008l2.361-3.497L350.578 42.6l-2.362 3.497 19.122 12.889z" fill="#AECE95"/><path d="M375.764 56.397l2.396-3.474-17.187-11.835-2.396 3.474 17.187 11.835zm24.851-1.375a57.962 57.962 0 01-8.926-3.95 99.16 99.16 0 01-8.256-4.937 94.507 94.507 0 01-7.768-5.675 58.688 58.688 0 01-7.087-6.696 57.824 57.824 0 018.914 3.928 95.695 95.695 0 018.256 4.948 116.063 116.063 0 017.757 5.675 57.106 57.106 0 017.11 6.707zm-11.98-.681a43.82 43.82 0 01-7.654-3.133 74.224 74.224 0 01-6.984-4.13 70.56 70.56 0 01-6.485-4.881 41.958 41.958 0 01-5.804-5.89 41.505 41.505 0 017.654 3.133 67.275 67.275 0 016.984 4.131 70.715 70.715 0 016.485 4.88 43.18 43.18 0 015.804 5.89z" fill="#AECE95"/><path d="M387.727 56.304l2.368-3.493-15.206-10.288-2.368 3.493 15.206 10.288zM45.233 144.335a51.693 51.693 0 01-11.503 1.134 69.986 69.986 0 01-11.503-1.057 65.69 65.69 0 01-11.163-2.998 47.244 47.244 0 01-10.347-5.189c3.861.556 7.552 1.306 11.243 1.999 3.69.693 7.336 1.374 11.004 2.033l11.05 1.909c3.713.681 7.438 1.306 11.22 2.169z" fill="#AECE95"/><path d="M103.826 134.488c27.616.004 39.51 17.28 40.078 18.165 8.532 13.019 8.486 13.246 8.271 14.302l-4.134-.818c-.088.378-.056.775.091 1.135-.397-.874-4.237-6.935-7.713-12.293-.591-.874-15.211-21.861-50.649-14.761a150.605 150.605 0 01-43.659 6.282h-.886v-4.222h.85a147.353 147.353 0 0042.445-6.112l.261-.068a76.219 76.219 0 0115.045-1.61zm-36.212.699a43.31 43.31 0 01-8.573 2.963 58.604 58.604 0 01-8.88 1.441c-3.02.28-6.062.279-9.084-.001a36.02 36.02 0 01-8.892-1.943 80.895 80.895 0 018.88-1.373c2.907-.328 5.803-.612 8.71-.85 2.907-.238 5.836-.442 8.789-.521a61.885 61.885 0 019.05.284z" fill="#AECE95"/><path d="M104.483 127.078a54.915 54.915 0 0133.115 11.24 62.157 62.157 0 0115.197 16.15l6.544 11.656-3.678 2.042-6.521-11.576a58.97 58.97 0 00-14.198-14.982 50.087 50.087 0 00-41.596-9.084c-10.003 2.064-18.315 3.629-25.389 4.797l-.682-4.165c7.017-1.134 15.26-2.71 25.218-4.763a59.088 59.088 0 0111.99-1.315zm-7.869-3.792a47.712 47.712 0 01-7.279 2.735 91.427 91.427 0 01-7.357 1.815c-2.46.499-4.94.919-7.438 1.259a60.463 60.463 0 01-7.721.601 27.678 27.678 0 016.88-3.813 45.014 45.014 0 017.415-2.179 49.506 49.506 0 017.653-.952 32.064 32.064 0 017.847.534z" fill="#AECE95"/><path d="M104.699 120.498c13.944.002 27.457 5.337 39.53 15.687a84.41 84.41 0 0116.89 19.655v.091l5.601 10.928-3.758 1.917-5.567-10.871a81.949 81.949 0 00-16.06-18.6c-13.663-11.655-28.596-16.355-44.4-13.941l-.638-4.175a55.503 55.503 0 018.402-.691zm12.89-2.745c-3.1.261-6.041.351-8.959.544-2.919.193-5.78.397-8.653.68a345.33 345.33 0 00-8.664.987c-2.918.363-5.848.737-8.96.907a31.534 31.534 0 018.21-4.143 39.095 39.095 0 018.993-1.951 36.959 36.959 0 019.232.217 27.695 27.695 0 018.801 2.759z" fill="#AECE95"/><path d="M118.021 115.677c32.157 6.631 47.903 37.291 48.562 38.585l6.816 12.947-3.701 1.985-6.884-12.993c-.171-.34-15.53-30.183-45.654-36.394l.861-4.13zm-98.987 23.885c9.8 2.59 26.743 2.683 26.913 2.683l.001 4.222c-.727 0-17.657-.093-27.98-2.83l1.066-4.075zm48.976-6.576l.784 4.154c-.59.113-14.636 2.744-20.438 2.551l.134-4.222c5.372.171 19.372-2.483 19.52-2.483zm29.182-11.912l.41 4.199c-.114 0-11.48 1.134-17.032 2.914l-1.284-4.017c5.972-1.906 17.418-3.05 17.906-3.096z" fill="#AECE95"/><path d="M105.245 114.289c4.56.025 9.103.551 13.548 1.568l-1.021 4.098c-.102 0-10.856-2.646-20.031-.741l-.864-4.131a41.387 41.387 0 018.368-.794z" fill="#AECE95"/></svg>