<svg width="417" height="241" fill="none" xmlns="http://www.w3.org/2000/svg"><path d="M231.797 10.982S245.96-.968 252.841-3.19c18.352-6.095 32.317 6.82 43.473 17.057l12.031 11.048c-.696.739-1.352 1.537-2.023 2.281L294.257 16.11C283.677 6.4 270.513-5.72 253.748-.331c-6.419 2.062-20.239 13.58-20.239 13.58s-1.796 1.021-3.458 2.101l-1.823-1.19 3.569-3.178z" fill="#AECE95"/><path d="M232.517 4.317c6.182-4.923 12.6-10.016 19.934-12.393 19.576-6.26 34.311 7.248 46.167 18.167l12.825 11.775a51.512 51.512 0 00-2.196 2.116l-12.671-11.64C285.321 2.002 271.297-10.873 253.41-5.15c-6.843 2.187-13.006 7.094-18.976 11.843-2.055 1.632-4.175 3.328-6.252 4.836l-2.374-1.537s4.608-3.996 6.709-5.675z" fill="#AECE95"/><path d="M228.887.99c6.946-5.539 14.136-11.261 22.431-13.908 21.96-7.063 38.552 8.203 51.864 20.435l12.124 11.13a56.986 56.986 0 00-2.397 1.934L301.114 9.716c-12.736-11.705-28.601-26.273-48.893-19.787-7.753 2.478-14.72 8.024-21.453 13.389-2.433 1.932-6.99 5.856-6.99 5.856l-2.141-1.587s4.847-4.683 7.25-6.597z" fill="#AECE95"/><path d="M325.931 11.42c-.452.461-.921.95-1.361 1.457-8.174-4.188-17.408-8.256-26.722-7.615-.864-.943-1.684-1.898-2.514-2.85 11.052-1.612 21.867 3.265 31.312 8.122l-.715.885z" fill="#AECE95"/><path d="M327.994 9.024l-.419.5C317.434 4.264 305.666-1.32 293.947.787a64.207 64.207 0 00-2.497-2.608c13.565-3.426 26.957 3.134 38.293 9.035-.593.594-1.187 1.188-1.749 1.809z" fill="#AECE95"/><path d="M331.226 5.82c-12.455-6.483-27.11-13.456-41.551-9.22a20.092 20.092 0 00-3.153-2.162c16.68-6.282 33.351 2.031 47.228 9.26a41.8 41.8 0 00-2.524 2.122zm-15.404 12.443a70.816 70.816 0 00-7.965-3.057 16.033 16.033 0 00-3.2-4.053 69.972 69.972 0 0114.078 5.083 68.42 68.42 0 00-2.913 2.027zm5.077-3.381l-.725.453a70.158 70.158 0 00-18.243-6.105c-.154-.135-.31-.281-.475-.413-1.123-.991-2.157-2.042-3.185-3.117 8.858.597 17.474 4.067 25.4 7.945-.913.41-1.834.833-2.772 1.237zm-67.64-10.275c-.959.321-1.898.695-2.816 1.12a6.67 6.67 0 00-1.134-.155 6.662 6.662 0 00-1.526-.166 14.649 14.649 0 00-1.265-1.083 33.526 33.526 0 015.848-2.613c15.522-5.113 27.701 3.675 37.712 12.751a6.83 6.83 0 00-.897-.1 7.406 7.406 0 00-3.653.098c-8.914-7.572-19.521-14.045-32.269-9.852z" fill="#AECE95"/><path d="M252.905 6.71c-.28-.167-.569-.324-.867-.472 12.721-3.81 23.195 1.594 32.066 8.696a6.323 6.323 0 00-1.303.62l-.143.038-.191.122c-.531.342-.91.596-1.212.83-7.499-5.755-16.106-10.026-26.067-7.978a7.396 7.396 0 00-2.283-1.855z" fill="#AECE95"/><path d="M224.625-1.273s13.823-12.517 22.193-15.195c22.157-7.116 38.888 8.276 52.337 20.624l15.99 14.64a55.214 55.214 0 00-2.405 1.948L297.146 6.4c-12.925-11.796-28.929-26.49-49.432-19.96C239.887-11.05 226.871.31 226.871.31l-7.44 6.283-1.707-1.986 6.901-5.88z" fill="#AECE95"/><path d="M182.983.267c.31-.159.65-.25.998-.268l.723-.194c.454-.053.914-.03 1.359.07.236.05.469.113.697.19 8.116-6.875 26.339 4.686 30.504 7.47a45.845 45.845 0 011.537-2.339l-.018-.065c-1.112-.818-27.619-19.663-35.8-4.864z" fill="#AECE95"/><path d="M223.383 1.373a15.51 15.51 0 00-2.169 2.085c-9.299-5.848-33.615-19.184-40.499-3.357 0 0-1.793.986-2.275-.33 6.422-21.33 36.791-3.778 44.943 1.602z" fill="#AECE95"/><path d="M228.398-.98l.741-2.9c-.846-.655-20.708-15.888-25.549-4.065l1.873 2.036c3.229-8.008 17.647.849 22.935 4.929zm19.443 52.625a5.425 5.425 0 01-2.258-.664c-15.36 15.871-36.713 15.719-47.908 14.254l-2.24 3.268c4.9.77 9.864 1.061 14.821.87a61.33 61.33 0 0018.729-3.588 50.48 50.48 0 0019.88-13.168l-1.024-.972z" fill="#AECE95"/><path d="M241.418 47.765c-12.937 11.836-29.4 13.394-40.568 12.732l-2.249 3.412a75.7 75.7 0 009.596.236 61.692 61.692 0 0018.705-3.592 50.54 50.54 0 0017.266-10.505 65.485 65.485 0 01-2.75-2.283z" fill="#AECE95"/><path d="M237.533 44.367c-9.286 7.379-20.005 10.064-29.214 10.617-1.247 1.227-2.474 2.485-3.707 3.72l2.14-.044a61.68 61.68 0 0018.705-3.593 50.886 50.886 0 0014.781-8.37c-.889-.772-1.78-1.556-2.705-2.33z" fill="#AECE95"/><path d="M232.635 41.218a49.376 49.376 0 01-16.255 7.037 5.99 5.99 0 01-.528.353c-1.194.943-2.405 1.82-3.581 2.829-.598.49-1.19 1-1.768 1.52a58.929 58.929 0 0012.858-3.083 51.878 51.878 0 0012.597-6.691 19.96 19.96 0 00-3.323-1.965zm-60.774 9.801a11.033 11.033 0 0012.463-.298c1.614-1.173 31.779-26.59 47.515-39.868l1.82 2.144c-1.858 1.58-45.575 38.466-47.659 39.989a14.434 14.434 0 01-3.436 1.79 13.341 13.341 0 01-10.718-.522c.16-1.072.166-2.161.015-3.235z" fill="#AECE95"/><path d="M231.012 5.531c-1.871 1.571-46.037 38.45-47.648 39.986-1.225 1.174-5.851 3.26-10.887.956-.288.9-.59 1.792-.917 2.678a13.956 13.956 0 0010.396.327 10.043 10.043 0 003.342-1.919c1.247-1.18 31.669-26.607 47.526-39.87l-1.812-2.158z" fill="#AECE95"/><path d="M229.929.514s-45.755 38.408-47.609 39.869a10.864 10.864 0 01-8.732 1.765 52.54 52.54 0 01-.673 2.753 13.63 13.63 0 007.843-.516 11.723 11.723 0 003.373-1.845l47.596-39.877-1.798-2.15z" fill="#AECE95"/><path d="M226.592-2.949l-47.47 39.82a17.78 17.78 0 01-4.906 1.608 4.175 4.175 0 01-.401 2.892 19.652 19.652 0 004.496-1.076c.8-.282 1.576-.628 2.321-1.033l.121-.033 47.65-40.02-1.811-2.158zM167.08 67.274c13.242 8.059 23.91 1.497 24.755.965l50.498-42.783 1.819 2.144-50.662 42.957a21.435 21.435 0 01-4.03 1.938c-4.829 1.765-13.537 3.312-23.451-2.548.367-.91.755-1.79 1.071-2.673z" fill="#AECE95"/><path d="M168.156 63.827l.131-.435c9.613 6.012 18.997 2.203 20.903.846 1.905-1.356 33.012-27.65 49.277-41.41l1.82 2.145c-1.915 1.629-47.143 39.897-49.465 41.542a14.318 14.318 0 01-3.18 1.558 23.63 23.63 0 01-20.196-1.894c.26-.74.5-1.556.71-2.352z" fill="#AECE95"/><path d="M168.688 62.041c.091-.188.266-.588.381-.771.347-.552.657-1.105.956-1.655 10.741 5.345 17.727.088 17.803.021 1.344-1.124 45.698-38.359 47.624-39.944l1.754 2.161c-.459.393-46.253 38.743-47.553 39.902a11.973 11.973 0 01-3.587 1.972c-3.821 1.4-10.02 2.087-17.446-1.632l.068-.054z" fill="#AECE95"/><path d="M171.625 55.58a13.051 13.051 0 0014.307-.123c1.754-1.528 45.731-38.367 47.603-39.938l1.812 2.158c-.462.382-45.83 38.393-47.565 39.904a11.247 11.247 0 01-3.46 1.915 16.221 16.221 0 01-13.644-1.218 15.61 15.61 0 00.947-2.698zm17.606-24.106a111.692 111.692 0 00-14.79 5.481 32.23 32.23 0 01-.488 3.316 80.874 80.874 0 0110.009-4.153 5.073 5.073 0 011.235-1.27l5.16-3.735-1.126.361zM158.286 7.62c-2.767 1.435-5.542 2.66-8.304 3.847l-4.146 1.77-2.114.884c-.37.158-.712.285-1.065.415s-.637.253-.949.407a42.168 42.168 0 00-7.312 4.522c-2.35 1.805-4.582 3.743-6.95 5.788a26.358 26.358 0 0112.841-13.513c.74-.351 1.573-.621 2.235-.87a46.744 46.744 0 012.15-.752 56.823 56.823 0 014.432-1.27 41.35 41.35 0 019.182-1.228zm49.326 6.237c-.173-.119-16.929-12.392-48.897-4.515l-.844-3.416c33.738-8.293 51.151 4.592 51.917 5.127l-2.176 2.804zm-58.566 3.378c-1.271.917-2.658 1.665-3.895 2.443a32.391 32.391 0 00-3.524 2.6 51.228 51.228 0 00-6.198 6.092 70.53 70.53 0 00-5.305 6.967c-1.689 2.473-3.168 5.031-4.873 7.662a29.777 29.777 0 012.446-8.997 32.3 32.3 0 015.081-7.94 28.25 28.25 0 017.294-6.08 20.047 20.047 0 014.43-1.893 39.268 39.268 0 014.544-.854z" fill="#AECE95"/><path d="M208.805 14.932c-7.668-4.054-27.783-11.352-59.913.493l-.471.127 1.221 3.291.439-.117c28.654-10.514 47.427-5.112 55.519-1.407a36.317 36.317 0 003.205-2.386zm-80.229 42.196c.253-.898.508-1.789.765-2.672.907-2.98 1.892-5.888 3.007-8.747a78.919 78.919 0 013.856-8.34 87.332 87.332 0 014.905-8.023 25.627 25.627 0 00-7.245 6.524 35.371 35.371 0 00-4.819 8.563 39.587 39.587 0 00-2.439 9.464 65.473 65.473 0 00-.302 3.264 17.76 17.76 0 012.272-.033z" fill="#AECE95"/><path d="M204.632 17.954c-10.469-3.67-29.013-6.325-55.313 4.157a27.268 27.268 0 00-9.337 5.959l2.394 2.578a24.086 24.086 0 018.067-5.218l.098-.027c22.538-8.992 39.184-7.848 49.525-5.05a97.192 97.192 0 014.566-2.399zM133.875 57.95c.769-2.79 1.589-5.524 2.509-8.19a74.194 74.194 0 013.439-8.229 77.293 77.293 0 014.521-7.966 23.94 23.94 0 00-6.887 6.545 33.882 33.882 0 00-4.383 8.482 39.987 39.987 0 00-2.015 8.763c.967.187 1.901.383 2.816.596z" fill="#AECE95"/><path d="M198.069 21.85c-10.417-2.556-25.846-3.062-45.973 5.013a23.953 23.953 0 00-8.749 5.742l2.441 2.531a20.673 20.673 0 017.467-4.952l.099-.026c17.038-6.836 30.572-7.173 40.308-5.493a52.99 52.99 0 014.407-2.815zM163.206.139a54.258 54.258 0 01-6.435 2.571 124.586 124.586 0 01-6.456 2.013c-2.13.606-4.387 1.176-6.604 1.676a50.604 50.604 0 01-6.871 1.078 28.811 28.811 0 015.968-3.704 42.704 42.704 0 016.498-2.424 40.697 40.697 0 016.831-1.314 26.543 26.543 0 017.069.104z" fill="#AECE95"/><path d="M212.513 10.957a31.353 31.353 0 012.595-2.47c-3.31-2.484-21.009-14.727-52.174-10.084l.517 3.468c28.231-4.185 45.169 6.312 49.062 9.086zm-55.664 19.961c-5.831 1.798-15.863 9.728-20.283 27.691.578.14 1.17.286 1.755.411a19.623 19.623 0 011.85-.249c4.121-15.874 12.795-22.817 17.807-24.337l.11-.03c12.152-4.574 22.569-5.71 31.14-5.129a34.64 34.64 0 014.097-3.448c-9.642-1.199-21.841-.396-36.476 5.09z" fill="#AECE95"/><path d="M160.314 36.439c-5.009 1.578-13.466 8.098-17.926 22.266a27.27 27.27 0 013.408.26c4.092-12.247 11.34-17.844 15.636-19.184l.088-.023a76.73 76.73 0 0120.103-4.908c.804-1.39 3.198-.787 4.522-3.045-3.031-1.62-16.789 1.176-25.831 4.634zm3.805-34.783c-5.027.984-13.131 2.722-14.8 3.38l-1.318-3.254c2.53-1.042 14.132-3.33 15.438-3.586l.68 3.46zm-4.883 7.674c-.12.032-12.73 2.46-19.791 6.868l-1.878-3.022c7.633-4.772 20.468-7.238 21.003-7.346l.666 3.5zm-24.655 20.351l-2.889-2.01a34.846 34.846 0 0118.386-12.554l.91 3.398a31.58 31.58 0 00-16.407 11.166zm-2.698 17.539l-3.357-.99c.105-.357 2.696-8.946 11.72-18.531l2.562 2.414c-8.447 9.02-10.899 17.03-10.925 17.108zm4.251 3.324l-3.362-1.013a45.43 45.43 0 0110.676-17.464l2.467 2.499a42.677 42.677 0 00-9.781 15.978zm-4.243 25.822l-2.271 1.701a10.52 10.52 0 00-1.293.923c-8.019 1.574-17.634-.536-28.726-6.315l1.309-2.49c13.769 7.177 24.965 8.428 33.304 3.702l.468.826a9.28 9.28 0 00-1.769 1.12 8.061 8.061 0 00-1.022.533z" fill="#AECE95"/><path d="M70.638 49.548c2.625 1.727 5.097 3.543 7.589 5.342l7.34 5.468 7.34 5.467c2.437 1.86 4.938 3.61 7.375 5.6a45.908 45.908 0 01-8.57-3.74 67.06 67.06 0 01-7.846-5.074 75.968 75.968 0 01-7.112-6.022 51.326 51.326 0 01-6.116-7.041zm40.263 18.877c13.12 4.884 23.566 4.386 31.087-1.507l1.142 1.456c-.932.908-1.816 1.78-2.657 2.722-.111.111-.194.24-.294.349a24.003 24.003 0 01-3.218 1.462c-7.364 2.702-16.424 2.053-27.036-1.846l.976-2.636zM79.087 51.16c2.745 1.472 5.318 3.049 7.92 4.606l7.71 4.7c2.574 1.577 5.168 3.101 7.765 4.637 2.597 1.535 5.246 2.999 7.875 4.655a41.916 41.916 0 01-8.861-2.676 61.246 61.246 0 01-8.237-4.205 69.119 69.119 0 01-7.54-5.297 47.744 47.744 0 01-6.632-6.42zm11.676 20.559c12.896 8.878 23.275 11.381 30.897 7.623l.957 1.905-.585.274a5.147 5.147 0 00-.524.329l-.97.765c-8.08 2.707-18.444-.224-30.867-8.783l1.092-2.113zM67.075 52.31c2.088 1.567 4.037 3.23 6.008 4.886 1.971 1.656 3.86 3.358 5.775 5.064a627.365 627.365 0 015.69 5.147c1.898 1.734 3.797 3.469 5.626 5.386a40.21 40.21 0 01-6.679-3.788 59.818 59.818 0 01-6.084-4.818 64.737 64.737 0 01-5.543-5.561 46.338 46.338 0 01-4.793-6.315z" fill="#AECE95"/><path d="M90.633 74.584C88.116 73.04 79.19 65.73 78.78 65.428l1.355-2.008c.093.081 9.17 7.515 11.542 8.958l-1.044 2.206zm9.719-1.547c-3.982-1.704-16.024-10.07-16.53-10.427l1.617-2.302c.117.086 12.256 8.555 16.005 10.134l-1.092 2.595zm10.482-1.645c-2.702-.697-12.612-5.711-13.74-6.278l1.281-2.505c2.977 1.551 11.12 5.535 13.163 6.056l-.704 2.727zm36.889-8.736a17.147 17.147 0 00-.808 1.897 13.621 13.621 0 00-2.159 2.212l.688-.9a15.16 15.16 0 01-1.407 1.551c-.484.212-.96.41-1.461.603-6.745 2.467-14.937 2.43-24.5-.14l.74-2.726c12.402 3.338 22.242 2.157 29.313-3.487-.069.183-.082.222 0 0l.054-.014-.175.399-.285.605z" fill="#AECE95"/><path d="M89.262 52.72c2.562 1.051 4.992 2.185 7.43 3.34l7.183 3.478 7.277 3.43c2.398 1.19 4.839 2.227 7.292 3.577a36.327 36.327 0 01-8.09-1.507 51.461 51.461 0 01-7.655-3 55.945 55.945 0 01-7.111-4.084 38.911 38.911 0 01-6.326-5.235z" fill="#AECE95"/><path d="M118.66 68.003c-4.253-.915-16.049-5.905-16.546-6.136l1.081-2.64c.119.05 12.048 5.1 16.042 5.967l-.577 2.81zm10.041-6.59c8.018 1.058 14.791.276 20.32-2.299-.117.443-.231.896-.369 1.345-.139.448-1.094 2.502-.174.622-.163.314-.298.644-.425.96l-.329.617-.045.094c-5.476 1.938-11.94 2.426-19.348 1.45l.37-2.79z" fill="#AECE95"/><path d="M98.332 52.438c2.618.779 5.146 1.663 7.636 2.534l7.491 2.691c2.482.885 4.977 1.732 7.472 2.578 2.495.847 5.033 1.635 7.611 2.659-2.723.178-5.458.02-8.142-.472a46.706 46.706 0 01-7.893-2.172 52.425 52.425 0 01-7.434-3.27 37.26 37.26 0 01-6.741-4.548z" fill="#AECE95"/><path d="M128.861 64.306c-3.219-.17-14.304-3.425-15.555-3.794l.795-2.693c3.318.979 12.459 3.556 14.912 3.674l-.152 2.813zm20.297-5.649l-.042.152a45.171 45.171 0 01-13.807 1.117l.166-2.806c4.926.37 9.879-.161 14.615-1.568-.331 1.005-.658 2.02-.932 3.105z" fill="#AECE95"/><path d="M107.374 50.956c2.487.508 4.786 1.148 7.115 1.77l6.949 1.895c2.313.65 4.617 1.265 6.935 1.889 2.318.624 4.668 1.192 7.052 1.974-2.46.387-4.959.453-7.435.196a41.163 41.163 0 01-7.295-1.345 44.342 44.342 0 01-6.957-2.54 30.315 30.315 0 01-6.364-3.84z" fill="#AECE95"/><path d="M135.92 60.019c-3.841-.251-13.63-2.22-14.064-2.35l.577-2.763c.088-.023 10.002 2.018 13.664 2.305l-.177 2.808zM427.873 25.68c.323-.104.613-.287.845-.532l-1.457-1.537.504-2.027c-1.264-.33-27.776-8.911-45.298-14.602-1.177-.401-29.84-9.991-49.795 4.654l-22.791 17.532a69.213 69.213 0 01-21.876 9.707c-17.001 4.205-32.45.944-45.925-9.698l-1.229-1.08-2.785 3.167 1.353 1.188c18.183 14.398 37.094 13.64 49.755 10.481a72.01 72.01 0 0023.241-10.402l22.791-17.532c18.148-13.315 45.648-4.118 45.926-4.087l22.72 7.411 15.633 5.046 5.144 1.653c1.822.569 2.63.822 3.244.658z" fill="#AECE95"/><path d="M291.293 28.877a49.071 49.071 0 0012.204-4.952l-2.207-3.59c-.224.13-22.726 13.553-46.708.104L235.75 8.441l-2.28 3.56 18.991 12.108a50.867 50.867 0 0018.937 6.265c6.664.818 13.426.31 19.895-1.497z" fill="#AECE95"/><path d="M291.656 22.46a36.374 36.374 0 007.996-3.06l-2.065-3.675c-.767.428-18.918 10.3-41.194-2.09l-15.111-9.378-2.227 3.582 15.228 9.463c15.455 8.603 29.169 7.358 37.373 5.159z" fill="#AECE95"/><path d="M421.803 30.76l.671-1.885 1.133-1.96c-.289-.158-.359-.198-40.256-12.452-1.174-.39-30.174-9.878-50.428 4.835l-23.174 17.635a71.496 71.496 0 01-22.227 9.801c-17.275 4.28-32.947 1.066-46.57-9.56l-5.339-4.444-2.666 3.217 5.43 4.561c18.327 14.324 37.497 13.568 50.327 10.293a74.41 74.41 0 0023.576-10.469l23.172-17.646c18.474-13.414 46.342-4.292 46.624-4.203 10.774 3.316 38.838 11.986 39.727 12.276z" fill="#AECE95"/><path d="M417.846 36.705a1.84 1.84 0 001.207-1.158l-1.942-.842.504-2.027c-.902-.252-23.882-7.405-32.666-10.139-1.21-.392-30.522-9.773-51.045 4.99l-23.071 17.406c-.873.335-1.722.731-2.539 1.186-26.263 13.387-49.033 13.252-67.681-.422l-11.052-8.53-2.575 3.335 11.096 8.565c20.114 14.714 44.368 14.992 72.166.794l.088-.023.173.647 25.938-19.563c18.723-13.492 47-4.468 47.26-4.374l16.4 5.099 11.255 3.492 3.696 1.16c.879.374 1.84.513 2.788.404zm-32.863-42.8a34.045 34.045 0 00-9.438-4.52 45.17 45.17 0 00-10.299-1.938 38.673 38.673 0 00-10.504.853c-.855.23-1.711.46-2.555.685-.845.227-1.67.613-2.491.927l-1.215.513a12.57 12.57 0 00-1.16.629c-.764.44-1.514.887-2.238 1.387 3.514-.355 6.765-.768 10.074-.833 3.31-.064 6.56-.043 9.844.193s6.564.59 9.866.938l10.116 1.166zm.75-1.968l52.081 19.229-1.466 3.96-52.082-19.229 1.467-3.96z" fill="#AECE95"/><path d="M410.789 42.824l1.364-3.997c-.814-.275-31.941-10.33-33.267-10.762l-.066.018c-1.104-.304-27.219-7.402-46.381 8.357l-12.712 10.787 2.718 3.172 12.696-10.759c17.119-14.083 41.403-7.81 42.495-7.55l33.153 10.734z" fill="#AECE95"/><path d="M357.185 68.95c1.623-.434 2.597-.79 2.778-.862l.121-.032 47.946-20.739-.749-1.832-.587-2.192c-.208.056-.263.07-48.228 20.826-1.074.381-22.619 7.72-42.821-5.523l-12.751-8.684-2.372 3.479 12.755 8.742c18.225 11.964 36.965 8.679 43.908 6.818z" fill="#AECE95"/><path d="M357.047 61.095c1.623-.435 2.597-.79 2.781-.851l.077-.02s11.556-4.826 23.084-9.715l15.866-6.603 5.278-2.238c2.511-1.073 3.662-1.558 3.181-3.356l-2.04.547-.97-1.867c-1.249.605-28.147 11.882-45.95 19.37-.923.33-22.55 7.76-42.804-5.505l-5.663-4.029-2.452 3.443 5.796 4.086c18.149 11.856 36.851 8.605 43.816 6.738z" fill="#AECE95"/><path d="M356.967 53.599c1.612-.433 2.587-.788 2.778-.863l18.387-7.503c4.591-1.865 9.176-3.752 12.617-5.168l4.158-1.726c1.893-.79 3.266-1.37 2.785-3.167l-2.041.547-.969-1.867c-1.137.54-22.435 9.246-36.469 14.959-.165.044-22.208 7.986-42.814-5.538l-2.31 3.533c18.195 11.939 36.924 8.657 43.878 6.793z" fill="#AECE95"/><path d="M355.686 45.871c1.097-.294 1.832-.49 1.975-.53l.098-.026c17.571-6.602 28.383-10.476 28.89-10.647l-.594-1.733-.631-2.358c-.329.088-11.804 4.21-29.094 10.714-1.031.277-18.491 5.58-28.863.604l-1.823 3.815c10.03 4.797 24.745 1.581 30.042.161z" fill="#AECE95"/><path d="M351.634 39.568c2.512-.673 4.237-1.3 4.439-1.378l18.228-6.825-1.481-3.952-18.261 6.835c-3.843 1.406-15.073 4.51-20.57 1.894l-1.812 3.812c5.593 2.626 14.225 1.017 19.457-.386zm79.243-18.815l1.378-3.988-50.402-17.38c-1.175-.437-30.013-10.86-49.804 4.222l-22.602 17.975a66.483 66.483 0 01-21.711 9.839c-16.951 4.169-32.442.531-46.069-10.81l-10.5-8.488-2.648 3.283 10.495 8.467c18.332 15.308 37.269 14.825 49.886 11.63a68.86 68.86 0 0023.191-10.588L334.65 6.87c17.887-13.632 45.506-3.68 45.78-3.578l50.447 17.46zm-74.309 56.124c1.612-.432 2.587-.787 2.768-.86l.109-.028 37.222-16.183-1.683-3.873-37.214 16.122c-1.074.382-22.622 7.71-42.82-5.521l-19.621-13.539-2.38 3.54 19.655 13.53c18.238 11.97 36.978 8.685 43.964 6.812z" fill="#AECE95"/><path d="M354.625 84.644a32.967 32.967 0 003.252-1.025l26.163-10.856-1.609-3.904-26.133 10.836a53.239 53.239 0 01-24.822 1.713 53.184 53.184 0 01-22.879-9.754l-21.958-16.952-2.627 3.36 21.949 16.965a57 57 0 0023.227 10.376 57.052 57.052 0 0025.437-.76z" fill="#AECE95"/><path d="M353.579 92.462a33.592 33.592 0 003.252-1.025l.099-.026 16.437-7.273-1.702-3.856-16.385 7.248a54.634 54.634 0 01-25.15 1.815 54.578 54.578 0 01-23.277-9.672L276.136 56.34l-2.555 3.364 30.755 23.344a58.22 58.22 0 0023.553 10.275 58.275 58.275 0 0025.69-.862z" fill="#AECE95"/><path d="M352.812 100.193c1.92-.514 3.083-.955 3.252-1.024l.066-.018 5.079-2.149-.653-1.692-.622-2.324c-.186.05-.263.07-5.421 2.275a55.656 55.656 0 01-25.39 1.89 55.604 55.604 0 01-23.565-9.616c-11.536-8.584-41.773-31.091-42.845-31.978l-1.29 1.59-2.117.568c.2.745.2.745 7.537 6.203l14.776 11.028 21.486 15.984a59.151 59.151 0 0023.81 10.207 59.203 59.203 0 0025.897-.944z" fill="#AECE95"/><path d="M270.111 95.755a109.332 109.332 0 0025.823-10.941l-2.152-3.653c-16.995 9.714-33.008 14.007-47.589 12.759-13.402-1.106-20.855-6.686-22.219-7.788-6.37-5.177-21.991-20.151-22.148-20.297l-2.924 3.04c.649.625 15.907 15.25 22.413 20.542 2.293 1.805 19.096 14.301 48.796 6.338z" fill="#AECE95"/><path d="M268.739 88.864a111.37 111.37 0 0021.862-8.657l-1.932-3.747c-18.401 9.468-44.363 17.474-63.561 1.873-6.14-4.98-13.196-11.535-13.87-12.295.301.415.438.926.385 1.436l-4.204-.247c-.069 1.193-.08 1.196 5.332 6.09 1.969 1.821 5.817 5.219 9.63 8.309 13.988 11.288 30.871 11.39 46.358 7.238z" fill="#AECE95"/><path d="M269.66 82.121a79.037 79.037 0 0015.453-6.034l-1.913-3.764c-27.42 13.978-45.928 6.533-56.635-2.157-2.188-1.763-3.84-3.106-4.912-3.947-1.071-.84-2.254-1.745-3.589-.718l-1.331 1.086 1.531 3.043.658-.176c.748.598 2.21 1.757 4.957 3.981 12.764 10.36 28.639 13.282 45.781 8.686zM219.45 67.21l1.336 1.522-1.336-1.522z" fill="#AECE95"/><path d="M273.336 74.03c2.04-.547 4.166-1.184 6.378-1.91l-1.319-4.005c-31.266 10.239-42.129 1.097-48.622-4.365a48.36 48.36 0 00-1.346-1.12l-2.65 3.273c.418.334.843.69 1.287 1.076 6.25 5.256 17.537 14.755 46.272 7.05z" fill="#AECE95"/><path d="M272.481 67.763l1.273-.341-1.147-4.063c-21.25 6.026-29.772.58-34.807-2.687a38.811 38.811 0 00-1.723-1.078l-2.113 3.657c.476.284.999.613 1.567.978 5.147 3.331 14.774 9.48 36.95 3.534z" fill="#AECE95"/><path d="M266.816 62.716l-.759-4.155c-15.813 2.888-24.337-2.874-24.403-2.857l-2.418 3.48c.392.236 9.892 6.747 27.58 3.532zm23.465-46.266a26.857 26.857 0 004.174-1.447l-1.82-3.812c-.626.297-15.468 7.072-34.467-3.612L246.889.57l-2.227 3.581 11.391 7.073c15.073 8.494 27.911 6.92 34.228 5.227zm55.777 89.403a69.944 69.944 0 01-11.11 1.088 52.502 52.502 0 01-10.698-1.056 74.823 74.823 0 01-10.442-3.004c-3.455-1.271-6.837-2.796-10.469-4.243a37.313 37.313 0 0020.07 11.349c3.891.793 7.894.867 11.812.217a26.576 26.576 0 0010.837-4.351z" fill="#AECE95"/><path d="M346.903 107.884a38.763 38.763 0 0012.924-8.588l76.627-82.009c29.947-34.055 62.994-19.943 63.327-19.797l.21.084 93.822 30.191 1.269-4.041-93.693-30.108a52.872 52.872 0 00-21.98-3.332c-11.85.569-29.407 5.24-46.086 24.177l-76.615 81.923a35.368 35.368 0 01-11.448 7.558l1.643 3.942zm11.287-1.292a68.711 68.711 0 01-10.15 5.072 49.507 49.507 0 01-21.4 3.492c-3.79-.264-7.562-.735-11.299-1.413a30.126 30.126 0 0010.838 4.698 32.054 32.054 0 0023.355-3.829 26.6 26.6 0 008.656-8.02z" fill="#AECE95"/><path d="M359.688 108.133c.318-.309.48-.493.48-.493l77.149-82.079c12.626-14.313 27.176-22.009 43.243-22.897 6.965-.46 13.948.56 20.49 2.99l.207.074 89.317 28.602 1.275-4.02-89.247-28.56a52.928 52.928 0 00-22.043-3.303c-11.975.625-29.61 5.318-46.365 24.274l-77.119 82.059-.342.35 2.955 3.004z" fill="#AECE95"/><path d="M382.837 92.118a57.663 57.663 0 00-7.578 5.944 101.788 101.788 0 00-6.68 6.748 93.936 93.936 0 00-6.001 7.354 57.044 57.044 0 00-5.104 8.159 56.543 56.543 0 007.577-5.944 96.661 96.661 0 006.67-6.746 99.745 99.745 0 006.001-7.353 58.116 58.116 0 005.115-8.162z" fill="#AECE95"/><path d="M384.41 93.554l54.192-60.29c10.874-13.349 23.927-21.102 38.707-23.02a47.693 47.693 0 0119.112 1.139l1.281-3.998a51.032 51.032 0 00-20.721-1.353c-10.963 1.377-27.085 6.757-41.629 24.531l-54.094 60.17 3.152 2.821zm9.472-2.904a62.257 62.257 0 00-7.694 6.386 110.228 110.228 0 00-6.833 7.189 102.98 102.98 0 00-6.146 7.78 60.55 60.55 0 00-5.24 8.571 61.766 61.766 0 007.694-6.386 103.31 103.31 0 006.833-7.189 115.265 115.265 0 006.145-7.78 61.473 61.473 0 005.241-8.571z" fill="#AECE95"/><path d="M395.492 92.05l45.69-52.7c20.024-25.189 42.308-23.397 42.504-23.368l.405-4.196c-1.001-.096-24.788-2.013-46.226 24.917l-45.613 52.596 3.24 2.75zm7.435-1.252a54.177 54.177 0 00-7.259 5.905 93.447 93.447 0 00-12.018 13.948 54.306 54.306 0 00-4.756 8.054 53.223 53.223 0 007.273-5.898 88.004 88.004 0 006.345-6.682 90.899 90.899 0 005.659-7.273 54.321 54.321 0 004.756-8.054z" fill="#AECE95"/><path d="M404.538 92.2l45.258-52.562c24.42-28.306 61.494-30.327 61.822-30.332l-.188-4.215c-1.59.074-39.133 2.056-64.83 31.785l-45.266 52.576 3.204 2.748zm-19.96-96.166l1.402-3.982c-.559-.203-13.835-4.832-22.658-4.686l.072 4.221c8.074-.132 21.053 4.4 21.184 4.447zm-43.229 113.56a45.515 45.515 0 005.886-1.989l-1.694-3.87c-.143.039-13.983 5.993-23.927 1.516l-1.743 3.851c7.283 3.276 15.896 1.989 21.478.492zm.271 8.468a47.78 47.78 0 0018.392-10.336l-2.901-3.064c-.103.098-9.905 9.235-21.407 10.181l.35 4.206a31.287 31.287 0 005.566-.987zm40.387-28.472l3.119 2.832-14.931 16.413-3.119-2.833 14.931-16.413zm10.736-.8l3.187 2.768-15.134 17.398-3.186-2.767 15.133-17.398z" fill="#AECE95"/><path d="M401.553 89.11l3.214 2.734-13.539 15.88-3.213-2.735 13.538-15.88zm24.36-5.105a57.927 57.927 0 00-7.599 6.126 98.926 98.926 0 00-6.697 6.906 94.397 94.397 0 00-6.035 7.491 58.683 58.683 0 00-5.113 8.302 57.78 57.78 0 007.594-6.1 95.971 95.971 0 006.695-6.917 115.965 115.965 0 006.023-7.49 57.173 57.173 0 005.132-8.318zm1.589 1.41l36.8-41.691c3.859-4.642 11.778-9.443 14.764-11.242 1.578-.952 2.609-1.581 2.19-3.148l-4.08 1.093a2.072 2.072 0 01.74-2.195l-1.005.633c-3.147 1.901-11.502 6.961-15.78 12.102l-36.762 41.658 3.133 2.79z" fill="#AECE95"/><path d="M425.178 81.71l3.163 2.794-15.598 17.625-3.163-2.794 15.598-17.625zm-10.66 6.053a43.877 43.877 0 00-6.583 5.007 74.529 74.529 0 00-5.677 5.799 70.804 70.804 0 00-5.001 6.392 41.953 41.953 0 00-4.081 7.191 41.418 41.418 0 006.582-5.007 67.244 67.244 0 005.677-5.798 70.652 70.652 0 005.001-6.392 43.2 43.2 0 004.082-7.192z" fill="#AECE95"/><path d="M416.118 89.177l40.214-45.888c21.714-24.76 54.266-26.591 54.58-26.605l-.199-4.211c-1.403.07-34.739 1.959-57.58 27.997L412.93 86.4l3.188 2.777z" fill="#AECE95"/><path d="M413.132 86.103l3.191 2.76-12.025 13.874-3.191-2.761 12.025-13.873zM59.523 89.715c-3.86.2-7.685.83-11.404 1.882a69.938 69.938 0 00-10.838 3.999 65.633 65.633 0 00-10.007 5.785 47.242 47.242 0 00-8.65 7.69c3.585-1.537 6.956-3.217 10.342-4.841 3.385-1.625 6.73-3.226 10.102-4.812l10.18-4.703c3.41-1.62 6.846-3.187 10.275-5z" fill="#AECE95"/><path d="M118.669 84.061c26.674-7.15 33.691-26.916 34.011-27.918 4.871-14.784 4.768-14.991 4.287-15.955l-3.781 1.86a1.876 1.876 0 01-.206-1.12c-.158.947-2.298 7.795-4.269 13.87-.344.997-9.034 25.053-45.102 27.367a150.591 150.591 0 00-43.797 5.232l-.856.23 1.092 4.078.822-.22a147.329 147.329 0 0142.58-5.082l.27-.002a76.196 76.196 0 0014.949-2.34zM83.51 92.759a43.31 43.31 0 00-9.047-.643 58.585 58.585 0 00-8.95.906 49.19 49.19 0 00-8.775 2.353 36.01 36.01 0 00-8.086 4.177 80.647 80.647 0 008.932-.972c2.893-.435 5.763-.91 8.633-1.433 2.87-.522 5.752-1.083 8.624-1.77a61.896 61.896 0 008.669-2.618z" fill="#AECE95"/><path d="M121.221 91.049a54.904 54.904 0 0029.077-19.427 62.15 62.15 0 0010.5-19.534l3.304-12.952-4.081-1.02-3.303 12.869a58.952 58.952 0 01-9.837 18.146 50.084 50.084 0 01-37.827 19.54c-10.197.596-18.63 1.235-25.765 1.938l.419 4.2c7.071-.721 15.442-1.332 25.591-1.927a59.066 59.066 0 0011.922-1.833zm-6.619 5.699a47.784 47.784 0 00-7.738-.757 91.434 91.434 0 00-7.577.15c-2.506.155-5.009.391-7.51.71a60.349 60.349 0 00-7.614 1.418 27.69 27.69 0 007.633 1.902 45 45 0 007.725.185 49.46 49.46 0 007.64-1.06 32.039 32.039 0 007.441-2.548z" fill="#AECE95"/><path d="M123.134 97.35c13.468-3.612 25.14-12.262 34.123-25.385a84.392 84.392 0 0011.227-23.357l-.023-.087 2.582-12.006-4.126-.879-2.564 11.942A81.938 81.938 0 01153.654 69.7c-10.181 14.794-23.388 23.199-39.28 24.957l.466 4.198a55.452 55.452 0 008.294-1.507zm13.161-.686c-3.062.55-5.927 1.224-8.795 1.794-2.869.569-5.686 1.113-8.534 1.582-2.849.47-5.712.885-8.624 1.29-2.913.405-5.84.801-8.889 1.442a31.48 31.48 0 009.001 1.877c3.071.215 6.156.066 9.192-.442a36.99 36.99 0 008.861-2.599 27.716 27.716 0 007.788-4.944z" fill="#AECE95"/><path d="M137.249 98.558c29.345-14.728 36.618-48.419 36.92-49.839l3.233-14.27-4.088-.96-3.288 14.332c-.076.373-7.188 33.175-34.678 46.97l1.901 3.767zm-101.796 2.548c8.796-5.037 25.137-9.512 25.302-9.556l-1.092-4.08c-.702.189-17.032 4.66-26.294 9.976l2.084 3.66zm49.009-6.323l-.317-4.216c-.6.043-14.847 1.137-20.402 2.826l1.223 4.043c5.144-1.555 19.354-2.615 19.496-2.653zm31.271 3.953l-.691-4.163c-.11.03-11.382 1.877-17.206 1.594l-.2 4.213c6.262.295 17.614-1.562 18.097-1.644z" fill="#AECE95"/><path d="M125.268 103.205a62.222 62.222 0 0012.68-5.021l-2.046-3.694c-.099.027-9.802 5.366-19.157 5.9l.234 4.214a41.421 41.421 0 008.289-1.399z" fill="#AECE95"/></svg>