<svg width="401" height="306" fill="none" xmlns="http://www.w3.org/2000/svg"><path d="M71.388 175.747s-21.315-9.989-30.438-10.515c-24.56-1.315-37.368 19.015-47.718 35.226l-11.14 17.525c1.052.701 2.192 1.402 3.245 2.103l11.14-17.525c9.737-15.335 21.93-34.525 44.21-33.386 8.509.438 29.21 9.989 29.21 9.989s2.544.614 4.912 1.402l1.842-2.015-5.263-2.804z" fill="#E6F0E0"/><path d="M68.318 167.773c-9.21-4.031-18.684-8.149-28.509-8.587-26.052-1.227-39.648 20.154-50.613 37.416l-11.842 18.577 3.421 1.84 11.667-18.401c10.438-16.386 23.333-36.716 47.192-35.577 9.123.439 18.245 4.382 27.105 8.237 3.07 1.315 6.228 2.717 9.298 3.856l2.368-2.629c-.087 0-6.93-3.33-10.087-4.732z" fill="#E6F0E0"/><path d="M-17.207 194.938c3.334-5.17 6.842-10.778 10.79-16.036 1.14.088 2.28-.526 2.982-1.577.526-.789.526-1.753.263-2.629 10.263-12.618 23.509-22.783 42.806-21.819 11.053.526 21.755 5.17 32.017 9.639 3.597 1.577 10.965 5.695 10.965 5.695l-2.017 2.717s-6.842-3.33-10.439-4.907c-10-4.381-20.35-8.85-30.701-9.376-27.017-1.315-41.666 21.731-53.42 40.308l-10.877 17.087c-1.14-.526-2.369-1.051-3.597-1.577l11.228-17.525z" fill="#E6F0E0"/><path d="M-11.856 173.907c0 .526 8.07-.526 8.07-.613.877 0 1.754.087 2.72.175-.702.701 3.596 3.154-10.965 3.417-4.386 0 .175-3.505.175-2.979zm54.823 1.051c1.316.088 2.544.263 3.86.439.439-.176.877-.439 1.316-.526.614-.351 1.228-.526 1.842-.701.35-.614.79-1.139 1.228-1.753a42.125 42.125 0 00-7.982-1.314c-20.702-1.139-32.72 13.582-42.017 28.04.35-.175.701-.263 1.052-.438 1.404-.701 2.895-1.051 4.562-1.051 8.333-12.268 19.21-23.659 36.14-22.696z" fill="#E6F0E0"/><path d="M44.108 177.412c.263-.35.614-.613.877-.876-16.841-.526-27.894 9.552-36.403 21.206.79.087 1.228.175 1.842.35h.176c.088 0 .175.088.263.088.79.263 1.316.438 1.754.613 7.281-9.551 16.404-17.525 29.298-18.314.526-1.139 1.316-2.19 2.193-3.067z" fill="#E6F0E0"/><path d="M-13.347 189.505c2.193-3.418 6.93-10.603 6.93-10.603l1.579-2.454s1.93-1.051 1.578-2.015c10.965-14.984 25.176-28.391 47.28-27.34 11.14.526 32.193 11.304 32.193 11.304l10.438 4.995-1.49 2.979-11.141-5.257s-19.649-9.639-30.087-10.165c-27.193-1.314-42.017 21.994-53.86 40.659l-14.56 22.695c-1.14-.526-2.369-1.139-3.597-1.577l14.737-23.221z" fill="#E6F0E0"/><path d="M127.703 146.568c-.526-.088-.438-.088-1.316-.088-.263 0-.614 0-.965.088a6.125 6.125 0 00-1.666.526 7.86 7.86 0 00-.79.438c-12.192-5.784-30.701 14.371-34.911 19.19l-2.632-2.366-.088-.088c1.14-1.314 27.456-33.122 42.368-17.7z" fill="#E6F0E0"/><path d="M117.089 135.702c6.053-.438 11.667 1.928 15.965 8.762-.176 1.753-2.72 1.14-2.72 1.14-3.771-4.732-8.42-6.31-13.42-5.871.614-1.14.789-2.804.175-4.031zm-14.737 5.17c0 .614.088 1.227.176 1.84.175.789.614 1.402 1.228 1.753-8.947 5.257-17.28 13.494-21.93 18.489-1.052-.701-2.193-1.402-3.333-1.84 4.035-4.381 13.509-14.108 23.859-20.242z" fill="#E6F0E0"/><path d="M71.652 159.974l-1.93-3.417c.79-1.051 20.263-26.288 30-13.407l-1.58 3.067c-6.578-8.587-21.402 7.01-26.49 13.757zm-6.579 70.89c.877-.263 1.754-.788 2.544-1.577 24.034 14.371 50.174 7.185 63.332 1.753 1.228 1.051 2.544 2.19 3.772 3.242-4.386 1.928-10.526 4.293-17.895 5.958-8.333 1.841-16.403 2.454-24.122 1.753-10.35-.964-20-4.119-28.684-9.551l1.053-1.578z" fill="#E6F0E0"/><path d="M71.652 223.942c19.736 10.252 40.438 6.747 53.859 2.278 1.315 1.139 2.543 2.278 3.859 3.417-3.421 1.227-7.368 2.454-11.666 3.418-8.334 1.84-16.404 2.453-24.123 1.752-8.772-.788-17.017-3.242-24.649-7.273 1.053-1.139 1.93-2.366 2.72-3.592z" fill="#E6F0E0"/><path d="M75.336 218.509c13.772 5.959 27.806 5.696 39.297 3.418 1.93 1.051 3.86 2.19 5.79 3.329-.877.263-1.755.439-2.632.614-8.333 1.84-16.403 2.453-24.122 1.752-7.368-.701-14.298-2.453-20.877-5.432.79-1.14 1.667-2.454 2.544-3.681z" fill="#E6F0E0"/><path d="M80.248 213.076c7.543 2.629 15.175 3.505 22.192 3.242l.79.263c1.754.789 3.508 1.49 5.35 2.279l2.632 1.314c-5.702.789-11.316.964-16.754.438-6.14-.526-12.018-1.928-17.632-4.031a25.967 25.967 0 013.422-3.505zm77.719-7.974c-6.316 6.747-13.86 4.294-15.351 3.68-2.368-.876-47.63-22.081-71.314-33.21l-1.492 3.242c2.807 1.315 68.42 32.159 71.49 33.298a17.43 17.43 0 004.825 1.052c3.509.35 8.421-.263 12.895-4.119a14.472 14.472 0 01-1.053-3.943z" fill="#E6F0E0"/><path d="M70.6 168.825c2.806 1.314 69.033 31.983 71.49 33.298 1.929 1.051 8.245 2.103 13.684-2.366.614 1.051 1.315 2.015 2.017 2.979a17.462 17.462 0 01-12.631 3.768c-2.018-.175-3.685-.701-4.737-1.227-1.93-1.051-47.456-22.169-71.315-33.21l1.491-3.242z" fill="#E6F0E0"/><path d="M70.248 162.253s55.35 25.762 68.596 31.984c.614 1.051 2.017 1.664 3.333 1.489 2.017.701 6.403 1.315 10.701-.964.527 1.052 1.141 2.103 1.755 3.155a17.578 17.578 0 01-9.825 1.928c-2.105-.176-3.771-.701-4.736-1.139-2.72-1.227-71.403-33.299-71.403-33.299l1.58-3.154z" fill="#E6F0E0"/><path d="M139.546 188.891c-.176.876-.439 1.753-.702 2.629L71.74 160.237l1.491-3.242 66.315 30.844v1.052zm5.263 4.732l.789-2.629c.088-.175.176-.351.176-.613 1.228.175 3.07.35 5.175.087.088 1.227.527 2.366 1.491 3.418-2.193.35-4.298.263-5.877.175a46.702 46.702 0 01-1.842-.263c.088 0 .088-.088.088-.175zm24.385 29.793c-13.596 14.195-28.859 9.726-30 9.288l-75.876-35.839-1.49 3.242 76.138 35.927c.088 0 2.193.789 5.614 1.052 6.491.613 17.632-.351 27.895-10.778-.878-.964-1.667-1.928-2.281-2.892z" fill="#E6F0E0"/><path d="M166.738 219.561c-.088-.176-.176-.351-.263-.438-9.825 10.515-22.544 8.937-25.351 7.886-2.632-.964-49.473-22.958-73.946-34.525l-1.491 3.242c2.894 1.402 70.876 33.386 74.209 34.613.877.35 2.368.701 4.386.876 5.877.526 15.789-.526 24.122-8.938-.614-.876-1.14-1.84-1.666-2.716z" fill="#E6F0E0"/><path d="M165.51 217.545c-.176-.175-.527-.613-.702-.788l-1.754-1.753c-11.404 10.077-21.667 5.959-21.842 5.871-2.018-1.052-68.596-31.984-71.49-33.298l-1.491 3.242c.701.351 69.384 32.247 71.314 33.211.965.525 2.72 1.051 5 1.226 5.263.526 13.07-.701 20.965-7.711z" fill="#E6F0E0"/><path d="M159.72 210.623c-7.017 7.273-15.702 5.432-17.544 4.556-2.631-1.314-68.595-31.984-71.402-33.298l-1.491 3.242c.701.351 68.771 31.984 71.402 33.211 1.14.525 2.807 1.051 4.825 1.226 4.649.439 10.964-.701 16.315-5.958-.789-.964-1.491-1.928-2.105-2.979zm-14.122-19.629c.088-.175.176-.438.263-.701.088-.613.264-1.402.527-2.103 1.315.175 2.631.351 3.859.614a29.714 29.714 0 001.579 3.855c-1.93-.438-4.035-.788-6.403-1.051.088-.263.087-.439.175-.614zm-15.263-4.118c3.333.087 6.403.262 9.21.525v1.49c-.176.701-.351 1.314-.526 2.015-.264 0-.527 0-.79-.087-.526-.438-1.14-.876-1.93-1.139-2.543-.964-5-1.928-7.543-2.892l1.579.088zm19.473-41.01c-.088 1.14 0 2.366.088 3.505 0 .351.087.614.087.964-34.21 3.681-47.981 20.768-48.069 20.943l-3.509-2.716c.702-.789 15.088-18.928 51.403-22.696zm35.175 12.619c.175-.614.175-1.139.088-1.577.263-.176.526-.263.701-.439.351.088.614.176.965.263 3.948 1.052 7.632 2.804 10.965 4.995a43.123 43.123 0 018.86 8.062c2.456 3.067 4.561 6.484 5.964 10.252-2.982-2.629-5.614-5.345-8.508-7.799-2.807-2.453-5.79-4.732-8.772-6.835-3.07-2.103-6.228-3.943-9.561-5.433-.351-.175-.614-.262-.965-.438 0-.35.175-.701.263-1.051z" fill="#E6F0E0"/><path d="M150.861 153.753c.526 1.577 1.228 3.067 2.105 4.381-25.438 1.753-40.438 11.041-47.368 16.825-1.579-.526-3.158-1.14-4.737-1.928 6.404-5.959 21.93-17.087 50-19.278zm62.104 44.602c-.614-1.052-1.228-2.015-1.842-2.979-2.105-3.33-4.21-6.572-6.579-9.727-2.28-3.154-4.737-6.134-7.456-8.938-2.631-2.891-5.614-5.52-8.684-8.237 3.947 1.052 7.719 3.067 11.053 5.608 3.333 2.542 6.228 5.608 8.684 8.938 2.456 3.33 4.561 7.01 6.052 10.778a68.18 68.18 0 011.404 3.856c-.79.175-1.755.438-2.632.701zm-30.789-34.876c2.106.614 4.562 1.578 7.281 3.067l-2.105 3.943c-3.772-2.015-6.93-2.891-9.123-3.329 1.491-1.227 2.807-2.366 3.947-3.681zm-16.052.526c-.526.614-1.053 1.139-1.491 1.84-.79 0-1.579-.087-2.281-.087.176-.176.439-.351.614-.438.702-.439 1.491-.789 2.193-1.227.263-.088.614-.088.965-.088z" fill="#E6F0E0"/><path d="M154.37 161.289c-.702 1.489-1.316 3.067-1.842 4.556-17.894 1.052-30.701 5.959-39.122 10.866-2.105-.526-4.211-.964-6.404-1.402 9.035-6.134 24.211-13.144 47.368-14.02zm52.367 39.87a163.076 163.076 0 00-5.79-9.201c-2.105-3.154-4.385-6.133-6.929-8.937-2.456-2.892-5.176-5.521-8.158-8.237 3.86 1.139 7.456 3.154 10.614 5.783 3.158 2.541 5.877 5.608 8.158 8.938 2.193 3.154 3.947 6.572 5.35 10.165-1.052.35-2.193.876-3.245 1.489z" fill="#E6F0E0"/><path d="M176.475 169.263c2.368.438 5.964 1.49 10.35 3.856l-2.193 3.855c-5.526-3.067-9.649-3.505-10.789-3.592h-.175c-.351-.088-.702-.088-1.053-.088 1.579-.964 2.895-2.366 3.86-4.031zm-14.123 3.067c0 .087 0 .087 0 0-.088.087-.176.175-.176.263-1.403 0-2.807-.088-4.123 0 .878-1.49 1.755-2.98 2.457-4.469.964 0 1.929 0 2.894.087v.088c-.614 1.227-.965 2.541-1.052 4.031zm-10.964-4.031c-.176.263-.263.526-.351.876-.965 1.314-1.842 2.629-2.719 3.943-10.527 1.139-18.948 3.768-25.614 6.835-2.018-.788-4.211-1.402-6.316-2.015 8.158-4.469 19.649-8.588 35-9.639zm.262-30.582l.087.439c-.087.175-.175.35-.263.613-.526 1.139-.877 2.366-1.14 3.68-34.736 4.557-51.49 22.433-55.263 26.989a59.41 59.41 0 00-4.034-2.19c3.157-4.206 20.876-24.974 60.613-29.531zm17.807 40.309c.088-.088.263-.176.351-.176.877-.525 1.316-1.314 1.491-2.103 8.07.964 21.842 7.799 32.456 27.077-.702.35-1.316.701-2.018 1.051l-2.368.263c-10.263-18.051-23.158-23.747-29.824-23.922h-.176c-.614-.087-1.14-.087-1.666-.175.702-.613 1.316-1.227 1.754-2.015zm-12.193-1.928a3.618 3.618 0 00-.614 3.592c-1.053 0-2.105.088-3.158.088a2.66 2.66 0 001.053-1.139c.614-1.139 1.228-2.191 1.754-3.33.088-.088.175-.175.175-.35h1.93c-.351.35-.789.701-1.14 1.139zm-10.702-.526c-.087.175-.175.263-.35.438-.878.613-1.755 1.314-2.456 2.015a6.179 6.179 0 01-.878.701c-.263.263-.526.526-.614.789h-.087c-.79.438-1.228.964-1.404 1.577-4.035.789-7.719 1.753-11.14 2.892-1.93-1.139-4.035-2.016-6.14-2.804 6.315-2.454 14.035-4.557 23.069-5.608zm-6.491 8.587a13.482 13.482 0 00-.526 3.768c-1.491-.35-3.509.176-5.351-1.664.877-.877 2.983-1.578 5.877-2.104z" fill="#E6F0E0"/><path d="M147.352 186.788c1.316-.876 1.666-2.278 1.316-3.505.087-.087.175-.087.263-.175 5.965-.351 12.807-.263 18.333.351 6.666.262 19.21 5.52 29.298 21.38a57.355 57.355 0 00-4.123 1.49c-9.035-13.67-19.737-18.226-25.438-18.402h-.176c-7.456-.788-14.298-.788-20.35-.175.35-.438.614-.701.877-.964zm4.035-48.107c-.088.263-.263.614-.351.876l-.176-2.015c.176 0 .527 0 1.053-.088-.175.439-.351.877-.526 1.227zm33.596 19.804c.175-.614.175-1.14.087-1.578.439-.263.79-.525 1.141-.788 7.982 2.716 12.982 6.835 13.245 7.097l-2.895 3.418c-.087-.088-4.824-4.031-12.28-6.484.351-.526.526-1.052.702-1.665zm20.702 28.829l3.772-2.279c-.263-.438-6.228-10.077-20.438-18.839l-2.369 3.768c13.333 8.149 18.947 17.262 19.035 17.35zm-4.124 5.433l3.772-2.366c-.263-.438-7.017-11.216-18.772-17.876l-2.193 3.856c10.79 6.134 17.105 16.298 17.193 16.386zm13.597 30.319l3.334 1.314a11.42 11.42 0 011.842.701c10.351-.701 21.403-6.484 33.157-17.175l-2.456-2.629c-14.473 13.32-27.806 18.49-39.561 15.51l-.263 1.14c.877.175 1.755.438 2.544.788.526.088.965.175 1.403.351zm44.386-25.763l7.193-9.113 7.281-9.113c1.666-2.015 3.245-4.031 4.912-6.046.175.613.351 1.139.526 1.752-.965 2.016-2.105 3.944-3.158 5.871-2.017 3.418-4.298 6.66-6.754 9.727-2.456 3.067-5.088 6.046-7.895 8.763-2.807 2.716-5.965 5.257-9.298 7.36 2.369-3.154 4.825-6.134 7.193-9.201z" fill="#E6F0E0"/><path d="M238.316 206.417c-14.561 10.252-27.543 13.144-38.596 8.324l-.965 2.191c1.404.788 2.807 1.577 4.123 2.453.176.088.351.263.439.351 1.491.35 2.894.613 4.386.701 9.912.876 20.789-2.804 32.543-11.129l-1.93-2.891zm9.211-6.835a356.494 356.494 0 007.982-8.237l4.386-4.557c.789.175 1.579 0 2.193-.263.175 0 .438-.087.614-.087.088 0 .702-.263.789-.351.088-.088.263-.263.351-.263.176-.087.263-.175.351-.263.088-.087.439-.526.526-.701.264-.35.264-.613.351-.876.263.088.614.263.965.35-.175.176-.263.351-.438.526-2.281 3.155-4.825 6.134-7.544 8.938a92.75 92.75 0 01-8.684 7.887c-3.07 2.365-6.404 4.556-10 6.221 2.719-2.892 5.526-5.52 8.158-8.324zm16.578 4.293c-12.895 15.072-24.737 21.644-35.351 19.453l-.526 2.629c.263.088.614.088.789.176.263.087.527.175.702.262.526.176.965.439 1.491.614 10.79.701 22.544-6.309 34.912-20.855l-2.017-2.279zm4.474-4.556c-.088.877-.263 1.753-.351 2.629 0 .088 0 .263-.087.351-.965.876-1.93 1.752-2.983 2.628 1.14-1.927 2.281-3.768 3.421-5.608z" fill="#E6F0E0"/><path d="M268.754 197.829s0 .088 0 0c-.176 1.402-.351 2.804-.526 4.119 0 .262-.088.613-.088.788-.088.438-.088.789-.176 1.227a65.464 65.464 0 01-2.719 3.33l-2.017-2.366c1.052-1.139 3.333-4.119 5.526-7.098zm-15.965 10.778c4.386-3.417 16.316-17.613 16.842-18.226l-2.719-2.279c-.088.176-12.193 14.546-16.316 17.701l2.193 2.804zm-13.421 1.402c3.07-1.752 13.596-11.128 14.824-12.18l-2.368-2.629c-3.158 2.804-11.842 10.428-14.123 11.742l1.667 3.067zm-47.981 1.402c.614.701 1.14 1.315 1.578 2.103 1.141.526 2.281 1.227 3.334 2.016-.351-.263-.79-.614-1.141-.877a20.428 20.428 0 002.281 1.49c.702.088 1.316.175 2.018.263 9.035.789 19.122-1.928 29.999-8.237l-1.754-3.067c-14.123 8.149-26.579 9.902-37.105 5.345.175.176.176.263-.088 0h-.087c.087.176.263.263.35.438.176.088.351.351.615.526zm44.911-11.567l7.719-6.572 7.719-6.659c1.492-1.315 3.071-2.541 4.65-3.856.263.438.526.877.877 1.402-1.053 1.578-2.281 2.98-3.509 4.469a73.037 73.037 0 01-7.368 7.361c-2.632 2.278-5.439 4.381-8.421 6.134-2.983 1.84-6.14 3.417-9.386 4.469 2.456-2.366 5.088-4.557 7.719-6.748z" fill="#E6F0E0"/><path d="M228.754 208.519c4.912-2.541 17.719-12.53 18.245-12.968l-2.193-2.805c-.088.088-13.07 10.165-17.719 12.531l1.667 3.242zm-14.473-4.819c-9.473 3.943-18.07 5.17-25.614 3.856.264.526.614 1.051.878 1.489.263.439 2.193 2.717.438.701l.79 1.052.614.613.087.088c7.369.613 15.439-.964 24.211-4.557l-1.404-3.242z" fill="#E6F0E0"/><path d="M248.491 182.67c-2.982 1.84-5.701 3.68-8.508 5.608l-8.334 5.695c-2.719 1.928-5.526 3.768-8.333 5.609-2.807 1.927-5.614 3.68-8.421 5.695 3.421-.701 6.667-1.752 9.825-3.242 3.158-1.49 6.14-3.154 8.947-5.082a70.676 70.676 0 008.07-6.485c2.456-2.365 4.824-4.907 6.754-7.798z" fill="#E6F0E0"/><path d="M214.982 207.293c3.86-1.227 16.404-8.85 17.807-9.727l-1.842-3.067c-3.772 2.279-14.123 8.413-17.017 9.376l1.052 3.418zm-26.665-.351c0 .088.088.088.088.175 5.438-.087 11.14-1.139 17.193-3.154l-1.141-3.418c-6.579 2.191-12.719 3.155-18.42 2.98.789 1.139 1.579 2.278 2.28 3.417z" fill="#E6F0E0"/><path d="M213.053 197.566c2.632-1.489 5.263-3.067 7.895-4.556l3.421-2.016c.614.439 1.14.877 1.93 1.052.877.263 1.666.175 2.456 0-1.93 1.49-3.947 2.804-6.053 4.031-2.719 1.577-5.526 2.979-8.508 4.031-2.895 1.139-6.053 1.84-9.211 2.19 2.72-1.752 5.439-3.154 8.07-4.732z" fill="#E6F0E0"/><path d="M204.984 204.313c4.649-1.577 15.964-7.273 16.491-7.536l-1.579-3.154c-.088.088-11.579 5.783-15.965 7.273l1.053 3.417zm-369.029 53.803c-.351 0-.79-.175-1.228-.35l1.315-2.366-1.315-2.366c1.403-.789 31.139-20.067 50.7-32.773 1.316-.876 33.333-21.994 62.543-10.69l33.684 14.02c.088 0 13.245 4.995 30 4.732 22.192-.438 40.087-9.464 53.069-26.989l1.14-1.752 4.474 2.979-1.228 1.928c-17.544 23.571-40.964 28.916-57.543 29.179-17.807.263-31.315-4.907-31.93-5.082l-33.683-14.02c-26.579-10.34-57.28 9.989-57.543 10.164l-25.438 16.474c-6.316 4.119-12.719 8.237-17.456 11.304-2.369 1.577-4.386 2.804-5.79 3.68-2.017 1.315-2.894 1.928-3.771 1.928z" fill="#E6F0E0"/><path d="M4.373 217.195c-9.386 0-15.965-1.841-16.58-2.016l1.492-5.17-.79 2.541.79-2.541c.351.088 32.28 9.113 57.28-15.159l19.123-20.943 3.947 3.593-19.298 21.03c-15.614 15.335-33.333 18.665-45.964 18.665z" fill="#E6F0E0"/><path d="M1.829 209.396c-6.316 0-10.351-.964-10.79-1.139l1.316-5.17c1.053.262 26.578 6.396 49.824-16.124l15.438-16.474 3.948 3.681-15.527 16.561c-16.227 15.685-33.42 18.665-44.21 18.665z" fill="#E6F0E0"/><path d="M-155.011 262.322l-1.403-2.103-2.018-2.015c.264-.263.351-.351 45.263-28.479 1.316-.876 33.771-21.994 63.332-10.603l34.21 14.021c.088 0 13.421 4.994 30.438 4.731 22.544-.438 40.701-9.463 53.947-26.989l5.088-7.273 4.385 3.067-5.175 7.361c-17.807 23.571-41.578 28.829-58.332 29.18-18.07.262-31.754-4.82-32.368-5.083l-34.21-14.02c-27.017-10.34-58.157 9.989-58.508 10.165-12.018 7.536-43.596 27.339-44.649 28.04z" fill="#E6F0E0"/><path d="M-148.081 268.281c-.614 0-1.228-.263-1.842-1.052l2.105-1.665-1.316-2.278c1.053-.613 26.842-16.912 36.666-23.133 1.316-.877 34.21-21.995 64.21-10.603l33.947 13.669c.79 0 1.842.263 3.509.614 36.578 7.799 64.385.087 82.805-22.695l10.79-14.108 4.298 3.242L76.3 224.38c-19.736 24.623-49.385 32.86-88.068 24.71h-.088v.877l-38.157-15.423c-27.456-10.339-59.035 9.99-59.298 10.165 0 0-9.21 5.871-18.42 11.654-4.562 2.892-9.211 5.784-12.632 7.974-1.754 1.052-3.158 2.016-4.21 2.629-1.492.701-2.544 1.315-3.509 1.315z" fill="#E6F0E0"/><path d="M-63.258 287.909c-2.105 0-3.421-.087-3.684-.175h-.176c-22.192-3.242-64.472-9.551-65.525-9.639l.351-2.454v-2.804c.263 0 .351 0 65.964 9.639 1.403.088 30.263 2.016 50.613-20.855l12.807-14.809 4.035 3.505-12.807 14.897c-18.42 20.592-42.455 22.695-51.578 22.695zm-106.051-34.963l-2.983-4.469 56.052-37.855c1.316-.876 33.245-23.133 62.367-11.216l33.596 14.721c.088 0 13.07 5.258 29.824 4.908 22.105-.439 39.912-9.99 52.894-28.392l10.088-13.845 4.298 3.155-10.087 13.845c-17.456 24.711-40.79 30.319-57.368 30.582-17.807.35-31.228-5.083-31.842-5.345l-33.596-14.722c-26.403-10.778-56.928 10.428-57.279 10.691l-55.964 37.942z" fill="#E6F0E0"/><path d="M-59.837 297.373c-2.105 0-3.42-.088-3.684-.176h-.175l-51.052-7.623.789-5.258 50.964 7.536c1.492.088 30.263 2.015 50.614-20.855l19.56-22.958 4.036 3.505-19.649 23.046c-18.158 20.679-42.28 22.783-51.403 22.783z" fill="#E6F0E0"/><path d="M-54.925 306.311c-2.456 0-3.947-.175-4.298-.175l-35.614-4.732.702-5.345 35.614 4.731c.263 0 32.806 3.155 55.788-25.499l21.316-27.953 4.298 3.242-21.316 27.953c-20.175 25.149-46.315 27.778-56.49 27.778z" fill="#E6F0E0"/><path d="M-51.066 315.512c-2.456 0-4.034-.176-4.298-.176h-.087l-22.544-3.505.79-5.257 22.455 3.505c1.404.175 33.772 2.716 56.754-25.5l30-38.731 4.21 3.243-30 38.731c-20.438 25.061-47.017 27.69-57.28 27.69z" fill="#E6F0E0"/><path d="M-47.644 324.712c-2.544 0-4.123-.175-4.386-.175h-.087c-2.457-.351-6.492-.964-6.93-.964l.263-2.278v-3.067c.263 0 .35 0 7.368.964 1.228.087 34.123 2.804 57.456-25.5 11.315-14.283 40.964-51.875 42.017-53.277l2.105 1.49h2.807c0 .964 0 .964-7.193 10.077-3.947 4.995-9.21 11.654-14.474 18.402L10.25 297.022c-20.614 25.061-47.455 27.69-57.894 27.69z" fill="#E6F0E0"/><path d="M52.267 292.115c-10.176 0-21.842-1.402-35.175-4.907l1.403-5.17c24.035 6.309 45 6.309 62.456 0 16.052-5.783 23.332-15.072 24.648-16.824 6.14-8.412 20.351-31.896 20.526-32.159l4.562 2.804c-.615.964-14.474 23.922-20.702 32.509-2.193 2.98-18.684 23.747-57.718 23.747z" fill="#E6F0E0"/><path d="M51.652 283.265c-10.263 0-20.526-1.49-29.648-3.418l1.14-5.257c25.614 5.52 60.087 6.835 78.508-18.577 5.877-8.149 12.368-18.489 12.982-19.628 0 .087-.439.876-.088 1.927l5.088-1.665c.438 1.402.526 1.49-4.562 9.201-1.842 2.804-5.438 8.325-9.035 13.319-13.333 18.402-34.034 24.098-54.385 24.098z" fill="#E6F0E0"/><path d="M101.565 249.616c2.631-3.68 4.035-5.52 4.736-6.484h.877l.878-4.206-2.018-.876c-1.93-.876-3.07.526-4.123 2.015-1.052 1.402-2.631 3.593-4.736 6.485-10.263 14.195-30.526 29.354-68.683 21.205l-1.14 5.258c7.28 1.577 14.297 2.278 20.876 2.278 22.631 0 41.14-8.763 53.333-25.675zm2.28-6.747l1.141-2.278-1.141 2.278z" fill="#E6F0E0"/><path d="M41.214 266.616c-2.632 0-5.526-.088-8.421-.263l.263-5.345c41.666 2.278 52.017-12.531 58.157-21.293l1.316-1.841 4.298 3.155c-.35.526-.79 1.139-1.228 1.752-5.965 8.5-16.666 23.835-54.385 23.835z" fill="#E6F0E0"/><path d="M40.162 258.642h-1.666l.087-5.345c27.983.438 36.667-9.113 41.842-14.722.614-.701 1.228-1.314 1.754-1.84l3.772 3.768c-.526.526-1.052 1.052-1.579 1.665-5.263 5.783-15.087 16.474-44.21 16.474z" fill="#E6F0E0"/><path d="M45.424 250.58l-.439-5.345c20.35-1.665 28.86-11.479 28.947-11.567l4.123 3.418c-.351.525-9.912 11.654-32.631 13.494zM1.565 201.597c-3.245 0-5.35-.35-5.614-.438l.965-5.258-.526 2.629.526-2.629c.877.176 21.228 3.593 41.052-15.772l11.579-12.268 3.947 3.68-11.666 12.443c-15.79 15.335-32.017 17.613-40.263 17.613zm306.75 14.02c4.825-.876 9.649-1.139 14.561-1.051 4.913.087 9.737.613 14.562 1.402a95.47 95.47 0 0114.122 3.68c4.562 1.665 9.035 3.593 13.246 6.222-4.825-.877-9.474-1.928-14.123-2.892-4.649-.964-9.298-1.84-13.947-2.716-4.649-.789-9.386-1.578-14.035-2.366-4.912-.614-9.649-1.315-14.386-2.279z" fill="#E6F0E0"/><path d="M234.281 227.622c-15.439 0-26.754-4.293-34.298-8.5-11.14-6.309-16.316-13.932-16.491-14.195-10.702-16.386-10.614-16.737-10.351-17.876l4.386.876c.088-.613-.088-1.051-.088-1.139.439 1.052 5.351 8.763 9.825 15.685 0 .088 4.824 7.098 15.175 12.882 9.561 5.345 25.877 10.69 49.561 5.958 2.193-.701 25.438-8.149 56.402-7.974v4.469h-1.052c-30.614 0-53.771 7.711-54.035 7.799l-.263.087c-6.929 1.315-13.157 1.928-18.771 1.928zm45.614-.35c3.596-1.49 7.193-2.541 10.965-3.418 3.684-.788 7.456-1.402 11.228-1.752 3.772-.351 7.631-.351 11.403-.088 3.772.351 7.544.964 11.316 2.103-3.772.701-7.544 1.052-11.228 1.402l-11.053.964c-3.684.263-7.456.613-11.14.789-3.859.175-7.631.263-11.491 0z" fill="#E6F0E0"/><path d="M233.142 237.086c-18.421 0-32.456-7.273-41.754-14.196-12.544-9.376-18.86-19.891-19.123-20.329l-8.245-14.721 3.859-2.191 8.246 14.721c0 .088 6.228 10.252 18.07 19.103 15.789 11.742 33.683 15.685 53.157 11.654 12.719-2.629 23.245-4.644 32.192-6.046l.702 4.381c-8.859 1.49-19.386 3.418-32.017 6.046-5.263 1.052-10.351 1.578-15.087 1.578zm9.999 5.257c3.07-1.314 6.228-2.278 9.298-3.154 3.07-.877 6.228-1.578 9.386-2.191 3.158-.613 6.228-1.227 9.473-1.665 3.158-.526 6.316-.964 9.737-1.139-2.719 1.928-5.789 3.33-8.859 4.469a59.933 59.933 0 01-9.386 2.629 88.23 88.23 0 01-9.649 1.314c-3.421.263-6.667.263-10-.263z" fill="#E6F0E0"/><path d="M232.878 245.323c-17.543 0-34.648-6.748-49.823-19.804-13.684-11.742-21.053-24.273-21.316-24.798l-.088-.088-7.105-13.845 3.948-2.015 7.105 13.845c.438.788 7.631 12.793 20.438 23.659 17.456 14.896 36.578 20.942 56.753 17.876l.702 4.381a72.972 72.972 0 01-10.614.789zm-16.403 4.031c3.859-.176 7.631-.176 11.315-.351a234.416 234.416 0 0022.105-2.103c3.684-.526 7.369-1.139 11.316-1.49-3.246 2.103-6.842 3.681-10.526 4.908a50.772 50.772 0 01-11.404 2.365c-3.859.351-7.806.351-11.666-.175-3.772-.526-7.544-1.489-11.14-3.154z" fill="#E6F0E0"/><path d="M147.353 186.788c.701-.526 1.14-1.139 1.316-1.752l1.315-.701 8.684 16.473c.176.438 19.825 38.468 58.245 46.355l-.877 4.381c-40.614-8.324-60.438-47.055-61.315-48.72l-8.07-15.247c.263-.351.439-.614.702-.789zm194.295 34.437c-12.456-3.329-34.035-3.417-34.21-3.417v-4.469c.877 0 22.368.088 35.35 3.593l-1.14 4.293zm-62.367 8.413l-.79-4.382c.79-.175 18.509-3.505 25.877-3.242l-.175 4.469c-6.842-.263-24.737 3.067-24.912 3.155zm-36.93 15.071l-.439-4.469c.176 0 14.649-1.489 21.667-3.68l1.316 4.206c-7.456 2.454-21.93 3.856-22.544 3.943z" fill="#E6F0E0"/><path d="M232.177 253.297c-9.035 0-16.667-1.84-17.105-2.016l1.052-4.293c.176 0 13.86 3.417 25.614.963l.877 4.382c-3.421.701-7.017.964-10.438.964zm10.35-103.663c1.14 0 1.93-1.226 2.631-2.278.527-.789 1.141-1.928 1.93-3.33a416.088 416.088 0 002.632-4.819l.087-.175.088-.176c1.228-4.556 3.597-6.659 3.947-6.922 9.913-6.66 12.895-14.984 13.158-15.948l6.228-15.422c4.298-4.031 10.789-14.108 12.456-16.65 2.632-.876 4.386-2.278 5.263-4.206 1.228-2.628.175-4.994.088-5.257l-.176-.35-.263-.264c-1.052-.876-2.193-1.139-3.333-1.051 1.316-1.577 1.93-3.242 1.667-4.82-.351-2.891-2.983-4.38-3.246-4.556l-.175-.088-.176-.087c-3.947-1.14-9.298 2.015-10.701 2.891-8.334 2.016-15.702 4.557-15.79 4.557l1.228 3.505c.088 0 7.456-2.541 15.702-4.557l.351-.087.263-.175c1.93-1.227 5.702-3.067 7.719-2.63.351.263 1.14.877 1.228 1.666.088.963-.789 2.015-1.491 2.716l-.176.175-.175.263c-.088.175-1.228 2.19-1.491 4.206l-.614 4.294 3.509-2.541c.701-.526 2.192-1.227 2.982-1.052.088.438.088 1.14-.176 1.84-.526 1.052-1.754 1.84-3.596 2.366l-.702.175-.351.614c-.087.088-8.07 12.881-12.455 16.737l-.351.263-6.579 16.386c0 .087-2.544 7.886-11.842 14.108l-.088.087c-.175.088-3.509 2.717-5.263 8.763-.175.35-.351.701-.614 1.139.702-7.624-.877-10.866-1.403-11.83-4.299-10.077-4.035-17.875-2.983-22.695 1.14-5.17 3.333-8.062 3.333-8.062l-2.894-2.278c-.439.526-10.088 13.144-.79 34.613l.088.263.088.087c.263.438 2.544 4.82-.527 17.876-.438 1.928.79 2.541 1.141 2.716.175-.087.438 0 .614 0z" fill="#E6F0E0"/><path d="M245.421 145.779c8.421-10.34 5.088-23.572 5-24.098v-.175l-.088-.175c-.35-.789-.614-1.928-.614-3.33l-3.684.175c.088 1.753.351 3.242.877 4.469.264 1.227 2.544 12.356-4.298 20.768l2.807 2.366z" fill="#E6F0E0"/><path d="M251.211 100.914c-.614.526-1.14 1.227-1.579 1.841-.439.613-.789 1.314-1.14 2.015-.702 1.402-1.141 2.804-1.491 4.294-.351 1.489-.439 2.979-.351 4.556.087 1.578.438 3.155 1.228 4.557a37.926 37.926 0 001.666-4.206c.439-1.402.79-2.717 1.141-4.119.263-1.402.526-2.804.701-4.293 0-1.49.088-2.98-.175-4.645zm9.561-6.134c.439.175.965.263 1.403.35.439.088.965.176 1.492.176h2.193c.263 0 .526-.088.701-.088.965-.087 1.93-.35 2.895-.613.263-.088.439-.175.702-.263l.702-.263.701-.263c.176-.087.439-.263.614-.35.439-.263.877-.438 1.228-.789.439-.263.79-.613 1.228-.876.351-.35.702-.613 1.053-.964.351-.35.702-.7.965-1.051.175-.176.263-.35.439-.614.175-.175.263-.35.438-.613.263-.438.526-.789.79-1.227.263-.438.438-.876.614-1.314.175-.439.35-.964.438-1.402-1.666 1.051-3.07 2.103-4.561 2.979l-.526.35c-.176.088-.351.263-.527.35-.351.176-.702.439-1.052.702-.351.175-.702.438-1.141.613-.175.088-.351.176-.526.35l-.526.351c-1.492.789-2.983 1.578-4.562 2.279-.438.175-.789.438-1.228.525-.438.176-.789.35-1.228.526-.438.175-.877.35-1.228.526-.614.087-.965.35-1.491.613z" fill="#E6F0E0"/><path d="M180.598 117.826c8.947-3.768 25.701-6.835 25.789-6.922l.438-.088.351-.263c7.983-5.783 13.07-5.783 13.596-5.783 12.72 2.103 18.684-3.33 18.86-3.593l.088-.087.087-.088c5.614-7.01 8.772-6.397 8.86-6.397l.175.088c4.211 1.402 8.246 2.015 12.105 1.84l-.175-3.68c-3.333.175-6.93-.438-10.702-1.665-.965-.35-5.789-1.578-12.982 7.36-.702.526-5.526 4.294-15.789 2.542h-.176c-.263 0-6.315-.526-15.789 6.221-2.719.526-17.543 3.418-26.228 7.01l1.492 3.505z" fill="#E6F0E0"/><path d="M248.229 94.43l5.087-8.938-1.842-.789c-3.772-1.665-7.105-6.572-9.123-10.164 5.965 2.278 11.491 5.257 11.579 5.257l1.755-3.242c-.351-.175-8.948-4.732-16.491-7.01l-3.772-1.14 1.579 3.681c.175.438 4.649 10.866 11.228 15.072l-3.158 5.52 3.158 1.753z" fill="#E6F0E0"/><path d="M239.019 75.502c-.527-.262-1.141-.438-1.667-.613s-1.14-.35-1.667-.526c-.526-.175-1.14-.263-1.666-.438-.527-.175-1.141-.263-1.755-.35l1.053 2.103c0-.088.088-.176.088-.176l.087-.087c0-.088.088-.175.088-.263.088-.175.088-.35.175-.438.088-.263.176-.614.176-.876 0-.176.088-.263.088-.439v-1.314c0-.263-.088-.613-.088-.876l-.176-.789-.087-.438-.088-.35-.263-.79c-.79-2.015-1.93-3.767-3.158-5.344-1.316-1.578-2.719-2.98-4.298-4.206-.439-.263-.79-.614-1.228-.877-.439-.263-.79-.613-1.228-.788-.877-.526-1.755-.964-2.632-1.402.527.876 1.053 1.664 1.579 2.453.263.35.526.789.877 1.227.263.438.527.789.878 1.14 1.14 1.576 2.192 3.066 3.245 4.556.965 1.49 1.93 3.067 2.632 4.556l.263.614.087.263.088.262.176.614c.087.175.087.35.175.613.088.175.088.35.088.526v1.314l1.052 2.103c.614 0 1.141-.087 1.755-.087.614-.088 1.14-.088 1.754-.175.614-.088 1.14-.176 1.754-.263.702-.263 1.229-.35 1.843-.439z" fill="#E6F0E0"/><path d="M191.3 73.838c1.578 1.051 3.245 1.84 4.912 2.54a51.72 51.72 0 005.175 1.84c3.509 1.052 7.193 1.666 10.965 1.929 3.684.175 7.544-.088 11.14-1.052 1.842-.526 3.596-1.14 5.263-2.015 1.667-.877 3.246-1.928 4.561-3.242-1.754.613-3.421 1.139-5.175 1.577-1.754.35-3.421.7-5.175.876-3.421.35-6.93.438-10.439.175a107.047 107.047 0 01-10.526-1.051 3074.19 3074.19 0 00-10.701-1.578z" fill="#E6F0E0"/><path d="M197.966 66.39c0 .875.175 1.576.351 2.365.263.789.526 1.49.877 2.19.701 1.403 1.666 2.63 2.807 3.769 1.14 1.051 2.456 2.015 3.947 2.629.789.262 1.579.525 2.368.613.79.087 1.667 0 2.456-.175l-1.754-1.49c-.526-.438-1.053-.964-1.579-1.402l-1.491-1.402-1.491-1.402c-.965-.964-1.93-1.928-2.983-2.804a22.822 22.822 0 00-3.508-2.892zm-5.175 19.452c.701.789 1.666 1.402 2.631 1.84a13.17 13.17 0 003.158.964c2.193.35 4.561 0 6.667-.876 1.052-.438 2.017-.964 2.894-1.665.263-.175.439-.35.614-.526l.351-.262.263-.263.614-.614.527-.613c1.403-1.665 2.456-3.593 2.894-5.696-1.754 1.227-3.333 2.541-4.912 3.593-.789.525-1.579 1.051-2.368 1.49-.79.438-1.579.876-2.456 1.139-1.667.7-3.334 1.139-5.176 1.402a29.977 29.977 0 01-5.701.087zm18.947 6.66c.965.526 1.93 1.051 2.895 1.402.965.438 2.018.701 3.07 1.052 1.053.262 2.105.438 3.246.613.526.087 1.14.087 1.666.175h1.755c1.14-.088 2.28-.175 3.421-.526 1.14-.263 2.28-.788 3.333-1.49l.789-.525.351-.35.176-.176.175-.175.702-.701c.175-.263.351-.526.614-.789.351-.525.702-1.139.877-1.665.263-.613.351-1.139.526-1.752l-1.754 1.227h.965c.263 0 .614 0 .877-.088.614-.088 1.141-.175 1.755-.263 1.14-.175 2.28-.526 3.333-.964a12.423 12.423 0 003.07-1.84c.439-.35.877-.789 1.228-1.314.351-.526.614-1.052.702-1.578-.79.789-1.667 1.315-2.632 1.753a7.41 7.41 0 01-1.491.438c-.526.175-.965.263-1.491.263a18.16 18.16 0 01-3.07.263h-2.369c-.263 0-.526 0-.701-.088l-1.141-.087-.614 1.402c-.175.438-.263.788-.526 1.226-.176.35-.439.701-.614 1.052-.526.7-1.053 1.227-1.754 1.665-.702.438-1.492.788-2.369 1.139-.877.263-1.754.526-2.719.613-1.93.263-3.947.35-5.965.35-2.017-.087-4.123-.174-6.316-.262z" fill="#E6F0E0"/><path d="M233.755 87.07c-.176-.351-.439-.702-.702-1.052-.263-.351-.526-.701-.789-.964s-.527-.614-.877-.877l-.439-.438c-.176-.087-.351-.263-.526-.35-.351-.263-.702-.438-.965-.701-.351-.175-.702-.438-1.053-.614l-.526-.263-.527-.262c-.35-.176-.789-.263-1.14-.439-1.579-.438-3.245-.7-4.912-.525-.439 0-.79.087-1.228.175-.439.088-.79.175-1.228.263-.79.263-1.579.613-2.281 1.139l4.386 1.314 4.123 1.227c.351.088.702.175 1.052.35l.527.176.526.175 1.053.263c.351.088.701.263 1.052.35.176.088.351.088.527.176.175.087.35.087.526.175.351.088.702.175 1.14.263.702.175 1.404.35 2.281.438zm24.385-31.196c.965 1.928 1.579 3.856 1.667 5.696.087 1.752-.176 3.505-.878 5.17-.351.788-.701 1.665-1.228 2.453-.175.438-.526.789-.701 1.227l-.439.614a2.66 2.66 0 01-.439.613c-1.052 1.665-2.28 3.33-3.508 5.17 2.105-.701 3.947-1.84 5.614-3.33 1.666-1.49 3.07-3.33 3.947-5.52.439-1.14.702-2.279.789-3.505a8.328 8.328 0 00-.526-3.593 8.242 8.242 0 00-1.754-3.067 6.332 6.332 0 00-2.544-1.928z" fill="#E6F0E0"/><path d="M255.334 59.993c.35 1.226.789 2.278 1.228 3.154.438.964.789 1.753 1.052 2.541.263.789.527 1.49.614 2.366.176.877.176 1.84.176 3.155.614-.175 1.228-.526 1.666-1.052.263-.263.439-.525.614-.788a3.24 3.24 0 00.439-.964c.526-1.315.439-2.804-.088-4.119-.438-1.226-1.316-2.278-2.28-3.067-.527-.35-1.053-.7-1.579-.963-.614-.088-1.228-.263-1.842-.263zm-6.141-10.253a69.247 69.247 0 011.667 6.397c.439 2.103.702 4.118.702 6.134.087 2.015-.088 4.03-.351 6.134-.263 2.103-.79 4.206-1.228 6.484 1.842-1.49 3.158-3.505 4.035-5.696a17.398 17.398 0 001.228-7.01c-.088-2.366-.702-4.732-1.667-6.922-.526-1.052-1.14-2.104-1.842-2.98-.351-.438-.789-.876-1.14-1.314a15.568 15.568 0 00-1.404-1.227z" fill="#E6F0E0"/><path d="M238.667 51.055c1.579 1.752 3.07 3.417 4.386 5.082 1.316 1.665 2.544 3.33 3.597 5.17 1.052 1.752 1.842 3.593 2.456 5.608.614 2.015.965 4.118 1.403 6.484.526-1.051.965-2.19 1.228-3.33.263-1.139.351-2.365.263-3.592-.175-2.454-.877-4.82-2.105-6.923a18.564 18.564 0 00-4.737-5.345c-.965-.7-1.929-1.314-2.982-1.84-.526-.263-1.053-.526-1.667-.701-.701-.35-1.228-.526-1.842-.613zm-4.474 37.855c6.755 0 13.07-4.557 13.333-4.82l-2.193-2.98 1.141 1.49-1.053-1.49c-.088 0-5.438 3.944-10.877 4.031-1.228-.964-4.561-3.154-9.035-4.293l-.877 3.592c4.824 1.227 8.158 3.944 8.158 3.944l.526.438h.614c-.088.087.088.087.263.087z" fill="#E6F0E0"/><path d="M204.107 88.296c5.877-1.753 8.771-6.134 9.824-7.887h.614c8.947 0 17.28-3.417 19.561-4.469 3.509.79 5.614.263 5.79.176l-1.053-3.505s-1.579.438-4.474-.35l-.701-.176-.614.263c-.088.087-11.141 5.345-21.579 4.206l-13.772-1.402 12.193 4.644a13.609 13.609 0 01-6.93 4.995l1.141 3.505zm46.401-11.216c4.035-4.995 4.649-14.371 4.649-14.81l-3.684-.175c0 .088-.526 8.588-3.772 12.619l2.807 2.365zm3.597 2.979c7.105-3.943 8.684-14.634 8.684-15.072l-3.684-.525 1.842.262-1.842-.263c0 .088-1.404 9.377-6.842 12.356l1.842 3.242zm5.439 16.649c6.579 0 12.631-3.33 12.894-3.505l-1.754-3.242.877 1.577-.877-1.577c-.088 0-5.789 3.154-11.491 2.98l-.088 3.68c.088.087.263.087.439.087zm-13.158 24.623l3.597-.788c-.965-4.557.614-11.304.702-11.392l-3.597-.876c-.088.351-1.754 7.711-.702 13.056z" fill="#E6F0E0"/><path d="M251.913 94.43c8.333 0 13.859-3.33 17.105-6.397 3.947-3.68 5.526-7.711 5.702-8.062 4.21-10.778 9.736-13.582 9.824-13.582l-1.491-3.33c-.263.088-6.842 3.243-11.667 15.598-.175.526-5.438 13.933-22.894 11.83l-.439 3.68a28.61 28.61 0 003.86.263z" fill="#E6F0E0"/><path d="M146.3 199.056c-.175 0-.35-.088-.526-.088-1.228-.087-2.368-.35-3.509-.701l5.702-16.737.351-.35c7.193-6.397 13.772-15.685 13.772-15.773l.438-.613.702-.175c15.438-2.892 24.386-8.15 26.666-15.861 3.948-13.407-13.596-30.231-13.771-30.406l.35-.351c-3.684-.175-11.578.964-20.262 11.216l-.088.176-.176.087c-.087.088-6.666 6.134-2.894 31.283 1.316 8.938-5.526 14.809-6.93 15.948-1.754 2.278-3.333 3.768-4.21 4.469-.439 3.505-2.281 13.319-2.457 14.634l-.087 1.402c-1.228-.526-2.369-1.052-3.597-1.49v-.438c0-.088 2.281-12.706 2.544-15.247l.088-.789.614-.526s1.93-1.489 4.298-4.556l.175-.175.176-.176c.088-.087 6.754-5.082 5.702-12.53-3.86-25.938 2.719-33.298 4.122-34.525 11.755-13.758 22.544-12.706 25.439-12.18 8.596-3.768 23.859-6.66 26.578-7.186 9.474-6.747 15.526-6.221 15.789-6.221h.176c10.263 1.752 15.087-1.928 15.789-2.541 7.544-9.376 12.544-7.536 13.07-7.36l-1.491 3.329h.087s-3.245-.876-8.947 6.309l-.087.088-.088.087c-.263.263-6.14 5.696-18.86 3.593-.526 0-5.526 0-13.596 5.783l-.351.263-.438.088c-.176 0-17.018 3.154-25.877 6.922 4.912 5.258 16.403 19.366 12.719 31.984-2.632 8.938-12.368 15.159-28.771 18.314-1.579 2.191-7.193 9.727-13.597 15.51l-5 14.809.263.701z" fill="#E6F0E0"/><path d="M258.052 187.927l12.017-1.665-11.491-15.948c-.351-1.752-2.193-8.062-8.947-14.458-.526-.877-2.631-4.382-5.175-9.376l-3.246 1.665c3.07 5.871 5.351 9.638 5.439 9.814l.175.263.176.175c7.017 6.572 8.157 12.969 8.157 12.969l.088.438.263.35 8.158 11.304-2.719.351-.702-2.542-10.088-14.37-.263-.176c-2.894-1.927-12.982-9.814-13.684-10.34L222 144.026c-2.982-3.855-.877-12.53 5.965-24.535 5.526-9.727 12.28-18.227 12.28-18.314l-2.894-2.279c-.264.35-6.93 8.763-12.632 18.753-7.894 13.932-9.824 23.659-5.526 28.829l.088.087.087.088 14.386 12.618c.439.351 10.263 8.062 13.684 10.34l9.21 13.144 1.404 5.17z" fill="#E6F0E0"/><path d="M194.896 157.784c12.281 0 30.263-6.485 31.14-6.748l-1.228-3.417c-.263.088-24.21 8.763-34.473 6.046l-.877 3.593c1.491.35 3.333.526 5.438.526z" fill="#E6F0E0"/><path d="M146.3 199.056c-.175 0-.35-.088-.526-.088-1.228-.087-2.368-.35-3.509-.701l5.702-16.737.351-.35c7.193-6.397 13.772-15.685 13.772-15.773l.438-.613.702-.175c15.438-2.892 24.386-8.15 26.666-15.861 3.948-13.407-13.596-30.231-13.771-30.406l.35-.351c-3.684-.175-11.578.964-20.262 11.216l-.088.176-.176.087c-.087.088-6.666 6.134-2.894 31.283 1.316 8.938-5.526 14.809-6.93 15.948-1.754 2.278-3.333 3.768-4.21 4.469-.439 3.505-2.281 13.319-2.457 14.634l-.087 1.402c-1.228-.526-2.369-1.052-3.597-1.49v-.438c0-.088 2.281-12.706 2.544-15.247l.088-.789.614-.526s1.93-1.489 4.298-4.556l.175-.175.176-.176c.088-.087 6.754-5.082 5.702-12.53-3.86-25.938 2.719-33.298 4.122-34.525 11.755-13.758 22.544-12.706 25.439-12.18 8.596-3.768 23.859-6.66 26.578-7.186 9.474-6.747 15.526-6.221 15.789-6.221h.176c10.263 1.752 15.087-1.928 15.789-2.541 7.544-9.376 12.544-7.536 13.07-7.36l-1.491 3.329h.087s-3.245-.876-8.947 6.309l-.087.088-.088.087c-.263.263-6.14 5.696-18.86 3.593-.526 0-5.526 0-13.596 5.783l-.351.263-.438.088c-.176 0-17.018 3.154-25.877 6.922 4.912 5.258 16.403 19.366 12.719 31.984-2.632 8.938-12.368 15.159-28.771 18.314-1.579 2.191-7.193 9.727-13.597 15.51l-5 14.809.263.701z" fill="#E6F0E0"/><path d="M169.019 183.283a12.326 12.326 0 00-.877 5.258 3.364 3.364 0 00-2.017-.964c-.176-.088-.439-.088-.614-.176-.351-.087-.614-.175-.965-.175a16.322 16.322 0 011.316-5.696l.175-.35.263-.263c.176-.175 15.702-15.247 20.088-25.762l3.421 1.402c-4.562 10.603-18.597 24.535-20.79 26.726zm-12.893 3.155c-.264.175-.527.438-.79.613-1.579-6.046-1.754-9.902-1.754-10.165l3.684-.175c0 .088.175 3.593 1.667 9.289-.965-.088-1.93-.088-2.807.438z" fill="#E6F0E0"/><path d="M230.334 103.806a49.7 49.7 0 00-4.561 2.892 78.435 78.435 0 00-4.299 3.242 63.334 63.334 0 00-7.806 7.536 81.947 81.947 0 00-3.334 4.381 29.509 29.509 0 00-2.631 4.907 19.919 19.919 0 00-1.579 5.52c-.263 1.928-.351 3.944 0 5.871v-.788l-.088.35c0 .088-.088.263-.088.351a5.834 5.834 0 01-.263.701c-.175.526-.438.964-.614 1.49a17.688 17.688 0 01-1.579 2.804c-1.14 1.84-2.368 3.592-3.859 5.257-.351.438-.702.789-1.141 1.227l-1.14 1.139-1.228 1.139-1.228 1.052a45.985 45.985 0 01-5.351 3.855l-1.403.877-1.492.788c-.263.088-.526.263-.701.351l-.79.35c-.526.263-.965.526-1.491.701-1.053.438-2.017.876-3.07 1.315l-1.579.613-1.579.526c-4.298 1.402-8.684 2.453-13.245 3.242h3.421l3.421-.263c2.28-.263 4.561-.526 6.842-1.051l1.666-.351c.527-.175 1.141-.35 1.667-.438 1.14-.263 2.193-.701 3.333-1.052 2.193-.788 4.386-1.752 6.404-2.891a43.147 43.147 0 005.964-3.856c1.843-1.402 3.597-3.067 5.264-4.819 1.578-1.753 3.07-3.681 4.298-5.696.614-1.052 1.228-2.103 1.754-3.155.263-.525.526-1.139.702-1.664.088-.263.263-.614.351-.877.087-.175.087-.263.175-.438l.088-.263.088-.263.087-.35-.087-.438c-.264-1.578-.264-3.155-.088-4.732.088-.789.263-1.577.438-2.366l.351-1.227c.088-.438.263-.788.439-1.139a31.084 31.084 0 012.193-4.557c.877-1.489 1.842-2.891 2.807-4.381 2.017-2.804 4.386-5.52 6.754-8.062 2.544-2.541 5.088-4.994 7.807-7.36zm-7.894 89.116l10.614-.701-1.053-6.835v-.087c-.877-2.98-.439-4.382.088-6.222.438-1.314.877-2.804.789-4.907-.263-4.206 0-19.891 0-20.066l-3.684-.088c0 .613-.263 15.948 0 20.329.088 1.402-.263 2.454-.614 3.593-.614 2.015-1.316 4.206-.175 8.237l.351 2.629-2.544.175.263-7.711-.439-.438c-.175-.263-1.403-2.366-2.456-8.588l-3.07-21.205-3.684.525 3.07 21.294c.965 5.783 2.105 8.499 2.807 9.639l-.263 10.427zm25.263-102.348l.263-1.928.176.088c3.859 1.227 6.929 1.227 9.035 0 2.368-1.402 2.894-3.943 2.894-3.943.527-3.067 1.93-5.784 3.509-7.974-3.158 2.629-4.298 4.995-4.386 5.082l-.088.088c-3.684 6.134-9.561 5.87-9.824 5.87l.088-2.19c.175 0 4.736.175 7.807-4.82.35-.7 3.333-6.484 12.105-9.989l8.157-3.242-7.192 5.17c-.088.088-7.018 5.082-8.246 12.268 0 .175-.702 3.505-3.947 5.433-2.719 1.577-6.228 1.665-10.614.262.263 0 .263-.087.263-.175zm6.227 21.118c-.614.613-1.052 1.402-1.491 2.103-.439.701-.789 1.49-1.053 2.278a17.953 17.953 0 00-1.228 4.732c-.175 1.665-.263 3.33 0 4.995.088.438.176.876.264 1.227.087.438.175.788.35 1.226.176.439.351.789.527 1.227.263.351.438.789.701 1.052.351-1.753.702-3.242.965-4.732.264-1.49.527-2.979.79-4.557.175-1.489.351-3.067.438-4.644.088-1.577.088-3.242-.263-4.907z" fill="#E6F0E0"/><path d="M251.123 135.789c2.719-4.994 2.544-15.071 2.544-15.509l-3.684.087c.087 2.629-.264 10.252-2.106 13.67l3.246 1.752zm-70.174-4.205a32.858 32.858 0 012.368 5.432 21.094 21.094 0 011.053 5.609v1.402l-.088.701v.35l-.088.351-.088.701c0 .263-.087.438-.175.613s-.088.438-.175.613l-.264.614c-.701 1.665-1.754 3.067-3.07 4.294-1.315 1.226-2.894 2.278-4.561 3.154-.439.263-.877.438-1.228.613-.439.176-.877.439-1.316.614l-1.316.526-.701.262c-.263.088-.439.176-.702.263a58.988 58.988 0 01-5.614 1.578l-1.404.35c-.438.088-.964.263-1.403.351-.965.175-1.93.35-2.895.613l-1.228.263-.175 1.051c0 .088-.088.176-.088.263 0 .088-.088.263-.088.351-.087.263-.175.438-.263.701-.087.263-.175.438-.263.701-.088.263-.175.438-.263.701-.263.438-.439.964-.702 1.402l-.351.701-.438.613c-.176.176-.263.438-.439.614l-.438.613-.439.613-.526.614c-.614.788-1.404 1.577-2.106 2.366-.789.701-1.579 1.489-2.456 2.103l-.614.526c-.175.175-.438.35-.614.525l-1.316.877c-.263.175-.438.35-.701.438l-.702.438-1.403.876c-.965.526-1.93.964-2.983 1.49.526-.088 1.053-.263 1.667-.351.526-.175 1.052-.263 1.666-.438l1.579-.526.79-.263c.263-.087.526-.262.789-.35l1.579-.701c.263-.088.526-.263.79-.438l.701-.438c1.053-.526 1.93-1.227 2.895-1.84a26.004 26.004 0 004.912-4.908l.527-.701.526-.701c.351-.525.614-.963.877-1.489.175-.263.263-.526.439-.789.175-.263.263-.526.351-.789.087-.262.263-.525.35-.876.088-.175.088-.263.176-.438s.088-.263.175-.526l-1.403 1.315c4.035-.526 8.07-1.402 12.017-2.804.263-.088.526-.176.702-.263l.702-.263 1.491-.613c.526-.176.965-.439 1.403-.701.439-.263.965-.439 1.404-.789l1.403-.789c.439-.263.877-.613 1.316-.964.175-.175.439-.263.614-.525l.614-.526.614-.526c.176-.175.351-.438.526-.613.351-.438.79-.789 1.053-1.227l.526-.701c.088-.088.176-.263.264-.351l.175-.35.439-.701c.087-.088.175-.263.175-.351l.175-.35c.264-.526.439-1.052.614-1.577.702-2.103.79-4.382.439-6.485a19.958 19.958 0 00-2.017-5.958c-1.141-2.016-2.369-3.681-3.772-5.17z" fill="#E6F0E0"/><path d="M140.686 181.531c15.701-4.907 19.824-18.227 20-18.84l-2.544-.789 1.316.351-1.316-.351c0 .088-3.948 12.531-18.246 17l.79 2.629zM232 120.104c-.439.439-.877.877-1.228 1.402-.351.526-.79.964-1.14 1.49-.702 1.052-1.404 2.103-2.018 3.155a29.755 29.755 0 00-1.579 3.417l-.351.876c-.087.263-.175.614-.263.877-.088.262-.175.613-.263.963-.088.351-.175.614-.263.964a28.41 28.41 0 00-.526 3.944v.963c0 .351 0 .701.087.964l.088.964c.088.351.088.701.175.964.439 2.717 1.755 5.17 3.421 7.361l.351.438.351.35.702.701c.263.263.438.439.702.701l.701.701c.527.439 1.053.789 1.579 1.227.527.351 1.141.701 1.667 1.052 1.93 1.139 3.86 2.629 5.614 4.206 3.596 3.154 6.666 6.835 9.561 10.865-1.491-4.731-4.123-9.2-7.456-12.968a39.823 39.823 0 00-2.719-2.717 10.102 10.102 0 00-1.491-1.226c-.263-.176-.527-.439-.79-.614s-.614-.438-.789-.526c-.439-.35-.965-.613-1.404-.963l-1.316-1.052-.614-.613c-.175-.176-.438-.351-.614-.614l-.526-.613-.263-.351-.263-.35-.526-.614c-.176-.175-.264-.438-.439-.701-.176-.262-.263-.438-.439-.701-.087-.262-.263-.525-.351-.701-.087-.087-.175-.262-.175-.35l-.175-.351-.351-.788-.263-.789-.088-.35-.088-.439-.175-.788-.088-.789c-.088-.263-.088-.526-.088-.788 0-.263-.087-.526-.087-.877v-1.665c0-.613.087-1.139.087-1.752.176-1.139.351-2.278.614-3.418.263-1.139.614-2.278.965-3.417.351-1.139.79-2.278 1.228-3.417.263-.526.439-1.14.702-1.665 0-.438.351-1.052.614-1.578z" fill="#E6F0E0"/><path d="M247.001 169l3.333-1.577c-6.053-13.057-17.28-19.191-17.807-19.366l-1.754 3.242.877-1.665-.877 1.665c.175 0 10.701 5.784 16.228 17.701zm-57.807-13.67l1.053-1.314.965-1.315c.351-.438.614-.876.877-1.314.263-.438.526-.964.877-1.402 1.14-1.84 2.018-3.856 2.807-5.871.351-1.052.702-2.015.965-3.067.175-.526.263-1.051.351-1.577.088-.263.088-.526.175-.789 0-.088 0-.263.088-.35-.614-1.753-.877-3.505-.965-5.346-.088-1.927.176-3.855.526-5.695.439-1.841.965-3.593 1.667-5.346.702-1.664 1.491-3.329 2.456-4.907a64.078 64.078 0 016.228-8.85c.439-.526.877-1.051 1.404-1.577.614-.088 1.228-.175 1.842-.351-.702.964-1.316 1.928-2.018 2.892-1.93 2.979-3.684 6.046-5.175 9.113-.702 1.577-1.404 3.155-1.93 4.82a44.886 44.886 0 00-1.316 4.907c-.087.438-.175.788-.175 1.226l-.088 1.227c0 .789-.088 1.665 0 2.454.088 1.577.439 3.154.965 4.644l.176.35v.877c0 .175-.001.35-.088.438-.088.35-.088.613-.176.876-.087.614-.263 1.227-.438 1.753-.263 1.139-.702 2.278-1.053 3.417-.877 2.191-1.93 4.381-3.158 6.397-.965 1.665-2.105 3.154-3.333 4.644-1.491-.438-3.158-.263-4.649.175.439-.263.789-.701 1.14-1.139zm193.067 60.813c.526 0 1.052-.088 1.579-.263 2.719-.876 3.947-4.118 3.947-4.995 0-.438 0-.613-2.982-9.551-1.228-3.593-2.72-8.149-3.07-9.025l-5-19.103-2.281 3.242c-3.947 5.521-3.947 11.304-3.772 13.582l-1.14 1.052-.088.087c-2.456 3.33-3.333 6.66-2.632 9.99 1.229 5.52 6.492 8.938 7.983 9.814 2.544 3.417 5.087 5.17 7.456 5.17zm1.667-5.258c-.264.526-.79 1.402-1.492 1.578-.438.087-2.017 0-5.087-3.944l-.264-.35-.35-.175c-.088 0-5.527-2.98-6.492-7.624-.438-2.19.176-4.469 1.843-6.835l2.28-2.103-.175-.964s-.614-3.592.965-7.886l2.982 10.866v.087c.351.877 5 14.634 5.79 17.35z" fill="#E6F0E0"/><path d="M399.98 197.742c-1.491-.088-2.806-.176-4.122-.439-1.316-.262-2.456-.525-3.597-.963-.526-.263-1.052-.526-1.491-.789-.438-.351-.965-.614-1.316-1.052-.877-.788-1.579-1.665-2.28-2.716l-.263-.351-.088-.087c-.088-.088-.088-.088-.176-.088l-.087-.087c-.088-.088-.176-.088-.263-.176-.176-.087-.351-.263-.527-.35-.351-.175-.702-.351-1.14-.526-.439-.088-.877-.175-1.316-.175-.438 0-.965.087-1.403.35-.439.263-.79.526-1.053.877-.263.35-.439.701-.526 1.051-.263.701-.263 1.402-.263 2.103.438-.526.877-1.051 1.315-1.402.263-.175.439-.35.702-.438.263-.088.439-.088.614-.088.176 0 .351.088.526.088l.527.263c.175.087.351.263.526.438l.263.263.088.087.088.088s0 .088 0 0l-.351-.438a9.4 9.4 0 002.719 3.943 9.316 9.316 0 004.298 2.278c1.579.351 3.158.351 4.649.088.79-.175 1.491-.35 2.193-.701a6.571 6.571 0 001.754-1.051z" fill="#E6F0E0"/><path d="M389.718 153.665c-.702.526-1.228 1.139-1.842 1.84-.527.614-1.053 1.315-1.579 2.016-.965 1.402-1.93 2.804-2.719 4.381-.351.789-.79 1.49-1.053 2.366-.176.438-.351.789-.526 1.227l-.439 1.227c-.088.175-.175.438-.175.613l-.176.613-.351 1.227c-.087.438-.175.876-.263 1.227l-.263 1.314c-.614 3.418-.614 7.01.088 10.428.701 3.417 2.193 6.66 4.473 9.201-.877-3.242-1.491-6.485-1.579-9.639-.175-3.155.088-6.309.702-9.376.088-.351.176-.789.176-1.139l.263-1.14c.175-.788.351-1.577.526-2.278.351-1.577.877-3.067 1.316-4.644.526-1.577 1.052-3.067 1.579-4.644.263-.789.614-1.578.877-2.279l.438-1.139c.176-.701.264-1.051.527-1.402z" fill="#E6F0E0"/><path d="M377.613 152.964c-.351 1.315-.264 2.454-.088 3.593.175 1.139.614 2.191 1.14 3.154.263.526.614.964.965 1.402.351.439.79.877 1.316 1.227.526.351 1.053.701 1.754.964.176.088.351.088.527.088.175 0 .35.087.526 0 .351 0 .702-.088.965-.263-.527-.438-.702-.876-.965-1.315l-.526-1.314a18.486 18.486 0 00-1.316-2.629c-.527-.876-1.053-1.752-1.755-2.541-.701-.789-1.403-1.665-2.543-2.366zm23.332 31.546c-2.017-.351-3.947-.526-5.789-.877-.877-.175-1.842-.35-2.632-.525a21.638 21.638 0 01-2.543-.701c-.79-.263-1.579-.526-2.369-.877-.789-.35-1.491-.788-2.193-1.226-1.403-.964-2.631-2.279-4.035-3.856-.088 2.103.614 4.206 2.018 5.959.175.263.351.438.526.613.175.175.351.438.614.613.175.176.439.351.614.526.263.175.439.351.702.438.965.614 1.93 1.052 2.982 1.402 2.105.614 4.211.789 6.316.526 1.053-.088 2.017-.35 2.982-.701.527-.175.965-.35 1.404-.613.526-.176.965-.351 1.403-.701z" fill="#E6F0E0"/><path d="M393.84 171.015c-.702-.175-1.491 0-2.193.176-.702.175-1.404.525-2.018.876-1.228.788-2.28 1.928-2.894 3.33-.614 1.402-.877 2.891-.702 4.293.175 1.402.702 2.804 1.667 3.856.526-1.402.877-2.541 1.228-3.68.351-1.052.701-2.103 1.14-2.98.439-.964.965-1.84 1.491-2.804.702-.876 1.404-1.84 2.281-3.067zm-102.015 46.793l11.491-1.052-11.491-17.35c-.439-.788-.877-2.015-.614-2.541 1.93-.964 9.474-5.082 12.193-14.546 2.719-9.464-.526-20.943-9.386-34.174 14.561-2.804 32.193 2.891 32.456 2.979l.263.088h.351c20.35-.526 24.561 14.37 24.736 14.984l.176.701.526.35c11.842 8.062 18.07 22.871 18.157 23.046l3.421-1.402c-.263-.613-6.578-15.51-18.947-24.272-.526-1.49-1.929-4.995-5.175-8.5-3.772-4.031-10.702-8.763-22.719-8.588-1.842-.613-11.14-3.329-21.754-3.855-15.789-.701-26.666 4.294-31.491 14.371l-.087.175c-.176.526-4.035 12.881 11.842 29.442-1.579 1.052-3.509 2.804-4.386 5.346-.878 2.716-.439 5.695 1.403 8.762l7.719 12.969 1.316 3.067zm5-4.206l-2.719.263-.351-.789-7.807-13.056c-1.316-2.103-1.667-4.031-1.14-5.696.965-2.979 4.561-4.469 4.561-4.469l2.544-1.052-2.018-1.927c-8.421-8.237-11.403-15.247-12.368-19.716-.965-4.294-.351-7.098-.263-7.624 2.719-5.52 7.368-8.762 12.719-10.427 8.86 12.706 12.105 23.484 9.737 32.159-2.456 8.938-10.439 12.355-10.526 12.443l-.264.087-.263.263c-2.28 2.103-1.14 5.608-.087 7.273v.088l8.245 12.18z" fill="#E6F0E0"/><path d="M279.806 220.349l-.438-2.278c-.79-3.944-2.632-14.722-2.106-19.541.79-.876 2.72-2.804 4.562-5.17 3.596-4.557 5-7.799 4.561-10.165l-3.596.614c.351 2.015-4.123 8.149-8.509 12.53l-.439.438-.087.614c-.79 4.731.789 14.633 1.579 19.102l-4.035-.175c-2.369-10.077-.614-19.628 0-22.52 4.386-2.454 10.438-12.531 10.526-12.618.965-1.665 1.316-2.454.965-3.242l-3.509 1.139c-.175-.526 0-.964 0-.964-.175.613-1.93 3.505-4.386 6.747-3.158 4.294-5 5.696-5.526 5.783l-1.14.176-.264 1.139c-.175.526-3.508 13.056.176 26.551l.351 1.314 11.315.526zm89.034-19.453c.789 0 1.316-.438 1.579-.876l-3.07-2.016c.526-.788 1.491-.876 1.842-.788-.614-.176-2.895-1.753-5.439-6.047-2.456-4.118-5.964-11.917-8.421-25.762l-3.596.613c4.737 26.639 13.684 34.087 16.666 34.701.176.087.351.175.439.175z" fill="#E6F0E0"/><path d="M361.472 193.798l.878-3.592-.439 1.752.439-1.752c-.088 0-12.544-3.155-17.544-11.217l-3.158 1.928c5.877 9.289 19.21 12.706 19.824 12.881z" fill="#E6F0E0"/><path d="M340.332 220.086l.351-1.84c.263-1.402 2.719-13.494-.351-19.102-.789-2.454-2.456-8.763-1.754-12.18 2.807-1.753 13.333-8.675 15.614-17.263.877-3.417.438-6.572-1.404-9.639l-3.158 1.928c1.316 2.191 1.667 4.381.965 6.747-2.105 8.237-14.386 15.335-14.473 15.422l-.614.351-.264.701c-1.666 5.082 1.316 14.283 1.667 15.335l.088.175.088.175c1.666 2.804 1.14 9.902.35 14.809l-1.929-.438c1.666-8.149-.527-15.422-.614-15.685v-.088c-3.772-10.603-3.597-21.644.263-32.597 2.982-8.237 7.105-13.407 7.105-13.494l-2.895-2.279c-.175.263-4.473 5.608-7.631 14.371-2.895 8.149-5.351 20.855-.351 35.138.088.438 2.281 7.799.175 15.423l-.526 1.84 9.298 2.19z" fill="#E6F0E0"/><path d="M356.998 223.854l.527-2.191c.175-.876 5.175-22.169-7.018-30.056l-.088-.087c-4.649-2.629-9.034-5.959-9.298-7.098v.088l-3.684-.176c-.087 1.928 1.667 4.031 5.877 7.011 2.456 1.752 4.913 3.067 5.263 3.329 7.983 5.17 6.667 18.577 5.79 23.835l-1.404-.614c2.281-10.427-2.894-19.803-3.07-20.241l-.351-.614-.614-.263c-3.859-1.489-10.526-6.484-10.614-6.572l-2.193 2.892c.264.175 6.492 4.907 10.79 6.747 1.052 2.191 4.473 10.253 2.105 18.402l-.439 1.49 8.421 4.118zm-53.332-51.612c8.684-21.468 28.333-20.68 28.508-20.68l.176-3.68c-.264 0-5.79-.263-12.456 2.453-6.228 2.542-14.649 8.062-19.649 20.593l3.421 1.314zm4.649 13.144c10 0 16.228-3.68 19.825-7.185 4.912-4.732 6.315-9.99 6.403-10.165l-3.596-.964c-.176.701-5.088 18.051-29.649 14.02l-.614 3.593a41.12 41.12 0 007.631.701zm-39.122-16.474c2.281 0 4.825-.701 7.193-2.716l-2.368-2.804c-2.456 2.103-5 2.015-6.842 1.577 4.912-3.593 10.965-8.062 11.579-8.412-.439.263-1.141.35-1.842 0l.877-1.577h1.842l-1.053-1.665c-.965-.526-1.754 0-2.544.613-.438.263-.964.701-1.666 1.139-1.316.964-3.158 2.279-4.912 3.593-3.597 2.629-7.106 5.17-7.106 5.17l-2.105 1.49 2.105 1.489c1.492 1.052 4.035 2.103 6.842 2.103z" fill="#E6F0E0"/><path d="M332.175 154.716c-1.842 0-3.684.351-5.439.702-1.754.438-3.596.963-5.263 1.664-3.421 1.402-6.754 3.33-9.561 5.784a21.806 21.806 0 00-2.018 2.015l-.438.526-.439.526-.438.525-.264.263-.175.263-.789 1.227c-.264.438-.439.876-.702 1.227l-.176.35-.175.351-.263.701-.263.701c-.088.263-.176.438-.264.701-.175.438-.35.876-.438 1.402-.088.438-.263.964-.351 1.402-.088.263-.088.438-.088.701l-.087.701-.088.701v2.103c0 .438.088.964.088 1.402 0 .263 0 .438.087.701l.088.701.263 1.314c.526-3.592 1.316-7.01 2.895-10.077 1.491-3.067 3.684-5.608 6.228-7.886 2.544-2.278 5.438-4.206 8.421-5.959 1.491-.876 3.07-1.665 4.649-2.453 1.667-.789 3.333-1.49 5-2.279z" fill="#E6F0E0"/><path d="M329.631 164.443c-1.316-.087-2.632 0-3.947.175-1.316.176-2.544.526-3.86.964-2.456.877-4.912 2.103-7.017 3.856-.264.175-.527.438-.79.701-.263.263-.526.438-.702.701-.438.526-.965 1.051-1.315 1.577-.79 1.139-1.492 2.366-2.018 3.593-.965 2.629-1.14 5.433-.351 7.974.351-1.315.614-2.454 1.141-3.593a17.63 17.63 0 011.578-3.154 21.211 21.211 0 012.106-2.804c.438-.439.789-.877 1.228-1.227l.614-.614c.263-.175.438-.35.701-.525 1.843-1.49 3.86-2.804 5.965-4.031 2.106-1.315 4.298-2.454 6.667-3.593zm60.174 21.819l1.052-3.505-.526 1.753.526-1.753c-1.754-.525-6.578-2.541-7.806-5.608l-3.421 1.402c2.105 5.345 9.912 7.624 10.175 7.711z" fill="#E6F0E0"/><path d="M388.314 195.638l-2.017-4.293c-4.825-10.779-2.193-20.943-2.105-21.031l-3.597-.964c-.087.438-2.631 10.077 1.404 21.118-1.141.438-2.281 1.315-3.158 3.067l3.333 1.665c.702-1.402 1.579-1.402 1.93-1.314l4.21 1.752zm-5.35-30.757l2.368-2.804c-2.105-1.752-3.947-5.17-4.035-5.257l-3.246 1.752c.088.088 2.193 4.119 4.913 6.309z" fill="#E6F0E0"/><path d="M385.068 183.108l3.685-.088c-.088-4.469 1.754-6.835 1.842-6.923l-2.895-2.278c-.088.088-2.807 3.418-2.632 9.289zm-73.946 1.577l-.263-1.928c0-.175-.438-5.17 5.877-10.603l-2.193-2.541c-5.263 4.644-6.578 9.201-6.929 11.654h-2.106c-1.228-3.68 2.457-10.865 6.667-14.195l-2.105-2.629c-5.176 4.031-10.614 13.845-7.105 19.366l.526.788 7.631.088zm58.508 7.536c.527-.613.79-.964.965-1.314-.789 3.067-.614 5.608.439 7.448 1.315 2.366 3.859 2.892 3.859 2.892 2.983.525 5.614 2.015 7.719 3.592-2.543-3.242-4.912-4.381-4.912-4.381l-.087-.088c-5.965-3.768-5.702-9.551-5.702-9.814l2.105.088c0 .175-.175 4.732 4.649 7.799.526.262 3.684 2.015 6.667 6.396 0 .964.087 2.016.351 2.98a6.137 6.137 0 00-.264 2.541c-1.842-2.103-5.789-6.046-10.877-7.01-.175 0-3.421-.701-5.263-3.944-.965-1.664-1.315-3.592-1.228-5.871.614-.35 1.053-.788 1.579-1.314z" fill="#E6F0E0"/><path d="M385.858 211.411v-.964c0-.789.088-1.577.263-2.453v-.263c-.263-.877-.438-1.84-.351-2.804v-.088l-.087-.088c-2.983-4.381-6.141-6.133-6.755-6.484-4.649-2.979-4.473-7.448-4.473-7.536v-.35l-2.807-.176v.351c0 .263-.351 6.221 5.789 10.165l.088.087s1.316.701 3.07 2.366c-1.842-1.051-3.772-1.84-5.702-2.191 0 0-2.368-.525-3.596-2.804-.965-1.752-1.141-4.206-.351-7.273l.526-2.278-1.228 2.016c-.175.35-.438.701-.965 1.226-.526.526-.965.964-1.491 1.315l-.175.087v.176c-.176 2.365.263 4.381 1.228 6.133 1.929 3.418 5.35 4.119 5.526 4.119 4.912.964 8.859 4.732 10.701 6.922l.79.789zm-.439-3.505a5.51 5.51 0 00-.263 1.665c-2.105-2.278-5.789-5.608-10.526-6.485-.088 0-3.246-.701-5-3.767-.877-1.578-1.228-3.418-1.14-5.521.526-.35.965-.789 1.491-1.314.088-.088.088-.088.088-.176-.439 2.542-.176 4.645.789 6.222 1.404 2.453 3.947 3.067 4.035 3.067 2.544.526 5.088 1.665 7.632 3.505l2.017 1.577-1.579-2.015c-2.544-3.242-5-4.469-5-4.469l-.087-.088c-5-3.154-5.439-7.886-5.527-9.201l1.404.088c0 1.139.526 5.082 4.737 7.799.351.175 3.508 1.84 6.491 6.221a10 10 0 00.438 2.892zm-54.56-26.2c2.369.088 4.649-.438 6.842-1.402 1.053-.526 2.105-1.052 3.07-1.753.527-.35.965-.701 1.404-1.139.438-.438.877-.788 1.316-1.227 1.666-1.752 2.982-3.767 3.771-5.958.439-1.139.702-2.278.878-3.418.175-1.139.263-2.365 0-3.505-1.141 2.016-2.281 3.856-3.509 5.608-1.228 1.753-2.456 3.33-3.947 4.82-.702.701-1.404 1.49-2.193 2.191-.351.35-.79.701-1.141 1.051-.175.175-.438.351-.614.526-.175.175-.438.35-.614.526-1.579 1.139-3.421 2.278-5.263 3.68z" fill="#E6F0E0"/><path d="M329.806 184.597c.351-.087 8.596-1.84 13.508-8.412l-2.982-2.19c-4.035 5.432-11.228 7.01-11.316 7.01l.79 3.592zM144.984 67.967c.351 0 .79 0 1.228-.088 2.106-.263 5.79-1.665 7.018-7.974.438-2.453.438-4.82.351-5.87 1.842-3.944 3.158-11.655-4.123-15.861-4.912-2.804-9.912-1.49-13.859 3.68-3.421 4.469-5.351 11.83.263 17.876.701 3.242 3.508 8.237 9.122 8.237zm-.614-27.515c1.053 0 2.106.35 3.158.964 6.404 3.768 2.632 11.128 2.456 11.391l-.263.526.088.526c0 .087.789 9.726-4.123 10.34-5.088.613-6.491-5.52-6.491-5.696l-.088-.526-.351-.35c-5.614-5.784-1.228-12.18-.263-13.407 1.842-2.541 3.772-3.768 5.877-3.768z" fill="#E6F0E0"/><path d="M132.966 51.843l1.404-3.417c-3.246-1.402-5.263-4.557-6.404-7.01 3.772 1.314 7.193 2.629 7.895 3.067l2.193-2.98c-1.228-.963-8.333-3.417-12.456-4.819l-3.158-1.051.702 3.242c.175.35 2.368 9.814 9.824 12.968zm21.579-1.927c5.965-1.753 7.807-11.217 7.983-12.268l.614-3.418-13.07 5.696 1.491 3.33 6.316-2.804c-.878 2.454-2.369 5.258-4.386 5.87l1.052 3.594zm-6.052-10.166c.438-1.401 1.052-2.716 1.666-3.942.351-.614.702-1.227 1.141-1.753.438-.526.877-1.051 1.316-1.49.964-.963 2.017-1.752 3.157-2.278.614-.263 1.141-.526 1.755-.788.263-.088.614-.176.877-.263.175 0 .263-.088.439-.088h.438c2.983-.526 6.053-1.665 8.684-3.417 1.316-.964 2.544-2.016 3.597-3.243 1.052-1.226 1.842-2.628 2.543-4.118 1.229-2.892 1.667-6.134 1.492-9.113A26.155 26.155 0 00173.58.582c.176 2.98.176 5.783-.175 8.587-.351 2.804-1.053 5.433-2.281 7.711-.614 1.14-1.316 2.191-2.193 3.155s-1.842 1.84-2.895 2.541c-2.193 1.49-4.649 2.454-7.368 3.242h.088c-.176 0-.263.088-.351.088-.088 0-.175.088-.351.088-.175.087-.439.087-.614.175-.351.175-.789.263-1.14.438-.702.35-1.404.788-2.105 1.227-1.316.963-2.457 2.103-3.334 3.33-.877 1.314-1.579 2.716-1.93 4.206-.35 1.49-.526 2.979-.438 4.38z" fill="#E6F0E0"/><path d="M168.493 22.576c-.088-.789-.175-1.402-.175-2.103l-.088-1.84-.263-3.68a19.824 19.824 0 00-.614-3.768c-.176-.614-.263-1.315-.526-1.928-.088-.35-.264-.701-.351-.964-.176-.35-.263-.701-.527-.964a19.925 19.925 0 00-.965 1.928 17.795 17.795 0 00-.614 2.015c-.263 1.402-.35 2.717-.175 4.119.175 1.402.526 2.804 1.14 4.118.351.613.702 1.314 1.228 1.84.614.438 1.228.964 1.93 1.227zm-16.315 7.886c0-.7-.176-1.226-.263-1.752-.088-.526-.264-1.052-.264-1.49-.263-.964-.438-1.84-.701-2.716-.263-.876-.439-1.753-.79-2.716-.263-.964-.614-1.928-1.052-3.155-.527.438-.878.964-1.228 1.49-.264.525-.527 1.139-.614 1.665-.264 1.139-.264 2.453.087 3.592.351 1.14.877 2.279 1.667 3.155.351.438.877.876 1.403 1.139.264.175.527.263.79.438.263.088.614.263.965.35z" fill="#E6F0E0"/><path d="M147.089 41.328l3.684-.438c-.35-3.33.527-6.046 2.72-8.325 1.754-1.752 3.772-2.628 4.21-2.716 1.316-.35 8.86-2.19 11.93-5.52l-2.719-2.454c-2.018 2.278-8.07 4.03-10.088 4.469l-.175.088c-.088 0-3.071 1.051-5.702 3.68-3.07 2.892-4.386 6.835-3.86 11.216z" fill="#E6F0E0"/><path d="M150.948 32.653l2.544-2.716c-1.754-1.665-2.631-5.609-2.807-7.01l-3.684.525c.088.701.877 6.397 3.947 9.201zm14.826-8.938l3.508-.964c-.877-2.979-1.842-7.974-1.491-9.639l-3.596-.876c-.702 3.155 1.14 10.165 1.579 11.48zm-25.439 16.211c.087-1.49-.088-2.98-.527-4.469-.351-1.49-1.052-2.892-1.93-4.206a12.046 12.046 0 00-3.333-3.33c-.702-.438-1.316-.876-2.105-1.226a6.12 6.12 0 00-1.14-.439c-.176-.087-.351-.175-.614-.175-.088 0-.176-.088-.351-.088-.088 0-.176-.087-.351-.087h.088c-2.632-.701-5.176-1.753-7.369-3.242-1.052-.701-2.017-1.578-2.894-2.542-.878-.963-1.579-2.015-2.193-3.154-1.228-2.278-1.93-4.995-2.281-7.711-.351-2.804-.351-5.608-.176-8.588-1.14 2.717-1.929 5.608-2.017 8.675-.175 2.98.263 6.222 1.491 9.114a15.364 15.364 0 002.544 4.118c1.053 1.227 2.281 2.278 3.596 3.242 2.632 1.753 5.702 2.892 8.684 3.418h.439c.176 0 .263.087.439.087.263.088.614.175.877.263a6.33 6.33 0 011.754.789c1.141.613 2.193 1.402 3.158 2.278.439.438.877.964 1.316 1.49.438.526.789 1.139 1.14 1.752.79 1.315 1.316 2.629 1.755 4.031z" fill="#E6F0E0"/><path d="M120.247 22.751c.702-.263 1.316-.788 1.842-1.314.527-.526.877-1.227 1.228-1.84.614-1.315.965-2.717 1.141-4.119.175-1.402.087-2.804-.176-4.118a17.589 17.589 0 00-.614-2.016c-.263-.7-.614-1.314-.965-1.927-.263.35-.351.7-.526.963-.176.351-.263.701-.351.964-.175.701-.351 1.315-.526 1.928-.263 1.314-.439 2.541-.614 3.768l-.263 3.68-.088 1.84c.088.702 0 1.403-.088 2.191zm16.404 7.799c.351-.088.614-.175.877-.263.263-.087.614-.263.79-.438.526-.35.965-.701 1.403-1.14.79-.875 1.404-2.014 1.667-3.154.351-1.139.351-2.453.088-3.592-.176-.614-.351-1.14-.615-1.665-.263-.526-.701-1.052-1.228-1.49-.438 1.227-.789 2.19-1.052 3.155-.263.964-.526 1.84-.79 2.716-.263.876-.438 1.753-.701 2.716-.088.526-.264.964-.264 1.49 0 .438-.087 1.052-.175 1.665z" fill="#E6F0E0"/><path d="M141.738 41.504c.527-4.382-.789-8.325-3.772-11.304-2.543-2.63-5.526-3.68-5.701-3.68l-.176-.088c-2.105-.438-8.07-2.19-10.087-4.47l-2.72 2.454c3.071 3.418 10.527 5.258 11.93 5.52.439.176 2.456.965 4.211 2.717 2.193 2.19 3.07 4.995 2.719 8.325l3.596.526z" fill="#E6F0E0"/><path d="M137.879 32.828c2.982-2.804 3.859-8.5 3.947-9.2l-3.684-.526c-.175 1.402-1.053 5.345-2.807 7.01l2.544 2.716zm-14.825-8.938c.351-1.401 2.281-8.324 1.491-11.479l-3.596.877c.351 1.665-.614 6.572-1.491 9.639l3.596.964zm-7.894 78.426l6.316-2.103c.263-.087 5.614-1.927 11.842-7.097 5.701-4.732 13.333-13.232 17.017-27.165l-3.596-.964c-4.386 16.562-14.737 25.15-21.053 29.005 3.509-9.026-.614-18.49-1.316-20.067-1.228-5.608-.614-10.164 1.667-13.494 3.07-4.47 8.509-5.345 8.596-5.345l-.526-3.68c-.263 0-7.017 1.05-11.052 6.834-2.983 4.206-3.684 9.814-2.193 16.65l.087.262.088.175c.088.088 6.228 12.97-1.403 21.907l-4.474 5.082z" fill="#E6F0E0"/><path d="M124.283 98.373c6.052-3.505 8.421-8.588 9.298-12.18.965-3.856.438-7.01.438-7.098v-.088c-3.771-18.05 1.93-22.695 1.93-22.695l-2.105-3.067c-.789.526-7.719 5.959-3.421 26.463.088.701 1.316 10.078-7.982 15.51l1.842 3.155z" fill="#E6F0E0"/><path d="M122.528 110.028c3.07 13.757-9.386 22.87-11.842 24.535-1.228 2.278-.175 8.062.965 11.83a43.308 43.308 0 00-7.193 3.066l-2.456.088-.263-1.665c-2.368-17.963 1.842-21.731 2.631-22.257 5.79-3.856 6.842-6.835 7.018-7.623-6.228-20.943-3.333-35.051.263-43.113 3.947-9.025 9.561-12.88 9.737-13.056l2.105 3.067c-.175.175-20 14.195-8.509 52.488l.088.263v.263c0 .526-.175 5.17-8.596 10.778-.263.263-2.895 3.593-1.316 17.087l2.368-.087c-.877-3.506-2.105-9.99.263-13.407l.176-.351.351-.175c.175-.088 13.421-8.5 10.526-20.943v-.175c-.088-.438-1.404-11.654 5.438-16.474l2.106 2.98c-4.737 3.329-4.035 12.004-3.86 12.881z" fill="#E6F0E0"/><path d="M106.563 128.604c-.087.088-.087.088 0 0-.087.088 0 0 0 0zm12.632 16.386c-2.017-.262-4.386.351-6.14.877l-3.158 1.051-.087-1.489 5.613-.351c-1.842-6.922-.263-18.664-.087-20.154l3.684.526c-.614 4.03-1.491 14.721.175 19.54zM86.388 88.997c15.965-34.7 37.806-29.706 37.982-29.706l.877-3.592c-.263-.088-6.491-1.578-14.824 1.752-7.544 2.98-18.421 10.603-27.368 29.968l3.333 1.578z" fill="#E6F0E0"/><path d="M50.073 100.827l4.562-17.613-3.597-.877-.35 1.227c-.089-6.221 1.666-11.128 5.175-14.37 12.719-11.743 44.385-2.104 44.736-2.016l1.052-3.505c-1.403-.438-34.034-10.34-48.332 2.804-6.228 5.783-7.895 14.896-5.088 27.076l1.842 7.274z" fill="#E6F0E0"/><path d="M52.792 67.791l.351-1.314 1.316-.088h.087c2.544 0 24.562 6.134 31.228 20.33 4.912 10.515.526 22.607-12.982 35.926-.088.176-1.316 1.841.175 4.995l9.035 19.366.614 1.139c-1.14.35-2.28.788-3.333 1.402-1.404.788-1.754 2.103-1.491 3.242l-7.544 1.227-8.421-26.113c-.965-1.402-3.245-6.134 2.982-12.092.264-.351 1.316-2.016.965-4.031-.35-1.928-2.017-3.681-4.824-5.17l-.263-.088-.176-.175c-.614-.613-13.771-13.933-7.719-38.556zm4.825 26.902c2.017 5.082 4.649 8.149 5.263 8.85 3.684 2.103 5.789 4.644 6.403 7.536.79 3.943-1.579 7.01-1.754 7.097l-.088.088-.088.088c-4.736 4.469-2.894 7.097-2.544 7.448l.264.263 7.719 23.834 6.14-.964-.175-.35-9.035-19.453c-2.72-5.608.35-8.938.438-9.113l.088-.088c11.579-11.391 15.965-21.556 12.982-30.144-4.123-11.917-21.666-18.138-27.192-19.54-2.369 11.04-.527 19.365 1.579 24.448z" fill="#E6F0E0"/><path d="M91.826 105.996c5.877 0 10.263-1.84 13.07-3.68 4.298-2.716 6.228-6.046 6.316-6.221l-3.158-1.84c-.263.438-6.667 10.953-22.631 7.36l-.79 3.593c2.632.525 5 .788 7.193.788zm-45.788 45.391l-1.93-10.165c1.14-5.871 2.807-12.443 3.772-14.283 2.807-1.577 17.28-10.515 18.333-21.206l-3.684-.35c-.877 9.639-16.667 18.489-16.842 18.577l-.351.175-.263.351c-1.755 2.541-4.123 14.02-4.562 16.298l-.087.351 1.052 5.608-4.385-.789c.614-17.262 5.35-24.272 6.578-25.85 4.386-1.051 8.07-4.732 10.702-10.778 1.491-3.417 2.368-6.922 2.807-9.288.965-4.82.526-5.433.263-5.784l-3.07 2.016c-.263-.35-.263-.789-.263-.789.088 2.629-3.07 19.629-11.754 21.118l-.527.088-.438.438c-.351.263-7.544 7.536-8.07 30.406v1.578l12.719 2.278zm89.121-108.832c.614-.263 1.492-.613 1.492-.613.087-.088.789-.614 1.315-.964-.789 2.103-.964 4.03-.438 5.695.789 2.805 3.333 4.031 3.333 4.031 3.07 1.315 5.439 3.505 7.281 5.696-1.842-3.943-4.035-5.783-4.123-5.783l-.088-.088c-4.561-4.557-3.947-9.551-3.684-11.129.263-.087.526-.175.79-.35l1.578.526c-.087.175-1.403 4.907 2.895 9.288.526.438 4.211 3.68 6.14 10.428-.263.35-.526.788-.789 1.139-.526.788-.877 1.665-1.228 2.453-1.404-2.628-4.649-7.798-9.825-10.077-.175-.087-3.421-1.577-4.561-5.433-.351-1.577-.351-3.154-.088-4.819z" fill="#E6F0E0"/><path d="M87.442 100.476c2.369.088 4.65-.438 6.842-1.402 1.053-.526 2.105-1.052 3.07-1.753.527-.35.965-.7 1.404-1.139.438-.438.877-.788 1.316-1.227 1.666-1.752 2.982-3.767 3.771-5.958.439-1.14.702-2.278.878-3.418.175-1.139.263-2.365 0-3.505-1.141 2.016-2.281 3.856-3.509 5.608-1.228 1.753-2.456 3.33-3.948 4.82-.701.7-1.403 1.49-2.192 2.19-.351.351-.79.702-1.14 1.052-.176.175-.44.35-.615.526-.175.175-.438.35-.614.526a158.938 158.938 0 00-5.263 3.68z" fill="#E6F0E0"/><path d="M86.477 103.28c.35-.088 8.596-1.84 13.508-8.412l-2.982-2.19c-4.035 5.432-11.228 7.01-11.316 7.01l.79 3.592zM64.634 79.796c1.842.876 3.597 1.84 5.176 2.98 1.579 1.139 3.07 2.365 4.21 3.767 1.14 1.402 2.018 2.98 2.544 4.645.175.438.175.876.263 1.226l.088.35v.351l.088.614v1.402c0 .438-.088.876-.088 1.314 0 .263 0 .438-.088.701l-.088.701-.087.701c0 .263-.088.438-.176.701-.088.438-.263.877-.35 1.315-.176.438-.352.876-.44 1.314a7194.422 7194.422 0 00-1.052 2.629l-.614 1.314-.35.614c-.088.175-.264.438-.352.613-1.842 3.417-4.035 6.747-6.14 10.252.79-.613 1.58-1.226 2.368-1.927.44-.351.79-.701 1.14-1.052l1.053-1.052c.702-.701 1.404-1.489 2.106-2.278.35-.35.701-.788.965-1.227.35-.438.614-.788.965-1.226a2.67 2.67 0 00.438-.614l.439-.613.79-1.315c.262-.438.525-.963.789-1.402.263-.438.526-.963.701-1.402a21.143 21.143 0 001.755-6.221c0-.526.087-1.14.087-1.665v-1.314l-.087-.439-.088-.876c0-.175 0-.263-.088-.438l-.087-.438c-.176-.526-.264-1.14-.527-1.665a14.122 14.122 0 00-3.772-5.52c-1.666-1.49-3.508-2.542-5.438-3.33-.965-.438-1.93-.701-2.983-.964a20.497 20.497 0 00-3.07-.526z" fill="#E6F0E0"/><path d="M64.547 121.682c17.895-14.021 16.14-28.216 16.053-28.83l-3.685.526 1.842-.263-1.842.263c.088.526 1.492 12.794-14.649 25.412l2.281 2.892zm-52.893-2.191c.35 0 .701-.087 1.052-.087 1.93-.263 5.176-1.665 6.053-7.449.35-2.19.175-4.381.087-5.257 1.58-3.593 2.457-10.603-4.21-14.196-4.474-2.453-9.035-1.051-12.456 3.768-2.895 4.119-4.386 10.778.79 16.123.964 2.892 3.596 7.273 8.684 7.098zm-1.492-24.798c.965 0 1.93.175 2.895.788 5.965 3.155 2.72 9.99 2.632 10.253l-.176.438.088.526c0 .087 1.053 8.762-3.333 9.463-4.562.701-5.965-4.731-6.053-4.994l-.088-.439-.35-.35c-5.264-4.995-1.492-10.953-.702-12.093 1.491-2.365 3.245-3.504 5.087-3.592z" fill="#E6F0E0"/><path d="M.339 105.296l1.228-3.067c-2.983-1.139-4.913-3.944-6.053-6.134 3.421 1.051 6.579 2.19 7.193 2.541l1.93-2.716c-1.14-.789-7.632-2.804-11.404-3.944l-2.807-.876.79 2.892c0 .263 2.28 8.675 9.123 11.304zm19.297-2.366c5.264-1.753 6.667-10.34 6.842-11.392l.439-3.067-11.579 5.608 1.404 2.98 5.614-2.717c-.702 2.279-2.018 4.82-3.772 5.433l1.052 3.155zm-5.702-8.938c.35-1.315.79-2.454 1.403-3.593.263-.526.614-1.14.965-1.577a8.87 8.87 0 011.14-1.402c.79-.877 1.755-1.578 2.808-2.191.526-.263 1.052-.526 1.578-.701l.79-.263c.175 0 .263-.088.439-.088h.437c2.72-.613 5.35-1.665 7.72-3.33 1.14-.876 2.192-1.84 3.07-3.066.877-1.14 1.578-2.454 2.105-3.768 1.052-2.717 1.315-5.52 1.052-8.237-.263-2.717-.965-5.345-2.105-7.711.263 2.629.35 5.257.088 7.799-.264 2.54-.79 4.907-1.842 7.097a15.688 15.688 0 01-1.93 2.98c-.79.876-1.58 1.664-2.544 2.365-1.93 1.403-4.123 2.366-6.491 3.155h.088c-.176 0-.264.088-.351.088-.088 0-.176.087-.263.087-.176.088-.351.088-.527.175-.35.176-.702.263-1.052.439-.614.35-1.228.7-1.842 1.139-1.14.876-2.193 1.928-2.895 3.154a11.215 11.215 0 00-1.58 3.856c-.262.876-.438 2.278-.262 3.593z" fill="#E6F0E0"/><path d="M31.479 77.78a46.229 46.229 0 00-.264-1.84l-.175-1.664c-.088-1.14-.175-2.19-.35-3.33-.176-1.14-.352-2.278-.615-3.417-.175-.614-.35-1.14-.526-1.753-.088-.263-.263-.613-.351-.876-.176-.263-.263-.614-.526-.877-.264.614-.614 1.227-.79 1.753-.175.613-.35 1.227-.439 1.84a13.552 13.552 0 000 3.768c.176 1.227.527 2.541 1.14 3.68.352.614.703 1.14 1.141 1.665.526.439 1.053.789 1.755 1.052zm-14.563 7.624a29.27 29.27 0 00-.263-1.577c-.088-.526-.263-.876-.351-1.402-.263-.876-.439-1.665-.702-2.454-.263-.788-.438-1.577-.79-2.453-.262-.877-.613-1.753-1.052-2.804-.438.35-.79.876-1.052 1.314a5.568 5.568 0 00-.527 1.577c-.175 1.052-.175 2.191.176 3.243.35 1.051.877 2.015 1.666 2.804.351.438.79.7 1.316 1.051.263.175.526.263.79.35.263.176.526.264.789.351z" fill="#E6F0E0"/><path d="M12.707 95.394l3.245-.526c-.438-2.98.263-5.52 2.193-7.536 1.491-1.665 3.333-2.453 3.684-2.629 1.228-.35 7.895-2.278 10.526-5.433l-2.543-2.102c-1.755 2.102-7.193 3.855-8.948 4.293l-.175.088c-.088 0-2.72 1.051-5 3.505-2.544 2.804-3.596 6.397-2.982 10.34z" fill="#E6F0E0"/><path d="M15.865 87.42l2.193-2.541c-1.667-1.403-2.544-4.995-2.807-6.222l-3.246.613c.088.614 1.053 5.696 3.86 8.15zm13.157-8.5l3.158-1.052c-.878-2.716-1.93-7.097-1.667-8.587l-3.246-.614c-.613 2.805 1.316 9.026 1.755 10.253zM6.566 94.342c0-1.314-.175-2.629-.614-3.943-.35-1.314-1.052-2.541-1.842-3.68a12.426 12.426 0 00-3.158-2.892 38.341 38.341 0 00-1.93-1.052c-.35-.175-.701-.262-1.052-.35-.175-.088-.35-.088-.526-.175-.088 0-.176-.088-.263-.088-.088 0-.176 0-.351-.088h.087c-2.456-.525-4.736-1.402-6.754-2.628a16.537 16.537 0 01-2.72-2.191c-.788-.876-1.49-1.752-2.104-2.804-1.228-2.015-1.93-4.469-2.281-6.922-.439-2.454-.439-5.083-.439-7.712-.965 2.454-1.49 5.17-1.578 7.887-.088 2.716.438 5.608 1.666 8.149.614 1.314 1.404 2.541 2.368 3.593a17.137 17.137 0 003.334 2.804c2.456 1.49 5.175 2.366 7.982 2.804h.439c.175 0 .263.087.438.087.263.088.527.176.79.176.526.175 1.052.35 1.579.613 1.052.526 2.017 1.14 2.894 2.015.439.439.878.877 1.228 1.315.351.438.702.964 1.053 1.49a16.945 16.945 0 011.754 3.592z" fill="#E6F0E0"/><path d="M2.969 86.018l.79-.263a1.91 1.91 0 00.701-.438c.439-.35.877-.701 1.228-1.14.702-.788 1.14-1.84 1.404-2.891a6.756 6.756 0 000-3.242c-.176-.526-.351-1.052-.614-1.49-.263-.438-.614-.964-1.14-1.314-.352 1.139-.615 2.015-.878 2.891-.263.877-.438 1.665-.614 2.454-.175.789-.35 1.577-.526 2.454-.088.438-.176.876-.263 1.401 0 .526-.088.964-.088 1.578z" fill="#E6F0E0"/><path d="M7.882 95.744c.35-3.943-.965-7.448-3.772-10.077C1.654 83.39-.978 82.6-1.153 82.513h-.175c-1.93-.351-7.369-1.753-9.21-3.68l-2.37 2.278C-10.1 84.09-3.17 85.49-2.03 85.755c.35.087 2.193.788 3.86 2.366 2.017 1.927 2.982 4.381 2.719 7.36l3.333.263z" fill="#E6F0E0"/><path d="M4.11 88.033c2.632-2.629 3.246-7.799 3.333-8.412l-3.333-.35c-.175 1.226-.79 4.907-2.368 6.396l2.368 2.366zm-18.333 63.442l5.614-2.103c.175-.088 5-1.928 10.438-6.747 5-4.469 11.579-12.443 14.474-25.062l-3.246-.701c-3.42 15.072-12.456 23.134-18.07 26.814 2.895-8.237-1.14-16.649-1.842-18.051-1.228-5.082-.877-9.201 1.053-12.268 2.631-4.118 7.544-5.082 7.544-5.082l-.614-3.242c-.264.088-6.316 1.139-9.737 6.484-2.544 3.943-3.07 9.026-1.491 15.072l.087.175.088.176c.088.087 6.053 11.479-.614 19.803l-3.684 4.732z" fill="#E6F0E0"/><path d="M-6.065 147.619c5.35-3.33 7.368-7.974 7.982-11.304.702-3.505.176-6.309.176-6.396v-.088c-4.035-16.211.965-20.505 1.053-20.592l-1.93-2.717c-.702.526-6.842 5.609-2.28 23.922.087.614 1.49 9.114-6.755 14.196l1.754 2.979zm8.07-50.736a40.11 40.11 0 011.316-.613c.087-.088.701-.526 1.14-.964-.614 1.928-.702 3.68-.263 5.17.877 2.541 3.158 3.505 3.158 3.505 2.807 1.139 5.087 2.979 6.754 4.907-1.842-3.505-3.86-5.082-3.86-5.082l-.087-.088c-4.21-4.03-3.948-8.5-3.685-9.901.264-.088.439-.176.702-.263l1.404.35c-.088.175-1.14 4.47 2.894 8.237.527.351 3.86 3.155 5.877 9.201-.263.35-.526.701-.701 1.051-.439.701-.702 1.49-.965 2.279-1.316-2.366-4.386-6.835-9.123-8.763-.088-.088-3.158-1.314-4.298-4.732-.35-1.402-.526-2.804-.263-4.294z" fill="#E6F0E0"/></svg>