<svg width="219" height="43" viewBox="0 0 219 43" fill="none" xmlns="http://www.w3.org/2000/svg">
<path d="M15.7194 36.8324H20.3517L12.5871 5.95032H7.77831L0.0136719 36.8324H4.6901L6.10185 30.6119H14.2635L15.7194 36.8324ZM7.07243 26.4648L8.96948 18.1708C9.45477 16.1414 9.89594 13.1856 10.1165 11.5532H10.2489C10.4695 13.1856 10.9548 16.1414 11.3959 18.1708L13.3371 26.4648H7.07243Z" fill="#333333"/>
<path d="M34.2745 36.8324H39.1715L30.9216 22.8913L38.0686 13.5826H32.9951L26.3775 22.6708V4.89151H22.1423V36.8324H26.3775V28.0531L28.0981 26.2001L34.2745 36.8324Z" fill="#333333"/>
<path d="M49.9982 13.0532C47.2188 13.0532 45.2335 14.2444 44.0424 16.2738L43.5571 13.5826H40.513V36.8324H44.7923V22.4943C44.7923 19.009 46.6453 17.112 49.557 17.112C50.7041 17.112 51.5864 17.2885 52.4246 17.6414V13.4061C51.7629 13.1414 50.9688 13.0532 49.9982 13.0532Z" fill="#333333"/>
<path d="M61.863 37.3618C66.9365 37.3618 70.0688 34.2295 70.0688 28.5384V21.8325C70.0688 16.1414 66.9365 13.0091 61.863 13.0091C56.8336 13.0091 53.7013 16.1414 53.7013 21.8325V28.5384C53.7013 34.2295 56.8336 37.3618 61.863 37.3618ZM61.863 33.2148C59.4806 33.2148 58.0248 31.803 58.0248 28.5384V21.8325C58.0248 18.5679 59.4806 17.1561 61.863 17.1561C64.2894 17.1561 65.7453 18.5679 65.7453 21.8325V28.5384C65.7453 31.803 64.2894 33.2148 61.863 33.2148Z" fill="#333333"/>
<path d="M82.1962 13.0091C80.5197 13.0091 78.8874 13.715 77.7404 14.862V4.89151H73.5492V36.8324H76.6374L76.9462 34.7148C78.1374 36.2148 80.1227 37.3618 82.1962 37.3618C86.6079 37.3618 89.6079 34.0089 89.6079 28.3178V21.9208C89.6079 16.3179 86.6962 13.0091 82.1962 13.0091ZM85.2403 28.3178C85.2403 31.7589 83.8727 33.303 81.4903 33.303C79.2845 33.303 77.7404 31.7148 77.7404 28.3619V21.9208C77.7404 18.9208 79.1521 17.0679 81.4903 17.0679C83.9609 17.0679 85.2403 18.5679 85.2403 21.9208V28.3178Z" fill="#333333"/>
<path d="M100.408 13.0091C95.7312 13.0091 92.7313 15.7444 92.5107 20.2002H96.7901C97.0106 18.1267 98.4224 17.112 100.319 17.112C102.658 17.112 103.672 18.6561 103.672 21.3914V23.0237H100.275C95.1577 23.0237 91.8489 25.4502 91.8489 30.2148C91.8489 34.5824 94.7165 37.4059 98.9959 37.4059C101.555 37.4059 103.231 36.2148 104.158 34.6707L104.466 36.8324H107.952V21.3914C107.952 16.0532 105.393 13.0091 100.408 13.0091ZM103.672 29.906C103.672 32.1119 102.216 33.6118 99.8783 33.6118C97.54 33.6118 96.1724 32.3324 96.1724 30.2148C96.1724 27.9207 97.6724 26.7296 100.275 26.7296H103.672V29.906Z" fill="#333333"/>
<path d="M120.838 33.0824C118.544 33.0824 117.486 31.8913 117.486 29.3766V17.4649H121.809V13.5826H117.486V8.06795H113.25V13.5826H109.986V17.4649H113.25V29.3325C113.25 34.1413 115.986 37.0971 120.618 37.0971H122.25V33.0824H120.838Z" fill="#333333"/>
<path d="M141.496 42.2147V38.2C139.29 38.0677 138.011 36.6559 138.011 34.1413V8.68559C138.011 6.21503 139.29 4.75915 141.496 4.67092V0.65625C136.643 0.788603 133.732 3.92093 133.732 8.90618V33.9648C133.732 38.95 136.643 42.0824 141.496 42.2147Z" fill="#333333"/>
<path d="M157.631 20.9502C159.528 19.759 160.763 17.3326 160.763 14.3326C160.763 9.17088 157.543 5.95032 152.557 5.95032H144.175V36.8324H152.999C158.381 36.8324 161.91 33.5236 161.91 28.009C161.91 24.656 160.278 22.0531 157.631 20.9502ZM152.028 10.1415C154.896 10.1415 156.219 11.5532 156.219 14.465C156.219 17.4649 154.851 19.009 152.16 19.009H148.631V10.1415H152.028ZM152.425 32.6413H148.631V23.2002H152.249C155.381 23.2002 157.366 24.8325 157.366 28.009C157.366 31.1413 155.69 32.6413 152.425 32.6413Z" fill="#333333"/>
<path d="M172.363 37.3618C177.436 37.3618 180.569 34.2295 180.569 28.5384V21.8325C180.569 16.1414 177.436 13.0091 172.363 13.0091C167.334 13.0091 164.201 16.1414 164.201 21.8325V28.5384C164.201 34.2295 167.334 37.3618 172.363 37.3618ZM172.363 33.2148C169.981 33.2148 168.525 31.803 168.525 28.5384V21.8325C168.525 18.5679 169.981 17.1561 172.363 17.1561C174.789 17.1561 176.245 18.5679 176.245 21.8325V28.5384C176.245 31.803 174.789 33.2148 172.363 33.2148Z" fill="#333333"/>
<path d="M183.961 36.8324H188.24V4.89151H183.961V36.8324Z" fill="#333333"/>
<path d="M203.504 4.89151V14.9061C202.357 13.715 200.681 13.0091 199.004 13.0091C194.504 13.0091 191.637 16.3179 191.637 21.9208V28.3178C191.637 34.0089 194.637 37.3618 199.004 37.3618C201.122 37.3618 203.107 36.1706 204.254 34.6707L204.563 36.8324H207.651V4.89151H203.504ZM203.504 28.3619C203.504 31.7148 201.916 33.303 199.71 33.303C197.372 33.303 195.96 31.7589 195.96 28.3178V21.9208C195.96 18.5679 197.24 17.0679 199.71 17.0679C202.048 17.0679 203.504 18.9208 203.504 21.9208V28.3619Z" fill="#333333"/>
<path d="M211.128 42.2147C215.98 42.0824 218.892 38.95 218.892 33.9648V8.90618C218.892 3.92093 215.98 0.788603 211.128 0.65625V4.67092C213.333 4.75915 214.613 6.21503 214.613 8.68559V34.1413C214.613 36.6559 213.333 38.0677 211.128 38.2V42.2147Z" fill="#333333"/>
</svg>
