<svg width="135" height="48" viewBox="0 0 135 48" fill="none" xmlns="http://www.w3.org/2000/svg">
<path d="M60.489 15.993C60.489 16.7659 60.126 17.2168 59.5814 17.2168C58.9763 17.2168 58.6738 16.7659 58.6738 15.993H55.709C55.7695 18.3118 57.0401 19.922 59.6419 19.922C62.0622 19.922 63.3933 18.3118 63.5143 15.993H60.489Z" fill="#562212"/>
<path d="M54.1963 31.7099V20.7603H57.6451C57.6451 20.7603 57.6451 25.4622 57.6451 25.8486C57.6451 26.2351 57.5846 26.6216 57.5846 26.6216H57.7056L61.457 20.6958H64.7848V31.6456H61.336C61.336 31.6456 61.336 27.0081 61.336 26.4927C61.336 26.1063 61.3965 25.7842 61.3965 25.7842H61.2755L57.4636 31.7099H54.1963Z" fill="#562212"/>
<path d="M47.0567 20.5026C50.324 20.5026 52.8048 22.9502 52.8048 26.2996C52.8048 29.5845 50.3845 32.0321 47.0567 32.0321C43.7893 32.0321 41.3691 29.5845 41.3691 26.2996C41.3691 22.9502 43.7893 20.5026 47.0567 20.5026ZM47.0567 28.6183C48.3273 28.6183 49.1139 27.5877 49.1139 26.2996C49.1139 24.947 48.2669 23.9164 47.0567 23.9164C45.8466 23.9164 44.9995 24.947 44.9995 26.2996C44.939 27.5877 45.8466 28.6183 47.0567 28.6183Z" fill="#562212"/>
<path d="M37.1939 20.7599C37.1939 20.7599 34.2896 24.7534 34.1686 24.8822C34.0475 25.0755 33.987 25.1398 33.987 25.1398H33.866C33.866 25.1398 33.866 25.0111 33.6845 24.8822C33.5635 24.6246 30.5382 20.7599 30.5382 20.7599H27.8154V31.7097H31.1432C31.1432 31.7097 31.1432 27.5874 31.1432 27.1366C31.1432 26.6213 31.0827 26.3636 31.0827 26.3636H31.2037L33.866 29.6486H34.0475L36.5283 26.3636H36.6493C36.6493 26.3636 36.5888 26.6857 36.5888 27.1366C36.5888 27.6518 36.5888 31.7097 36.5888 31.7097H39.9167V20.7599H37.1939Z" fill="#562212"/>
<path d="M74.4402 20.7474C72.6855 20.7474 70.8703 21.778 70.2048 23.3239H70.0837C70.1442 23.195 70.2048 23.0018 70.2048 22.873C70.3863 20.4898 71.2334 18.6219 72.988 17.9778C74.0772 17.5913 75.1663 17.3981 75.9529 17.2049C76.7999 17.0117 77.7075 16.754 78.252 16.6252L77.647 14.7573C76.6789 15.0149 75.7713 15.2726 74.3192 15.5947C73.7141 15.7234 72.988 15.8523 72.2015 16.2387C69.4787 17.3981 68.2686 19.8457 68.2686 24.4832C68.2686 28.6698 70.2048 31.9548 73.9561 31.9548C77.405 31.9548 79.4622 29.1207 79.4622 26.2223C79.5227 22.9374 77.526 20.7474 74.4402 20.7474ZM73.9561 30.0869C71.6569 30.0869 70.3258 27.8325 70.3258 25.2561C70.8703 23.7747 72.5645 22.5509 74.0167 22.5509C76.0739 22.5509 77.405 23.9036 77.405 26.2867C77.405 28.5411 75.8923 30.0869 73.9561 30.0869Z" fill="#562212"/>
<path d="M82.9714 28.476C82.9714 28.476 82.9109 28.476 82.8504 28.476C82.9109 28.2828 82.9714 28.0252 82.9714 27.7675C82.9714 27.5099 82.9714 20.618 82.9714 20.618H80.9141V31.5677H82.7293L88.5981 23.7097C88.5981 23.7097 88.6586 23.7097 88.7191 23.7097C88.6586 23.9029 88.5981 24.1605 88.5981 24.4182C88.5981 24.6758 88.5981 31.5677 88.5981 31.5677H90.6555V20.618H88.8402L82.9714 28.476Z" fill="#562212"/>
<path d="M98.5208 25.9646C99.731 25.4493 100.336 24.612 100.336 23.3238C100.336 21.5203 98.9444 20.2965 96.4634 20.2965C95.0725 20.2965 93.5597 20.7474 92.289 21.7135L93.0756 23.2594C93.9833 22.4864 95.1935 22.1 96.1609 22.1C97.4921 22.1 98.2182 22.6797 98.2182 23.6459C98.2182 24.5476 97.5526 25.1273 96.5239 25.1273H94.8909V26.8019H96.7055C97.9762 26.8019 98.5813 27.2528 98.5813 28.1545C98.5813 29.2495 97.5526 29.958 96.0398 29.958C94.9515 29.958 93.6807 29.4427 92.8941 28.7342L92.1074 30.28C93.0151 31.1174 94.5279 31.7615 96.3424 31.7615C98.8234 31.7615 100.699 30.4089 100.699 28.3478C100.639 27.1883 99.9126 26.1579 98.5208 25.9646Z" fill="#562212"/>
<path d="M109.655 25.1267H104.149V20.618H102.092V31.5677H104.149V26.8014H109.655V31.5677H111.712V20.618H109.655V25.1267Z" fill="#562212"/>
<path d="M118.125 20.3618C115.1 20.3618 113.104 22.8738 113.104 26.2232C113.104 29.5081 115.1 31.9557 118.67 31.9557C120.425 31.9557 121.877 31.376 122.966 30.4743L122.179 28.9284C121.393 29.5725 120.183 30.1522 118.791 30.1522C116.552 30.1522 115.463 28.864 115.281 26.9317H123.148C123.148 26.7385 123.208 26.4808 123.208 26.2232C123.148 22.8738 121.635 20.3618 118.125 20.3618ZM115.281 25.1926C115.523 23.5179 116.733 22.1654 118.246 22.1654C120.122 22.1654 121.03 23.5179 121.151 25.1926H115.281Z" fill="#562212"/>
<path d="M130.227 30.0868C128.109 30.0868 126.596 28.4121 126.596 26.029C126.596 23.9679 127.807 22.2288 130.106 22.2288C131.135 22.2288 132.224 22.5508 133.373 23.3238C133.373 23.3238 133.917 22.2932 134.22 21.7135C133.01 20.8118 131.558 20.2965 130.046 20.2965C126.717 20.2965 124.479 22.7441 124.479 26.0934C124.479 29.3139 126.717 31.8903 130.046 31.8903C131.679 31.8903 133.131 31.375 134.22 30.4733L133.433 28.9275C132.647 29.5716 131.498 30.0868 130.227 30.0868Z" fill="#562212"/>
<path d="M13.5969 39.5126L10.2174 35.9151L6.83789 39.5126L10.2174 47.0865L13.5969 39.5126Z" fill="#ED5338"/>
<path d="M10.2183 20.2625C11.5281 20.2625 12.5898 19.1322 12.5898 17.7379C12.5898 16.3436 11.5281 15.2133 10.2183 15.2133C8.90851 15.2133 7.84668 16.3436 7.84668 17.7379C7.84668 19.1322 8.90851 20.2625 10.2183 20.2625Z" fill="#C59368"/>
<path d="M10.2179 3.97879C9.50641 4.35748 0.138672 9.65911 0.138672 18.0534C0.138672 25.2485 5.65259 36.1674 5.65259 36.1674L10.2179 31.3076L14.7832 36.1674C14.7832 36.1674 20.2971 25.2485 20.2971 18.0534C20.2971 9.65911 10.9293 4.35748 10.2179 3.97879ZM13.2417 28.0257L10.2179 24.8068L7.19413 28.0257C7.01626 27.5838 5.00042 21.7772 5.00042 17.9272C5.00042 12.8149 9.80283 9.91163 10.2179 9.72228C10.5736 9.91163 15.4354 12.8149 15.4354 17.9272C15.3761 21.7772 13.3602 27.5838 13.2417 28.0257Z" fill="#C59368"/>
<path d="M23.7358 3.98865L20.2981 0.329102L16.8604 3.98865L20.2981 7.6482L23.7358 3.98865Z" fill="#C59368"/>
</svg>
