<svg width="170" height="51" fill="none" xmlns="http://www.w3.org/2000/svg"><path d="M10.06 27.588H7.545V7.514c-4.26.553-4.926 3.862-5.019 4.51v15.564H.012V11.77c.23-2.5 2.375-7.223 8.781-7.223h1.258l.009 23.042z" fill="#5A9D32"/><path d="M8.804 18.705H1.271V21.6h7.533v-2.894zm45.636 8.83h-2.515V7.43c-4.262.543-4.927 3.851-5.02 4.51v15.596h-2.523v-15.85c.23-2.5 2.376-7.224 8.782-7.224h1.257l.018 23.075z" fill="#5A9D32"/><path d="M53.182 18.61h-7.534v2.893h7.534v-2.894zm20.538 9.085h-.083c-3.587 0-4.77-3.787-4.89-5.787V10.099c.12-2 1.303-5.766 4.89-5.787 1.34-.018 2.636.544 3.633 1.575a5.61 5.61 0 011.035 1.904c.226.71.32 1.468.278 2.223v2.128h-2.524v-2.128a3.006 3.006 0 00-.09-1.083 2.756 2.756 0 00-.465-.949c-.505-.48-1.138-.742-1.793-.744-2.052 0-2.366 2.574-2.403 3.053v11.49c0 .457.342 3.052 2.403 3.052.676.016 1.333-.252 1.849-.755.207-.269.363-.585.457-.928a2.92 2.92 0 00.088-1.061v-4.436h2.478v4.372a6.12 6.12 0 01-.277 2.201 5.545 5.545 0 01-1.027 1.884c-.972 1.021-2.242 1.587-3.559 1.585zm-51.523-.107h-2.468V7.514c-4.271.553-4.937 3.862-5.03 4.51v15.564h-2.514V11.77c.232-2.5 2.376-7.223 8.792-7.223h1.22v23.042zm20.07-.052h-2.505V11.972c-.083-.628-.74-3.958-5.029-4.51v20.074H32.21V4.493h1.257c6.415 0 8.55 4.723 8.791 7.223v15.82h.01z" fill="#5A9D32"/><path d="M34.428 27.536h-2.514V11.972c-.084-.628-.74-3.958-5.029-4.51v20.074H24.38V4.493h1.248c6.415 0 8.56 4.723 8.79 7.223v15.82h.01zm103.417-.096h-2.514V4.504h10.048v8.223c-.212 2.32-2.089 6.585-7.524 7.16l-.01 7.553zm0-20.043v9.575c4.262-.554 4.937-3.862 5.02-4.522V7.397h-5.02zm19.721 20.139h-2.515V7.419c-4.261.553-4.936 3.862-5.019 4.521v15.596h-2.514V11.674c.231-2.49 2.366-7.223 8.781-7.223h1.257l.01 23.085z" fill="#5A9D32"/><path d="M156.307 18.61h-7.534v2.893h7.534v-2.894zM63.628 1.057h-4.049v2.894h4.049V1.057zm-5.796 26.478h-1.257V4.504h2.514v20.074c4.262-.543 4.927-3.862 5.02-4.51V4.503h2.514v15.819c-.24 2.5-2.385 7.212-8.79 7.212z" fill="#5A9D32"/><path d="M66.624 5.504h-2.515v22.01h2.515V5.504zm27.52 22.032h-1.257V4.45H95.4v20.074c4.261-.542 4.927-3.85 5.019-4.51V4.45h2.515v15.82c-.241 2.5-2.385 7.266-8.791 7.266z" fill="#5A9D32"/><path d="M102.935 5.45h-2.514v22.01h2.514V5.45zM112.36.992h-4.048v2.893h4.048V.992zm-6.044 26.544h-1.257V4.493h2.514v20.075c4.261-.554 4.927-3.862 5.019-4.511V4.493h2.515v15.82c-.231 2.5-2.376 7.223-8.791 7.223z" fill="#5A9D32"/><path d="M115.117 5.493h-2.514v22.01h2.514V5.494zm10.548-1.192h-2.515v23.192h2.515V4.3z" fill="#5A9D32"/><path d="M123.761 19.95v-2.883c5.389 0 6.175-3.883 6.276-4.595v-8.17h2.515v8.425c-.241 2.5-2.385 7.223-8.791 7.223z" fill="#5A9D32"/><path d="M133.206 27.45h-2.515v-5.02a5.595 5.595 0 00-.953-2.214 4.667 4.667 0 00-1.727-1.468l1.054-2.627c1.076.537 2.019 1.377 2.741 2.442a8.724 8.724 0 011.391 3.654v5.319l.009-.085zM166.994.94h-4.049v2.893h4.049V.94zm-6.046 26.594h-1.258V4.44h2.515v20.074c4.261-.553 4.936-3.862 5.028-4.51V4.439h2.506v15.819c-.241 2.5-2.413 7.276-8.791 7.276z" fill="#5A9D32"/><path d="M169.75 5.44h-2.515v22.01h2.515V5.44zm-86.534-.968h-2.514v23.191h2.514V4.472z" fill="#5A9D32"/><path d="M81.303 20.089v-2.862c5.398 0 6.184-3.873 6.286-4.596v-8.16h2.514v8.415c-.24 2.5-2.385 7.203-8.8 7.203z" fill="#5A9D32"/><path d="M90.75 27.61h-2.505V22.6a5.58 5.58 0 00-.952-2.216 4.65 4.65 0 00-1.729-1.465l1.054-2.628c1.073.53 2.013 1.36 2.734 2.416a8.676 8.676 0 011.398 3.627v5.319-.043z" fill="#5A9D32"/><path d="M39.76 45.163c0 2.021-1.127 3.255-3.401 3.255H33.29V37.206h2.921c1.978 0 3.05 1.17 3.05 3.106a2.918 2.918 0 01-.305 1.218 2.49 2.49 0 01-.767.91c.477.207.886.581 1.168 1.07.282.488.423 1.067.404 1.653zm-4.732-3.362h1.09c.925 0 1.387-.51 1.387-1.447 0-.936-.517-1.425-1.442-1.425H35.02l.009 2.872zm2.958 3.298c0-1.064-.5-1.553-1.553-1.553h-1.414v3.138h1.405c1.053 0 1.553-.563 1.553-1.585h.009zm3.012-.542v-3.543c0-2.595 1.257-4.085 3.29-4.085 2.035 0 3.31 1.49 3.384 4.085h-1.849c0-1.425-.573-2.127-1.553-2.127s-1.497.68-1.497 2.127v3.543c0 1.425.554 2.127 1.497 2.127.943 0 1.553-.702 1.609-2.127h1.83c-.055 2.617-1.35 4.106-3.42 4.106s-3.291-1.5-3.291-4.106zm14.938.351a4.234 4.234 0 01-.273 1.516 3.78 3.78 0 01-.782 1.26 3.22 3.22 0 01-1.158.788c-.43.166-.885.228-1.337.18-2.033 0-3.309-1.531-3.309-4.255V41.1c0-2.66 1.276-4.17 3.328-4.17 2.052 0 3.402 1.51 3.402 4.17v2.49h-4.955v.85c0 1.533.573 2.235 1.553 2.235s1.553-.553 1.72-1.766h1.811zm-5.084-3.83v.958h3.161v-.958c0-1.532-.591-2.213-1.608-2.213-1.017 0-1.553.681-1.553 2.213zm17.113-3.872v11.212H66.17v-4.787h-2.718v4.787H61.66V37.206h1.794v4.51h2.717v-4.51h1.793zm8.392 3.766v7.446h-1.47l-.138-1.063a2.547 2.547 0 01-.918 1.003c-.38.233-.807.342-1.236.316a2.493 2.493 0 01-1.179-.207 2.824 2.824 0 01-1-.748 3.348 3.348 0 01-.643-1.155 3.705 3.705 0 01-.173-1.358c0-2.298 1.387-3.469 3.531-3.469h1.424v-.787c0-1.319-.425-2.064-1.405-2.064a1.192 1.192 0 00-.542.071c-.175.065-.336.17-.475.31-.138.14-.25.31-.33.5-.08.19-.124.398-.132.609h-1.784c0-.485.087-.965.257-1.409.17-.444.419-.842.73-1.168.312-.327.68-.575 1.08-.728.4-.154.822-.21 1.242-.163 2.09.021 3.161 1.49 3.161 4.064zm-1.793 2.574h-1.423c-1.091 0-1.72.575-1.72 1.68-.01.232.025.463.101.677.076.215.193.407.341.563.148.157.325.273.517.342.192.07.395.089.594.057a1.3 1.3 0 00.618-.097c.198-.083.378-.213.529-.382.15-.17.267-.374.344-.6.076-.225.11-.466.1-.708v-1.532zm3.708 1.011v-3.543c0-2.595 1.257-4.085 3.29-4.085 2.034 0 3.31 1.49 3.384 4.085h-1.85c0-1.425-.572-2.127-1.552-2.127-.98 0-1.498.68-1.498 2.127v3.543c0 1.425.555 2.127 1.498 2.127s1.553-.702 1.608-2.127h1.794c-.056 2.617-1.35 4.106-3.42 4.106-2.071 0-3.254-1.5-3.254-4.106zm13.643-5.415h-2.237v9.276h-1.775v-9.276h-2.218v-1.936h6.23v1.936zm.712 5.276v-3.191c0-2.745 1.313-4.256 3.42-4.256 2.108 0 3.439 1.511 3.439 4.256v3.191c0 2.745-1.313 4.256-3.439 4.256-2.126 0-3.42-1.511-3.42-4.256zm5.047 0v-3.191c0-1.575-.61-2.256-1.627-2.256s-1.608.681-1.608 2.256v3.191c0 1.575.61 2.256 1.608 2.256.999 0 1.627-.681 1.627-2.256zm9.41-7.212v11.212h-1.691v-3.787h-1.054l-1.757 3.788h-2.033l2.07-4.086a3.219 3.219 0 01-1.356-1.413 3.912 3.912 0 01-.4-2.055 3.962 3.962 0 01.202-1.458c.158-.463.399-.883.71-1.23.31-.347.681-.613 1.088-.78a2.658 2.658 0 011.272-.191h2.949zm-1.691 1.872h-1.184a1.275 1.275 0 00-.638.09 1.45 1.45 0 00-.542.397 1.734 1.734 0 00-.339.629c-.071.236-.095.487-.071.735 0 1.255.518 1.936 1.553 1.936h1.221v-3.787zm15.381 7.468v4.394h-1.701v-2.522h-9.983V37.206h1.849v9.297h2.625v-9.297h1.775v9.297h2.607v-9.297h1.774v9.34h1.054zm8.015-1.638a4.225 4.225 0 01-.273 1.516 3.787 3.787 0 01-.782 1.26 3.2 3.2 0 01-1.159.788 2.853 2.853 0 01-1.336.18c-2.034 0-3.309-1.531-3.309-4.255V41.1c0-2.66 1.275-4.17 3.327-4.17 2.053 0 3.402 1.51 3.402 4.17v2.49h-4.936v.85c0 1.533.573 2.235 1.553 2.235s1.553-.553 1.719-1.766h1.794zm-5.066-3.83v.958h3.161v-.958c0-1.532-.591-2.213-1.608-2.213-1.017 0-1.553.681-1.553 2.213zm13.458 3.83a4.246 4.246 0 01-.272 1.516 3.79 3.79 0 01-.783 1.26 3.22 3.22 0 01-1.158.788 2.86 2.86 0 01-1.336.18c-2.034 0-3.31-1.531-3.31-4.255V41.1c0-2.66 1.276-4.17 3.328-4.17 2.052 0 3.402 1.51 3.402 4.17v2.49h-4.936v.85c0 1.533.573 2.235 1.553 2.235.979 0 1.553-.553 1.719-1.766h1.793zm-5.065-3.83v.958h3.161v-.958c0-1.532-.592-2.213-1.608-2.213-1.017 0-1.553.681-1.553 2.213zm6.923 6.277c.002-.254.069-.501.192-.711a1.17 1.17 0 01.503-.47.982.982 0 01.644-.07c.216.05.414.172.57.351.156.18.263.408.306.657a1.48 1.48 0 01-.061.741 1.276 1.276 0 01-.408.578c-.183.143-.398.22-.618.222a.931.931 0 01-.445-.073 1.054 1.054 0 01-.377-.28 1.25 1.25 0 01-.243-.434 1.399 1.399 0 01-.063-.511zm.222-13.83h1.793v11.34h-1.793v-11.34z" fill="#006248"/></svg>