<svg width="117" height="164" viewBox="0 0 117 164" fill="none" xmlns="http://www.w3.org/2000/svg">
<rect width="117" height="164" rx="9.03012" fill="white"/>
<path d="M102.845 16.1105C102.288 16.1105 101.753 15.889 101.358 15.4947C100.964 15.1003 100.742 14.5655 100.742 14.0078C100.742 13.4501 100.964 12.9153 101.358 12.5209C101.753 12.1266 102.288 11.9051 102.845 11.9051C103.403 11.9051 103.938 12.1266 104.332 12.5209C104.726 12.9153 104.948 13.4501 104.948 14.0078C104.948 14.5655 104.726 15.1003 104.332 15.4947C103.938 15.889 103.403 16.1105 102.845 16.1105V16.1105ZM107.309 14.5906C107.333 14.3983 107.351 14.2061 107.351 14.0078C107.351 13.8095 107.333 13.6113 107.309 13.407L108.577 12.4278C108.691 12.3376 108.721 12.1754 108.649 12.0433L107.447 9.96455C107.375 9.83238 107.213 9.77831 107.081 9.83238L105.585 10.4332C105.272 10.1989 104.948 9.99459 104.569 9.8444L104.347 8.25233C104.323 8.10814 104.197 8 104.047 8H101.644C101.493 8 101.367 8.10814 101.343 8.25233L101.121 9.8444C100.742 9.99459 100.418 10.1989 100.106 10.4332L98.6097 9.83238C98.4775 9.77831 98.3153 9.83238 98.2432 9.96455L97.0417 12.0433C96.9636 12.1754 96.9996 12.3376 97.1137 12.4278L98.3814 13.407C98.3574 13.6113 98.3393 13.8095 98.3393 14.0078C98.3393 14.2061 98.3574 14.3983 98.3814 14.5906L97.1137 15.5879C96.9996 15.678 96.9636 15.8402 97.0417 15.9724L98.2432 18.0511C98.3153 18.1832 98.4775 18.2313 98.6097 18.1832L100.106 17.5764C100.418 17.8168 100.742 18.021 101.121 18.1712L101.343 19.7633C101.367 19.9075 101.493 20.0156 101.644 20.0156H104.047C104.197 20.0156 104.323 19.9075 104.347 19.7633L104.569 18.1712C104.948 18.015 105.272 17.8168 105.585 17.5764L107.081 18.1832C107.213 18.2313 107.375 18.1832 107.447 18.0511L108.649 15.9724C108.721 15.8402 108.691 15.678 108.577 15.5879L107.309 14.5906Z" fill="#979696"/>
<g opacity="0.24">
<g clip-path="url(#clip0)">
<path d="M106.286 97.3346C115.643 97.3346 115.643 86 125 86V166H-530V158.46C-519.863 158.46 -520.643 162.63 -511.286 162.63C-501.929 162.63 -501.929 150.789 -492.571 150.789C-483.214 150.789 -484.774 154.433 -473.857 154.433C-462.94 154.433 -466.06 161.254 -455.143 161.254C-444.226 161.254 -446.565 158.663 -436.429 158.663C-426.292 158.663 -428.241 146.316 -417.714 146.316C-407.187 146.316 -409.917 150.344 -399 150.344C-388.083 150.344 -390.033 155.89 -380.286 155.89C-370.539 155.89 -372.098 137.471 -361.571 137.471C-351.045 137.471 -352.214 143.847 -342.857 143.847C-333.5 143.847 -335.06 134.921 -324.143 134.921C-313.226 134.921 -315.565 140.629 -305.429 140.629C-295.292 140.629 -296.851 117.292 -286.714 117.292C-276.577 117.292 -278.527 123.789 -268 123.789C-257.473 123.789 -260.202 128.08 -249.286 128.08C-238.369 128.08 -241.098 116.948 -230.571 116.948C-220.045 116.948 -222.774 122.412 -211.857 122.412C-200.94 122.412 -202.89 113.405 -193.143 113.405C-183.396 113.405 -184.565 98.3466 -174.429 98.3466C-164.292 98.3466 -165.851 123.546 -155.714 123.546C-145.577 123.546 -146.747 105.896 -137 105.896C-127.253 105.896 -129.202 113.628 -118.286 113.628C-107.369 113.628 -109.708 120.571 -99.5714 120.571C-89.4345 120.571 -90.6042 109.074 -80.8571 109.074C-71.1101 109.074 -71.8899 120.004 -62.1429 120.004C-52.3958 120.004 -53.5655 115.146 -43.4286 115.146C-33.2917 115.146 -34.8512 105.127 -24.7143 105.127C-14.5774 105.127 -16.1369 109.135 -5.99998 109.135C4.13692 109.135 3.35715 94.501 12.7143 94.501C22.0714 94.501 20.5119 114.559 31.4286 114.559C42.3452 114.559 39.6161 100.937 50.1429 100.937C60.6696 100.937 59.1101 106.544 68.8571 106.544C78.6042 106.544 77.8244 92.5781 87.5714 92.5781C97.3185 92.5781 96.9286 97.3346 106.286 97.3346Z" fill="#F36E0F"/>
</g>
</g>
<g clip-path="url(#clip1)">
<path d="M125 86C115.643 86 115.643 97.3893 106.286 97.3893C96.9286 97.3893 97.3185 92.6099 87.5714 92.6099C77.8244 92.6099 78.6042 106.643 68.8571 106.643C59.1101 106.643 60.6696 101.01 50.1429 101.01C39.6161 101.01 42.3452 114.697 31.4286 114.697C20.5119 114.697 22.0714 94.542 12.7143 94.542C3.35714 94.542 4.1369 109.246 -6 109.246C-16.1369 109.246 -14.5774 105.219 -24.7143 105.219C-34.8512 105.219 -33.2917 115.287 -43.4286 115.287C-53.5655 115.287 -52.3958 120.168 -62.1429 120.168C-71.8899 120.168 -71.1101 109.185 -80.8571 109.185C-90.6042 109.185 -89.4345 120.737 -99.5714 120.737C-109.708 120.737 -107.369 113.761 -118.286 113.761C-129.202 113.761 -127.253 105.992 -137 105.992C-146.747 105.992 -145.577 123.727 -155.714 123.727C-165.851 123.727 -164.292 98.4062 -174.429 98.4062C-184.565 98.4062 -183.396 113.538 -193.143 113.538C-202.89 113.538 -200.94 122.588 -211.857 122.588C-222.774 122.588 -220.045 117.097 -230.571 117.097C-241.098 117.097 -238.369 128.283 -249.286 128.283C-260.202 128.283 -257.473 123.971 -268 123.971C-278.527 123.971 -276.577 117.443 -286.714 117.443C-296.851 117.443 -295.292 140.892 -305.429 140.892C-315.565 140.892 -313.226 135.157 -324.143 135.157C-335.06 135.157 -333.5 144.126 -342.857 144.126C-352.214 144.126 -351.045 137.72 -361.571 137.72C-372.098 137.72 -370.539 156.227 -380.286 156.227C-390.033 156.227 -388.083 150.655 -399 150.655C-409.917 150.655 -407.188 146.607 -417.714 146.607C-428.241 146.607 -426.292 159.014 -436.429 159.014C-446.565 159.014 -444.226 161.617 -455.143 161.617C-466.06 161.617 -462.94 154.763 -473.857 154.763C-484.774 154.763 -483.214 151.102 -492.571 151.102C-501.929 151.102 -501.929 163 -511.286 163C-520.643 163 -519.863 158.81 -530 158.81" stroke="#F36E0F" stroke-width="0.665765"/>
<circle cx="107.5" cy="97.5" r="2.5" fill="#F36E0F"/>
<circle cx="86.5" cy="92.5" r="2.5" fill="#F36E0F"/>
<circle cx="69.5" cy="106.5" r="2.5" fill="#F36E0F"/>
<circle cx="48.5" cy="100.5" r="2.5" fill="#F36E0F"/>
<circle cx="31.5" cy="114.5" r="2.5" fill="#F36E0F"/>
<circle cx="12.5" cy="94.5" r="2.5" fill="#F36E0F"/>
</g>
<defs>
<clipPath id="clip0">
<path d="M116.482 86.9321H0.0205688V152.795C0.0205688 158.871 4.94544 163.795 11.0206 163.795H105.482C111.558 163.795 116.482 158.871 116.482 152.795V86.9321Z" fill="white"/>
</clipPath>
<clipPath id="clip1">
<rect width="116.462" height="76.8998" fill="white" transform="matrix(-1 0 0 1 116.482 86.8955)"/>
</clipPath>
</defs>
</svg>
