<svg width="371" height="321" viewBox="0 0 371 321" fill="none" xmlns="http://www.w3.org/2000/svg">
<path d="M187.64 257.841C186.288 257.841 185.049 257.616 184.035 257.053L103.157 210.305C102.143 209.742 101.58 208.841 101.58 207.827C101.58 206.701 102.369 205.574 103.72 204.786L183.585 158.715C186.063 157.25 189.667 157.138 191.808 158.377L272.686 205.124C273.7 205.687 274.263 206.588 274.263 207.602C274.263 208.728 273.474 209.855 272.123 210.643L192.258 256.715C190.906 257.391 189.217 257.841 187.64 257.841ZM184.598 255.814C186.288 256.827 189.442 256.715 191.47 255.476L271.334 209.404C272.348 208.841 272.911 208.165 272.911 207.489C272.911 206.814 272.348 206.363 271.897 206.138L191.019 159.391C189.329 158.377 186.175 158.489 184.148 159.728L104.284 205.8C103.27 206.363 102.707 207.039 102.707 207.715C102.707 208.391 103.27 208.841 103.72 209.066L184.598 255.814Z" fill="#FF7A00"/>
<path d="M273.586 173.471V183.383L187.638 233.059L101.691 183.383V173.471H273.586Z" fill="url(#paint0_linear)"/>
<path d="M187.638 223.147L101.691 173.471L187.638 123.908L273.586 173.471L187.638 223.147Z" fill="url(#paint1_linear)"/>
<path d="M187.638 221.908L102.705 172.908L101.691 173.471L187.638 223.147L273.586 173.471L272.572 172.908L187.638 221.908Z" fill="white"/>
<path d="M187.639 211.657L121.518 173.471L187.639 135.397L253.761 173.471L187.639 211.657Z" fill="#FF7A00"/>
<path opacity="0.5" d="M187.639 211.657L121.518 173.471L187.639 135.397L253.761 173.471L187.639 211.657Z" fill="url(#paint2_linear)"/>
<path opacity="0.5" d="M187.639 125.71L253.76 163.896V173.471L187.639 135.397V125.71Z" fill="url(#paint3_linear)"/>
<path opacity="0.5" d="M187.639 135.398L121.518 173.471V163.897L187.639 125.71V135.398Z" fill="url(#paint4_linear)"/>
<path opacity="0.5" d="M187.639 202.083L121.518 163.897L187.639 125.71L253.761 163.897L187.639 202.083Z" fill="url(#paint5_linear)"/>
<path opacity="0.5" d="M187.639 179.103L161.168 163.896L187.639 148.576L213.998 163.896L187.639 179.103Z" fill="#42E8E0"/>
<path opacity="0.5" d="M187.639 150.041L212.871 164.572L213.998 163.896L187.639 148.576L161.168 163.896L162.407 164.572L187.639 150.041Z" fill="#42E8E0"/>
<path opacity="0.5" d="M187.639 202.082V211.657L253.76 173.471V163.896L187.639 202.082Z" fill="url(#paint6_linear)"/>
<path opacity="0.5" d="M121.518 163.896V173.471L187.639 211.657V202.082L121.518 163.896Z" fill="url(#paint7_linear)"/>
<path opacity="0.502" d="M370.686 198.043V158.167C369.785 144.537 364.378 131.583 355.367 119.755V159.631C364.378 171.459 369.672 184.413 370.686 198.043ZM350.636 153.999V114.123C347.482 110.519 343.877 107.027 340.047 103.76V143.636C343.99 146.902 347.482 150.394 350.636 153.999ZM333.626 138.229V98.353C329.459 95.199 324.953 92.045 320.109 89.2289V129.105C324.84 132.033 329.346 135.075 333.626 138.229ZM311.098 135.751V72.2197C347.819 91.7071 370.799 119.643 370.799 150.507V214.038C370.799 183.174 347.819 155.238 311.098 135.751Z" fill="#FF7A00"/>
<path opacity="0.502" d="M243.849 105.224V93.847C241.033 93.2838 238.217 92.8332 235.288 92.3826V103.872C238.217 104.21 241.033 104.773 243.849 105.224ZM228.529 91.2562V81.1183C225.6 80.6677 222.672 80.3298 219.743 79.9918V90.1298C222.672 90.4677 225.6 90.9183 228.529 91.2562ZM258.492 97.001V83.1459C255.789 82.47 253.085 81.7941 250.269 81.2309V95.0861C253.085 95.7619 255.902 96.3252 258.492 97.001ZM212.646 89.5665V69.0654C209.605 68.8401 206.676 68.6148 203.635 68.3895V88.778C206.676 89.0033 209.718 89.2286 212.646 89.5665ZM179.867 88.3275V67.939C176.826 67.939 173.672 68.0516 170.63 68.1643V88.5528C173.672 88.5528 176.713 88.4401 179.867 88.3275ZM163.534 89.0033V63.3206C160.492 63.5459 157.564 63.7712 154.522 63.9964V89.6792C157.451 89.4539 160.492 89.2286 163.534 89.0033ZM196.426 88.5528V59.1528C193.722 59.0401 190.906 59.0401 188.09 58.9275C187.752 58.9275 187.414 58.9275 187.076 58.9275V88.3275C187.414 88.3275 187.752 88.3275 188.09 88.3275C190.906 88.3275 193.61 88.4401 196.426 88.5528ZM147.538 90.4677V53.7459C144.61 54.0838 141.681 54.4217 138.865 54.8723V91.5941C141.794 91.1436 144.61 90.8056 147.538 90.4677ZM120.166 50.5919C141.343 46.0861 164.21 43.7206 188.09 43.9459C219.968 44.2838 249.931 49.1275 275.84 57.5758V121.107C249.819 112.771 219.968 107.815 188.09 107.477C164.21 107.252 141.23 109.617 120.166 114.123V50.5919Z" fill="#FF7A00"/>
<path opacity="0.502" d="M12.142 136.652V123.81C8.31211 129.33 5.27073 134.962 3.1305 140.819V178.668C5.27073 172.81 8.31211 167.065 12.142 161.658V148.817C13.2684 147.24 14.3949 145.663 15.634 144.086V150.957C17.9995 148.029 20.4776 145.213 23.2937 142.396V135.525C35.2339 123.472 51.2293 112.884 70.1535 104.436V92.27C66.7742 93.7344 63.5075 95.3114 60.3535 97.0011C58.7765 97.7896 57.1995 98.6907 55.6224 99.4792C43.4569 106.238 32.9811 113.898 24.3075 122.346C23.9696 122.684 23.6316 123.022 23.1811 123.472V116.601C20.365 119.417 17.8868 122.233 15.5213 125.162V132.033C14.3949 133.498 13.1558 135.075 12.142 136.652ZM0.652344 136.314C7.86154 105.337 38.2753 78.6402 81.3052 62.0815V125.613C38.2753 142.171 7.86154 168.868 0.652344 199.957V136.314Z" fill="#FF7A00"/>
<path opacity="0.7529" d="M23.2924 123.472C23.6303 123.134 23.9682 122.796 24.4188 122.346V134.624C30.8395 128.316 38.3866 122.459 46.8349 117.052C49.651 115.249 52.6923 113.447 55.7337 111.757V99.4792C57.3107 98.5781 58.7751 97.7896 60.4647 97.0011V109.279C63.6188 107.59 66.8854 106.013 70.2647 104.548V92.27V104.548C51.3406 113.109 35.4579 123.585 23.405 135.638V123.472H23.2924ZM12.1406 136.652C13.2671 135.075 14.3935 133.498 15.6326 131.921V144.199C14.3935 145.776 13.2671 147.353 12.1406 148.93V136.652Z" fill="#FF7A00"/>
<path opacity="0.8784" d="M60.2422 97.0011C63.3962 95.3114 66.6629 93.7344 70.0422 92.27V104.548C66.6629 106.013 63.3962 107.59 60.2422 109.279V97.0011Z" fill="#FF7A00"/>
<path opacity="0.8784" d="M24.3066 122.346C30.7273 116.038 38.2745 110.18 46.7227 104.773V117.052C38.2745 122.458 30.7273 128.316 24.3066 134.624V122.346Z" fill="#FF7A00"/>
<path opacity="0.9725" d="M46.7246 104.886C49.5407 103.084 52.5821 101.281 55.6234 99.5918V111.87C52.5821 113.56 49.5407 115.362 46.7246 117.164V104.886Z" fill="#FF7A00"/>
<path opacity="0.7529" d="M3.12891 140.932C5.26914 135.075 8.31051 129.33 12.1404 123.923V136.764C8.31051 142.284 5.26914 147.916 3.12891 153.773V166.052C5.26914 160.194 8.31051 154.449 12.1404 149.042V161.884C8.31051 167.403 5.26914 173.035 3.12891 178.893V140.932Z" fill="#FF7A00"/>
<path opacity="0.8784" d="M3.12891 153.773C5.26914 147.916 8.31051 142.171 12.1404 136.764V149.042C8.31051 154.562 5.26914 160.194 3.12891 166.052V153.773Z" fill="#FF7A00"/>
<path opacity="0.7529" d="M15.6348 144.311C18.0003 141.383 20.4784 138.567 23.2945 135.75V142.622C20.4784 145.438 18.0003 148.254 15.6348 151.183V144.311ZM15.6348 125.162C18.0003 122.233 20.4784 119.417 23.2945 116.601V123.472C20.4784 126.288 18.0003 129.105 15.6348 132.033V125.162Z" fill="#FF7A00"/>
<path opacity="0.8784" d="M15.6348 132.034C18.0003 129.105 20.4784 126.289 23.2945 123.473V135.751C20.4784 138.567 18.0003 141.383 15.6348 144.312V132.034Z" fill="#FF7A00"/>
<path opacity="0.7529" d="M355.256 119.642C364.267 131.47 369.674 144.424 370.575 158.054V198.042C369.674 184.412 364.267 171.458 355.256 159.631V119.642Z" fill="#FF7A00"/>
<path d="M340.16 103.647C343.99 107.026 347.595 110.518 350.749 114.01V153.886C347.595 150.281 343.99 146.789 340.16 143.523V103.647Z" fill="#FF7A00"/>
<path opacity="0.7529" d="M320.109 89.2285C324.84 92.1572 329.346 95.1986 333.627 98.3526V138.228C329.459 135.074 324.953 131.92 320.109 129.104V89.2285Z" fill="#FF7A00"/>
<path opacity="0.7529" d="M250.383 81.3433C253.086 81.9065 255.902 82.5823 258.606 83.2582V97.1134C255.902 96.4375 253.199 95.7616 250.383 95.1984V81.3433Z" fill="#FF7A00"/>
<path opacity="0.7529" d="M235.289 92.27C238.105 92.7206 241.034 93.2838 243.85 93.7344V105.224C241.034 104.661 238.218 104.21 235.289 103.76V92.27Z" fill="#FF7A00"/>
<path opacity="0.7529" d="M219.744 80.1045C222.673 80.4424 225.602 80.7804 228.53 81.2309V91.3689C225.602 90.9183 222.673 90.5804 219.744 90.2424V80.1045Z" fill="#FF7A00"/>
<path opacity="0.7529" d="M203.635 68.3892C206.676 68.6144 209.718 68.7271 212.646 69.065V89.4535C209.605 89.2282 206.676 89.0029 203.635 88.7777V68.3892Z" fill="#FF7A00"/>
<path opacity="0.7529" d="M187.078 58.9272C187.416 58.9272 187.754 58.9272 188.092 58.9272C190.908 58.9272 193.611 59.0399 196.428 59.1525V88.5525C193.724 88.4399 190.908 88.4399 188.092 88.3272C187.754 88.3272 187.416 88.3272 187.078 88.3272V58.9272Z" fill="#FF7A00"/>
<path d="M170.633 68.1642C173.674 68.0516 176.716 67.939 179.87 67.939V88.3275C176.828 88.3275 173.674 88.4401 170.633 88.5528V68.1642Z" fill="#FF7A00"/>
<path opacity="0.7529" d="M154.523 63.9962C157.452 63.7709 160.494 63.433 163.535 63.3203V89.0031C160.494 89.2283 157.565 89.4536 154.523 89.6789V63.9962Z" fill="#FF7A00"/>
<path d="M138.865 54.872C141.794 54.4215 144.61 54.0835 147.539 53.7456V90.4674C144.61 90.8054 141.681 91.1433 138.865 91.5939V54.872Z" fill="#FF7A00"/>
<path opacity="0.502" d="M57.9874 282.637V271.936C60.1276 273.063 62.3804 274.189 64.6333 275.316V286.017C62.3804 284.89 60.1276 283.764 57.9874 282.637ZM36.8103 269.233V249.408C38.6126 250.759 40.4149 252.111 42.3299 253.35V273.175C40.5276 271.824 38.6126 270.472 36.8103 269.233ZM46.9483 276.104V252.787C48.9759 254.026 51.0034 255.265 53.031 256.504V279.821C50.8908 278.582 48.8632 277.343 46.9483 276.104ZM19.9138 253.913V228.005C21.2655 229.47 22.7299 231.047 24.1943 232.511V258.419C22.7299 256.842 21.2655 255.378 19.9138 253.913ZM27.7989 261.798V233.75C29.3759 235.215 31.0655 236.566 32.7552 237.918V265.966C31.0655 264.615 29.3759 263.15 27.7989 261.798ZM7.63564 236.904V206.49C8.53679 208.18 9.55059 209.757 10.5644 211.334V241.748C9.55059 240.171 8.53679 238.594 7.63564 236.904ZM13.1552 245.578V206.04C14.2816 207.617 15.5207 209.194 16.7598 210.771V250.309C15.5207 248.732 14.2816 247.155 13.1552 245.578ZM3.46783 228.005V183.398C4.14369 185.088 4.81955 186.778 5.7207 188.467V233.074C4.81955 231.385 4.03105 229.695 3.46783 228.005ZM78.1506 237.918C35.6839 220.796 6.28393 193.762 0.201172 162.785V226.316C6.39657 257.293 35.6839 284.327 78.1506 301.449V237.918Z" fill="#FF7A00"/>
<path opacity="0.502" d="M202.736 308.433V294.127C210.057 293.677 217.267 293.113 224.25 292.212V306.518C217.267 307.419 210.057 307.982 202.736 308.433ZM168.379 308.546V282.412C172.772 282.638 177.165 282.75 181.671 282.863C184.713 282.863 187.754 282.863 190.795 282.863V308.996C187.754 308.996 184.713 309.109 181.671 308.996C177.165 308.883 172.772 308.771 168.379 308.546ZM135.262 305.054V265.178C142.133 266.304 149.23 267.093 156.552 267.769V307.644C149.23 307.081 142.133 306.18 135.262 305.054ZM235.627 304.941V262.812C242.499 261.686 249.257 260.334 255.791 258.87V300.998C249.145 302.463 242.499 303.815 235.627 304.941ZM272.687 244.564C245.653 252.9 214.563 257.518 181.671 257.18C158.692 256.955 136.839 254.364 116.676 249.746V313.277C136.839 317.782 158.692 320.486 181.671 320.711C214.563 321.049 245.653 316.431 272.687 308.095V244.564Z" fill="#FF7A00"/>
<path opacity="0.502" d="M318.194 262.699V250.421C347.819 232.962 367.081 209.644 370.235 183.624V195.902C367.194 221.923 347.932 245.24 318.194 262.699ZM370.798 215.952V152.421C369.897 183.511 345.792 211.221 308.281 230.371V293.789C345.792 274.752 369.785 247.042 370.798 215.952Z" fill="#FF7A00"/>
<path opacity="0.7529" d="M370.348 183.624C367.194 209.532 347.932 232.962 318.307 250.422V262.7C347.932 245.24 367.194 221.923 370.348 195.902V183.624Z" fill="#FF7A00"/>
<path d="M156.438 267.769C149.229 267.093 142.132 266.304 135.148 265.178V305.054C142.02 306.18 149.116 306.969 156.438 307.644V267.769Z" fill="#FF7A00"/>
<path d="M224.249 292.212C217.153 293.114 210.056 293.677 202.734 294.127V308.433C210.056 307.983 217.265 307.419 224.249 306.518V292.212Z" fill="#FF7A00"/>
<path d="M255.677 258.757C249.144 260.334 242.385 261.686 235.514 262.699V304.828C242.385 303.702 249.144 302.35 255.677 300.886V258.757Z" fill="#FF7A00"/>
<path opacity="0.7529" d="M190.682 282.75C187.64 282.75 184.599 282.863 181.558 282.75C177.052 282.75 172.659 282.525 168.266 282.299V308.433C172.659 308.658 177.052 308.771 181.558 308.883C184.599 308.883 187.64 308.883 190.682 308.883V282.75Z" fill="#FF7A00"/>
<path d="M5.60834 188.355C4.81984 186.665 4.03133 184.975 3.35547 183.286V227.893C4.03133 229.582 4.70719 231.272 5.60834 232.961V188.355Z" fill="#FF7A00"/>
<path d="M10.5635 211.447C9.54971 209.87 8.53591 208.18 7.63477 206.603V237.017C8.53591 238.706 9.54971 240.283 10.5635 241.86V211.447Z" fill="#FF7A00"/>
<path opacity="0.7529" d="M16.7589 210.771C15.5198 209.194 14.2807 207.617 13.1543 206.04V245.578C14.2807 247.155 15.5198 248.732 16.7589 250.309V210.771Z" fill="#FF7A00"/>
<path d="M24.1945 232.398C22.7302 230.934 21.2658 229.47 19.9141 227.893V253.801C21.2658 255.265 22.7302 256.842 24.1945 258.306V232.398Z" fill="#FF7A00"/>
<path opacity="0.7529" d="M32.7551 237.918C31.0655 236.567 29.3758 235.102 27.7988 233.75V261.799C29.3758 263.263 31.0655 264.615 32.7551 265.967V237.918Z" fill="#FF7A00"/>
<path opacity="0.7529" d="M42.3301 253.35C40.4151 252.111 38.6128 250.759 36.8105 249.408V269.233C38.6128 270.585 40.4151 271.936 42.3301 273.176V253.35Z" fill="#FF7A00"/>
<path opacity="0.7529" d="M53.032 256.504C51.0044 255.265 48.9768 254.026 46.9492 252.787V276.104C48.9768 277.343 51.0044 278.583 53.032 279.822V256.504Z" fill="#FF7A00"/>
<path opacity="0.7529" d="M64.6342 275.203C62.3814 274.077 60.2412 272.95 57.9883 271.824V282.525C60.1285 283.651 62.3814 284.778 64.6342 285.904V275.203Z" fill="#FF7A00"/>
<path d="M177.164 4.05535L175.812 86.5105C175.812 87.9749 176.601 89.3266 177.84 90.1151L268.293 143.396C270.996 144.973 274.376 143.058 274.488 139.904L275.84 58.3496C275.84 56.8852 275.052 55.5335 273.812 54.745L183.36 0.563425C180.656 -1.01359 177.277 0.901329 177.164 4.05535Z" fill="#4F4F99"/>
<path d="M175.361 5.06905L174.01 87.5242C174.01 88.9885 174.798 90.3403 176.037 91.1288L266.49 144.409C269.194 145.986 272.573 144.071 272.686 140.917L274.037 59.3633C274.037 57.8989 273.249 56.5472 272.01 55.7587L181.557 1.57709C178.853 8.09426e-05 175.361 1.91503 175.361 5.06905Z" fill="#FF7A00"/>
<path d="M176.487 7.43452L175.248 86.9609C175.248 88.4253 175.924 89.6644 177.163 90.4529L264.462 141.931C267.053 143.508 270.319 141.593 270.432 138.552L271.671 59.9265C271.671 58.5747 270.995 57.223 269.756 56.4345L182.57 4.16787C179.866 2.59085 176.6 4.50579 176.487 7.43452Z" fill="#ECECEC"/>
<path d="M101.354 133.483L172.545 91.9176C173.784 91.129 175.361 91.129 176.712 91.9176L267.503 144.747C270.207 146.324 270.207 150.267 267.503 151.844L196.988 192.959C195.749 193.747 194.172 193.747 192.933 192.959L101.354 140.58C98.6503 139.003 98.6503 135.06 101.354 133.483Z" fill="#FF7A00"/>
<path d="M101.354 131.343L172.545 89.7774C173.784 88.9889 175.361 88.9889 176.712 89.7774L267.503 142.607C270.207 144.184 270.207 148.127 267.503 149.704L196.988 190.819C195.749 191.607 194.172 191.607 192.933 190.819L101.354 138.439C98.6503 136.862 98.6503 132.92 101.354 131.343Z" fill="url(#paint8_linear)"/>
<path d="M134.584 149.703L157.563 136.299C158.014 136.074 158.465 136.074 158.915 136.299L188.315 153.421C189.216 153.984 189.216 155.223 188.315 155.674L165.561 168.965C165.11 169.191 164.66 169.191 164.209 168.965L134.584 152.069C133.683 151.506 133.683 150.267 134.584 149.703Z" fill="#FF7A00"/>
<path d="M167.927 98.0005L166.012 99.2395L251.846 148.803L253.986 147.564L167.927 98.0005Z" fill="white"/>
<path d="M167.927 98.0005L166.012 99.2395L251.846 148.803L253.986 147.564L167.927 98.0005Z" fill="url(#paint9_linear)"/>
<path d="M163.759 100.479L161.844 101.605L247.678 151.168L249.818 149.929L163.759 100.479Z" fill="white"/>
<path d="M163.759 100.479L161.844 101.605L247.678 151.168L249.818 149.929L163.759 100.479Z" fill="url(#paint10_linear)"/>
<path d="M159.593 102.844L157.678 103.971L243.512 153.534L245.652 152.407L159.593 102.844Z" fill="white"/>
<path d="M159.593 102.844L157.678 103.971L243.512 153.534L245.652 152.407L159.593 102.844Z" fill="url(#paint11_linear)"/>
<path d="M155.423 105.209L153.508 106.336L239.342 155.899L241.482 154.773L155.423 105.209Z" fill="white"/>
<path d="M155.423 105.209L153.508 106.336L239.342 155.899L241.482 154.773L155.423 105.209Z" fill="url(#paint12_linear)"/>
<path d="M151.257 107.575L149.342 108.702L235.176 158.265L237.204 157.138L151.257 107.575Z" fill="white"/>
<path d="M151.257 107.575L149.342 108.702L235.176 158.265L237.204 157.138L151.257 107.575Z" fill="url(#paint13_linear)"/>
<path d="M147.087 109.94L145.172 111.067L231.006 160.63L233.034 159.504L147.087 109.94Z" fill="white"/>
<path d="M147.087 109.94L145.172 111.067L231.006 160.63L233.034 159.504L147.087 109.94Z" fill="url(#paint14_linear)"/>
<path opacity="0.2" d="M226.728 80.4275L262.886 101.267L263.112 77.4988L226.615 56.3218L226.728 80.4275Z" fill="#FF7A00"/>
<path opacity="0.2" d="M228.867 73.6689V78.7379L230.106 79.5264V74.4574L228.867 73.6689Z" fill="#FF7A00"/>
<path opacity="0.2" d="M232.586 67.0229V80.8781L233.825 81.6666V67.8114L232.586 67.0229Z" fill="#FF7A00"/>
<path opacity="0.2" d="M236.303 73.1055V83.0181L237.542 83.8066V73.7813L236.303 73.1055Z" fill="#FF7A00"/>
<path opacity="0.2" d="M239.908 66.7974V85.1583L241.147 85.8341V67.5859L239.908 66.7974Z" fill="#FF7A00"/>
<path opacity="0.2" d="M243.512 71.7544L243.624 87.1866L244.751 87.9751V72.5429L243.512 71.7544Z" fill="#FF7A00"/>
<path opacity="0.2" d="M247.23 81.4409V89.326L248.47 90.1145V82.1168L247.23 81.4409Z" fill="#FF7A00"/>
<path opacity="0.2" d="M250.947 88.0874L250.834 91.3541L252.073 92.1426L252.186 88.7633L250.947 88.0874Z" fill="#FF7A00"/>
<path opacity="0.2" d="M254.551 75.2456V93.4939L255.677 94.2824V75.9215L254.551 75.2456Z" fill="#FF7A00"/>
<path opacity="0.2" d="M258.154 80.9907V95.6344L259.393 96.3103V81.7792L258.154 80.9907Z" fill="#FF7A00"/>
<path opacity="0.37" d="M125.225 99.3103L196.191 140.313L196.641 93.5655L125 52L125.225 99.3103Z" fill="white"/>
<path opacity="0.37" d="M129.617 86.2437V96.1563L131.983 97.6206L131.87 87.5954L129.617 86.2437Z" fill="white"/>
<path opacity="0.37" d="M136.826 73.1768V100.324L139.192 101.788V74.5285L136.826 73.1768Z" fill="white"/>
<path opacity="0.37" d="M144.037 84.8921L144.15 104.492L146.515 105.956L146.403 86.3564L144.037 84.8921Z" fill="white"/>
<path opacity="0.37" d="M151.246 72.7266V108.547L153.612 110.124V74.0783L151.246 72.7266Z" fill="white"/>
<path opacity="0.37" d="M158.342 82.5269V112.715L160.707 114.18V83.8786L158.342 82.5269Z" fill="white"/>
<path opacity="0.37" d="M165.551 101.338V116.77L167.916 118.347V102.802L165.551 101.338Z" fill="white"/>
<path opacity="0.37" d="M172.761 114.292L172.648 120.938L175.014 122.402L175.127 115.756L172.761 114.292Z" fill="white"/>
<path opacity="0.37" d="M179.855 89.1724V125.106L182.221 126.57V90.6368L179.855 89.1724Z" fill="white"/>
<path opacity="0.37" d="M187.066 100.55L186.953 129.161L189.319 130.626L189.431 102.014L187.066 100.55Z" fill="white"/>
<defs>
<linearGradient id="paint0_linear" x1="231.975" y1="159.063" x2="206.394" y2="278.106" gradientUnits="userSpaceOnUse">
<stop stop-color="#F36E0F"/>
<stop offset="0.966573" stop-color="#F7F2F4" stop-opacity="0.49"/>
</linearGradient>
<linearGradient id="paint1_linear" x1="231.975" y1="99.9129" x2="166.176" y2="283.775" gradientUnits="userSpaceOnUse">
<stop stop-color="#F36E0F"/>
<stop offset="0.966573" stop-color="#F7F2F4" stop-opacity="0.49"/>
</linearGradient>
<linearGradient id="paint2_linear" x1="221.749" y1="116.959" x2="171.231" y2="258.283" gradientUnits="userSpaceOnUse">
<stop stop-color="#F36E0F"/>
<stop offset="0.966573" stop-color="#F7F2F4" stop-opacity="0.49"/>
</linearGradient>
<linearGradient id="paint3_linear" x1="237.754" y1="114.162" x2="200.524" y2="197.312" gradientUnits="userSpaceOnUse">
<stop stop-color="#F36E0F"/>
<stop offset="0.966573" stop-color="#F7F2F4" stop-opacity="0.49"/>
</linearGradient>
<linearGradient id="paint4_linear" x1="171.633" y1="114.162" x2="134.403" y2="197.313" gradientUnits="userSpaceOnUse">
<stop stop-color="#F36E0F"/>
<stop offset="0.966573" stop-color="#F7F2F4" stop-opacity="0.49"/>
</linearGradient>
<linearGradient id="paint5_linear" x1="221.749" y1="107.245" x2="171.099" y2="248.73" gradientUnits="userSpaceOnUse">
<stop stop-color="#F36E0F"/>
<stop offset="0.966573" stop-color="#F7F2F4" stop-opacity="0.49"/>
</linearGradient>
<linearGradient id="paint6_linear" x1="237.754" y1="152.348" x2="200.524" y2="235.498" gradientUnits="userSpaceOnUse">
<stop stop-color="#F36E0F"/>
<stop offset="0.966573" stop-color="#F7F2F4" stop-opacity="0.49"/>
</linearGradient>
<linearGradient id="paint7_linear" x1="171.633" y1="152.348" x2="134.403" y2="235.498" gradientUnits="userSpaceOnUse">
<stop stop-color="#F36E0F"/>
<stop offset="0.966573" stop-color="#F7F2F4" stop-opacity="0.49"/>
</linearGradient>
<linearGradient id="paint8_linear" x1="228.329" y1="64.4695" x2="158.472" y2="252.11" gradientUnits="userSpaceOnUse">
<stop stop-color="#F36E0F"/>
<stop offset="0.966573" stop-color="#F7F2F4" stop-opacity="0.49"/>
</linearGradient>
<linearGradient id="paint9_linear" x1="185.511" y1="103.5" x2="328.261" y2="332.13" gradientUnits="userSpaceOnUse">
<stop stop-color="#F4F6F8"/>
<stop offset="0.133104" stop-color="#E6EAEE"/>
<stop offset="0.989162" stop-color="#FFA463"/>
</linearGradient>
<linearGradient id="paint10_linear" x1="181.343" y1="105.966" x2="323.638" y2="334.373" gradientUnits="userSpaceOnUse">
<stop stop-color="#F4F6F8"/>
<stop offset="0.133104" stop-color="#E6EAEE"/>
<stop offset="0.989162" stop-color="#FFA463"/>
</linearGradient>
<linearGradient id="paint11_linear" x1="177.177" y1="108.331" x2="319.472" y2="336.739" gradientUnits="userSpaceOnUse">
<stop stop-color="#F4F6F8"/>
<stop offset="0.133104" stop-color="#E6EAEE"/>
<stop offset="0.989162" stop-color="#FFA463"/>
</linearGradient>
<linearGradient id="paint12_linear" x1="173.007" y1="110.696" x2="315.302" y2="339.104" gradientUnits="userSpaceOnUse">
<stop stop-color="#F4F6F8"/>
<stop offset="0.133104" stop-color="#E6EAEE"/>
<stop offset="0.989162" stop-color="#FFA463"/>
</linearGradient>
<linearGradient id="paint13_linear" x1="168.816" y1="113.062" x2="311.191" y2="341.306" gradientUnits="userSpaceOnUse">
<stop stop-color="#F4F6F8"/>
<stop offset="0.133104" stop-color="#E6EAEE"/>
<stop offset="0.989162" stop-color="#FFA463"/>
</linearGradient>
<linearGradient id="paint14_linear" x1="164.646" y1="115.427" x2="307.021" y2="343.671" gradientUnits="userSpaceOnUse">
<stop stop-color="#F4F6F8"/>
<stop offset="0.133104" stop-color="#E6EAEE"/>
<stop offset="0.989162" stop-color="#FFA463"/>
</linearGradient>
</defs>
</svg>
