<svg width="388" height="342" viewBox="0 0 388 342" fill="none" xmlns="http://www.w3.org/2000/svg">
<path d="M136.195 341.205C132.733 341.205 129.27 340.539 126.873 339.074L4.3504 268.358C1.95322 266.893 0.488281 265.028 0.488281 262.764C0.488281 260.101 2.48593 257.57 5.81534 255.573L239.673 120.532C246.066 116.803 255.654 116.403 261.248 119.6L383.903 190.45C386.301 191.914 387.765 193.779 387.765 196.043C387.765 198.706 385.768 201.237 382.438 203.234L148.447 338.275C144.985 340.273 140.457 341.205 136.195 341.205ZM127.139 338.675C132.466 341.738 141.922 341.338 148.181 337.743L382.039 202.702C385.235 200.837 387.1 198.44 387.1 196.043C387.1 194.045 385.901 192.314 383.504 190.982L260.848 120.132C255.521 117.069 246.066 117.469 239.806 121.065L6.0817 256.106C2.88546 257.97 1.02099 260.367 1.02099 262.764C1.02099 264.762 2.21957 266.493 4.61675 267.825L127.139 338.675Z" fill="#F36E0F"/>
<path d="M387.371 163.416L369.792 166.479L261.12 103.752C255.66 100.556 246.204 100.956 239.812 104.685L31.9231 224.544L0.759766 229.871V240.924C0.759766 242.922 1.95835 244.92 4.48871 246.251L127.144 317.101C132.604 320.297 142.06 319.898 148.452 316.169L382.31 181.128C385.64 179.13 387.504 176.733 387.504 174.336V163.416H387.371Z" fill="#FF7A00"/>
<path d="M127.008 306.047L4.35292 235.197C-1.10731 232.001 -0.441433 226.541 5.81786 222.945L239.676 87.9041C245.935 84.3084 255.524 83.9088 260.984 86.9719L383.639 157.822C389.1 161.018 388.434 166.478 382.175 170.074L148.317 305.115C142.057 308.711 132.469 309.11 127.008 306.047Z" fill="#DD6702"/>
<path d="M382.176 170.074L148.318 305.115C142.059 308.711 132.47 309.111 127.01 306.048L4.35427 235.198C2.22345 233.999 1.02486 232.268 0.758505 230.536C0.358976 232.8 1.55757 235.064 4.35427 236.663L127.01 307.513C132.47 310.709 141.926 310.309 148.318 306.58L382.176 171.539C385.905 169.408 387.636 166.479 387.37 163.948C386.97 166.079 385.239 168.343 382.176 170.074Z" fill="white"/>
<path opacity="0.5" d="M127.272 300.187L9.01169 231.868C3.68463 228.805 4.35051 223.478 10.4766 220.015L239.94 87.5045C246.066 84.0419 255.255 83.6423 260.582 86.7054L378.843 155.025C384.17 158.088 383.504 163.415 377.378 166.878L147.915 299.388C141.789 302.851 132.599 303.25 127.272 300.187Z" fill="#ECCCB6"/>
<path opacity="0.4" d="M353.539 166.345C351.675 167.411 348.745 167.411 347.014 166.345C345.149 165.28 345.149 163.549 347.014 162.616C348.878 161.551 351.808 161.551 353.539 162.616C355.404 163.549 355.404 165.28 353.539 166.345Z" fill="#24126A"/>
<path opacity="0.4" d="M328.634 148.233L341.419 155.557C343.017 156.49 342.75 158.088 341.019 159.02C339.155 160.085 336.491 160.219 334.893 159.286L322.108 151.962C320.51 151.029 320.776 149.431 322.508 148.499C324.372 147.434 327.036 147.301 328.634 148.233Z" fill="#24126A"/>
<path d="M353.539 161.817C351.675 162.882 348.745 162.882 347.014 161.817C345.149 160.751 345.149 159.02 347.014 158.088C348.878 157.022 351.808 157.022 353.539 158.088C355.404 159.02 355.404 160.751 353.539 161.817Z" fill="#ED7A27"/>
<path d="M328.634 143.572L341.419 150.896C343.017 151.829 342.75 153.427 341.019 154.359C339.155 155.424 336.491 155.558 334.893 154.625L322.108 147.301C320.51 146.368 320.776 144.77 322.508 143.838C324.372 142.773 327.036 142.639 328.634 143.572Z" fill="#ED7A27"/>
<g opacity="0.4">
<path opacity="0.4" d="M185.339 249.18L112.225 206.963C110.094 205.765 110.094 202.568 112.225 201.37L220.364 138.91C224.093 136.779 228.754 136.779 232.483 138.91L305.597 181.127C307.728 182.326 307.728 185.522 305.597 186.72L197.458 249.18C193.729 251.444 189.068 251.444 185.339 249.18Z" fill="#D66102"/>
</g>
<path d="M232.617 145.969L221.963 139.843L224.227 138.511L234.881 144.637L232.617 145.969Z" fill="white"/>
<path d="M241.673 151.163L236.346 148.1L238.743 146.768L244.07 149.831L241.673 151.163Z" fill="white"/>
<path d="M230.352 150.897L225.824 148.233L228.088 146.901L232.616 149.565L230.352 150.897Z" fill="white"/>
<path d="M237.944 155.291L232.617 152.228L234.881 150.896L240.208 153.96L237.944 155.291Z" fill="white"/>
<path d="M241.274 163.548L220.365 151.429L222.629 150.097L243.671 162.216L241.274 163.548Z" fill="white"/>
<path d="M181.477 187.52L160.436 175.401L162.833 174.069L183.741 186.188L181.477 187.52Z" fill="white"/>
<path d="M189.468 192.181L184.141 189.118L186.538 187.786L191.865 190.849L189.468 192.181Z" fill="white"/>
<path d="M219.43 157.289L214.902 154.625L217.166 153.293L221.694 155.824L219.43 157.289Z" fill="white"/>
<path d="M227.024 161.684L221.697 158.488L223.961 157.156L229.288 160.219L227.024 161.684Z" fill="white"/>
<path d="M220.898 164.348L209.445 157.689L211.709 156.357L223.296 163.016L220.898 164.348Z" fill="white"/>
<path d="M228.62 168.875L223.293 165.812L225.69 164.48L231.017 167.543L228.62 168.875Z" fill="white"/>
<path d="M236.347 173.403L231.02 170.207L233.417 168.875L238.744 171.939L236.347 173.403Z" fill="white"/>
<path d="M248.863 180.595L238.875 174.735L241.139 173.403L251.26 179.263L248.863 180.595Z" fill="white"/>
<path d="M231.95 183.391L226.623 180.328L228.887 178.997L234.214 182.06L231.95 183.391Z" fill="white"/>
<path d="M244.471 190.583L234.35 184.723L236.747 183.392L246.868 189.251L244.471 190.583Z" fill="white"/>
<path d="M203.852 167.144L198.525 164.081L200.789 162.749L206.116 165.812L203.852 167.144Z" fill="white"/>
<path d="M211.575 171.672L206.248 168.475L208.512 167.144L213.839 170.34L211.575 171.672Z" fill="white"/>
<path d="M224.092 178.864L213.971 173.004L216.368 171.672L226.356 177.532L224.092 178.864Z" fill="white"/>
<path d="M245.003 184.59L239.676 181.527L241.94 180.195L247.267 183.258L245.003 184.59Z" fill="white"/>
<path d="M252.725 189.118L247.398 186.055L249.796 184.723L255.123 187.786L252.725 189.118Z" fill="white"/>
<path d="M197.858 196.975L192.531 193.912L194.795 192.581L200.122 195.644L197.858 196.975Z" fill="white"/>
<path d="M210.375 204.3L200.254 198.44L202.651 197.108L212.639 202.835L210.375 204.3Z" fill="white"/>
<path d="M192.929 173.404L187.602 170.341L189.866 169.009L195.193 172.072L192.929 173.404Z" fill="white"/>
<path d="M205.45 180.728L195.328 174.868L197.592 173.537L207.714 179.263L205.45 180.728Z" fill="white"/>
<path d="M199.19 204.034L193.863 200.971L196.127 199.64L201.454 202.703L199.19 204.034Z" fill="white"/>
<path d="M211.707 211.359L201.586 205.499L203.85 204.167L213.971 210.027L211.707 211.359Z" fill="white"/>
<path d="M257.255 172.738L251.928 169.675L254.192 168.343L259.519 171.406L257.255 172.738Z" fill="white"/>
<path d="M249.132 168.076L243.805 165.013L246.202 163.682L251.529 166.745L249.132 168.076Z" fill="white"/>
<path d="M269.776 180.063L259.654 174.203L262.051 172.871L272.04 178.598L269.776 180.063Z" fill="white"/>
<path d="M208.779 163.682L203.984 160.885L206.248 159.553L211.043 162.35L208.779 163.682Z" fill="white"/>
<path d="M223.028 171.938L211.309 165.146L213.706 163.814L225.292 170.606L223.028 171.938Z" fill="white"/>
<path d="M237.276 180.196L225.557 173.404L227.954 172.072L239.673 178.864L237.276 180.196Z" fill="white"/>
<path d="M204.784 174.069L193.064 167.277L195.462 165.945L207.181 172.737L204.784 174.069Z" fill="white"/>
<path d="M211.043 177.532L207.447 175.534L209.711 174.203L213.307 176.2L211.043 177.532Z" fill="white"/>
<path d="M217.166 181.127L213.57 179.13L215.967 177.798L219.563 179.795L217.166 181.127Z" fill="white"/>
<path d="M228.622 187.786L219.832 182.593L222.096 181.261L230.886 186.455L228.622 187.786Z" fill="white"/>
<path d="M231.016 189.118L222.227 184.057L224.491 182.726L233.28 187.786L231.016 189.118Z" fill="white"/>
<path d="M254.857 184.057L251.262 181.926L253.659 180.595L257.255 182.726L254.857 184.057Z" fill="white"/>
<path d="M170.289 193.779L158.836 187.12L161.1 185.789L172.686 192.447L170.289 193.779Z" fill="white"/>
<path d="M178.015 198.174L172.688 195.111L175.085 193.779L180.412 196.842L178.015 198.174Z" fill="white"/>
<path d="M185.872 202.702L180.412 199.639L182.809 198.308L188.136 201.371L185.872 202.702Z" fill="white"/>
<path d="M198.389 209.894L188.268 204.034L190.532 202.702L200.653 208.562L198.389 209.894Z" fill="white"/>
<path d="M181.079 212.557L175.752 209.494L178.149 208.163L183.476 211.226L181.079 212.557Z" fill="white"/>
<path d="M193.596 219.749L183.475 214.022L185.872 212.557L195.993 218.417L193.596 219.749Z" fill="white"/>
<path d="M153.245 196.443L147.918 193.38L150.182 192.048L155.509 195.111L153.245 196.443Z" fill="white"/>
<path d="M160.968 200.971L155.641 197.907L158.038 196.576L163.365 199.639L160.968 200.971Z" fill="white"/>
<path d="M173.487 208.163L163.365 202.303L165.762 200.971L175.884 206.831L173.487 208.163Z" fill="white"/>
<path d="M158.171 192.981L153.377 190.184L155.641 188.852L160.435 191.649L158.171 192.981Z" fill="white"/>
<path d="M172.421 201.237L160.701 194.445L163.098 193.113L174.818 199.905L172.421 201.237Z" fill="white"/>
<path d="M186.669 209.494L174.949 202.702L177.346 201.371L189.066 208.163L186.669 209.494Z" fill="white"/>
<path d="M144.854 197.907L133.135 191.115L135.399 189.784L147.118 196.576L144.854 197.907Z" fill="white"/>
<path d="M150.981 201.504L147.385 199.373L149.649 198.041L153.245 200.172L150.981 201.504Z" fill="white"/>
<path d="M157.106 205.1L153.51 202.969L155.907 201.637L159.503 203.635L157.106 205.1Z" fill="white"/>
<path d="M125.809 233.733L122.213 231.602L124.61 230.27L128.206 232.401L125.809 233.733Z" fill="white"/>
<path d="M168.559 211.624L159.77 206.564L162.034 205.232L170.956 210.293L168.559 211.624Z" fill="white"/>
<path d="M170.956 212.956L162.166 207.896L164.43 206.564L173.353 211.625L170.956 212.956Z" fill="white"/>
<path d="M168.027 186.055L164.432 184.057L166.696 182.726L170.291 184.723L168.027 186.055Z" fill="white"/>
<path d="M179.479 192.714L170.557 187.653L172.954 186.188L181.743 191.382L179.479 192.714Z" fill="white"/>
<path d="M191.198 199.506L182.275 194.312L184.673 192.98L193.462 198.041L191.198 199.506Z" fill="white"/>
<path d="M176.549 170.341L172.953 168.21L175.217 166.878L178.813 169.009L176.549 170.341Z" fill="white"/>
<path d="M188.003 176.866L179.08 171.805L181.477 170.473L190.267 175.534L188.003 176.866Z" fill="white"/>
<path d="M199.588 183.657L190.799 178.464L193.063 177.132L201.986 182.326L199.588 183.657Z" fill="white"/>
<path d="M191.465 240.791C189.335 240.791 187.204 240.258 185.339 239.192L112.225 196.976C111.16 196.31 110.494 195.244 110.494 193.912C110.494 192.581 111.16 191.515 112.225 190.849L220.365 128.39C224.227 126.259 228.888 126.259 232.75 128.39L305.864 170.607C306.929 171.272 307.595 172.338 307.595 173.67C307.595 175.001 306.929 176.067 305.864 176.733L197.725 239.192C195.727 240.258 193.596 240.791 191.465 240.791ZM226.491 127.324C224.493 127.324 222.362 127.857 220.631 128.922L112.492 191.382C111.56 191.915 111.027 192.847 111.027 193.912C111.027 194.978 111.56 195.91 112.492 196.443L185.473 238.66C189.068 240.791 193.596 240.791 197.325 238.66L305.465 176.2C306.397 175.667 306.929 174.735 306.929 173.67C306.929 172.604 306.397 171.672 305.465 171.139L232.351 128.922C230.619 127.857 228.489 127.324 226.491 127.324Z" fill="white"/>
<path opacity="0.4" d="M149.78 269.423L76.6665 227.206C74.5357 226.008 74.5357 222.812 76.6665 221.613L87.8533 215.087C91.5822 212.957 96.2434 212.957 99.9724 215.087L173.086 257.304C175.217 258.503 175.217 261.699 173.086 262.898L161.899 269.423C158.17 271.687 153.509 271.687 149.78 269.423Z" fill="#D66102"/>
<path d="M113.159 226.275L101.439 219.616L103.837 218.151L115.556 224.943L113.159 226.275Z" fill="white"/>
<path d="M146.188 245.851L142.592 243.72L144.856 242.389L148.452 244.519L146.188 245.851Z" fill="white"/>
<path d="M119.949 230.27L116.354 228.272L118.618 226.94L122.213 228.938L119.949 230.27Z" fill="white"/>
<path d="M155.774 261.034C153.643 261.034 151.512 260.501 149.648 259.436L76.534 217.219C75.4686 216.553 74.8027 215.487 74.8027 214.156C74.8027 212.824 75.4686 211.758 76.534 211.093L87.7208 204.567C91.583 202.436 96.2441 202.436 100.106 204.567L173.22 246.784C174.286 247.45 174.951 248.515 174.951 249.847C174.951 251.179 174.286 252.244 173.22 252.91L162.033 259.436C160.036 260.501 157.905 261.034 155.774 261.034ZM93.847 203.501C91.8493 203.501 89.7185 204.034 87.9872 205.1L76.8004 211.625C75.8681 212.158 75.3354 213.09 75.3354 214.156C75.3354 215.221 75.8681 216.153 76.8004 216.686L149.914 258.903C153.51 261.034 158.038 261.034 161.767 258.903L172.954 252.377C173.886 251.845 174.419 250.912 174.419 249.847C174.419 248.781 173.886 247.849 172.954 247.317L99.8399 205.1C97.9754 204.034 95.8446 203.501 93.847 203.501Z" fill="white"/>
<path d="M15.802 235.73C15.6688 235.73 15.6688 235.73 15.5356 235.597C15.4025 235.464 15.5356 235.331 15.6688 235.197C20.8627 232.267 25.5239 225.875 27.2552 219.216L48.6966 134.116C51.3601 123.595 59.617 116.404 65.61 116.271C68.673 116.138 71.0702 118.002 72.0025 121.198L77.9954 140.376C78.6613 142.373 79.8599 143.838 81.5912 144.504C83.5888 145.303 86.2523 144.904 89.049 143.306L93.3107 140.908C98.2382 138.112 102.766 132.119 104.498 125.859C107.427 115.871 115.285 109.212 120.878 108.813C123.808 108.547 126.072 110.011 127.271 112.675L133.93 127.191C134.729 128.789 135.927 129.988 137.392 130.521C139.39 131.187 141.92 130.787 144.45 129.322L149.378 126.525C154.572 123.595 159.366 116.937 160.831 110.278L182.273 18.2529C184.67 7.8651 193.06 0.40722 199.186 0.00769085C202.249 -0.125486 204.646 1.47263 205.712 4.66887L238.34 96.5606C239.006 98.4251 240.204 99.89 241.936 100.423C243.933 101.222 246.597 100.822 249.26 99.2242L266.041 89.7686C266.174 89.6355 266.307 89.7686 266.44 89.9018C266.573 90.035 266.44 90.1682 266.307 90.3013L249.527 99.7569C246.73 101.355 243.933 101.755 241.669 100.955C239.938 100.29 238.606 98.8246 237.807 96.6938L205.179 4.80205C204.114 1.87216 201.983 0.407222 199.186 0.540399C193.326 0.806752 185.202 8.26463 182.805 18.386L161.364 110.411C159.766 117.203 155.105 123.862 149.644 126.925L144.717 129.722C142.053 131.32 139.39 131.719 137.126 131.053C135.394 130.521 134.063 129.322 133.264 127.458L126.605 112.941C125.406 110.411 123.409 109.212 120.745 109.346C115.285 109.745 107.694 116.271 104.897 125.993C103.033 132.385 98.5046 138.511 93.4439 141.441L89.1822 143.838C86.2523 145.436 83.4556 145.836 81.3248 145.037C79.4603 144.371 78.1286 142.773 77.4627 140.509L71.4698 121.331C70.5375 118.268 68.4067 116.537 65.61 116.67C59.8834 116.803 51.6265 123.995 49.0961 134.116L27.6547 219.216C26.0566 226.275 21.2622 232.8 15.802 235.73C15.802 235.73 15.9352 235.73 15.802 235.73Z" fill="#42E8E0"/>
<path d="M33.7825 246.384C33.6493 246.384 33.6493 246.384 33.5161 246.251C33.3829 246.118 33.5161 245.984 33.6493 245.851C38.8432 242.921 43.5043 236.529 45.2356 229.87L66.677 144.77C69.3406 134.249 77.5975 127.058 83.5905 126.925C86.6535 126.791 89.0507 128.656 89.9829 131.852L95.9759 151.03C96.6418 153.027 97.8403 154.492 99.5716 155.158C101.569 155.957 104.233 155.558 107.03 153.959L111.291 151.562C116.219 148.766 120.747 142.773 122.478 136.513C125.408 126.525 133.265 119.866 138.859 119.467C141.789 119.2 144.053 120.665 145.251 123.329L151.91 137.845C152.709 139.443 153.908 140.642 155.373 141.174C157.37 141.84 159.901 141.441 162.431 139.976L167.358 137.179C172.552 134.249 177.347 127.59 178.812 120.932L200.253 28.9067C202.65 18.5189 211.04 11.061 217.166 10.6615C220.23 10.5283 222.627 12.1264 223.692 15.3227L256.32 107.214C256.986 109.079 258.185 110.544 259.916 111.077C261.914 111.876 264.577 111.476 267.241 109.878L284.154 100.289C284.287 100.156 284.421 100.289 284.554 100.422C284.687 100.556 284.554 100.689 284.421 100.822L267.507 110.411C264.71 112.009 261.914 112.408 259.65 111.609C257.918 110.943 256.587 109.478 255.788 107.348L223.159 15.4559C222.094 12.526 219.963 11.061 217.166 11.1942C211.307 11.4606 203.183 18.9184 200.786 29.0399L179.344 121.065C177.746 127.857 173.085 134.516 167.625 137.579L162.697 140.375C160.034 141.974 157.37 142.373 155.106 141.707C153.375 141.174 152.043 139.976 151.244 138.111L144.585 123.595C143.387 121.065 141.389 119.866 138.726 119.999C133.265 120.399 125.674 126.925 122.878 136.646C121.013 143.039 116.485 149.165 111.424 152.095L107.163 154.492C104.233 156.09 101.436 156.49 99.3053 155.691C97.4408 155.025 96.109 153.427 95.4432 151.163L89.5834 132.118C88.6512 129.055 86.5203 127.457 83.7236 127.457C77.997 127.59 69.7401 134.782 67.2097 144.903L45.7683 230.003C44.037 236.795 39.2427 243.321 33.7825 246.384C33.7825 246.384 33.9156 246.384 33.7825 246.384Z" fill="#42E8E0"/>
<path d="M15.802 235.73C15.6688 235.73 15.6688 235.73 15.5356 235.597C15.4025 235.464 15.5356 235.331 15.6688 235.197C20.8627 232.267 25.5239 225.875 27.2552 219.216L48.6966 134.116C51.3601 123.595 59.617 116.404 65.61 116.271C68.673 116.138 71.0702 118.002 72.0025 121.198L77.9954 140.376C78.6613 142.373 79.8599 143.838 81.5912 144.504C83.5888 145.303 86.2523 144.904 89.049 143.306L93.3107 140.908C98.2382 138.112 102.766 132.119 104.498 125.859C107.427 115.871 115.285 109.212 120.878 108.813C123.808 108.547 126.072 110.011 127.271 112.675L133.93 127.191C134.729 128.789 135.927 129.988 137.392 130.521C139.39 131.187 141.92 130.787 144.45 129.322L149.378 126.525C154.572 123.595 159.366 116.937 160.831 110.278L182.273 18.2529C184.67 7.8651 193.06 0.40722 199.186 0.00769085C202.249 -0.125486 204.646 1.47263 205.712 4.66887L238.34 96.5606C239.006 98.4251 240.204 99.89 241.936 100.423C243.933 101.222 246.597 100.822 249.26 99.2242L266.041 89.7686C266.174 89.6355 266.307 89.7686 266.44 89.9018C266.573 90.035 266.44 90.1682 266.307 90.3013L249.527 99.7569C246.73 101.355 243.933 101.755 241.669 100.955C239.938 100.29 238.606 98.8246 237.807 96.6938L205.179 4.80205C204.114 1.87216 201.983 0.407222 199.186 0.540399C193.326 0.806752 185.202 8.26463 182.805 18.386L161.364 110.411C159.766 117.203 155.105 123.862 149.644 126.925L144.717 129.722C142.053 131.32 139.39 131.719 137.126 131.053C135.394 130.521 134.063 129.322 133.264 127.458L126.605 112.941C125.406 110.411 123.409 109.212 120.745 109.346C115.285 109.745 107.694 116.271 104.897 125.993C103.033 132.385 98.5046 138.511 93.4439 141.441L89.1822 143.838C86.2523 145.436 83.4556 145.836 81.3248 145.037C79.4603 144.371 78.1286 142.773 77.4627 140.509L71.4698 121.331C70.5375 118.268 68.4067 116.537 65.61 116.67C59.8834 116.803 51.6265 123.995 49.0961 134.116L27.6547 219.216C26.0566 226.275 21.2622 232.8 15.802 235.73C15.802 235.73 15.9352 235.73 15.802 235.73Z" fill="#F36E0F"/>
<path d="M33.7825 246.384C33.6493 246.384 33.6493 246.384 33.5161 246.251C33.3829 246.118 33.5161 245.984 33.6493 245.851C38.8432 242.921 43.5043 236.529 45.2356 229.87L66.677 144.77C69.3406 134.249 77.5975 127.058 83.5905 126.925C86.6535 126.791 89.0507 128.656 89.9829 131.852L95.9759 151.03C96.6418 153.027 97.8403 154.492 99.5716 155.158C101.569 155.957 104.233 155.558 107.03 153.959L111.291 151.562C116.219 148.766 120.747 142.773 122.478 136.513C125.408 126.525 133.265 119.866 138.859 119.467C141.789 119.2 144.053 120.665 145.251 123.329L151.91 137.845C152.709 139.443 153.908 140.642 155.373 141.174C157.37 141.84 159.901 141.441 162.431 139.976L167.358 137.179C172.552 134.249 177.347 127.59 178.812 120.932L200.253 28.9067C202.65 18.5189 211.04 11.061 217.166 10.6615C220.23 10.5283 222.627 12.1264 223.692 15.3227L256.32 107.214C256.986 109.079 258.185 110.544 259.916 111.077C261.914 111.876 264.577 111.476 267.241 109.878L284.154 100.289C284.287 100.156 284.421 100.289 284.554 100.422C284.687 100.556 284.554 100.689 284.421 100.822L267.507 110.411C264.71 112.009 261.914 112.408 259.65 111.609C257.918 110.943 256.587 109.478 255.788 107.348L223.159 15.4559C222.094 12.526 219.963 11.061 217.166 11.1942C211.307 11.4606 203.183 18.9184 200.786 29.0399L179.344 121.065C177.746 127.857 173.085 134.516 167.625 137.579L162.697 140.375C160.034 141.974 157.37 142.373 155.106 141.707C153.375 141.174 152.043 139.976 151.244 138.111L144.585 123.595C143.387 121.065 141.389 119.866 138.726 119.999C133.265 120.399 125.674 126.925 122.878 136.646C121.013 143.039 116.485 149.165 111.424 152.095L107.163 154.492C104.233 156.09 101.436 156.49 99.3053 155.691C97.4408 155.025 96.109 153.427 95.4432 151.163L89.5834 132.118C88.6512 129.055 86.5203 127.457 83.7236 127.457C77.997 127.59 69.7401 134.782 67.2097 144.903L45.7683 230.003C44.037 236.795 39.2427 243.321 33.7825 246.384C33.7825 246.384 33.9156 246.384 33.7825 246.384Z" fill="#F36E0F"/>
<g opacity="0.5">
<path d="M266.573 90.1679L249.793 99.6234C244.732 102.553 240.204 101.355 238.473 96.8267L205.844 4.93496C202.116 -5.58599 186.401 3.73636 182.938 18.519L161.497 110.411C159.899 117.07 155.237 123.862 149.91 126.791L144.983 129.588C140.188 132.252 135.794 131.453 134.062 127.457L127.404 112.941C123.275 103.885 109.025 112.275 105.163 125.992C103.299 132.385 98.7706 138.378 93.8431 141.175L89.5814 143.572C84.3875 146.502 79.7264 145.303 78.2614 140.375L72.2685 121.198C68.8059 110.411 53.0911 119.2 49.3621 134.116L27.9207 219.216C26.1894 225.875 21.5282 232.4 16.2012 235.33L266.573 90.1679Z" fill="white"/>
<path d="M266.573 90.1679L249.793 99.6234C244.732 102.553 240.204 101.355 238.473 96.8267L205.844 4.93496C202.116 -5.58599 186.401 3.73636 182.938 18.519L161.497 110.411C159.899 117.07 155.237 123.862 149.91 126.791L144.983 129.588C140.188 132.252 135.794 131.453 134.062 127.457L127.404 112.941C123.275 103.885 109.025 112.275 105.163 125.992C103.299 132.385 98.7706 138.378 93.8431 141.175L89.5814 143.572C84.3875 146.502 79.7264 145.303 78.2614 140.375L72.2685 121.198C68.8059 110.411 53.0911 119.2 49.3621 134.116L27.9207 219.216C26.1894 225.875 21.5282 232.4 16.2012 235.33L266.573 90.1679Z" fill="url(#paint0_linear)"/>
</g>
<g opacity="0.5">
<path d="M284.818 100.289L267.771 109.878C262.711 112.808 258.183 111.609 256.451 107.081L223.823 15.1893C220.094 4.66841 204.379 13.9908 200.917 28.7734L179.475 120.798C177.877 127.457 173.216 134.249 167.889 137.179L162.961 139.976C158.167 142.639 153.772 141.84 152.041 137.845L145.382 123.329C141.254 114.273 127.004 122.663 123.142 136.38C121.277 142.772 116.749 148.765 111.822 151.562L107.56 153.959C102.366 156.889 97.7049 155.691 96.2399 150.763L90.247 131.586C86.7844 120.798 71.0696 129.588 67.3406 144.504L45.8992 229.603C44.1679 236.262 39.5067 242.788 34.1797 245.718L284.818 100.289Z" fill="white"/>
<path d="M284.818 100.289L267.771 109.878C262.711 112.808 258.183 111.609 256.451 107.081L223.823 15.1893C220.094 4.66841 204.379 13.9908 200.917 28.7734L179.475 120.798C177.877 127.457 173.216 134.249 167.889 137.179L162.961 139.976C158.167 142.639 153.772 141.84 152.041 137.845L145.382 123.329C141.254 114.273 127.004 122.663 123.142 136.38C121.277 142.772 116.749 148.765 111.822 151.562L107.56 153.959C102.366 156.889 97.7049 155.691 96.2399 150.763L90.247 131.586C86.7844 120.798 71.0696 129.588 67.3406 144.504L45.8992 229.603C44.1679 236.262 39.5067 242.788 34.1797 245.718L284.818 100.289Z" fill="url(#paint1_linear)"/>
</g>
<path opacity="0.4" d="M88.6504 107.747C88.6504 110.411 90.7812 112.541 93.4447 112.541C96.1083 112.541 98.2391 110.411 98.2391 107.747C98.2391 105.083 96.1083 102.953 93.4447 102.953C90.9144 102.953 88.6504 105.083 88.6504 107.747Z" fill="#E89242"/>
<path d="M91.4453 107.747C91.4453 108.946 92.3775 109.878 93.443 109.878C94.6415 109.878 95.5738 108.946 95.5738 107.88C95.5738 106.682 94.6416 105.75 93.5761 105.75C92.3776 105.616 91.4453 106.549 91.4453 107.747Z" fill="#DB6502"/>
<path opacity="0.4" d="M162.162 24.5121C162.162 27.1757 164.293 29.3065 166.956 29.3065C169.62 29.3065 171.751 27.1757 171.751 24.5121C171.751 21.8486 169.62 19.7178 166.956 19.7178C164.293 19.7178 162.162 21.8486 162.162 24.5121Z" fill="#E89242"/>
<path d="M164.957 24.6451C164.957 25.8437 165.889 26.7759 166.955 26.7759C168.153 26.7759 169.085 25.8437 169.085 24.7783C169.085 23.5797 168.153 22.6475 167.088 22.6475C165.889 22.5143 164.957 23.4465 164.957 24.6451Z" fill="#DB6502"/>
<path opacity="0.4" d="M25.125 123.862C25.125 126.525 27.2558 128.656 29.9194 128.656C32.5829 128.656 34.7137 126.525 34.7137 123.862C34.7137 121.198 32.5829 119.067 29.9194 119.067C27.2558 119.067 25.125 121.198 25.125 123.862Z" fill="#E89242"/>
<path d="M27.7891 123.862C27.7891 125.06 28.7213 125.993 29.7867 125.993C30.9853 125.993 31.9175 125.06 31.9175 123.995C31.9175 122.796 30.9853 121.864 29.9199 121.864C28.7213 121.864 27.7891 122.796 27.7891 123.862Z" fill="#DB6502"/>
<defs>
<linearGradient id="paint0_linear" x1="71.696" y1="25.8618" x2="806.235" y2="749.98" gradientUnits="userSpaceOnUse">
<stop stop-color="#F4F6F8"/>
<stop offset="0.133104" stop-color="#E6EAEE"/>
<stop offset="0.989162" stop-color="#FFA463"/>
</linearGradient>
<linearGradient id="paint1_linear" x1="89.7335" y1="36.1307" x2="824.694" y2="761.025" gradientUnits="userSpaceOnUse">
<stop stop-color="#F4F6F8"/>
<stop offset="0.133104" stop-color="#E6EAEE"/>
<stop offset="0.989162" stop-color="#FFA463"/>
</linearGradient>
</defs>
</svg>
