<svg width="343" height="364" viewBox="0 0 343 364" fill="none" xmlns="http://www.w3.org/2000/svg">
<path d="M88.5332 45.7117L167.894 91.4233L247.254 45.7117L167.894 0L88.5332 45.7117Z" fill="#F36E0F"/>
<path d="M167.893 91.4235V257.552L247.253 211.84V45.7119L167.893 91.4235Z" fill="#E5BC9B"/>
<path d="M88.5332 45.7119L167.894 91.4235V257.552L88.5332 211.84V45.7119Z" fill="#F89B4E"/>
<path d="M96.3652 73.0117V75.3396L156.044 109.835V107.295L96.3652 73.0117Z" fill="white"/>
<path d="M96.1523 137.135V139.463L155.831 173.958V171.419L96.1523 137.135Z" fill="white"/>
<path d="M96.3652 91.2119V93.5398L156.044 128.035V125.496L96.3652 91.2119Z" fill="white"/>
<path d="M96.3652 115.761V118.089L156.044 152.585V150.045L96.3652 115.761Z" fill="white"/>
<path d="M96.3652 79.5723V81.9002L115.623 93.1164V90.5769L96.3652 79.5723Z" fill="white"/>
<path d="M96.3652 109.835V112.163L115.623 123.379V120.84L96.3652 109.835Z" fill="white"/>
<path d="M136.361 120.416V122.956L155.619 133.96V131.632L136.361 120.416Z" fill="white"/>
<path d="M104.406 90.1538V92.6933L123.664 103.698V101.37L104.406 90.1538Z" fill="white"/>
<path d="M108.002 138.404V140.944L127.26 151.948V149.621L108.002 138.404Z" fill="white"/>
<path d="M108.002 182V184.328L127.26 195.544V193.005L108.002 182Z" fill="white"/>
<path d="M104.406 108.142V110.682L123.664 121.686V119.358L104.406 108.142Z" fill="white"/>
<path d="M136.361 102.64V105.179L155.619 116.184V113.644L136.361 102.64Z" fill="white"/>
<path d="M136.361 126.553V129.093L155.619 140.097V137.77L136.361 126.553Z" fill="white"/>
<path d="M118.373 92.27V94.8095L124.51 98.4072V95.8677L118.373 92.27Z" fill="white"/>
<path d="M127.686 115.761V118.301L134.034 121.687V119.359L127.686 115.761Z" fill="white"/>
<path d="M136.361 191.947V194.486L155.619 205.491V203.163L136.361 191.947Z" fill="white"/>
<path d="M136.361 198.084V200.624L155.619 211.628V209.3L136.361 198.084Z" fill="white"/>
<path d="M127.686 187.291V189.83L134.034 193.216V190.888L127.686 187.291Z" fill="white"/>
<path d="M127.686 127.4V129.94L134.034 133.538V130.998L127.686 127.4Z" fill="white"/>
<path d="M95.7285 85.2861V87.8257L101.866 91.2117V88.8838L95.7285 85.2861Z" fill="white"/>
<path d="M96.3652 143.696V146.235L156.044 180.731V178.191L96.3652 143.696Z" fill="white"/>
<path d="M96.3652 161.895V164.435L156.044 198.93V196.39L96.3652 161.895Z" fill="white"/>
<path d="M96.3652 150.256V152.795L115.623 163.8V161.472L96.3652 150.256Z" fill="white"/>
<path d="M104.406 161.049V163.588L123.664 174.593V172.054L104.406 161.049Z" fill="white"/>
<path d="M95.7285 155.971V158.51L101.866 162.108V159.568L95.7285 155.971Z" fill="white"/>
<path d="M95.7285 168.668V170.996L101.866 174.594V172.054L95.7285 168.668Z" fill="white"/>
<path d="M95.7285 103.274V105.813L101.866 109.2V106.872L95.7285 103.274Z" fill="white"/>
<path d="M236.675 73.0117V75.3396L176.996 109.835V107.295L236.675 73.0117Z" fill="#FF7A00"/>
<path d="M236.886 137.135V139.463L177.207 173.958V171.419L236.886 137.135Z" fill="#FF7A00"/>
<path d="M236.675 91.2119V93.5398L176.996 128.035V125.496L236.675 91.2119Z" fill="#FF7A00"/>
<path d="M236.675 115.761V118.089L176.996 152.585V150.045L236.675 115.761Z" fill="#FF7A00"/>
<path d="M236.674 79.5723V81.9002L217.416 93.1164V90.5769L236.674 79.5723Z" fill="#FF7A00"/>
<path d="M236.674 109.835V112.163L217.416 123.379V120.84L236.674 109.835Z" fill="#FF7A00"/>
<path d="M196.676 120.416V122.956L177.418 133.96V131.632L196.676 120.416Z" fill="#FF7A00"/>
<path d="M228.631 90.1538V92.6933L209.373 103.698V101.37L228.631 90.1538Z" fill="#FF7A00"/>
<path d="M225.036 138.404V140.944L205.777 151.948V149.621L225.036 138.404Z" fill="#FF7A00"/>
<path d="M225.036 182V184.328L205.777 195.544V193.005L225.036 182Z" fill="#FF7A00"/>
<path d="M228.631 108.142V110.682L209.373 121.686V119.358L228.631 108.142Z" fill="#FF7A00"/>
<path d="M196.676 102.64V105.179L177.418 116.184V113.644L196.676 102.64Z" fill="#FF7A00"/>
<path d="M196.676 126.553V129.093L177.418 140.097V137.77L196.676 126.553Z" fill="#FF7A00"/>
<path d="M214.665 92.27V94.8095L208.527 98.4072V95.8677L214.665 92.27Z" fill="#FF7A00"/>
<path d="M205.351 115.761V118.301L199.002 121.687V119.359L205.351 115.761Z" fill="#FF7A00"/>
<path d="M196.676 191.947V194.486L177.418 205.491V203.163L196.676 191.947Z" fill="#FF7A00"/>
<path d="M196.676 198.084V200.624L177.418 211.628V209.3L196.676 198.084Z" fill="#FF7A00"/>
<path d="M205.351 187.291V189.83L199.002 193.216V190.888L205.351 187.291Z" fill="#FF7A00"/>
<path d="M205.351 127.4V129.94L199.002 133.538V130.998L205.351 127.4Z" fill="#FF7A00"/>
<path d="M237.312 85.2861V87.8257L230.963 91.2117V88.8838L237.312 85.2861Z" fill="#FF7A00"/>
<path d="M236.675 143.696V146.235L176.996 180.731V178.191L236.675 143.696Z" fill="#FF7A00"/>
<path d="M236.675 161.895V164.435L176.996 198.93V196.39L236.675 161.895Z" fill="#FF7A00"/>
<path d="M236.674 150.256V152.795L217.416 163.8V161.472L236.674 150.256Z" fill="#FF7A00"/>
<path d="M228.631 161.049V163.588L209.373 174.593V172.054L228.631 161.049Z" fill="#FF7A00"/>
<path d="M237.312 155.971V158.51L230.963 162.108V159.568L237.312 155.971Z" fill="#FF7A00"/>
<path d="M237.312 168.668V170.996L230.963 174.594V172.054L237.312 168.668Z" fill="#FF7A00"/>
<path d="M237.312 103.274V105.813L230.963 109.2V106.872L237.312 103.274Z" fill="#FF7A00"/>
<path d="M118.373 48.4636L165.777 75.7636C166.412 76.1868 167.47 76.1868 168.105 75.7636L215.51 48.4636C217.203 47.6171 217.203 45.2891 215.51 44.4426L168.105 17.1426C167.47 16.7194 166.412 16.7194 165.777 17.1426L118.373 44.4426C116.891 45.0775 116.891 47.4054 118.373 48.4636Z" fill="#F89B4E"/>
<path d="M129.383 46.3458L133.192 48.4621L136.79 46.3458L133.192 44.2295L129.383 46.3458Z" fill="white"/>
<path d="M137.428 51.002L141.025 53.1183L144.835 51.002L141.025 48.8857L137.428 51.002Z" fill="white"/>
<path d="M145.465 55.4464L149.062 57.5626L152.66 55.4464L149.062 53.3301L145.465 55.4464Z" fill="white"/>
<path d="M153.51 60.1016L157.107 62.2179L160.705 60.1016L157.107 57.9854L153.51 60.1016Z" fill="white"/>
<path d="M161.338 64.7579L165.147 66.8742L168.745 64.7579L165.147 62.6416L161.338 64.7579Z" fill="white"/>
<path d="M138.484 41.2676L142.294 43.3839L145.891 41.2676L142.294 39.1514L138.484 41.2676Z" fill="white"/>
<path d="M146.525 45.7123L150.335 47.8286L153.932 45.7123L150.335 43.8076L146.525 45.7123Z" fill="white"/>
<path d="M154.566 50.3673L158.164 52.4835L161.973 50.3673L158.164 48.251L154.566 50.3673Z" fill="white"/>
<path d="M162.607 55.023L166.205 57.1393L169.803 55.023L166.205 52.9067L162.607 55.023Z" fill="white"/>
<path d="M170.652 59.6793L174.25 61.7955L177.848 59.6793L174.25 57.563L170.652 59.6793Z" fill="white"/>
<path d="M147.16 36.4L150.969 38.5163L154.567 36.4L150.969 34.2837L147.16 36.4Z" fill="white"/>
<path d="M155.201 40.8433L158.799 42.9596L162.608 40.8433L158.799 38.7271L155.201 40.8433Z" fill="white"/>
<path d="M163.242 45.5001L166.84 47.6163L170.438 45.5001L166.84 43.3838L163.242 45.5001Z" fill="white"/>
<path d="M171.287 50.1558L174.885 52.2721L178.483 50.1558L174.885 48.0396L171.287 50.1558Z" fill="white"/>
<path d="M179.113 54.8111L182.923 56.9274L186.52 54.8111L182.923 52.6948L179.113 54.8111Z" fill="white"/>
<path d="M155.836 31.3199L159.434 33.4362L163.243 31.3199L159.434 29.2036L155.836 31.3199Z" fill="white"/>
<path d="M163.879 35.9766L167.477 38.0929L171.074 35.9766L167.477 33.8604L163.879 35.9766Z" fill="white"/>
<path d="M171.918 40.6324L175.516 42.7487L179.113 40.6324L175.516 38.5161L171.918 40.6324Z" fill="white"/>
<path d="M179.754 45.2882L183.563 47.4044L187.161 45.2882L183.563 43.1719L179.754 45.2882Z" fill="white"/>
<path d="M187.789 49.9444L191.387 51.849L195.196 49.9444L191.387 47.8281L187.789 49.9444Z" fill="white"/>
<path d="M164.514 26.4532L168.111 28.5695L171.709 26.4532L168.111 24.3369L164.514 26.4532Z" fill="white"/>
<path d="M172.557 31.1094L176.154 33.2257L179.752 31.1094L176.154 28.9932L172.557 31.1094Z" fill="white"/>
<path d="M180.596 35.7642L184.193 37.8805L187.791 35.7642L184.193 33.6479L180.596 35.7642Z" fill="white"/>
<path d="M188.428 40.4205L192.237 42.5368L195.835 40.4205L192.237 38.3042L188.428 40.4205Z" fill="white"/>
<path d="M196.467 44.8648L200.064 46.9811L203.874 44.8648L200.064 42.7485L196.467 44.8648Z" fill="white"/>
<path d="M183.977 101.581L263.337 147.293L342.698 101.581L263.337 55.6577L183.977 101.581Z" fill="#F36E0F"/>
<path d="M263.338 147.293V313.421L342.698 267.71V101.582L263.338 147.293Z" fill="#E5BC9B"/>
<path d="M183.977 101.582L263.337 147.293V313.421L183.977 267.71V101.582Z" fill="#F89B4E"/>
<path d="M191.596 128.67V131.209L251.486 165.493V163.165L191.596 128.67Z" fill="white"/>
<path d="M191.596 192.792V195.332L251.275 229.827V227.288L191.596 192.792Z" fill="white"/>
<path d="M191.596 146.87V149.41L251.486 183.693V181.365L191.596 146.87Z" fill="white"/>
<path d="M191.596 171.419V173.958L251.486 208.242V205.914L191.596 171.419Z" fill="white"/>
<path d="M191.596 135.23V137.77L211.066 148.774V146.235L191.596 135.23Z" fill="white"/>
<path d="M191.596 165.493V168.032L211.066 179.037V176.497L191.596 165.493Z" fill="white"/>
<path d="M231.805 176.286V178.614L251.063 189.83V187.29L231.805 176.286Z" fill="white"/>
<path d="M199.639 146.024V148.352L219.108 159.568V157.029L199.639 146.024Z" fill="white"/>
<path d="M203.447 194.274V196.602L222.705 207.819V205.279L203.447 194.274Z" fill="white"/>
<path d="M203.447 237.658V240.197L222.705 251.202V248.662L203.447 237.658Z" fill="white"/>
<path d="M199.639 163.8V166.34L219.108 177.556V175.017L199.639 163.8Z" fill="white"/>
<path d="M231.805 158.298V160.837L251.063 171.842V169.514L231.805 158.298Z" fill="white"/>
<path d="M231.805 182.423V184.751L251.063 195.968V193.428L231.805 182.423Z" fill="white"/>
<path d="M213.816 148.14V150.468L219.954 154.065V151.526L213.816 148.14Z" fill="white"/>
<path d="M223.129 171.419V173.958L229.266 177.556V175.017L223.129 171.419Z" fill="white"/>
<path d="M231.805 247.816V250.144L251.063 261.36V258.821L231.805 247.816Z" fill="white"/>
<path d="M231.805 253.954V256.282L251.063 267.498V264.959L231.805 253.954Z" fill="white"/>
<path d="M223.129 242.948V245.488L229.266 249.085V246.546L223.129 242.948Z" fill="white"/>
<path d="M223.129 183.27V185.597L229.266 189.195V186.656L223.129 183.27Z" fill="white"/>
<path d="M191.174 140.944V143.483L197.311 147.081V144.542L191.174 140.944Z" fill="white"/>
<path d="M191.596 199.565V201.893L251.486 236.388V233.849L191.596 199.565Z" fill="white"/>
<path d="M191.596 217.765V220.093L251.486 254.588V252.049L191.596 217.765Z" fill="white"/>
<path d="M191.596 206.125V208.453L211.066 219.67V217.13L191.596 206.125Z" fill="white"/>
<path d="M199.639 216.708V219.247L219.108 230.252V227.924L199.639 216.708Z" fill="white"/>
<path d="M191.174 211.839V214.167L197.311 217.764V215.437L191.174 211.839Z" fill="white"/>
<path d="M191.174 224.326V226.866L197.311 230.252V227.924L191.174 224.326Z" fill="white"/>
<path d="M191.174 158.932V161.472L197.311 165.069V162.53L191.174 158.932Z" fill="white"/>
<path d="M332.119 128.67V131.209L272.439 165.493V163.165L332.119 128.67Z" fill="#FF7A00"/>
<path d="M332.33 192.792V195.332L272.439 229.827V227.288L332.33 192.792Z" fill="#FF7A00"/>
<path d="M332.119 146.87V149.41L272.439 183.693V181.365L332.119 146.87Z" fill="#FF7A00"/>
<path d="M332.119 171.419V173.958L272.439 208.242V205.914L332.119 171.419Z" fill="#FF7A00"/>
<path d="M332.119 135.23V137.77L312.861 148.774V146.235L332.119 135.23Z" fill="#FF7A00"/>
<path d="M332.119 165.493V168.032L312.861 179.037V176.497L332.119 165.493Z" fill="#FF7A00"/>
<path d="M292.121 176.286V178.614L272.863 189.83V187.29L292.121 176.286Z" fill="#FF7A00"/>
<path d="M324.075 146.024V148.352L304.816 159.568V157.029L324.075 146.024Z" fill="#FF7A00"/>
<path d="M320.48 194.274V196.602L301.01 207.819V205.279L320.48 194.274Z" fill="#FF7A00"/>
<path d="M320.48 237.658V240.197L301.01 251.202V248.662L320.48 237.658Z" fill="#FF7A00"/>
<path d="M324.075 163.8V166.34L304.816 177.556V175.017L324.075 163.8Z" fill="#FF7A00"/>
<path d="M292.122 158.298V160.837L272.652 171.842V169.514L292.122 158.298Z" fill="#FF7A00"/>
<path d="M292.122 182.423V184.751L272.652 195.968V193.428L292.122 182.423Z" fill="#FF7A00"/>
<path d="M309.897 148.14V150.468L303.76 154.065V151.526L309.897 148.14Z" fill="#FF7A00"/>
<path d="M300.584 171.419V173.958L294.447 177.556V175.017L300.584 171.419Z" fill="#FF7A00"/>
<path d="M292.121 247.816V250.144L272.863 261.36V258.821L292.121 247.816Z" fill="#FF7A00"/>
<path d="M292.122 253.954V256.282L272.652 267.498V264.959L292.122 253.954Z" fill="#FF7A00"/>
<path d="M300.584 242.948V245.488L294.447 249.085V246.546L300.584 242.948Z" fill="#FF7A00"/>
<path d="M300.584 183.27V185.597L294.447 189.195V186.656L300.584 183.27Z" fill="#FF7A00"/>
<path d="M332.543 140.944V143.483L326.406 147.081V144.542L332.543 140.944Z" fill="#FF7A00"/>
<path d="M332.119 199.565V201.893L272.439 236.388V233.849L332.119 199.565Z" fill="#FF7A00"/>
<path d="M332.119 217.765V220.093L272.439 254.588V252.049L332.119 217.765Z" fill="#FF7A00"/>
<path d="M332.119 206.125V208.453L312.861 219.67V217.13L332.119 206.125Z" fill="#FF7A00"/>
<path d="M324.075 216.708V219.247L304.816 230.252V227.924L324.075 216.708Z" fill="#FF7A00"/>
<path d="M332.543 211.839V214.167L326.406 217.764V215.437L332.543 211.839Z" fill="#FF7A00"/>
<path d="M332.543 224.326V226.866L326.406 230.252V227.924L332.543 224.326Z" fill="#FF7A00"/>
<path d="M332.543 158.932V161.472L326.406 165.069V162.53L332.543 158.932Z" fill="#FF7A00"/>
<path d="M213.816 104.122L261.221 131.422C261.856 131.845 262.914 131.845 263.549 131.422L310.953 104.122C312.646 103.275 312.646 100.947 310.953 100.101L263.549 72.8008C262.914 72.3776 261.856 72.3776 261.221 72.8008L213.816 100.101C212.335 100.947 212.335 103.275 213.816 104.122Z" fill="#F89B4E"/>
<path d="M224.824 102.005L228.422 104.121L232.231 102.005L228.422 99.8887L224.824 102.005Z" fill="white"/>
<path d="M232.869 106.661L236.467 108.777L240.064 106.661L236.467 104.545L232.869 106.661Z" fill="white"/>
<path d="M240.906 111.317L244.504 113.433L248.102 111.317L244.504 109.201L240.906 111.317Z" fill="white"/>
<path d="M248.74 115.972L252.55 117.877L256.147 115.972L252.55 113.856L248.74 115.972Z" fill="white"/>
<path d="M256.779 120.417L260.377 122.533L264.186 120.417L260.377 118.3L256.779 120.417Z" fill="white"/>
<path d="M233.926 96.9254L237.735 99.0416L241.333 96.9254L237.735 94.8091L233.926 96.9254Z" fill="white"/>
<path d="M241.967 101.582L245.564 103.698L249.374 101.582L245.564 99.4658L241.967 101.582Z" fill="white"/>
<path d="M250.008 106.238L253.606 108.354L257.203 106.238L253.606 104.122L250.008 106.238Z" fill="white"/>
<path d="M258.049 110.682L261.647 112.798L265.244 110.682L261.647 108.565L258.049 110.682Z" fill="white"/>
<path d="M265.879 115.337L269.688 117.454L273.286 115.337L269.688 113.221L265.879 115.337Z" fill="white"/>
<path d="M242.602 92.0587L246.199 94.1749L250.009 92.0587L246.199 89.9424L242.602 92.0587Z" fill="white"/>
<path d="M250.643 96.7139L254.24 98.8302L257.838 96.7139L254.24 94.5977L250.643 96.7139Z" fill="white"/>
<path d="M258.684 101.159L262.281 103.275L265.879 101.159L262.281 99.0425L258.684 101.159Z" fill="white"/>
<path d="M266.514 105.815L270.323 107.931L273.921 105.815L270.323 103.699L266.514 105.815Z" fill="white"/>
<path d="M274.555 110.47L278.152 112.586L281.962 110.47L278.152 108.354L274.555 110.47Z" fill="white"/>
<path d="M251.277 87.1905L254.875 89.3068L258.473 87.1905L254.875 85.0742L251.277 87.1905Z" fill="white"/>
<path d="M259.32 91.8472L262.918 93.7519L266.516 91.8472L262.918 89.731L259.32 91.8472Z" fill="white"/>
<path d="M267.15 96.2911L270.96 98.4074L274.557 96.2911L270.96 94.1748L267.15 96.2911Z" fill="white"/>
<path d="M275.195 100.946L278.793 103.063L282.602 100.946L278.793 98.8301L275.195 100.946Z" fill="white"/>
<path d="M283.23 105.603L286.828 107.719L290.637 105.603L286.828 103.487L283.23 105.603Z" fill="white"/>
<path d="M259.955 82.3238L263.553 84.4401L267.15 82.3238L263.553 80.2075L259.955 82.3238Z" fill="white"/>
<path d="M267.998 86.7681L271.596 88.8844L275.193 86.7681L271.596 84.6519L267.998 86.7681Z" fill="white"/>
<path d="M275.826 91.4234L279.635 93.5397L283.233 91.4234L279.635 89.3071L275.826 91.4234Z" fill="white"/>
<path d="M283.869 96.0792L287.467 98.1955L291.276 96.0792L287.467 93.9629L283.869 96.0792Z" fill="white"/>
<path d="M291.908 100.735L295.506 102.852L299.104 100.735L295.506 98.6191L291.908 100.735Z" fill="white"/>
<path d="M0.496094 96.2907L79.8566 142.214L159.217 96.2907L79.8566 50.5791L0.496094 96.2907Z" fill="#F36E0F"/>
<path d="M79.8555 142.214V308.342L159.216 262.419V96.2905L79.8555 142.214Z" fill="#E5BC9B"/>
<path d="M0.496094 96.2905L79.8566 142.214V308.342L0.496094 262.419V96.2905Z" fill="#F89B4E"/>
<path d="M8.11328 123.591V126.13L68.004 160.414V158.086L8.11328 123.591Z" fill="white"/>
<path d="M8.11328 187.713V190.253L67.7924 224.537V222.209L8.11328 187.713Z" fill="white"/>
<path d="M8.11328 141.791V144.33L68.004 178.614V176.286L8.11328 141.791Z" fill="white"/>
<path d="M8.11328 166.339V168.667L68.004 203.163V200.835L8.11328 166.339Z" fill="white"/>
<path d="M8.11328 130.151V132.691L27.5831 143.696V141.156L8.11328 130.151Z" fill="white"/>
<path d="M8.11328 160.414V162.742L27.5831 173.958V171.419L8.11328 160.414Z" fill="white"/>
<path d="M48.3223 170.995V173.535L67.5804 184.751V182.211L48.3223 170.995Z" fill="white"/>
<path d="M16.3672 140.733V143.272L35.6253 154.489V151.949L16.3672 140.733Z" fill="white"/>
<path d="M19.9629 188.983V191.523L39.221 202.739V200.2L19.9629 188.983Z" fill="white"/>
<path d="M19.9629 232.579V235.119L39.221 246.123V243.584L19.9629 232.579Z" fill="white"/>
<path d="M16.3672 158.721V161.26L35.6253 172.477V169.937L16.3672 158.721Z" fill="white"/>
<path d="M48.3223 153.218V155.758L67.5804 166.762V164.435L48.3223 153.218Z" fill="white"/>
<path d="M48.3223 177.344V179.672L67.5804 190.888V188.348L48.3223 177.344Z" fill="white"/>
<path d="M30.3359 142.849V145.389L36.4732 148.986V146.447L30.3359 142.849Z" fill="white"/>
<path d="M39.6484 166.339V168.879L45.7856 172.477V169.937L39.6484 166.339Z" fill="white"/>
<path d="M48.3223 242.526V245.066L67.5804 256.282V253.743L48.3223 242.526Z" fill="white"/>
<path d="M48.3223 248.663V251.203L67.5804 262.419V259.879L48.3223 248.663Z" fill="white"/>
<path d="M39.6484 237.87V240.41L45.7856 244.007V241.468L39.6484 237.87Z" fill="white"/>
<path d="M39.6484 177.979V180.519L45.7856 184.117V181.577L39.6484 177.979Z" fill="white"/>
<path d="M7.69141 135.865V138.404L13.8286 142.002V139.462L7.69141 135.865Z" fill="white"/>
<path d="M8.11328 194.274V196.813L68.004 231.309V228.769L8.11328 194.274Z" fill="white"/>
<path d="M8.11328 212.474V215.014L68.004 249.509V246.969L8.11328 212.474Z" fill="white"/>
<path d="M8.11328 200.835V203.374L27.5831 214.591V212.051L8.11328 200.835Z" fill="white"/>
<path d="M16.3672 211.628V214.167L35.6253 225.172V222.633L16.3672 211.628Z" fill="white"/>
<path d="M7.69141 206.76V209.088L13.8286 212.686V210.146L7.69141 206.76Z" fill="white"/>
<path d="M7.69141 219.247V221.575L13.8286 225.172V222.844L7.69141 219.247Z" fill="white"/>
<path d="M7.69141 153.853V156.393L13.8286 159.99V157.451L7.69141 153.853Z" fill="white"/>
<path d="M148.638 123.591V126.13L88.959 160.414V158.086L148.638 123.591Z" fill="#FF7A00"/>
<path d="M148.849 187.713V190.253L89.1699 224.537V222.209L148.849 187.713Z" fill="#FF7A00"/>
<path d="M148.638 141.791V144.33L88.959 178.614V176.286L148.638 141.791Z" fill="#FF7A00"/>
<path d="M148.638 166.339V168.667L88.959 203.163V200.835L148.638 166.339Z" fill="#FF7A00"/>
<path d="M148.637 130.151V132.691L129.379 143.696V141.156L148.637 130.151Z" fill="#FF7A00"/>
<path d="M148.637 160.414V162.742L129.379 173.958V171.419L148.637 160.414Z" fill="#FF7A00"/>
<path d="M108.637 170.995V173.535L89.3789 184.751V182.211L108.637 170.995Z" fill="#FF7A00"/>
<path d="M140.594 140.733V143.272L121.336 154.489V151.949L140.594 140.733Z" fill="#FF7A00"/>
<path d="M136.998 188.983V191.523L117.74 202.739V200.2L136.998 188.983Z" fill="#FF7A00"/>
<path d="M136.998 232.579V235.119L117.74 246.123V243.584L136.998 232.579Z" fill="#FF7A00"/>
<path d="M140.594 158.721V161.26L121.336 172.477V169.937L140.594 158.721Z" fill="#FF7A00"/>
<path d="M108.64 153.218V155.758L89.1699 166.762V164.435L108.64 153.218Z" fill="#FF7A00"/>
<path d="M108.64 177.344V179.672L89.1699 190.888V188.348L108.64 177.344Z" fill="#FF7A00"/>
<path d="M126.628 142.849V145.389L120.279 148.986V146.447L126.628 142.849Z" fill="#FF7A00"/>
<path d="M117.1 166.339V168.879L110.963 172.477V169.937L117.1 166.339Z" fill="#FF7A00"/>
<path d="M108.637 242.526V245.066L89.3789 256.282V253.743L108.637 242.526Z" fill="#FF7A00"/>
<path d="M108.64 248.663V251.203L89.1699 262.419V259.879L108.64 248.663Z" fill="#FF7A00"/>
<path d="M117.1 237.87V240.41L110.963 244.007V241.468L117.1 237.87Z" fill="#FF7A00"/>
<path d="M117.1 177.979V180.519L110.963 184.117V181.577L117.1 177.979Z" fill="#FF7A00"/>
<path d="M149.273 135.865V138.404L142.924 142.002V139.462L149.273 135.865Z" fill="#FF7A00"/>
<path d="M148.638 194.274V196.813L88.959 231.309V228.769L148.638 194.274Z" fill="#FF7A00"/>
<path d="M148.638 212.474V215.014L88.959 249.509V246.969L148.638 212.474Z" fill="#FF7A00"/>
<path d="M148.637 200.835V203.374L129.379 214.591V212.051L148.637 200.835Z" fill="#FF7A00"/>
<path d="M140.594 211.628V214.167L121.336 225.172V222.633L140.594 211.628Z" fill="#FF7A00"/>
<path d="M149.273 206.76V209.088L142.924 212.686V210.146L149.273 206.76Z" fill="#FF7A00"/>
<path d="M149.273 219.247V221.575L142.924 225.172V222.844L149.273 219.247Z" fill="#FF7A00"/>
<path d="M149.273 153.853V156.393L142.924 159.99V157.451L149.273 153.853Z" fill="#FF7A00"/>
<path d="M30.3357 99.0422L77.7403 126.342C78.3752 126.765 79.4334 126.765 80.0682 126.342L127.473 99.0422C129.166 98.1957 129.166 95.8678 127.473 95.0213L80.0682 67.7213C79.4334 67.298 78.3752 67.298 77.7403 67.7213L30.3357 94.8096C28.8543 95.8678 28.8543 97.9841 30.3357 99.0422Z" fill="#F89B4E"/>
<path d="M41.3438 96.9254L44.9415 99.0416L48.7507 96.9254L44.9415 94.8091L41.3438 96.9254Z" fill="white"/>
<path d="M49.3887 101.582L52.9863 103.698L56.584 101.582L52.9863 99.4653L49.3887 101.582Z" fill="white"/>
<path d="M57.4258 106.237L61.0235 108.354L64.6211 106.237L61.0235 104.121L57.4258 106.237Z" fill="white"/>
<path d="M65.2598 110.681L69.0691 112.797L72.6667 110.681L69.0691 108.564L65.2598 110.681Z" fill="white"/>
<path d="M73.2988 115.337L77.1081 117.453L80.7058 115.337L77.1081 113.221L73.2988 115.337Z" fill="white"/>
<path d="M50.4453 91.8458L54.2546 93.9621L57.8523 91.8458L54.2546 89.7295L50.4453 91.8458Z" fill="white"/>
<path d="M58.4863 96.5025L62.084 98.6188L65.8933 96.5025L62.084 94.3862L58.4863 96.5025Z" fill="white"/>
<path d="M66.5273 100.947L70.125 103.063L73.7227 100.947L70.125 98.8306L66.5273 100.947Z" fill="white"/>
<path d="M74.5684 105.602L78.166 107.718L81.7637 105.602L78.166 103.486L74.5684 105.602Z" fill="white"/>
<path d="M82.3984 110.258L86.2077 112.374L89.8054 110.258L86.2077 108.142L82.3984 110.258Z" fill="white"/>
<path d="M59.1211 86.9791L62.7188 89.0954L66.5281 86.9791L62.7188 84.8628L59.1211 86.9791Z" fill="white"/>
<path d="M67.1621 91.6343L70.7598 93.539L74.5691 91.6343L70.7598 89.5181L67.1621 91.6343Z" fill="white"/>
<path d="M75.2031 96.0792L78.8008 98.1955L82.3985 96.0792L78.8008 93.9629L75.2031 96.0792Z" fill="white"/>
<path d="M83.248 100.735L86.8457 102.852L90.4434 100.735L86.8457 98.6191L83.248 100.735Z" fill="white"/>
<path d="M91.0742 105.39L94.8835 107.506L98.4812 105.39L94.8835 103.274L91.0742 105.39Z" fill="white"/>
<path d="M67.7969 82.1109L71.3946 84.2272L75.2039 82.1109L71.3946 79.9946L67.7969 82.1109Z" fill="white"/>
<path d="M75.8398 86.5552L79.4375 88.6715L83.0352 86.5552L79.4375 84.439L75.8398 86.5552Z" fill="white"/>
<path d="M83.8789 91.2115L87.4766 93.3278L91.0742 91.2115L87.4766 89.0952L83.8789 91.2115Z" fill="white"/>
<path d="M91.7148 95.8673L95.5242 97.9835L99.1218 95.8673L95.5242 93.751L91.7148 95.8673Z" fill="white"/>
<path d="M99.75 100.524L103.348 102.64L107.157 100.524L103.348 98.4072L99.75 100.524Z" fill="white"/>
<path d="M76.4746 77.0326L80.0723 79.1489L83.6699 77.0326L80.0723 75.1279L76.4746 77.0326Z" fill="white"/>
<path d="M84.5176 81.6885L88.1152 83.8048L91.7129 81.6885L88.1152 79.5723L84.5176 81.6885Z" fill="white"/>
<path d="M92.3457 86.3438L96.155 88.4601L99.7527 86.3438L96.155 84.2275L92.3457 86.3438Z" fill="white"/>
<path d="M100.389 90.9996L103.986 93.1159L107.796 90.9996L103.986 88.8833L100.389 90.9996Z" fill="white"/>
<path d="M108.428 95.6558L112.025 97.7721L115.623 95.6558L112.025 93.5396L108.428 95.6558Z" fill="white"/>
<path d="M95.9395 152.16L175.3 197.872L254.66 152.16L175.3 106.448L95.9395 152.16Z" fill="#F36E0F"/>
<path d="M175.299 197.872V364L254.659 318.289V152.161L175.299 197.872Z" fill="#E5BC9B"/>
<path d="M95.9395 152.161L175.3 197.872V364L95.9395 318.289V152.161Z" fill="#F89B4E"/>
<path d="M103.557 179.248V181.788L163.447 216.283V213.743L103.557 179.248Z" fill="white"/>
<path d="M103.557 243.373V245.912L163.236 280.407V277.868L103.557 243.373Z" fill="white"/>
<path d="M103.557 197.448V199.988L163.447 234.483V231.944L103.557 197.448Z" fill="white"/>
<path d="M103.557 221.998V224.538L163.447 259.033V256.493L103.557 221.998Z" fill="white"/>
<path d="M103.557 185.809V188.349L122.815 199.353V197.025L103.557 185.809Z" fill="white"/>
<path d="M103.557 216.071V218.611L122.815 229.616V227.288L103.557 216.071Z" fill="white"/>
<path d="M143.766 226.865V229.404L163.024 240.409V237.869L143.766 226.865Z" fill="white"/>
<path d="M111.6 196.603V198.93L131.069 210.147V207.607L111.6 196.603Z" fill="white"/>
<path d="M115.406 244.853V247.181L134.664 258.397V255.858L115.406 244.853Z" fill="white"/>
<path d="M115.406 288.237V290.776L134.664 301.781V299.453L115.406 288.237Z" fill="white"/>
<path d="M111.6 214.591V216.919L131.069 228.135V225.595L111.6 214.591Z" fill="white"/>
<path d="M143.766 209.088V211.416L163.024 222.633V220.093L143.766 209.088Z" fill="white"/>
<path d="M143.766 233.001V235.541L163.024 246.546V244.006L143.766 233.001Z" fill="white"/>
<path d="M125.779 198.718V201.046L131.917 204.644V202.316L125.779 198.718Z" fill="white"/>
<path d="M135.09 221.998V224.538L141.227 228.135V225.596L135.09 221.998Z" fill="white"/>
<path d="M143.766 298.395V300.723L163.024 311.939V309.4L143.766 298.395Z" fill="white"/>
<path d="M143.766 304.533V307.072L163.024 318.077V315.537L143.766 304.533Z" fill="white"/>
<path d="M135.09 293.527V296.067L141.227 299.665V297.125L135.09 293.527Z" fill="white"/>
<path d="M135.09 233.849V236.177L141.227 239.775V237.447L135.09 233.849Z" fill="white"/>
<path d="M103.135 191.523V194.063L109.272 197.661V195.121L103.135 191.523Z" fill="white"/>
<path d="M103.557 250.144V252.471L163.447 286.967V284.639L103.557 250.144Z" fill="white"/>
<path d="M103.557 268.344V270.672L163.447 305.167V302.84L103.557 268.344Z" fill="white"/>
<path d="M103.557 256.705V259.033L122.815 270.249V267.709L103.557 256.705Z" fill="white"/>
<path d="M111.6 267.286V269.825L131.069 280.83V278.502L111.6 267.286Z" fill="white"/>
<path d="M103.135 262.418V264.958L109.272 268.344V266.016L103.135 262.418Z" fill="white"/>
<path d="M103.135 274.904V277.444L109.272 281.041V278.502L103.135 274.904Z" fill="white"/>
<path d="M103.135 209.512V212.051L109.272 215.649V213.109L103.135 209.512Z" fill="white"/>
<path d="M244.081 179.248V181.788L184.402 216.283V213.743L244.081 179.248Z" fill="#FF7A00"/>
<path d="M244.293 243.373V245.912L184.402 280.407V277.868L244.293 243.373Z" fill="#FF7A00"/>
<path d="M244.081 197.448V199.988L184.402 234.483V231.944L244.081 197.448Z" fill="#FF7A00"/>
<path d="M244.081 221.998V224.538L184.402 259.033V256.493L244.081 221.998Z" fill="#FF7A00"/>
<path d="M244.08 185.809V188.349L224.822 199.353V197.025L244.08 185.809Z" fill="#FF7A00"/>
<path d="M244.08 216.071V218.611L224.822 229.616V227.288L244.08 216.071Z" fill="#FF7A00"/>
<path d="M204.083 226.865V229.404L184.613 240.409V237.869L204.083 226.865Z" fill="#FF7A00"/>
<path d="M236.037 196.603V198.93L216.779 210.147V207.607L236.037 196.603Z" fill="#FF7A00"/>
<path d="M232.442 244.853V247.181L212.973 258.397V255.858L232.442 244.853Z" fill="#FF7A00"/>
<path d="M232.442 288.237V290.776L212.973 301.781V299.453L232.442 288.237Z" fill="#FF7A00"/>
<path d="M236.037 214.591V216.919L216.779 228.135V225.595L236.037 214.591Z" fill="#FF7A00"/>
<path d="M203.871 209.088V211.416L184.613 222.633V220.093L203.871 209.088Z" fill="#FF7A00"/>
<path d="M203.871 233.001V235.541L184.613 246.546V244.006L203.871 233.001Z" fill="#FF7A00"/>
<path d="M221.86 198.718V201.046L215.723 204.644V202.316L221.86 198.718Z" fill="#FF7A00"/>
<path d="M212.543 221.998V224.538L206.406 228.135V225.596L212.543 221.998Z" fill="#FF7A00"/>
<path d="M204.083 298.395V300.723L184.613 311.939V309.4L204.083 298.395Z" fill="#FF7A00"/>
<path d="M203.871 304.533V307.072L184.613 318.077V315.537L203.871 304.533Z" fill="#FF7A00"/>
<path d="M212.543 293.527V296.067L206.406 299.665V297.125L212.543 293.527Z" fill="#FF7A00"/>
<path d="M212.543 233.849V236.177L206.406 239.775V237.447L212.543 233.849Z" fill="#FF7A00"/>
<path d="M244.502 191.523V194.063L238.365 197.661V195.121L244.502 191.523Z" fill="#FF7A00"/>
<path d="M244.081 250.144V252.471L184.402 286.967V284.639L244.081 250.144Z" fill="#FF7A00"/>
<path d="M244.081 268.344V270.672L184.402 305.167V302.84L244.081 268.344Z" fill="#FF7A00"/>
<path d="M244.08 256.705V259.033L224.822 270.249V267.709L244.08 256.705Z" fill="#FF7A00"/>
<path d="M236.037 267.286V269.825L216.779 280.83V278.502L236.037 267.286Z" fill="#FF7A00"/>
<path d="M244.502 262.418V264.958L238.365 268.344V266.016L244.502 262.418Z" fill="#FF7A00"/>
<path d="M244.502 274.904V277.444L238.365 281.041V278.502L244.502 274.904Z" fill="#FF7A00"/>
<path d="M244.502 209.512V212.051L238.365 215.649V213.109L244.502 209.512Z" fill="#FF7A00"/>
<path d="M125.778 154.7L173.182 182C173.817 182.423 174.875 182.423 175.51 182L222.915 154.7C224.608 153.853 224.608 151.525 222.915 150.467L175.51 123.167C174.875 122.744 173.817 122.744 173.182 123.167L125.778 150.467C124.085 151.525 124.085 153.853 125.778 154.7Z" fill="#F89B4E"/>
<path d="M136.787 152.583L140.385 154.699L143.982 152.583L140.385 150.467L136.787 152.583Z" fill="white"/>
<path d="M144.832 157.239L148.43 159.356L152.027 157.239L148.43 155.123L144.832 157.239Z" fill="white"/>
<path d="M152.658 161.895L156.467 164.011L160.065 161.895L156.467 159.779L152.658 161.895Z" fill="white"/>
<path d="M160.703 166.55L164.512 168.667L168.11 166.55L164.512 164.434L160.703 166.55Z" fill="white"/>
<path d="M168.742 170.995L172.34 173.111L176.149 170.995L172.34 169.09L168.742 170.995Z" fill="white"/>
<path d="M145.889 147.503L149.486 149.62L153.296 147.503L149.486 145.387L145.889 147.503Z" fill="white"/>
<path d="M153.93 152.16L157.527 154.277L161.125 152.16L157.527 150.044L153.93 152.16Z" fill="white"/>
<path d="M161.971 156.816L165.568 158.932L169.166 156.816L165.568 154.7L161.971 156.816Z" fill="white"/>
<path d="M169.801 161.472L173.61 163.376L177.208 161.472L173.61 159.355L169.801 161.472Z" fill="white"/>
<path d="M177.842 165.916L181.439 168.032L185.249 165.916L181.439 163.799L177.842 165.916Z" fill="white"/>
<path d="M154.564 142.637L158.162 144.753L161.971 142.637L158.162 140.521L154.564 142.637Z" fill="white"/>
<path d="M162.605 147.292L166.203 149.408L169.801 147.292L166.203 145.176L162.605 147.292Z" fill="white"/>
<path d="M170.646 151.949L174.244 154.065L177.842 151.949L174.244 149.833L170.646 151.949Z" fill="white"/>
<path d="M178.477 156.393L182.286 158.509L185.884 156.393L182.286 154.277L178.477 156.393Z" fill="white"/>
<path d="M186.518 161.048L190.115 163.164L193.925 161.048L190.115 158.932L186.518 161.048Z" fill="white"/>
<path d="M163.24 137.769L166.838 139.885L170.436 137.769L166.838 135.652L163.24 137.769Z" fill="white"/>
<path d="M171.283 142.425L174.881 144.542L178.479 142.425L174.881 140.309L171.283 142.425Z" fill="white"/>
<path d="M179.113 146.87L182.923 148.986L186.52 146.87L182.923 144.965L179.113 146.87Z" fill="white"/>
<path d="M187.158 151.524L190.756 153.641L194.565 151.524L190.756 149.408L187.158 151.524Z" fill="white"/>
<path d="M195.193 156.181L198.791 158.298L202.389 156.181L198.791 154.065L195.193 156.181Z" fill="white"/>
<path d="M171.918 132.902L175.516 135.018L179.113 132.902L175.516 130.786L171.918 132.902Z" fill="white"/>
<path d="M179.75 137.558L183.559 139.674L187.157 137.558L183.559 135.442L179.75 137.558Z" fill="white"/>
<path d="M187.789 142.002L191.387 144.118L195.196 142.002L191.387 139.885L187.789 142.002Z" fill="white"/>
<path d="M195.832 146.657L199.43 148.774L203.027 146.657L199.43 144.541L195.832 146.657Z" fill="white"/>
<path d="M203.871 151.314L207.469 153.43L211.066 151.314L207.469 149.197L203.871 151.314Z" fill="white"/>
</svg>
