<svg width="319" height="347" viewBox="0 0 319 347" fill="none" xmlns="http://www.w3.org/2000/svg">
<path d="M187.213 346.276C185.946 346.276 184.679 345.959 183.517 345.325L171.162 338.144C170.422 337.722 170 336.983 170 336.138C170 335.293 170.422 334.554 171.162 334.131L183.517 326.95C185.735 325.683 188.586 325.683 190.909 326.95L203.265 334.131C204.004 334.554 204.426 335.293 204.426 336.138C204.426 336.983 204.004 337.722 203.265 338.144L190.909 345.325C189.748 345.959 188.48 346.276 187.213 346.276ZM184.573 343.636C186.263 344.586 188.269 344.586 189.959 343.636L202.314 336.455C202.42 336.349 202.525 336.243 202.525 336.138C202.525 336.032 202.525 335.927 202.314 335.821L189.959 328.64C188.269 327.69 186.263 327.69 184.573 328.64L172.218 335.821C172.112 335.927 172.006 336.032 172.006 336.138C172.006 336.243 172.006 336.349 172.218 336.455L184.573 343.636Z" fill="#F2F2F2"/>
<path d="M187.213 346.276C185.946 346.276 184.679 345.959 183.517 345.325L171.162 338.144C170.422 337.722 170 336.983 170 336.138C170 335.293 170.422 334.554 171.162 334.131L183.517 326.95C185.735 325.683 188.586 325.683 190.909 326.95L203.265 334.131C204.004 334.554 204.426 335.293 204.426 336.138C204.426 336.983 204.004 337.722 203.265 338.144L190.909 345.325C189.748 345.959 188.48 346.276 187.213 346.276ZM184.573 343.636C186.263 344.586 188.269 344.586 189.959 343.636L202.314 336.455C202.42 336.349 202.525 336.243 202.525 336.138C202.525 336.032 202.525 335.927 202.314 335.821L189.959 328.64C188.269 327.69 186.263 327.69 184.573 328.64L172.218 335.821C172.112 335.927 172.006 336.032 172.006 336.138C172.006 336.243 172.006 336.349 172.218 336.455L184.573 343.636Z" fill="url(#paint0_linear)"/>
<path d="M54.9038 91.6377C52.7917 91.6377 50.7853 91.1096 48.8844 90.0536L27.5528 77.6982C26.4968 77.0646 25.9688 76.1141 25.9688 74.8469C25.9688 73.6853 26.6024 72.6293 27.5528 71.9957L48.8844 59.6402C52.5805 57.5281 57.1214 57.5281 60.8175 59.6402L82.1492 71.9957C83.2052 72.6293 83.7332 73.5797 83.7332 74.8469C83.7332 76.1141 83.0996 77.0646 82.1492 77.6982L60.8175 90.0536C59.1279 91.1096 57.0158 91.6377 54.9038 91.6377ZM54.9038 60.1682C53.2142 60.1682 51.4189 60.5906 49.9405 61.541L28.6088 73.8965C28.0808 74.2133 27.9752 74.7413 27.9752 74.9525C27.9752 75.1637 28.0808 75.6917 28.6088 76.0085L49.9405 88.364C53.0029 90.1592 56.8046 90.1592 59.8671 88.364L81.1987 76.0085C81.7268 75.6917 81.8324 75.1637 81.8324 74.9525C81.8324 74.7413 81.7268 74.2133 81.1987 73.8965L59.8671 61.541C58.3886 60.5906 56.699 60.1682 54.9038 60.1682Z" fill="url(#paint1_linear)"/>
<g opacity="0.3">
<path d="M23.0655 87.123L1.73382 74.7676C0.255392 73.9228 0.255392 71.7051 1.73382 70.8603L23.0655 58.5048C26.4448 56.4984 30.6688 56.4984 34.0481 58.5048L55.3798 70.8603C56.8582 71.7051 56.8582 73.9228 55.3798 74.7676L33.9425 87.123C30.5632 89.0239 26.4448 89.0239 23.0655 87.123Z" fill="#F2F2F2"/>
<path d="M23.0655 87.123L1.73382 74.7676C0.255392 73.9228 0.255392 71.7051 1.73382 70.8603L23.0655 58.5048C26.4448 56.4984 30.6688 56.4984 34.0481 58.5048L55.3798 70.8603C56.8582 71.7051 56.8582 73.9228 55.3798 74.7676L33.9425 87.123C30.5632 89.0239 26.4448 89.0239 23.0655 87.123Z" fill="url(#paint2_linear)"/>
</g>
<path d="M264.799 1.79523C266.172 0.950417 268.495 0.950417 269.868 1.79523L272.402 3.27367C273.775 4.11849 273.775 5.38572 272.402 6.23053C271.03 7.07535 268.706 7.07535 267.334 6.23053L264.799 4.75209C263.426 3.90727 263.426 2.64005 264.799 1.79523Z" fill="#E8975B"/>
<path d="M241.252 0.633613C242.625 -0.211204 244.948 -0.211204 246.321 0.633613L261.528 9.3986C262.901 10.2434 262.901 11.5106 261.528 12.3555C260.155 13.2003 257.832 13.2003 256.459 12.3555L241.252 3.59048C239.879 2.74566 239.879 1.47843 241.252 0.633613Z" fill="#E8975B"/>
<path d="M194.258 35.9046C195.631 35.0598 197.954 35.0598 199.327 35.9046L207.564 40.6567C208.937 41.5015 208.937 42.7688 207.564 43.6136C206.191 44.4584 203.868 44.4584 202.495 43.6136L194.258 38.8615C192.885 38.0167 192.885 36.7494 194.258 35.9046Z" fill="#E8975B"/>
<path opacity="0.4" d="M206.084 30.3079C207.457 29.4631 209.78 29.4631 211.153 30.3079L218.334 34.4264C219.707 35.2712 219.707 36.5385 218.334 37.3833C216.961 38.2281 214.638 38.2281 213.265 37.3833L206.084 33.2648C204.711 32.3144 204.711 31.0471 206.084 30.3079Z" fill="#E8975B"/>
<path opacity="0.4" d="M191.196 9.18732C192.568 8.34251 194.892 8.34251 196.265 9.18732L229.107 28.1957C230.48 29.0405 230.48 30.3078 229.107 31.1526C227.734 31.9974 225.411 31.9974 224.038 31.1526L191.196 12.1442C189.823 11.2994 189.823 9.92654 191.196 9.18732Z" fill="#E8975B"/>
<path d="M222.877 14.9954C224.25 14.1506 226.573 14.1506 227.946 14.9954L239.985 21.9652C241.358 22.81 241.358 24.0772 239.985 24.9221C238.612 25.7669 236.289 25.7669 234.916 24.9221L222.877 17.9523C221.504 17.1075 221.504 15.8402 222.877 14.9954Z" fill="#E8975B"/>
<path d="M238.505 11.5106C239.878 10.6657 242.201 10.6657 243.574 11.5106L250.755 15.629C252.128 16.4739 252.128 17.7411 250.755 18.5859C249.382 19.4307 247.059 19.4307 245.686 18.5859L238.505 14.4674C237.027 13.6226 237.027 12.3554 238.505 11.5106Z" fill="#E8975B"/>
<path d="M199.959 39.1785C201.332 38.3337 203.655 38.3337 205.028 39.1785L207.563 40.657C208.936 41.5018 208.936 42.769 207.563 43.6138C206.19 44.4586 203.867 44.4586 202.494 43.6138L199.959 42.1354C198.586 41.2906 198.586 40.0234 199.959 39.1785Z" fill="#E8975B"/>
<path opacity="0.4" d="M158.776 27.8787C160.149 27.0339 162.472 27.0339 163.845 27.8787L196.687 46.8871C198.06 47.732 198.06 48.9992 196.687 49.844C195.314 50.6888 192.991 50.6888 191.618 49.844L158.776 30.8356C157.403 29.9908 157.403 28.6179 158.776 27.8787Z" fill="#E8975B"/>
<path d="M156.03 38.7557C157.402 37.9109 159.726 37.9109 161.099 38.7557L185.915 53.1176C187.288 53.9624 187.288 55.2296 185.915 56.0745C184.542 56.9193 182.219 56.9193 180.846 56.0745L156.03 41.7125C154.657 40.8677 154.657 39.4949 156.03 38.7557Z" fill="#E8975B"/>
<path d="M220.303 150.537C219.88 149.375 219.247 148.108 218.719 146.946C218.296 151.065 216.607 155.183 214.6 159.302C214.917 161.942 214.917 164.687 214.495 167.328L209.743 169.017L196.753 181.795L179.435 190.666L159.476 197.635L136.138 201.754H116.179L92.6296 197.424L65.4899 190.666L43.8414 175.564L35.3932 168.067C35.0764 166.377 34.9708 164.793 34.9708 163.103C32.8588 158.774 31.4859 153.916 30.1131 149.058C29.7963 149.692 29.5851 150.326 29.3739 150.854L27.1562 146.946V163.843C27.5787 177.993 37.0829 191.933 55.7744 202.704C94.0025 224.775 155.885 224.775 194.113 202.704C213.333 191.616 222.837 177.043 222.732 162.575V146.946L220.303 150.537Z" fill="url(#paint3_radial)"/>
<path d="M61.2662 126.143C96.4318 105.867 153.351 105.867 188.517 126.143C204.463 135.33 213.228 147.158 214.601 159.302C216.607 155.183 218.191 151.065 218.719 146.946C217.769 145.045 216.607 143.145 215.234 141.244L218.086 141.033L204.146 116.638L163.278 96.9965L126.423 92.4556L94.9533 96.3628L74.9945 100.165L58.8374 107.662L42.0466 119.912L33.704 136.28L32.648 143.673C31.592 145.362 30.6416 147.158 29.9023 148.953C31.2752 153.916 32.648 158.668 34.7601 162.998C34.7601 149.798 43.525 136.386 61.2662 126.143Z" fill="#793502"/>
<path d="M194.008 107.135C155.78 85.0638 93.8971 85.0638 55.6691 107.135C17.441 129.206 17.441 165.005 55.6691 186.97C93.8971 208.935 155.78 209.041 194.008 186.97C232.236 165.005 232.236 129.206 194.008 107.135ZM188.517 183.802C153.351 204.078 96.4315 204.078 61.266 183.802C26.1004 163.526 26.1004 130.578 61.266 110.303C96.4315 90.0271 153.351 90.0271 188.517 110.303C223.682 130.578 223.682 163.526 188.517 183.802Z" fill="white"/>
<path d="M194.008 107.135C155.78 85.0638 93.8971 85.0638 55.6691 107.135C17.441 129.206 17.441 165.005 55.6691 186.97C93.8971 208.935 155.78 209.041 194.008 186.97C232.236 165.005 232.236 129.206 194.008 107.135ZM188.517 183.802C153.351 204.078 96.4315 204.078 61.266 183.802C26.1004 163.526 26.1004 130.578 61.266 110.303C96.4315 90.0271 153.351 90.0271 188.517 110.303C223.682 130.578 223.682 163.526 188.517 183.802Z" fill="url(#paint4_linear)"/>
<g opacity="0.3">
<path d="M61.2653 119.701C45.7417 128.677 37.0823 140.082 35.2871 151.804C37.0823 163.526 45.7417 174.931 61.2653 183.907C96.4308 204.183 153.35 204.183 188.516 183.907C204.039 174.931 212.699 163.526 214.494 151.804C212.699 140.082 204.039 128.677 188.516 119.701C153.35 99.4252 96.4308 99.4252 61.2653 119.701Z" fill="#F2F2F2"/>
<path d="M61.2653 119.701C45.7417 128.677 37.0823 140.082 35.2871 151.804C37.0823 163.526 45.7417 174.931 61.2653 183.907C96.4308 204.183 153.35 204.183 188.516 183.907C204.039 174.931 212.699 163.526 214.494 151.804C212.699 140.082 204.039 128.677 188.516 119.701C153.35 99.4252 96.4308 99.4252 61.2653 119.701Z" fill="url(#paint5_linear)"/>
</g>
<path d="M312.07 275.57C311.014 275.57 309.958 275.359 309.113 274.725L187.143 204.289C184.292 202.599 183.236 198.903 184.925 196.052C186.615 193.2 190.311 192.144 193.162 193.834L315.133 264.271C317.984 265.96 319.04 269.656 317.35 272.508C316.189 274.408 314.182 275.57 312.07 275.57Z" fill="white"/>
<path d="M312.07 275.57C311.014 275.57 309.958 275.359 309.113 274.725L187.143 204.289C184.292 202.599 183.236 198.903 184.925 196.052C186.615 193.2 190.311 192.144 193.162 193.834L315.133 264.271C317.984 265.96 319.04 269.656 317.35 272.508C316.189 274.408 314.182 275.57 312.07 275.57Z" fill="url(#paint6_linear)"/>
<path opacity="0.6" d="M193.162 193.834C190.311 192.144 186.615 193.2 184.925 196.052C183.236 198.903 184.292 202.599 187.143 204.289L195.908 209.357C195.908 209.357 192.74 201.226 202.138 199.008L193.162 193.834Z" fill="#301002"/>
<path d="M84.7699 251.634C86.1427 250.789 88.3603 250.789 89.8388 251.634L122.575 270.536C123.948 271.381 123.948 272.648 122.575 273.388C121.203 274.232 118.985 274.232 117.507 273.388L84.7699 254.485C83.397 253.746 83.397 252.373 84.7699 251.634Z" fill="#E8975B"/>
<path d="M37.9867 286.694C39.3595 285.849 41.5771 285.849 43.0556 286.694L68.8225 301.584C70.1953 302.428 70.1953 303.696 68.8225 304.435C67.4497 305.28 65.232 305.28 63.7536 304.435L37.9867 289.545C36.6138 288.806 36.6138 287.538 37.9867 286.694Z" fill="#E8975B"/>
<path opacity="0.5" d="M67.3441 291.235C68.7169 290.39 70.9345 290.39 72.413 291.235L79.5939 295.353C80.9668 296.198 80.9668 297.465 79.5939 298.204C78.2211 299.049 76.0034 299.049 74.525 298.204L67.3441 294.086C65.9712 293.347 65.9712 292.08 67.3441 291.235Z" fill="#E8975B"/>
<path d="M70.0902 280.463C71.463 279.618 73.6806 279.618 75.1591 280.463L90.3658 289.228C91.7386 290.073 91.7386 291.34 90.3658 292.079C88.993 292.924 86.7753 292.924 85.2969 292.079L70.0902 283.314C68.7173 282.575 68.7173 281.202 70.0902 280.463Z" fill="#E8975B"/>
<path d="M84.1342 276.134C85.507 275.289 87.7247 275.289 89.2031 276.134L101.136 282.998C102.509 283.843 102.509 285.11 101.136 285.849C99.7634 286.694 97.5457 286.694 96.0673 285.849L84.1342 278.985C82.6558 278.14 82.6558 276.873 84.1342 276.134Z" fill="#E8975B"/>
<path opacity="0.5" d="M82.0218 262.511C83.3946 261.666 85.6123 261.666 87.0907 262.511L111.802 276.872C113.174 277.717 113.174 278.985 111.802 279.724C110.429 280.569 108.211 280.569 106.733 279.724L82.0218 265.362C80.649 264.517 80.649 263.25 82.0218 262.511Z" fill="#E82B88"/>
<path d="M43.6894 289.966C45.0622 289.122 64.9155 299.365 66.2883 300.104L68.7171 301.583C70.09 302.428 70.09 303.695 68.7171 304.434C67.3443 305.279 65.1267 305.279 63.6482 304.434L61.2194 302.956C59.9521 302.322 42.3166 290.811 43.6894 289.966Z" fill="#E8975B"/>
<path d="M37.7757 299.048C39.1485 298.203 41.3662 298.203 42.8446 299.048L58.0513 307.813C59.4242 308.658 59.4242 309.925 58.0513 310.664C56.6785 311.509 54.4609 311.509 52.9824 310.664L37.7757 301.899C36.4029 301.16 36.4029 299.893 37.7757 299.048Z" fill="#E8975B"/>
<path d="M35.0296 309.925C36.4025 309.08 38.6201 309.08 40.0985 309.925L47.2795 314.044C48.6523 314.888 48.6523 316.156 47.2795 316.895C45.9067 317.74 43.689 317.74 42.2106 316.895L35.0296 312.776C33.6568 312.037 33.6568 310.77 35.0296 309.925Z" fill="#E8975B"/>
<defs>
<linearGradient id="paint0_linear" x1="192.194" y1="326.187" x2="168.271" y2="363.759" gradientUnits="userSpaceOnUse">
<stop stop-color="#F36E0F"/>
<stop offset="0.927083" stop-color="#FBFBFB" stop-opacity="0.36"/>
</linearGradient>
<linearGradient id="paint1_linear" x1="26.0318" y1="74.8977" x2="83.8784" y2="74.8977" gradientUnits="userSpaceOnUse">
<stop stop-color="#E39A65"/>
<stop offset="1" stop-color="#E95F8D"/>
</linearGradient>
<linearGradient id="paint2_linear" x1="36.6398" y1="57.2905" x2="0.0973448" y2="117.143" gradientUnits="userSpaceOnUse">
<stop stop-color="#F36E0F"/>
<stop offset="0.927083" stop-color="#FBFBFB" stop-opacity="0.36"/>
</linearGradient>
<radialGradient id="paint3_radial" cx="0" cy="0" r="1" gradientUnits="userSpaceOnUse" gradientTransform="translate(25.2536 158.681) rotate(-3.6335) scale(620.078)">
<stop offset="0.00396825" stop-color="#F16110"/>
<stop offset="0.00816801" stop-color="#EF7402"/>
<stop offset="0.1263" stop-color="#C45403"/>
<stop offset="0.8062" stop-color="#090731"/>
<stop offset="1" stop-color="#06044A"/>
</radialGradient>
<linearGradient id="paint4_linear" x1="70.3706" y1="102.803" x2="387.496" y2="611.151" gradientUnits="userSpaceOnUse">
<stop stop-color="#F4F6F8"/>
<stop offset="0.133104" stop-color="#DC6D1D"/>
<stop offset="0.989162" stop-color="#FFA463"/>
</linearGradient>
<linearGradient id="paint5_linear" x1="150.82" y1="105.365" x2="44.7285" y2="291.228" gradientUnits="userSpaceOnUse">
<stop stop-color="#F36E0F"/>
<stop offset="0.927083" stop-color="#FBFBFB" stop-opacity="0.36"/>
</linearGradient>
<linearGradient id="paint6_linear" x1="213.826" y1="201.959" x2="266.28" y2="303.087" gradientUnits="userSpaceOnUse">
<stop stop-color="#E66D02"/>
<stop offset="0.989162" stop-color="#ED6D11"/>
</linearGradient>
</defs>
</svg>
