<svg width="155" height="170" viewBox="0 0 155 170" fill="none" xmlns="http://www.w3.org/2000/svg">
<rect x="0.00585938" y="0.634277" width="154.116" height="168.5" rx="15" fill="white"/>
<rect x="19.5273" y="32.4849" width="103.771" height="103.771" rx="51.8857" fill="#F36E0F"/>
<g opacity="0.4">
<path d="M71.4131 84.3707H123.299C123.299 70.083 117.389 57.1479 107.999 47.7847L71.4131 84.3707Z" fill="white"/>
</g>
<g opacity="0.4">
<path d="M71.412 84.5499L108.101 121.239C118.204 111.136 123.171 97.8101 123.152 84.5499L71.412 84.5499Z" fill="#FF8C2D"/>
</g>
<path d="M71.414 84.3706V32.4849C85.7017 32.4849 98.6368 38.3951 108 47.7846L71.414 84.3706Z" fill="#FBE6E6"/>
<path d="M134.433 19.2309C133.861 19.2309 133.312 19.0036 132.908 18.599C132.503 18.1944 132.276 17.6456 132.276 17.0733C132.276 16.5011 132.503 15.9523 132.908 15.5477C133.312 15.143 133.861 14.9157 134.433 14.9157C135.006 14.9157 135.554 15.143 135.959 15.5477C136.364 15.9523 136.591 16.5011 136.591 17.0733C136.591 17.6456 136.364 18.1944 135.959 18.599C135.554 19.0036 135.006 19.2309 134.433 19.2309ZM139.014 17.6713C139.038 17.474 139.057 17.2768 139.057 17.0733C139.057 16.8699 139.038 16.6665 139.014 16.4569L140.314 15.452C140.432 15.3596 140.462 15.1931 140.388 15.0575L139.155 12.9245C139.081 12.7889 138.915 12.7334 138.779 12.7889L137.244 13.4054C136.924 13.1649 136.591 12.9554 136.203 12.8012L135.974 11.1676C135.95 11.0197 135.82 10.9087 135.666 10.9087H133.2C133.046 10.9087 132.917 11.0197 132.892 11.1676L132.664 12.8012C132.276 12.9554 131.943 13.1649 131.622 13.4054L130.087 12.7889C129.952 12.7334 129.785 12.7889 129.711 12.9245L128.478 15.0575C128.398 15.1931 128.435 15.3596 128.552 15.452L129.853 16.4569C129.828 16.6665 129.81 16.8699 129.81 17.0733C129.81 17.2768 129.828 17.474 129.853 17.6713L128.552 18.6946C128.435 18.7871 128.398 18.9535 128.478 19.0892L129.711 21.2221C129.785 21.3577 129.952 21.4071 130.087 21.3577L131.622 20.7351C131.943 20.9817 132.276 21.1913 132.664 21.3454L132.892 22.979C132.917 23.127 133.046 23.238 133.2 23.238H135.666C135.82 23.238 135.95 23.127 135.974 22.979L136.203 21.3454C136.591 21.1851 136.924 20.9817 137.244 20.7351L138.779 21.3577C138.915 21.4071 139.081 21.3577 139.155 21.2221L140.388 19.0892C140.462 18.9535 140.432 18.7871 140.314 18.6946L139.014 17.6713Z" fill="#979696"/>
</svg>
