<svg width="219" height="147" viewBox="0 0 219 147" fill="none" xmlns="http://www.w3.org/2000/svg">
<rect x="0.0273438" y="0.896484" width="218" height="145" rx="8" fill="white"/>
<g opacity="0.48">
<path d="M195.915 20.0462C195.41 20.0462 194.925 19.8454 194.568 19.4879C194.21 19.1305 194.009 18.6457 194.009 18.1403C194.009 17.6348 194.21 17.15 194.568 16.7926C194.925 16.4352 195.41 16.2344 195.915 16.2344C196.421 16.2344 196.905 16.4352 197.263 16.7926C197.62 17.15 197.821 17.6348 197.821 18.1403C197.821 18.6457 197.62 19.1305 197.263 19.4879C196.905 19.8454 196.421 20.0462 195.915 20.0462ZM199.961 18.6685C199.983 18.4942 199.999 18.32 199.999 18.1403C199.999 17.9606 199.983 17.7809 199.961 17.5957L201.11 16.7081C201.214 16.6264 201.241 16.4794 201.176 16.3596L200.086 14.4755C200.021 14.3557 199.874 14.3067 199.754 14.3557L198.398 14.9002C198.115 14.6879 197.821 14.5027 197.478 14.3666L197.277 12.9235C197.255 12.7928 197.14 12.6948 197.004 12.6948H194.826C194.69 12.6948 194.576 12.7928 194.554 12.9235L194.352 14.3666C194.009 14.5027 193.715 14.6879 193.432 14.9002L192.076 14.3557C191.956 14.3067 191.809 14.3557 191.744 14.4755L190.655 16.3596C190.584 16.4794 190.617 16.6264 190.72 16.7081L191.869 17.5957C191.847 17.7809 191.831 17.9606 191.831 18.1403C191.831 18.32 191.847 18.4942 191.869 18.6685L190.72 19.5724C190.617 19.6541 190.584 19.8011 190.655 19.9209L191.744 21.805C191.809 21.9248 191.956 21.9684 192.076 21.9248L193.432 21.3748C193.715 21.5927 194.009 21.7778 194.352 21.9139L194.554 23.357C194.576 23.4877 194.69 23.5857 194.826 23.5857H197.004C197.14 23.5857 197.255 23.4877 197.277 23.357L197.478 21.9139C197.821 21.7724 198.115 21.5927 198.398 21.3748L199.754 21.9248C199.874 21.9684 200.021 21.9248 200.086 21.805L201.176 19.9209C201.241 19.8011 201.214 19.6541 201.11 19.5724L199.961 18.6685Z" fill="#F36E0F"/>
</g>
<g opacity="0.24">
<rect width="5" height="5" transform="matrix(-1 0 0 1 203.324 126.511)" fill="#F36E0F"/>
</g>
<g opacity="0.64">
<rect width="5" height="2" transform="matrix(-1 0 0 1 203.324 122.511)" fill="#F36E0F"/>
</g>
<g opacity="0.24">
<rect width="5" height="3" transform="matrix(-1 0 0 1 198.066 128.326)" fill="#F36E0F"/>
</g>
<g opacity="0.64">
<rect width="5" height="2" transform="matrix(-1 0 0 1 198.066 124.326)" fill="#F36E0F"/>
</g>
<g opacity="0.24">
<rect width="5" height="7" transform="matrix(-1 0 0 1 192.805 124.696)" fill="#F36E0F"/>
</g>
<g opacity="0.64">
<rect width="5" height="2" transform="matrix(-1 0 0 1 192.805 120.696)" fill="#F36E0F"/>
</g>
<g opacity="0.24">
<rect width="5" height="12" transform="matrix(-1 0 0 1 187.545 119.25)" fill="#F36E0F"/>
</g>
<g opacity="0.64">
<rect width="5" height="2" transform="matrix(-1 0 0 1 187.545 115.25)" fill="#F36E0F"/>
</g>
<g opacity="0.24">
<rect width="5" height="13" transform="matrix(-1 0 0 1 182.284 118.343)" fill="#F36E0F"/>
</g>
<g opacity="0.64">
<rect width="5" height="2" transform="matrix(-1 0 0 1 182.284 114.343)" fill="#F36E0F"/>
</g>
<g opacity="0.24">
<rect width="5" height="5" transform="matrix(-1 0 0 1 177.024 126.511)" fill="#F36E0F"/>
</g>
<g opacity="0.64">
<rect width="5" height="2" transform="matrix(-1 0 0 1 177.024 122.511)" fill="#F36E0F"/>
</g>
<g opacity="0.24">
<rect width="5" height="18" transform="matrix(-1 0 0 1 171.766 113.805)" fill="#F36E0F"/>
</g>
<g opacity="0.64">
<rect width="5" height="2" transform="matrix(-1 0 0 1 171.766 109.805)" fill="#F36E0F"/>
</g>
<g opacity="0.24">
<rect width="5" height="30" transform="matrix(-1 0 0 1 166.504 101.099)" fill="#F36E0F"/>
</g>
<g opacity="0.64">
<rect width="5" height="2" transform="matrix(-1 0 0 1 166.504 97.0991)" fill="#F36E0F"/>
</g>
<g opacity="0.24">
<rect width="5" height="23" transform="matrix(-1 0 0 1 161.245 108.36)" fill="#F36E0F"/>
</g>
<g opacity="0.64">
<rect width="5" height="2" transform="matrix(-1 0 0 1 161.245 104.36)" fill="#F36E0F"/>
</g>
<g opacity="0.24">
<rect width="5" height="36" transform="matrix(-1 0 0 1 155.986 95.6538)" fill="#F36E0F"/>
</g>
<g opacity="0.64">
<rect width="5" height="2" transform="matrix(-1 0 0 1 155.986 91.6538)" fill="#F36E0F"/>
</g>
<g opacity="0.24">
<rect width="5" height="16" transform="matrix(-1 0 0 1 150.725 115.62)" fill="#F36E0F"/>
</g>
<g opacity="0.64">
<rect width="5" height="2" transform="matrix(-1 0 0 1 150.725 111.62)" fill="#F36E0F"/>
</g>
<g opacity="0.24">
<rect width="5" height="18" transform="matrix(-1 0 0 1 145.466 113.805)" fill="#F36E0F"/>
</g>
<g opacity="0.64">
<rect width="5" height="2" transform="matrix(-1 0 0 1 145.466 109.805)" fill="#F36E0F"/>
</g>
<g opacity="0.24">
<rect width="5" height="21" transform="matrix(-1 0 0 1 140.204 110.175)" fill="#F36E0F"/>
</g>
<g opacity="0.64">
<rect width="5" height="2" transform="matrix(-1 0 0 1 140.204 106.175)" fill="#F36E0F"/>
</g>
<g opacity="0.24">
<rect width="5" height="30" transform="matrix(-1 0 0 1 134.944 101.099)" fill="#F36E0F"/>
</g>
<g opacity="0.64">
<rect width="5" height="2" transform="matrix(-1 0 0 1 134.944 97.0991)" fill="#F36E0F"/>
</g>
<g opacity="0.24">
<rect width="5" height="20" transform="matrix(-1 0 0 1 129.687 111.99)" fill="#F36E0F"/>
</g>
<g opacity="0.64">
<rect width="5" height="2" transform="matrix(-1 0 0 1 129.687 107.99)" fill="#F36E0F"/>
</g>
<g opacity="0.24">
<rect width="5" height="32" transform="matrix(-1 0 0 1 124.425 99.2842)" fill="#F36E0F"/>
</g>
<g opacity="0.64">
<rect width="5" height="2" transform="matrix(-1 0 0 1 124.425 95.2842)" fill="#F36E0F"/>
</g>
<g opacity="0.24">
<rect width="5" height="27" transform="matrix(-1 0 0 1 119.166 104.729)" fill="#F36E0F"/>
</g>
<g opacity="0.64">
<rect width="5" height="2" transform="matrix(-1 0 0 1 119.166 100.729)" fill="#F36E0F"/>
</g>
<g opacity="0.24">
<rect width="5" height="34" transform="matrix(-1 0 0 1 113.906 97.4688)" fill="#F36E0F"/>
</g>
<g opacity="0.64">
<rect width="5" height="2" transform="matrix(-1 0 0 1 113.906 93.4688)" fill="#F36E0F"/>
</g>
<g opacity="0.24">
<rect width="5" height="38" transform="matrix(-1 0 0 1 108.645 93.8389)" fill="#F36E0F"/>
</g>
<g opacity="0.64">
<rect width="5" height="2" transform="matrix(-1 0 0 1 108.645 89.8389)" fill="#F36E0F"/>
</g>
<g opacity="0.24">
<rect width="5" height="46" transform="matrix(-1 0 0 1 103.386 85.6704)" fill="#F36E0F"/>
</g>
<g opacity="0.64">
<rect width="5" height="2" transform="matrix(-1 0 0 1 103.386 81.6704)" fill="#F36E0F"/>
</g>
<g opacity="0.24">
<rect width="5" height="43" transform="matrix(-1 0 0 1 98.124 88.3931)" fill="#F36E0F"/>
</g>
<g opacity="0.64">
<rect width="5" height="2" transform="matrix(-1 0 0 1 98.124 84.3931)" fill="#F36E0F"/>
</g>
<g opacity="0.24">
<rect width="5" height="41" transform="matrix(-1 0 0 1 92.8662 90.208)" fill="#F36E0F"/>
</g>
<g opacity="0.64">
<rect width="5" height="2" transform="matrix(-1 0 0 1 92.8662 86.208)" fill="#F36E0F"/>
</g>
<g opacity="0.24">
<rect width="5" height="45" transform="matrix(-1 0 0 1 87.6064 86.5781)" fill="#F36E0F"/>
</g>
<g opacity="0.64">
<rect width="5" height="2" transform="matrix(-1 0 0 1 87.6064 82.5781)" fill="#F36E0F"/>
</g>
<g opacity="0.24">
<rect width="5" height="36" transform="matrix(-1 0 0 1 82.3447 95.6538)" fill="#F36E0F"/>
</g>
<g opacity="0.64">
<rect width="5" height="2" transform="matrix(-1 0 0 1 82.3447 91.6538)" fill="#F36E0F"/>
</g>
<g opacity="0.24">
<rect width="5" height="56" transform="matrix(-1 0 0 1 77.0859 75.687)" fill="#F36E0F"/>
</g>
<g opacity="0.64">
<rect width="5" height="2" transform="matrix(-1 0 0 1 77.0859 71.687)" fill="#F36E0F"/>
</g>
<g opacity="0.24">
<rect width="5" height="41" transform="matrix(-1 0 0 1 71.8242 90.208)" fill="#F36E0F"/>
</g>
<g opacity="0.64">
<rect width="5" height="2" transform="matrix(-1 0 0 1 71.8242 86.208)" fill="#F36E0F"/>
</g>
<g opacity="0.24">
<rect width="5" height="50" transform="matrix(-1 0 0 1 66.5645 82.0405)" fill="#F36E0F"/>
</g>
<g opacity="0.64">
<rect width="5" height="2" transform="matrix(-1 0 0 1 66.5645 78.0405)" fill="#F36E0F"/>
</g>
<g opacity="0.24">
<rect width="5" height="58" transform="matrix(-1 0 0 1 61.3066 73.8721)" fill="#F36E0F"/>
</g>
<g opacity="0.64">
<rect width="5" height="2" transform="matrix(-1 0 0 1 61.3066 69.8721)" fill="#F36E0F"/>
</g>
<g opacity="0.24">
<rect width="5" height="52" transform="matrix(-1 0 0 1 56.0449 79.3179)" fill="#F36E0F"/>
</g>
<g opacity="0.64">
<rect width="5" height="2" transform="matrix(-1 0 0 1 56.0449 75.3179)" fill="#F36E0F"/>
</g>
<g opacity="0.24">
<rect width="5" height="48" transform="matrix(-1 0 0 1 50.7861 83.8555)" fill="#F36E0F"/>
</g>
<g opacity="0.64">
<rect width="5" height="2" transform="matrix(-1 0 0 1 50.7861 79.8555)" fill="#F36E0F"/>
</g>
<g opacity="0.24">
<rect width="5" height="64" transform="matrix(-1 0 0 1 45.5264 67.519)" fill="#F36E0F"/>
</g>
<g opacity="0.64">
<rect width="5" height="2" transform="matrix(-1 0 0 1 45.5264 63.519)" fill="#F36E0F"/>
</g>
<g opacity="0.24">
<rect width="5" height="60" transform="matrix(-1 0 0 1 40.2646 72.0571)" fill="#F36E0F"/>
</g>
<g opacity="0.64">
<rect width="5" height="2" transform="matrix(-1 0 0 1 40.2646 68.0571)" fill="#F36E0F"/>
</g>
<g opacity="0.24">
<rect width="5" height="52" transform="matrix(-1 0 0 1 35.0059 79.3179)" fill="#F36E0F"/>
</g>
<g opacity="0.64">
<rect width="5" height="2" transform="matrix(-1 0 0 1 35.0059 75.3179)" fill="#F36E0F"/>
</g>
<g opacity="0.24">
<rect width="5" height="56" transform="matrix(-1 0 0 1 29.7441 75.687)" fill="#F36E0F"/>
</g>
<g opacity="0.64">
<rect width="5" height="2" transform="matrix(-1 0 0 1 29.7441 71.687)" fill="#F36E0F"/>
</g>
<g opacity="0.24">
<rect width="5" height="64" transform="matrix(-1 0 0 1 24.4863 67.519)" fill="#F36E0F"/>
</g>
<g opacity="0.64">
<rect width="5" height="2" transform="matrix(-1 0 0 1 24.4863 63.519)" fill="#F36E0F"/>
</g>
<g opacity="0.24">
<rect width="5" height="73" transform="matrix(-1 0 0 1 19.2266 58.4434)" fill="#F36E0F"/>
</g>
<g opacity="0.64">
<rect width="5" height="2" transform="matrix(-1 0 0 1 19.2266 54.4434)" fill="#F36E0F"/>
</g>
</svg>
