<svg width="24" height="18" fill="none" xmlns="http://www.w3.org/2000/svg"><path fill-rule="evenodd" clip-rule="evenodd" d="M4.222 7.613a.74.74 0 00-1.047 0L.217 10.572a.74.74 0 101.047 1.047L3.7 9.183l2.434 2.436a.74.74 0 101.048-1.047l-2.96-2.959zm19.23-1.479a.739.739 0 00-1.048 0L19.969 8.57l-2.434-2.436a.74.74 0 00-1.048 1.047l2.959 2.959a.741.741 0 001.047 0l2.957-2.96a.741.741 0 000-1.047z" fill="#F36E0F"/><path fill-rule="evenodd" clip-rule="evenodd" d="M11.834 1.48a7.388 7.388 0 00-6.2 3.362.74.74 0 01-1.239-.808A8.875 8.875 0 0120.71 8.876a.74.74 0 11-1.481 0 7.395 7.395 0 00-7.396-7.396h.002zM3.699 8.136a.74.74 0 01.74.74 7.395 7.395 0 0013.595 4.033.739.739 0 111.238.808A8.875 8.875 0 012.96 8.876a.74.74 0 01.741-.74H3.7z" fill="#F36E0F"/></svg>