<svg width="32" height="19" viewBox="0 0 32 19" fill="none" xmlns="http://www.w3.org/2000/svg">
<path fill-rule="evenodd" clip-rule="evenodd" d="M21.5904 0.406546C21.7104 0.286267 21.8529 0.190838 22.0098 0.125726C22.1667 0.0606143 22.3349 0.0270996 22.5048 0.0270996C22.6747 0.0270996 22.8429 0.0606143 22.9998 0.125726C23.1567 0.190838 23.2993 0.286267 23.4192 0.406546L31.1687 8.15597C31.2889 8.27595 31.3844 8.41847 31.4495 8.57539C31.5146 8.7323 31.5481 8.90052 31.5481 9.0704C31.5481 9.24029 31.5146 9.4085 31.4495 9.56542C31.3844 9.72233 31.2889 9.86486 31.1687 9.98483L23.4192 17.7343C23.1767 17.9768 22.8478 18.113 22.5048 18.113C22.1618 18.113 21.8329 17.9768 21.5904 17.7343C21.3479 17.4917 21.2116 17.1628 21.2116 16.8198C21.2116 16.4768 21.3479 16.1479 21.5904 15.9054L28.428 9.0704L21.5904 2.23541C21.4701 2.11543 21.3747 1.97291 21.3096 1.816C21.2445 1.65908 21.2109 1.49086 21.2109 1.32098C21.2109 1.15109 21.2445 0.982875 21.3096 0.825962C21.3747 0.669048 21.4701 0.526522 21.5904 0.406546Z" fill="white"/>
<path fill-rule="evenodd" clip-rule="evenodd" d="M0.547852 9.07038C0.547852 8.72783 0.683928 8.39932 0.926144 8.1571C1.16836 7.91488 1.49688 7.77881 1.83942 7.77881H28.9624C29.3049 7.77881 29.6335 7.91488 29.8757 8.1571C30.1179 8.39932 30.254 8.72783 30.254 9.07038C30.254 9.41293 30.1179 9.74144 29.8757 9.98366C29.6335 10.2259 29.3049 10.3619 28.9624 10.3619H1.83942C1.49688 10.3619 1.16836 10.2259 0.926144 9.98366C0.683928 9.74144 0.547852 9.41293 0.547852 9.07038Z" fill="white"/>
</svg>
