<svg width="22" height="22" viewBox="0 0 22 22" fill="none" xmlns="http://www.w3.org/2000/svg">
<path d="M21.2488 8.78071L19.7102 8.51543C19.5245 7.79918 19.2327 7.10946 18.8613 6.47279L19.7632 5.19945C20.002 4.88112 19.9755 4.43015 19.6836 4.16487L17.7206 2.20181C17.4553 1.91 17.0043 1.88348 16.686 2.12223L15.4127 3.02417C14.776 2.67931 14.0863 2.3875 13.3966 2.20181L13.1313 0.663196C13.0782 0.265278 12.7334 0 12.3354 0H9.57655C9.17863 0 8.83377 0.265278 8.78071 0.663196L8.51543 2.20181C7.79918 2.3875 7.10946 2.67931 6.47279 3.0507L5.19945 2.14875C4.88112 1.91 4.43015 1.93653 4.16487 2.22834L2.20181 4.1914C1.91 4.45668 1.88348 4.90765 2.12223 5.22598L3.02417 6.49932C2.67931 7.13599 2.3875 7.82571 2.20181 8.51543L0.663196 8.78071C0.265278 8.83377 0 9.17863 0 9.57655V12.3354C0 12.7334 0.265278 13.0782 0.663196 13.1313L2.20181 13.3966C2.3875 14.1128 2.67931 14.8025 3.0507 15.4392L2.14875 16.7125C1.91 17.0309 1.93653 17.4818 2.22834 17.7471L4.1914 19.7102C4.45668 20.002 4.90765 20.0285 5.22598 19.7898L6.49932 18.8878C7.13599 19.2327 7.82571 19.5245 8.51543 19.7102L8.78071 21.2488C8.83377 21.6467 9.17863 21.912 9.57655 21.912H12.3354C12.7334 21.912 13.0782 21.6467 13.1313 21.2488L13.3966 19.7102C14.1128 19.5245 14.8025 19.2327 15.4392 18.8613L16.7125 19.7632C17.0309 20.002 17.4818 19.9755 17.7471 19.6836L19.7102 17.7206C20.002 17.4553 20.0285 17.0043 19.7898 16.686L18.8878 15.4127C19.2327 14.776 19.5245 14.0863 19.7102 13.3966L21.2488 13.1313C21.6467 13.0782 21.912 12.7334 21.912 12.3354V9.57655C21.912 9.17863 21.6467 8.83377 21.2488 8.78071ZM10.956 15.3331C8.54196 15.3331 6.5789 13.37 6.5789 10.956C6.5789 8.54196 8.54196 6.5789 10.956 6.5789C13.37 6.5789 15.3331 8.54196 15.3331 10.956C15.3331 13.37 13.37 15.3331 10.956 15.3331Z" fill="#F36E0F"/>
</svg>
