<svg width="19" height="24" fill="none" xmlns="http://www.w3.org/2000/svg"><path d="M17.346 0H4.864c-.911 0-1.653.742-1.653 1.654v1.985H1.654A1.657 1.657 0 000 5.293v16.468c0 .911.742 1.653 1.654 1.653h12.482c.911 0 1.653-.742 1.653-1.654v-1.985h1.557c.912 0 1.654-.742 1.654-1.654V1.654C19 .742 18.258 0 17.346 0zm-2.974 21.76a.24.24 0 01-.236.237H1.654a.24.24 0 01-.236-.236V5.293a.24.24 0 01.236-.236h12.482a.24.24 0 01.236.236v16.468zm3.21-3.639a.24.24 0 01-.236.237H15.79V5.293c0-.912-.742-1.654-1.653-1.654H4.628V1.654a.24.24 0 01.236-.236h12.482a.24.24 0 01.236.236V18.12z" fill="#F36E0F"/><path d="M11.927 7.289H3.862a.709.709 0 100 1.417h8.065a.709.709 0 100-1.417zm0 3.192H3.862a.709.709 0 100 1.418h8.065a.709.709 0 100-1.418zm0 3.192H3.862a.709.709 0 100 1.418h8.065a.709.709 0 100-1.418zm0 3.193H3.862a.709.709 0 100 1.417h8.065a.709.709 0 100-1.418z" fill="#F36E0F"/></svg>