<svg width="138" height="191" viewBox="0 0 138 191" fill="none" xmlns="http://www.w3.org/2000/svg">
<rect width="138" height="190.917" rx="5" fill="white"/>
<path d="M126.031 15.4726C125.555 15.4726 125.098 15.2886 124.762 14.961C124.425 14.6333 124.236 14.189 124.236 13.7257C124.236 13.2624 124.425 12.818 124.762 12.4904C125.098 12.1628 125.555 11.9787 126.031 11.9787C126.508 11.9787 126.965 12.1628 127.301 12.4904C127.638 12.818 127.827 13.2624 127.827 13.7257C127.827 14.189 127.638 14.6333 127.301 14.961C126.965 15.2886 126.508 15.4726 126.031 15.4726ZM129.844 14.2098C129.865 14.0501 129.88 13.8904 129.88 13.7257C129.88 13.561 129.865 13.3963 129.844 13.2265L130.927 12.413C131.024 12.3381 131.05 12.2033 130.988 12.0935L129.962 10.3665C129.901 10.2567 129.762 10.2118 129.649 10.2567L128.371 10.7559C128.105 10.5612 127.827 10.3915 127.504 10.2667L127.314 8.94401C127.294 8.82422 127.186 8.73438 127.058 8.73438H125.005C124.877 8.73438 124.769 8.82422 124.749 8.94401L124.559 10.2667C124.236 10.3915 123.958 10.5612 123.692 10.7559L122.414 10.2567C122.301 10.2118 122.162 10.2567 122.101 10.3665L121.075 12.0935C121.008 12.2033 121.039 12.3381 121.136 12.413L122.219 13.2265C122.198 13.3963 122.183 13.561 122.183 13.7257C122.183 13.8904 122.198 14.0501 122.219 14.2098L121.136 15.0384C121.039 15.1133 121.008 15.248 121.075 15.3578L122.101 17.0848C122.162 17.1946 122.301 17.2346 122.414 17.1946L123.692 16.6905C123.958 16.8902 124.236 17.0599 124.559 17.1846L124.749 18.5073C124.769 18.6271 124.877 18.717 125.005 18.717H127.058C127.186 18.717 127.294 18.6271 127.314 18.5073L127.504 17.1846C127.827 17.0549 128.105 16.8902 128.371 16.6905L129.649 17.1946C129.762 17.2346 129.901 17.1946 129.962 17.0848L130.988 15.3578C131.05 15.248 131.024 15.1133 130.927 15.0384L129.844 14.2098Z" fill="#FBA66A"/>
<circle cx="20.2336" cy="168.609" r="4.66917" fill="#FBA66A"/>
<circle cx="44.6164" cy="168.609" r="4.66917" fill="#F36E0F"/>
<rect x="11.9316" y="38.3906" width="16.6015" height="107.91" fill="#FBA66A"/>
<path d="M11.9316 52.8047C11.9316 51.1478 13.2748 49.8047 14.9316 49.8047H25.5331C27.19 49.8047 28.5331 51.1478 28.5331 52.8047V146.301H11.9316V52.8047Z" fill="#F36E0F"/>
<rect x="36.3164" y="51.8799" width="16.6015" height="94.421" fill="#FBA66A"/>
<path d="M36.3164 64.2178C36.3164 62.5609 37.6596 61.2178 39.3164 61.2178H49.9179C51.5748 61.2178 52.9179 62.5609 52.9179 64.2178V146.3H36.3164V64.2178Z" fill="#F36E0F"/>
<rect x="60.7012" y="65.8877" width="16.6015" height="80.4135" fill="#FBA66A"/>
<path d="M60.7012 80.8203C60.7012 79.1635 62.0443 77.8203 63.7012 77.8203H74.3027C75.9595 77.8203 77.3027 79.1635 77.3027 80.8203V146.302H60.7012V80.8203Z" fill="#F36E0F"/>
<rect x="85.084" y="77.8193" width="16.6015" height="68.4812" fill="#FBA66A"/>
<path d="M85.084 91.7139C85.084 90.057 86.4271 88.7139 88.084 88.7139H98.6855C100.342 88.7139 101.685 90.057 101.685 91.7139V146.3H85.084V91.7139Z" fill="#F36E0F"/>
<rect x="109.465" y="91.3086" width="16.6015" height="54.9925" fill="#FBA66A"/>
<path d="M109.465 105.203C109.465 103.546 110.808 102.203 112.465 102.203H123.066C124.723 102.203 126.066 103.546 126.066 105.203V146.301H109.465V105.203Z" fill="#F36E0F"/>
</svg>
