<svg width="215" height="42" viewBox="0 0 215 42" fill="none" xmlns="http://www.w3.org/2000/svg">
<path fill-rule="evenodd" clip-rule="evenodd" d="M84.2818 19.6992C82.5731 19.6992 81.186 21.085 81.186 22.7925C81.186 24.5037 82.5731 25.8883 84.2818 25.8883C85.9918 25.8883 87.3769 24.5037 87.3769 22.7925C87.3769 21.085 85.9918 19.6992 84.2818 19.6992ZM210.24 17.4278C212.27 17.4278 213.754 18.5638 214.727 19.6992V14.214C213.133 13.133 211.212 12.7002 209.541 12.7002C204.41 12.7002 199.952 16.3743 199.952 22.6951C199.952 28.7473 204.004 32.6924 209.621 32.6924C211.242 32.6924 213.024 32.447 214.727 31.2873V25.9076C213.754 26.9093 212.217 27.9642 210.24 27.9642C207.217 27.9642 205.406 25.7228 205.406 22.8574C205.406 19.7504 207.324 17.4278 210.24 17.4278ZM200.532 13.2417H194.318L188.617 21.1825V13.2417H183.324L183.326 32.1516H188.617V24.0184L194.099 32.1516H200.722L193.345 22.3984L200.532 13.2417ZM167.689 24.588V13.2417H162.584V32.1516H167.771L175.092 20.8046V32.1516H180.197V13.2417H175.009L167.689 24.588ZM152.347 21.7495H150.837V17.4022H152.347C154.617 17.4022 154.94 18.6163 154.94 19.5625C154.94 20.3725 154.697 21.7495 152.347 21.7495ZM153.508 13.2417H145.54V32.1516H150.837V25.9076H153.508C158.858 25.9076 160.398 22.1842 160.398 19.5625C160.398 16.9682 158.885 13.2417 153.508 13.2417ZM129.766 17.7782H133.923V32.1516H139.22V17.7782H143.379V13.2417H129.766V17.7782ZM115.095 24.588V13.2417H109.991V32.1516H115.179L122.496 20.8046V32.1516H127.603V13.2417H122.418L115.095 24.588ZM99.3203 28.367H97.0521V24.3975H99.3203C100.996 24.3975 101.969 24.8846 101.969 26.3716C101.969 27.883 100.97 28.367 99.3203 28.367ZM99.8349 20.6154H97.0521V17.7782H105.723V13.2417H91.758L91.7574 32.1516L99.8349 32.1516C101.211 32.1516 107.263 32.2041 107.263 26.2898C107.263 20.5885 101.266 20.6154 99.8349 20.6154ZM62.1243 22.6951C62.1243 28.7473 66.1763 32.6924 71.7945 32.6924C73.417 32.6924 75.1994 32.447 76.9018 31.2873V25.9076C75.9263 26.9093 74.3869 27.9642 72.4159 27.9642C69.3894 27.9642 67.5808 25.7228 67.5808 22.8574C67.5808 19.7504 69.4981 17.4278 72.4159 17.4278C74.4412 17.4278 75.9263 18.5638 76.9018 19.6992V14.214C75.3043 13.133 73.3883 12.7002 71.7133 12.7002C66.5803 12.7002 62.1243 16.3743 62.1243 22.6951ZM51.0391 17.5902H53.9312V32.1516H58.8212V13.2417H51.0391V17.5902Z" fill="#231F20"/>
<path fill-rule="evenodd" clip-rule="evenodd" d="M20.7898 0C19.2409 0 17.7346 0.174242 16.2832 0.496496V20.8054C16.2832 23.2941 18.3123 25.3238 20.8016 25.3238C23.2897 25.3238 25.3182 23.2941 25.3182 20.8066C25.3182 18.4159 23.4502 16.4537 21.102 16.2976V12.6809C25.4412 12.8383 28.9329 16.4281 28.9329 20.8066C28.9329 25.2844 25.2801 28.9392 20.8016 28.9392C16.3213 28.9392 12.6691 25.2844 12.6691 20.8054V1.64562C12.1557 1.86358 11.6542 2.10527 11.1627 2.36507V20.8054C11.1634 26.1132 15.4938 30.4418 20.8016 30.4418C26.1101 30.4418 30.4386 26.1132 30.4386 20.8066C30.4386 15.5987 26.2731 11.3338 21.102 11.1733V7.55798C28.2628 7.71973 34.0515 13.609 34.0515 20.8066C34.0515 28.106 28.0992 34.0571 20.8016 34.0571C13.5022 34.0571 7.54799 28.106 7.54799 20.8054V4.76324C2.93901 8.5747 0 14.3384 0 20.7898C0 32.2716 9.30789 41.582 20.7904 41.582C32.2747 41.582 41.5801 32.2716 41.5801 20.7898C41.5801 9.30789 32.2747 0 20.7898 0Z" fill="#D91935"/>
</svg>
