<svg width="226" height="197" viewBox="0 0 226 197" fill="none" xmlns="http://www.w3.org/2000/svg">
<g filter="url(#filter0_ddd)">
<path d="M186.495 143.386C186.251 142.332 185.294 141.553 183.93 141.424L141.986 148.427C141.45 143.222 137.407 138.714 132.359 137.547L134.414 105.102C137.336 103.318 139.364 100.076 139.721 96.3302C139.818 95.3087 139.607 93.9143 139.704 92.8928L171.08 84.884C172.558 87.4297 175.123 89.3918 178.191 89.6837C183.304 90.1703 187.783 86.4736 188.27 81.3662C188.756 76.2587 185.054 71.7834 179.94 71.2968C174.827 70.8102 170.348 74.5069 169.862 79.6144C169.829 79.9549 169.797 80.2954 169.797 80.2954L138.047 88.6121C136.261 85.6935 133.014 83.6666 129.606 83.3422C129.265 83.3098 128.924 83.2773 128.583 83.2449L122.246 48.6272C125.476 47.2167 127.813 44.3469 128.169 40.6014C128.688 35.1534 124.678 30.3052 119.223 29.7862C113.769 29.2671 108.916 33.2718 108.398 38.7198C107.879 44.1678 111.89 49.016 117.344 49.535C117.685 49.5675 117.685 49.5675 118.026 49.5999L124.363 84.2176C122.22 85.0444 120.354 86.5847 118.796 88.4979L83.1137 73.0769C83.5518 72.0879 83.6814 70.7259 83.7786 69.7044C84.7507 59.4894 77.3471 50.5389 67.4613 49.5981C61.6662 49.0466 56.2936 51.284 52.4959 55.0456C47.6249 48.3975 41.9974 39.4564 37.4998 32.5004C37.0941 33.1489 36.9058 33.8517 36.5001 34.5002C36.062 35.4893 35.0004 37.0003 34.9997 38.0004C39.5297 44.6159 44.8175 52.5969 49.3475 59.2125C48.0981 61.4987 47.5304 63.8497 47.2711 66.5737C46.4934 74.7457 50.9587 82.0422 57.8905 85.107L51.3203 107.158C50.2977 107.061 49.3074 106.623 48.2847 106.526C48.2847 106.526 45.8985 106.299 43.139 106.38C37.5876 106.882 31.0951 110.044 30.381 110.319C32.5248 116.708 34.7952 124.139 39.8126 132.862C45.447 142.332 52.0423 150.175 57.0429 155.461C58.877 154.261 66.1484 150.143 69.3123 142.198C70.6914 138.55 71.0479 134.804 71.0803 134.464C71.4367 130.718 70.7705 126.875 69.731 123.341L118.278 101.161C120.097 103.739 123.003 105.734 126.753 106.091C127.775 106.188 128.457 106.253 129.512 106.01L127.619 136.752C122.035 137.595 117.49 141.973 116.94 147.761C116.292 154.571 121.227 160.538 128.045 161.187C134.181 161.771 139.716 157.831 141.322 151.799L184.32 144.553C185.96 145.396 186.739 144.44 186.495 143.386ZM70.1198 119.255C67.1646 114.163 62.7486 109.964 57.4563 107.742L64.0265 85.6909C64.3674 85.7234 65.0492 85.7882 65.3901 85.8207C72.5488 86.5019 79.4469 82.6918 82.7573 76.8224L118.098 92.211C118.066 92.5515 118.001 93.2325 117.969 93.573C117.839 94.935 118.05 96.3294 118.294 97.3833L70.1198 119.255Z" fill="white" fill-opacity="0.82"/>
</g>
<defs>
<filter id="filter0_ddd" x="0.687073" y="0.916016" width="225.003" height="195.653" filterUnits="userSpaceOnUse" color-interpolation-filters="sRGB">
<feFlood flood-opacity="0" result="BackgroundImageFix"/>
<feColorMatrix in="SourceAlpha" type="matrix" values="0 0 0 0 0 0 0 0 0 0 0 0 0 0 0 0 0 0 127 0"/>
<feOffset dy="-0.229651"/>
<feGaussianBlur stdDeviation="4.09004"/>
<feColorMatrix type="matrix" values="0 0 0 0 1 0 0 0 0 1 0 0 0 0 1 0 0 0 0.0807773 0"/>
<feBlend mode="normal" in2="BackgroundImageFix" result="effect1_dropShadow"/>
<feColorMatrix in="SourceAlpha" type="matrix" values="0 0 0 0 0 0 0 0 0 0 0 0 0 0 0 0 0 0 127 0"/>
<feOffset dy="3.99493"/>
<feGaussianBlur stdDeviation="11.713"/>
<feColorMatrix type="matrix" values="0 0 0 0 1 0 0 0 0 1 0 0 0 0 1 0 0 0 0.177685 0"/>
<feBlend mode="normal" in2="effect1_dropShadow" result="effect2_dropShadow"/>
<feColorMatrix in="SourceAlpha" type="matrix" values="0 0 0 0 0 0 0 0 0 0 0 0 0 0 0 0 0 0 127 0"/>
<feOffset dx="4" dy="4"/>
<feGaussianBlur stdDeviation="12.5"/>
<feColorMatrix type="matrix" values="0 0 0 0 0 0 0 0 0 0 0 0 0 0 0 0 0 0 0.36 0"/>
<feBlend mode="normal" in2="effect2_dropShadow" result="effect3_dropShadow"/>
<feBlend mode="normal" in="SourceGraphic" in2="effect3_dropShadow" result="shape"/>
</filter>
</defs>
</svg>
