<svg width="21" height="16" viewBox="0 0 21 16" fill="none" xmlns="http://www.w3.org/2000/svg">
<path fill-rule="evenodd" clip-rule="evenodd" d="M11.623 0.330525C11.7302 0.225753 11.8575 0.142628 11.9977 0.0859108C12.1379 0.0291937 12.2882 0 12.44 0C12.5918 0 12.7421 0.0291937 12.8823 0.0859108C13.0225 0.142628 13.1498 0.225753 13.257 0.330525L20.1811 7.08083C20.2886 7.18534 20.3738 7.30949 20.432 7.44617C20.4902 7.58286 20.5201 7.72939 20.5201 7.87737C20.5201 8.02535 20.4902 8.17188 20.432 8.30856C20.3738 8.44525 20.2886 8.5694 20.1811 8.67391L13.257 15.4242C13.0404 15.6355 12.7465 15.7542 12.44 15.7542C12.1336 15.7542 11.8397 15.6355 11.623 15.4242C11.4063 15.213 11.2845 14.9264 11.2845 14.6277C11.2845 14.3289 11.4063 14.0424 11.623 13.8311L17.7323 7.87737L11.623 1.9236C11.5155 1.81909 11.4302 1.69494 11.3721 1.55826C11.3139 1.42157 11.2839 1.27505 11.2839 1.12706C11.2839 0.979079 11.3139 0.832549 11.3721 0.695867C11.4302 0.559184 11.5155 0.435033 11.623 0.330525V0.330525Z" fill="#17263F"/>
<path fill-rule="evenodd" clip-rule="evenodd" d="M0 7.87697C0 7.5786 0.0870341 7.29245 0.241955 7.08146C0.396877 6.87048 0.606995 6.75195 0.826087 6.75195H18.1739C18.393 6.75195 18.6031 6.87048 18.758 7.08146C18.913 7.29245 19 7.5786 19 7.87697C19 8.17535 18.913 8.4615 18.758 8.67248C18.6031 8.88347 18.393 9.002 18.1739 9.002H0.826087C0.606995 9.002 0.396877 8.88347 0.241955 8.67248C0.0870341 8.4615 0 8.17535 0 7.87697Z" fill="#17263F"/>
</svg>
