<svg width="176" height="48" viewBox="0 0 176 48" fill="none" xmlns="http://www.w3.org/2000/svg">
<path d="M45 3H0V48H45V3Z" fill="#FF0000"/>
<path d="M6.18652 20.5044H7.3376V28.2517H11.6197V20.5044H12.7648V28.2278H13.6773L13.57 31.2814H12.5382V29.188H6.18652V20.5044ZM25.9274 31.3171H24.7883V29.188H18.5558V31.3231H17.4108L17.4048 28.2517H18.1145C18.4883 27.8302 18.7845 27.2656 19.0031 26.5579C19.2258 25.8462 19.365 25.0669 19.4207 24.22L19.6115 20.5044H24.8061V28.2517H25.9393L25.9274 31.3171ZM19.4207 28.2517H23.6551V21.4467H20.7148L20.5896 23.9993C20.5379 24.9973 20.4047 25.8481 20.19 26.5519C19.9793 27.2556 19.7228 27.8222 19.4207 28.2517ZM32.5832 25.2875H31.5276V29.188H30.3825V20.5044H31.5276V24.3333H32.4222L35.4578 20.5044H36.8832L33.5673 24.715L37.1278 29.188H35.7262L32.5832 25.2875Z" fill="white"/>
<path d="M19.9287 11.3574H45.0001" stroke="white" stroke-width="2"/>
<path d="M20.5713 38.3574H44.9999" stroke="white" stroke-width="2"/>
<path d="M51.0254 4.46875H52.1562V12.0801H56.3633V4.46875H57.4883V12.0566H58.3848L58.2793 15.0566H57.2656V13H51.0254V4.46875ZM65.0098 9.05664H61.3126V12.0801H65.6075V13H60.1876V4.46875H65.5489V5.39453H61.3126V8.13672H65.0098V9.05664ZM73.9845 13H72.8537V9.05664H68.5529V13H67.4279V4.46875H68.5529V8.13672H72.8537V4.46875H73.9845V13ZM82.1213 5.39453H79.3791V13H78.26V5.39453H75.5237V4.46875H82.1213V5.39453ZM84.932 9.66016V13H83.807V4.46875H86.9534C87.887 4.46875 88.6175 4.70703 89.1448 5.18359C89.6761 5.66016 89.9417 6.29102 89.9417 7.07617C89.9417 7.9043 89.682 8.54297 89.1624 8.99219C88.6468 9.4375 87.9066 9.66016 86.9417 9.66016H84.932ZM84.932 8.74023H86.9534C87.555 8.74023 88.0159 8.59961 88.3363 8.31836C88.6566 8.0332 88.8167 7.62305 88.8167 7.08789C88.8167 6.58008 88.6566 6.17383 88.3363 5.86914C88.0159 5.56445 87.5765 5.40625 87.0179 5.39453H84.932V8.74023ZM58.666 32.0918H57.5469V30H51.4238V32.0977H50.2988L50.293 29.0801H50.9902C51.3574 28.666 51.6484 28.1113 51.8633 27.416C52.082 26.7168 52.2188 25.9512 52.2734 25.1191L52.4609 21.4688H57.5645V29.0801H58.6777L58.666 32.0918ZM52.2734 29.0801H56.4336V22.3945H53.5449L53.4219 24.9023C53.3711 25.8828 53.2402 26.7188 53.0293 27.4102C52.8223 28.1016 52.5703 28.6582 52.2734 29.0801ZM66.8555 26.0098C66.8555 26.8457 66.7149 27.5762 66.4337 28.2012C66.1524 28.8223 65.754 29.2969 65.2384 29.625C64.7227 29.9531 64.1212 30.1172 63.4337 30.1172C62.7618 30.1172 62.1661 29.9531 61.6466 29.625C61.127 29.293 60.7227 28.8223 60.4337 28.2129C60.1485 27.5996 60.002 26.8906 59.9942 26.0859V25.4707C59.9942 24.6504 60.1368 23.9258 60.422 23.2969C60.7071 22.668 61.1095 22.1875 61.629 21.8555C62.1524 21.5195 62.7501 21.3516 63.422 21.3516C64.1055 21.3516 64.7071 21.5176 65.2266 21.8496C65.7501 22.1777 66.1524 22.6562 66.4337 23.2852C66.7149 23.9102 66.8555 24.6387 66.8555 25.4707V26.0098ZM65.7364 25.459C65.7364 24.4473 65.5333 23.6719 65.127 23.1328C64.7208 22.5898 64.1524 22.3184 63.422 22.3184C62.711 22.3184 62.1505 22.5898 61.7403 23.1328C61.3341 23.6719 61.1251 24.4219 61.1134 25.3828V26.0098C61.1134 26.9902 61.3184 27.7617 61.7286 28.3242C62.1427 28.8828 62.711 29.1621 63.4337 29.1621C64.1602 29.1621 64.7227 28.8984 65.1212 28.3711C65.5196 27.8398 65.7247 27.0801 65.7364 26.0918V25.459ZM71.1779 26.168H70.1408V30H69.0158V21.4688H70.1408V25.2305H71.0197L74.0021 21.4688H75.4025L72.1447 25.6055L75.6427 30H74.2658L71.1779 26.168ZM80.0237 26.4199L81.9866 21.4688H83.2932L80.2756 28.5762C80.0725 29.0293 79.883 29.3516 79.7073 29.543C79.5315 29.7305 79.3245 29.875 79.0862 29.9766C78.8518 30.0742 78.5569 30.123 78.2014 30.123C77.8928 30.123 77.6955 30.1055 77.6096 30.0703L77.6448 29.1797L78.178 29.2031C78.5881 29.2031 78.8928 29.0059 79.092 28.6113L79.2385 28.3066L79.4612 27.7852L76.5549 21.4688H77.8147L80.0237 26.4199ZM86.514 21.4688L89.303 28.4297L92.0921 21.4688H93.5511V30H92.4261V26.6777L92.5316 23.0918L89.7308 30H88.8695L86.0745 23.1094L86.1859 26.6777V30H85.0609V21.4688H86.514ZM100.78 26.0566H97.0824V29.0801H101.377V30H95.9574V21.4688H101.319V22.3945H97.0824V25.1367H100.78V26.0566ZM109.754 30H108.624V26.0566H104.323V30H103.198V21.4688H104.323V25.1367H108.624V21.4688H109.754V30ZM117.891 22.3945H115.149V30H114.03V22.3945H111.294V21.4688H117.891V22.3945ZM123.819 27.7734H120.245L119.442 30H118.282L121.54 21.4688H122.524L125.788 30H124.633L123.819 27.7734ZM120.585 26.8477H123.485L122.032 22.8574L120.585 26.8477ZM133.913 21.4688V30H132.788V22.3945H129.729L129.577 25.7754C129.518 26.9082 129.401 27.7598 129.225 28.3301C129.053 28.9004 128.8 29.3203 128.464 29.5898C128.128 29.8555 127.678 29.9922 127.116 30H126.747V29.0801L126.981 29.0684C127.344 29.041 127.624 28.9238 127.819 28.7168C128.014 28.5059 128.163 28.1719 128.264 27.7148C128.366 27.2578 128.438 26.5547 128.481 25.6055L128.657 21.4688H133.913ZM137.468 24.9492H139.589C140.479 24.9609 141.175 25.1895 141.675 25.6348C142.175 26.0801 142.425 26.6855 142.425 27.4512C142.425 28.2207 142.173 28.834 141.669 29.291C141.165 29.748 140.477 29.9844 139.606 30H136.343V21.4688H137.468V24.9492ZM137.468 25.875V29.0801H139.524C140.083 29.0801 140.516 28.9316 140.825 28.6348C141.137 28.3379 141.294 27.9395 141.294 27.4395C141.294 26.959 141.143 26.5801 140.843 26.3027C140.546 26.0254 140.122 25.8828 139.571 25.875H137.468ZM150.89 30H149.759V26.0566H145.458V30H144.333V21.4688H145.458V25.1367H149.759V21.4688H150.89V30ZM159.87 26.0098C159.87 26.8457 159.729 27.5762 159.448 28.2012C159.167 28.8223 158.769 29.2969 158.253 29.625C157.737 29.9531 157.136 30.1172 156.448 30.1172C155.776 30.1172 155.181 29.9531 154.661 29.625C154.142 29.293 153.737 28.8223 153.448 28.2129C153.163 27.5996 153.017 26.8906 153.009 26.0859V25.4707C153.009 24.6504 153.151 23.9258 153.436 23.2969C153.722 22.668 154.124 22.1875 154.644 21.8555C155.167 21.5195 155.765 21.3516 156.436 21.3516C157.12 21.3516 157.722 21.5176 158.241 21.8496C158.765 22.1777 159.167 22.6562 159.448 23.2852C159.729 23.9102 159.87 24.6387 159.87 25.4707V26.0098ZM158.751 25.459C158.751 24.4473 158.548 23.6719 158.142 23.1328C157.735 22.5898 157.167 22.3184 156.436 22.3184C155.726 22.3184 155.165 22.5898 154.755 23.1328C154.349 23.6719 154.14 24.4219 154.128 25.3828V26.0098C154.128 26.9902 154.333 27.7617 154.743 28.3242C155.157 28.8828 155.726 29.1621 156.448 29.1621C157.175 29.1621 157.737 28.8984 158.136 28.3711C158.534 27.8398 158.739 27.0801 158.751 26.0918V25.459ZM167.269 22.3945H163.155V30H162.024V21.4688H167.269V22.3945ZM175.241 26.0098C175.241 26.8457 175.101 27.5762 174.819 28.2012C174.538 28.8223 174.14 29.2969 173.624 29.625C173.109 29.9531 172.507 30.1172 171.819 30.1172C171.148 30.1172 170.552 29.9531 170.032 29.625C169.513 29.293 169.109 28.8223 168.819 28.2129C168.534 27.5996 168.388 26.8906 168.38 26.0859V25.4707C168.38 24.6504 168.523 23.9258 168.808 23.2969C169.093 22.668 169.495 22.1875 170.015 21.8555C170.538 21.5195 171.136 21.3516 171.808 21.3516C172.491 21.3516 173.093 21.5176 173.612 21.8496C174.136 22.1777 174.538 22.6562 174.819 23.2852C175.101 23.9102 175.241 24.6387 175.241 25.4707V26.0098ZM174.122 25.459C174.122 24.4473 173.919 23.6719 173.513 23.1328C173.107 22.5898 172.538 22.3184 171.808 22.3184C171.097 22.3184 170.536 22.5898 170.126 23.1328C169.72 23.6719 169.511 24.4219 169.499 25.3828V26.0098C169.499 26.9902 169.704 27.7617 170.114 28.3242C170.528 28.8828 171.097 29.1621 171.819 29.1621C172.546 29.1621 173.109 28.8984 173.507 28.3711C173.905 27.8398 174.11 27.0801 174.122 26.0918V25.459ZM53.2051 43.168H52.168V47H51.043V38.4688H52.168V42.2305H53.0469L56.0293 38.4688H57.4297L54.1719 42.6055L57.6699 47H56.293L53.2051 43.168ZM64.5001 38.4688H65.6251V47H64.5001V40.4258L60.2989 47H59.168V38.4688H60.2989V45.043L64.5001 38.4688ZM74.6525 47H73.5216V43.0566H69.2209V47H68.0959V38.4688H69.2209V42.1367H73.5216V38.4688H74.6525V47ZM83.633 43.0098C83.633 43.8457 83.4924 44.5762 83.2112 45.2012C82.9299 45.8223 82.5315 46.2969 82.0159 46.625C81.5002 46.9531 80.8987 47.1172 80.2112 47.1172C79.5393 47.1172 78.9436 46.9531 78.4241 46.625C77.9045 46.293 77.5002 45.8223 77.2112 45.2129C76.926 44.5996 76.7795 43.8906 76.7717 43.0859V42.4707C76.7717 41.6504 76.9143 40.9258 77.1995 40.2969C77.4846 39.668 77.887 39.1875 78.4065 38.8555C78.9299 38.5195 79.5276 38.3516 80.1995 38.3516C80.883 38.3516 81.4846 38.5176 82.0041 38.8496C82.5276 39.1777 82.9299 39.6562 83.2112 40.2852C83.4924 40.9102 83.633 41.6387 83.633 42.4707V43.0098ZM82.5139 42.459C82.5139 41.4473 82.3108 40.6719 81.9045 40.1328C81.4983 39.5898 80.9299 39.3184 80.1995 39.3184C79.4885 39.3184 78.928 39.5898 78.5178 40.1328C78.1116 40.6719 77.9026 41.4219 77.8909 42.3828V43.0098C77.8909 43.9902 78.0959 44.7617 78.5061 45.3242C78.9202 45.8828 79.4885 46.1621 80.2112 46.1621C80.9377 46.1621 81.5002 45.8984 81.8987 45.3711C82.2971 44.8398 82.5022 44.0801 82.5139 43.0918V42.459Z" fill="#191A1E"/>
</svg>
