<svg width="73" height="73" viewBox="0 0 73 73" fill="none" xmlns="http://www.w3.org/2000/svg">
<path d="M71 0H2C0.895431 0 0 0.895432 0 2V71C0 72.1046 0.895432 73 2 73H71C72.1046 73 73 72.1046 73 71V2C73 0.895431 72.1046 0 71 0Z" fill="#FF0000"/>
<path d="M10.0361 28.3961H11.9034V40.9639H18.85V28.3961H20.7075V40.9252H22.1879L22.0137 45.8788H20.3399V42.4828H10.0361V28.3961ZM42.0602 45.9368H40.2123V42.4828H30.1019V45.9465H28.2444L28.2347 40.9639H29.386C29.9923 40.2802 30.4729 39.3643 30.8275 38.2162C31.1888 37.0616 31.4146 35.7975 31.5049 34.4236L31.8144 28.3961H40.2413V40.9639H42.0795L42.0602 45.9368ZM31.5049 40.9639H38.3741V29.9247H33.6042L33.4011 34.0656C33.3173 35.6845 33.1012 37.0649 32.7529 38.2065C32.411 39.3481 31.995 40.2673 31.5049 40.9639ZM52.8575 36.1554H51.145V42.4828H49.2874V28.3961H51.145V34.6074H52.5962L57.5207 28.3961H59.833L54.4538 35.2266L60.2297 42.4828H57.9561L52.8575 36.1554Z" fill="white"/>
<path d="M32.3286 13.5573H73" stroke="white" stroke-width="2"/>
<path d="M33.3716 57.3573H73.0002" stroke="white" stroke-width="2"/>
</svg>
