<svg width="39" height="39" viewBox="0 0 39 39" fill="none" xmlns="http://www.w3.org/2000/svg">
<circle cx="19.5" cy="19.5" r="19.5" fill="#F2F2F2"/>
<path d="M8.66223 9.594H17.5483C17.6349 9.594 17.7179 9.55962 17.779 9.49843C17.8402 9.43723 17.8746 9.35424 17.8746 9.2677C17.8746 9.18116 17.8402 9.09817 17.779 9.03698C17.7179 8.97578 17.6349 8.94141 17.5483 8.94141H8.66223C8.57569 8.94141 8.4927 8.97578 8.43151 9.03698C8.37031 9.09817 8.33594 9.18116 8.33594 9.2677C8.33594 9.35424 8.37031 9.43723 8.43151 9.49843C8.4927 9.55962 8.57569 9.594 8.66223 9.594Z" fill="#F36E0F"/>
<path d="M17.0483 28.7363H8.16223C8.07569 28.7363 7.9927 28.7707 7.93151 28.8319C7.87031 28.8931 7.83594 28.9761 7.83594 29.0626C7.83594 29.1492 7.87031 29.2322 7.93151 29.2933C7.9927 29.3545 8.07569 29.3889 8.16223 29.3889H17.0483C17.1349 29.3889 17.2179 29.3545 17.279 29.2933C17.3402 29.2322 17.3746 29.1492 17.3746 29.0626C17.3746 28.9761 17.3402 28.8931 17.279 28.8319C17.2179 28.7707 17.1349 28.7363 17.0483 28.7363Z" fill="#F36E0F"/>
<path d="M17.0483 26.2627H8.16223C8.07569 26.2627 7.9927 26.2971 7.93151 26.3583C7.87031 26.4195 7.83594 26.5025 7.83594 26.589C7.83594 26.6755 7.87031 26.7585 7.93151 26.8197C7.9927 26.8809 8.07569 26.9153 8.16223 26.9153H17.0483C17.1349 26.9153 17.2179 26.8809 17.279 26.8197C17.3402 26.7585 17.3746 26.6755 17.3746 26.589C17.3746 26.5025 17.3402 26.4195 17.279 26.3583C17.2179 26.2971 17.1349 26.2627 17.0483 26.2627Z" fill="#F36E0F"/>
<path d="M8.36536 12.0686H26.1371C26.2236 12.0686 26.3066 12.0342 26.3678 11.973C26.429 11.9118 26.4634 11.8288 26.4634 11.7423C26.4634 11.6558 26.429 11.5728 26.3678 11.5116C26.3066 11.4504 26.2236 11.416 26.1371 11.416H8.36536C8.27882 11.416 8.19582 11.4504 8.13463 11.5116C8.07344 11.5728 8.03906 11.6558 8.03906 11.7423C8.03906 11.8288 8.07344 11.9118 8.13463 11.973C8.19582 12.0342 8.27882 12.0686 8.36536 12.0686Z" fill="#F36E0F"/>
<path d="M8.36536 14.5432H26.1371C26.2236 14.5432 26.3066 14.5088 26.3678 14.4476C26.429 14.3865 26.4634 14.3035 26.4634 14.2169C26.4634 14.1304 26.429 14.0474 26.3678 13.9862C26.3066 13.925 26.2236 13.8906 26.1371 13.8906H8.36536C8.27882 13.8906 8.19582 13.925 8.13463 13.9862C8.07344 14.0474 8.03906 14.1304 8.03906 14.2169C8.03906 14.3035 8.07344 14.3865 8.13463 14.4476C8.19582 14.5088 8.27882 14.5432 8.36536 14.5432Z" fill="#F36E0F"/>
<path d="M8.36536 17.0173H26.1371C26.2236 17.0173 26.3066 16.983 26.3678 16.9218C26.429 16.8606 26.4634 16.7776 26.4634 16.691C26.4634 16.6045 26.429 16.5215 26.3678 16.4603C26.3066 16.3991 26.2236 16.3647 26.1371 16.3647H8.36536C8.27882 16.3647 8.19582 16.3991 8.13463 16.4603C8.07344 16.5215 8.03906 16.6045 8.03906 16.691C8.03906 16.7776 8.07344 16.8606 8.13463 16.9218C8.19582 16.983 8.27882 17.0173 8.36536 17.0173Z" fill="#F36E0F"/>
<path d="M8.36536 19.491H26.1371C26.2236 19.491 26.3066 19.4566 26.3678 19.3954C26.429 19.3342 26.4634 19.2512 26.4634 19.1647C26.4634 19.0781 26.429 18.9951 26.3678 18.9339C26.3066 18.8728 26.2236 18.8384 26.1371 18.8384H8.36536C8.27882 18.8384 8.19582 18.8728 8.13463 18.9339C8.07344 18.9951 8.03906 19.0781 8.03906 19.1647C8.03906 19.2512 8.07344 19.3342 8.13463 19.3954C8.19582 19.4566 8.27882 19.491 8.36536 19.491Z" fill="#F36E0F"/>
<path d="M8.36536 21.9661H26.1371C26.2236 21.9661 26.3066 21.9317 26.3678 21.8705C26.429 21.8093 26.4634 21.7263 26.4634 21.6398C26.4634 21.5532 26.429 21.4702 26.3678 21.409C26.3066 21.3479 26.2236 21.3135 26.1371 21.3135H8.36536C8.27882 21.3135 8.19582 21.3479 8.13463 21.409C8.07344 21.4702 8.03906 21.5532 8.03906 21.6398C8.03906 21.7263 8.07344 21.8093 8.13463 21.8705C8.19582 21.9317 8.27882 21.9661 8.36536 21.9661Z" fill="#F36E0F"/>
<path d="M8.36536 24.4412H21.8712C21.9578 24.4412 22.0408 24.4068 22.102 24.3456C22.1631 24.2844 22.1975 24.2014 22.1975 24.1149C22.1975 24.0283 22.1631 23.9453 22.102 23.8841C22.0408 23.823 21.9578 23.7886 21.8712 23.7886H8.36536C8.27882 23.7886 8.19582 23.823 8.13463 23.8841C8.07344 23.9453 8.03906 24.0283 8.03906 24.1149C8.03906 24.2014 8.07344 24.2844 8.13463 24.3456C8.19582 24.4068 8.27882 24.4412 8.36536 24.4412Z" fill="#F36E0F"/>
<path d="M27.9346 24.3164V7.92836C27.933 7.54852 27.7808 7.18481 27.5114 6.91704C27.242 6.64926 26.8774 6.49928 26.4976 6.5H7.93706C7.55721 6.49928 7.19259 6.64926 6.92318 6.91703C6.65377 7.18481 6.50158 7.54851 6.5 7.92836V31.3898C6.5016 31.7696 6.65379 32.1333 6.9232 32.4011C7.1926 32.6689 7.55721 32.8189 7.93706 32.8182H23.5317C24.4112 33.4591 25.4721 33.803 26.5604 33.8C29.3279 33.8 31.5794 31.6315 31.5794 28.9661C31.5794 26.7595 30.0362 24.8934 27.9346 24.3164ZM7.15259 31.3898V7.92836C7.15398 7.72153 7.23736 7.52371 7.38442 7.37827C7.53148 7.23284 7.73023 7.15168 7.93706 7.15259H26.4978C26.7046 7.15169 26.9033 7.23286 27.0504 7.37829C27.1974 7.52372 27.2808 7.72154 27.2822 7.92836V24.1824C27.0431 24.1491 26.802 24.1323 26.5606 24.1323C23.7927 24.1323 21.5413 26.3006 21.5413 28.9661C21.5436 30.1532 21.9936 31.2958 22.8015 32.1656H7.93706C7.73023 32.1665 7.53148 32.0853 7.38442 31.9399C7.23736 31.7945 7.15398 31.5966 7.15259 31.3898ZM26.5604 33.1474C24.1527 33.1474 22.1939 31.2717 22.1939 28.9661C22.1939 26.6606 24.1527 24.7849 26.5604 24.7849C28.968 24.7849 30.9268 26.6606 30.9268 28.9661C30.9268 31.2717 28.968 33.1474 26.5604 33.1474Z" fill="#F36E0F"/>
<path d="M28.3078 28.0948H28.2668V27.5961C28.2668 26.9537 27.7943 26.4312 27.2138 26.4312H25.9725C25.3919 26.4312 24.9195 26.9537 24.9195 27.5961V28.0948H24.8784C24.7631 28.0949 24.6525 28.1408 24.5709 28.2223C24.4894 28.3039 24.4435 28.4145 24.4434 28.5298V31.2024C24.4435 31.3178 24.4894 31.4284 24.5709 31.5099C24.6525 31.5915 24.7631 31.6374 24.8784 31.6375H28.3078C28.4231 31.6374 28.5337 31.5915 28.6153 31.5099C28.6968 31.4284 28.7427 31.3178 28.7428 31.2024V28.5298C28.7427 28.4145 28.6968 28.3039 28.6153 28.2223C28.5337 28.1408 28.4231 28.0949 28.3078 28.0948ZM25.5723 27.5961C25.5723 27.3184 25.7557 27.0837 25.9728 27.0837H27.214C27.4311 27.0837 27.6145 27.3184 27.6145 27.5961V28.0948H25.5721L25.5723 27.5961ZM28.0902 30.9849H25.0959V28.7474H28.0902V30.9849Z" fill="#F36E0F"/>
<path d="M26.3744 30.445C26.3744 30.5315 26.4088 30.6145 26.47 30.6757C26.5312 30.7369 26.6141 30.7713 26.7007 30.7713C26.7872 30.7713 26.8702 30.7369 26.9314 30.6757C26.9926 30.6145 27.027 30.5315 27.027 30.445V30.1091C27.0969 30.0311 27.1356 29.93 27.1357 29.8252C27.1357 29.7098 27.0899 29.5992 27.0083 29.5176C26.9267 29.436 26.8161 29.3901 26.7007 29.3901C26.5853 29.3901 26.4746 29.436 26.3931 29.5176C26.3115 29.5992 26.2656 29.7098 26.2656 29.8252C26.2657 29.93 26.3045 30.031 26.3744 30.1091V30.445Z" fill="#F36E0F"/>
</svg>
