<svg width="42" height="45" viewBox="0 0 42 45" fill="none" xmlns="http://www.w3.org/2000/svg">
<path d="M41.8583 22.127H34.9183V24.3094C34.9183 24.3094 36.2849 24.3094 37.1691 24.3094C37.7854 24.3094 38.1069 24.8066 38.1069 25.1658C38.1069 26.4641 38.1069 27.9282 38.1069 27.9282C38.1069 29.6685 36.7939 30.7735 35.4274 30.7735C33.7124 30.7735 32.8818 29.1713 32.8818 27.9558V18.8675C32.8818 17.4585 33.9 15.663 35.9901 15.663C37.1154 15.663 38.5357 16.2984 38.9643 17.8453H41.242C40.5453 15.3868 38.1605 13.5359 35.1862 13.5359C31.4617 13.5359 28.7017 16.6851 28.7017 20.1934V26.3536C28.7017 28.7569 30.6042 32.9282 35.5346 32.9282C36.2313 32.9282 36.9547 32.7624 37.6514 32.4586C36.7404 33.9779 35.5882 35.3591 34.2752 36.4918C34.168 35.8839 33.8464 35.2486 33.4178 34.779C32.1851 33.453 29.6396 33.2321 27.4423 35.2486C25.4595 37.0718 21.7349 36.2707 20.4755 35C20.9043 39.116 22.78 38.3978 24.2805 38.2044C24.4412 39.4752 25.6739 39.9171 26.5313 39.6962C26.6921 36.1602 31.0598 33.1216 32.212 36.0497C32.6407 37.1547 31.5689 38.232 30.8722 38.7569C28.6214 39.9171 26.1025 40.5525 23.4498 40.5525C22.2976 40.5525 21.1991 40.442 20.1005 40.1934C19.109 39.6962 18.3855 38.9227 18.1176 37.7624C17.3941 34.4199 19.2429 32.6243 21.6277 32.8729C20.7435 33.8122 21.7082 35.0276 22.5656 34.9448C23.4231 34.8619 24.7093 34.8895 25.5399 35.6078C25.0308 34.0056 22.9407 31.2155 19.4574 32.0166C16.7242 32.6519 15.7596 34.5028 15.5184 35.8563C15.3041 36.989 15.5988 37.9282 16.0008 38.7569C13.2944 37.3757 10.99 35.2486 9.35547 32.6243C10.99 29.5304 12.3833 24.8619 11.9278 21.4641C11.4455 17.9006 10.3201 15.5802 9.35547 14.0332C11.8206 10.0829 15.8132 7.23757 20.4755 6.38122C21.5742 6.49171 22.5656 6.93371 23.289 7.8453C24.3073 9.14364 24.0393 11.3536 21.7082 11.9889C22.2173 10.8012 20.8775 10 20.1272 10.3867C19.3502 10.7735 18.1444 11.2155 17.1261 10.8563C18.1444 12.1823 20.9043 13.7845 24.0393 12.0166C25.9418 10.9392 26.5313 9.44751 26.2901 8.09392C26.1562 7.2652 25.8346 6.68509 25.4327 6.27072C26.8797 6.46409 28.2998 6.8232 29.6128 7.37569C29.0769 8.0663 28.9965 8.86741 29.452 9.64088C29.8807 10.3867 30.2558 11.6299 29.72 12.4586C31.0329 12.5967 32.2387 11.8508 32.6407 10.4972C33.9 12.3481 36.258 11.9337 37.9194 10.3867C35.7489 10.7735 34.3824 7.79005 31.542 6.21547C29.9075 5.30387 26.9065 4.41989 24.3073 4.30939C25.004 2.87293 24.6021 1.38122 23.7714 0C23.4498 1.29834 22.7532 2.84531 21.1187 3.95028C20.5291 4.36464 20.1272 4.55801 19.7789 4.66851C19.3502 4.75138 18.9214 4.86188 18.5195 4.97237C18.3052 5.02762 18.0371 5.11049 17.7156 5.22099C13.8303 6.51934 10.5077 9.0884 8.20326 12.4861C8.06929 12.3205 7.96211 12.1823 7.88172 12.0442C7.18504 10.9944 7.53339 8.61879 10.6149 7.40332C8.5784 6.76796 5.1218 7.51382 4.69307 11.105C4.26435 14.6685 8.12288 16.2155 9.56983 21.1326C10.7756 25.221 9.35547 29.116 8.41763 31.0221C7.47979 29.0608 6.8635 26.6575 6.72952 24.5856C6.59554 22.5138 6.2204 20.884 7.61377 17.6519C5.41655 18.0111 3.59446 19.6133 4.18396 21.7956C2.92457 21.2708 1.6116 21.7403 0.861328 22.9006C1.82596 22.9558 2.52265 24.0331 2.8174 24.8619C3.16573 25.8564 4.21075 26.7127 5.09501 26.1325C5.44334 28.6187 6.274 30.9668 7.453 33.0387C5.49693 41.6574 12.2226 41.3812 15.8132 40.8563C14.7145 41.9614 14.6074 43.453 14.9021 45C15.6524 43.895 16.8314 42.7072 18.7338 42.2652C19.2162 42.1547 19.5913 42.0995 19.886 42.0719C21.0115 42.2928 22.1904 42.4309 23.3962 42.4309C31.944 42.4309 39.2591 36.5194 41.2687 28.3149C41.9387 25.4696 41.8583 23.3149 41.8583 22.127ZM10.2129 38.5912C9.08751 37.5967 8.76597 35.9668 8.65878 34.8895C10.1325 36.9061 12.0082 38.5912 14.1519 39.8618C12.6781 39.8066 11.2579 39.5304 10.2129 38.5912Z" fill="#FF0000"/>
<path d="M26.3443 17.2652V13.5083H22.1643V16.7403C22.1643 18.7845 21.0657 19.5304 19.7259 20.221L17.9574 21.1602V13.5083H13.7773V34.4752C14.6348 32.7072 16.1353 31.326 17.9574 30.663V23.5083L19.7259 24.4475C21.0657 25.1382 22.1643 25.884 22.1643 27.9006V30.442C23.8524 30.8563 25.3261 31.8785 26.3176 33.2596V27.4034C26.3176 25.8288 25.2994 25.1657 23.7452 24.3646L19.8063 22.3481L23.7452 20.3039C25.2994 19.5028 26.3443 18.8398 26.3443 17.2652Z" fill="#FF0000"/>
</svg>
