<svg width="25" height="25" fill="none" xmlns="http://www.w3.org/2000/svg"><path d="M12.5 0C5.598 0 0 5.598 0 12.5S5.598 25 12.5 25 25 19.402 25 12.5 19.402 0 12.5 0zm.265 19.778h-.003a7.48 7.48 0 01-3.575-.91l-3.966 1.04 1.061-3.876a7.462 7.462 0 01-.999-3.74c.002-4.123 3.358-7.478 7.482-7.478 2.001.001 3.88.78 5.292 2.194a7.433 7.433 0 012.19 5.29c-.002 4.125-3.359 7.48-7.482 7.48z" fill="#F36E0F"/><path d="M12.768 6.078a6.227 6.227 0 00-6.221 6.215 6.21 6.21 0 00.95 3.309l.149.235-.629 2.294 2.354-.617.227.134a6.208 6.208 0 003.165.867h.002a6.226 6.226 0 006.219-6.216 6.178 6.178 0 00-1.82-4.398 6.177 6.177 0 00-4.396-1.823zm3.657 8.888c-.155.437-.902.835-1.261.889a2.57 2.57 0 01-1.178-.074 10.78 10.78 0 01-1.066-.394c-1.875-.81-3.1-2.697-3.193-2.822-.093-.124-.763-1.013-.763-1.933 0-.92.483-1.372.654-1.559a.687.687 0 01.499-.234c.124 0 .249.001.358.007.115.005.269-.044.42.32.156.375.53 1.294.577 1.388.047.094.078.203.016.328-.063.124-.27.393-.468.639-.083.102-.19.194-.082.381.11.187.484.8 1.04 1.295.714.636 1.316.834 1.503.927.187.094.296.078.405-.047.11-.124.468-.545.592-.732.125-.188.25-.156.42-.094.172.062 1.091.515 1.278.608.187.094.312.14.358.218.047.078.047.453-.109.89z" fill="#F36E0F"/></svg>