<svg width="16" height="20" viewBox="0 0 16 20" fill="none" xmlns="http://www.w3.org/2000/svg">
<path d="M1.74023 19.8H13.3418C14.3013 19.8 15.082 19.0193 15.082 18.0598V1.74023C15.082 0.780689 14.3013 0 13.3418 0H1.74023C0.780689 0 0 0.780689 0 1.74023V18.0598C0 19.0193 0.780689 19.8 1.74023 19.8ZM13.9219 5.87813V11.6789H8.12109V5.87813H13.9219ZM6.96094 11.6789H1.16016V5.87813H6.96094V11.6789ZM1.16016 18.0598V12.8391H6.96094V18.6398H1.74023C1.42044 18.6398 1.16016 18.3796 1.16016 18.0598ZM13.3418 18.6398H8.12109V12.8391H13.9219V18.0598C13.9219 18.3796 13.6616 18.6398 13.3418 18.6398ZM1.74023 1.16016H13.3418C13.6616 1.16016 13.9219 1.42044 13.9219 1.74023V4.71797H1.16016V1.74023C1.16016 1.42044 1.42044 1.16016 1.74023 1.16016Z" fill="#FF7A00"/>
<path d="M2.90039 9.3584H3.48047V9.93848C3.48047 10.2589 3.74014 10.5186 4.06055 10.5186C4.38095 10.5186 4.64062 10.2589 4.64062 9.93848V9.3584H5.2207C5.54111 9.3584 5.80078 9.09872 5.80078 8.77832C5.80078 8.45792 5.54111 8.19824 5.2207 8.19824H4.64062V7.61816C4.64062 7.29776 4.38095 7.03809 4.06055 7.03809C3.74014 7.03809 3.48047 7.29776 3.48047 7.61816V8.19824H2.90039C2.57999 8.19824 2.32031 8.45792 2.32031 8.77832C2.32031 9.09872 2.57999 9.3584 2.90039 9.3584Z" fill="#FF7A00"/>
<path d="M4.88107 15.7394L5.2912 15.3292C5.5178 15.1026 5.5178 14.7354 5.2912 14.5088C5.06476 14.2824 4.69738 14.2824 4.47079 14.5088L4.06065 14.9189L3.65052 14.5088C3.42393 14.2822 3.05669 14.2822 2.8301 14.5088C2.60351 14.7354 2.60351 15.1026 2.8301 15.3292L3.24023 15.7394L2.8301 16.1495C2.60351 16.3761 2.60351 16.7433 2.8301 16.9699C3.05654 17.1964 3.42393 17.1965 3.65052 16.9699L4.06065 16.5598L4.47079 16.9699C4.69738 17.1965 5.06461 17.1965 5.2912 16.9699C5.5178 16.7433 5.5178 16.3761 5.2912 16.1495L4.88107 15.7394Z" fill="#FF7A00"/>
<path d="M9.86133 9.3584H12.1816C12.502 9.3584 12.7617 9.09872 12.7617 8.77832C12.7617 8.45792 12.502 8.19824 12.1816 8.19824H9.86133C9.54093 8.19824 9.28125 8.45792 9.28125 8.77832C9.28125 9.09872 9.54093 9.3584 9.86133 9.3584Z" fill="#FF7A00"/>
<path d="M12.1816 16.3193H9.86133C9.54093 16.3193 9.28125 16.579 9.28125 16.8994C9.28125 17.2198 9.54093 17.4795 9.86133 17.4795H12.1816C12.502 17.4795 12.7617 17.2198 12.7617 16.8994C12.7617 16.579 12.502 16.3193 12.1816 16.3193Z" fill="#FF7A00"/>
<path d="M12.1816 13.999H9.86133C9.54093 13.999 9.28125 14.2587 9.28125 14.5791C9.28125 14.8995 9.54093 15.1592 9.86133 15.1592H12.1816C12.502 15.1592 12.7617 14.8995 12.7617 14.5791C12.7617 14.2587 12.502 13.999 12.1816 13.999Z" fill="#FF7A00"/>
<path d="M2.90039 3.51929H4.06055C4.38095 3.51929 4.64062 3.25961 4.64062 2.93921C4.64062 2.61881 4.38095 2.35913 4.06055 2.35913H2.90039C2.57999 2.35913 2.32031 2.61881 2.32031 2.93921C2.32031 3.25961 2.57999 3.51929 2.90039 3.51929Z" fill="#FF7A00"/>
</svg>
