<svg width="55" height="37" viewBox="0 0 55 37" fill="none" xmlns="http://www.w3.org/2000/svg">
<path d="M39.0127 20.8837V30.5592C39.6454 30.6842 40.2768 30.8184 40.9065 30.9618V19.3438L39.0127 20.8837Z" fill="#2061B3"/>
<path d="M42.5331 28.9678L42.0018 28.8828L42.0051 28.0629L42.5344 28.2555L42.5331 28.9678ZM42.5317 27.1006L42.5294 27.7982L42.0051 27.6374L42.0018 26.8354L42.5317 27.1006ZM42.5253 25.9715L42.524 26.6548L42.0018 26.4196L41.9957 25.6355L42.5253 25.9715ZM42.5082 22.7123L42.5106 23.3552L42.0028 22.9177L41.9957 22.1815L42.5082 22.7123ZM41.8496 28.8373L41.2787 28.7463L41.2838 27.8644L41.8506 28.0712L41.8496 28.8373ZM41.8496 26.8308L41.8459 27.5809L41.2824 27.4071L41.2787 26.5455L41.8496 26.8308ZM41.8416 25.6158L41.8406 26.3511L41.2787 26.0983L41.2733 25.2555L41.8416 25.6158ZM41.8238 22.1135L41.8258 22.8047L41.2801 22.3341L41.272 21.5427L41.8238 22.1135ZM41.8204 20.9913L41.8177 21.6691L41.2824 21.1323L41.2777 20.3571L41.8204 20.9913ZM41.8399 25.1438L41.2764 24.8166L41.2811 23.9908L41.8318 24.4251L41.8399 25.1438ZM41.8375 23.9623L41.2811 23.5629L41.2744 22.7546L41.8318 23.2578L41.8375 23.9623ZM42.5062 21.6682L42.5035 22.2992L42.0051 21.7996L42.0004 21.0781L42.5062 21.6682ZM42.523 25.5317L42.0004 25.2279L42.0041 24.4586L42.5159 24.863L42.523 25.5317ZM42.5203 24.4329L42.0041 24.0611L41.9971 23.3088L42.5159 23.7771L42.5203 24.4329ZM40.9053 19.3438V30.9618C41.538 31.1056 42.169 31.2587 42.7977 31.4204V29.0992V20.8837L40.9053 19.3438Z" fill="#5CCAF5"/>
<path d="M32.2158 11.1556V29.5925C33.4217 29.6963 34.625 29.8374 35.8233 30.0125V8.22266L32.2158 11.1556Z" fill="#2061B3"/>
<path d="M38.8854 26.7657L37.8611 26.6026L37.8678 25.019L38.8877 25.3903L38.8854 26.7657ZM38.884 23.1628L38.8783 24.5098L37.8678 24.1987L37.8611 22.6509L38.884 23.1628ZM38.8719 20.9818L38.8672 22.3011L37.8611 21.8485L37.8497 20.3347L38.8719 20.9818ZM38.838 14.6927L38.8424 15.9344L37.8631 15.0898L37.8483 13.6693L38.838 14.6927ZM37.5672 26.5139L36.4657 26.3388L36.4738 24.6366L37.5703 25.0364L37.5672 26.5139ZM37.5659 22.6408L37.5602 24.0888L36.4724 23.7547L36.4657 22.0911L37.5659 22.6408ZM37.5525 20.2975L37.5474 21.7147L36.4657 21.2281L36.4536 19.6012L37.5525 20.2975ZM37.5175 13.5365L37.5219 14.8715L36.4684 13.9634L36.4523 12.4363L37.5175 13.5365ZM37.5118 11.3711L37.5071 12.6803L36.4724 11.6431L36.4627 10.1473L37.5118 11.3711ZM37.5467 19.3862L36.4627 18.7552L36.4694 17.1606L37.5323 17.9988L37.5467 19.3862ZM37.5434 17.1063L36.4694 16.3343L36.456 14.7745L37.531 15.7456L37.5434 17.1063ZM38.833 12.6785L38.829 13.8954L37.8678 12.9317L37.8574 11.5402L38.833 12.6785ZM38.8662 20.1343L37.8574 19.5475L37.8641 18.0636L38.8525 18.8439L38.8662 20.1343ZM38.8625 18.014L37.8641 17.2952L37.852 15.8444L38.8515 16.7479L38.8625 18.014ZM35.8232 8.22266V30.0125C37.0302 30.1894 38.2325 30.4008 39.4291 30.6453V26.803V11.1555L35.8232 8.22266Z" fill="#5CCAF5"/>
<path d="M11.7783 18.1852V31.4218C12.5646 31.22 13.3541 31.0312 14.1466 30.8566V16.2583L11.7783 18.1852Z" fill="#2061B3"/>
<path d="M15.4383 29.073L14.6883 28.954L14.6937 27.7959L15.4392 28.068L15.4383 29.073ZM15.4365 26.4379L15.4321 27.4237L14.6928 27.1962L14.6883 26.0643L15.4365 26.4379ZM15.428 24.8433L15.4244 25.8088L14.6883 25.477L14.6802 24.3704L15.428 24.8433ZM15.4043 20.244L15.4065 21.1521L14.6905 20.534L14.6793 19.4954L15.4043 20.244ZM15.3994 18.7712L15.3976 19.6613L14.6928 18.9559L14.686 17.938L15.3994 18.7712ZM15.4244 24.2238L14.686 23.7946L14.6905 22.7091L15.4141 23.2794L15.4244 24.2238ZM15.4213 22.6728L14.6919 22.1471L14.6816 21.0864L15.4133 21.7473L15.4213 22.6728ZM14.1465 16.2583V30.8566C14.9337 30.6833 15.7236 30.5243 16.5157 30.3795V18.1852L14.1465 16.2583Z" fill="#5CCAF5"/>
<path d="M16.0967 11.1556V30.4583C17.2936 30.2317 18.4968 30.0382 19.7036 29.8806V8.22266L16.0967 11.1556Z" fill="#2061B3"/>
<path d="M21.6734 27.4868L20.5316 27.3053L20.541 25.5424L21.6757 25.956L21.6734 27.4868ZM21.6721 23.4749L21.6658 24.9753L20.5388 24.6288L20.5316 22.9055L21.6721 23.4749ZM21.6578 21.0466L21.6529 22.5162L20.5316 22.0116L20.5195 20.326L21.6578 21.0466ZM21.6215 14.0434L21.626 15.4267L20.5339 14.4864L20.5195 12.9042L21.6215 14.0434ZM21.6148 11.8008L21.6112 13.156L20.5388 12.0825L20.5285 10.5329L21.6148 11.8008ZM21.6529 20.1031L20.5285 19.4501L20.5365 17.7975L21.6363 18.6656L21.6529 20.1031ZM21.6488 17.741L20.5365 16.9414L20.5231 15.326L21.6363 16.3325L21.6488 17.741ZM19.7041 8.22266V29.8806C20.9028 29.7239 22.1051 29.6026 23.3105 29.518V11.1556L19.7041 8.22266Z" fill="#5CCAF5"/>
<path d="M22.8896 3.96416V29.5476C24.3521 29.4346 25.8186 29.3762 27.2868 29.3762C27.4454 29.3762 27.6039 29.3767 27.762 29.3785V22.1856V22.1846V14.5464V14.544V0L22.8896 3.96416Z" fill="#2061B3"/>
<path d="M31.8794 25.3082L30.481 25.0858L30.4909 22.924L31.8839 23.4314L31.8794 25.3082ZM31.8781 20.3905L31.87 22.2287L30.49 21.8041L30.481 19.6915L31.8781 20.3905ZM31.8611 17.414L31.8552 19.2145L30.481 18.5959L30.4662 16.5297L31.8611 17.414ZM31.8163 8.82851L31.8217 10.5234L30.4833 9.37126L30.4654 7.43103L31.8163 8.82851ZM30.0798 24.9649L28.5771 24.7259L28.5874 22.4024L30.0847 22.9474L30.0798 24.9649ZM30.0789 19.6786L30.0713 21.6547L28.5865 21.1984L28.5771 18.9272L30.0789 19.6786ZM30.0601 16.4783L30.0543 18.4148L28.5771 17.7494L28.5605 15.5293L30.0601 16.4783ZM30.0127 7.25039L30.018 9.07254L28.5807 7.83311L28.5592 5.74857L30.0127 7.25039ZM30.005 4.295L29.9988 6.08131L28.5865 4.66587L28.5717 2.62315L30.005 4.295ZM30.0534 15.2352L28.5717 14.374L28.5824 12.1966L30.0328 13.3409L30.0534 15.2352ZM30.0471 12.1226L28.5824 11.0688L28.5645 8.94018L30.0315 10.266L30.0471 12.1226ZM31.8091 6.079L31.8038 7.74074L30.49 6.42412L30.4765 4.52431L31.8091 6.079ZM31.8544 16.2568L30.4765 15.4558L30.4855 13.4301L31.8351 14.4948L31.8544 16.2568ZM31.849 13.3611L30.4864 12.3809L30.4694 10.4006L31.8342 11.6341L31.849 13.3611ZM27.7607 0V29.3785C29.3884 29.3923 31.0139 29.4777 32.6335 29.6289V25.1055V3.96412L27.7607 0Z" fill="#5CCAF5"/>
<path d="M42.4807 32.736C37.8368 31.5416 32.6974 30.731 27.2878 30.731C21.8781 30.731 16.7385 31.5416 12.0963 32.736C11.7663 32.8201 11.4439 32.9116 11.1184 32.9998C6.92279 34.1441 3.15372 35.5833 0 36.9999C4.28033 35.8983 9.03469 34.924 14.1154 34.2653C18.3102 33.7217 22.7249 33.3927 27.2878 33.3927C31.8502 33.3927 36.2654 33.7217 40.4593 34.2653C45.5408 34.924 50.2953 35.8983 54.5751 36.9999C51.4216 35.5833 47.6526 34.1441 43.4563 32.9998C43.1312 32.9116 42.8108 32.8201 42.4807 32.736Z" fill="#E45A1C"/>
</svg>
