<svg width="233" height="65" viewBox="0 0 233 65" fill="none" xmlns="http://www.w3.org/2000/svg">
<path d="M82.4343 33.8H74.9343V10.7H81.9343C84.3343 10.7 86.1343 11.2 87.3343 12.3C88.5343 13.4 89.2343 14.9 89.2343 17C89.2343 18.2 88.9343 19.2 88.4343 20C87.9343 20.8 87.2343 21.5 86.3343 21.9C87.3343 22.2 88.1343 22.8 88.7343 23.7C89.3343 24.6 89.5343 25.7 89.5343 27C89.5343 29.2 88.9343 30.9 87.7343 32.1C86.5343 33.3 84.7343 33.8 82.4343 33.8ZM82.7343 23.8H79.5343V30H82.4343C83.2343 30 83.9343 29.7 84.3343 29.2C84.7343 28.7 84.9343 27.9 84.9343 27C85.0343 24.9 84.2343 23.8 82.7343 23.8ZM79.5343 14.6V20.4H81.9343C83.7343 20.4 84.6343 19.5 84.6343 17.6C84.6343 16.6 84.4343 15.8 84.0343 15.3C83.6343 14.8 82.9343 14.6 82.0343 14.6H79.5343ZM104.634 20.1V23.9H97.4343V30H105.934V33.9H92.9343V10.7H105.934V14.6H97.5343V20.1H104.634ZM121.434 10.7V14.6H113.234V19H115.934C118.234 19 120.034 19.7 121.434 21C122.834 22.3 123.434 24.1 123.434 26.3C123.434 28.5 122.734 30.3 121.434 31.7C120.134 33.1 118.334 33.8 116.134 33.8H108.534V10.7H121.434ZM116.034 22.9H113.234V30H116.034C116.934 30 117.634 29.7 118.134 29C118.634 28.3 118.934 27.4 118.934 26.4C118.934 25.4 118.634 24.6 118.134 23.9C117.634 23.2 116.934 22.9 116.034 22.9Z" fill="#101E42"/>
<path d="M77.1343 45.5V54H75.4343V45.5H77.1343ZM86.3343 45.5V46.9H84.2343V53.9H82.5343V46.9H80.5343V45.5H86.3343ZM92.4343 49.7V51.1H89.6343V49.7H92.4343ZM101.634 45.5V46.9H99.5343V53.9H97.8343V46.9H95.8343V45.5H101.634ZM109.234 48.9V50.3H106.634V52.5H109.734V53.9H104.934V45.4H109.734V46.8H106.634V48.8H109.234V48.9ZM114.534 45.5L115.634 48.4L116.734 45.5H118.634L116.634 49.7L118.634 54H116.634L115.534 51L114.434 54H112.434L114.434 49.7L112.434 45.5H114.534ZM127.834 45.5V54H126.134V50.4H123.634V54H121.934V45.5H123.634V48.9H126.134V45.5H127.834ZM137.434 49.1V50.5C137.434 51.6 137.134 52.5 136.634 53.1C136.134 53.7 135.334 54 134.434 54C133.534 54 132.734 53.7 132.234 53.1C131.734 52.5 131.434 51.6 131.434 50.5V49.1C131.434 47.9 131.734 47 132.234 46.4C132.734 45.7 133.534 45.4 134.434 45.4C135.334 45.4 136.134 45.7 136.634 46.4C137.134 47 137.434 47.9 137.434 49.1ZM135.734 50.6V49.1C135.734 48.3 135.634 47.8 135.434 47.4C135.234 47 134.934 46.8 134.434 46.8C134.034 46.8 133.634 47 133.434 47.3C133.234 47.7 133.134 48.2 133.134 48.9V50.4C133.134 51.1 133.234 51.7 133.434 52C133.634 52.4 134.034 52.5 134.434 52.5C134.834 52.5 135.234 52.3 135.434 52C135.634 51.8 135.734 51.3 135.734 50.6ZM142.034 45.5H146.934V54H145.234V47H143.734L143.634 50C143.634 51 143.434 51.8 143.334 52.4C143.134 53 142.934 53.4 142.534 53.7C142.234 54 141.734 54.1 141.234 54.1H140.834V52.7H141.034C141.434 52.7 141.634 52.4 141.834 52C142.034 51.6 142.134 50.8 142.134 49.7L142.034 45.5ZM156.434 49.1V50.5C156.434 51.6 156.134 52.5 155.634 53.1C155.134 53.7 154.334 54 153.434 54C152.534 54 151.734 53.7 151.234 53.1C150.734 52.5 150.434 51.6 150.434 50.5V49.1C150.434 47.9 150.734 47 151.234 46.4C151.734 45.7 152.534 45.4 153.434 45.4C154.334 45.4 155.134 45.7 155.634 46.4C156.134 47 156.434 47.9 156.434 49.1ZM154.734 50.6V49.1C154.734 48.3 154.634 47.8 154.434 47.4C154.234 47 153.934 46.8 153.434 46.8C153.034 46.8 152.634 47 152.434 47.3C152.234 47.7 152.134 48.2 152.134 48.9V50.4C152.134 51.1 152.234 51.7 152.434 52C152.634 52.4 153.034 52.5 153.434 52.5C153.834 52.5 154.234 52.3 154.434 52C154.634 51.8 154.734 51.3 154.734 50.6ZM164.734 45.5V46.9H161.734V53.9H160.034V45.4H164.734V45.5ZM169.734 51.1L172.234 45.5H173.934V54H172.234V48.4L169.734 54H168.034V45.5H169.734V51.1ZM179.134 51.1L181.634 45.5H183.334V54H181.634V48.4L179.134 54H177.434V45.5H179.134V51.1Z" fill="#101E42"/>
<path d="M32.0174 64.4C48.16 64.2 64 50.4 64 32.2C64 14.4 49.6734 0 32.0174 0C12.3435 0 0.740969 18.4 0.034728 32.2C-0.368838 40 2.85969 45.9 3.76772 47.6C9.21586 57.3 20.2131 64.5 32.0174 64.4Z" fill="#101E42"/>
<path d="M48.4344 49.5C48.3344 49.2 48.0344 49 47.6344 49L35.6344 52.2C35.3344 50.7 34.0344 49.5 32.5344 49.3L32.2344 39.8C33.0344 39.2 33.5344 38.2 33.5344 37.1C33.5344 36.8 33.4344 36.4 33.4344 36.1L42.3344 32.9C42.8344 33.6 43.6344 34.1 44.5344 34.1C46.0344 34.1 47.2344 32.9 47.2344 31.4C47.2344 29.9 46.0344 28.7 44.5344 28.7C43.0344 28.7 41.8344 29.9 41.8344 31.4C41.8344 31.5 41.8344 31.6 41.8344 31.6L32.8344 34.9C32.2344 34.1 31.2344 33.6 30.2344 33.6C30.1344 33.6 30.0344 33.6 29.9344 33.6L27.1344 23.7C28.0344 23.2 28.6344 22.3 28.6344 21.2C28.6344 19.6 27.3344 18.3 25.7344 18.3C24.1344 18.3 22.8344 19.6 22.8344 21.2C22.8344 22.8 24.1344 24.1 25.7344 24.1C25.8344 24.1 25.8344 24.1 25.9344 24.1L28.7344 34C28.1344 34.3 27.6344 34.8 27.2344 35.4L16.4344 31.9C16.5344 31.6 16.5344 31.2 16.5344 30.9C16.5344 27.9 14.1344 25.5 11.2344 25.5C9.53438 25.5 8.03437 26.3 7.03437 27.5C5.43437 25.7 3.83437 23.8 2.33437 21.9C2.23437 22.1 2.13437 22.3 2.03437 22.5C1.93437 22.8 1.83438 23.1 1.73438 23.4C3.23438 25.2 4.73437 27 6.23437 28.8C5.93437 29.5 5.83437 30.2 5.83437 31C5.83437 33.4 7.33438 35.4 9.43438 36.1L8.13438 42.7C7.83437 42.7 7.53437 42.6 7.23437 42.6C7.23437 42.6 6.53437 42.6 5.73437 42.7C4.13437 43 2.33438 44.1 2.13438 44.2C2.93438 46 3.8 48.0999 5.5 50.4999C7.4 53.0999 9.53437 55.2 11.1344 56.6C11.6344 56.2 13.6344 54.8 14.3344 52.4C14.6344 51.3 14.6344 50.2 14.6344 50.1C14.6344 49 14.3344 47.9 13.9344 46.9L27.4344 39.1C28.0344 39.8 28.9344 40.3 30.0344 40.3C30.3344 40.3 30.5344 40.3 30.8344 40.2L31.1344 49.2C29.5344 49.6 28.3344 51 28.3344 52.7C28.3344 54.7 29.9344 56.3 31.9344 56.3C33.7344 56.3 35.2344 55 35.5344 53.2L47.8344 49.9C48.3344 50.1 48.5344 49.8 48.4344 49.5ZM13.9344 45.7C12.9344 44.3 11.5344 43.2 9.93438 42.7L11.2344 36.1C11.3344 36.1 11.5344 36.1 11.6344 36.1C13.7344 36.1 15.6344 34.8 16.4344 33L27.1344 36.5C27.1344 36.6 27.1344 36.8 27.1344 36.9C27.1344 37.3 27.2344 37.7 27.3344 38L13.9344 45.7Z" fill="white"/>
<path d="M37.7343 18.9C38.1343 18.9 38.5343 18.6 38.5343 18.1C38.5343 17.7 38.2343 17.3 37.7343 17.3C37.3343 17.3 36.9343 17.6 36.9343 18.1C37.0343 18.6 37.3343 18.9 37.7343 18.9Z" fill="white"/>
<path d="M23.2343 46.1C23.6343 46.1 24.0343 45.8 24.0343 45.3C24.0343 44.9 23.7343 44.5 23.2343 44.5C22.8343 44.5 22.4343 44.8 22.4343 45.3C22.5343 45.7 22.8343 46.1 23.2343 46.1Z" fill="white"/>
<path d="M53.1345 25.9C53.5345 25.9 53.9345 25.6 53.9345 25.1C53.9345 24.6 53.6345 24.3 53.1345 24.3C52.7345 24.3 52.3345 24.6 52.3345 25.1C52.3345 25.6 52.7345 25.9 53.1345 25.9Z" fill="white"/>
<path d="M22.1345 9.30001C22.5345 9.30001 22.9345 9.00001 22.9345 8.50001C22.9345 8.10001 22.6345 7.70001 22.1345 7.70001C21.7345 7.70001 21.3345 8.00001 21.3345 8.50001C21.3345 9.00001 21.6345 9.30001 22.1345 9.30001Z" fill="white"/>
<path d="M41.6344 40.8C42.1344 40.8 42.5344 40.4 42.5344 39.8C42.5344 39.2 42.1344 38.8 41.6344 38.8C41.1344 38.8 40.7344 39.2 40.7344 39.8C40.7344 40.4 41.1344 40.8 41.6344 40.8Z" fill="white"/>
<path d="M140.734 26.5H143.634C143.534 29 142.834 30.9 141.534 32.2C140.334 33.5 138.534 34.2 136.234 34.2C133.934 34.2 132.134 33.3 130.834 31.6C129.534 29.8 128.834 27.4 128.834 24.4V20.2C128.834 17.2 129.534 14.8 130.934 13.1C132.334 11.4 134.234 10.5 136.634 10.5C138.834 10.5 140.534 11.2 141.734 12.5C142.934 13.8 143.634 15.7 143.734 18.2H140.834C140.734 16.3 140.334 15 139.634 14.2C138.934 13.4 137.934 13 136.634 13C135.034 13 133.834 13.6 133.034 14.8C132.234 16 131.734 17.8 131.734 20.2V24.4C131.734 26.7 132.134 28.5 132.934 29.8C133.734 31 134.834 31.7 136.334 31.7C137.834 31.7 138.934 31.3 139.534 30.6C140.234 29.8 140.634 28.4 140.734 26.5ZM158.434 20.7V23.2H150.334V31.4H159.734V33.9H147.434V10.7H159.534V13.2H150.334V20.7H158.434ZM170.934 24.8H166.334V33.8H163.434V10.7H170.734C172.834 10.7 174.534 11.3 175.734 12.6C176.934 13.9 177.534 15.6 177.534 17.7C177.534 19.9 176.934 21.6 175.834 22.8C174.634 24.1 173.034 24.7 170.934 24.8ZM166.334 13.2V22.3H170.734C172.034 22.3 172.934 21.9 173.634 21.1C174.334 20.3 174.634 19.2 174.634 17.8C174.634 16.4 174.234 15.3 173.634 14.5C172.934 13.7 171.934 13.2 170.734 13.2H166.334ZM187.934 33.8H181.234V10.7H187.734C189.834 10.7 191.334 11.2 192.434 12.2C193.434 13.2 194.034 14.8 194.034 16.8C194.034 17.9 193.734 18.8 193.234 19.7C192.734 20.6 191.934 21.2 191.034 21.6C192.034 21.9 192.934 22.6 193.534 23.6C194.134 24.6 194.434 25.8 194.434 27.2C194.434 29.3 193.834 30.9 192.734 32.1C191.634 33.2 190.034 33.8 187.934 33.8ZM188.034 23H184.034V31.3H187.934C189.034 31.3 189.834 30.9 190.534 30.2C191.134 29.5 191.534 28.5 191.534 27.1C191.534 24.4 190.334 23 188.034 23ZM184.134 13.2V20.5H187.834C188.834 20.5 189.634 20.2 190.234 19.5C190.834 18.8 191.134 17.9 191.134 16.8C191.134 15.5 190.834 14.6 190.334 14C189.734 13.4 188.934 13.1 187.834 13.1H184.134V13.2ZM201.734 28.5L210.634 10.7H213.534V33.8H210.634V16L201.734 33.8H198.834V10.7H201.734V28.5ZM229.934 26.5H232.834C232.734 29 232.034 30.9 230.734 32.2C229.534 33.5 227.734 34.2 225.434 34.2C223.134 34.2 221.334 33.3 220.034 31.6C218.734 29.8 218.034 27.4 218.034 24.4V20.2C218.034 17.2 218.734 14.8 220.134 13.1C221.534 11.4 223.434 10.5 225.834 10.5C228.034 10.5 229.734 11.2 230.934 12.5C232.134 13.8 232.834 15.7 232.934 18.2H230.034C229.934 16.3 229.534 15 228.834 14.2C228.134 13.4 227.134 13 225.834 13C224.234 13 223.134 13.6 222.234 14.8C221.434 16 220.934 17.8 220.934 20.2V24.4C220.934 26.7 221.334 28.5 222.134 29.8C222.934 31.1 224.034 31.7 225.534 31.7C227.034 31.7 228.134 31.3 228.734 30.6C229.334 29.8 229.734 28.4 229.934 26.5Z" fill="#D86411"/>
</svg>
