<svg width="21" height="14" viewBox="0 0 21 14" fill="none" xmlns="http://www.w3.org/2000/svg">
<path d="M18.3481 0H1.76802C0.793133 0 0 0.793133 0 1.76802V12.014C0 12.9888 0.793133 13.782 1.76802 13.782H18.3481C19.323 13.782 20.1161 12.9888 20.1161 12.014V1.76802C20.1161 0.793133 19.323 0 18.3481 0ZM18.1174 1.17868L17.8814 1.37517L10.7595 7.30553C10.353 7.64397 9.763 7.64397 9.35659 7.30553L2.23474 1.37517L1.99877 1.17868H18.1174ZM1.17868 2.02961L6.9814 6.86152L1.17868 10.7234V2.02961ZM18.3481 12.6033H1.76802C1.48325 12.6033 1.24508 12.4003 1.19051 12.1314L7.92646 7.64845L8.60239 8.21131C9.02413 8.56248 9.54113 8.73806 10.0581 8.73806C10.5751 8.73806 11.092 8.56248 11.5138 8.21131L12.1897 7.64845L18.9257 12.1314C18.871 12.4003 18.6329 12.6033 18.3481 12.6033ZM18.9374 10.7234L13.1347 6.86156L18.9374 2.02961V10.7234Z" fill="#F36E0F"/>
</svg>
