<svg width="24" height="32" viewBox="0 0 24 32" fill="none" xmlns="http://www.w3.org/2000/svg">
<path d="M23 12.9046C23 21.6453 12 30.9998 12 30.9998C12 30.9998 1 21.6453 1 12.9046C1 9.92407 2.15893 7.06562 4.22183 4.95807C6.28473 2.85051 9.08262 1.6665 12 1.6665C14.9174 1.6665 17.7153 2.85051 19.7782 4.95807C21.8411 7.06562 23 9.92407 23 12.9046Z" fill="#F36E0F" stroke="white" stroke-width="2" stroke-linecap="round" stroke-linejoin="round"/>
<path d="M12.0002 17.5556C14.7003 17.5556 16.8891 15.3668 16.8891 12.6667C16.8891 9.96666 14.7003 7.77783 12.0002 7.77783C9.30016 7.77783 7.11133 9.96666 7.11133 12.6667C7.11133 15.3668 9.30016 17.5556 12.0002 17.5556Z" fill="#F36E0F" stroke="white" stroke-width="2" stroke-linecap="round" stroke-linejoin="round"/>
</svg>
