<svg width="57" height="23" viewBox="0 0 57 23" fill="none" xmlns="http://www.w3.org/2000/svg">
<path d="M0.525391 21.9301L8.90565 0.108704H12.0166L20.9476 21.9301H17.658L15.1127 15.3212H5.98819L3.5917 21.9301H0.525391ZM6.82175 12.9694H14.2196L11.9422 6.92604C11.2476 5.09022 10.7316 3.58187 10.3942 2.401C10.1163 3.80019 9.72433 5.18946 9.21824 6.5688L6.82175 12.9694Z" fill="#191A1E"/>
<path d="M22.1206 21.9301V6.12225H24.5319V8.51874C25.1472 7.3974 25.7128 6.65811 26.2288 6.30087C26.7548 5.94363 27.3303 5.76501 27.9555 5.76501C28.8585 5.76501 29.7764 6.05279 30.7092 6.62834L29.7864 9.11414C29.1314 8.72713 28.4765 8.53362 27.8215 8.53362C27.2361 8.53362 26.7101 8.71224 26.2437 9.06948C25.7773 9.4168 25.4449 9.90304 25.2464 10.5282C24.9487 11.4809 24.7999 12.5228 24.7999 13.6541V21.9301H22.1206Z" fill="#191A1E"/>
<path d="M31.5547 3.1899V0.108704H34.234V3.1899H31.5547ZM31.5547 21.9301V6.12225H34.234V21.9301H31.5547Z" fill="#191A1E"/>
<path d="M47.8806 19.9802C46.8882 20.8237 45.9306 21.4191 45.0078 21.7664C44.0948 22.1137 43.1124 22.2874 42.0605 22.2874C40.324 22.2874 38.9893 21.8656 38.0565 21.0222C37.1237 20.1687 36.6573 19.0821 36.6573 17.7623C36.6573 16.9883 36.8309 16.2838 37.1783 15.6487C37.5355 15.0036 37.9969 14.4876 38.5626 14.1006C39.1381 13.7136 39.7831 13.4209 40.4976 13.2224C41.0236 13.0835 41.8174 12.9495 42.8792 12.8205C45.0425 12.5625 46.6352 12.2549 47.6573 11.8976C47.6672 11.5305 47.6722 11.2973 47.6722 11.198C47.6722 10.1065 47.4191 9.33741 46.9131 8.89086C46.2283 8.28554 45.2112 7.98288 43.8616 7.98288C42.6014 7.98288 41.6686 8.20615 41.0632 8.6527C40.4678 9.08933 40.0263 9.86831 39.7385 10.9897L37.1187 10.6324C37.3569 9.51107 37.7488 8.60805 38.2946 7.92334C38.8404 7.2287 39.6293 6.6978 40.6613 6.33064C41.6934 5.95355 42.8891 5.76501 44.2486 5.76501C45.5982 5.76501 46.6947 5.92378 47.5382 6.24133C48.3817 6.55888 49.0019 6.96077 49.3989 7.44702C49.7958 7.92334 50.0736 8.52866 50.2324 9.26299C50.3217 9.71946 50.3664 10.5431 50.3664 11.7339V15.3063C50.3664 17.7971 50.421 19.3749 50.5301 20.0397C50.6492 20.6947 50.8774 21.3248 51.2148 21.9301H48.4164C48.1386 21.3744 47.96 20.7245 47.8806 19.9802ZM47.6573 13.9964C46.6848 14.3934 45.2261 14.7308 43.2811 15.0086C42.1796 15.1674 41.4006 15.346 40.9442 15.5445C40.4877 15.7429 40.1354 16.0357 39.8873 16.4227C39.6392 16.7998 39.5152 17.2215 39.5152 17.6879C39.5152 18.4024 39.7831 18.9978 40.319 19.4741C40.8648 19.9504 41.6586 20.1886 42.7006 20.1886C43.7326 20.1886 44.6505 19.9653 45.4543 19.5188C46.2581 19.0623 46.8486 18.4421 47.2256 17.6581C47.5134 17.0528 47.6573 16.1597 47.6573 14.9788V13.9964Z" fill="#191A1E"/>
<path d="M53.7125 21.9301V0.108704H56.3918V21.9301H53.7125Z" fill="#191A1E"/>
</svg>
