<svg width="119" height="23" viewBox="0 0 119 23" fill="none" xmlns="http://www.w3.org/2000/svg">
<path d="M16.308 16.2632L18.1676 19.9214C17.5172 20.653 16.5519 21.2525 15.2716 21.72C14.0115 22.1671 12.66 22.3906 11.2171 22.3906C7.90446 22.3906 5.21166 21.3846 3.13872 19.3726C1.06577 17.32 0.0292969 14.6475 0.0292969 11.3552C0.0292969 8.14418 1.0048 5.50219 2.95581 3.42924C4.90682 1.3563 7.65043 0.319824 11.1866 0.319824C12.5279 0.319824 13.7778 0.523054 14.9362 0.929514C16.0946 1.33597 17.0193 1.87453 17.7103 2.54519L15.5459 6.20333C14.1233 5.32945 12.6702 4.8925 11.1866 4.8925C9.45917 4.8925 8.0264 5.46154 6.88831 6.59963C5.77055 7.7174 5.21166 9.30259 5.21166 11.3552C5.21166 13.2249 5.81119 14.7796 7.01025 16.0193C8.20931 17.2184 9.76402 17.8179 11.6744 17.8179C13.3815 17.8179 14.9261 17.2997 16.308 16.2632Z" fill="#191A1E"/>
<path d="M24.6691 22.0248H20.0964V8.30677H24.6691V22.0248ZM19.7001 3.58167C19.7001 2.80939 19.9643 2.18954 20.4927 1.72211C21.0211 1.23436 21.6816 0.990482 22.4742 0.990482C23.1855 0.990482 23.7952 1.23436 24.3033 1.72211C24.8114 2.20986 25.0654 2.82972 25.0654 3.58167C25.0654 4.41491 24.8114 5.08557 24.3033 5.59364C23.7952 6.10172 23.1855 6.35576 22.4742 6.35576C21.6613 6.35576 20.9907 6.11188 20.4623 5.62413C19.9542 5.11605 19.7001 4.43523 19.7001 3.58167Z" fill="#191A1E"/>
<path d="M32.2333 22.0248H27.6606V8.30677H32.2333V9.40421C32.843 8.51 33.788 8.06289 35.0684 8.06289C36.0236 8.06289 36.7349 8.23564 37.2023 8.58113L35.5866 12.849C34.9973 12.5035 34.4384 12.3307 33.91 12.3307C33.158 12.3307 32.5991 12.6559 32.2333 13.3062V22.0248Z" fill="#191A1E"/>
<path d="M48.3646 16.5986L50.4986 19.9519C49.2995 21.5777 47.4298 22.3906 44.8894 22.3906C42.6132 22.3906 40.7842 21.7301 39.4022 20.4091C38.0405 19.1084 37.3597 17.3607 37.3597 15.1658C37.3597 13.1132 38.0304 11.406 39.3717 10.0444C40.7537 8.6421 42.5014 7.94095 44.615 7.94095C47.1148 7.94095 48.9845 8.59129 50.2242 9.89196L48.1208 13.4891C47.2672 12.6356 46.2917 12.2088 45.1942 12.2088C44.3813 12.2088 43.6802 12.4831 43.0908 13.0319C42.5218 13.5806 42.2372 14.2919 42.2372 15.1658C42.2372 16.0397 42.5421 16.751 43.1518 17.2997C43.8021 17.8484 44.5033 18.1228 45.2552 18.1228C46.373 18.1228 47.4095 17.6147 48.3646 16.5986Z" fill="#191A1E"/>
<path d="M62.1722 17.6045L63.4221 20.8359C62.0401 21.8724 60.2618 22.3906 58.0873 22.3906C55.8518 22.3906 54.043 21.7301 52.661 20.4091C51.3197 19.0881 50.6491 17.3403 50.6491 15.1658C50.6491 13.0928 51.3299 11.3755 52.6915 10.0139C54.0735 8.63194 55.8721 7.94095 58.0873 7.94095C59.896 7.94095 61.4609 8.55064 62.7819 9.77002C64.0826 10.9488 64.7329 12.4933 64.7329 14.4037C64.7329 15.3182 64.6415 16.0803 64.4585 16.69H55.3742C55.7806 17.95 56.8476 18.58 58.575 18.58C59.9164 18.58 61.1154 18.2549 62.1722 17.6045ZM57.9349 11.7515C56.5935 11.7515 55.6892 12.3815 55.2217 13.6416H60.1602C60.1602 13.1132 59.957 12.6661 59.5505 12.3002C59.1441 11.9344 58.6055 11.7515 57.9349 11.7515Z" fill="#191A1E"/>
<path d="M77.5338 22.0248H72.6563V0.685637H77.5643L84.1489 9.67857L90.3678 0.685637H94.9709V22.0248H90.0934V8.42871L84.1489 16.751H83.4478L77.5338 8.52016V22.0248Z" fill="#191A1E"/>
<path d="M100.218 22.0248H99.6994V0.685637H100.126C101.041 0.685637 102.057 0.675476 103.175 0.655153C103.601 0.655153 104.069 0.655153 104.577 0.655153C105.105 0.63483 105.512 0.624669 105.796 0.624669C106.081 0.604346 106.294 0.594185 106.436 0.594185C110.44 0.594185 113.438 1.59001 115.429 3.58167C117.421 5.57332 118.417 8.10354 118.417 11.1723C118.417 14.3224 117.35 16.9339 115.216 19.0068C113.102 21.0595 110.095 22.0858 106.193 22.0858C105.4 22.0858 104.516 22.0756 103.54 22.0553C102.565 22.035 101.457 22.0248 100.218 22.0248ZM106.375 5.16686C105.583 5.16686 104.983 5.19735 104.577 5.25832V17.4521C105.146 17.4928 105.735 17.5131 106.345 17.5131C108.499 17.5131 110.186 16.9542 111.405 15.8364C112.625 14.7187 113.234 13.164 113.234 11.1723C113.234 9.28227 112.615 7.80885 111.375 6.75206C110.135 5.69526 108.469 5.16686 106.375 5.16686Z" fill="#191A1E"/>
</svg>
