<svg width="166" height="51" fill="none" xmlns="http://www.w3.org/2000/svg"><path d="M111.604 30.786v-12.39h4.147v5.775c0 .43-.089.894-.089.894h.179l4.523-6.669h3.522v12.39h-3.701v-5.81c0-.412.089-.823.089-.823h-.178l-4.524 6.633h-3.968zm-8.635-3.522c1.519 0 2.521-1.18 2.521-2.646 0-1.501-1.002-2.681-2.521-2.681-1.466 0-2.521 1.18-2.521 2.681 0 1.466 1.055 2.646 2.521 2.646zm0-9.189c3.951 0 6.901 2.789 6.901 6.543 0 3.719-2.95 6.508-6.901 6.508-3.916 0-6.865-2.789-6.865-6.508 0-3.736 2.95-6.543 6.865-6.543zM20.604 43.712c2.503 0 4.201-1.823 4.201-4.22 0-2.43-1.698-4.29-4.2-4.29-2.45 0-4.166 1.842-4.166 4.29 0 2.397 1.698 4.22 4.165 4.22zm0-10.78c3.88 0 6.633 2.789 6.633 6.56 0 3.72-2.753 6.49-6.633 6.49-3.844 0-6.615-2.77-6.615-6.49 0-3.753 2.771-6.56 6.615-6.56zm55.869 2.073c2.235 0 3.397 1.449 3.594 3.344h-7.152c.358-1.967 1.717-3.343 3.558-3.343zm5.864 5.274c.018-.25.036-.518.036-.768 0-3.773-1.949-6.562-6.025-6.562-3.486 0-6.007 2.79-6.007 6.562 0 .268.018.518.036.768.286 3.236 2.36 5.721 6.686 5.721 2.092 0 3.862-.643 5.149-1.68l-.966-1.77a6.92 6.92 0 01-4.111 1.377c-2.7 0-4.005-1.466-4.256-3.63h.018l9.44-.017zm10.834-7.008v5.078h-6.633V33.27h-2.467v12.39h2.468v-5.4h6.632v5.4h2.467V33.27h-2.467zm15.465 0H97.355v2.2h4.398v10.19h2.467V35.47h4.416v-2.2zm15.715 0h-2.467v12.39h2.467V33.27zm-90.017 5.882v-.107s.232-.072.43-.304c.214-.233 4.719-5.453 4.719-5.453h-2.771l-4.345 5.077h-.983v-5.095h-2.467v12.39h2.467v-5.4h1.127l4.701 5.4h3.075s-5.274-5.936-5.488-6.186a1.068 1.068 0 00-.465-.322zm79.933 4.648c-.769 0-1.466-.053-1.466-.053v-4.47s.537-.143 1.484-.143c2.056 0 2.968.805 2.968 2.288.018 1.449-.805 2.378-2.986 2.378zm.447-6.74c-1.144 0-1.913.143-1.913.143v-3.933h-2.467v12.39s2.02.196 4.13.196c3.879 0 5.149-2.36 5.149-4.54 0-2.2-1.144-4.256-4.899-4.256zM6.409 43.712c-2.485 0-3.808-1.823-3.755-4.22.054-2.43 1.466-4.29 3.951-4.29 1.377 0 3.218 1.252 3.218 3.522v3.415c-.768.983-1.966 1.573-3.414 1.573zm3.522-10.44l-.072 1.555H9.7c-.787-1.162-2.36-1.895-3.594-1.895-3.612 0-5.757 2.789-5.846 6.56-.09 3.72 2.091 6.49 5.703 6.49 1.662 0 2.681-.464 3.7-1.662h.161v1.108c0 2.396-1.662 3.344-3.54 3.344-1.734 0-3.075-.644-3.897-1.145l-.805 2.039c.787.41 2.253 1.287 4.702 1.287 3.469 0 6.007-2.056 6.007-6.025V33.27H9.93zm40.136-.001v8.975c-.733.912-1.842 1.466-3.236 1.466-2.27 0-3.308-1.824-3.236-4.22v-6.22h-2.396v6.22c-.09 3.72 1.395 6.49 5.006 6.49 1.645 0 2.771-.482 3.7-1.662h.162v1.108c0 2.396-1.663 3.343-3.54 3.343-1.734 0-3.075-.643-3.898-1.144l-.804 2.038c.786.412 2.252 1.288 4.702 1.288 3.468 0 6.007-2.056 6.007-6.025V33.27h-2.467zm16.233 0s-4.075 5.739-4.2 5.9a.91.91 0 00-.162.34h-.089s-.054-.161-.179-.34c-.125-.179-4.505-5.9-4.505-5.9h-2.324v12.39h2.467v-7.903c0-.554-.107-.858-.107-.858h.107l4.541 6.097h.107l4.202-6.097h.125s-.125.322-.125.858v7.903h2.467V33.27H66.3zm24.834-14.857s-3.469 4.506-3.612 4.684c-.16.215-.178.322-.178.322h-.18s-.035-.125-.196-.322c-.25-.303-3.844-4.684-3.844-4.684h-3.271v12.39h4.004v-5.22c0-.555-.09-.894-.09-.894h.18l3.218 3.7h.178l2.986-3.7h.179s-.09.34-.09.894v5.202h3.987v-12.39h-3.271v.018z" fill="#663A2A"/><path d="M141.14 30.245V17.678h-9.905v12.569c0 4.415 2.36 8.51 6.204 10.726l11.138 6.436V35.967l-6.186-3.576a2.443 2.443 0 01-1.251-2.145z" fill="#C79B65"/><path d="M148.56 42.456l11.156-6.436c3.825-2.217 6.203-6.31 6.203-10.727V.335h-17.342v9.905h7.42v15.036c0 .875-.465 1.698-1.234 2.145l-6.186 3.576v11.46h-.017z" fill="#E84B37"/><path d="M148.559.335l-17.324 17.342h17.324V.335z" fill="#663A2A"/></svg>