<svg width="94" height="23" viewBox="0 0 94 23" fill="none" xmlns="http://www.w3.org/2000/svg">
<path d="M0.628906 0.804303C1.40118 0.621396 2.23442 0.499458 3.12864 0.438488C4.02285 0.37752 4.9069 0.347036 5.78079 0.347036C6.71565 0.347036 7.66067 0.438489 8.61585 0.621395C9.59135 0.804302 10.4754 1.13963 11.268 1.62739C12.0606 2.11514 12.7008 2.7858 13.1885 3.63936C13.6966 4.49293 13.9506 5.58021 13.9506 6.90121C13.9506 8.20188 13.7169 9.29932 13.2495 10.1935C12.7821 11.0877 12.1622 11.8194 11.3899 12.3884C10.6177 12.9371 9.73361 13.3334 8.73779 13.5773C7.74196 13.8212 6.71565 13.9431 5.65885 13.9431C5.55724 13.9431 5.38449 13.9431 5.14061 13.9431C4.91706 13.9431 4.67319 13.9431 4.40899 13.9431C4.16511 13.9228 3.92123 13.9025 3.67736 13.8822C3.43348 13.8618 3.26074 13.8415 3.15912 13.8212V21.9301H0.628906V0.804303ZM5.84176 2.54192C5.31336 2.54192 4.80528 2.55208 4.31753 2.5724C3.82978 2.59273 3.44364 2.64354 3.15912 2.72483V11.5653C3.26074 11.606 3.42332 11.6365 3.64687 11.6568C3.87043 11.6568 4.10414 11.667 4.34802 11.6873C4.59189 11.6873 4.82561 11.6873 5.04916 11.6873C5.27271 11.6873 5.4353 11.6873 5.53691 11.6873C6.2279 11.6873 6.90872 11.6263 7.57938 11.5044C8.27036 11.3621 8.89021 11.1182 9.43893 10.7727C9.98765 10.4272 10.4246 9.9395 10.7498 9.30948C11.0953 8.67947 11.268 7.87671 11.268 6.90121C11.268 6.06796 11.1054 5.37698 10.7802 4.82826C10.4754 4.25921 10.0588 3.81211 9.53038 3.48694C9.02231 3.14145 8.4431 2.89757 7.79277 2.75531C7.14243 2.61305 6.49209 2.54192 5.84176 2.54192Z" fill="#191A1E"/>
<path d="M30.1979 2.84676H23.5523V21.9301H21.0221V2.84676H14.3765V0.590911H30.1979V2.84676Z" fill="#191A1E"/>
<path d="M48.3438 16.5038C48.3438 15.6503 48.0898 14.9593 47.5817 14.4309C47.0737 13.8822 46.4335 13.4046 45.6612 12.9981C44.9093 12.5713 44.0862 12.175 43.192 11.8092C42.2977 11.4434 41.4645 11.0065 40.6922 10.4984C39.9403 9.96998 39.3103 9.32981 38.8022 8.57785C38.2941 7.80558 38.0401 6.83008 38.0401 5.65134C38.0401 3.98485 38.6193 2.66386 39.7777 1.68835C40.9361 0.71285 42.5823 0.225098 44.7162 0.225098C45.9559 0.225098 47.0838 0.316551 48.1 0.499458C49.1161 0.682366 49.9087 0.91608 50.4778 1.2006L49.7156 3.42597C49.2482 3.20242 48.5572 2.98903 47.6427 2.7858C46.7485 2.58257 45.7323 2.48095 44.5942 2.48095C43.2529 2.48095 42.2469 2.7858 41.5763 3.39549C40.9056 3.98485 40.5703 4.686 40.5703 5.49892C40.5703 6.29152 40.8243 6.95201 41.3324 7.48041C41.8405 8.00881 42.4705 8.4864 43.2224 8.91318C43.9947 9.31964 44.828 9.7261 45.7222 10.1326C46.6164 10.539 47.4395 11.0166 48.1914 11.5653C48.9637 12.0937 49.6039 12.7339 50.1119 13.4859C50.62 14.2378 50.8741 15.1727 50.8741 16.2904C50.8741 17.205 50.7115 18.0281 50.3863 18.7597C50.0611 19.4913 49.5835 20.1213 48.9535 20.6497C48.3235 21.1781 47.5614 21.5846 46.6672 21.8691C45.773 22.1536 44.7568 22.2959 43.6187 22.2959C42.0945 22.2959 40.8345 22.1739 39.8387 21.9301C38.8428 21.7065 38.0706 21.4525 37.5218 21.168L38.3754 18.8816C38.8428 19.1458 39.5338 19.41 40.4483 19.6742C41.3629 19.9181 42.3892 20.04 43.5273 20.04C44.1979 20.04 44.828 19.9791 45.4173 19.8571C46.0067 19.7149 46.5148 19.5015 46.9416 19.217C47.3683 18.9121 47.7037 18.5361 47.9475 18.089C48.2117 17.6419 48.3438 17.1135 48.3438 16.5038Z" fill="#191A1E"/>
<path d="M53.6558 7.81574C54.428 7.34831 55.3223 7.00282 56.3384 6.77927C57.3749 6.55572 58.452 6.44394 59.5698 6.44394C60.6266 6.44394 61.47 6.5862 62.1 6.87072C62.7503 7.15524 63.2381 7.53122 63.5632 7.99865C63.9087 8.44576 64.1323 8.94367 64.2339 9.49239C64.3558 10.0411 64.4168 10.5898 64.4168 11.1386C64.4168 12.3579 64.3863 13.5468 64.3253 14.7052C64.2644 15.8637 64.2339 16.9611 64.2339 17.9976C64.2339 18.7495 64.2644 19.4608 64.3253 20.1315C64.3863 20.8021 64.4981 21.422 64.6607 21.991H62.8621L62.2219 19.8571H62.0695C61.8866 20.1416 61.6529 20.4262 61.3683 20.7107C61.1041 20.9749 60.779 21.2188 60.3928 21.4423C60.0067 21.6456 59.5596 21.8183 59.0515 21.9606C58.5434 22.1028 57.9642 22.1739 57.3139 22.1739C56.6636 22.1739 56.0539 22.0723 55.4848 21.8691C54.9361 21.6659 54.4585 21.3814 54.0521 21.0155C53.6456 20.6294 53.3204 20.1721 53.0766 19.6437C52.853 19.1153 52.7412 18.5158 52.7412 17.8451C52.7412 16.9509 52.9241 16.2091 53.29 15.6198C53.6558 15.0101 54.1638 14.5325 54.8142 14.187C55.4848 13.8212 56.2774 13.5672 57.192 13.4249C58.1268 13.2623 59.1531 13.181 60.2709 13.181C60.5554 13.181 60.8298 13.181 61.094 13.181C61.3785 13.181 61.663 13.2013 61.9476 13.242C62.0085 12.6323 62.039 12.0836 62.039 11.5958C62.039 10.4781 61.8155 9.69562 61.3683 9.24851C60.9212 8.80141 60.1083 8.57785 58.9296 8.57785C58.5841 8.57785 58.2081 8.60834 57.8017 8.66931C57.4155 8.70995 57.0091 8.78108 56.5823 8.8827C56.1758 8.96399 55.7795 9.07577 55.3934 9.21803C55.0276 9.33997 54.7024 9.48223 54.4179 9.64481L53.6558 7.81574ZM57.9846 20.04C58.5536 20.04 59.0617 19.9689 59.5088 19.8266C59.9559 19.6641 60.342 19.471 60.6672 19.2474C60.9924 19.0036 61.2566 18.7394 61.4598 18.4548C61.6834 18.1703 61.8459 17.896 61.9476 17.6318V15.1015C61.663 15.0812 61.3683 15.0711 61.0635 15.0711C60.779 15.0507 60.4945 15.0406 60.2099 15.0406C59.5799 15.0406 58.9601 15.0812 58.3504 15.1625C57.761 15.2235 57.2326 15.3556 56.7652 15.5588C56.3181 15.7417 55.9523 16.0059 55.6677 16.3514C55.4035 16.6766 55.2714 17.0932 55.2714 17.6013C55.2714 18.3126 55.5255 18.9019 56.0336 19.3694C56.5416 19.8165 57.192 20.04 57.9846 20.04Z" fill="#191A1E"/>
<path d="M78.0462 21.9301V13.242C78.0462 11.6568 77.8125 10.4679 77.3451 9.6753C76.898 8.86238 76.0647 8.45592 74.8454 8.45592C73.7682 8.45592 72.874 8.7506 72.1627 9.33997C71.4717 9.90901 70.984 10.6305 70.6995 11.5044V21.9301H68.2607V6.68782H69.9678L70.4251 8.54737H70.547C71.0348 7.89703 71.6851 7.36864 72.4981 6.96217C73.3313 6.53539 74.317 6.322 75.455 6.322C76.2883 6.322 77.0199 6.42361 77.6499 6.62684C78.2799 6.80975 78.7982 7.14508 79.2047 7.63283C79.6314 8.12059 79.9464 8.78108 80.1497 9.61433C80.3732 10.4272 80.485 11.4637 80.485 12.7237V21.9301H78.0462Z" fill="#191A1E"/>
<path d="M90.8764 17.7842C90.8764 17.1745 90.6935 16.6969 90.3277 16.3514C89.9619 16.0059 89.5046 15.7214 88.9559 15.4978C88.4275 15.254 87.8381 15.0304 87.1878 14.8272C86.5578 14.6036 85.9684 14.3293 85.4197 14.0041C84.8913 13.6586 84.4442 13.2217 84.0784 12.6933C83.7125 12.1649 83.5296 11.4536 83.5296 10.5593C83.5296 9.09609 83.9463 8.02913 84.7795 7.35847C85.6127 6.66749 86.7711 6.322 88.2547 6.322C89.3522 6.322 90.2667 6.42361 90.9983 6.62684C91.7503 6.80975 92.4006 7.03331 92.9493 7.2975L92.3701 9.30948C91.9027 9.08593 91.3337 8.89286 90.663 8.73028C90.0127 8.54737 89.3115 8.45592 88.5596 8.45592C87.6654 8.45592 87.0049 8.60834 86.5781 8.91318C86.1716 9.21803 85.9684 9.74643 85.9684 10.4984C85.9684 11.0268 86.1513 11.4434 86.5171 11.7482C86.8829 12.0328 87.33 12.297 87.8584 12.5408C88.4072 12.7644 88.9965 12.9879 89.6265 13.2115C90.2769 13.4351 90.8662 13.7297 91.3946 14.0956C91.9434 14.4614 92.4006 14.9288 92.7664 15.4978C93.1323 16.0466 93.3152 16.7782 93.3152 17.6927C93.3152 18.3431 93.2034 18.9528 92.9798 19.5218C92.7766 20.0908 92.4514 20.5786 92.0043 20.9851C91.5572 21.3915 90.9983 21.7065 90.3277 21.9301C89.6773 22.1739 88.9051 22.2959 88.0109 22.2959C86.8524 22.2959 85.8668 22.1841 85.0539 21.9606C84.2409 21.737 83.5601 21.4728 83.0114 21.168L83.743 19.095C84.2105 19.3592 84.8202 19.6031 85.5721 19.8266C86.3241 20.0502 87.0862 20.162 87.8584 20.162C88.7323 20.162 89.4538 19.9892 90.0228 19.6437C90.5919 19.2982 90.8764 18.6784 90.8764 17.7842Z" fill="#191A1E"/>
</svg>
