<svg width="32" height="19" viewBox="0 0 32 19" fill="none" xmlns="http://www.w3.org/2000/svg">
<path fill-rule="evenodd" clip-rule="evenodd" d="M21.6441 0.836478C21.7641 0.716198 21.9066 0.62077 22.0635 0.555658C22.2204 0.490546 22.3886 0.457031 22.5585 0.457031C22.7284 0.457031 22.8966 0.490546 23.0535 0.555658C23.2105 0.62077 23.353 0.716198 23.473 0.836478L31.2224 8.5859C31.3427 8.70588 31.4381 8.8484 31.5032 9.00532C31.5683 9.16223 31.6018 9.33045 31.6018 9.50033C31.6018 9.67022 31.5683 9.83844 31.5032 9.99535C31.4381 10.1523 31.3427 10.2948 31.2224 10.4148L23.473 18.1642C23.2304 18.4067 22.9015 18.543 22.5585 18.543C22.2155 18.543 21.8866 18.4067 21.6441 18.1642C21.4016 17.9217 21.2653 17.5927 21.2653 17.2498C21.2653 16.9068 21.4016 16.5778 21.6441 16.3353L28.4817 9.50033L21.6441 2.66534C21.5238 2.54537 21.4284 2.40284 21.3633 2.24593C21.2982 2.08901 21.2646 1.9208 21.2646 1.75091C21.2646 1.58102 21.2982 1.41281 21.3633 1.25589C21.4284 1.09898 21.5238 0.956454 21.6441 0.836478Z" fill="#5DADF6"/>
<path fill-rule="evenodd" clip-rule="evenodd" d="M0.601562 9.50034C0.601562 9.1578 0.737639 8.82928 0.979855 8.58706C1.22207 8.34485 1.55059 8.20877 1.89313 8.20877H29.0161C29.3587 8.20877 29.6872 8.34485 29.9294 8.58706C30.1716 8.82928 30.3077 9.1578 30.3077 9.50034C30.3077 9.84289 30.1716 10.1714 29.9294 10.4136C29.6872 10.6558 29.3587 10.7919 29.0161 10.7919H1.89313C1.55059 10.7919 1.22207 10.6558 0.979855 10.4136C0.737639 10.1714 0.601562 9.84289 0.601562 9.50034Z" fill="#5DADF6"/>
</svg>
