<svg width="109" height="28" viewBox="0 0 109 28" fill="none" xmlns="http://www.w3.org/2000/svg">
<path d="M9.75977 17.6309H5.55859V27H0.285156V1.40625H9.79492C12.8184 1.40625 15.1504 2.08008 16.791 3.42773C18.4316 4.77539 19.252 6.67969 19.252 9.14062C19.252 10.8867 18.8711 12.3457 18.1094 13.5176C17.3594 14.6777 16.2168 15.6035 14.6816 16.2949L20.2188 26.7539V27H14.5586L9.75977 17.6309ZM5.55859 13.3594H9.8125C11.1367 13.3594 12.1621 13.0254 12.8887 12.3574C13.6152 11.6777 13.9785 10.7461 13.9785 9.5625C13.9785 8.35547 13.6328 7.40625 12.9414 6.71484C12.2617 6.02344 11.2129 5.67773 9.79492 5.67773H5.55859V13.3594Z" fill="#191A1E"/>
<path d="M21.2523 17.3145C21.2523 15.4277 21.6156 13.7461 22.3422 12.2695C23.0688 10.793 24.1117 9.65039 25.4711 8.8418C26.8422 8.0332 28.4301 7.62891 30.2348 7.62891C32.8012 7.62891 34.893 8.41406 36.5102 9.98438C38.1391 11.5547 39.0473 13.6875 39.2348 16.3828L39.2699 17.6836C39.2699 20.6016 38.4555 22.9453 36.8266 24.7148C35.1977 26.4727 33.0121 27.3516 30.2699 27.3516C27.5277 27.3516 25.3363 26.4727 23.6957 24.7148C22.0668 22.957 21.2523 20.5664 21.2523 17.543V17.3145ZM26.3324 17.6836C26.3324 19.4883 26.6723 20.8711 27.352 21.832C28.0316 22.7812 29.0043 23.2559 30.2699 23.2559C31.5004 23.2559 32.4613 22.7871 33.1527 21.8496C33.8441 20.9004 34.1898 19.3887 34.1898 17.3145C34.1898 15.5449 33.8441 14.1738 33.1527 13.2012C32.4613 12.2285 31.4887 11.7422 30.2348 11.7422C28.9926 11.7422 28.0316 12.2285 27.352 13.2012C26.6723 14.1621 26.3324 15.6562 26.3324 17.6836Z" fill="#191A1E"/>
<path d="M58.6375 17.666C58.6375 20.7129 57.9871 23.0918 56.6863 24.8027C55.3855 26.502 53.5691 27.3516 51.2371 27.3516C49.1746 27.3516 47.5281 26.5605 46.2977 24.9785L46.0691 27H41.4988V0H46.5789V9.68555C47.7508 8.31445 49.2918 7.62891 51.202 7.62891C53.5223 7.62891 55.3387 8.48438 56.6512 10.1953C57.9754 11.8945 58.6375 14.291 58.6375 17.3848V17.666ZM53.5574 17.2969C53.5574 15.375 53.2527 13.9746 52.6434 13.0957C52.034 12.2051 51.1258 11.7598 49.9188 11.7598C48.3016 11.7598 47.1883 12.4219 46.5789 13.7461V21.252C47.2 22.5879 48.325 23.2559 49.9539 23.2559C51.5945 23.2559 52.6727 22.4473 53.1883 20.8301C53.4344 20.0566 53.5574 18.8789 53.5574 17.2969Z" fill="#191A1E"/>
<path d="M60.093 17.3145C60.093 15.4277 60.4562 13.7461 61.1828 12.2695C61.9094 10.793 62.9523 9.65039 64.3117 8.8418C65.6828 8.0332 67.2707 7.62891 69.0754 7.62891C71.6418 7.62891 73.7336 8.41406 75.3508 9.98438C76.9797 11.5547 77.8879 13.6875 78.0754 16.3828L78.1105 17.6836C78.1105 20.6016 77.2961 22.9453 75.6672 24.7148C74.0383 26.4727 71.8527 27.3516 69.1105 27.3516C66.3684 27.3516 64.177 26.4727 62.5363 24.7148C60.9074 22.957 60.093 20.5664 60.093 17.543V17.3145ZM65.173 17.6836C65.173 19.4883 65.5129 20.8711 66.1926 21.832C66.8723 22.7812 67.8449 23.2559 69.1105 23.2559C70.341 23.2559 71.302 22.7871 71.9934 21.8496C72.6848 20.9004 73.0305 19.3887 73.0305 17.3145C73.0305 15.5449 72.6848 14.1738 71.9934 13.2012C71.302 12.2285 70.3293 11.7422 69.0754 11.7422C67.8332 11.7422 66.8723 12.2285 66.1926 13.2012C65.5129 14.1621 65.173 15.6562 65.173 17.6836Z" fill="#191A1E"/>
<path d="M86.4215 3.30469V7.98047H89.6734V11.707H86.4215V21.1992C86.4215 21.9023 86.5563 22.4062 86.8258 22.7109C87.0953 23.0156 87.6109 23.168 88.3727 23.168C88.9352 23.168 89.4332 23.127 89.8668 23.0449V26.8945C88.8707 27.1992 87.8453 27.3516 86.7906 27.3516C83.2281 27.3516 81.4117 25.5527 81.3414 21.9551V11.707H78.5641V7.98047H81.3414V3.30469H86.4215Z" fill="#191A1E"/>
<path d="M90.2852 17.3145C90.2852 15.4277 90.6484 13.7461 91.375 12.2695C92.1016 10.793 93.1445 9.65039 94.5039 8.8418C95.875 8.0332 97.4629 7.62891 99.2676 7.62891C101.834 7.62891 103.926 8.41406 105.543 9.98438C107.172 11.5547 108.08 13.6875 108.268 16.3828L108.303 17.6836C108.303 20.6016 107.488 22.9453 105.859 24.7148C104.23 26.4727 102.045 27.3516 99.3027 27.3516C96.5605 27.3516 94.3691 26.4727 92.7285 24.7148C91.0996 22.957 90.2852 20.5664 90.2852 17.543V17.3145ZM95.3652 17.6836C95.3652 19.4883 95.7051 20.8711 96.3848 21.832C97.0645 22.7812 98.0371 23.2559 99.3027 23.2559C100.533 23.2559 101.494 22.7871 102.186 21.8496C102.877 20.9004 103.223 19.3887 103.223 17.3145C103.223 15.5449 102.877 14.1738 102.186 13.2012C101.494 12.2285 100.521 11.7422 99.2676 11.7422C98.0254 11.7422 97.0645 12.2285 96.3848 13.2012C95.7051 14.1621 95.3652 15.6562 95.3652 17.6836Z" fill="#191A1E"/>
</svg>
