<svg width="120" height="111" viewBox="0 0 120 111" fill="none" xmlns="http://www.w3.org/2000/svg">
<path d="M55.0005 111C24.6754 111 0 86.1012 0 55.5005C0 24.8997 24.6754 0 55.0005 0C65.5455 0 75.805 3.03209 84.67 8.77383C86.4105 9.90463 86.9204 12.2457 85.7998 14.0065C84.6755 15.7674 82.3602 16.2764 80.6152 15.1466C72.965 10.1864 64.1054 7.5682 55.0005 7.5682C28.8099 7.5682 7.50002 29.0718 7.50002 55.5005C7.50002 81.9282 28.8099 103.432 55.0005 103.432C81.1901 103.432 102.5 81.9282 102.5 55.5005C102.5 53.9207 102.425 52.3566 102.28 50.8184C102.081 48.7342 103.59 46.8874 105.65 46.686C107.72 46.4938 109.545 48.008 109.745 50.0867C109.915 51.8679 110 53.674 110 55.5005C110 86.1012 85.3256 111 55.0005 111Z" fill="#F36E0F"/>
<path d="M61.2475 69C60.2881 69 59.3277 68.6259 58.598 67.874L36.0986 44.8335C34.6338 43.3325 34.6338 40.9006 36.0986 39.4005C37.5634 37.9005 39.9382 37.9005 41.403 39.4005L61.253 59.7279L113.596 6.12503C115.062 4.62499 117.437 4.62499 118.901 6.12503C120.366 7.62506 120.366 10.057 118.901 11.557L63.9025 67.8787C63.1673 68.6259 62.2079 69 61.2475 69Z" fill="#F36E0F"/>
</svg>
