<svg width="410" height="223" fill="none" xmlns="http://www.w3.org/2000/svg"><g opacity=".8"><rect width="410" height="223" rx="27" fill="#fff"/><path d="M10 24c0-8.284 6.716-15 15-15h357c8.284 0 15 6.716 15 15v13H10V24zm0 19h387v152c0 8.284-6.716 15-15 15H25c-8.284 0-15-6.716-15-15V43z" fill="#EFEFEF"/><rect x="308" y="19" width="61" height="8" rx="4" fill="#fff"/><path d="M285.494 116.181l-37.965-40.112a6.165 6.165 0 00-8.703-.251 6.128 6.128 0 00-.251 8.679l33.978 35.895-33.978 35.9a6.128 6.128 0 00.251 8.679 6.146 6.146 0 004.225 1.674 6.153 6.153 0 004.478-1.922l37.966-40.113a6.13 6.13 0 00-.001-8.429zM171.6 156.29l-33.976-35.898L171.6 84.495a6.127 6.127 0 00-.252-8.68 6.169 6.169 0 00-8.703.252l-37.966 40.112a6.13 6.13 0 000 8.43l37.968 40.113a6.144 6.144 0 004.477 1.924 6.143 6.143 0 004.224-1.677 6.125 6.125 0 00.252-8.679zm43.448-100.907c-3.36-.507-6.504 1.793-7.017 5.143l-18.059 117.879c-.513 3.352 1.795 6.485 5.157 6.997.316.047.628.069.938.069 2.99 0 5.612-2.175 6.078-5.212l18.06-117.879c.513-3.352-1.796-6.485-5.157-6.997z" fill="#fff"/><circle cx="88" cy="23" r="4" fill="#fff" fill-opacity=".9"/><circle cx="42" cy="23" r="4" fill="#fff" fill-opacity=".9"/><circle cx="65" cy="23" r="4" fill="#fff" fill-opacity=".9"/></g></svg>