<svg width="110" height="110" viewBox="0 0 110 110" fill="none" xmlns="http://www.w3.org/2000/svg">
<path d="M104.049 0H23.167C22.2772 0 21.5557 0.821769 21.5557 1.83594C21.5557 2.85012 22.2772 3.67189 23.167 3.67189H104.049C105.554 3.67189 106.778 5.06647 106.778 6.78051V20.2762H3.22314V6.78076C3.22314 5.06672 4.4471 3.67213 5.95165 3.67213H15.6475C16.5374 3.67213 17.2588 2.85037 17.2588 1.83619C17.2588 0.822013 16.5374 0.000244658 15.6475 0.000244658H5.95165C2.67013 -1.3448e-07 0.000488281 3.04179 0.000488281 6.78076V82.2258C0.000488281 83.24 0.721932 84.0618 1.61181 84.0618C2.50169 84.0618 3.22314 83.24 3.22314 82.2258V23.9481H106.778V30.3589C106.778 31.3731 107.499 32.1949 108.389 32.1949C109.279 32.1949 110 31.3731 110 30.3589V6.78076C110 3.04179 107.331 0 104.049 0V0Z" fill="white"/>
<path d="M94.2816 14.9406C95.7199 14.9406 96.8859 13.6121 96.8859 11.9732C96.8859 10.3344 95.7199 9.00586 94.2816 9.00586C92.8432 9.00586 91.6772 10.3344 91.6772 11.9732C91.6772 13.6121 92.8432 14.9406 94.2816 14.9406Z" fill="white"/>
<path d="M85.3836 14.9406C86.822 14.9406 87.988 13.6121 87.988 11.9732C87.988 10.3344 86.822 9.00586 85.3836 9.00586C83.9453 9.00586 82.7793 10.3344 82.7793 11.9732C82.7793 13.6121 83.9453 14.9406 85.3836 14.9406Z" fill="white"/>
<path d="M76.4857 14.9406C77.924 14.9406 79.09 13.6121 79.09 11.9732C79.09 10.3344 77.924 9.00586 76.4857 9.00586C75.0473 9.00586 73.8813 10.3344 73.8813 11.9732C73.8813 13.6121 75.0473 14.9406 76.4857 14.9406Z" fill="white"/>
<path d="M108.388 37.0908C107.499 37.0908 106.777 37.9126 106.777 38.9268V103.219C106.777 104.933 105.553 106.328 104.049 106.328H5.95116C4.44661 106.328 3.22265 104.933 3.22265 103.219V90.7934C3.22265 89.7792 2.50121 88.9575 1.61132 88.9575C0.721444 88.9575 0 89.7792 0 90.7934V103.219C0 106.958 2.66964 110 5.95116 110H104.049C107.33 110 110 106.958 110 103.219V38.9268C110 37.9126 109.278 37.0908 108.388 37.0908V37.0908Z" fill="white"/>
<path d="M54.9741 36C39.549 36 27 48.5505 27 63.9741C27 79.3992 39.549 91.9483 54.9741 91.9483C70.3978 91.9483 82.9468 79.3992 82.9468 63.9741C82.9468 48.5505 70.3978 36 54.9741 36ZM70.4623 61.5552L53.5569 78.4606C52.4921 79.5253 51.0505 80.1201 49.5516 80.1201C49.4613 80.1201 49.3696 80.1186 49.2764 80.1129C47.6815 80.0355 46.1925 79.2889 45.1765 78.0551L37.9469 69.2677C35.9593 66.8517 36.3061 63.282 38.7222 61.2944C41.1383 59.3053 44.7079 59.6521 46.6955 62.0682L49.96 66.0348L62.4517 53.5446C64.6643 51.332 68.2511 51.332 70.4623 53.5446C72.6763 55.7557 72.6763 59.3426 70.4623 61.5552V61.5552Z" fill="#F36E0F"/>
</svg>
