<svg width="110" height="110" viewBox="0 0 110 110" fill="none" xmlns="http://www.w3.org/2000/svg">
<path d="M104.049 0H23.167C22.2772 0 21.5557 0.821769 21.5557 1.83594C21.5557 2.85012 22.2772 3.67189 23.167 3.67189H104.049C105.554 3.67189 106.778 5.06647 106.778 6.78051V20.2762H3.22314V6.78076C3.22314 5.06672 4.4471 3.67213 5.95165 3.67213H15.6475C16.5374 3.67213 17.2588 2.85037 17.2588 1.83619C17.2588 0.822013 16.5374 0.000244658 15.6475 0.000244658H5.95165C2.67013 -1.3448e-07 0.000488281 3.04179 0.000488281 6.78076V82.2258C0.000488281 83.24 0.721932 84.0618 1.61181 84.0618C2.50169 84.0618 3.22314 83.24 3.22314 82.2258V23.9481H106.778V30.3589C106.778 31.3731 107.499 32.1949 108.389 32.1949C109.279 32.1949 110 31.3731 110 30.3589V6.78076C110 3.04179 107.331 0 104.049 0V0Z" fill="white"/>
<path d="M94.2816 14.9406C95.7199 14.9406 96.8859 13.6121 96.8859 11.9732C96.8859 10.3344 95.7199 9.00586 94.2816 9.00586C92.8432 9.00586 91.6772 10.3344 91.6772 11.9732C91.6772 13.6121 92.8432 14.9406 94.2816 14.9406Z" fill="white"/>
<path d="M85.3836 14.9406C86.822 14.9406 87.988 13.6121 87.988 11.9732C87.988 10.3344 86.822 9.00586 85.3836 9.00586C83.9453 9.00586 82.7793 10.3344 82.7793 11.9732C82.7793 13.6121 83.9453 14.9406 85.3836 14.9406Z" fill="white"/>
<path d="M76.4857 14.9406C77.924 14.9406 79.09 13.6121 79.09 11.9732C79.09 10.3344 77.924 9.00586 76.4857 9.00586C75.0473 9.00586 73.8813 10.3344 73.8813 11.9732C73.8813 13.6121 75.0473 14.9406 76.4857 14.9406Z" fill="white"/>
<path d="M108.388 37.0908C107.499 37.0908 106.777 37.9126 106.777 38.9268V103.219C106.777 104.933 105.553 106.328 104.049 106.328H5.95116C4.44661 106.328 3.22265 104.933 3.22265 103.219V90.7934C3.22265 89.7792 2.50121 88.9575 1.61132 88.9575C0.721444 88.9575 0 89.7792 0 90.7934V103.219C0 106.958 2.66964 110 5.95116 110H104.049C107.33 110 110 106.958 110 103.219V38.9268C110 37.9126 109.278 37.0908 108.388 37.0908V37.0908Z" fill="white"/>
<path d="M15.0669 47.1919H50.6593C51.5492 47.1919 52.2706 46.3701 52.2706 45.356C52.2706 44.3418 51.5492 43.52 50.6593 43.52H15.0669C14.177 43.52 13.4556 44.3418 13.4556 45.356C13.4556 46.3701 14.177 47.1919 15.0669 47.1919Z" fill="white"/>
<path d="M71.4941 35.6069H31.3442C30.4544 35.6069 29.7329 36.4287 29.7329 37.4429C29.7329 38.4571 30.4544 39.2788 31.3442 39.2788H71.4941C72.384 39.2788 73.1055 38.4571 73.1055 37.4429C73.1055 36.4287 72.3842 35.6069 71.4941 35.6069Z" fill="white"/>
<path d="M15.0669 39.2788H23.7481C24.6379 39.2788 25.3594 38.4571 25.3594 37.4429C25.3594 36.4287 24.6379 35.6069 23.7481 35.6069H15.0669C14.177 35.6069 13.4556 36.4287 13.4556 37.4429C13.4556 38.4571 14.177 39.2788 15.0669 39.2788Z" fill="white"/>
<path d="M18.5392 63.0179C21.3422 63.0179 23.623 60.4194 23.623 57.2256C23.623 54.0316 21.3425 51.4331 18.5392 51.4331C15.7359 51.4331 13.4556 54.0316 13.4556 57.2256C13.4556 60.4194 15.7361 63.0179 18.5392 63.0179ZM18.5392 55.105C19.5653 55.105 20.4004 56.0565 20.4004 57.2256C20.4004 58.3948 19.5655 59.346 18.5392 59.346C17.5129 59.346 16.678 58.3948 16.678 57.2256C16.678 56.0565 17.5131 55.105 18.5392 55.105Z" fill="#F36E0F"/>
<path d="M37.5129 57.2256C37.5129 54.0316 35.2323 51.4331 32.4291 51.4331C29.6258 51.4331 27.3452 54.0316 27.3452 57.2256C27.3452 60.4194 29.6258 63.0179 32.4291 63.0179C35.2323 63.0179 37.5129 60.4194 37.5129 57.2256ZM30.5681 57.2256C30.5681 56.0565 31.403 55.105 32.4293 55.105C33.4556 55.105 34.2905 56.0565 34.2905 57.2256C34.2905 58.3948 33.4556 59.346 32.4293 59.346C31.403 59.346 30.5681 58.3948 30.5681 57.2256Z" fill="#F36E0F"/>
<path d="M51.4025 57.2256C51.4025 54.0316 49.122 51.4331 46.3187 51.4331C43.5154 51.4331 41.2349 54.0316 41.2349 57.2256C41.2349 60.4194 43.5154 63.0179 46.3187 63.0179C49.122 63.0179 51.4025 60.4194 51.4025 57.2256ZM44.4577 57.2256C44.4577 56.0565 45.2926 55.105 46.3189 55.105C47.3452 55.105 48.1801 56.0565 48.1801 57.2256C48.1801 58.3948 47.3452 59.346 46.3189 59.346C45.2926 59.346 44.4577 58.3948 44.4577 57.2256Z" fill="#F36E0F"/>
<path d="M65.2922 57.2256C65.2922 54.0316 63.0116 51.4331 60.2083 51.4331C57.4051 51.4331 55.1245 54.0316 55.1245 57.2256C55.1245 60.4194 57.4051 63.0179 60.2083 63.0179C63.0116 63.0179 65.2922 60.4194 65.2922 57.2256ZM58.3474 57.2256C58.3474 56.0565 59.1823 55.105 60.2086 55.105C61.2349 55.105 62.0697 56.0565 62.0697 57.2256C62.0697 58.3948 61.2349 59.346 60.2086 59.346C59.1823 59.346 58.3474 58.3948 58.3474 57.2256Z" fill="#F36E0F"/>
<path d="M15.0669 78.8438H50.6593C51.5492 78.8438 52.2706 78.022 52.2706 77.0078C52.2706 75.9936 51.5492 75.1719 50.6593 75.1719H15.0669C14.177 75.1719 13.4556 75.9936 13.4556 77.0078C13.4556 78.022 14.177 78.8438 15.0669 78.8438Z" fill="white"/>
<path d="M73.1055 69.0947C73.1055 68.0806 72.384 67.2588 71.4941 67.2588H31.3442C30.4544 67.2588 29.7329 68.0806 29.7329 69.0947C29.7329 70.1089 30.4544 70.9307 31.3442 70.9307H71.4941C72.3842 70.9307 73.1055 70.1089 73.1055 69.0947Z" fill="white"/>
<path d="M15.0669 70.9307H23.7481C24.6379 70.9307 25.3594 70.1089 25.3594 69.0947C25.3594 68.0806 24.6379 67.2588 23.7481 67.2588H15.0669C14.177 67.2588 13.4556 68.0806 13.4556 69.0947C13.4556 70.1089 14.177 70.9307 15.0669 70.9307Z" fill="white"/>
<path d="M18.5392 94.6698C21.3422 94.6698 23.623 92.0713 23.623 88.8775C23.623 85.6834 21.3425 83.085 18.5392 83.085C15.7359 83.085 13.4556 85.6834 13.4556 88.8775C13.4556 92.0711 15.7361 94.6698 18.5392 94.6698ZM18.5392 86.7566C19.5653 86.7566 20.4004 87.7081 20.4004 88.8772C20.4004 90.0464 19.5655 90.9976 18.5392 90.9976C17.5129 90.9976 16.678 90.0464 16.678 88.8772C16.678 87.7081 17.5131 86.7566 18.5392 86.7566Z" fill="white"/>
<path d="M27.3452 88.8775C27.3452 92.0713 29.6258 94.6698 32.429 94.6698C35.2323 94.6698 37.5129 92.0713 37.5129 88.8775C37.5129 85.6834 35.2323 83.085 32.429 83.085C29.6258 83.085 27.3452 85.6834 27.3452 88.8775V88.8775ZM34.29 88.8775C34.29 90.0466 33.4551 90.9979 32.4288 90.9979C31.4025 90.9979 30.5677 90.0466 30.5677 88.8775C30.5677 87.7084 31.4025 86.7569 32.4288 86.7569C33.4551 86.7569 34.29 87.7081 34.29 88.8775Z" fill="white"/>
<path d="M46.3187 83.085C43.5156 83.085 41.2349 85.6834 41.2349 88.8775C41.2349 92.0713 43.5154 94.6698 46.3187 94.6698C49.122 94.6698 51.4025 92.0713 51.4025 88.8775C51.4025 85.6837 49.122 83.085 46.3187 83.085ZM46.3187 90.9981C45.2926 90.9981 44.4575 90.0469 44.4575 88.8777C44.4575 87.7086 45.2924 86.7571 46.3187 86.7571C47.345 86.7571 48.1799 87.7086 48.1799 88.8777C48.1799 90.0469 47.345 90.9981 46.3187 90.9981Z" fill="white"/>
<path d="M55.125 88.8775C55.125 92.0713 57.4056 94.6698 60.2088 94.6698C63.0121 94.6698 65.2927 92.0713 65.2927 88.8775C65.2927 85.6834 63.0121 83.085 60.2088 83.085C57.4056 83.085 55.125 85.6834 55.125 88.8775ZM62.0698 88.8775C62.0698 90.0466 61.2349 90.9979 60.2086 90.9979C59.1823 90.9979 58.3474 90.0466 58.3474 88.8775C58.3474 87.7084 59.1823 86.7569 60.2086 86.7569C61.2349 86.7569 62.0698 87.7081 62.0698 88.8775Z" fill="white"/>
<path d="M96.544 90.3115V30.0249C96.544 29.0107 95.8225 28.189 94.9326 28.189H86.2515C85.3616 28.189 84.6401 29.0107 84.6401 30.0249V90.3115C84.6401 92.8071 85.3581 95.2861 86.662 97.2917L89.2973 101.345C89.6013 101.813 90.0815 102.088 90.5921 102.088C91.1028 102.088 91.583 101.813 91.887 101.345L94.5223 97.2917V97.292C95.8259 95.2861 96.544 92.8071 96.544 90.3115V90.3115ZM87.8628 40.763H93.3213V45.004H87.8628V40.763ZM93.3213 31.8609V37.0911H87.8628V31.8609H93.3213ZM91.9326 95.106L90.5921 97.1678L89.2517 95.1062C88.3563 93.7285 87.863 92.0257 87.863 90.3115V48.6759H93.3215V90.3115C93.3213 92.0257 92.828 93.7285 91.9326 95.106V95.106Z" fill="#F36E0F"/>
</svg>
