<svg width="150" height="120" viewBox="0 0 150 120" fill="none" xmlns="http://www.w3.org/2000/svg">
<path d="M22.6135 23.4953C23.5042 23.4953 24.2264 22.7732 24.2264 21.8824V18.959H119.628V34.2401C119.628 35.1309 120.35 35.853 121.241 35.853C122.132 35.853 122.854 35.1309 122.854 34.2401V6.77511C122.854 3.03926 119.815 0 116.079 0H27.7754C24.0397 0 21.0005 3.03926 21.0005 6.77511V21.8824C21.0005 22.7732 21.7227 23.4953 22.6135 23.4953ZM27.7754 3.22594H116.079C118.036 3.22594 119.628 4.81804 119.628 6.77511V15.7331H24.2264V6.77511C24.2264 4.81804 25.8185 3.22594 27.7754 3.22594Z" fill="white"/>
<path d="M56.5483 98.6275H27.7749C25.8178 98.6275 24.2259 97.0354 24.2259 95.0785V28.7565C24.2259 27.8657 23.5038 27.1436 22.613 27.1436C21.7222 27.1436 21 27.8657 21 28.7565V95.0785C21 98.8144 24.0393 101.853 27.7749 101.853H56.5483C57.4391 101.853 58.1613 101.131 58.1613 100.24C58.1613 99.3497 57.4391 98.6275 56.5483 98.6275Z" fill="white"/>
<path d="M123.362 39.0786H68.9656C64.7867 39.0786 61.3872 42.4783 61.3872 46.6572V67.6137C61.3872 68.5045 62.1094 69.2267 63.0002 69.2267C63.891 69.2267 64.6131 68.5045 64.6131 67.6137V56.789H127.715V102.318C127.715 104.718 125.762 106.671 123.363 106.671H68.9656C66.5657 106.671 64.6131 104.718 64.6131 102.318V74.4878C64.6131 73.597 63.891 72.8748 63.0002 72.8748C62.1094 72.8748 61.3872 73.597 61.3872 74.4878V102.318C61.3872 106.497 64.7869 109.897 68.9656 109.897H123.362C127.541 109.897 130.941 106.497 130.941 102.318V46.6572C130.941 42.4783 127.541 39.0786 123.362 39.0786ZM64.6131 53.5631V46.6572C64.6131 44.2571 66.5657 42.3045 68.9656 42.3045H123.362C125.762 42.3045 127.715 44.2571 127.715 46.6572V53.5631H64.6131Z" fill="white"/>
<path d="M30.8845 11.0111H32.0957C32.9865 11.0111 33.7087 10.2889 33.7087 9.39812C33.7087 8.50734 32.9865 7.78516 32.0957 7.78516H30.8845C29.9937 7.78516 29.2715 8.50734 29.2715 9.39812C29.2715 10.2889 29.9937 11.0111 30.8845 11.0111Z" fill="white"/>
<path d="M42.1032 11.0111H43.3144C44.2052 11.0111 44.9274 10.2889 44.9274 9.39812C44.9274 8.50734 44.2052 7.78516 43.3144 7.78516H42.1032C41.2124 7.78516 40.4902 8.50734 40.4902 9.39812C40.4902 10.2889 41.2124 11.0111 42.1032 11.0111Z" fill="white"/>
<path d="M53.322 11.0111H54.5332C55.424 11.0111 56.1461 10.2889 56.1461 9.39812C56.1461 8.50734 55.424 7.78516 54.5332 7.78516H53.322C52.4312 7.78516 51.709 8.50734 51.709 9.39812C51.709 10.2889 52.4312 11.0111 53.322 11.0111Z" fill="white"/>
<g filter="url(#filter0_d)">
<path d="M115.162 78.5121H108.37C107.479 78.5121 106.757 79.2343 106.757 80.1251C106.757 81.0159 107.479 81.7381 108.37 81.7381H115.162C117.873 81.7381 120.078 79.5326 120.078 76.8217V69.9739C120.078 67.2631 117.873 65.0576 115.162 65.0576H77.1665C74.4557 65.0576 72.25 67.2631 72.25 69.9739V76.8217C72.25 79.5326 74.4555 81.7381 77.1665 81.7381H101.496C102.387 81.7381 103.109 81.0159 103.109 80.1251C103.109 79.2343 102.387 78.5121 101.496 78.5121H77.1665C76.2345 78.5121 75.4759 77.7538 75.4759 76.8217V69.9739C75.4759 69.0419 76.2345 68.2836 77.1665 68.2836H115.162C116.094 68.2836 116.853 69.0419 116.853 69.9739V76.8217C116.853 77.7538 116.094 78.5121 115.162 78.5121Z" fill="#F36E0F"/>
</g>
<g filter="url(#filter1_d)">
<path d="M37.9587 32.2484H106.351C107.242 32.2484 107.964 31.5262 107.964 30.6354C107.964 29.7446 107.242 29.0225 106.351 29.0225H37.9587C35.9883 29.0225 34.3853 30.6255 34.3853 32.5959V52.7107C34.3853 54.6811 35.9883 56.2842 37.9587 56.2842H52.4898C53.3806 56.2842 54.1028 55.562 54.1028 54.6712C54.1028 53.7804 53.3806 53.0583 52.4898 53.0583H37.9587C37.7671 53.0583 37.6112 52.9023 37.6112 52.7107V32.5959C37.6112 32.4043 37.7671 32.2484 37.9587 32.2484Z" fill="#F36E0F"/>
</g>
<path d="M52.4354 63.1221H35.9982C35.1074 63.1221 34.3853 63.8442 34.3853 64.735C34.3853 65.6258 35.1074 66.348 35.9982 66.348H52.4354C53.3262 66.348 54.0484 65.6258 54.0484 64.735C54.0484 63.8442 53.3262 63.1221 52.4354 63.1221Z" fill="white"/>
<path d="M52.4354 75.2134H35.9982C35.1074 75.2134 34.3853 75.9356 34.3853 76.8263C34.3853 77.7171 35.1074 78.4393 35.9982 78.4393H52.4354C53.3262 78.4393 54.0484 77.7171 54.0484 76.8263C54.0484 75.9356 53.3262 75.2134 52.4354 75.2134Z" fill="white"/>
<path d="M73.863 95.6664H118.466C119.357 95.6664 120.079 94.9442 120.079 94.0534C120.079 93.1626 119.357 92.4404 118.466 92.4404H73.863C72.9722 92.4404 72.25 93.1626 72.25 94.0534C72.25 94.9442 72.9722 95.6664 73.863 95.6664Z" fill="white"/>
<defs>
<filter id="filter0_d" x="41.25" y="43.0576" width="107.828" height="76.6805" filterUnits="userSpaceOnUse" color-interpolation-filters="sRGB">
<feFlood flood-opacity="0" result="BackgroundImageFix"/>
<feColorMatrix in="SourceAlpha" type="matrix" values="0 0 0 0 0 0 0 0 0 0 0 0 0 0 0 0 0 0 127 0"/>
<feOffset dx="-1" dy="8"/>
<feGaussianBlur stdDeviation="15"/>
<feColorMatrix type="matrix" values="0 0 0 0 0.952941 0 0 0 0 0.431372 0 0 0 0 0.0588235 0 0 0 0.38 0"/>
<feBlend mode="normal" in2="BackgroundImageFix" result="effect1_dropShadow"/>
<feBlend mode="normal" in="SourceGraphic" in2="effect1_dropShadow" result="shape"/>
</filter>
<filter id="filter1_d" x="0.385254" y="4.02246" width="139.579" height="93.2617" filterUnits="userSpaceOnUse" color-interpolation-filters="sRGB">
<feFlood flood-opacity="0" result="BackgroundImageFix"/>
<feColorMatrix in="SourceAlpha" type="matrix" values="0 0 0 0 0 0 0 0 0 0 0 0 0 0 0 0 0 0 127 0"/>
<feMorphology radius="3" operator="dilate" in="SourceAlpha" result="effect1_dropShadow"/>
<feOffset dx="-1" dy="8"/>
<feGaussianBlur stdDeviation="15"/>
<feColorMatrix type="matrix" values="0 0 0 0 0.952941 0 0 0 0 0.431372 0 0 0 0 0.0588235 0 0 0 0.18 0"/>
<feBlend mode="normal" in2="BackgroundImageFix" result="effect1_dropShadow"/>
<feBlend mode="normal" in="SourceGraphic" in2="effect1_dropShadow" result="shape"/>
</filter>
</defs>
</svg>
