<svg width="110" height="110" viewBox="0 0 110 110" fill="none" xmlns="http://www.w3.org/2000/svg">
<path d="M108.389 94.6387C107.499 94.6387 106.777 95.3601 106.777 96.25V100.332H3.22266V41.2769C3.22266 40.387 2.50143 39.6655 1.61133 39.6655C0.72123 39.6655 0 40.387 0 41.2769V105.811C0 108.121 1.87945 110 4.18945 110H105.811C108.121 110 110 108.121 110 105.811V96.25C110 95.3601 109.279 94.6387 108.389 94.6387ZM106.777 105.811C106.777 106.344 106.344 106.777 105.811 106.777H4.18945C3.65643 106.777 3.22266 106.344 3.22266 105.811V103.555H106.777V105.811Z" fill="white"/>
<path d="M105.811 0H40.498H4.18945C1.87945 0 0 1.87945 0 4.18945V34.375C0 35.2649 0.72123 35.9863 1.61133 35.9863C2.50143 35.9863 3.22266 35.2649 3.22266 34.375V26.8555H89.375C90.2651 26.8555 90.9863 26.134 90.9863 25.2441C90.9863 24.3543 90.2651 23.6328 89.375 23.6328H3.22266V20.4102H106.777V23.6328H96.2859C95.3958 23.6328 94.6745 24.3543 94.6745 25.2441C94.6745 26.134 95.3958 26.8555 96.2859 26.8555H106.777V89.3391C106.777 90.229 107.499 90.9504 108.389 90.9504C109.279 90.9504 110 90.229 110 89.3391V4.18945C110 1.87945 108.121 0 105.811 0ZM38.8867 17.1875H3.22266V4.18945C3.22266 3.65643 3.65643 3.22266 4.18945 3.22266H38.8867V17.1875ZM106.777 17.1875H42.1094V3.22266H105.811C106.344 3.22266 106.777 3.65643 106.777 4.18945V17.1875Z" fill="white"/>
<path d="M10.0977 5.37109C7.4323 5.37109 5.26367 7.53951 5.26367 10.2051C5.26367 12.8706 7.4323 15.0391 10.0977 15.0391C12.763 15.0391 14.9316 12.8706 14.9316 10.2051C14.9316 7.53951 12.763 5.37109 10.0977 5.37109ZM10.0977 11.8164C9.20906 11.8164 8.48633 11.0937 8.48633 10.2051C8.48633 9.31648 9.20906 8.59375 10.0977 8.59375C10.9863 8.59375 11.709 9.31648 11.709 10.2051C11.709 11.0937 10.9863 11.8164 10.0977 11.8164Z" fill="white"/>
<path d="M21.2695 5.37109C18.6042 5.37109 16.4355 7.53951 16.4355 10.2051C16.4355 12.8706 18.6042 15.0391 21.2695 15.0391C23.9349 15.0391 26.1035 12.8706 26.1035 10.2051C26.1035 7.53951 23.9349 5.37109 21.2695 5.37109ZM21.2695 11.8164C20.3809 11.8164 19.6582 11.0937 19.6582 10.2051C19.6582 9.31648 20.3809 8.59375 21.2695 8.59375C22.1581 8.59375 22.8809 9.31648 22.8809 10.2051C22.8809 11.0937 22.1581 11.8164 21.2695 11.8164Z" fill="white"/>
<path d="M32.2266 5.37109C29.5612 5.37109 27.3926 7.53951 27.3926 10.2051C27.3926 12.8706 29.5612 15.0391 32.2266 15.0391C34.8919 15.0391 37.0605 12.8706 37.0605 10.2051C37.0605 7.53951 34.8919 5.37109 32.2266 5.37109ZM32.2266 11.8164C31.338 11.8164 30.6152 11.0937 30.6152 10.2051C30.6152 9.31648 31.338 8.59375 32.2266 8.59375C33.1152 8.59375 33.8379 9.31648 33.8379 10.2051C33.8379 11.0937 33.1152 11.8164 32.2266 11.8164Z" fill="white"/>
<path d="M101.943 69.2871H95.2832V61.6086C95.2832 60.7187 94.562 59.9973 93.6719 59.9973H17.9395V54.0332H43.3984C44.2885 54.0332 45.0098 53.3118 45.0098 52.4219V35.2344C45.0098 34.3445 44.2885 33.623 43.3984 33.623H9.02344C8.13334 33.623 7.41211 34.3445 7.41211 35.2344V52.4219C7.41211 53.3118 8.13334 54.0332 9.02344 54.0332H14.7168V69.2871H8.05664C7.16654 69.2871 6.44531 70.0086 6.44531 70.8984V88.0859C6.44531 88.9758 7.16654 89.6973 8.05664 89.6973H33.8379C34.728 89.6973 35.4492 88.9758 35.4492 88.0859V70.8984C35.4492 70.0086 34.728 69.2871 33.8379 69.2871H17.9395V63.2199H53.3521V69.2871H42.1094C41.2193 69.2871 40.498 70.0086 40.498 70.8984V88.0859C40.498 88.9758 41.2193 89.6973 42.1094 89.6973H67.8906C68.7807 89.6973 69.502 88.9758 69.502 88.0859V70.8984C69.502 70.0086 68.7807 69.2871 67.8906 69.2871H56.5748V63.2199H92.0605V69.2871H76.1621C75.272 69.2871 74.5508 70.0086 74.5508 70.8984V88.0859C74.5508 88.9758 75.272 89.6973 76.1621 89.6973H101.943C102.833 89.6973 103.555 88.9758 103.555 88.0859V70.8984C103.555 70.0086 102.833 69.2871 101.943 69.2871ZM32.2266 72.5098V86.4746H9.66797V72.5098H32.2266ZM10.6348 50.8105V36.8457H41.7871V50.8105H10.6348ZM66.2793 72.5098V86.4746H43.7207V72.5098H66.2793ZM100.332 86.4746H77.7734V72.5098H100.332V86.4746Z" fill="white"/>
<path d="M90.6641 39.4238H54.1406C53.2505 39.4238 52.5293 40.1453 52.5293 41.0352C52.5293 41.925 53.2505 42.6465 54.1406 42.6465H90.6641C91.5542 42.6465 92.2754 41.925 92.2754 41.0352C92.2754 40.1453 91.5542 39.4238 90.6641 39.4238Z" fill="#F36E0F"/>
<path d="M90.6641 46.7285H54.1406C53.2505 46.7285 52.5293 47.45 52.5293 48.3398C52.5293 49.2297 53.2505 49.9512 54.1406 49.9512H90.6641C91.5542 49.9512 92.2754 49.2297 92.2754 48.3398C92.2754 47.45 91.5542 46.7285 90.6641 46.7285Z" fill="#F36E0F"/>
<path d="M31.7969 39.4238H19.7656C18.8755 39.4238 18.1543 40.1453 18.1543 41.0352C18.1543 41.925 18.8755 42.6465 19.7656 42.6465H31.7969C32.687 42.6465 33.4082 41.925 33.4082 41.0352C33.4082 40.1453 32.687 39.4238 31.7969 39.4238Z" fill="white"/>
<path d="M31.7969 44.5801H19.7656C18.8755 44.5801 18.1543 45.3015 18.1543 46.1914C18.1543 47.0813 18.8755 47.8027 19.7656 47.8027H31.7969C32.687 47.8027 33.4082 47.0813 33.4082 46.1914C33.4082 45.3015 32.687 44.5801 31.7969 44.5801Z" fill="white"/>
<path d="M25.1367 75.3027H16.543C15.6529 75.3027 14.9316 76.0242 14.9316 76.9141C14.9316 77.8039 15.6529 78.5254 16.543 78.5254H25.1367C26.0268 78.5254 26.748 77.8039 26.748 76.9141C26.748 76.0242 26.0268 75.3027 25.1367 75.3027Z" fill="white"/>
<path d="M25.1367 80.459H16.543C15.6529 80.459 14.9316 81.1804 14.9316 82.0703C14.9316 82.9602 15.6529 83.6816 16.543 83.6816H25.1367C26.0268 83.6816 26.748 82.9602 26.748 82.0703C26.748 81.1804 26.0268 80.459 25.1367 80.459Z" fill="white"/>
<path d="M59.2608 75.3027H50.667C49.7769 75.3027 49.0557 76.0242 49.0557 76.9141C49.0557 77.8039 49.7769 78.5254 50.667 78.5254H59.2608C60.1509 78.5254 60.8721 77.8039 60.8721 76.9141C60.8721 76.0242 60.1509 75.3027 59.2608 75.3027Z" fill="white"/>
<path d="M59.2608 80.459H50.667C49.7769 80.459 49.0557 81.1804 49.0557 82.0703C49.0557 82.9602 49.7769 83.6816 50.667 83.6816H59.2608C60.1509 83.6816 60.8721 82.9602 60.8721 82.0703C60.8721 81.1804 60.1509 80.459 59.2608 80.459Z" fill="white"/>
<path d="M93.3496 75.3027H84.7559C83.8658 75.3027 83.1445 76.0242 83.1445 76.9141C83.1445 77.8039 83.8658 78.5254 84.7559 78.5254H93.3496C94.2397 78.5254 94.9609 77.8039 94.9609 76.9141C94.9609 76.0242 94.2397 75.3027 93.3496 75.3027Z" fill="white"/>
<path d="M93.3496 80.459H84.7559C83.8658 80.459 83.1445 81.1804 83.1445 82.0703C83.1445 82.9602 83.8658 83.6816 84.7559 83.6816H93.3496C94.2397 83.6816 94.9609 82.9602 94.9609 82.0703C94.9609 81.1804 94.2397 80.459 93.3496 80.459Z" fill="white"/>
</svg>
