<svg width="110" height="110" viewBox="0 0 110 110" fill="none" xmlns="http://www.w3.org/2000/svg">
<path d="M19.4077 10.2924C20.6063 10.2924 21.578 9.32066 21.578 8.12201C21.578 6.92336 20.6063 5.95166 19.4077 5.95166C18.209 5.95166 17.2373 6.92336 17.2373 8.12201C17.2373 9.32066 18.209 10.2924 19.4077 10.2924Z" fill="white"/>
<path d="M8.66547 10.2924C9.86412 10.2924 10.8358 9.32066 10.8358 8.12201C10.8358 6.92336 9.86412 5.95166 8.66547 5.95166C7.46682 5.95166 6.49512 6.92336 6.49512 8.12201C6.49512 9.32066 7.46682 10.2924 8.66547 10.2924Z" fill="white"/>
<path d="M28.3056 10.2924C29.5043 10.2924 30.476 9.32066 30.476 8.12201C30.476 6.92336 29.5043 5.95166 28.3056 5.95166C27.107 5.95166 26.1353 6.92336 26.1353 8.12201C26.1353 9.32066 27.107 10.2924 28.3056 10.2924Z" fill="white"/>
<path d="M8.99023 49.6664H43.7146C44.6047 49.6664 45.3259 48.945 45.3259 48.0551V22.0117C45.3259 21.1218 44.6047 20.4004 43.7146 20.4004H8.99023C8.10014 20.4004 7.37891 21.1218 7.37891 22.0117V48.0551C7.37891 48.945 8.10014 49.6664 8.99023 49.6664V49.6664ZM10.6016 23.623H42.1032V46.4438H10.6016V23.623Z" fill="#F36E0F"/>
<path d="M8.99023 56.6113H43.7146C44.6047 56.6113 45.3259 55.8899 45.3259 55C45.3259 54.1101 44.6047 53.3887 43.7146 53.3887H8.99023C8.10014 53.3887 7.37891 54.1101 7.37891 55C7.37891 55.8899 8.10014 56.6113 8.99023 56.6113V56.6113Z" fill="white"/>
<path d="M8.99023 63.3394H37.2037C38.0938 63.3394 38.8151 62.6179 38.8151 61.728C38.8151 60.8381 38.0938 60.1167 37.2037 60.1167H8.99023C8.10014 60.1167 7.37891 60.8381 7.37891 61.728C7.37891 62.6179 8.10014 63.3394 8.99023 63.3394V63.3394Z" fill="white"/>
<path d="M8.99023 70.0669H26.3524C27.2425 70.0669 27.9637 69.3454 27.9637 68.4556C27.9637 67.5657 27.2425 66.8442 26.3524 66.8442H8.99023C8.10014 66.8442 7.37891 67.5657 7.37891 68.4556C7.37891 69.3454 8.10014 70.0669 8.99023 70.0669V70.0669Z" fill="white"/>
<path d="M108.389 55.8235C109.279 55.8235 110 55.102 110 54.2122V34.1217C110 30.8638 107.349 28.2135 104.092 28.2135H95.2424V5.9082C95.2424 2.65031 92.5921 0 89.3342 0H5.9082C2.65053 0 0 2.65031 0 5.9082V24.1609C0 25.0508 0.72123 25.7722 1.61133 25.7722C2.50143 25.7722 3.22266 25.0508 3.22266 24.1609V16.2443H92.0197V28.2135H87.8625V22.0129C87.8625 21.123 87.1413 20.4016 86.2512 20.4016H51.5281C50.638 20.4016 49.9168 21.123 49.9168 22.0129V48.0541C49.9168 48.944 50.638 49.6654 51.5281 49.6654H62.9378V53.3887H51.5275C50.6374 53.3887 49.9162 54.1101 49.9162 55C49.9162 55.8899 50.6374 56.6113 51.5275 56.6113H62.9378V60.1165H51.5275C50.6374 60.1165 49.9162 60.8379 49.9162 61.7278C49.9162 62.6177 50.6374 63.3392 51.5275 63.3392H62.9378V66.8443H51.5275C50.6374 66.8443 49.9162 67.5658 49.9162 68.4557C49.9162 69.3455 50.6374 70.067 51.5275 70.067H62.9378V78.5641H5.9082C4.42729 78.5641 3.22266 77.3594 3.22266 75.8785V31.6895C3.22266 30.7996 2.50143 30.0781 1.61133 30.0781C0.72123 30.0781 0 30.7996 0 31.6895V75.8785C0 79.1364 2.65053 81.7867 5.9082 81.7867H62.9378V104.092C62.9378 107.35 65.5884 110 68.846 110H104.092C107.349 110 110 107.35 110 104.092V61.7543C110 60.8644 109.279 60.1429 108.389 60.1429C107.499 60.1429 106.777 60.8644 106.777 61.7543V104.092C106.777 105.573 105.573 106.777 104.092 106.777H68.846C67.3651 106.777 66.1605 105.573 66.1605 104.092V44.4578H106.777V54.2124C106.777 55.1023 107.499 55.8235 108.389 55.8235V55.8235ZM3.22266 13.0217V5.9082C3.22266 4.42729 4.42729 3.22266 5.9082 3.22266H89.3342C90.8151 3.22266 92.0197 4.42729 92.0197 5.9082V13.0217H3.22266ZM53.1395 46.4428V23.6242H84.6398V28.2135H68.846C65.5884 28.2135 62.9378 30.8638 62.9378 34.1217V46.4428H53.1395ZM66.1605 41.2352V34.1219C66.1605 32.641 67.3651 31.4364 68.846 31.4364H104.092C105.573 31.4364 106.777 32.641 106.777 34.1219V41.2352H66.1605Z" fill="white"/>
<path d="M103.055 50.2251C103.055 49.3352 102.334 48.6138 101.444 48.6138H71.4941C70.604 48.6138 69.8828 49.3352 69.8828 50.2251V76.2685C69.8828 77.1583 70.604 77.8798 71.4941 77.8798H101.444C102.334 77.8798 103.055 77.1583 103.055 76.2685V50.2251H103.055ZM99.8327 74.6571H73.1055V51.8364H99.8325V74.6571H99.8327Z" fill="#F36E0F"/>
<path d="M103.055 83.2134C103.055 82.3235 102.334 81.6021 101.444 81.6021H71.4941C70.604 81.6021 69.8828 82.3235 69.8828 83.2134C69.8828 84.1033 70.604 84.8247 71.4941 84.8247H101.444C102.334 84.8247 103.055 84.1033 103.055 83.2134Z" fill="white"/>
<path d="M75.8346 34.7241H71.4941C70.604 34.7241 69.8828 35.4456 69.8828 36.3354C69.8828 37.2253 70.604 37.9468 71.4941 37.9468H75.8346C76.7247 37.9468 77.446 37.2253 77.446 36.3354C77.446 35.4456 76.7245 34.7241 75.8346 34.7241Z" fill="white"/>
</svg>
