<svg width="110" height="110" viewBox="0 0 110 110" fill="none" xmlns="http://www.w3.org/2000/svg">
<path d="M102.667 0H21.9998C17.95 0 14.6665 3.2835 14.6665 7.33333V36.6667H18.3332V7.33333C18.3332 5.30796 19.9745 3.66667 21.9998 3.66667H102.667C104.692 3.66667 106.333 5.30796 106.333 7.33333V73.3333C106.333 75.3587 104.692 77 102.667 77H54.9998V80.6667H102.667C106.716 80.6667 110 77.3832 110 73.3333V7.33333C110 3.2835 106.716 0 102.667 0Z" fill="white"/>
<path d="M22 7.3335H25.6667V11.0002H22V7.3335Z" fill="white"/>
<path d="M29.3335 7.3335H33.0002V11.0002H29.3335V7.3335Z" fill="white"/>
<path d="M36.6665 7.3335H40.3332V11.0002H36.6665V7.3335Z" fill="white"/>
<path d="M22 14.6665H102.667V18.3332H22V14.6665Z" fill="white"/>
<path d="M86.167 51.3335H102.667V55.0002H86.167V51.3335Z" fill="white"/>
<path d="M66 60.5H102.667V64.1667H66V60.5Z" fill="white"/>
<path d="M75.1665 33H95.3332V36.6667H75.1665V33Z" fill="white"/>
<path d="M75.1665 23.8335H89.8332V27.5002H75.1665V23.8335Z" fill="white"/>
<path d="M93.5 23.8335H102.667V27.5002H93.5V23.8335Z" fill="white"/>
<path d="M99 33H102.667V36.6667H99V33Z" fill="white"/>
<path d="M75.1665 42.1665H102.667V45.8332H75.1665V42.1665Z" fill="white"/>
<path d="M67.8335 51.3335H82.5002V55.0002H67.8335V51.3335Z" fill="white"/>
<path d="M86.167 69.6665H102.667V73.3332H86.167V69.6665Z" fill="white"/>
<path d="M67.8335 69.6665H82.5002V73.3332H67.8335V69.6665Z" fill="white"/>
<path d="M32.9998 33.0002V29.3335C32.9998 28.3206 33.8202 27.5002 34.8331 27.5002H38.4998V23.8335H34.8331C31.7962 23.8335 29.3331 26.2966 29.3331 29.3335V32.2412L26.2036 35.3707C25.4881 36.087 25.4881 37.2466 26.2036 37.963L29.3331 41.0925V44.0002C29.3331 47.0371 31.7962 49.5002 34.8331 49.5002H38.4998V45.8335H34.8331C33.8202 45.8335 32.9998 45.0131 32.9998 44.0002V40.3335C32.9998 39.8472 32.8063 39.3811 32.4626 39.0373L30.0921 36.6668L32.4626 34.2963C32.8063 33.9526 32.9998 33.4865 32.9998 33.0002Z" fill="#F36E0F"/>
<path d="M66.0002 44.0002V41.0925L69.1297 37.963C69.8451 37.2466 69.8451 36.087 69.1297 35.3707L66.0002 32.2412V29.3335C66.0002 26.2966 63.5371 23.8335 60.5002 23.8335H56.8335V27.5002H60.5002C61.5131 27.5002 62.3335 28.3206 62.3335 29.3335V33.0002C62.3335 33.4865 62.5269 33.9526 62.8707 34.2963L65.2412 36.6668L62.8707 39.0373C62.5269 39.3811 62.3335 39.8472 62.3335 40.3335V44.0002C62.3335 45.0131 61.5131 45.8335 60.5002 45.8335H56.8335V49.5002H60.5002C63.5371 49.5002 66.0002 47.0371 66.0002 44.0002Z" fill="#F36E0F"/>
<path d="M38.5 38.5H42.1667V42.1667H38.5V38.5Z" fill="#F36E0F"/>
<path d="M45.8335 38.5H49.5002V42.1667H45.8335V38.5Z" fill="#F36E0F"/>
<path d="M53.1665 38.5H56.8332V42.1667H53.1665V38.5Z" fill="#F36E0F"/>
<path d="M12.8333 110H67.8333C68.8462 110 69.6667 109.18 69.6667 108.167V86.1668C69.6667 85.1539 68.8462 84.3335 67.8333 84.3335H43.8167L60.8007 67.3495C61.5166 66.6336 61.5166 65.4731 60.8007 64.7572L45.2457 49.2013C44.517 48.5138 43.3803 48.5138 42.653 49.2013L25.6667 66.1835V42.1668C25.6667 41.1539 24.8462 40.3335 23.8333 40.3335H1.83333C0.820417 40.3335 0 41.1539 0 42.1668V97.1668C0.00825 104.251 5.74933 109.992 12.8333 110ZM47.6667 88.0002H66V106.333H47.6667V88.0002ZM43.9473 53.0894L56.9108 66.0529L43.9473 79.0168L30.9833 66.0529L43.9473 53.0894ZM25.6667 97.1668V71.3709L28.391 68.647L41.3545 81.6115L25.6667 97.3043C25.6667 97.2562 25.6667 97.2127 25.6667 97.1668ZM40.15 88.0002H44V106.333H21.8057C21.8391 106.3 21.8753 106.273 21.9083 106.241L40.15 88.0002ZM3.66667 44.0002H22V62.3335H3.66667V44.0002ZM3.66667 66.0002H22V84.3335H3.66667V66.0002ZM3.66667 88.0002H22V97.1668C21.9931 100.787 19.8577 104.062 16.5495 105.529C16.4963 105.554 16.4473 105.591 16.3918 105.613C15.9381 105.795 15.4687 105.941 14.9902 106.05C14.8816 106.076 14.7767 106.127 14.6657 106.148C11.9675 106.698 9.16667 106.008 7.03542 104.266C4.90417 102.525 3.66667 99.9196 3.66667 97.1668V88.0002Z" fill="white"/>
<path d="M12.8335 102.667C15.8704 102.667 18.3335 100.203 18.3335 97.1665C18.3335 94.1296 15.8704 91.6665 12.8335 91.6665C9.79658 91.6665 7.3335 94.1296 7.3335 97.1665C7.3335 100.203 9.79658 102.667 12.8335 102.667ZM12.8335 95.3332C13.8464 95.3332 14.6668 96.1536 14.6668 97.1665C14.6668 98.1794 13.8464 98.9998 12.8335 98.9998C11.8206 98.9998 11.0002 98.1794 11.0002 97.1665C11.0002 96.1536 11.8206 95.3332 12.8335 95.3332Z" fill="white"/>
</svg>
