<svg width="23" height="31" viewBox="0 0 23 31" fill="none" xmlns="http://www.w3.org/2000/svg">
<path d="M7.8717 2.26619C3.84411 3.34537 1.43718 7.47342 2.50779 11.469L6.18325 25.186C6.31445 25.6756 6.82011 25.9648 7.31393 25.8325C7.80742 25.7003 8.10075 25.197 7.96953 24.7073L4.29408 10.9903C3.48538 7.97225 5.3027 4.8534 8.34641 4.03784C11.3905 3.22219 14.5237 5.01455 15.3324 8.03265L19.1217 22.1745C19.6477 24.1377 18.4649 26.1672 16.485 26.6977C16.4703 26.7017 16.4591 26.7131 16.4447 26.7178C16.4287 26.7211 16.4144 26.7166 16.3988 26.7208C14.419 27.2513 12.3799 26.0852 11.8539 24.1219L9.58083 15.6388C9.32447 14.6821 9.9001 13.6944 10.8646 13.436C11.8294 13.1775 12.8218 13.745 13.0781 14.7017L15.2373 22.7599C15.3685 23.2496 15.8749 23.5386 16.3677 23.4065C16.8605 23.2745 17.1548 22.771 17.0236 22.2813L14.8644 14.2231C14.3464 12.2898 12.3393 11.142 10.3899 11.6644C8.44082 12.1866 7.27652 14.1842 7.79455 16.1175L10.0676 24.6006C10.8553 27.5405 13.9081 29.287 16.8734 28.4925C16.889 28.4883 16.8992 28.4771 16.9147 28.4721C16.9296 28.469 16.945 28.4733 16.9596 28.4694C19.9243 27.675 21.6954 24.636 20.9076 21.696L17.1183 7.5541C16.0478 3.55853 11.8993 1.18698 7.8717 2.26619Z" fill="#F36E0F"/>
</svg>
